<?xml version="1.0" encoding="UTF-8"?> <svg xmlns="http://www.w3.org/2000/svg" width="96" height="96" viewBox="0 0 96 96" fill="none"><rect width="96" height="96" rx="6" fill="#F2F6FC"></rect><circle cx="33.164" cy="57.3637" r="8.29091" fill="#3693E7"></circle><circle cx="64.5826" cy="59.1091" r="6.54545" fill="#3693E7"></circle><path d="M33.3727 61.1988C31.1628 61.1988 29.3646 59.3995 29.3646 57.188C29.3646 54.9779 31.1627 53.1798 33.3727 53.1798C35.5826 53.1798 37.3807 54.9779 37.3807 57.188C37.3807 59.3996 35.5826 61.1988 33.3727 61.1988ZM36.1746 57.1879C36.1746 55.6429 34.9178 54.386 33.3728 54.386C31.8278 54.386 30.5709 55.6429 30.571 57.1879C30.571 58.7344 31.8277 59.9925 33.3728 59.9925C34.9179 59.9925 36.1746 58.7343 36.1746 57.1879Z" fill="#1F2428" stroke="#F2F6FC" stroke-width="0.2"></path><path d="M47.9916 51.994C47.9916 51.6609 48.2616 51.3909 48.5947 51.3909C48.9278 51.3909 49.1979 51.6609 49.1979 51.994V54.7717C49.1979 55.1048 48.9279 55.3749 48.5947 55.3749C48.2616 55.3749 47.9916 55.1048 47.9916 54.7717V51.994Z" fill="#1F2428" stroke="#F2F6FC" stroke-width="0.2"></path><path d="M51.7416 51.994C51.7416 51.6609 52.0116 51.3909 52.3447 51.3909C52.6778 51.3909 52.9479 51.6609 52.9479 51.994V54.7717C52.9479 55.1048 52.6779 55.3749 52.3447 55.3749C52.0116 55.3749 51.7416 55.1048 51.7416 54.7717V51.994Z" fill="#1F2428" stroke="#F2F6FC" stroke-width="0.2"></path><path d="M55.4926 51.994C55.4926 51.6609 55.7625 51.3909 56.0957 51.3909C56.4288 51.3909 56.6988 51.6609 56.6988 51.994V54.7717C56.6988 55.1048 56.4289 55.3749 56.0957 55.3749C55.7625 55.3749 55.4926 55.1048 55.4926 54.7717V51.994Z" fill="#1F2428" stroke="#F2F6FC" stroke-width="0.2"></path><mask id="path-8-inside-1" fill="white"><path d="M69.9535 64.0555C71.2186 62.7566 72 60.9846 72 59.0326C72 57.6054 71.5811 56.2749 70.8623 55.1544V49.615C70.8623 47.8132 70.1385 46.1237 68.8243 44.8576C67.5764 43.6555 65.877 42.8997 64.0393 42.7295L61.8225 42.5228V36.981C61.8225 36.2683 61.2935 35.6784 60.6078 35.5792V33.2092C60.6078 33.1218 60.8197 33.0218 61.0185 32.9652L62.1748 32.633C62.5479 32.5257 62.7637 32.1362 62.6564 31.763C62.5492 31.3898 62.1595 31.1741 61.7865 31.2814L60.6322 31.6131C59.3411 31.98 59.2016 32.8514 59.2016 33.2091V35.5628H58.7432C57.9612 35.5628 57.325 36.199 57.325 36.9809V42.1033L53.9271 41.7865L51.2276 33.2823H51.5719C52.7525 33.2823 53.7129 32.3217 53.7129 31.1412C53.7129 29.9606 52.7525 29 51.5719 29H40.5384C40.1501 29 39.8353 29.3148 39.8353 29.7031C39.8353 30.0914 40.1501 30.4062 40.5384 30.4062H51.5719C51.9771 30.4062 52.3067 30.736 52.3067 31.1412C52.3067 31.5396 51.9702 31.8761 51.5719 31.8761H50.2668H29.635H28.33C27.9248 31.8761 27.5952 31.5463 27.5952 31.1412C27.5952 30.736 27.9248 30.4062 28.33 30.4062H37.1786C37.5669 30.4062 37.8818 30.0914 37.8818 29.7031C37.8818 29.3148 37.5669 29 37.1786 29H28.33C27.1494 29 26.189 29.9606 26.189 31.1412C26.189 32.3218 27.1494 33.2823 28.33 33.2823H28.932V45.7175C27.3561 46.3271 25.9106 47.2647 24.6804 48.4957C24.241 48.9352 23.9993 49.5203 24 50.1433C24.0007 50.7651 24.2426 51.3481 24.6794 51.783C24.9687 52.0737 25.3223 52.2773 25.7087 52.3823C24.8314 53.7756 24.323 55.4233 24.323 57.1879C24.323 59.6524 25.3136 61.8895 26.917 63.5231C26.9348 63.5457 26.9534 63.5679 26.9743 63.5887C26.9952 63.6096 27.0174 63.6283 27.0401 63.6461C28.6734 65.2479 30.9093 66.2374 33.3723 66.2374C35.8353 66.2374 38.0711 65.2479 39.7044 63.6461C39.7272 63.6283 39.7493 63.6096 39.7703 63.5887C39.7911 63.5679 39.8098 63.5457 39.8275 63.5231C40.3591 62.9816 40.8234 62.3739 41.2064 61.7134H44.3158C44.3166 61.7134 44.3173 61.7136 44.318 61.7136C44.3187 61.7136 44.3196 61.7134 44.3203 61.7134H49.6978C50.0862 61.7134 50.4009 61.3986 50.4009 61.0103C50.4009 60.622 50.0862 60.3072 49.6978 60.3072H45.2643C45.4223 59.702 45.5331 59.0871 45.5978 58.4679H57.615C57.6005 58.6544 57.5907 58.8424 57.5907 59.0326C57.5907 59.4677 57.6317 59.8931 57.7059 60.3072H52.7625C52.3741 60.3072 52.0594 60.622 52.0594 61.0103C52.0594 61.3986 52.3741 61.7134 52.7625 61.7134H58.11C58.4662 62.5985 58.9925 63.3971 59.6494 64.0682C59.6661 64.0892 59.6837 64.1096 59.7031 64.129C59.7224 64.1482 59.7427 64.1657 59.7635 64.1823C61.063 65.4525 62.8388 66.2375 64.7953 66.2375C66.7474 66.2375 68.5193 65.456 69.8182 64.1908C69.8434 64.1717 69.8679 64.1514 69.8909 64.1283C69.9141 64.1052 69.9344 64.0807 69.9535 64.0555ZM68.817 62.0601C68.5425 61.7854 68.0973 61.7855 67.8227 62.0601C67.5481 62.3347 67.5481 62.7799 67.8228 63.0544L68.3652 63.5968C67.5545 64.2324 66.5715 64.6566 65.4985 64.787V64.0192C65.4985 63.6309 65.1838 63.3161 64.7954 63.3161C64.407 63.3161 64.0923 63.6309 64.0923 64.0192V64.787C63.0196 64.6567 62.0369 64.2327 61.2263 63.5975L61.7687 63.0537C62.043 62.7788 62.0424 62.3337 61.7675 62.0594C61.4924 61.7851 61.0472 61.7858 60.7732 62.0607L60.2319 62.6034C59.5961 61.7924 59.1716 60.8092 59.0412 59.7357H59.8118C60.2002 59.7357 60.5149 59.4209 60.5149 59.0326C60.5149 58.6443 60.2002 58.3295 59.8118 58.3295H59.0412C59.1716 57.2564 59.5958 56.2735 60.2313 55.4627L60.7737 56.0052C60.9111 56.1425 61.091 56.2111 61.271 56.2111C61.4509 56.2111 61.6309 56.1425 61.7681 56.0052C62.0428 55.7306 62.0428 55.2854 61.7682 55.0108L61.2257 54.4683C62.0363 53.8328 63.0194 53.4086 64.0924 53.2782V54.0488C64.0924 54.4371 64.4071 54.7519 64.7955 54.7519C65.1839 54.7519 65.4986 54.4371 65.4986 54.0488V53.2782C66.572 53.4087 67.5552 53.8331 68.3661 54.469L67.8234 55.0103C67.5485 55.2845 67.548 55.7297 67.8222 56.0046C67.9596 56.1423 68.1398 56.2112 68.32 56.2112C68.4997 56.2112 68.6794 56.1428 68.8166 56.0059L69.3604 55.4636C69.9955 56.2741 70.4195 57.2569 70.5499 58.3296H69.7821C69.3937 58.3296 69.0789 58.6444 69.0789 59.0327C69.0789 59.421 69.3937 59.7358 69.7821 59.7358H70.5499C70.4195 60.8089 69.9953 61.7919 69.3598 62.6026L68.817 62.0601ZM69.4074 48.9118H65.3934C64.0312 48.9118 62.9228 47.8023 62.9228 46.4385V44.0378L63.9092 44.1297C66.8569 44.4027 69.0619 46.3662 69.4074 48.9118ZM58.7312 36.981C58.7312 36.9759 58.7379 36.9691 58.7431 36.9691H60.4043C60.4095 36.9691 60.4163 36.9759 60.4163 36.981V42.3916L58.7312 42.2345V36.981ZM38.3069 33.2824H49.7521L52.4368 41.7403H51.0002C50.4166 41.7403 49.8818 41.9526 49.4681 42.3035L47.552 41.1213L48.1058 40.2238C48.3098 39.8935 48.2073 39.4602 47.8768 39.2562C47.5463 39.0522 47.1131 39.1548 46.9092 39.4853L45.0619 42.4782C44.858 42.8086 44.9604 43.2419 45.2909 43.4458C45.406 43.5169 45.5335 43.5507 45.6595 43.5507C45.8953 43.5507 46.1257 43.4322 46.2586 43.2168L46.8134 42.3179L48.7117 43.4891C48.6574 43.6879 48.6278 43.8969 48.6278 44.1128V48.2899H42.27V38.7992C42.27 37.3182 41.065 36.1132 39.5841 36.1132C39.1221 36.1132 38.6869 36.2307 38.3069 36.4374V33.2824ZM52.6946 43.1466V47.1935C52.6946 47.7981 52.2028 48.2899 51.5983 48.2899H50.0341V44.1128C50.0341 43.58 50.4675 43.1466 51.0003 43.1466H52.6946ZM38.3069 38.7992C38.3069 38.0936 38.8798 37.5194 39.5841 37.5194C40.2897 37.5194 40.8638 38.0936 40.8638 38.7992V47.4405C40.0704 46.8282 39.2126 46.3197 38.3069 45.9226V38.7992ZM30.3382 33.2824H36.9007V45.4069C35.77 45.0698 34.5841 44.8948 33.3713 44.8948C32.3346 44.8948 31.3177 45.0226 30.3382 45.2701V33.2824ZM33.3723 51.493C33.7606 51.493 34.0754 51.1782 34.0754 50.7898V49.5809C35.6552 49.7257 37.0973 50.352 38.2527 51.3129L37.399 52.1667C37.1244 52.4412 37.1244 52.8865 37.399 53.161C37.5363 53.2983 37.7163 53.3669 37.8962 53.3669C38.0761 53.3669 38.2561 53.2983 38.3933 53.161L39.2473 52.3069C40.2094 53.4622 40.8367 54.9046 40.9816 56.4847H39.7701C39.3818 56.4847 39.0669 56.7995 39.0669 57.1878C39.0669 57.5761 39.3818 57.8909 39.7701 57.8909H40.9816C40.8367 59.4719 40.2092 60.9151 39.2468 62.071L38.3933 61.2174C38.1187 60.9428 37.6734 60.9428 37.3989 61.2174C37.1243 61.492 37.1243 61.9372 37.3989 62.2117L38.2523 63.0651C37.097 64.0261 35.6549 64.6526 34.0753 64.7974V63.5884C34.0753 63.2001 33.7605 62.8853 33.3722 62.8853C32.9839 62.8853 32.6691 63.2001 32.6691 63.5884V64.7974C31.0895 64.6526 29.6473 64.0261 28.492 63.0651L29.3454 62.2117C29.62 61.9371 29.62 61.4919 29.3454 61.2174C29.0708 60.9428 28.6256 60.9428 28.3511 61.2174L27.4975 62.071C26.5352 60.9151 25.9077 59.4719 25.7628 57.8909H26.9717C27.36 57.8909 27.6748 57.5761 27.6748 57.1878C27.6748 56.7995 27.36 56.4847 26.9717 56.4847H25.7629C25.9078 54.9046 26.5351 53.4622 27.4972 52.3069L28.3511 53.161C28.4884 53.2983 28.6684 53.3669 28.8483 53.3669C29.0282 53.3669 29.2082 53.2983 29.3454 53.161C29.62 52.8864 29.62 52.4412 29.3454 52.1667L28.4918 51.3129C29.6471 50.352 31.0894 49.7257 32.6691 49.5809V50.7899C32.6692 51.1782 32.984 51.493 33.3723 51.493ZM41.8674 60.3071C42.2258 59.3342 42.4216 58.2836 42.4216 57.1879C42.4216 54.723 41.43 52.4857 39.8253 50.8524C39.8082 50.8308 39.7902 50.8097 39.7703 50.7897C39.7502 50.7697 39.729 50.7516 39.7073 50.7344C38.0738 49.1314 35.8367 48.141 33.3723 48.141C30.9079 48.141 28.6707 49.1314 27.0371 50.7345C27.0155 50.7516 26.9943 50.7698 26.9742 50.7897C26.801 50.9629 26.57 51.0582 26.3235 51.0582C26.3232 51.0582 26.3228 51.0582 26.3225 51.0582C26.0769 51.058 25.8473 50.963 25.6737 50.7887C25.5015 50.6172 25.4065 50.3875 25.4063 50.1419C25.406 49.8951 25.5014 49.6636 25.6749 49.4901C27.7301 47.4336 30.4634 46.3011 33.3713 46.3011C36.2792 46.3011 39.0132 47.4337 41.0696 49.4901C43.126 51.5465 41.0697 49.4902 41.0697 49.4902C43.2765 51.6971 44.3897 54.6434 44.2559 57.6427C44.249 57.6823 44.2447 57.7229 44.2447 57.7646C44.2447 57.7821 44.246 57.7993 44.2473 57.8165C44.1968 58.6485 44.051 59.4835 43.8049 60.307H41.8674V60.3071ZM45.6642 57.0615C45.6557 56.2189 45.5609 55.3753 45.3786 54.544C44.9903 52.7738 44.2163 51.1236 43.1161 49.6962H51.5983C52.9783 49.6962 54.1009 48.5734 54.1009 47.1935V43.2152L61.5166 43.9067V46.4386C61.5166 48.5778 63.2557 50.3182 65.3934 50.3182H69.4562V53.545C68.1987 52.4754 66.5717 51.8278 64.7954 51.8278C62.8238 51.8278 61.0354 52.6245 59.7332 53.912C59.723 53.9211 59.7125 53.9298 59.7026 53.9397C59.6928 53.9495 59.6841 53.96 59.675 53.9702C58.8337 54.821 58.2038 55.88 57.8671 57.0616H45.6642V57.0615Z"></path></mask><path d="M69.9535 64.0555C71.2186 62.7566 72 60.9846 72 59.0326C72 57.6054 71.5811 56.2749 70.8623 55.1544V49.615C70.8623 47.8132 70.1385 46.1237 68.8243 44.8576C67.5764 43.6555 65.877 42.8997 64.0393 42.7295L61.8225 42.5228V36.981C61.8225 36.2683 61.2935 35.6784 60.6078 35.5792V33.2092C60.6078 33.1218 60.8197 33.0218 61.0185 32.9652L62.1748 32.633C62.5479 32.5257 62.7637 32.1362 62.6564 31.763C62.5492 31.3898 62.1595 31.1741 61.7865 31.2814L60.6322 31.6131C59.3411 31.98 59.2016 32.8514 59.2016 33.2091V35.5628H58.7432C57.9612 35.5628 57.325 36.199 57.325 36.9809V42.1033L53.9271 41.7865L51.2276 33.2823H51.5719C52.7525 33.2823 53.7129 32.3217 53.7129 31.1412C53.7129 29.9606 52.7525 29 51.5719 29H40.5384C40.1501 29 39.8353 29.3148 39.8353 29.7031C39.8353 30.0914 40.1501 30.4062 40.5384 30.4062H51.5719C51.9771 30.4062 52.3067 30.736 52.3067 31.1412C52.3067 31.5396 51.9702 31.8761 51.5719 31.8761H50.2668H29.635H28.33C27.9248 31.8761 27.5952 31.5463 27.5952 31.1412C27.5952 30.736 27.9248 30.4062 28.33 30.4062H37.1786C37.5669 30.4062 37.8818 30.0914 37.8818 29.7031C37.8818 29.3148 37.5669 29 37.1786 29H28.33C27.1494 29 26.189 29.9606 26.189 31.1412C26.189 32.3218 27.1494 33.2823 28.33 33.2823H28.932V45.7175C27.3561 46.3271 25.9106 47.2647 24.6804 48.4957C24.241 48.9352 23.9993 49.5203 24 50.1433C24.0007 50.7651 24.2426 51.3481 24.6794 51.783C24.9687 52.0737 25.3223 52.2773 25.7087 52.3823C24.8314 53.7756 24.323 55.4233 24.323 57.1879C24.323 59.6524 25.3136 61.8895 26.917 63.5231C26.9348 63.5457 26.9534 63.5679 26.9743 63.5887C26.9952 63.6096 27.0174 63.6283 27.0401 63.6461C28.6734 65.2479 30.9093 66.2374 33.3723 66.2374C35.8353 66.2374 38.0711 65.2479 39.7044 63.6461C39.7272 63.6283 39.7493 63.6096 39.7703 63.5887C39.7911 63.5679 39.8098 63.5457 39.8275 63.5231C40.3591 62.9816 40.8234 62.3739 41.2064 61.7134H44.3158C44.3166 61.7134 44.3173 61.7136 44.318 61.7136C44.3187 61.7136 44.3196 61.7134 44.3203 61.7134H49.6978C50.0862 61.7134 50.4009 61.3986 50.4009 61.0103C50.4009 60.622 50.0862 60.3072 49.6978 60.3072H45.2643C45.4223 59.702 45.5331 59.0871 45.5978 58.4679H57.615C57.6005 58.6544 57.5907 58.8424 57.5907 59.0326C57.5907 59.4677 57.6317 59.8931 57.7059 60.3072H52.7625C52.3741 60.3072 52.0594 60.622 52.0594 61.0103C52.0594 61.3986 52.3741 61.7134 52.7625 61.7134H58.11C58.4662 62.5985 58.9925 63.3971 59.6494 64.0682C59.6661 64.0892 59.6837 64.1096 59.7031 64.129C59.7224 64.1482 59.7427 64.1657 59.7635 64.1823C61.063 65.4525 62.8388 66.2375 64.7953 66.2375C66.7474 66.2375 68.5193 65.456 69.8182 64.1908C69.8434 64.1717 69.8679 64.1514 69.8909 64.1283C69.9141 64.1052 69.9344 64.0807 69.9535 64.0555ZM68.817 62.0601C68.5425 61.7854 68.0973 61.7855 67.8227 62.0601C67.5481 62.3347 67.5481 62.7799 67.8228 63.0544L68.3652 63.5968C67.5545 64.2324 66.5715 64.6566 65.4985 64.787V64.0192C65.4985 63.6309 65.1838 63.3161 64.7954 63.3161C64.407 63.3161 64.0923 63.6309 64.0923 64.0192V64.787C63.0196 64.6567 62.0369 64.2327 61.2263 63.5975L61.7687 63.0537C62.043 62.7788 62.0424 62.3337 61.7675 62.0594C61.4924 61.7851 61.0472 61.7858 60.7732 62.0607L60.2319 62.6034C59.5961 61.7924 59.1716 60.8092 59.0412 59.7357H59.8118C60.2002 59.7357 60.5149 59.4209 60.5149 59.0326C60.5149 58.6443 60.2002 58.3295 59.8118 58.3295H59.0412C59.1716 57.2564 59.5958 56.2735 60.2313 55.4627L60.7737 56.0052C60.9111 56.1425 61.091 56.2111 61.271 56.2111C61.4509 56.2111 61.6309 56.1425 61.7681 56.0052C62.0428 55.7306 62.0428 55.2854 61.7682 55.0108L61.2257 54.4683C62.0363 53.8328 63.0194 53.4086 64.0924 53.2782V54.0488C64.0924 54.4371 64.4071 54.7519 64.7955 54.7519C65.1839 54.7519 65.4986 54.4371 65.4986 54.0488V53.2782C66.572 53.4087 67.5552 53.8331 68.3661 54.469L67.8234 55.0103C67.5485 55.2845 67.548 55.7297 67.8222 56.0046C67.9596 56.1423 68.1398 56.2112 68.32 56.2112C68.4997 56.2112 68.6794 56.1428 68.8166 56.0059L69.3604 55.4636C69.9955 56.2741 70.4195 57.2569 70.5499 58.3296H69.7821C69.3937 58.3296 69.0789 58.6444 69.0789 59.0327C69.0789 59.421 69.3937 59.7358 69.7821 59.7358H70.5499C70.4195 60.8089 69.9953 61.7919 69.3598 62.6026L68.817 62.0601ZM69.4074 48.9118H65.3934C64.0312 48.9118 62.9228 47.8023 62.9228 46.4385V44.0378L63.9092 44.1297C66.8569 44.4027 69.0619 46.3662 69.4074 48.9118ZM58.7312 36.981C58.7312 36.9759 58.7379 36.9691 58.7431 36.9691H60.4043C60.4095 36.9691 60.4163 36.9759 60.4163 36.981V42.3916L58.7312 42.2345V36.981ZM38.3069 33.2824H49.7521L52.4368 41.7403H51.0002C50.4166 41.7403 49.8818 41.9526 49.4681 42.3035L47.552 41.1213L48.1058 40.2238C48.3098 39.8935 48.2073 39.4602 47.8768 39.2562C47.5463 39.0522 47.1131 39.1548 46.9092 39.4853L45.0619 42.4782C44.858 42.8086 44.9604 43.2419 45.2909 43.4458C45.406 43.5169 45.5335 43.5507 45.6595 43.5507C45.8953 43.5507 46.1257 43.4322 46.2586 43.2168L46.8134 42.3179L48.7117 43.4891C48.6574 43.6879 48.6278 43.8969 48.6278 44.1128V48.2899H42.27V38.7992C42.27 37.3182 41.065 36.1132 39.5841 36.1132C39.1221 36.1132 38.6869 36.2307 38.3069 36.4374V33.2824ZM52.6946 43.1466V47.1935C52.6946 47.7981 52.2028 48.2899 51.5983 48.2899H50.0341V44.1128C50.0341 43.58 50.4675 43.1466 51.0003 43.1466H52.6946ZM38.3069 38.7992C38.3069 38.0936 38.8798 37.5194 39.5841 37.5194C40.2897 37.5194 40.8638 38.0936 40.8638 38.7992V47.4405C40.0704 46.8282 39.2126 46.3197 38.3069 45.9226V38.7992ZM30.3382 33.2824H36.9007V45.4069C35.77 45.0698 34.5841 44.8948 33.3713 44.8948C32.3346 44.8948 31.3177 45.0226 30.3382 45.2701V33.2824ZM33.3723 51.493C33.7606 51.493 34.0754 51.1782 34.0754 50.7898V49.5809C35.6552 49.7257 37.0973 50.352 38.2527 51.3129L37.399 52.1667C37.1244 52.4412 37.1244 52.8865 37.399 53.161C37.5363 53.2983 37.7163 53.3669 37.8962 53.3669C38.0761 53.3669 38.2561 53.2983 38.3933 53.161L39.2473 52.3069C40.2094 53.4622 40.8367 54.9046 40.9816 56.4847H39.7701C39.3818 56.4847 39.0669 56.7995 39.0669 57.1878C39.0669 57.5761 39.3818 57.8909 39.7701 57.8909H40.9816C40.8367 59.4719 40.2092 60.9151 39.2468 62.071L38.3933 61.2174C38.1187 60.9428 37.6734 60.9428 37.3989 61.2174C37.1243 61.492 37.1243 61.9372 37.3989 62.2117L38.2523 63.0651C37.097 64.0261 35.6549 64.6526 34.0753 64.7974V63.5884C34.0753 63.2001 33.7605 62.8853 33.3722 62.8853C32.9839 62.8853 32.6691 63.2001 32.6691 63.5884V64.7974C31.0895 64.6526 29.6473 64.0261 28.492 63.0651L29.3454 62.2117C29.62 61.9371 29.62 61.4919 29.3454 61.2174C29.0708 60.9428 28.6256 60.9428 28.3511 61.2174L27.4975 62.071C26.5352 60.9151 25.9077 59.4719 25.7628 57.8909H26.9717C27.36 57.8909 27.6748 57.5761 27.6748 57.1878C27.6748 56.7995 27.36 56.4847 26.9717 56.4847H25.7629C25.9078 54.9046 26.5351 53.4622 27.4972 52.3069L28.3511 53.161C28.4884 53.2983 28.6684 53.3669 28.8483 53.3669C29.0282 53.3669 29.2082 53.2983 29.3454 53.161C29.62 52.8864 29.62 52.4412 29.3454 52.1667L28.4918 51.3129C29.6471 50.352 31.0894 49.7257 32.6691 49.5809V50.7899C32.6692 51.1782 32.984 51.493 33.3723 51.493ZM41.8674 60.3071C42.2258 59.3342 42.4216 58.2836 42.4216 57.1879C42.4216 54.723 41.43 52.4857 39.8253 50.8524C39.8082 50.8308 39.7902 50.8097 39.7703 50.7897C39.7502 50.7697 39.729 50.7516 39.7073 50.7344C38.0738 49.1314 35.8367 48.141 33.3723 48.141C30.9079 48.141 28.6707 49.1314 27.0371 50.7345C27.0155 50.7516 26.9943 50.7698 26.9742 50.7897C26.801 50.9629 26.57 51.0582 26.3235 51.0582C26.3232 51.0582 26.3228 51.0582 26.3225 51.0582C26.0769 51.058 25.8473 50.963 25.6737 50.7887C25.5015 50.6172 25.4065 50.3875 25.4063 50.1419C25.406 49.8951 25.5014 49.6636 25.6749 49.4901C27.7301 47.4336 30.4634 46.3011 33.3713 46.3011C36.2792 46.3011 39.0132 47.4337 41.0696 49.4901C43.126 51.5465 41.0697 49.4902 41.0697 49.4902C43.2765 51.6971 44.3897 54.6434 44.2559 57.6427C44.249 57.6823 44.2447 57.7229 44.2447 57.7646C44.2447 57.7821 44.246 57.7993 44.2473 57.8165C44.1968 58.6485 44.051 59.4835 43.8049 60.307H41.8674V60.3071ZM45.6642 57.0615C45.6557 56.2189 45.5609 55.3753 45.3786 54.544C44.9903 52.7738 44.2163 51.1236 43.1161 49.6962H51.5983C52.9783 49.6962 54.1009 48.5734 54.1009 47.1935V43.2152L61.5166 43.9067V46.4386C61.5166 48.5778 63.2557 50.3182 65.3934 50.3182H69.4562V53.545C68.1987 52.4754 66.5717 51.8278 64.7954 51.8278C62.8238 51.8278 61.0354 52.6245 59.7332 53.912C59.723 53.9211 59.7125 53.9298 59.7026 53.9397C59.6928 53.9495 59.6841 53.96 59.675 53.9702C58.8337 54.821 58.2038 55.88 57.8671 57.0616H45.6642V57.0615Z" fill="#1F2428" stroke="#F2F6FC" stroke-width="0.4" mask="url(#path-8-inside-1)"></path><path d="M64.7952 60.407C64.0385 60.407 63.4234 59.7902 63.4234 59.0325C63.4234 58.276 64.0387 57.6606 64.7952 57.6606C65.5516 57.6606 66.1669 58.2759 66.1669 59.0324L64.7952 60.407ZM64.7952 60.407C65.5519 60.407 66.167 59.7903 66.1669 59.0325L64.7952 60.407ZM62.2172 59.0326C62.2172 57.611 63.3737 56.4545 64.7952 56.4545C66.2166 56.4545 67.3732 57.611 67.3731 59.0325C67.3731 60.4556 66.2165 61.6133 64.7952 61.6133C63.3738 61.6133 62.2172 60.4556 62.2172 59.0326Z" fill="#1F2428" stroke="#F2F6FC" stroke-width="0.2"></path></svg> 