<?xml version="1.0" encoding="UTF-8"?> <svg xmlns="http://www.w3.org/2000/svg" width="96" height="96" viewBox="0 0 96 96" fill="none"><rect width="96" height="96" rx="6" transform="matrix(-1 0 0 1 96 0)" fill="#F2F6FC"></rect><path d="M26 51L28.1373 53.9923C28.3766 54.3272 28.6821 54.6093 29.035 54.821L30.2875 55.5725C30.7537 55.8522 31.2872 56 31.831 56H36V65C36 66.6569 34.6569 68 33 68H29C27.3431 68 26 66.6569 26 65V51Z" fill="#3693E7"></path><path d="M70 51L67.8627 53.9923C67.6234 54.3272 67.3179 54.6093 66.965 54.821L65.7125 55.5725C65.2463 55.8522 64.7128 56 64.169 56H60V65C60 66.6569 61.3431 68 63 68H67C68.6569 68 70 66.6569 70 65V51Z" fill="#3693E7"></path><mask id="path-4-inside-1" fill="white"><path d="M71.5535 44.1097C70.9923 43.2282 70.038 42.8337 69.3411 42.8337H63.989V40.402C63.989 38.2503 62.2391 36.4997 60.0885 36.4997L57.0704 36.498V31.8084H65.5079C67.2232 31.8084 68.1206 30.6043 68.1206 29.4148C68.1206 28.2261 67.2232 27.0226 65.5079 27.0226H54.8771C53.4218 27.0226 52.2378 28.2082 52.2378 29.6654V32.083H43.7635V29.64C43.7635 28.1843 42.5784 27 41.1215 27H30.4937C28.7777 27 27.8799 28.2031 27.8799 29.3916C27.8799 30.5799 28.7777 31.783 30.4937 31.783H38.9284V36.4997H35.9106C33.7611 36.4997 32.0125 38.2503 32.0125 40.402V42.8337H26.6603C25.9632 42.8337 25.0086 43.2279 24.4473 44.1086C24.0232 44.7742 23.6849 45.9269 24.4827 47.6397L25.2361 49.2555C25.197 52.6214 25.2105 56.0525 25.2239 59.3726C25.2307 61.0536 25.2377 62.7918 25.2377 64.4956C25.2377 66.6691 27.0041 68.4374 29.1754 68.4374H33.1725C35.3438 68.4374 37.1102 66.6691 37.1102 64.4956V61.4009L39.893 61.1358C40.6679 62.2084 41.9278 62.9082 43.3488 62.9082H52.6529C54.0712 62.9082 55.3297 62.2082 56.1045 61.1356L58.8886 61.4009V64.4956C58.8886 66.6691 60.6562 68.4374 62.8291 68.4374H66.8234C68.9962 68.4374 70.7639 66.6691 70.7639 64.4956C70.7639 62.8185 70.7703 61.1078 70.7767 59.4533C70.7893 56.1066 70.8021 52.6481 70.7627 49.2556L71.516 47.64C72.315 45.9283 71.9774 44.7755 71.5535 44.1097ZM64.8725 28.4395H65.5078C66.3904 28.4395 66.7037 28.9649 66.7037 29.4148C66.7037 29.8654 66.3904 30.3915 65.5078 30.3915H64.8725V28.4395ZM57.0703 28.4395H63.4558V30.3915H57.0703V28.4395ZM53.6547 29.6654C53.6547 28.9895 54.2031 28.4395 54.8772 28.4395H55.6535V31.1V36.4972L53.6547 36.496V29.6654ZM40.3452 31.0746V28.4169H41.1215C41.7971 28.4169 42.3467 28.9656 42.3467 29.64V36.4996H40.3452V31.0746ZM31.129 30.3661H30.4937C29.6101 30.3661 29.2967 29.8411 29.2967 29.3916C29.2967 28.9419 29.6102 28.4169 30.4937 28.4169H31.129V30.3661ZM32.5457 30.3661V28.4169H38.9284V30.3661H32.5457ZM33.4292 40.4019C33.4292 39.0315 34.5424 37.9166 35.9106 37.9166H46.324C46.7152 37.9166 47.0324 37.5995 47.0324 37.2082C47.0324 36.8168 46.7152 36.4997 46.324 36.4997H43.7636V33.5001H52.2379V36.4954L49.7682 36.4941C49.7681 36.4941 49.7679 36.4941 49.7678 36.4941C49.3768 36.4941 49.0596 36.811 49.0594 37.2022C49.0591 37.5935 49.3762 37.9108 49.7674 37.911L56.179 37.9146C56.2374 37.9301 56.2985 37.9393 56.3619 37.9393C56.425 37.9393 56.4858 37.9303 56.5441 37.9149L60.0881 37.9168C61.4578 37.9168 62.5723 39.0317 62.5723 40.4021V42.9803L51.8599 45.4835L48.8171 46.1782C48.21 46.3167 47.7778 46.3159 47.1652 46.1754L44.145 45.4843L33.4293 42.9804V40.4019H33.4292ZM35.6935 58.4557H34.5444C34.1532 58.4557 33.836 58.7728 33.836 59.1641C33.836 59.5555 34.1532 59.8726 34.5444 59.8726H35.6935V60.7496V60.7541V61.8868H34.5444C34.1532 61.8868 33.836 62.204 33.836 62.5953C33.836 62.9866 34.1532 63.3038 34.5444 63.3038H35.6935V64.4958C35.6935 65.8881 34.5627 67.0207 33.1725 67.0207H29.1754C27.7854 67.0207 26.6545 65.888 26.6545 64.4958C26.6545 64.0999 26.6541 63.7021 26.6534 63.3038H27.8036C28.1948 63.3038 28.5119 62.9866 28.5119 62.5953C28.5119 62.204 28.1948 61.8868 27.8036 61.8868H26.6501C26.648 61.2116 26.6455 60.5385 26.6428 59.8727H27.8037C28.1949 59.8727 28.512 59.5555 28.512 59.1642C28.512 58.7729 28.1949 58.4558 27.8037 58.4558H26.6371C26.6292 56.4075 26.6233 54.3247 26.6309 52.2473L27.2887 53.6579C28.1903 55.5894 30.3946 57.046 32.4161 57.046H35.6935V58.4557ZM37.1102 59.9776V57.0458H39.0865V58.6445C39.0865 59.0358 39.1405 59.4146 39.2397 59.7747L37.1102 59.9776ZM52.6528 61.4914H43.3487C42.2963 61.4914 41.3762 60.9163 40.8839 60.0642C40.8753 60.0475 40.8658 60.0313 40.8558 60.0154C40.6314 59.6084 40.5032 59.1413 40.5032 58.6445V57.0458H45.974C46.3652 57.0458 46.6824 56.7286 46.6824 56.3373C46.6824 55.946 46.3652 55.6288 45.974 55.6288H32.4161C30.9583 55.6288 29.2342 54.4758 28.5727 53.0587L26.6035 48.8352C26.594 48.8117 26.5833 48.7888 26.5715 48.7666L25.767 47.0411C25.3503 46.1465 25.3071 45.3957 25.6422 44.8701C25.9298 44.4188 26.4193 44.2506 26.6604 44.2506H32.6394L43.8259 46.8646L46.8488 47.5564C47.263 47.6515 47.6309 47.6989 47.9982 47.6989C48.3618 47.6989 48.725 47.6524 49.1325 47.5594L52.179 46.8639L63.3625 44.2506H69.3414C69.5821 44.2506 70.0711 44.4189 70.3586 44.8705C70.6933 45.3962 70.6496 46.1466 70.2322 47.0409L69.4276 48.7665C69.4157 48.7887 69.405 48.8117 69.3955 48.8353L67.426 53.0592C66.6877 54.6464 64.8578 55.6288 63.5857 55.6288H56.2114H56.2096H49.4603C49.0691 55.6288 48.7519 55.946 48.7519 56.3373C48.7519 56.7286 49.0691 57.0458 49.4603 57.0458H55.4995L55.4956 58.6435C55.4931 60.2138 54.2178 61.4914 52.6528 61.4914ZM56.7581 59.7746C56.8573 59.415 56.9116 59.0368 56.9122 58.6463L56.9161 57.0459H58.8885V59.9777L56.7581 59.7746ZM69.3633 58.4557H68.195C67.8038 58.4557 67.4867 58.7728 67.4867 59.1641C67.4867 59.5555 67.8038 59.8726 68.195 59.8726H69.3581C69.3556 60.5386 69.3531 61.2108 69.3512 61.8867H68.195C67.8038 61.8867 67.4867 62.2039 67.4867 62.5952C67.4867 62.9865 67.8038 63.3037 68.195 63.3037H69.348C69.3473 63.702 69.3469 64.0998 69.3469 64.4957C69.3469 65.888 68.2148 67.0206 66.8232 67.0206H62.8289C61.4372 67.0206 60.3051 65.8879 60.3051 64.4957V63.3037H61.4542C61.8454 63.3037 62.1626 62.9865 62.1626 62.5952C62.1626 62.2039 61.8454 61.8867 61.4542 61.8867H60.3051V60.754C60.3051 60.7526 60.3051 60.7511 60.3051 60.7496V59.8725H61.4542C61.8454 59.8725 62.1626 59.5554 62.1626 59.1641C62.1626 58.7727 61.8454 58.4556 61.4542 58.4556H60.3051V57.0458H63.5853C65.6084 57.0458 67.8116 55.5889 68.71 53.6575L69.368 52.2462C69.3762 54.3233 69.3708 56.4066 69.3633 58.4557Z"></path></mask><path d="M71.5535 44.1097C70.9923 43.2282 70.038 42.8337 69.3411 42.8337H63.989V40.402C63.989 38.2503 62.2391 36.4997 60.0885 36.4997L57.0704 36.498V31.8084H65.5079C67.2232 31.8084 68.1206 30.6043 68.1206 29.4148C68.1206 28.2261 67.2232 27.0226 65.5079 27.0226H54.8771C53.4218 27.0226 52.2378 28.2082 52.2378 29.6654V32.083H43.7635V29.64C43.7635 28.1843 42.5784 27 41.1215 27H30.4937C28.7777 27 27.8799 28.2031 27.8799 29.3916C27.8799 30.5799 28.7777 31.783 30.4937 31.783H38.9284V36.4997H35.9106C33.7611 36.4997 32.0125 38.2503 32.0125 40.402V42.8337H26.6603C25.9632 42.8337 25.0086 43.2279 24.4473 44.1086C24.0232 44.7742 23.6849 45.9269 24.4827 47.6397L25.2361 49.2555C25.197 52.6214 25.2105 56.0525 25.2239 59.3726C25.2307 61.0536 25.2377 62.7918 25.2377 64.4956C25.2377 66.6691 27.0041 68.4374 29.1754 68.4374H33.1725C35.3438 68.4374 37.1102 66.6691 37.1102 64.4956V61.4009L39.893 61.1358C40.6679 62.2084 41.9278 62.9082 43.3488 62.9082H52.6529C54.0712 62.9082 55.3297 62.2082 56.1045 61.1356L58.8886 61.4009V64.4956C58.8886 66.6691 60.6562 68.4374 62.8291 68.4374H66.8234C68.9962 68.4374 70.7639 66.6691 70.7639 64.4956C70.7639 62.8185 70.7703 61.1078 70.7767 59.4533C70.7893 56.1066 70.8021 52.6481 70.7627 49.2556L71.516 47.64C72.315 45.9283 71.9774 44.7755 71.5535 44.1097ZM64.8725 28.4395H65.5078C66.3904 28.4395 66.7037 28.9649 66.7037 29.4148C66.7037 29.8654 66.3904 30.3915 65.5078 30.3915H64.8725V28.4395ZM57.0703 28.4395H63.4558V30.3915H57.0703V28.4395ZM53.6547 29.6654C53.6547 28.9895 54.2031 28.4395 54.8772 28.4395H55.6535V31.1V36.4972L53.6547 36.496V29.6654ZM40.3452 31.0746V28.4169H41.1215C41.7971 28.4169 42.3467 28.9656 42.3467 29.64V36.4996H40.3452V31.0746ZM31.129 30.3661H30.4937C29.6101 30.3661 29.2967 29.8411 29.2967 29.3916C29.2967 28.9419 29.6102 28.4169 30.4937 28.4169H31.129V30.3661ZM32.5457 30.3661V28.4169H38.9284V30.3661H32.5457ZM33.4292 40.4019C33.4292 39.0315 34.5424 37.9166 35.9106 37.9166H46.324C46.7152 37.9166 47.0324 37.5995 47.0324 37.2082C47.0324 36.8168 46.7152 36.4997 46.324 36.4997H43.7636V33.5001H52.2379V36.4954L49.7682 36.4941C49.7681 36.4941 49.7679 36.4941 49.7678 36.4941C49.3768 36.4941 49.0596 36.811 49.0594 37.2022C49.0591 37.5935 49.3762 37.9108 49.7674 37.911L56.179 37.9146C56.2374 37.9301 56.2985 37.9393 56.3619 37.9393C56.425 37.9393 56.4858 37.9303 56.5441 37.9149L60.0881 37.9168C61.4578 37.9168 62.5723 39.0317 62.5723 40.4021V42.9803L51.8599 45.4835L48.8171 46.1782C48.21 46.3167 47.7778 46.3159 47.1652 46.1754L44.145 45.4843L33.4293 42.9804V40.4019H33.4292ZM35.6935 58.4557H34.5444C34.1532 58.4557 33.836 58.7728 33.836 59.1641C33.836 59.5555 34.1532 59.8726 34.5444 59.8726H35.6935V60.7496V60.7541V61.8868H34.5444C34.1532 61.8868 33.836 62.204 33.836 62.5953C33.836 62.9866 34.1532 63.3038 34.5444 63.3038H35.6935V64.4958C35.6935 65.8881 34.5627 67.0207 33.1725 67.0207H29.1754C27.7854 67.0207 26.6545 65.888 26.6545 64.4958C26.6545 64.0999 26.6541 63.7021 26.6534 63.3038H27.8036C28.1948 63.3038 28.5119 62.9866 28.5119 62.5953C28.5119 62.204 28.1948 61.8868 27.8036 61.8868H26.6501C26.648 61.2116 26.6455 60.5385 26.6428 59.8727H27.8037C28.1949 59.8727 28.512 59.5555 28.512 59.1642C28.512 58.7729 28.1949 58.4558 27.8037 58.4558H26.6371C26.6292 56.4075 26.6233 54.3247 26.6309 52.2473L27.2887 53.6579C28.1903 55.5894 30.3946 57.046 32.4161 57.046H35.6935V58.4557ZM37.1102 59.9776V57.0458H39.0865V58.6445C39.0865 59.0358 39.1405 59.4146 39.2397 59.7747L37.1102 59.9776ZM52.6528 61.4914H43.3487C42.2963 61.4914 41.3762 60.9163 40.8839 60.0642C40.8753 60.0475 40.8658 60.0313 40.8558 60.0154C40.6314 59.6084 40.5032 59.1413 40.5032 58.6445V57.0458H45.974C46.3652 57.0458 46.6824 56.7286 46.6824 56.3373C46.6824 55.946 46.3652 55.6288 45.974 55.6288H32.4161C30.9583 55.6288 29.2342 54.4758 28.5727 53.0587L26.6035 48.8352C26.594 48.8117 26.5833 48.7888 26.5715 48.7666L25.767 47.0411C25.3503 46.1465 25.3071 45.3957 25.6422 44.8701C25.9298 44.4188 26.4193 44.2506 26.6604 44.2506H32.6394L43.8259 46.8646L46.8488 47.5564C47.263 47.6515 47.6309 47.6989 47.9982 47.6989C48.3618 47.6989 48.725 47.6524 49.1325 47.5594L52.179 46.8639L63.3625 44.2506H69.3414C69.5821 44.2506 70.0711 44.4189 70.3586 44.8705C70.6933 45.3962 70.6496 46.1466 70.2322 47.0409L69.4276 48.7665C69.4157 48.7887 69.405 48.8117 69.3955 48.8353L67.426 53.0592C66.6877 54.6464 64.8578 55.6288 63.5857 55.6288H56.2114H56.2096H49.4603C49.0691 55.6288 48.7519 55.946 48.7519 56.3373C48.7519 56.7286 49.0691 57.0458 49.4603 57.0458H55.4995L55.4956 58.6435C55.4931 60.2138 54.2178 61.4914 52.6528 61.4914ZM56.7581 59.7746C56.8573 59.415 56.9116 59.0368 56.9122 58.6463L56.9161 57.0459H58.8885V59.9777L56.7581 59.7746ZM69.3633 58.4557H68.195C67.8038 58.4557 67.4867 58.7728 67.4867 59.1641C67.4867 59.5555 67.8038 59.8726 68.195 59.8726H69.3581C69.3556 60.5386 69.3531 61.2108 69.3512 61.8867H68.195C67.8038 61.8867 67.4867 62.2039 67.4867 62.5952C67.4867 62.9865 67.8038 63.3037 68.195 63.3037H69.348C69.3473 63.702 69.3469 64.0998 69.3469 64.4957C69.3469 65.888 68.2148 67.0206 66.8232 67.0206H62.8289C61.4372 67.0206 60.3051 65.8879 60.3051 64.4957V63.3037H61.4542C61.8454 63.3037 62.1626 62.9865 62.1626 62.5952C62.1626 62.2039 61.8454 61.8867 61.4542 61.8867H60.3051V60.754C60.3051 60.7526 60.3051 60.7511 60.3051 60.7496V59.8725H61.4542C61.8454 59.8725 62.1626 59.5554 62.1626 59.1641C62.1626 58.7727 61.8454 58.4556 61.4542 58.4556H60.3051V57.0458H63.5853C65.6084 57.0458 67.8116 55.5889 68.71 53.6575L69.368 52.2462C69.3762 54.3233 69.3708 56.4066 69.3633 58.4557Z" fill="#1F2428" stroke="#F2F6FC" stroke-width="0.4" mask="url(#path-4-inside-1)"></path><path d="M52.9467 50.8859C53.2827 50.8859 53.5551 51.1583 53.5551 51.4944C53.5551 51.8304 53.2827 52.1028 52.9466 52.1028H43.0555C42.7196 52.1028 42.4472 51.8305 42.4472 51.4944C42.4472 51.1583 42.7196 50.8859 43.0555 50.8859H52.9467Z" fill="#1F2428" stroke="#F2F6FC" stroke-width="0.2"></path><path d="M64.2996 53.3511H59.3794C57.872 53.3511 56.6454 52.1242 56.6454 50.6162C56.6454 49.1083 57.872 47.8814 59.3794 47.8814H64.2996C65.8069 47.8814 67.0335 49.1083 67.0335 50.6162C67.0335 52.1242 65.8069 53.3511 64.2996 53.3511ZM64.2996 49.0982H59.3794C58.5427 49.0982 57.8622 49.7791 57.8622 50.6161C57.8622 51.4531 58.5427 52.1341 59.3794 52.1341H64.2996C65.1363 52.1341 65.8168 51.4531 65.8168 50.6161C65.8168 49.7791 65.1362 49.0982 64.2996 49.0982Z" fill="#1F2428" stroke="#F2F6FC" stroke-width="0.2"></path><path d="M32.9922 47.8813H37.9124C39.4197 47.8813 40.6462 49.1083 40.6462 50.6161C40.6462 52.1241 39.4197 53.351 37.9124 53.351H32.9922C31.4848 53.351 30.2582 52.1241 30.2582 50.6161C30.2582 49.1082 31.4848 47.8813 32.9922 47.8813ZM32.9922 52.1341H37.9124C38.7491 52.1341 39.4295 51.4532 39.4295 50.6162C39.4295 49.7792 38.7491 49.0983 37.9124 49.0983H32.9922C32.1555 49.0983 31.475 49.7791 31.475 50.6162C31.475 51.4532 32.1555 52.1341 32.9922 52.1341Z" fill="#1F2428" stroke="#F2F6FC" stroke-width="0.2"></path><path d="M50.9672 42.7077H45.0336C44.6975 42.7077 44.4252 42.4353 44.4252 42.0992C44.4252 41.7631 44.6976 41.4907 45.0336 41.4907H50.9672C51.3032 41.4907 51.5756 41.7631 51.5756 42.0992C51.5756 42.4353 51.3032 42.7077 50.9672 42.7077Z" fill="#1F2428" stroke="#F2F6FC" stroke-width="0.2"></path></svg> 