<?xml version="1.0" encoding="UTF-8"?> <svg xmlns="http://www.w3.org/2000/svg" width="72" height="72" viewBox="0 0 72 72" fill="none"><rect width="72" height="72" fill="white"></rect><path d="M59.2254 32.5162C52.1821 32.5162 46.4512 26.7852 46.4512 19.742C46.4512 12.6987 52.1821 6.96777 59.2254 6.96777C66.2686 6.96777 71.9996 12.6987 71.9996 19.742C71.9996 26.7852 66.2686 32.5162 59.2254 32.5162Z" fill="#3693E7"></path><path d="M9.29004 23.2256H39.4836V29.032H9.29004V23.2256Z" fill="#3693E7"></path><path d="M39.4834 36H55.7415V49.9355H39.4834V36Z" fill="#3693E7"></path><path d="M72 65.0323H67.1295C66.9019 64.3947 66.5117 63.8199 65.9613 63.4076C64.3053 62.165 62.395 61.2836 60.3871 60.804V32.4569C60.0039 32.4917 59.6183 32.5161 59.2258 32.5161C58.8333 32.5161 58.4477 32.4917 58.0645 32.4569V60.4347C57.679 60.4045 57.2911 60.3871 56.9032 60.3871H43.4834C43.8828 59.7008 44.129 58.9146 44.129 58.0645C44.129 55.5027 42.0457 53.4194 39.4839 53.4194H20.9032C18.3414 53.4194 16.2581 55.5027 16.2581 58.0645V60.3871H6.96774V2.32258H58.0645V7.02697C58.4477 6.99213 58.8333 6.96774 59.2258 6.96774C59.6183 6.96774 60.0039 6.99213 60.3871 7.02697V0H4.64516V60.5044C1.99858 61.0444 0 63.3902 0 66.1936C0 69.3952 2.60477 72 5.80645 72H56.9032C60.149 72 63.3658 70.927 65.9613 68.9806C66.5129 68.5672 66.9019 67.9912 67.1295 67.3548H72V65.0323ZM53.4194 62.7097V69.6774H20.9032V62.7097H53.4194ZM18.5806 58.0645C18.5806 56.7836 19.6223 55.7419 20.9032 55.7419H39.4839C40.7648 55.7419 41.8064 56.7836 41.8064 58.0645C41.8064 59.3454 40.7648 60.3871 39.4839 60.3871C38.203 60.3871 37.1613 59.3454 37.1613 58.0645H34.8387C34.8387 58.9146 35.0849 59.7008 35.4844 60.3871H18.5806V58.0645ZM2.32258 66.1936C2.32258 64.2728 3.88568 62.7097 5.80645 62.7097H18.5806V69.6774H5.80645C3.88568 69.6774 2.32258 68.1143 2.32258 66.1936ZM64.5677 67.1226C62.3717 68.7704 59.6497 69.6774 56.9032 69.6774H55.7419V62.7097H56.9032C59.6497 62.7097 62.3717 63.6166 64.5689 65.2657C64.8592 65.4828 65.0323 65.8301 65.0323 66.1936C65.0323 66.557 64.8592 66.9043 64.5677 67.1226Z" fill="#1F2428"></path><path d="M39.4836 4.64502H9.29004V20.9031H39.4836V4.64502ZM37.161 18.5805H11.6126V6.9676H37.161V18.5805Z" fill="#1F2428"></path><path d="M9.29004 51.0968H37.161V32.5161H9.29004V51.0968ZM11.6126 39.4839H13.9352V48.7742H11.6126V39.4839ZM25.5481 39.4839V48.7742H20.9029V39.4839H25.5481ZM20.9029 37.1613V34.8387H25.5481V37.1613H20.9029ZM27.8707 39.4839H30.1933V48.7742H27.8707V39.4839ZM18.5804 48.7742H16.2578V39.4839H18.5804V48.7742ZM32.5158 48.7742V39.4839H34.8384V48.7742H32.5158ZM34.8384 37.1613H27.8707V34.8387H34.8384V37.1613ZM18.5804 34.8387V37.1613H11.6126V34.8387H18.5804Z" fill="#1F2428"></path><path d="M60.3873 11.6128H58.0648V14.1038C56.7235 14.5288 55.7422 15.7702 55.7422 17.2497C55.7422 18.512 56.4436 19.6478 57.5747 20.2145L59.8392 21.3467C60.1772 21.5151 60.3873 21.8554 60.3873 22.234C60.3873 22.7798 59.9426 23.2257 59.3956 23.2257H59.0565C58.5095 23.2257 58.0648 22.7798 58.0648 22.234V20.9031H55.7422V22.234C55.7422 23.7146 56.7235 24.956 58.0648 25.3799V27.8709H60.3873V25.3799C61.7286 24.9549 62.7099 23.7134 62.7099 22.234C62.7099 20.9716 62.0085 19.8359 60.8774 19.2692L58.6129 18.1369C58.275 17.9685 58.0648 17.6283 58.0648 17.2497C58.0648 16.7039 58.5095 16.258 59.0565 16.258H59.3956C59.9426 16.258 60.3873 16.7039 60.3873 17.2497V17.4192H62.7099V17.2497C62.7099 15.7691 61.7286 14.5276 60.3873 14.1038V11.6128Z" fill="#1F2428"></path></svg> 