<?xml version="1.0" encoding="UTF-8"?> <svg xmlns="http://www.w3.org/2000/svg" width="72" height="72" viewBox="0 0 72 72" fill="none"><rect width="72" height="72" fill="white"></rect><path d="M72 71.9999H0V51.0967H17.8061V53.4193H2.32258V69.6773H69.6774V53.4193H54.1939V51.0967H72V71.9999Z" fill="#1F2428"></path><path d="M31.5 51.0967H40.5V53.4193H31.5V51.0967Z" fill="#1F2428"></path><path d="M45.2903 34.8391L35.9999 29.0326L26.7096 34.8391L30.1935 24.3875L22.0645 18.581H31.7506L35.9999 8.12939L40.2493 18.581H49.9354L41.8064 24.3875L45.2903 34.8391Z" fill="#3693E7"></path><path d="M49.8263 40.1543L37.2148 45.6364L44.0295 67.4446L48.2925 56.0755L59.1574 60.1503L49.8263 40.1543Z" fill="#3693E7"></path><path d="M22.1739 40.1543L12.8428 60.1503L23.7078 56.0755L27.9707 67.4446L34.7854 45.6364L22.1739 40.1543Z" fill="#3693E7"></path><path d="M36.0002 0C23.1937 0 12.7744 10.4193 12.7744 23.2258C12.7744 36.0323 23.1937 46.4516 36.0002 46.4516C48.8067 46.4516 59.226 36.0323 59.226 23.2258C59.226 10.4193 48.8067 0 36.0002 0ZM34.8389 41.7475V44.0701C31.8813 43.9062 29.088 43.1339 26.5823 41.8609L27.7459 39.8462C29.9068 40.9253 32.3026 41.5893 34.8389 41.7475ZM37.1615 41.7475C39.6979 41.5893 42.0936 40.9253 44.2557 39.8462L45.4193 41.8609C42.9135 43.1328 40.1203 43.9062 37.1626 44.0701V41.7475H37.1615ZM36.0002 39.4839C27.0348 39.4839 19.7422 32.1912 19.7422 23.2258C19.7422 14.2604 27.0348 6.96774 36.0002 6.96774C44.9656 6.96774 52.2583 14.2604 52.2583 23.2258C52.2583 32.1912 44.9656 39.4839 36.0002 39.4839ZM17.4785 22.0645H15.156C15.3198 19.1069 16.0921 16.3136 17.3651 13.8079L19.3798 14.9715C18.3008 17.1324 17.6368 19.5282 17.4785 22.0645ZM17.4785 24.3871C17.6368 26.9235 18.3008 29.3192 19.3798 31.4813L17.3651 32.6448C16.0933 30.1391 15.3198 27.3459 15.156 24.3882H17.4785V24.3871ZM37.1615 4.70413V2.38155C40.1192 2.54543 42.9124 3.31773 45.4181 4.59073L44.2546 6.60541C42.0936 5.52634 39.6979 4.86234 37.1615 4.70413ZM34.8389 4.70413C32.3026 4.86234 29.9069 5.52634 27.7447 6.60541L26.5823 4.58959C29.088 3.31773 31.8813 2.54429 34.8389 2.38042V4.70413ZM54.5219 24.3871H56.8445C56.6806 27.3448 55.9083 30.138 54.6353 32.6437L52.6206 31.4802C53.6997 29.3192 54.3637 26.9235 54.5219 24.3871ZM54.5219 22.0645C54.3637 19.5282 53.6997 17.1324 52.6206 14.9703L54.6353 13.8068C55.9072 16.3125 56.6806 19.1057 56.8445 22.0634H54.5219V22.0645ZM53.4785 11.7927L51.4695 12.9528C50.0996 10.895 48.331 9.12645 46.2732 7.75649L47.4334 5.74748C49.8393 7.32668 51.8994 9.38672 53.4785 11.7927ZM24.5671 5.74748L25.7272 7.75649C23.6694 9.12645 21.9009 10.895 20.5309 12.9528L18.5219 11.7927C20.1011 9.38672 22.1611 7.32668 24.5671 5.74748ZM18.5219 34.659L20.5309 33.4988C21.9009 35.5566 23.6694 37.3252 25.7272 38.6951L24.5671 40.7041C22.1611 39.1249 20.1011 37.0649 18.5219 34.659ZM47.4334 40.7041L46.2732 38.6951C48.331 37.3252 50.0996 35.5566 51.4695 33.4988L53.4785 34.659C51.8994 37.0649 49.8393 39.1249 47.4334 40.7041Z" fill="#1F2428"></path><path d="M59.2256 37.1611H61.5482V39.4837H59.2256V37.1611Z" fill="#1F2428"></path><path d="M59.2256 41.8066H61.5482V44.1292H59.2256V41.8066Z" fill="#1F2428"></path><path d="M61.5488 39.4839H63.8714V41.8065H61.5488V39.4839Z" fill="#1F2428"></path><path d="M56.9033 39.4839H59.2259V41.8065H56.9033V39.4839Z" fill="#1F2428"></path><path d="M63.8711 18.5806H66.1937V20.9031H63.8711V18.5806Z" fill="#1F2428"></path><path d="M63.8711 23.2256H66.1937V25.5482H63.8711V23.2256Z" fill="#1F2428"></path><path d="M66.1934 20.9033H68.5159V23.2259H66.1934V20.9033Z" fill="#1F2428"></path><path d="M61.5488 20.9033H63.8714V23.2259H61.5488V20.9033Z" fill="#1F2428"></path><path d="M63.8711 3.48389H66.1937V5.80647H63.8711V3.48389Z" fill="#1F2428"></path><path d="M63.8711 8.12891H66.1937V10.4515H63.8711V8.12891Z" fill="#1F2428"></path><path d="M66.1934 5.80664H68.5159V8.12922H66.1934V5.80664Z" fill="#1F2428"></path><path d="M61.5488 5.80664H63.8714V8.12922H61.5488V5.80664Z" fill="#1F2428"></path><path d="M5.80664 22.0645H8.12922V24.387H5.80664V22.0645Z" fill="#1F2428"></path><path d="M8.12891 24.3872H10.4515V26.7098H8.12891V24.3872Z" fill="#1F2428"></path><path d="M5.80664 26.7095H8.12922V29.0321H5.80664V26.7095Z" fill="#1F2428"></path><path d="M3.4834 24.3872H5.80598V26.7098H3.4834V24.3872Z" fill="#1F2428"></path><path d="M8.12891 3.48389H10.4515V5.80647H8.12891V3.48389Z" fill="#1F2428"></path><path d="M10.4512 5.80664H12.7738V8.12922H10.4512V5.80664Z" fill="#1F2428"></path><path d="M8.12891 8.12891H10.4515V10.4515H8.12891V8.12891Z" fill="#1F2428"></path><path d="M5.80664 5.80664H8.12922V8.12922H5.80664V5.80664Z" fill="#1F2428"></path><path d="M9.29004 41.8066H11.6126V44.1292H9.29004V41.8066Z" fill="#1F2428"></path><path d="M11.6133 44.1289H13.9359V46.4515H11.6133V44.1289Z" fill="#1F2428"></path><path d="M9.29004 46.4517H11.6126V48.7742H9.29004V46.4517Z" fill="#1F2428"></path><path d="M6.96777 44.1289H9.29035V46.4515H6.96777V44.1289Z" fill="#1F2428"></path></svg> 