<?xml version="1.0" encoding="UTF-8"?> <svg xmlns="http://www.w3.org/2000/svg" width="72" height="72" viewBox="0 0 72 72" fill="none"><rect width="72" height="72" fill="#F2F6FC"></rect><path d="M51.0967 67.3549H20.9031C19.6222 67.3549 18.5806 66.3132 18.5806 65.0323V55.742C18.5806 54.4611 19.6222 53.4194 20.9031 53.4194H51.0967C52.3776 53.4194 53.4193 54.4611 53.4193 55.742V65.0323C53.4193 66.3132 52.3776 67.3549 51.0967 67.3549Z" fill="#3693E7"></path><path d="M68.5161 0C67.0041 0 65.7267 0.974323 65.2459 2.32258H3.48387C1.5631 2.32258 0 3.88568 0 5.80645C0 7.72723 1.5631 9.29032 3.48387 9.29032H33.6774C34.3185 9.29032 34.8387 9.81058 34.8387 10.4516V11.7302C32.5672 12.1935 30.7742 13.9866 30.3108 16.2581H25.7481C22.6754 16.2581 20.0497 18.5597 19.7698 21.499C19.6305 22.9494 20.0404 24.3975 20.9032 25.5484H19.7419C16.5403 25.5484 13.9355 28.1532 13.9355 31.3548V66.1936C13.9355 69.3952 16.5403 72 19.7419 72H52.2581C55.4597 72 58.0645 69.3952 58.0645 66.1936V31.3548C58.0645 28.1532 55.4597 25.5484 52.2581 25.5484H51.0968C51.9596 24.3975 52.3695 22.9494 52.2314 21.499C51.9503 18.5597 49.3258 16.2581 46.2519 16.2581H41.6892C41.2258 13.9866 39.4328 12.1935 37.1613 11.7302V10.4516C37.1613 8.53084 35.5982 6.96774 33.6774 6.96774H3.48387C2.84284 6.96774 2.32258 6.44748 2.32258 5.80645C2.32258 5.16542 2.84284 4.64516 3.48387 4.64516H65.2459C65.7267 5.99342 67.0041 6.96774 68.5161 6.96774C70.4369 6.96774 72 5.40464 72 3.48387C72 1.5631 70.4369 0 68.5161 0ZM41.6892 18.5806H46.2519C48.1401 18.5806 49.752 19.9591 49.9192 21.7185C50.0145 22.7172 49.6986 23.6729 49.0297 24.4068C48.3712 25.1326 47.4317 25.5484 46.4516 25.5484V27.871H52.2581C54.1788 27.871 55.7419 29.4341 55.7419 31.3548V66.1936C55.7419 68.1143 54.1788 69.6774 52.2581 69.6774H19.7419C17.8212 69.6774 16.2581 68.1143 16.2581 66.1936V31.3548C16.2581 29.4341 17.8212 27.871 19.7419 27.871H25.5484V25.5484C24.5683 25.5484 23.6288 25.1326 22.9692 24.408C22.3014 23.6729 21.9844 22.7183 22.0796 21.7196C22.248 19.9591 23.8599 18.5806 25.7481 18.5806H30.3108C30.8508 21.2272 33.1955 23.2258 36 23.2258C38.8045 23.2258 41.1492 21.2272 41.6892 18.5806ZM39.4839 17.4194C39.4839 19.3401 37.9208 20.9032 36 20.9032C34.0792 20.9032 32.5161 19.3401 32.5161 17.4194C32.5161 15.4986 34.0792 13.9355 36 13.9355C37.9208 13.9355 39.4839 15.4986 39.4839 17.4194ZM68.5161 4.64516C67.8751 4.64516 67.3548 4.1249 67.3548 3.48387C67.3548 2.84284 67.8751 2.32258 68.5161 2.32258C69.1572 2.32258 69.6774 2.84284 69.6774 3.48387C69.6774 4.1249 69.1572 4.64516 68.5161 4.64516Z" fill="#1F2428"></path><path d="M27.8711 25.5483H30.1937V27.8709H27.8711V25.5483Z" fill="#1F2428"></path><path d="M41.8066 25.5483H44.1292V27.8709H41.8066V25.5483Z" fill="#1F2428"></path><path d="M32.5161 25.5483H34.8387V27.8709H32.5161V25.5483Z" fill="#1F2428"></path><path d="M37.1611 25.5483H39.4837V27.8709H37.1611V25.5483Z" fill="#1F2428"></path><path d="M31.3548 37.051C31.3548 34.9142 29.8637 33.1282 27.8709 32.6509V30.1936H25.5483V32.6521C23.5555 33.1293 22.0645 34.9142 22.0645 37.0522C22.0645 39.0078 23.3105 40.737 25.1663 41.3548L27.5179 42.1398C28.4248 42.4417 29.0322 43.2848 29.0322 44.2394C29.0322 45.4599 28.0405 46.4517 26.8199 46.4517H26.6005C25.3788 46.4517 24.387 45.4599 24.387 44.2394V42.9678H22.0645V44.2394C22.0645 46.3762 23.5555 48.1622 25.5483 48.6395V51.0968H27.8709V48.6384C29.8637 48.1611 31.3548 46.3762 31.3548 44.2383C31.3548 42.2826 30.1087 40.5535 28.253 39.9357L25.9014 39.1506C24.9944 38.8487 24.387 38.0056 24.387 37.051C24.387 35.8305 25.3788 34.8388 26.5993 34.8388H26.8188C28.0405 34.8388 29.0322 35.8305 29.0322 37.051V37.1613L31.3548 37.051Z" fill="#1F2428"></path><path d="M33.8789 50.467L47.8217 29.5654L49.7541 30.8544L35.8113 51.7561L33.8789 50.467Z" fill="#1F2428"></path><path d="M46.4516 40.6453C44.5309 40.6453 42.9678 42.2084 42.9678 44.1291C42.9678 46.0499 44.5309 47.613 46.4516 47.613C48.3724 47.613 49.9355 46.0499 49.9355 44.1291C49.9355 42.2084 48.3724 40.6453 46.4516 40.6453ZM46.4516 45.2904C45.8106 45.2904 45.2904 44.7702 45.2904 44.1291C45.2904 43.4881 45.8106 42.9678 46.4516 42.9678C47.0927 42.9678 47.6129 43.4881 47.6129 44.1291C47.6129 44.7702 47.0927 45.2904 46.4516 45.2904Z" fill="#1F2428"></path><path d="M33.6772 37.1614C33.6772 39.0821 35.2403 40.6452 37.1611 40.6452C39.0819 40.6452 40.645 39.0821 40.645 37.1614C40.645 35.2406 39.0819 33.6775 37.1611 33.6775C35.2403 33.6775 33.6772 35.2406 33.6772 37.1614ZM37.1611 36.0001C37.8021 36.0001 38.3224 36.5203 38.3224 37.1614C38.3224 37.8024 37.8021 38.3227 37.1611 38.3227C36.5201 38.3227 35.9998 37.8024 35.9998 37.1614C35.9998 36.5203 36.5201 36.0001 37.1611 36.0001Z" fill="#1F2428"></path></svg> 