<?xml version="1.0" encoding="UTF-8"?> <svg xmlns="http://www.w3.org/2000/svg" width="120" height="120" viewBox="0 0 120 120" fill="none"><rect width="120" height="120" rx="6" fill="#F2F6FC"></rect><path d="M50.7097 91.3548C48.7889 91.3548 47.2258 89.7917 47.2258 87.871C47.2258 85.9502 48.7889 84.3871 50.7097 84.3871C52.6305 84.3871 54.1936 85.9502 54.1936 87.871C54.1936 89.7917 52.6305 91.3548 50.7097 91.3548Z" fill="#3693E7"></path><path d="M60 91.3548C58.0792 91.3548 56.5161 89.7917 56.5161 87.871C56.5161 85.9502 58.0792 84.3871 60 84.3871C61.9208 84.3871 63.4839 85.9502 63.4839 87.871C63.4839 89.7917 61.9208 91.3548 60 91.3548Z" fill="#3693E7"></path><path d="M69.2903 91.3548C67.3695 91.3548 65.8064 89.7917 65.8064 87.871C65.8064 85.9502 67.3695 84.3871 69.2903 84.3871C71.211 84.3871 72.7741 85.9502 72.7741 87.871C72.7741 89.7917 71.211 91.3548 69.2903 91.3548Z" fill="#3693E7"></path><path d="M78.5806 73.9354H25.1613V78.5806H88.9509C86.3996 75.7343 82.7032 73.9354 78.5806 73.9354Z" fill="#3693E7"></path><mask id="path-6-inside-1" fill="white"><path d="M96 55.3548C96 53.4341 94.4369 51.871 92.5161 51.871H80.9032L86.129 44.9032H92.5161C94.4369 44.9032 96 43.3401 96 41.4194C96 39.4986 94.4369 37.9355 92.5161 37.9355H77.4194V24H63.4839V33.2903H75.0968V37.9355H60.691C54.643 37.9355 49.1977 41.5274 46.8159 47.0865L44.7523 51.9023C39.0457 52.2182 33.9883 55.7218 31.7179 61.0219L29.6671 65.8064H24V68.129H26.3226V72.7742H24V78.9221L24.1846 79.2089C30.9434 89.7232 42.4413 96 54.9403 96H85.5484C88.7024 96 91.5348 94.1582 92.8703 91.3548H93.6774C94.9583 91.3548 96 90.3132 96 89.0323V86.7097C96 85.4288 94.9583 84.3871 93.6774 84.3871H93.2617C92.1306 79.5735 88.7721 75.7541 84.3871 73.9378V69.2903C84.3871 65.4592 83.1457 61.8383 80.8812 58.8387H92.5161C94.4369 58.8387 96 57.2756 96 55.3548ZM65.8064 30.9677V26.3226H75.0968V30.9677H65.8064ZM78 51.871H77.4194V44.9032H83.2258L78 51.871ZM52.3436 51.871L53.2181 49.8294C54.5013 46.8368 57.4347 44.9032 60.691 44.9032H75.0968V51.871H52.3436ZM92.5161 40.2581C93.156 40.2581 93.6774 40.7783 93.6774 41.4194C93.6774 42.0604 93.156 42.5806 92.5161 42.5806H77.4194V40.2581H92.5161ZM60.691 40.2581H75.0968V42.5806H60.691C56.5057 42.5806 52.7338 45.067 51.0836 48.9143L49.8166 51.871H47.2908L48.9492 48.0004C50.9652 43.2972 55.5732 40.2581 60.691 40.2581ZM33.8512 61.9359C35.8672 57.2326 40.4764 54.1935 45.593 54.1935H92.5161C93.156 54.1935 93.6774 54.7138 93.6774 55.3548C93.6774 55.9959 93.156 56.5161 92.5161 56.5161H45.593C41.4077 56.5161 37.6359 59.0024 35.9868 62.8498L34.7187 65.8064H32.1929L33.8512 61.9359ZM77.4194 72.7742H56.5161V68.129H58.8387V65.8064H37.2457L38.1213 63.7649C39.4034 60.7723 42.3368 58.8387 45.593 58.8387H66.9677C72.7301 58.8387 77.4194 63.5268 77.4194 69.2903V72.7742ZM40.2581 68.129V72.7742H35.6129V68.129H40.2581ZM42.5806 68.129H47.2258V72.7742H42.5806V68.129ZM49.5484 68.129H54.1935V72.7742H49.5484V68.129ZM28.6452 68.129H33.2903V72.7742H28.6452V68.129ZM93.6774 89.0323H82.0645L82.0634 86.7097H82.0645H93.6774V89.0323ZM90.8671 84.3871H82.0645C80.7836 84.3871 79.7419 85.4288 79.7419 86.7097V89.0323C79.7419 90.3132 80.7836 91.3548 82.0645 91.3548H90.1912C89.1135 92.7879 87.4053 93.6774 85.5484 93.6774H54.9403C43.3483 93.6774 32.676 87.9116 26.3226 78.2369V75.0968H78.5806C84.3755 75.0968 89.3365 78.9314 90.8671 84.3871ZM82.0645 69.2903V73.1899C81.3085 73.0123 80.5351 72.8857 79.7419 72.8264V69.2903C79.7419 64.9703 77.5808 61.152 74.2897 58.8387H77.8397C80.5595 61.663 82.0645 65.3512 82.0645 69.2903Z"></path></mask><path d="M96 55.3548C96 53.4341 94.4369 51.871 92.5161 51.871H80.9032L86.129 44.9032H92.5161C94.4369 44.9032 96 43.3401 96 41.4194C96 39.4986 94.4369 37.9355 92.5161 37.9355H77.4194V24H63.4839V33.2903H75.0968V37.9355H60.691C54.643 37.9355 49.1977 41.5274 46.8159 47.0865L44.7523 51.9023C39.0457 52.2182 33.9883 55.7218 31.7179 61.0219L29.6671 65.8064H24V68.129H26.3226V72.7742H24V78.9221L24.1846 79.2089C30.9434 89.7232 42.4413 96 54.9403 96H85.5484C88.7024 96 91.5348 94.1582 92.8703 91.3548H93.6774C94.9583 91.3548 96 90.3132 96 89.0323V86.7097C96 85.4288 94.9583 84.3871 93.6774 84.3871H93.2617C92.1306 79.5735 88.7721 75.7541 84.3871 73.9378V69.2903C84.3871 65.4592 83.1457 61.8383 80.8812 58.8387H92.5161C94.4369 58.8387 96 57.2756 96 55.3548ZM65.8064 30.9677V26.3226H75.0968V30.9677H65.8064ZM78 51.871H77.4194V44.9032H83.2258L78 51.871ZM52.3436 51.871L53.2181 49.8294C54.5013 46.8368 57.4347 44.9032 60.691 44.9032H75.0968V51.871H52.3436ZM92.5161 40.2581C93.156 40.2581 93.6774 40.7783 93.6774 41.4194C93.6774 42.0604 93.156 42.5806 92.5161 42.5806H77.4194V40.2581H92.5161ZM60.691 40.2581H75.0968V42.5806H60.691C56.5057 42.5806 52.7338 45.067 51.0836 48.9143L49.8166 51.871H47.2908L48.9492 48.0004C50.9652 43.2972 55.5732 40.2581 60.691 40.2581ZM33.8512 61.9359C35.8672 57.2326 40.4764 54.1935 45.593 54.1935H92.5161C93.156 54.1935 93.6774 54.7138 93.6774 55.3548C93.6774 55.9959 93.156 56.5161 92.5161 56.5161H45.593C41.4077 56.5161 37.6359 59.0024 35.9868 62.8498L34.7187 65.8064H32.1929L33.8512 61.9359ZM77.4194 72.7742H56.5161V68.129H58.8387V65.8064H37.2457L38.1213 63.7649C39.4034 60.7723 42.3368 58.8387 45.593 58.8387H66.9677C72.7301 58.8387 77.4194 63.5268 77.4194 69.2903V72.7742ZM40.2581 68.129V72.7742H35.6129V68.129H40.2581ZM42.5806 68.129H47.2258V72.7742H42.5806V68.129ZM49.5484 68.129H54.1935V72.7742H49.5484V68.129ZM28.6452 68.129H33.2903V72.7742H28.6452V68.129ZM93.6774 89.0323H82.0645L82.0634 86.7097H82.0645H93.6774V89.0323ZM90.8671 84.3871H82.0645C80.7836 84.3871 79.7419 85.4288 79.7419 86.7097V89.0323C79.7419 90.3132 80.7836 91.3548 82.0645 91.3548H90.1912C89.1135 92.7879 87.4053 93.6774 85.5484 93.6774H54.9403C43.3483 93.6774 32.676 87.9116 26.3226 78.2369V75.0968H78.5806C84.3755 75.0968 89.3365 78.9314 90.8671 84.3871ZM82.0645 69.2903V73.1899C81.3085 73.0123 80.5351 72.8857 79.7419 72.8264V69.2903C79.7419 64.9703 77.5808 61.152 74.2897 58.8387H77.8397C80.5595 61.663 82.0645 65.3512 82.0645 69.2903Z" fill="#1F2428" stroke="#F2F6FC" stroke-width="0.6" mask="url(#path-6-inside-1)"></path></svg> 