<?xml version="1.0" encoding="UTF-8"?> <svg xmlns="http://www.w3.org/2000/svg" width="96" height="96" viewBox="0 0 96 96" fill="none"><rect width="96" height="96" rx="6" transform="matrix(-1 0 0 1 96 0)" fill="#F2F6FC"></rect><path d="M28 50H75L72.5 59H25.5V55.5L28 50Z" fill="#3693E7"></path><mask id="path-3-inside-1" fill="white"><path d="M27.4167 41.8333C27.1735 41.8333 26.9404 41.7367 26.7685 41.5648C26.5966 41.3929 26.5 41.1598 26.5 40.9167V37.4663L22.9302 30.3266C22.8603 30.1869 22.8273 30.0316 22.8343 29.8755C22.8413 29.7194 22.8881 29.5677 22.9702 29.4348C23.0524 29.3019 23.1671 29.1921 23.3036 29.116C23.4401 29.04 23.5937 29 23.75 29H27.4167C27.537 29 27.6562 29.0237 27.7675 29.0698C27.8787 29.1158 27.9797 29.1833 28.0649 29.2685L31.4631 32.6667H43.9166C44.9883 32.6682 46.0256 33.0446 46.8488 33.7307C47.672 34.4167 48.2292 35.3692 48.4238 36.423C49.85 36.6321 51.1959 37.2132 52.3261 38.1079C53.4563 39.0026 54.3308 40.1792 54.8616 41.5194L56.4539 45.5H69.5833C70.6394 45.5013 71.6628 45.8668 72.4809 46.5347C73.2989 47.2026 73.8617 48.1322 74.0744 49.1666H75.0833C75.2252 49.1666 75.3652 49.1996 75.4922 49.2629C75.6192 49.3262 75.7298 49.4181 75.8152 49.5314C75.9007 49.6447 75.9586 49.7763 75.9846 49.9158C76.0105 50.0553 76.0037 50.199 75.9647 50.3354L73.8177 57.8498C73.3201 59.5707 72.2781 61.0839 70.8479 62.1627C69.4178 63.2414 67.6765 63.8276 65.8851 63.8333H27.4167C27.2464 63.8333 27.0796 63.7859 26.9348 63.6964C26.79 63.6069 26.673 63.4789 26.5968 63.3266L25.0168 60.1666H21.9167C21.6735 60.1666 21.4404 60.0701 21.2685 59.8982C21.0966 59.7262 21 59.4931 21 59.25V55.5833C21 55.3402 21.0966 55.107 21.2685 54.9351C21.4404 54.7632 21.6735 54.6666 21.9167 54.6666H24.9226L26.547 49.7934C26.6078 49.6109 26.7246 49.4521 26.8806 49.3396C27.0367 49.2272 27.2243 49.1666 27.4167 49.1666H33.0382L33.8804 43.2719L31.7225 41.8333H27.4167ZM24.6667 56.5H22.8333V58.3333H24.6667V56.5ZM43.9166 34.5H31.0833C30.9629 34.5 30.8437 34.4763 30.7325 34.4302C30.6213 34.3842 30.5202 34.3166 30.4351 34.2315L27.037 30.8333H25.2332L27.9832 36.3333H46.509C46.3189 35.7976 45.9677 35.3338 45.5035 35.0056C45.0394 34.6773 44.4851 34.5007 43.9166 34.5ZM35.4146 45.5H43.5614L42.3393 41.8333H35.9379L35.4146 45.5ZM53.1595 42.2C53.1095 42.0752 53.0552 41.9533 52.9984 41.8333H47.9385L49.1607 45.5H54.4794L53.1595 42.2ZM69.5833 47.3333H48.5C48.3076 47.3333 48.1201 47.2728 47.964 47.1603C47.808 47.0478 47.6912 46.8891 47.6304 46.7065L45.7971 41.2066C45.7511 41.0688 45.7386 40.922 45.7605 40.7784C45.7824 40.6349 45.8381 40.4985 45.923 40.3807C46.008 40.2629 46.1197 40.1669 46.2489 40.1007C46.3782 40.0345 46.5214 40 46.6666 40H51.6998C50.5003 38.8205 48.884 38.1617 47.2017 38.1667H36.4617L36.1998 40H43C43.1924 40 43.3799 40.0605 43.536 40.173C43.6921 40.2855 43.8088 40.4442 43.8697 40.6268L45.703 46.1268C45.7489 46.2646 45.7615 46.4113 45.7396 46.5549C45.7177 46.6985 45.6619 46.8348 45.577 46.9527C45.4921 47.0705 45.3803 47.1665 45.251 47.2326C45.1217 47.2988 44.9786 47.3333 44.8333 47.3333H35.1522L34.8902 49.1666H72.1756C71.9855 48.6309 71.6343 48.1671 71.1702 47.8389C70.7061 47.5106 70.1518 47.334 69.5833 47.3333ZM43 51V52.8333H44.8333V51H43ZM50.3333 51V52.8333H52.1666V51H50.3333ZM57.6666 51V52.8333H59.5V51H57.6666ZM65 51V52.8333H66.8333V51H65ZM27.9832 62H65.8851C67.5604 61.996 69.1679 61.3382 70.3653 60.1666H27.0665L27.9832 62ZM28.0775 51L26.5 55.7323V58.3333H71.6815C71.8331 58.0151 71.958 57.6849 72.0548 57.3461L73.868 51H68.6666V53.75C68.6666 53.9931 68.57 54.2263 68.3981 54.3982C68.2262 54.5701 67.9931 54.6666 67.75 54.6666H64.0833C63.8402 54.6666 63.607 54.5701 63.4351 54.3982C63.2632 54.2263 63.1666 53.9931 63.1666 53.75V51H61.3333V53.75C61.3333 53.9931 61.2367 54.2263 61.0648 54.3982C60.8929 54.5701 60.6597 54.6666 60.4166 54.6666H56.75C56.5069 54.6666 56.2737 54.5701 56.1018 54.3982C55.9299 54.2263 55.8333 53.9931 55.8333 53.75V51H54V53.75C54 53.9931 53.9034 54.2263 53.7315 54.3982C53.5596 54.5701 53.3264 54.6666 53.0833 54.6666H49.4166C49.1735 54.6666 48.9404 54.5701 48.7685 54.3982C48.5966 54.2263 48.5 53.9931 48.5 53.75V51H46.6666V53.75C46.6666 53.9931 46.5701 54.2263 46.3982 54.3982C46.2262 54.5701 45.9931 54.6666 45.75 54.6666H42.0833C41.8402 54.6666 41.607 54.5701 41.4351 54.3982C41.2632 54.2263 41.1666 53.9931 41.1666 53.75V51H28.0775ZM32.5085 40.154L34.1678 41.2604L34.6097 38.1667H28.3333V40H32C32.181 40 32.3579 40.0536 32.5085 40.154Z"></path></mask><path d="M27.4167 41.8333C27.1735 41.8333 26.9404 41.7367 26.7685 41.5648C26.5966 41.3929 26.5 41.1598 26.5 40.9167V37.4663L22.9302 30.3266C22.8603 30.1869 22.8273 30.0316 22.8343 29.8755C22.8413 29.7194 22.8881 29.5677 22.9702 29.4348C23.0524 29.3019 23.1671 29.1921 23.3036 29.116C23.4401 29.04 23.5937 29 23.75 29H27.4167C27.537 29 27.6562 29.0237 27.7675 29.0698C27.8787 29.1158 27.9797 29.1833 28.0649 29.2685L31.4631 32.6667H43.9166C44.9883 32.6682 46.0256 33.0446 46.8488 33.7307C47.672 34.4167 48.2292 35.3692 48.4238 36.423C49.85 36.6321 51.1959 37.2132 52.3261 38.1079C53.4563 39.0026 54.3308 40.1792 54.8616 41.5194L56.4539 45.5H69.5833C70.6394 45.5013 71.6628 45.8668 72.4809 46.5347C73.2989 47.2026 73.8617 48.1322 74.0744 49.1666H75.0833C75.2252 49.1666 75.3652 49.1996 75.4922 49.2629C75.6192 49.3262 75.7298 49.4181 75.8152 49.5314C75.9007 49.6447 75.9586 49.7763 75.9846 49.9158C76.0105 50.0553 76.0037 50.199 75.9647 50.3354L73.8177 57.8498C73.3201 59.5707 72.2781 61.0839 70.8479 62.1627C69.4178 63.2414 67.6765 63.8276 65.8851 63.8333H27.4167C27.2464 63.8333 27.0796 63.7859 26.9348 63.6964C26.79 63.6069 26.673 63.4789 26.5968 63.3266L25.0168 60.1666H21.9167C21.6735 60.1666 21.4404 60.0701 21.2685 59.8982C21.0966 59.7262 21 59.4931 21 59.25V55.5833C21 55.3402 21.0966 55.107 21.2685 54.9351C21.4404 54.7632 21.6735 54.6666 21.9167 54.6666H24.9226L26.547 49.7934C26.6078 49.6109 26.7246 49.4521 26.8806 49.3396C27.0367 49.2272 27.2243 49.1666 27.4167 49.1666H33.0382L33.8804 43.2719L31.7225 41.8333H27.4167ZM24.6667 56.5H22.8333V58.3333H24.6667V56.5ZM43.9166 34.5H31.0833C30.9629 34.5 30.8437 34.4763 30.7325 34.4302C30.6213 34.3842 30.5202 34.3166 30.4351 34.2315L27.037 30.8333H25.2332L27.9832 36.3333H46.509C46.3189 35.7976 45.9677 35.3338 45.5035 35.0056C45.0394 34.6773 44.4851 34.5007 43.9166 34.5ZM35.4146 45.5H43.5614L42.3393 41.8333H35.9379L35.4146 45.5ZM53.1595 42.2C53.1095 42.0752 53.0552 41.9533 52.9984 41.8333H47.9385L49.1607 45.5H54.4794L53.1595 42.2ZM69.5833 47.3333H48.5C48.3076 47.3333 48.1201 47.2728 47.964 47.1603C47.808 47.0478 47.6912 46.8891 47.6304 46.7065L45.7971 41.2066C45.7511 41.0688 45.7386 40.922 45.7605 40.7784C45.7824 40.6349 45.8381 40.4985 45.923 40.3807C46.008 40.2629 46.1197 40.1669 46.2489 40.1007C46.3782 40.0345 46.5214 40 46.6666 40H51.6998C50.5003 38.8205 48.884 38.1617 47.2017 38.1667H36.4617L36.1998 40H43C43.1924 40 43.3799 40.0605 43.536 40.173C43.6921 40.2855 43.8088 40.4442 43.8697 40.6268L45.703 46.1268C45.7489 46.2646 45.7615 46.4113 45.7396 46.5549C45.7177 46.6985 45.6619 46.8348 45.577 46.9527C45.4921 47.0705 45.3803 47.1665 45.251 47.2326C45.1217 47.2988 44.9786 47.3333 44.8333 47.3333H35.1522L34.8902 49.1666H72.1756C71.9855 48.6309 71.6343 48.1671 71.1702 47.8389C70.7061 47.5106 70.1518 47.334 69.5833 47.3333ZM43 51V52.8333H44.8333V51H43ZM50.3333 51V52.8333H52.1666V51H50.3333ZM57.6666 51V52.8333H59.5V51H57.6666ZM65 51V52.8333H66.8333V51H65ZM27.9832 62H65.8851C67.5604 61.996 69.1679 61.3382 70.3653 60.1666H27.0665L27.9832 62ZM28.0775 51L26.5 55.7323V58.3333H71.6815C71.8331 58.0151 71.958 57.6849 72.0548 57.3461L73.868 51H68.6666V53.75C68.6666 53.9931 68.57 54.2263 68.3981 54.3982C68.2262 54.5701 67.9931 54.6666 67.75 54.6666H64.0833C63.8402 54.6666 63.607 54.5701 63.4351 54.3982C63.2632 54.2263 63.1666 53.9931 63.1666 53.75V51H61.3333V53.75C61.3333 53.9931 61.2367 54.2263 61.0648 54.3982C60.8929 54.5701 60.6597 54.6666 60.4166 54.6666H56.75C56.5069 54.6666 56.2737 54.5701 56.1018 54.3982C55.9299 54.2263 55.8333 53.9931 55.8333 53.75V51H54V53.75C54 53.9931 53.9034 54.2263 53.7315 54.3982C53.5596 54.5701 53.3264 54.6666 53.0833 54.6666H49.4166C49.1735 54.6666 48.9404 54.5701 48.7685 54.3982C48.5966 54.2263 48.5 53.9931 48.5 53.75V51H46.6666V53.75C46.6666 53.9931 46.5701 54.2263 46.3982 54.3982C46.2262 54.5701 45.9931 54.6666 45.75 54.6666H42.0833C41.8402 54.6666 41.607 54.5701 41.4351 54.3982C41.2632 54.2263 41.1666 53.9931 41.1666 53.75V51H28.0775ZM32.5085 40.154L34.1678 41.2604L34.6097 38.1667H28.3333V40H32C32.181 40 32.3579 40.0536 32.5085 40.154Z" fill="#1F2428" stroke="#F2F6FC" stroke-width="0.8" mask="url(#path-3-inside-1)"></path></svg> 