<?xml version="1.0" encoding="UTF-8"?> <svg xmlns="http://www.w3.org/2000/svg" width="96" height="96" viewBox="0 0 96 96" fill="none"><rect width="96" height="96" rx="6" fill="#F2F6FC"></rect><circle cx="34.7635" cy="60.6182" r="5.2" fill="#3693E7"></circle><path d="M22.9453 30.9454C22.9453 29.8409 23.8407 28.9454 24.9453 28.9454H64.4362C65.5408 28.9454 66.4362 29.8409 66.4362 30.9454V34.6182H22.9453V30.9454Z" fill="#3693E7"></path><path d="M28.499 60.8235C28.499 57.4289 31.261 54.6669 34.6556 54.6669C38.0502 54.6669 40.8122 57.4289 40.8122 60.8235C40.8122 64.2181 38.0502 66.9801 34.6556 66.9801C31.261 66.9801 28.499 64.2181 28.499 60.8235ZM34.6556 56.0763C32.038 56.0763 29.9086 58.2058 29.9086 60.8234C29.9086 63.4411 32.038 65.5704 34.6556 65.5704C37.2732 65.5704 39.4026 63.4409 39.4026 60.8234C39.4026 58.2058 37.2732 56.0763 34.6556 56.0763Z" fill="#1F2428" stroke="#F2F6FC" stroke-width="0.25"></path><path d="M31.8184 60.8235C31.8184 59.2591 33.0914 57.9861 34.6558 57.9861C36.2202 57.9861 37.4933 59.2591 37.4933 60.8235C37.4933 62.388 36.2202 63.6609 34.6558 63.6609C33.0914 63.6609 31.8184 62.388 31.8184 60.8235ZM33.2279 60.8235C33.2279 61.611 33.8684 62.2513 34.6558 62.2513C35.4432 62.2513 36.0837 61.611 36.0837 60.8235C36.0837 60.0361 35.4432 59.3957 34.6558 59.3957C33.8684 59.3957 33.2279 60.0361 33.2279 60.8235Z" fill="#1F2428" stroke="#F2F6FC" stroke-width="0.25"></path><path d="M70.5042 55.17V55.295H70.6292H73.1702C73.5594 55.295 73.875 55.6106 73.875 55.9998V58.6131C73.875 59.0023 73.5595 59.3179 73.1702 59.3179H70.6292H70.5042V59.4429V66.2753C70.5042 66.6646 70.1887 66.9801 69.7994 66.9801C69.4101 66.9801 69.0946 66.6646 69.0946 66.2753V59.4429V59.3179H68.9696H66.4285H44.1551H44.0109L44.0314 59.4606C44.0353 59.4879 44.0391 59.512 44.0428 59.5351C44.0479 59.5672 44.0527 59.5973 44.057 59.6313L44.057 59.6313C44.1057 60.0174 43.8322 60.3699 43.446 60.4187C43.4157 60.4225 43.386 60.4243 43.3567 60.4243C43.0069 60.4243 42.7034 60.1637 42.6585 59.8076C42.1514 55.788 38.7112 52.7573 34.6559 52.7573C30.6006 52.7573 27.1604 55.788 26.6533 59.8076L26.7774 59.8232L26.6533 59.8076C26.6046 60.1939 26.2514 60.468 25.8662 60.4186L25.866 60.4186C25.4798 60.3699 25.2062 60.0173 25.255 59.6312L25.255 59.6311C25.2593 59.5971 25.2641 59.5668 25.2692 59.5345C25.2729 59.5116 25.2767 59.4876 25.2806 59.4605L25.3011 59.3177H25.1568H22.8298C22.4406 59.3177 22.125 59.0022 22.125 58.613V32.0349C22.125 29.8791 23.8791 28.125 26.0349 28.125H63.2233C65.3792 28.125 67.1333 29.8791 67.1333 32.0349V55.17V55.295H67.2583H68.9696H69.0946V55.17V53.787C69.0946 53.3978 69.4101 53.0822 69.7994 53.0822C70.1887 53.0822 70.5042 53.3978 70.5042 53.787V55.17ZM25.5496 57.9082H25.6396L25.6682 57.8228C26.9353 54.029 30.5234 51.3478 34.656 51.3478C38.7886 51.3478 42.3766 54.029 43.6438 57.8228L43.6723 57.9082H43.7623H54.8233H54.9483L54.9483 57.7832L54.9482 53.3542C54.9482 52.965 55.2636 52.6494 55.653 52.6494C56.0422 52.6494 56.3577 52.965 56.3577 53.3542L56.3579 57.7832L56.3579 57.9082H56.4829H65.5987H65.7237V57.7832V35.0751V34.9501H65.5987H56.4829H56.3579V35.0751V50.0352C56.3579 50.4244 56.0424 50.74 55.653 50.74C55.2637 50.7399 54.9483 50.4244 54.9483 50.0352V48.6522V48.5272H54.8233H23.6596H23.5346V48.6522V57.7832V57.9082H23.6596H25.5496ZM65.5987 33.5405H65.7237V33.4155V32.0349C65.7237 30.6561 64.6022 29.5346 63.2233 29.5346H26.0349C24.6561 29.5346 23.5346 30.6561 23.5346 32.0349V33.4155V33.5405H23.6596H65.5987ZM45.5418 44.0015H45.4168V44.1265V46.9926V47.1176H45.5418H54.8234H54.9484V46.9926V44.1265V44.0015H54.8234H45.5418ZM43.8823 47.1177H44.0073V46.9927V44.1266V44.0016H43.8823H34.6007H34.4757V44.1266V46.9927V47.1177H34.6007H43.8823ZM54.8233 42.592H54.9483V42.467V39.6008V39.4758H54.8233H45.5417H45.4167V39.6008V42.467V42.592H45.5417H54.8233ZM45.4168 37.9413V38.0663H45.5418H54.8234H54.9484V37.9413V35.0752V34.9502H54.8234H45.5418H45.4168V35.0752V37.9413ZM44.0073 35.0751V34.9501H43.8823H34.6007H34.4757V35.0751V37.9412V38.0662H34.6007H43.8823H44.0073V37.9412V35.0751ZM44.0073 39.6009V39.4759H43.8823H34.6007H34.4757V39.6009V42.4671V42.5921H34.6007H43.8823H44.0073V42.4671V39.6009ZM32.9411 42.592H33.0661V42.467V39.6008V39.4758H32.9411H23.6596H23.5346V39.6008V42.467V42.592H23.6596H32.9411ZM33.0661 44.1265V44.0015H32.9411H23.6596H23.5346V44.1265V46.9926V47.1176H23.6596H32.9411H33.0661V46.9926V44.1265ZM33.0661 35.0751V34.9501H32.9411H23.6596H23.5346V35.0751V37.9412V38.0662H23.6596H32.9411H33.0661V37.9412V35.0751ZM72.3404 57.9082H72.4654V57.7832V56.8296V56.7046H72.3404H67.2583H67.1333V56.8296V57.7832V57.9082H67.2583H72.3404Z" fill="#1F2428" stroke="#F2F6FC" stroke-width="0.25"></path></svg> 