<?xml version="1.0" encoding="UTF-8"?> <svg xmlns="http://www.w3.org/2000/svg" width="96" height="96" viewBox="0 0 96 96" fill="none"><rect width="96" height="96" rx="6" transform="matrix(-1 0 0 1 96 0)" fill="#F2F6FC"></rect><circle cx="30.5939" cy="56.5939" r="5.59392" fill="#3693E7"></circle><circle cx="63.5939" cy="56.5939" r="5.59392" fill="#3693E7"></circle><path d="M66.9811 56.6581C66.9811 55.0428 65.6667 53.7283 64.0513 53.7283C62.4358 53.7283 61.1214 55.0428 61.1214 56.6581C61.1214 58.2734 62.4358 59.5879 64.0513 59.5879C65.6666 59.5879 66.9811 58.2734 66.9811 56.6581ZM65.5688 56.6582C65.5688 57.4949 64.8881 58.1757 64.0513 58.1757C63.2144 58.1757 62.5337 57.4949 62.5337 56.6582C62.5337 55.8214 63.2144 55.1407 64.0513 55.1407C64.8881 55.1407 65.5688 55.8214 65.5688 56.6582Z" fill="#1F2428" stroke="#F2F6FC" stroke-width="0.2"></path><path d="M33.712 56.6581C33.712 55.0428 32.3976 53.7283 30.7822 53.7283C29.1667 53.7283 27.8523 55.0428 27.8523 56.6581C27.8523 58.2734 29.1667 59.5879 30.7822 59.5879C32.3975 59.5879 33.712 58.2734 33.712 56.6581ZM32.2997 56.6582C32.2997 57.4949 31.6191 58.1757 30.7822 58.1757C29.9453 58.1757 29.2646 57.4949 29.2646 56.6582C29.2646 55.8214 29.9454 55.1407 30.7822 55.1407C31.6191 55.1407 32.2997 55.8214 32.2997 56.6582Z" fill="#1F2428" stroke="#F2F6FC" stroke-width="0.2"></path><mask id="path-6-inside-1" fill="white"><path d="M21.8795 54.0964V47.1528C21.8795 45.0692 23.5747 43.3741 25.6584 43.3741H27.8066L29.0841 40.8268C29.2835 40.4289 29.7678 40.2681 30.1661 40.4676C30.564 40.6672 30.7249 41.1516 30.5253 41.5495L29.6103 43.374H31.414L34.0848 38.0491C34.3397 37.5405 34.8517 37.2245 35.4206 37.2245H52.4325C52.9023 37.2245 53.3502 37.4495 53.6306 37.8261L57.7643 43.374H59.7749L54.5299 36.3347C54.193 35.8824 53.6549 35.6123 53.0908 35.6123H34.6109C33.9277 35.6123 33.313 35.9916 33.0067 36.6023L32.0657 38.4785C31.8661 38.8764 31.3816 39.0373 30.9837 38.8376C30.5857 38.638 30.4249 38.1535 30.6245 37.7555L31.5655 35.8795C32.1469 34.7201 33.3139 34 34.6109 34H53.091C54.1619 34 55.1832 34.5127 55.8231 35.3714L61.7856 43.374H68.4207C72.2673 43.374 75.3966 46.5034 75.3966 50.3498V54.1964C75.7608 54.4515 76 54.8735 76 55.351V57.5442C76 58.3213 75.3677 58.9536 74.5906 58.9536H69.8704C69.5203 59.8435 68.9675 60.6474 68.2362 61.3059C67.0779 62.3489 65.6056 62.9127 64.0587 62.9127C63.9475 62.9127 63.8357 62.9098 63.7239 62.9039C61.2048 62.7719 59.1094 61.1581 58.2354 58.9536H36.5981C35.6807 61.2695 33.4204 62.9125 30.782 62.9125C28.1435 62.9125 25.8832 61.2695 24.9659 58.9536H22.5507C21.6956 58.9536 21 58.258 21 57.4031V55.4922C21 54.8777 21.3601 54.3472 21.8795 54.0964ZM23.4918 50.0039H24.623C24.6888 50.0039 24.7424 49.9503 24.7424 49.8845V47.7054C24.7424 47.6395 24.6888 47.5858 24.623 47.5858H23.4918V50.0039ZM23.8434 45.9735H24.6231C25.578 45.9735 26.3548 46.7504 26.3548 47.7053V49.8844C26.3548 50.8393 25.5779 51.6161 24.6231 51.6161H23.4919V53.9414H25.1491C26.1621 51.8497 28.3063 50.4037 30.782 50.4037C31.4492 50.4037 32.092 50.5098 32.6954 50.7042V44.9861H25.6585C24.8987 44.9862 24.2302 45.3802 23.8434 45.9735ZM33.2178 43.374H35.8801V38.8369H35.4933L33.2178 43.374ZM45.6658 43.374V38.8369H37.4922V43.374H45.6658ZM52.3733 38.8369H47.2782V43.374H55.7539L52.3733 38.8369ZM58.4158 53.9415C58.8221 53.0969 59.4126 52.3564 60.1409 51.7737V47.812C60.1409 47.7988 60.1373 47.7859 60.1306 47.7746L58.4869 44.9863H47.2781V53.9415H58.4158ZM70.8272 45.5587V47.8907C70.8272 48.5489 71.3626 49.0843 72.0207 49.0843H73.6322C73.2574 47.5415 72.2142 46.2581 70.8272 45.5587ZM74.3877 57.3414V55.5538H70.2079C70.2907 56.0192 70.3223 56.4988 70.2969 56.9854C70.2906 57.1049 70.2801 57.2235 70.2673 57.3415H74.3877V57.3414ZM63.8081 61.2939C65.0443 61.359 66.2357 60.9376 67.1571 60.1078C68.0786 59.2781 68.6218 58.1392 68.6866 56.901C68.7847 55.0301 67.7581 53.2938 66.0714 52.4776C65.6706 52.2836 65.503 51.8015 65.6971 51.4008C65.891 51.0001 66.3728 50.8323 66.7739 51.0263C68.0774 51.6572 69.0873 52.6964 69.6874 53.9433C69.6994 53.9428 69.7111 53.9415 69.7231 53.9415H73.7844V50.6966H72.0208C70.4736 50.6966 69.215 49.4379 69.215 47.8907V45.0454C68.9558 45.0068 68.6907 44.9863 68.4208 44.9863H60.3586L61.5197 46.956C61.6725 47.2152 61.7532 47.5113 61.7532 47.8121V50.8405C62.105 50.7021 62.4728 50.5932 62.855 50.519C63.2927 50.4343 63.7151 50.7197 63.8 51.1567C63.8849 51.5937 63.5994 52.0169 63.1622 52.1017C61.0679 52.5083 59.527 54.2822 59.4153 56.4155C59.2813 58.9715 61.252 61.1601 63.8081 61.2939ZM57.8347 57.3414C57.7985 57.0109 57.7873 56.6735 57.8052 56.3309C57.819 56.0674 57.8494 55.8081 57.8946 55.5538H42.5858C42.1405 55.5538 41.7797 55.1929 41.7797 54.7477C41.7797 54.3025 42.1405 53.9415 42.5858 53.9415H45.6659V44.9863H34.3077V51.4957C35.2059 52.1112 35.9366 52.9542 36.4148 53.9416H39.1503C39.5956 53.9416 39.9564 54.3026 39.9564 54.7478C39.9564 55.193 39.5956 55.5539 39.1503 55.5539H36.9367C37.001 55.9127 37.0364 56.2814 37.0364 56.6583C37.0364 56.8893 37.0228 57.117 36.9983 57.3415H57.8347V57.3414ZM30.782 61.3002C33.3416 61.3002 35.424 59.2178 35.424 56.6582C35.424 54.0986 33.3416 52.0161 30.782 52.0161C28.2223 52.0161 26.1399 54.0986 26.1399 56.6582C26.1399 59.2178 28.2222 61.3002 30.782 61.3002ZM22.6123 57.3414H24.5656C24.5411 57.1168 24.5275 56.8891 24.5275 56.6582C24.5275 56.2812 24.5629 55.9126 24.6272 55.5538H22.6123V57.3414Z"></path></mask><path d="M21.8795 54.0964V47.1528C21.8795 45.0692 23.5747 43.3741 25.6584 43.3741H27.8066L29.0841 40.8268C29.2835 40.4289 29.7678 40.2681 30.1661 40.4676C30.564 40.6672 30.7249 41.1516 30.5253 41.5495L29.6103 43.374H31.414L34.0848 38.0491C34.3397 37.5405 34.8517 37.2245 35.4206 37.2245H52.4325C52.9023 37.2245 53.3502 37.4495 53.6306 37.8261L57.7643 43.374H59.7749L54.5299 36.3347C54.193 35.8824 53.6549 35.6123 53.0908 35.6123H34.6109C33.9277 35.6123 33.313 35.9916 33.0067 36.6023L32.0657 38.4785C31.8661 38.8764 31.3816 39.0373 30.9837 38.8376C30.5857 38.638 30.4249 38.1535 30.6245 37.7555L31.5655 35.8795C32.1469 34.7201 33.3139 34 34.6109 34H53.091C54.1619 34 55.1832 34.5127 55.8231 35.3714L61.7856 43.374H68.4207C72.2673 43.374 75.3966 46.5034 75.3966 50.3498V54.1964C75.7608 54.4515 76 54.8735 76 55.351V57.5442C76 58.3213 75.3677 58.9536 74.5906 58.9536H69.8704C69.5203 59.8435 68.9675 60.6474 68.2362 61.3059C67.0779 62.3489 65.6056 62.9127 64.0587 62.9127C63.9475 62.9127 63.8357 62.9098 63.7239 62.9039C61.2048 62.7719 59.1094 61.1581 58.2354 58.9536H36.5981C35.6807 61.2695 33.4204 62.9125 30.782 62.9125C28.1435 62.9125 25.8832 61.2695 24.9659 58.9536H22.5507C21.6956 58.9536 21 58.258 21 57.4031V55.4922C21 54.8777 21.3601 54.3472 21.8795 54.0964ZM23.4918 50.0039H24.623C24.6888 50.0039 24.7424 49.9503 24.7424 49.8845V47.7054C24.7424 47.6395 24.6888 47.5858 24.623 47.5858H23.4918V50.0039ZM23.8434 45.9735H24.6231C25.578 45.9735 26.3548 46.7504 26.3548 47.7053V49.8844C26.3548 50.8393 25.5779 51.6161 24.6231 51.6161H23.4919V53.9414H25.1491C26.1621 51.8497 28.3063 50.4037 30.782 50.4037C31.4492 50.4037 32.092 50.5098 32.6954 50.7042V44.9861H25.6585C24.8987 44.9862 24.2302 45.3802 23.8434 45.9735ZM33.2178 43.374H35.8801V38.8369H35.4933L33.2178 43.374ZM45.6658 43.374V38.8369H37.4922V43.374H45.6658ZM52.3733 38.8369H47.2782V43.374H55.7539L52.3733 38.8369ZM58.4158 53.9415C58.8221 53.0969 59.4126 52.3564 60.1409 51.7737V47.812C60.1409 47.7988 60.1373 47.7859 60.1306 47.7746L58.4869 44.9863H47.2781V53.9415H58.4158ZM70.8272 45.5587V47.8907C70.8272 48.5489 71.3626 49.0843 72.0207 49.0843H73.6322C73.2574 47.5415 72.2142 46.2581 70.8272 45.5587ZM74.3877 57.3414V55.5538H70.2079C70.2907 56.0192 70.3223 56.4988 70.2969 56.9854C70.2906 57.1049 70.2801 57.2235 70.2673 57.3415H74.3877V57.3414ZM63.8081 61.2939C65.0443 61.359 66.2357 60.9376 67.1571 60.1078C68.0786 59.2781 68.6218 58.1392 68.6866 56.901C68.7847 55.0301 67.7581 53.2938 66.0714 52.4776C65.6706 52.2836 65.503 51.8015 65.6971 51.4008C65.891 51.0001 66.3728 50.8323 66.7739 51.0263C68.0774 51.6572 69.0873 52.6964 69.6874 53.9433C69.6994 53.9428 69.7111 53.9415 69.7231 53.9415H73.7844V50.6966H72.0208C70.4736 50.6966 69.215 49.4379 69.215 47.8907V45.0454C68.9558 45.0068 68.6907 44.9863 68.4208 44.9863H60.3586L61.5197 46.956C61.6725 47.2152 61.7532 47.5113 61.7532 47.8121V50.8405C62.105 50.7021 62.4728 50.5932 62.855 50.519C63.2927 50.4343 63.7151 50.7197 63.8 51.1567C63.8849 51.5937 63.5994 52.0169 63.1622 52.1017C61.0679 52.5083 59.527 54.2822 59.4153 56.4155C59.2813 58.9715 61.252 61.1601 63.8081 61.2939ZM57.8347 57.3414C57.7985 57.0109 57.7873 56.6735 57.8052 56.3309C57.819 56.0674 57.8494 55.8081 57.8946 55.5538H42.5858C42.1405 55.5538 41.7797 55.1929 41.7797 54.7477C41.7797 54.3025 42.1405 53.9415 42.5858 53.9415H45.6659V44.9863H34.3077V51.4957C35.2059 52.1112 35.9366 52.9542 36.4148 53.9416H39.1503C39.5956 53.9416 39.9564 54.3026 39.9564 54.7478C39.9564 55.193 39.5956 55.5539 39.1503 55.5539H36.9367C37.001 55.9127 37.0364 56.2814 37.0364 56.6583C37.0364 56.8893 37.0228 57.117 36.9983 57.3415H57.8347V57.3414ZM30.782 61.3002C33.3416 61.3002 35.424 59.2178 35.424 56.6582C35.424 54.0986 33.3416 52.0161 30.782 52.0161C28.2223 52.0161 26.1399 54.0986 26.1399 56.6582C26.1399 59.2178 28.2222 61.3002 30.782 61.3002ZM22.6123 57.3414H24.5656C24.5411 57.1168 24.5275 56.8891 24.5275 56.6582C24.5275 56.2812 24.5629 55.9126 24.6272 55.5538H22.6123V57.3414Z" fill="#1F2428" stroke="#F2F6FC" stroke-width="0.4" mask="url(#path-6-inside-1)"></path><path d="M50.6143 47.044H50.0353C49.6452 47.044 49.3291 47.3601 49.3291 47.7501C49.3291 48.1401 49.6452 48.4562 50.0353 48.4562H50.6143C51.0043 48.4562 51.3204 48.1401 51.3204 47.7501C51.3204 47.3601 51.0043 47.044 50.6143 47.044Z" fill="#1F2428" stroke="#F2F6FC" stroke-width="0.2"></path></svg> 