<?xml version="1.0" encoding="UTF-8"?> <svg xmlns="http://www.w3.org/2000/svg" width="96" height="96" viewBox="0 0 96 96" fill="none"><rect width="96" height="96" rx="6" transform="matrix(-1 0 0 1 96 0)" fill="#F2F6FC"></rect><circle cx="26.3535" cy="61.472" r="4.37985" fill="#3693E7"></circle><circle cx="48.7392" cy="61.472" r="4.37985" fill="#3693E7"></circle><path d="M40.4668 39.5728H41.36C43.0168 39.5728 44.36 40.9159 44.36 42.5728V53.1989H40.4668V39.5728Z" fill="#3693E7"></path><path d="M47.6556 61.3312C47.6556 61.8936 48.1115 62.3494 48.6738 62.3494C49.2361 62.3494 49.692 61.8936 49.692 61.3312C49.692 60.7689 49.2361 60.313 48.6738 60.313C48.1115 60.313 47.6556 60.7689 47.6556 61.3312Z" fill="#1F2428" stroke="#F2F6FC" stroke-width="0.2"></path><path d="M25.581 61.2026C25.5253 61.7621 25.9337 62.2609 26.4933 62.3165C27.0528 62.3722 27.5515 61.9637 27.6072 61.4042C27.6629 60.8447 27.2544 60.346 26.6949 60.2903C26.1353 60.2346 25.6366 60.6431 25.581 61.2026Z" fill="#1F2428" stroke="#F2F6FC" stroke-width="0.2"></path><mask id="path-7-inside-1" fill="white"><path d="M21.7695 48.6863C21.3444 48.6863 20.9998 48.3416 20.9998 47.9165V46.7647C20.9998 44.3597 22.9564 42.4031 25.3614 42.4031H32.0334V40.3138C32.0334 39.3236 32.8391 38.5179 33.8294 38.5179H35.7398L39.8181 31.9101C40.54 30.7404 41.6154 29.8856 42.8629 29.4454C42.8874 28.5824 43.3596 27.7848 44.1099 27.3518L46.7577 25.8235C47.2557 25.536 47.8502 25.5362 48.3481 25.8236C48.8408 26.108 49.1364 26.6152 49.1426 27.1828L64.2353 25.6516L64.5588 24.999C64.8094 24.4934 65.2708 24.1416 65.8248 24.0338C66.3787 23.926 66.9384 24.079 67.3603 24.4538L69.7851 26.6068C70.4534 27.2004 70.8367 28.0534 70.8367 28.9473V35.5418C70.8367 35.9669 70.4921 36.3115 70.067 36.3115C69.6419 36.3115 69.2973 35.9669 69.2973 35.5418V28.9473C69.2973 28.493 69.1025 28.0595 68.7629 27.7579L66.3382 25.6047C66.1663 25.4928 66.0553 25.5142 65.938 25.6826L64.2398 29.1085H64.469C64.9417 28.6617 65.5784 28.3869 66.2786 28.3869C67.7327 28.3869 68.9157 29.5699 68.9157 31.0239C68.9157 32.478 67.7327 33.6611 66.2786 33.6611C65.906 33.6611 65.5515 33.583 65.2298 33.443L64.438 33.6273L68.1691 51.5454C68.317 51.4901 68.4712 51.447 68.6308 51.4187C68.8545 51.3789 69.0783 51.3687 69.2974 51.3862V39.0053C69.2974 38.5802 69.642 38.2356 70.0671 38.2356C70.4922 38.2356 70.8368 38.5802 70.8368 39.0053V52.0646C70.8624 52.0455 73.1696 54.6826 73.2489 54.7594C74.0758 55.6905 74.5312 56.8892 74.5312 58.1346C74.5312 60.9371 72.2512 63.2171 69.4487 63.2171H59.9247C59.0498 63.2171 58.3381 62.5053 58.3381 61.6305C58.3381 61.0142 58.6995 60.449 59.2591 60.1903L63.0567 58.4352C64.2291 57.8935 65.1351 56.9331 65.6079 55.7313C65.6945 55.5358 66.7457 52.7715 66.8343 52.6865L62.9383 33.9763L50.3506 36.9054L45.541 45.6673V52.0208C45.541 53.011 44.7354 53.8167 43.7451 53.8167H43.4422V56.3693H48.6741C51.4102 56.3693 53.636 58.5952 53.636 61.3312C53.636 64.0671 51.4101 66.2931 48.6741 66.2931H26.6078C23.8718 66.2931 21.6459 64.0671 21.6459 61.3312C21.6459 58.5952 23.8719 56.3693 26.6078 56.3693H31.8397V53.8167H22.7958C21.8056 53.8167 20.9999 53.011 20.9999 52.0208V51.5744C20.9999 51.1493 21.3445 50.8047 21.7696 50.8047C22.1947 50.8047 22.5393 51.1493 22.5393 51.5744V52.0208C22.5393 52.1622 22.6545 52.2774 22.7959 52.2774H36.81L32.5921 46.6134C32.2319 46.1296 32.0334 45.5309 32.0334 44.9279V43.9427H25.3614C23.8052 43.9427 22.5391 45.2087 22.5391 46.7649V47.9167C22.5391 48.3416 22.1945 48.6863 21.7695 48.6863ZM63.7024 59.8325L59.9048 61.5875C59.8596 61.607 59.8752 61.6791 59.9246 61.6778H69.4487C71.4024 61.6778 72.9918 60.0882 72.9918 58.1346C72.9918 57.2664 72.6743 56.4307 72.0978 55.7817L69.8675 53.2706C69.3781 52.6829 68.361 52.8681 68.1071 53.5832L67.0403 56.2947C66.4218 57.8671 65.2363 59.1236 63.7024 59.8325ZM41.128 32.7186L37.5486 38.5179H41.1794C42.1433 38.5179 43.0347 38.8328 43.7575 39.3643L46.4594 37.1502C47.2875 36.4717 48.2455 35.9481 49.2637 35.6132L49.3942 35.3735C48.9931 34.951 48.7462 34.3808 48.7462 33.7536C48.7462 32.4548 49.8029 31.3983 51.1016 31.3983C52.4004 31.3983 53.4569 32.4548 53.4569 33.7536C53.4569 34.0681 53.3945 34.3682 53.2821 34.6427L63.9044 32.171C63.6821 31.7212 63.5909 31.1624 63.6689 30.6479H44.8395C43.3158 30.6479 41.9283 31.4219 41.128 32.7186ZM51.1016 34.5696C51.5515 34.5696 51.9176 34.2036 51.9176 33.7537C51.9176 33.3038 51.5515 32.9378 51.1016 32.9378C50.6517 32.9378 50.2857 33.3038 50.2857 33.7537C50.2857 34.2036 50.6517 34.5696 51.1016 34.5696ZM47.5784 27.1568C47.5529 27.1419 47.5375 27.1508 47.5272 27.1568L44.8794 28.685C44.7041 28.7862 44.5694 28.94 44.4878 29.1191C44.6043 29.1123 44.7217 29.1085 44.8396 29.1085H47.6039V27.201C47.6039 27.1893 47.6039 27.1715 47.5784 27.1568ZM63.4278 27.2809L49.1432 28.7302V29.1086H62.5438C62.6301 28.8446 63.4278 27.2809 63.4278 27.2809ZM67.3764 31.024C67.3764 30.4187 66.884 29.9263 66.2787 29.9263C65.6735 29.9263 65.181 30.4187 65.181 31.024C65.181 31.6294 65.6735 32.1217 66.2787 32.1217C66.884 32.1217 67.3764 31.6294 67.3764 31.024ZM47.4351 38.3409L44.821 40.483C45.2068 41.0673 45.4556 41.7492 45.5221 42.4833L48.0081 37.9187C47.8103 38.05 47.6186 38.1905 47.4351 38.3409ZM44.0016 52.0207V42.8793C44.0016 41.3232 42.7356 40.0571 41.1794 40.0571H40.8088V52.2771H43.745C43.8865 52.2773 44.0016 52.1621 44.0016 52.0207ZM48.674 64.7537C50.5612 64.7537 52.0966 63.2184 52.0966 61.3312C52.0966 59.444 50.5612 57.9086 48.674 57.9086C46.7868 57.9086 45.2514 59.444 45.2514 61.3312C45.2514 63.2184 46.7868 64.7537 48.674 64.7537ZM45.0865 64.7537C44.236 63.8626 43.7121 62.6573 43.7121 61.3312C43.7121 61.1513 43.7222 60.9739 43.741 60.7991H31.5409C31.5792 61.1478 31.5792 61.5147 31.5409 61.8634H41.1153C41.5404 61.8634 41.885 62.208 41.885 62.6331C41.885 63.0582 41.5404 63.4028 41.1153 63.4028H31.115C30.8839 63.9037 30.5718 64.3596 30.1954 64.7539H45.0865V64.7537ZM26.6077 57.9085C24.7205 57.9085 23.1852 59.4439 23.1852 61.3311C23.1852 63.2183 24.7205 64.7536 26.6077 64.7536C28.4949 64.7536 30.0303 63.2183 30.0303 61.3311C30.0303 59.4439 28.495 57.9085 26.6077 57.9085ZM30.1952 57.9085C30.5716 58.3029 30.8837 58.7586 31.1148 59.2597H44.1669C44.3981 58.7587 44.7102 58.3029 45.0865 57.9085H30.1952ZM33.3789 56.3692H41.9028V53.8166H33.3789V56.3692ZM33.5728 44.9278C33.5728 45.2019 33.663 45.4741 33.8266 45.6939L38.7293 52.2773H39.2695V40.0572H33.8294C33.6879 40.0572 33.5728 40.1723 33.5728 40.3138V44.9278Z"></path></mask><path d="M21.7695 48.6863C21.3444 48.6863 20.9998 48.3416 20.9998 47.9165V46.7647C20.9998 44.3597 22.9564 42.4031 25.3614 42.4031H32.0334V40.3138C32.0334 39.3236 32.8391 38.5179 33.8294 38.5179H35.7398L39.8181 31.9101C40.54 30.7404 41.6154 29.8856 42.8629 29.4454C42.8874 28.5824 43.3596 27.7848 44.1099 27.3518L46.7577 25.8235C47.2557 25.536 47.8502 25.5362 48.3481 25.8236C48.8408 26.108 49.1364 26.6152 49.1426 27.1828L64.2353 25.6516L64.5588 24.999C64.8094 24.4934 65.2708 24.1416 65.8248 24.0338C66.3787 23.926 66.9384 24.079 67.3603 24.4538L69.7851 26.6068C70.4534 27.2004 70.8367 28.0534 70.8367 28.9473V35.5418C70.8367 35.9669 70.4921 36.3115 70.067 36.3115C69.6419 36.3115 69.2973 35.9669 69.2973 35.5418V28.9473C69.2973 28.493 69.1025 28.0595 68.7629 27.7579L66.3382 25.6047C66.1663 25.4928 66.0553 25.5142 65.938 25.6826L64.2398 29.1085H64.469C64.9417 28.6617 65.5784 28.3869 66.2786 28.3869C67.7327 28.3869 68.9157 29.5699 68.9157 31.0239C68.9157 32.478 67.7327 33.6611 66.2786 33.6611C65.906 33.6611 65.5515 33.583 65.2298 33.443L64.438 33.6273L68.1691 51.5454C68.317 51.4901 68.4712 51.447 68.6308 51.4187C68.8545 51.3789 69.0783 51.3687 69.2974 51.3862V39.0053C69.2974 38.5802 69.642 38.2356 70.0671 38.2356C70.4922 38.2356 70.8368 38.5802 70.8368 39.0053V52.0646C70.8624 52.0455 73.1696 54.6826 73.2489 54.7594C74.0758 55.6905 74.5312 56.8892 74.5312 58.1346C74.5312 60.9371 72.2512 63.2171 69.4487 63.2171H59.9247C59.0498 63.2171 58.3381 62.5053 58.3381 61.6305C58.3381 61.0142 58.6995 60.449 59.2591 60.1903L63.0567 58.4352C64.2291 57.8935 65.1351 56.9331 65.6079 55.7313C65.6945 55.5358 66.7457 52.7715 66.8343 52.6865L62.9383 33.9763L50.3506 36.9054L45.541 45.6673V52.0208C45.541 53.011 44.7354 53.8167 43.7451 53.8167H43.4422V56.3693H48.6741C51.4102 56.3693 53.636 58.5952 53.636 61.3312C53.636 64.0671 51.4101 66.2931 48.6741 66.2931H26.6078C23.8718 66.2931 21.6459 64.0671 21.6459 61.3312C21.6459 58.5952 23.8719 56.3693 26.6078 56.3693H31.8397V53.8167H22.7958C21.8056 53.8167 20.9999 53.011 20.9999 52.0208V51.5744C20.9999 51.1493 21.3445 50.8047 21.7696 50.8047C22.1947 50.8047 22.5393 51.1493 22.5393 51.5744V52.0208C22.5393 52.1622 22.6545 52.2774 22.7959 52.2774H36.81L32.5921 46.6134C32.2319 46.1296 32.0334 45.5309 32.0334 44.9279V43.9427H25.3614C23.8052 43.9427 22.5391 45.2087 22.5391 46.7649V47.9167C22.5391 48.3416 22.1945 48.6863 21.7695 48.6863ZM63.7024 59.8325L59.9048 61.5875C59.8596 61.607 59.8752 61.6791 59.9246 61.6778H69.4487C71.4024 61.6778 72.9918 60.0882 72.9918 58.1346C72.9918 57.2664 72.6743 56.4307 72.0978 55.7817L69.8675 53.2706C69.3781 52.6829 68.361 52.8681 68.1071 53.5832L67.0403 56.2947C66.4218 57.8671 65.2363 59.1236 63.7024 59.8325ZM41.128 32.7186L37.5486 38.5179H41.1794C42.1433 38.5179 43.0347 38.8328 43.7575 39.3643L46.4594 37.1502C47.2875 36.4717 48.2455 35.9481 49.2637 35.6132L49.3942 35.3735C48.9931 34.951 48.7462 34.3808 48.7462 33.7536C48.7462 32.4548 49.8029 31.3983 51.1016 31.3983C52.4004 31.3983 53.4569 32.4548 53.4569 33.7536C53.4569 34.0681 53.3945 34.3682 53.2821 34.6427L63.9044 32.171C63.6821 31.7212 63.5909 31.1624 63.6689 30.6479H44.8395C43.3158 30.6479 41.9283 31.4219 41.128 32.7186ZM51.1016 34.5696C51.5515 34.5696 51.9176 34.2036 51.9176 33.7537C51.9176 33.3038 51.5515 32.9378 51.1016 32.9378C50.6517 32.9378 50.2857 33.3038 50.2857 33.7537C50.2857 34.2036 50.6517 34.5696 51.1016 34.5696ZM47.5784 27.1568C47.5529 27.1419 47.5375 27.1508 47.5272 27.1568L44.8794 28.685C44.7041 28.7862 44.5694 28.94 44.4878 29.1191C44.6043 29.1123 44.7217 29.1085 44.8396 29.1085H47.6039V27.201C47.6039 27.1893 47.6039 27.1715 47.5784 27.1568ZM63.4278 27.2809L49.1432 28.7302V29.1086H62.5438C62.6301 28.8446 63.4278 27.2809 63.4278 27.2809ZM67.3764 31.024C67.3764 30.4187 66.884 29.9263 66.2787 29.9263C65.6735 29.9263 65.181 30.4187 65.181 31.024C65.181 31.6294 65.6735 32.1217 66.2787 32.1217C66.884 32.1217 67.3764 31.6294 67.3764 31.024ZM47.4351 38.3409L44.821 40.483C45.2068 41.0673 45.4556 41.7492 45.5221 42.4833L48.0081 37.9187C47.8103 38.05 47.6186 38.1905 47.4351 38.3409ZM44.0016 52.0207V42.8793C44.0016 41.3232 42.7356 40.0571 41.1794 40.0571H40.8088V52.2771H43.745C43.8865 52.2773 44.0016 52.1621 44.0016 52.0207ZM48.674 64.7537C50.5612 64.7537 52.0966 63.2184 52.0966 61.3312C52.0966 59.444 50.5612 57.9086 48.674 57.9086C46.7868 57.9086 45.2514 59.444 45.2514 61.3312C45.2514 63.2184 46.7868 64.7537 48.674 64.7537ZM45.0865 64.7537C44.236 63.8626 43.7121 62.6573 43.7121 61.3312C43.7121 61.1513 43.7222 60.9739 43.741 60.7991H31.5409C31.5792 61.1478 31.5792 61.5147 31.5409 61.8634H41.1153C41.5404 61.8634 41.885 62.208 41.885 62.6331C41.885 63.0582 41.5404 63.4028 41.1153 63.4028H31.115C30.8839 63.9037 30.5718 64.3596 30.1954 64.7539H45.0865V64.7537ZM26.6077 57.9085C24.7205 57.9085 23.1852 59.4439 23.1852 61.3311C23.1852 63.2183 24.7205 64.7536 26.6077 64.7536C28.4949 64.7536 30.0303 63.2183 30.0303 61.3311C30.0303 59.4439 28.495 57.9085 26.6077 57.9085ZM30.1952 57.9085C30.5716 58.3029 30.8837 58.7586 31.1148 59.2597H44.1669C44.3981 58.7587 44.7102 58.3029 45.0865 57.9085H30.1952ZM33.3789 56.3692H41.9028V53.8166H33.3789V56.3692ZM33.5728 44.9278C33.5728 45.2019 33.663 45.4741 33.8266 45.6939L38.7293 52.2773H39.2695V40.0572H33.8294C33.6879 40.0572 33.5728 40.1723 33.5728 40.3138V44.9278Z" fill="#1F2428" stroke="#F2F6FC" stroke-width="0.4" mask="url(#path-7-inside-1)"></path><path d="M30.4596 45.3488V47.4269C30.4596 47.7968 30.1597 48.0967 29.7898 48.0967C29.42 48.0967 29.1201 47.7968 29.1201 47.4269V45.3488C29.1201 44.9789 29.4199 44.6791 29.7898 44.6791L30.4596 45.3488ZM30.4596 45.3488C30.4596 44.9791 30.1598 44.6792 29.7898 44.6791L30.4596 45.3488Z" fill="#1F2428" stroke="#F2F6FC" stroke-width="0.2"></path><path d="M27.4723 45.3488V47.4269C27.4723 47.7968 27.1724 48.0967 26.8025 48.0967C26.4327 48.0967 26.1328 47.7968 26.1328 47.4269V45.3488C26.1328 44.9789 26.4326 44.6791 26.8025 44.6791L27.4723 45.3488ZM27.4723 45.3488C27.4723 44.9791 27.1725 44.6792 26.8025 44.6791L27.4723 45.3488Z" fill="#1F2428" stroke="#F2F6FC" stroke-width="0.2"></path></svg> 