<?xml version="1.0" encoding="UTF-8"?> <svg xmlns="http://www.w3.org/2000/svg" width="96" height="96" viewBox="0 0 96 96" fill="none"><rect width="96" height="96" rx="6" fill="#F2F6FC"></rect><path d="M25 56L38.5 54.5L48 48.5L56 46.5L58 47.5L52 54L47 62L41 70H25V56Z" fill="#3693E7"></path><path d="M54.3647 45.9364L54.376 46.086C54.3966 46.0844 54.4174 46.0837 54.4382 46.0837H59.9714V46.084L59.9815 46.0833C60.1266 46.0735 60.9665 46.0095 61.9838 45.7866C62.9972 45.5646 64.2061 45.1809 65.0757 44.5216C67.9766 42.3222 70.0131 42.6719 70.2028 42.711L70.203 42.711C70.5796 42.7879 70.8501 43.1192 70.8501 43.5037V70.0409C70.8501 70.4879 70.4877 70.8501 70.0409 70.8501H24.9592C24.5124 70.8501 24.15 70.4879 24.15 70.0409V42.5444C24.15 42.0976 24.5124 41.7352 24.9593 41.7352C26.0449 41.7352 27.6464 41.4343 29.4747 41.0907L29.4891 41.088C29.4891 41.088 29.4891 41.088 29.4891 41.088C31.5137 40.7076 33.7759 40.2826 36.0151 40.1247C38.255 39.9668 40.4592 40.0772 42.369 40.7593L42.4194 40.6181L42.369 40.7593C47.5669 42.6157 52.8393 45.8241 53.4138 46.1779L53.4615 46.2072L53.5167 46.1982C54.0207 46.1155 54.327 46.0898 54.3763 46.086L54.3647 45.9364ZM54.3647 45.9364C54.3116 45.9406 54.0011 45.9667 53.4925 46.0502L70.233 42.5641C70.0057 42.5173 67.9242 42.1738 64.9851 44.402C63.2989 45.6805 60.2536 45.9146 59.9714 45.9337H54.4382C54.4136 45.9337 54.3891 45.9346 54.3647 45.9364ZM25.9045 43.3047L25.7684 43.3174V43.454V54.7885V54.9356L25.9154 54.9385C26.1767 54.9436 26.4876 54.9473 26.8396 54.9473C28.5508 54.9473 31.5055 54.8582 34.529 54.3552C37.5467 53.8531 40.6592 52.9348 42.665 51.2594C45.5853 48.8199 48.5965 47.5215 50.8368 46.8352L51.1702 46.7331L50.8668 46.5613C48.8232 45.4038 45.2653 43.5122 41.8246 42.2833L41.7741 42.4245L41.8246 42.2833C40.102 41.6682 38.0424 41.5907 35.9454 41.7531C33.8488 41.9155 31.6997 42.3193 29.7927 42.6775L29.7878 42.6785L29.7878 42.6785C28.3096 42.9563 26.9949 43.203 25.9045 43.3047ZM25.7684 69.0819V69.2318H25.9184H38.5259H38.5451L38.5637 69.227C40.2382 68.7902 42.0224 67.4417 43.9052 65.2326C45.7907 63.0203 47.7886 59.9288 49.8868 55.9773C52.0085 51.9816 54.6318 49.461 56.6333 47.9724L56.9968 47.702H56.5438H54.4818H54.4743L54.4669 47.7028C54.006 47.7488 48.6551 48.3648 43.7026 52.5016C41.5974 54.2601 38.5136 55.2789 35.3786 55.8563C32.2476 56.4329 29.0852 56.5659 26.8396 56.5659C26.4917 56.5659 26.1834 56.5625 25.9212 56.5575L25.7684 56.5547V56.7075V69.0819ZM48.4457 69.0414L48.3923 69.2318H48.5901H63.966H68.926H69.1345L69.0683 69.0342C68.6464 67.7745 67.4551 66.8638 66.0544 66.8638C66.0037 66.8638 65.9537 66.8659 65.9076 66.8679L65.9012 66.8682L65.9006 66.8682C65.5164 66.8866 65.1747 66.6311 65.0804 66.2585C64.3488 63.3701 61.7539 61.3529 58.7704 61.3529C55.952 61.3529 53.4668 63.1516 52.5869 65.8284C52.4808 66.151 52.1845 66.3731 51.845 66.3844C50.2097 66.4387 48.8656 67.542 48.4457 69.0414ZM68.9897 66.2514L69.2317 66.4394V66.133V44.5V44.3192L69.0541 44.3526C68.3787 44.4792 67.3358 44.8386 66.0535 45.8109C65.0867 46.544 63.8302 46.9986 62.7081 47.2775C61.5882 47.5559 60.6151 47.6564 60.2242 47.6879L60.1975 47.6901L60.1732 47.7013C59.3431 48.0856 54.6376 50.4805 51.3161 56.736C48.1434 62.7113 45.1989 66.7506 42.4074 68.9642L42.07 69.2318H42.5006H46.6249H46.7508L46.7726 69.1077C47.1615 66.8968 48.911 65.1694 51.1518 64.8261L51.2352 64.8133L51.2676 64.7354C52.5208 61.7195 55.4612 59.7343 58.7704 59.7343C62.2541 59.7343 65.3132 61.9375 66.4425 65.1729L66.4738 65.2625L66.5681 65.2726C67.474 65.3695 68.3052 65.7199 68.9897 66.2514Z" fill="#1F2428" stroke="#F2F6FC" stroke-width="0.3"></path><path d="M64.9112 28.3003L64.9423 28.3837L65.0304 28.3963C66.8954 28.6637 68.3337 30.2724 68.3337 32.2098C68.3337 32.6566 67.9714 33.019 67.5245 33.019H44.0226C43.5757 33.019 43.2134 32.6567 43.2135 32.2098V32.2098C43.2135 31.7629 43.5758 31.4006 44.0227 31.4006H49.4613H49.5817L49.6077 31.283C49.9707 29.6411 51.2807 28.3653 52.9539 28.0596L53.0324 28.0453L53.0644 27.9722C54.0762 25.6629 56.3578 24.15 58.9204 24.15C61.6151 24.15 63.987 25.8251 64.9112 28.3003ZM51.3295 31.1924L51.2418 31.4006H51.4678H66.3314H66.5786L66.4644 31.1813C66.092 30.4659 65.3432 29.9755 64.4813 29.9755C64.4442 29.9755 64.4084 29.9769 64.3745 29.9786C63.989 29.9947 63.6463 29.7412 63.552 29.369L63.552 29.369C63.015 27.2489 61.1103 25.7684 58.9204 25.7684C56.8518 25.7684 55.0275 27.0887 54.3816 29.0534C54.2755 29.3761 53.9791 29.5981 53.6397 29.6094C52.5917 29.6444 51.7115 30.2853 51.3295 31.1924Z" fill="#1F2428" stroke="#F2F6FC" stroke-width="0.3"></path><path d="M38.9953 31.4007H40.7618C41.2086 31.4007 41.571 31.7631 41.571 32.2099C41.571 32.6567 41.2086 33.0191 40.7618 33.0191H38.9953C38.5485 33.0191 38.1861 32.6568 38.1861 32.2099C38.1861 31.7631 38.5484 31.4007 38.9953 31.4007Z" fill="#1F2428" stroke="#F2F6FC" stroke-width="0.3"></path><path d="M31.4812 30.0163L31.5938 30.1445L31.7065 30.0163C32.386 29.243 33.3804 28.7542 34.4873 28.7542C34.9341 28.7542 35.2965 29.1166 35.2965 29.5634C35.2965 30.0102 34.9341 30.3726 34.4873 30.3726C33.3379 30.3726 32.403 31.3075 32.403 32.4568C32.403 32.9038 32.0407 33.266 31.5938 33.266C31.147 33.266 30.7847 32.9038 30.7847 32.4568C30.7847 31.3075 29.8497 30.3726 28.7004 30.3726C28.2536 30.3726 27.8912 30.0102 27.8912 29.5633C27.8912 29.1165 28.2536 28.7541 28.7004 28.7541C29.8073 28.7541 30.8016 29.243 31.4812 30.0163Z" fill="#1F2428" stroke="#F2F6FC" stroke-width="0.3"></path><path d="M52.9182 39.4278L53.0309 39.5561L53.1435 39.4278C53.823 38.6544 54.8174 38.1657 55.9243 38.1657C56.3711 38.1657 56.7335 38.5281 56.7335 38.9749C56.7335 39.4218 56.3711 39.7841 55.9243 39.7841C54.775 39.7841 53.84 40.719 53.84 41.8684C53.84 42.3152 53.4777 42.6776 53.0309 42.6776C52.584 42.6776 52.2217 42.3152 52.2217 41.8684C52.2217 40.719 51.2868 39.7841 50.1374 39.7841C49.6905 39.7841 49.3282 39.4218 49.3282 38.9749C49.3282 38.5281 49.6905 38.1657 50.1374 38.1657C51.2443 38.1657 52.2386 38.6545 52.9182 39.4278Z" fill="#1F2428" stroke="#F2F6FC" stroke-width="0.3"></path><path d="M54.297 66.3537C53.9263 66.1042 53.828 65.6014 54.0775 65.2306L54.297 66.3537ZM54.0775 65.2306C55.1346 63.6599 56.8941 62.7224 58.7845 62.7224C59.2314 62.7224 59.5937 63.0847 59.5938 63.5316L54.0775 65.2306ZM54.748 66.4917C54.5926 66.4917 54.4359 66.4472 54.297 66.3537L55.4201 66.1343C55.2639 66.3662 55.0086 66.4917 54.748 66.4917ZM58.7846 64.3408C57.4337 64.3408 56.1759 65.0114 55.4202 66.1342L59.5938 63.5316C59.5938 63.9784 59.2315 64.3408 58.7846 64.3408Z" fill="#1F2428" stroke="#F2F6FC" stroke-width="0.3"></path><path d="M62.284 63.9306L62.284 63.9306C62.6826 64.2436 63.0379 64.6084 63.3399 65.0148C63.6064 65.3735 63.5316 65.8803 63.1729 66.1468L63.1729 66.1468C63.0278 66.2547 62.8588 66.3066 62.6912 66.3066C62.4434 66.3066 62.1996 66.1936 62.0408 65.9799L62.0408 65.9799C61.8246 65.6889 61.5703 65.4276 61.2847 65.2034L61.2847 65.2034C60.9332 64.9275 60.872 64.4189 61.148 64.0674L61.148 64.0674C61.4238 63.7159 61.9325 63.6545 62.284 63.9306Z" fill="#1F2428" stroke="#F2F6FC" stroke-width="0.3"></path><path d="M41.4747 56.2281L41.4747 56.2281C41.0907 56.4566 40.9646 56.9532 41.1932 57.3372L41.1932 57.3372C41.3444 57.5913 41.613 57.7327 41.8894 57.7327C42.0299 57.7327 42.1723 57.6961 42.3023 57.6187L42.3023 57.6187C42.815 57.3135 43.2861 56.9823 43.7024 56.6347L41.4747 56.2281ZM41.4747 56.2281C41.9126 55.9674 42.3131 55.6864 42.6651 55.3924M41.4747 56.2281L42.6651 55.3924M42.6651 55.3924C43.0081 55.1062 43.5183 55.1519 43.8049 55.495M42.6651 55.3924L43.8049 55.495M43.8049 55.495C44.0913 55.8379 44.0454 56.3482 43.7024 56.6347L43.8049 55.495Z" fill="#1F2428" stroke="#F2F6FC" stroke-width="0.3"></path><path d="M28.2308 59.062C31.0761 58.9869 35.2018 58.6537 38.6605 57.4867L38.6606 57.4867C39.0838 57.3435 39.5431 57.5712 39.6859 57.9946L39.6859 57.9946C39.8288 58.418 39.6014 58.8771 39.1781 59.02C35.5361 60.2491 31.2415 60.6016 28.2735 60.6798L28.2727 60.6798C28.2661 60.68 28.2592 60.6801 28.2517 60.6801C27.8146 60.6801 27.4548 60.3318 27.4433 59.8923L27.4433 59.8922C27.4313 59.4456 27.7839 59.0739 28.2308 59.062ZM28.2308 59.062L28.2268 58.9121L28.2308 59.062Z" fill="#1F2428" stroke="#F2F6FC" stroke-width="0.3"></path></svg> 