<?xml version="1.0" encoding="UTF-8"?> <svg xmlns="http://www.w3.org/2000/svg" width="72" height="72" viewBox="0 0 72 72" fill="none"><rect width="72" height="72" fill="#F2F6FC"></rect><path d="M55.6591 22.0645C55.4339 22.0645 55.2074 21.9983 55.0111 21.8671C54.6314 21.6116 54.4375 21.1587 54.5141 20.707L55.2771 16.2581H52.1753C50.2545 16.2581 48.6914 14.695 48.6914 12.7742V3.48387C48.6914 1.5631 50.2545 0 52.1753 0H68.4333C70.3541 0 71.9172 1.5631 71.9172 3.48387V12.7742C71.9172 14.695 70.3541 16.2581 68.4333 16.2581H65.2828L56.2746 21.888C56.0865 22.0053 55.8728 22.0645 55.6591 22.0645Z" fill="#3693E7"></path><path d="M11.6138 48.8565L14.6167 45.8535L7.64936 38.8862L4.64642 41.8891L11.6138 48.8565Z" fill="#3693E7"></path><path d="M30.2523 67.4969L33.5945 64.4345L26.6268 57.4668L23.2637 60.5082L30.2523 67.4969Z" fill="#3693E7"></path><path d="M55.7423 54.6432C54.8028 51.8271 52.4059 49.7484 49.4841 49.2165L41.7232 47.8044V47.2029C43.0738 46.419 44.249 45.3703 45.185 44.1289H47.5297C49.4504 44.1289 51.0135 42.5658 51.0135 40.6451V26.7096C51.0135 18.3854 44.2409 11.6128 35.9168 11.6128C27.5926 11.6128 20.82 18.3854 20.82 26.7096V34.8386C20.82 37.0776 22.4121 38.9507 24.5233 39.3874C25.1748 42.7249 27.2605 45.5492 30.1103 47.2029V47.8044L22.3482 49.2165C19.4276 49.7484 17.0295 51.8271 16.0912 54.6432L15.6267 56.038L11.6713 52.0826C11.2184 51.6297 11.2184 50.8923 11.6713 50.4394L16.2584 45.8534L7.64863 37.2436L2.46463 42.4276C0.929404 43.9629 0.0839844 46.0044 0.0839844 48.176C0.0839844 50.3476 0.929404 52.388 2.46463 53.9232L18.1595 69.6181C19.6947 71.1533 21.7362 71.9999 23.9079 71.9999C26.0795 71.9999 28.1199 71.1533 29.6191 69.6529L35.2757 64.4701L33.5117 62.7096H58.4307L55.7423 54.6432ZM35.9168 51.7772L32.4329 48.2933V48.2387C33.5338 48.5848 34.7032 48.7741 35.9168 48.7741C37.1303 48.7741 38.2997 48.5848 39.4006 48.2387V48.2933L35.9168 51.7772ZM47.5297 41.8063H46.553C46.8898 41.0387 47.1453 40.2293 47.3102 39.3874C47.8072 39.284 48.2648 39.0866 48.691 38.8381V40.6451C48.691 41.2861 48.1695 41.8063 47.5297 41.8063ZM47.5297 32.8389C48.2206 33.2418 48.691 33.9827 48.691 34.8386C48.691 35.6945 48.2206 36.4354 47.5297 36.8383V32.8389ZM23.1426 34.8386C23.1426 33.9827 23.6129 33.2418 24.3039 32.8389V36.8383C23.6129 36.4354 23.1426 35.6945 23.1426 34.8386ZM24.3039 29.0321V30.3583C23.8904 30.4663 23.5026 30.6289 23.1426 30.8391V26.7096C23.1426 19.6663 28.8735 13.9354 35.9168 13.9354C42.96 13.9354 48.691 19.6663 48.691 26.7096V30.8391C48.331 30.6289 47.9431 30.4652 47.5297 30.3583V29.0321H46.3684C42.9344 29.0321 39.7061 27.6943 37.2766 25.2661L35.9168 23.9062L34.5569 25.2661C32.1275 27.6943 28.8991 29.0321 25.4651 29.0321H24.3039ZM26.6264 37.1612V31.3106C30.1138 31.0481 33.3654 29.6093 35.9168 27.1834C38.4681 29.6093 41.7197 31.0493 45.2071 31.3106V37.1612C45.2071 38.8543 44.7449 40.4383 43.9506 41.8063H35.9168V44.1289H42.0414C40.404 45.5701 38.2637 46.4515 35.9168 46.4515C30.7943 46.4515 26.6264 42.2836 26.6264 37.1612ZM12.9731 45.8534L11.712 47.1146L6.38631 41.7889L7.64747 40.5278L12.9731 45.8534ZM23.9055 69.6773C22.3552 69.6773 20.8966 69.0723 19.7992 67.976L4.10437 52.2823C3.00811 51.1861 2.40424 49.7275 2.40424 48.1772C2.40424 46.6257 3.00811 45.1671 4.10437 44.0709L4.74308 43.4321L10.0688 48.7578L10.027 48.7996C8.6694 50.1583 8.6694 52.3683 10.027 53.727L18.3546 62.0546C19.013 62.7119 19.8875 63.0754 20.8188 63.0754C21.7502 63.0754 22.6246 62.7131 23.2401 62.0952L23.3272 62.0174L28.6773 67.3675L28.0107 67.9783C26.9144 69.0723 25.4559 69.6773 23.9055 69.6773ZM30.3913 65.7951L25.0529 60.4567L26.587 59.0701L31.9161 64.3992L30.3913 65.7951ZM31.1891 60.387L26.6659 55.8638L21.6399 60.4102C21.2021 60.8503 20.4368 60.8503 19.9978 60.4102L17.4615 57.874L18.293 55.3772C18.9631 53.3658 20.676 51.8805 22.7628 51.4996L30.8802 50.0248L35.9168 55.0613L40.9521 50.026L49.0684 51.5008C51.1552 51.8817 52.8681 53.3658 53.5382 55.3783L55.2093 60.387H31.1891Z" fill="#1F2428"></path><path d="M10.9666 28.8662L9.77165 26.8746L6.62456 28.7629C9.91565 15.3697 21.9594 5.80647 35.9169 5.80647C38.9677 5.80647 41.9777 6.25937 44.8635 7.15356L45.551 4.9355C42.4422 3.97163 39.2011 3.48389 35.9169 3.48389C20.7435 3.48389 7.6732 13.9796 4.27527 28.62L2.07462 24.9515L0.0830078 26.1465L4.16494 32.9481L10.9666 28.8662Z" fill="#1F2428"></path><path d="M71.3535 25.7147L64.5518 21.6328L60.4699 28.4345L62.4615 29.6295L64.4938 26.242C65.5633 29.3717 66.1103 32.6453 66.1103 36.0003C66.1103 42.9065 63.718 49.6582 59.376 55.0106L61.1795 56.4739C65.8571 50.7092 68.4329 43.4372 68.4329 36.0003C68.4329 32.4479 67.8604 28.9791 66.7444 25.6578L70.1574 27.7052L71.3535 25.7147Z" fill="#1F2428"></path></svg> 