<?xml version="1.0" encoding="UTF-8"?> <svg xmlns="http://www.w3.org/2000/svg" width="96" height="96" viewBox="0 0 96 96" fill="none"><rect width="96" height="96" rx="6" fill="#F2F6FC"></rect><circle cx="30.5" cy="56.5" r="8.5" fill="#3693E7"></circle><circle cx="66.5" cy="56.5" r="8.5" fill="#3693E7"></circle><mask id="path-4-inside-1" fill="white"><path d="M66.3763 46.8298C66.0112 46.8323 65.6465 46.8554 65.2836 46.8986L63.8337 43.6335C63.981 42.0569 66.9172 41.5588 68.2042 41.4186C68.8261 41.3536 69.3254 40.8777 69.4207 40.26C69.5155 39.6424 69.1819 39.0381 68.6087 38.7897C66.3335 37.9139 63.848 37.7398 61.4729 38.2899L59.264 33.2967C58.8422 32.3823 58.0705 31.6761 57.1226 31.3379L50.8311 29.1571C50.5373 29.0505 50.2268 28.9972 49.9146 29.0001C48.5714 29.001 47.4249 29.9716 47.2034 31.2963C46.9814 32.6211 47.7489 33.9119 49.0187 34.35L54.5759 36.2752L57.1482 42.0943L56.6669 42.2676C56.6211 42.2281 56.5842 42.1761 56.5347 42.1446L52.1089 38.9831C51.9695 38.3671 51.5843 37.8346 51.0426 37.5094C50.5008 37.1842 49.85 37.0948 49.2407 37.2614L43.1179 38.9307C41.7138 39.3134 40.2774 39.5672 38.8271 39.6889L30.1274 40.4132C27.6688 40.3847 25.2139 40.6071 22.8002 41.0766C22.2488 41.1971 21.8267 41.6419 21.736 42.1992C21.645 42.756 21.9039 43.3124 22.389 43.6011L25.832 45.6674C26.114 45.8273 26.4325 45.9116 26.7569 45.9133H30.2759L31.0304 46.8558C30.8949 46.8499 30.7619 46.8298 30.6255 46.8298C25.3096 46.8298 21 51.1394 21 56.4553C21 61.7711 25.3096 66.0807 30.6255 66.0807C35.9413 66.0807 40.2505 61.7711 40.2505 56.4553C40.2505 56.3315 40.235 56.2123 40.2304 56.0885L42.647 55.18L43.5203 56.5551C44.0243 57.3507 44.9009 57.8321 45.8425 57.8304H48.354C49.3506 57.8274 50.2684 57.2886 50.7568 56.4204L54.86 48.755L59.3802 47.1424L60.23 49.0677C56.6518 52.0605 55.7412 57.1913 58.0705 61.2327C60.3999 65.2742 65.2957 67.058 69.6792 65.4626C74.0626 63.8668 76.666 59.3524 75.8515 54.7595C75.0374 50.1663 71.0413 46.8218 66.3763 46.8298ZM62.6932 54.632L63.5312 56.5258C63.9752 57.5207 64.9625 58.1611 66.0519 58.1611C66.4346 58.1615 66.8127 58.0813 67.1623 57.9256C67.829 57.6302 68.3511 57.0818 68.6138 56.4011C68.8764 55.7205 68.8576 54.9635 68.5617 54.2963L67.8118 52.6051C69.7661 53.3357 70.8655 55.4116 70.3716 57.4384C69.8777 59.4653 67.9461 60.8026 65.8748 60.5521C63.804 60.3012 62.2471 58.5417 62.2513 56.4553C62.2547 55.8212 62.4057 55.1968 62.6932 54.632ZM66.028 39.9382C64.8606 40.1711 63.78 40.7221 62.9059 41.5307L62.235 40.0133C63.4871 39.7854 64.7678 39.7603 66.028 39.9382ZM55.1717 34.5464L49.6246 32.6211C49.1454 32.4553 48.8869 31.9358 49.0443 31.4533C49.2252 30.9845 49.7384 30.7365 50.218 30.8859L56.5146 33.0638C56.99 33.2342 57.3769 33.5879 57.5888 34.0457L62.0331 44.0892C62.0419 44.1169 62.0524 44.1441 62.0642 44.1706L63.8887 48.2767L66.8861 55.0407C67.0909 55.5044 66.8811 56.0465 66.4174 56.2513C65.9533 56.4561 65.4116 56.2463 65.2068 55.7826L63.7502 52.4931L62.1917 48.9749L60.7407 45.6934V45.6888L56.2489 35.5233C56.0391 35.0638 55.6497 34.71 55.1717 34.5464ZM55.5989 43.9213C55.5951 43.9398 55.5897 43.9578 55.5834 43.9755L49.6695 42.286C49.492 42.2352 49.3028 42.2394 49.1278 42.2986L41.9567 44.6884L47.3809 41.589C47.7451 41.3817 48.1358 41.2248 48.542 41.1224L51.0623 40.4929L55.4676 43.6343C55.5599 43.6972 55.6098 43.8055 55.5989 43.9167V43.9213ZM30.333 43.0531L30.6582 42.4023L39.8364 44.6939L39.2476 45.8722L38.7676 46.8298H33.3589L30.333 43.0531ZM38.9791 41.5131C40.5413 41.383 42.0885 41.1102 43.6013 40.6973L46.8333 39.8165C46.7124 39.8761 46.5869 39.9252 46.4669 39.9923L41.0281 43.1001L35.7588 41.7879L38.9791 41.5131ZM26.7515 44.0799L24.368 42.6498C25.7951 42.4358 27.234 42.3087 28.6763 42.2692C28.4035 42.858 28.464 43.5474 28.8349 44.0799H26.7515ZM38.5007 48.6631L39.6345 50.4462L38.4612 50.8847C37.8591 50.0311 37.1222 49.2808 36.2796 48.6631H38.5007ZM30.6255 64.2474C26.9974 64.2465 23.8501 61.7422 23.0348 58.2072C22.219 54.6722 23.9508 51.0424 27.2114 49.452C30.4719 47.8616 34.3984 48.732 36.682 51.551L34.8331 52.2384C32.9246 50.3333 29.9746 49.9472 27.6402 51.2972C25.3058 52.6467 24.169 55.3961 24.8686 58.0003C25.5677 60.6046 27.9289 62.4148 30.6255 62.4136C33.5096 62.4027 35.9745 60.3343 36.4869 57.4955L38.4008 56.7763C38.2288 60.9474 34.8 64.2419 30.6255 64.2474ZM29.0347 57.3562C29.4409 58.4296 30.469 59.1392 31.6162 59.1392C31.9452 59.1392 32.2713 59.0796 32.5789 58.9634L34.2922 58.3218C33.3715 60.1279 31.2738 60.9965 29.346 60.3691C27.4178 59.7418 26.2328 57.8052 26.5513 55.8031C26.8702 53.8007 28.5978 52.3278 30.6255 52.3303C31.414 52.3295 32.1861 52.5565 32.8483 52.9845L30.6402 53.8095C29.2206 54.3496 28.5038 55.9341 29.0347 57.3562ZM35.3602 55.9584L35.3409 55.9655L31.9305 57.2492C31.4555 57.4284 30.9251 57.1883 30.7459 56.7133C30.5667 56.2383 30.8063 55.7079 31.2818 55.5283L40.6366 52.0294L41.6374 53.6034L35.3602 55.9584ZM49.15 55.5329C48.9881 55.8204 48.6838 55.9979 48.354 55.997H45.8425C45.5274 55.997 45.2341 55.8355 45.0662 55.569L40.2077 47.9355C40.282 47.847 40.3475 47.7513 40.4037 47.6506L40.7134 47.0299L49.435 44.1227L54.4861 45.5659L49.15 55.5329ZM56.1444 46.3514L56.5385 45.6179C57.0487 45.2545 57.3723 44.6842 57.4231 44.0598C57.4231 44.0195 57.4159 43.9817 57.4176 43.9423L57.8859 43.7736L58.6333 45.463L56.1444 46.3514ZM66.3763 64.2474C63.1909 64.2511 60.3248 62.3133 59.1414 59.3557C57.9585 56.3982 58.6971 53.0181 61.0063 50.8238L61.8086 52.6354C60.9056 53.7029 60.4125 55.057 60.418 56.4553C60.4159 59.6797 62.9798 62.3208 66.203 62.4148C69.4262 62.5088 72.1391 60.0217 72.325 56.8023C72.5109 53.5833 70.1022 50.8003 66.8899 50.5225L66.0729 48.6778C66.174 48.6778 66.2756 48.6631 66.3763 48.6631C70.68 48.6631 74.1684 52.1519 74.1684 56.4553C74.1684 60.7586 70.68 64.2474 66.3763 64.2474Z"></path></mask><path d="M66.3763 46.8298C66.0112 46.8323 65.6465 46.8554 65.2836 46.8986L63.8337 43.6335C63.981 42.0569 66.9172 41.5588 68.2042 41.4186C68.8261 41.3536 69.3254 40.8777 69.4207 40.26C69.5155 39.6424 69.1819 39.0381 68.6087 38.7897C66.3335 37.9139 63.848 37.7398 61.4729 38.2899L59.264 33.2967C58.8422 32.3823 58.0705 31.6761 57.1226 31.3379L50.8311 29.1571C50.5373 29.0505 50.2268 28.9972 49.9146 29.0001C48.5714 29.001 47.4249 29.9716 47.2034 31.2963C46.9814 32.6211 47.7489 33.9119 49.0187 34.35L54.5759 36.2752L57.1482 42.0943L56.6669 42.2676C56.6211 42.2281 56.5842 42.1761 56.5347 42.1446L52.1089 38.9831C51.9695 38.3671 51.5843 37.8346 51.0426 37.5094C50.5008 37.1842 49.85 37.0948 49.2407 37.2614L43.1179 38.9307C41.7138 39.3134 40.2774 39.5672 38.8271 39.6889L30.1274 40.4132C27.6688 40.3847 25.2139 40.6071 22.8002 41.0766C22.2488 41.1971 21.8267 41.6419 21.736 42.1992C21.645 42.756 21.9039 43.3124 22.389 43.6011L25.832 45.6674C26.114 45.8273 26.4325 45.9116 26.7569 45.9133H30.2759L31.0304 46.8558C30.8949 46.8499 30.7619 46.8298 30.6255 46.8298C25.3096 46.8298 21 51.1394 21 56.4553C21 61.7711 25.3096 66.0807 30.6255 66.0807C35.9413 66.0807 40.2505 61.7711 40.2505 56.4553C40.2505 56.3315 40.235 56.2123 40.2304 56.0885L42.647 55.18L43.5203 56.5551C44.0243 57.3507 44.9009 57.8321 45.8425 57.8304H48.354C49.3506 57.8274 50.2684 57.2886 50.7568 56.4204L54.86 48.755L59.3802 47.1424L60.23 49.0677C56.6518 52.0605 55.7412 57.1913 58.0705 61.2327C60.3999 65.2742 65.2957 67.058 69.6792 65.4626C74.0626 63.8668 76.666 59.3524 75.8515 54.7595C75.0374 50.1663 71.0413 46.8218 66.3763 46.8298ZM62.6932 54.632L63.5312 56.5258C63.9752 57.5207 64.9625 58.1611 66.0519 58.1611C66.4346 58.1615 66.8127 58.0813 67.1623 57.9256C67.829 57.6302 68.3511 57.0818 68.6138 56.4011C68.8764 55.7205 68.8576 54.9635 68.5617 54.2963L67.8118 52.6051C69.7661 53.3357 70.8655 55.4116 70.3716 57.4384C69.8777 59.4653 67.9461 60.8026 65.8748 60.5521C63.804 60.3012 62.2471 58.5417 62.2513 56.4553C62.2547 55.8212 62.4057 55.1968 62.6932 54.632ZM66.028 39.9382C64.8606 40.1711 63.78 40.7221 62.9059 41.5307L62.235 40.0133C63.4871 39.7854 64.7678 39.7603 66.028 39.9382ZM55.1717 34.5464L49.6246 32.6211C49.1454 32.4553 48.8869 31.9358 49.0443 31.4533C49.2252 30.9845 49.7384 30.7365 50.218 30.8859L56.5146 33.0638C56.99 33.2342 57.3769 33.5879 57.5888 34.0457L62.0331 44.0892C62.0419 44.1169 62.0524 44.1441 62.0642 44.1706L63.8887 48.2767L66.8861 55.0407C67.0909 55.5044 66.8811 56.0465 66.4174 56.2513C65.9533 56.4561 65.4116 56.2463 65.2068 55.7826L63.7502 52.4931L62.1917 48.9749L60.7407 45.6934V45.6888L56.2489 35.5233C56.0391 35.0638 55.6497 34.71 55.1717 34.5464ZM55.5989 43.9213C55.5951 43.9398 55.5897 43.9578 55.5834 43.9755L49.6695 42.286C49.492 42.2352 49.3028 42.2394 49.1278 42.2986L41.9567 44.6884L47.3809 41.589C47.7451 41.3817 48.1358 41.2248 48.542 41.1224L51.0623 40.4929L55.4676 43.6343C55.5599 43.6972 55.6098 43.8055 55.5989 43.9167V43.9213ZM30.333 43.0531L30.6582 42.4023L39.8364 44.6939L39.2476 45.8722L38.7676 46.8298H33.3589L30.333 43.0531ZM38.9791 41.5131C40.5413 41.383 42.0885 41.1102 43.6013 40.6973L46.8333 39.8165C46.7124 39.8761 46.5869 39.9252 46.4669 39.9923L41.0281 43.1001L35.7588 41.7879L38.9791 41.5131ZM26.7515 44.0799L24.368 42.6498C25.7951 42.4358 27.234 42.3087 28.6763 42.2692C28.4035 42.858 28.464 43.5474 28.8349 44.0799H26.7515ZM38.5007 48.6631L39.6345 50.4462L38.4612 50.8847C37.8591 50.0311 37.1222 49.2808 36.2796 48.6631H38.5007ZM30.6255 64.2474C26.9974 64.2465 23.8501 61.7422 23.0348 58.2072C22.219 54.6722 23.9508 51.0424 27.2114 49.452C30.4719 47.8616 34.3984 48.732 36.682 51.551L34.8331 52.2384C32.9246 50.3333 29.9746 49.9472 27.6402 51.2972C25.3058 52.6467 24.169 55.3961 24.8686 58.0003C25.5677 60.6046 27.9289 62.4148 30.6255 62.4136C33.5096 62.4027 35.9745 60.3343 36.4869 57.4955L38.4008 56.7763C38.2288 60.9474 34.8 64.2419 30.6255 64.2474ZM29.0347 57.3562C29.4409 58.4296 30.469 59.1392 31.6162 59.1392C31.9452 59.1392 32.2713 59.0796 32.5789 58.9634L34.2922 58.3218C33.3715 60.1279 31.2738 60.9965 29.346 60.3691C27.4178 59.7418 26.2328 57.8052 26.5513 55.8031C26.8702 53.8007 28.5978 52.3278 30.6255 52.3303C31.414 52.3295 32.1861 52.5565 32.8483 52.9845L30.6402 53.8095C29.2206 54.3496 28.5038 55.9341 29.0347 57.3562ZM35.3602 55.9584L35.3409 55.9655L31.9305 57.2492C31.4555 57.4284 30.9251 57.1883 30.7459 56.7133C30.5667 56.2383 30.8063 55.7079 31.2818 55.5283L40.6366 52.0294L41.6374 53.6034L35.3602 55.9584ZM49.15 55.5329C48.9881 55.8204 48.6838 55.9979 48.354 55.997H45.8425C45.5274 55.997 45.2341 55.8355 45.0662 55.569L40.2077 47.9355C40.282 47.847 40.3475 47.7513 40.4037 47.6506L40.7134 47.0299L49.435 44.1227L54.4861 45.5659L49.15 55.5329ZM56.1444 46.3514L56.5385 45.6179C57.0487 45.2545 57.3723 44.6842 57.4231 44.0598C57.4231 44.0195 57.4159 43.9817 57.4176 43.9423L57.8859 43.7736L58.6333 45.463L56.1444 46.3514ZM66.3763 64.2474C63.1909 64.2511 60.3248 62.3133 59.1414 59.3557C57.9585 56.3982 58.6971 53.0181 61.0063 50.8238L61.8086 52.6354C60.9056 53.7029 60.4125 55.057 60.418 56.4553C60.4159 59.6797 62.9798 62.3208 66.203 62.4148C69.4262 62.5088 72.1391 60.0217 72.325 56.8023C72.5109 53.5833 70.1022 50.8003 66.8899 50.5225L66.0729 48.6778C66.174 48.6778 66.2756 48.6631 66.3763 48.6631C70.68 48.6631 74.1684 52.1519 74.1684 56.4553C74.1684 60.7586 70.68 64.2474 66.3763 64.2474Z" fill="#1F2428" stroke="#F2F6FC" stroke-width="0.6" mask="url(#path-4-inside-1)"></path><path d="M45.7505 52.4803H48.5007C48.924 52.4803 49.2676 52.8237 49.2676 53.2468C49.2676 53.6704 48.924 54.0137 48.5007 54.0137H45.7505C45.3273 54.0137 44.984 53.6705 44.984 53.2468C44.984 52.8236 45.3272 52.4803 45.7505 52.4803Z" fill="#1F2428" stroke="#F2F6FC" stroke-width="0.3"></path></svg> 