<?xml version="1.0" encoding="UTF-8"?> <svg xmlns="http://www.w3.org/2000/svg" width="72" height="72" viewBox="0 0 72 72" fill="none"><rect width="72" height="72" fill="#F2F6FC"></rect><path d="M25.5484 39.4839V45.9708C25.5484 46.3622 25.0061 46.5875 24.7273 46.3111L17.9001 39.4839H5.80645C3.88568 39.4839 2.32258 37.9208 2.32258 36V5.80645C2.32258 3.88568 3.88568 2.32258 5.80645 2.32258H29.0323C30.953 2.32258 32.5161 3.88568 32.5161 5.80645V34.8387H34.8387V5.80645C34.8387 2.60477 32.2339 0 29.0323 0H5.80645C2.60477 0 0 2.60477 0 5.80645V36C0 39.2017 2.60477 41.8064 5.80645 41.8064H16.9386L23.0853 47.9543C23.6079 48.4746 24.3302 48.7742 25.0676 48.7742C26.6133 48.7742 27.871 47.5165 27.871 45.9708V41.8064H36V39.4839H25.5484Z" fill="#1F2428"></path><path d="M26.7095 15.0969H25.5482V10.7339C25.5482 8.74462 24.7737 6.87378 23.3662 5.4663C22.8366 4.93675 22.1329 4.64526 21.3839 4.64526C19.8382 4.64526 18.5805 5.90294 18.5805 7.44862V11.3389C18.5805 13.2144 17.5388 14.8995 15.8619 15.7391C15.1814 16.0782 14.4208 16.2582 13.6613 16.2582H11.6128V13.9356H4.64502V37.1614H11.6128V34.8388H12.5L13.5219 35.3498C14.3708 35.7748 15.3231 36.0001 16.2753 36.0001H26.7095C28.6303 36.0001 30.1934 34.437 30.1934 32.5162C30.1934 31.6209 29.8439 30.8115 29.2876 30.1936C29.845 29.5758 30.1934 28.7664 30.1934 27.8711C30.1934 26.9757 29.8439 26.1663 29.2876 25.5485C29.845 24.9307 30.1934 24.1213 30.1934 23.2259C30.1934 22.3305 29.8439 21.5211 29.2876 20.9033C29.845 20.2855 30.1934 19.4761 30.1934 18.5807C30.1934 16.66 28.6303 15.0969 26.7095 15.0969ZM9.29018 34.8388H6.9676V16.2582H9.29018V34.8388ZM26.7095 33.6775H16.2753C15.6831 33.6775 15.0908 33.537 14.5613 33.2722L13.0481 32.5162H11.6128V18.5807H13.6613C14.7784 18.5807 15.8991 18.316 16.9001 17.8166C19.369 16.581 20.9031 14.0993 20.9031 11.3389V7.44862C20.9031 7.0561 21.4477 6.83197 21.7241 7.10836C22.6926 8.07688 23.2257 9.36359 23.2257 10.7339V17.4195H26.7095C27.3494 17.4195 27.8708 17.9409 27.8708 18.5807C27.8708 19.2206 27.3494 19.742 26.7095 19.742H23.2257V22.0646H26.7095C27.3494 22.0646 27.8708 22.586 27.8708 23.2259C27.8708 23.8658 27.3494 24.3872 26.7095 24.3872H23.2257V26.7098H26.7095C27.3494 26.7098 27.8708 27.2312 27.8708 27.8711C27.8708 28.5109 27.3494 29.0324 26.7095 29.0324H23.2257V31.3549H26.7095C27.3494 31.3549 27.8708 31.8764 27.8708 32.5162C27.8708 33.1561 27.3494 33.6775 26.7095 33.6775Z" fill="#1F2428"></path><path d="M47.6129 18.5806C39.2748 18.5806 32.5161 25.3393 32.5161 33.6773V34.8386C32.5161 40.4767 35.8711 45.3204 40.6869 47.5153C38.4631 44.8339 37.1613 41.4115 37.1613 37.757V33.6773L40.6451 30.1935C43.6599 32.4545 47.3272 33.6773 51.0968 33.6773H58.0645V37.757C58.0645 41.4104 56.7627 44.8339 54.5388 47.5153C59.3547 45.3204 62.7097 40.4767 62.7097 34.8386V33.6773C62.7097 25.3393 55.9509 18.5806 47.6129 18.5806Z" fill="#3693E7"></path><path d="M14.5964 65.2228L12.7743 63.8502L10.9523 65.2228L10.3159 64.9185C9.61328 64.5829 8.98851 64.1114 8.46012 63.5157L8.02464 63.0245L8.72257 60.7971L6.90283 59.4256L6.97599 58.7683C7.06541 57.9613 7.35341 57.0334 7.72619 56.3471L8.05832 55.7374L10.2822 55.7478L10.965 53.6761L11.6235 53.5402C12.3981 53.3811 13.1517 53.3811 13.9263 53.5402L14.5801 53.6749L15.2781 55.7502L17.3684 55.7339L17.7017 56.3459C18.2057 57.2738 18.4983 58.0878 18.5738 58.7683L18.647 59.4256L16.8272 60.7971L17.5252 63.0245L17.0885 63.5157C16.5601 64.1114 15.9353 64.5829 15.2328 64.9185L14.5964 65.2228Z" fill="#3693E7"></path><path d="M63.4773 56.5571L53.8072 53.1441C52.949 52.8421 52.3753 52.0594 52.2917 51.1664C56.563 48.1401 59.2258 43.193 59.2258 37.757V32.5161H51.0968C47.6024 32.5161 44.1383 31.3606 41.3419 29.2645L40.536 28.6594L36 33.1966V37.757C36 43.193 38.6628 48.1401 42.9341 51.1664C42.8504 52.0594 42.2756 52.8421 41.4174 53.1441L31.7473 56.5571C29.1821 57.4629 27.0418 59.1398 25.5472 61.2696V54.5806C25.5472 51.3789 22.9424 48.7741 19.7408 48.7741H17.4182V46.9323C17.4193 45.3866 16.1617 44.129 14.616 44.129C13.8786 44.129 13.1563 44.4286 12.6337 44.95L8.80955 48.7741H5.80645C2.60477 48.7741 0 51.3789 0 54.5806V63.8709C0 67.0726 2.60477 69.6773 5.80645 69.6773H19.7419C21.0565 69.6773 22.2561 69.2221 23.2304 68.4824C23.2304 68.523 23.2258 68.5625 23.2258 68.6032V71.9999H72V68.6032C72 63.1973 68.5753 58.3571 63.4773 56.5571ZM23.2258 63.8709C23.2258 65.7917 21.6627 67.3548 19.7419 67.3548H5.80645C3.88568 67.3548 2.32258 65.7917 2.32258 63.8709V54.5806C2.32258 52.6598 3.88568 51.0967 5.80645 51.0967H9.77109L14.2746 46.5932C14.5544 46.3122 15.0968 46.541 15.0968 46.9323V51.0967H19.7419C21.6627 51.0967 23.2258 52.6598 23.2258 54.5806V63.8709ZM53.1174 55.3633L53.7457 55.5851L52.625 61.7469L49.3513 59.1282L53.1174 55.3633ZM47.6129 57.5837L44.0872 54.058C44.5099 53.5888 44.8386 53.0384 45.043 52.4357C45.7479 52.7899 46.4806 53.1046 47.2459 53.3589L47.6129 53.482L47.9799 53.3601C48.7452 53.1046 49.4779 52.791 50.1828 52.4368C50.3872 53.0395 50.7147 53.5888 51.1386 54.0592L47.6129 57.5837ZM38.3226 37.757V34.1581L40.7741 31.7066C43.8132 33.7319 47.441 34.8386 51.0968 34.8386H56.9032V37.757C56.9032 43.7155 53.1859 49.0006 47.6129 51.0294C42.0399 48.9994 38.3226 43.7155 38.3226 37.757ZM42.1084 55.3633L45.8744 59.1294L42.6008 61.7481L41.4801 55.5863L42.1084 55.3633ZM69.6774 69.6773H62.7097V65.0322H60.3871V69.6773H34.8387V65.0322H32.5161V69.6773H25.5484V68.6032C25.5484 64.1798 28.3506 60.2198 32.5219 58.7484L39.2621 56.369L41.0121 65.9937L47.6129 60.7133L54.2137 65.9937L55.9637 56.369L62.7039 58.7484C66.8752 60.2198 69.6774 64.181 69.6774 68.6032V69.6773Z" fill="#1F2428"></path></svg> 