<?xml version="1.0" encoding="UTF-8"?> <svg xmlns="http://www.w3.org/2000/svg" width="96" height="96" viewBox="0 0 96 96" fill="none"><rect width="96" height="96" rx="6" fill="#F2F6FC"></rect><circle cx="31.5" cy="60.5" r="3.5" fill="#3693E7"></circle><circle cx="39.5" cy="60.5" r="3.5" fill="#3693E7"></circle><circle cx="58.5" cy="60.5" r="3.5" fill="#3693E7"></circle><circle cx="66.5" cy="60.5" r="3.5" fill="#3693E7"></circle><path d="M67.53 48.2012L67.5411 48.3233L67.6629 48.3368L75.1677 49.1673C75.5561 49.2103 75.85 49.5385 75.85 49.9293V60.0127C75.85 60.4361 75.5067 60.7793 75.0833 60.7793H71.325H71.2022L71.178 60.8997C70.9016 62.2705 69.9931 63.4297 68.7282 64.0257C66.5193 65.0664 63.8848 64.1193 62.844 61.9104L62.7083 61.6224L62.5726 61.9104C61.9766 63.1753 60.8174 64.0839 59.4466 64.3602C57.053 64.8427 54.7212 63.2934 54.2387 60.8997L54.2144 60.7793H54.0917H43.825H43.7022L43.678 60.8997C43.4016 62.2705 42.4931 63.4297 41.2282 64.0257C39.0193 65.0664 36.3848 64.1193 35.344 61.9104L35.2083 61.6224L35.0726 61.9104C34.4766 63.1753 33.3174 64.0839 31.9466 64.3602C29.553 64.8427 27.2212 63.2934 26.7387 60.8997L26.7144 60.7793H26.5917H21.9167C21.4933 60.7793 21.15 60.4361 21.15 60.0127V33.4293C21.15 33.0059 21.4933 32.6627 21.9167 32.6627H54.9167C55.3401 32.6627 55.6833 33.0059 55.6833 33.4293V38.0127V38.1627H55.8333H57.6667H57.8167V38.0127V32.0864V32.0061L57.7499 31.9616L55.5326 30.4837L56.3837 29.208L59.0089 30.9581C59.222 31.1003 59.35 31.3397 59.35 31.596V38.0127V38.1627H59.5L65.9167 38.1627L65.9173 38.1627C66.3149 38.161 66.6477 38.4636 66.684 38.8596L67.53 48.2012ZM65.6628 46.4127H65.827L65.8121 46.2491L65.5619 43.4991L65.5495 43.3627H65.4125H61.3333H61.1833V43.5127V46.2627V46.4127H61.3333H65.6628ZM59.5 39.696H59.35V39.846V42.596H59.5H59.65C59.65 42.1726 59.9933 41.8293 60.4167 41.8293H65.2466H65.4109L65.396 41.6657L65.2291 39.8324L65.2167 39.696H65.0798H59.5ZM55.8333 39.696H55.6833V39.846V50.846V50.996H55.8333H57.6667H57.8167V50.846V39.846V39.696H57.6667H55.8333ZM22.8333 34.196H22.6833V34.346V52.6793V52.8293H22.8333H54H54.15V52.6793V34.346V34.196H54H22.8333ZM74.1667 59.246H74.3167L74.3167 59.096L74.3176 50.7452L74.3176 50.6109L74.1841 50.5961L66.75 49.7711L66.7499 49.7711C66.3885 49.7312 66.1049 49.4431 66.0706 49.0812C66.0706 49.0812 66.0706 49.0811 66.0706 49.0811L65.979 48.0823L65.9664 47.946H65.8296H60.4167C59.9933 47.946 59.65 47.6027 59.65 47.1793H59.5H59.35V51.7627C59.35 52.1861 59.0067 52.5293 58.5833 52.5293H56.75H56.6V52.6793V54.3627H22.8333H22.6833V54.5127V59.096V59.246H22.8333H26.5917H26.7145L26.7387 59.1256C27.015 57.7549 27.9235 56.5957 29.1885 55.9996C31.3974 54.9589 34.0319 55.906 35.0726 58.1149L35.2083 58.4029L35.344 58.1149C35.94 56.85 37.0992 55.9416 38.47 55.6652C40.8637 55.1827 43.1954 56.732 43.678 59.1256L43.7022 59.246H43.825H54.0917H54.2145L54.2387 59.1256C54.515 57.7549 55.4235 56.5957 56.6885 55.9996C58.8974 54.9589 61.5319 55.906 62.5726 58.1149L62.7083 58.4029L62.844 58.1149C63.44 56.85 64.5993 55.9415 65.97 55.6652C68.3637 55.1827 70.6954 56.732 71.178 59.1256L71.2022 59.246H71.325H74.1667ZM28.1833 60.0127C28.1833 61.6143 29.4817 62.9127 31.0833 62.9127C32.685 62.9127 33.9833 61.6143 33.9833 60.0127C33.9833 58.411 32.685 57.1127 31.0833 57.1127C29.4817 57.1127 28.1833 58.411 28.1833 60.0127ZM36.4333 60.0127C36.4333 61.6143 37.7317 62.9127 39.3333 62.9127C40.935 62.9127 42.2333 61.6143 42.2333 60.0127C42.2333 58.411 40.935 57.1127 39.3333 57.1127C37.7317 57.1127 36.4333 58.411 36.4333 60.0127ZM55.6833 60.0127C55.6833 61.6143 56.9817 62.9127 58.5833 62.9127C60.185 62.9127 61.4833 61.6143 61.4833 60.0127C61.4833 58.411 60.185 57.1127 58.5833 57.1127C56.9817 57.1127 55.6833 58.411 55.6833 60.0127ZM63.9333 60.0127C63.9333 61.6143 65.2317 62.9127 66.8333 62.9127C68.435 62.9127 69.7333 61.6143 69.7333 60.0127C69.7333 58.411 68.435 57.1127 66.8333 57.1127C65.2317 57.1127 63.9333 58.411 63.9333 60.0127Z" fill="#1F2428" stroke="#F2F6FC" stroke-width="0.3"></path><path d="M66.0665 60.7793V59.2459H67.5998V60.7793H66.0665Z" fill="#1F2428" stroke="#F2F6FC" stroke-width="0.3"></path><path d="M57.8165 60.7793V59.2459H59.3498V60.7793H57.8165Z" fill="#1F2428" stroke="#F2F6FC" stroke-width="0.3"></path><path d="M38.5665 60.7793V59.2459H40.0998V60.7793H38.5665Z" fill="#1F2428" stroke="#F2F6FC" stroke-width="0.3"></path><path d="M30.3165 60.7793V59.2459H31.8498V60.7793H30.3165Z" fill="#1F2428" stroke="#F2F6FC" stroke-width="0.3"></path><path d="M46.8165 50.696V36.3293H48.3498V50.696H46.8165Z" fill="#1F2428" stroke="#F2F6FC" stroke-width="0.3"></path><path d="M50.4835 50.696V36.3293H52.0168V50.696H50.4835Z" fill="#1F2428" stroke="#F2F6FC" stroke-width="0.3"></path><path d="M43.15 50.696V36.3293H44.6833V50.696H43.15Z" fill="#1F2428" stroke="#F2F6FC" stroke-width="0.3"></path><path d="M39.4835 50.696V36.3293H41.0168V50.696H39.4835Z" fill="#1F2428" stroke="#F2F6FC" stroke-width="0.3"></path><path d="M35.8165 50.696V36.3293H37.3498V50.696H35.8165Z" fill="#1F2428" stroke="#F2F6FC" stroke-width="0.3"></path><path d="M32.15 50.696V36.3293H33.6833V50.696H32.15Z" fill="#1F2428" stroke="#F2F6FC" stroke-width="0.3"></path><path d="M28.4835 50.696V36.3293H30.0168V50.696H28.4835Z" fill="#1F2428" stroke="#F2F6FC" stroke-width="0.3"></path><path d="M24.8165 50.696V36.3293H26.3498V50.696H24.8165Z" fill="#1F2428" stroke="#F2F6FC" stroke-width="0.3"></path></svg> 