<?xml version="1.0" encoding="UTF-8"?> <svg xmlns="http://www.w3.org/2000/svg" width="72" height="72" viewBox="0 0 72 72" fill="none"><rect width="72" height="72" fill="white"></rect><path d="M71.9998 55.5643V46.63L68.9871 46.1276C68.5845 44.6749 68.005 43.28 67.2594 41.9628L69.0376 39.4746L62.7186 33.1556L60.2304 34.9338C58.9132 34.187 57.5183 33.6075 56.0655 33.206L55.5643 30.1934H46.63L46.1276 33.206C44.6749 33.6086 43.28 34.1881 41.9628 34.9338L39.4746 33.1556L33.1556 39.4746L34.9338 41.9628C34.187 43.28 33.6075 44.6749 33.206 46.1276L30.1934 46.6289V55.5631L33.206 56.0655C33.6086 57.5171 34.1881 58.912 34.9338 60.2304L33.1556 62.7186L39.4746 69.0376L41.9628 67.2594C43.28 68.0062 44.6749 68.5857 46.1276 68.9871L46.6289 71.9998H55.5631L56.0655 68.9871C57.5183 68.5845 58.9132 68.005 60.2304 67.2594L62.7186 69.0376L69.0376 62.7186L67.2594 60.2304C68.0062 58.912 68.5857 57.5171 68.9871 56.0655L71.9998 55.5643ZM51.0966 59.2256C46.6068 59.2256 42.9676 55.5864 42.9676 51.0966C42.9676 46.6068 46.6068 42.9676 51.0966 42.9676C55.5864 42.9676 59.2256 46.6068 59.2256 51.0966C59.2256 55.5864 55.5864 59.2256 51.0966 59.2256Z" fill="#3693E7"></path><path d="M24.3871 17.231V11.6128H22.0645V17.6075L24.3871 24.5752V44.1289C24.3871 44.7685 23.8654 45.2902 23.2258 45.2902C22.5862 45.2902 22.0645 44.7685 22.0645 44.1289V30.1934H19.7419V46.4515C19.7419 47.0911 19.2203 47.6128 18.5806 47.6128C17.941 47.6128 17.4194 47.0911 17.4194 46.4515V30.1934H15.0968V48.7741C15.0968 49.4137 14.5751 49.9354 13.9355 49.9354C13.2959 49.9354 12.7742 49.4137 12.7742 48.7741V30.1934H10.4516V46.4515C10.4516 47.0911 9.92994 47.6128 9.29032 47.6128C8.65071 47.6128 8.12903 47.0911 8.12903 46.4515V29.513L9.30053 28.3409C10.7918 26.8502 11.6129 24.8678 11.6129 22.7602V19.7418H9.29032V22.7602C9.29032 24.2475 8.71081 25.6469 7.65896 26.6994L5.80645 28.5513V37.1612C5.80645 39.0817 4.24313 40.6451 2.32258 40.6451V23.5472L5.80645 17.7408V11.6128H3.48387V17.0977L0 22.9042V40.6451C0 41.926 1.04165 42.9676 2.32258 42.9676C3.6347 42.9676 4.83342 42.5134 5.80645 41.7763V46.4515C5.80645 48.3721 7.36977 49.9354 9.29032 49.9354C9.74905 49.9354 10.1845 49.8412 10.5866 49.6796C10.9869 51.1607 12.3296 52.258 13.9355 52.258C15.5413 52.258 16.8841 51.1607 17.2844 49.6796C17.6864 49.8412 18.1219 49.9354 18.5806 49.9354C20.1865 49.9354 21.5292 48.8382 21.9296 47.3571C22.3316 47.5187 22.7671 47.6128 23.2258 47.6128C25.1464 47.6128 26.7097 46.0495 26.7097 44.1289V24.1987L24.3871 17.231Z" fill="#1F2428"></path><path d="M26.7095 11.6129H1.16113V0H26.7095V11.6129Z" fill="#3693E7"></path><path d="M51.0966 65.0321C43.4121 65.0321 37.1611 58.7811 37.1611 51.0966C37.1611 43.4121 43.4121 37.1611 51.0966 37.1611C58.7811 37.1611 65.0321 43.4121 65.0321 51.0966C65.0321 58.7811 58.7811 65.0321 51.0966 65.0321ZM51.0966 39.4837C44.6931 39.4837 39.4837 44.6931 39.4837 51.0966C39.4837 57.5002 44.6931 62.7095 51.0966 62.7095C57.5002 62.7095 62.7095 57.5002 62.7095 51.0966C62.7095 44.6931 57.5002 39.4837 51.0966 39.4837Z" fill="#1F2428"></path><path d="M51.097 60.387C45.9744 60.387 41.8066 56.2193 41.8066 51.0967C41.8066 49.0831 42.4491 47.1609 43.6637 45.5386L45.523 46.9312C44.6112 48.1481 44.1292 49.5895 44.1292 51.0967C44.1292 54.9395 47.2542 58.0644 51.097 58.0644C52.6041 58.0644 54.0456 57.5824 55.2624 56.6706L56.6551 58.5299C55.0328 59.7445 53.1105 60.387 51.097 60.387Z" fill="#1F2428"></path><path d="M58.5304 56.6551L56.6711 55.2624C57.5829 54.0456 58.0649 52.6041 58.0649 51.097C58.0649 47.2542 54.94 44.1292 51.0972 44.1292C49.59 44.1292 48.1486 44.6112 46.9317 45.523L45.5391 43.6637C47.1614 42.4491 49.0836 41.8066 51.0972 41.8066C56.2198 41.8066 60.3875 45.9744 60.3875 51.097C60.3875 53.1105 59.745 55.0328 58.5304 56.6551Z" fill="#1F2428"></path><path d="M51.0966 28.3518L47.1319 24.3871H30.1934V3.48389H43.0305V5.80647H32.5159V22.0645H48.0936L51.0966 25.0676L54.0996 22.0645H69.6772V5.80647H59.1627V3.48389H71.9998V24.3871H55.0613L51.0966 28.3518Z" fill="#1F2428"></path><path d="M51.097 16.7389L43.349 8.99093C42.355 7.99691 41.8066 6.67402 41.8066 5.26663C41.8066 2.36227 44.1689 0 47.0733 0C48.4807 0 49.8036 0.548324 50.7976 1.54234L51.097 1.84173L51.3964 1.54234C52.3904 0.548324 53.7133 0 55.1207 0C58.025 0 60.3873 2.36227 60.3873 5.26663C60.3873 6.67402 59.839 7.99691 58.8449 8.99093L51.097 16.7389Z" fill="#3693E7"></path><path d="M34.8389 17.4194H37.1614V19.742H34.8389V17.4194Z" fill="#1F2428"></path><path d="M39.4834 17.4194H41.806V19.742H39.4834V17.4194Z" fill="#1F2428"></path><path d="M44.1289 17.4194H46.4515V19.742H44.1289V17.4194Z" fill="#1F2428"></path><path d="M55.7422 17.4194H58.0648V19.742H55.7422V17.4194Z" fill="#1F2428"></path><path d="M60.3867 17.4194H62.7093V19.742H60.3867V17.4194Z" fill="#1F2428"></path><path d="M65.0322 17.4194H67.3548V19.742H65.0322V17.4194Z" fill="#1F2428"></path><path d="M3.4834 69.6772H5.80598V71.9998H3.4834V69.6772Z" fill="#1F2428"></path><path d="M3.4834 58.0645H5.80598V67.3548H3.4834V58.0645Z" fill="#1F2428"></path><path d="M12.7744 69.6772H15.097V71.9998H12.7744V69.6772Z" fill="#1F2428"></path><path d="M12.7744 58.0645H15.097V67.3548H12.7744V58.0645Z" fill="#1F2428"></path><path d="M8.12891 54.5806H10.4515V70.8386H8.12891V54.5806Z" fill="#1F2428"></path><path d="M22.0645 69.6772H24.387V71.9998H22.0645V69.6772Z" fill="#1F2428"></path><path d="M22.0645 58.0645H24.387V67.3548H22.0645V58.0645Z" fill="#1F2428"></path><path d="M17.4189 54.5806H19.7415V70.8386H17.4189V54.5806Z" fill="#1F2428"></path></svg> 