<?xml version="1.0" encoding="UTF-8"?> <svg xmlns="http://www.w3.org/2000/svg" width="96" height="96" viewBox="0 0 96 96" fill="none"><rect width="96" height="96" rx="6" fill="#F2F6FC"></rect><circle cx="28.2558" cy="60.7661" r="3.77829" fill="#3693E7"></circle><circle cx="54.7032" cy="59.1468" r="5.39755" fill="#3693E7"></circle><path d="M60.1006 36.4771H67.6572L66.0379 45.6529H60.1006V36.4771Z" fill="#3693E7"></path><mask id="path-5-inside-1" fill="white"><path d="M77.0252 63.6387L68.1012 56.9457C67.4108 56.4279 66.5022 56.346 65.7304 56.7319C65.6531 56.7705 65.5796 56.814 65.5084 56.8602L58.7815 51.8151V50.331H63.7735C65.113 50.331 66.245 49.372 66.4652 48.0507L68.8739 33.5986H69.0667C69.5471 33.5986 69.9365 33.2092 69.9365 32.7288C69.9365 32.2485 69.5471 31.8591 69.0667 31.8591H58.8413C58.1301 31.8591 57.4661 32.0638 56.9039 32.4163C56.7483 31.0584 55.5925 30 54.1935 30H24.1282C22.9028 30 21.7506 30.4772 20.8839 31.3438L18.2547 33.973C17.9151 34.3127 17.9151 34.8634 18.2547 35.2029L21.0434 37.9916C21.2132 38.1614 21.4358 38.2464 21.6584 38.2464C21.8809 38.2464 22.1036 38.1615 22.2733 37.9916L24.8073 35.4576H36.5915V37.4364H29.095C28.1028 37.4364 27.2957 38.2435 27.2957 39.2356V48.5912H27.2358C26.2437 48.5912 25.4366 49.3983 25.4366 50.3905V56.9301C24.3094 57.7669 23.5774 59.1073 23.5774 60.6157C23.5774 63.1456 25.6357 65.2038 28.1654 65.2038C30.3978 65.2038 32.262 63.6008 32.6696 61.4855H48.3541C49.3837 63.6798 51.6135 65.2038 54.1934 65.2038C57.29 65.2038 59.8829 63.0091 60.5003 60.0937L64.4787 62.0828V62.9396C64.4787 64.1881 65.4943 65.2037 66.7427 65.2037H76.5033C76.8777 65.2037 77.21 64.9641 77.3284 64.6091C77.4468 64.2543 77.3247 63.8633 77.0252 63.6387ZM65.2314 44.8732H60.7006C60.6675 44.8732 60.6407 44.8464 60.6407 44.8134V37.3169H66.4908L65.2314 44.8732ZM56.9224 35.5176C56.9224 34.4595 57.7832 33.5986 58.8413 33.5986H67.1104L66.7806 35.5775H59.771C59.2907 35.5775 58.9013 35.9669 58.9013 36.4472V44.8134C58.9013 45.8055 59.7084 46.6126 60.7006 46.6126H64.9415L64.7494 47.7647C64.6696 48.2438 64.2591 48.5914 63.7735 48.5914H56.9224V35.5176ZM24.4472 33.7184C24.2165 33.7184 23.9953 33.81 23.8322 33.9731L21.6585 36.1469L20.0997 34.5881L22.114 32.5738C22.6521 32.0357 23.3674 31.7394 24.1283 31.7394H36.5916V33.7184H24.4472ZM28.1654 63.4647C26.5947 63.4647 25.3169 62.1868 25.3169 60.6161C25.3169 59.0454 26.5948 57.7676 28.1654 57.7676C29.736 57.7676 31.0139 59.0455 31.0139 60.6161C31.0139 62.1867 29.7361 63.4647 28.1654 63.4647ZM47.8224 59.7464H32.6698C32.262 57.6312 30.3979 56.0281 28.1655 56.0281C27.8258 56.0281 27.495 56.0664 27.1761 56.1368V50.3908C27.1761 50.3578 27.2029 50.331 27.236 50.331H30.0246C30.505 50.331 30.8944 49.9416 30.8944 49.4613C30.8944 48.9809 30.505 48.5915 30.0246 48.5915H29.0352V39.236C29.0352 39.2029 29.062 39.1762 29.0951 39.1762H50.4754C50.9557 39.1762 51.3451 38.7868 51.3451 38.3064C51.3451 37.8261 50.9557 37.4367 50.4754 37.4367H38.331V31.7394H54.1935C54.7392 31.7394 55.1829 32.1834 55.1829 32.7288V35.5176V37.4366H54.1931C53.7128 37.4366 53.3234 37.826 53.3234 38.3063C53.3234 38.7866 53.7128 39.176 54.1931 39.176H55.1829V48.5914H33.7431C33.2628 48.5914 32.8734 48.9808 32.8734 49.4611C32.8734 49.9415 33.2628 50.3309 33.7431 50.3309H57.0421V52.9752C56.1824 52.5499 55.2156 52.3098 54.1935 52.3098C50.6386 52.3098 47.7463 55.2019 47.7463 58.757C47.7463 59.0934 47.7724 59.4238 47.8224 59.7464ZM54.1935 63.4647C51.5977 63.4647 49.4858 61.3528 49.4858 58.757C49.4858 56.1611 51.5976 54.0492 54.1935 54.0492C56.7895 54.0492 58.9013 56.161 58.9013 58.757C58.9013 61.3529 56.7894 63.4647 54.1935 63.4647ZM64.4788 58.757V60.1384L60.6156 58.207C60.4845 56.6645 59.8092 55.2753 58.7815 54.2331V53.9894L64.5255 58.2973C64.495 58.4464 64.4788 58.6002 64.4788 58.757ZM66.7428 63.4647C66.4535 63.4647 66.2182 63.2293 66.2182 62.9401V58.757C66.2182 58.4644 66.421 58.3314 66.5082 58.2878C66.555 58.2644 66.6421 58.2299 66.749 58.2299C66.8415 58.2299 66.949 58.2558 67.0577 58.3373L73.8942 63.4647H66.7428Z"></path></mask><path d="M77.0252 63.6387L68.1012 56.9457C67.4108 56.4279 66.5022 56.346 65.7304 56.7319C65.6531 56.7705 65.5796 56.814 65.5084 56.8602L58.7815 51.8151V50.331H63.7735C65.113 50.331 66.245 49.372 66.4652 48.0507L68.8739 33.5986H69.0667C69.5471 33.5986 69.9365 33.2092 69.9365 32.7288C69.9365 32.2485 69.5471 31.8591 69.0667 31.8591H58.8413C58.1301 31.8591 57.4661 32.0638 56.9039 32.4163C56.7483 31.0584 55.5925 30 54.1935 30H24.1282C22.9028 30 21.7506 30.4772 20.8839 31.3438L18.2547 33.973C17.9151 34.3127 17.9151 34.8634 18.2547 35.2029L21.0434 37.9916C21.2132 38.1614 21.4358 38.2464 21.6584 38.2464C21.8809 38.2464 22.1036 38.1615 22.2733 37.9916L24.8073 35.4576H36.5915V37.4364H29.095C28.1028 37.4364 27.2957 38.2435 27.2957 39.2356V48.5912H27.2358C26.2437 48.5912 25.4366 49.3983 25.4366 50.3905V56.9301C24.3094 57.7669 23.5774 59.1073 23.5774 60.6157C23.5774 63.1456 25.6357 65.2038 28.1654 65.2038C30.3978 65.2038 32.262 63.6008 32.6696 61.4855H48.3541C49.3837 63.6798 51.6135 65.2038 54.1934 65.2038C57.29 65.2038 59.8829 63.0091 60.5003 60.0937L64.4787 62.0828V62.9396C64.4787 64.1881 65.4943 65.2037 66.7427 65.2037H76.5033C76.8777 65.2037 77.21 64.9641 77.3284 64.6091C77.4468 64.2543 77.3247 63.8633 77.0252 63.6387ZM65.2314 44.8732H60.7006C60.6675 44.8732 60.6407 44.8464 60.6407 44.8134V37.3169H66.4908L65.2314 44.8732ZM56.9224 35.5176C56.9224 34.4595 57.7832 33.5986 58.8413 33.5986H67.1104L66.7806 35.5775H59.771C59.2907 35.5775 58.9013 35.9669 58.9013 36.4472V44.8134C58.9013 45.8055 59.7084 46.6126 60.7006 46.6126H64.9415L64.7494 47.7647C64.6696 48.2438 64.2591 48.5914 63.7735 48.5914H56.9224V35.5176ZM24.4472 33.7184C24.2165 33.7184 23.9953 33.81 23.8322 33.9731L21.6585 36.1469L20.0997 34.5881L22.114 32.5738C22.6521 32.0357 23.3674 31.7394 24.1283 31.7394H36.5916V33.7184H24.4472ZM28.1654 63.4647C26.5947 63.4647 25.3169 62.1868 25.3169 60.6161C25.3169 59.0454 26.5948 57.7676 28.1654 57.7676C29.736 57.7676 31.0139 59.0455 31.0139 60.6161C31.0139 62.1867 29.7361 63.4647 28.1654 63.4647ZM47.8224 59.7464H32.6698C32.262 57.6312 30.3979 56.0281 28.1655 56.0281C27.8258 56.0281 27.495 56.0664 27.1761 56.1368V50.3908C27.1761 50.3578 27.2029 50.331 27.236 50.331H30.0246C30.505 50.331 30.8944 49.9416 30.8944 49.4613C30.8944 48.9809 30.505 48.5915 30.0246 48.5915H29.0352V39.236C29.0352 39.2029 29.062 39.1762 29.0951 39.1762H50.4754C50.9557 39.1762 51.3451 38.7868 51.3451 38.3064C51.3451 37.8261 50.9557 37.4367 50.4754 37.4367H38.331V31.7394H54.1935C54.7392 31.7394 55.1829 32.1834 55.1829 32.7288V35.5176V37.4366H54.1931C53.7128 37.4366 53.3234 37.826 53.3234 38.3063C53.3234 38.7866 53.7128 39.176 54.1931 39.176H55.1829V48.5914H33.7431C33.2628 48.5914 32.8734 48.9808 32.8734 49.4611C32.8734 49.9415 33.2628 50.3309 33.7431 50.3309H57.0421V52.9752C56.1824 52.5499 55.2156 52.3098 54.1935 52.3098C50.6386 52.3098 47.7463 55.2019 47.7463 58.757C47.7463 59.0934 47.7724 59.4238 47.8224 59.7464ZM54.1935 63.4647C51.5977 63.4647 49.4858 61.3528 49.4858 58.757C49.4858 56.1611 51.5976 54.0492 54.1935 54.0492C56.7895 54.0492 58.9013 56.161 58.9013 58.757C58.9013 61.3529 56.7894 63.4647 54.1935 63.4647ZM64.4788 58.757V60.1384L60.6156 58.207C60.4845 56.6645 59.8092 55.2753 58.7815 54.2331V53.9894L64.5255 58.2973C64.495 58.4464 64.4788 58.6002 64.4788 58.757ZM66.7428 63.4647C66.4535 63.4647 66.2182 63.2293 66.2182 62.9401V58.757C66.2182 58.4644 66.421 58.3314 66.5082 58.2878C66.555 58.2644 66.6421 58.2299 66.749 58.2299C66.8415 58.2299 66.949 58.2558 67.0577 58.3373L73.8942 63.4647H66.7428Z" fill="#1F2428" stroke="#F2F6FC" stroke-width="0.5" mask="url(#path-5-inside-1)"></path><path d="M53.637 57.7912L53.637 57.7912C53.293 57.9902 53.0793 58.36 53.0793 58.757C53.0793 59.3715 53.5792 59.8714 54.1937 59.8714C54.8082 59.8714 55.3081 59.3716 55.3081 58.757C55.3081 58.3457 55.6415 58.0122 56.0528 58.0122C56.4641 58.0122 56.7975 58.3457 56.7975 58.7569C56.7975 60.1924 55.6293 61.3607 54.1937 61.3607C52.7581 61.3607 51.5898 60.1925 51.5898 58.7569C51.5898 57.8304 52.0886 56.9661 52.8912 56.5018L52.8912 56.5018C53.2471 56.2959 53.7028 56.4175 53.9088 56.7736C54.1147 57.1297 53.993 57.5853 53.637 57.7912Z" fill="#1F2428" stroke="#F2F6FC" stroke-width="0.25"></path><path d="M28.1649 59.8713H28.1742C28.5854 59.8713 28.9189 60.2048 28.9189 60.6161C28.9189 61.0273 28.5854 61.3608 28.1742 61.3608C27.762 61.3608 27.4248 61.0265 27.4248 60.6161C27.4248 60.2039 27.7545 59.8713 28.1649 59.8713Z" fill="#1F2428" stroke="#F2F6FC" stroke-width="0.25"></path><path d="M33.7428 56.1531H44.8976C45.3089 56.1531 45.6423 56.4865 45.6423 56.8978C45.6423 57.3091 45.3089 57.6425 44.8976 57.6425H33.7428C33.3315 57.6425 32.998 57.3091 32.998 56.8978C32.998 56.4865 33.3315 56.1531 33.7428 56.1531Z" fill="#1F2428" stroke="#F2F6FC" stroke-width="0.25"></path><path d="M31.8834 44.9982H37.4609C37.8722 44.9982 38.2056 45.3316 38.2056 45.7429C38.2056 46.1542 37.8722 46.4876 37.4609 46.4876H31.8834C31.4721 46.4876 31.1387 46.1542 31.1387 45.7429C31.1387 45.3316 31.4721 44.9982 31.8834 44.9982Z" fill="#1F2428" stroke="#F2F6FC" stroke-width="0.25"></path><path d="M31.8834 41.28H37.4609C37.8722 41.28 38.2056 41.6135 38.2056 42.0248C38.2056 42.436 37.8722 42.7695 37.4609 42.7695H31.8834C31.4721 42.7695 31.1387 42.436 31.1387 42.0248C31.1387 41.6135 31.4721 41.28 31.8834 41.28Z" fill="#1F2428" stroke="#F2F6FC" stroke-width="0.25"></path></svg> 