<?xml version="1.0" encoding="UTF-8"?> <svg xmlns="http://www.w3.org/2000/svg" width="120" height="120" viewBox="0 0 120 120" fill="none"><rect width="120" height="120" rx="6" fill="#F2F6FC"></rect><path d="M47.5653 48.5354L49.2076 46.8931L36.434 34.1194L34.7917 35.7617L47.5653 48.5354Z" fill="#3693E7"></path><path d="M63.4838 50.0321H54.1935C53.5525 50.0321 53.0322 50.5524 53.0322 51.1934V58.1611H64.6451V51.1934C64.6451 50.5524 64.1249 50.0321 63.4838 50.0321Z" fill="#3693E7"></path><path d="M73.9356 90.6774C76.501 90.6774 78.5807 88.5977 78.5807 86.0322C78.5807 83.4668 76.501 81.3871 73.9356 81.3871C71.3701 81.3871 69.2904 83.4668 69.2904 86.0322C69.2904 88.5977 71.3701 90.6774 73.9356 90.6774Z" fill="#3693E7"></path><path d="M62.3225 90.6774C64.888 90.6774 66.9677 88.5977 66.9677 86.0322C66.9677 83.4668 64.888 81.3871 62.3225 81.3871C59.7571 81.3871 57.6774 83.4668 57.6774 86.0322C57.6774 88.5977 59.7571 90.6774 62.3225 90.6774Z" fill="#3693E7"></path><path d="M46.0646 90.6774C48.63 90.6774 50.7098 88.5977 50.7098 86.0322C50.7098 83.4668 48.63 81.3871 46.0646 81.3871C43.4991 81.3871 41.4194 83.4668 41.4194 86.0322C41.4194 88.5977 43.4991 90.6774 46.0646 90.6774Z" fill="#3693E7"></path><mask id="path-7-inside-1" fill="white"><path d="M88.9684 86.1995L87.7966 68.6129H83.2258H82.0645H78.2578C77.8548 67.9219 77.1139 67.4516 76.2581 67.4516V61.6452C76.2581 60.3643 75.2164 59.3226 73.9355 59.3226H72.6093L70.5898 46.1954C70.4144 45.0538 69.4483 44.2258 68.2939 44.2258H68.129V38.4194H70.4516V34.9355C70.4516 33.0147 68.8885 31.4516 66.9677 31.4516C65.047 31.4516 63.4839 33.0147 63.4839 34.9355V38.4194H65.8064V44.2258H53.513L41.2858 31.9986C42.0975 30.8594 42.5806 29.4705 42.5806 27.9677C42.5806 24.125 39.4556 21 35.6129 21C33.0244 21 30.6821 22.4435 29.4778 24.7022C27.0008 25.3641 25.1613 27.6066 25.1613 30.2903C25.1613 31.8546 25.2182 33.4432 25.3308 35.0121L27.3979 63.9677H24V70.9355H25.8732L24 76.5538V84.0186L29.1329 93H33.7711L39.0968 87.6743V86.0323V83.7097H34.4516V70.9355H37.9355V63.9677H34.5375L35.8928 44.9865L45.9286 55.0223L44.0636 67.4516H43.7419C42.461 67.4516 41.4194 68.4933 41.4194 69.7742V74.4194C41.4194 75.7003 42.461 76.7419 43.7419 76.7419H44.9032V79.169C41.6133 79.7241 39.0968 82.5855 39.0968 86.0323C39.0968 89.875 42.2218 93 46.0645 93H73.9355C77.7782 93 80.9032 89.875 80.9032 86.0323C80.9032 82.5867 78.3867 79.7253 75.0968 79.169V76.7419H76.2581C77.1139 76.7419 77.8548 76.2716 78.2578 75.5806H82.0645V90.6774C82.0645 91.9583 83.1062 93 84.3871 93H96V87.3712L88.9684 86.1995ZM65.8064 34.9355C65.8064 34.2956 66.3267 33.7742 66.9677 33.7742C67.6088 33.7742 68.129 34.2956 68.129 34.9355V36.0968H65.8064V34.9355ZM85.6227 70.9355L86.676 86.7453L84.3871 89.0354V70.9355H85.6227ZM35.6129 23.3226C38.1747 23.3226 40.2581 25.4059 40.2581 27.9677C40.2581 30.1405 38.753 31.9545 36.7347 32.4596C36.7591 31.735 36.7742 31.0092 36.7742 30.2903C36.7742 27.5694 34.8859 25.2968 32.3566 24.6708C33.2102 23.8277 34.368 23.3226 35.6129 23.3226ZM36.7742 86.0323V86.7128L34.4516 89.0354V86.0323H36.7742ZM32.129 90.6774H30.48L26.3226 83.4008V76.9301L28.32 70.9355H32.129V90.6774ZM35.6129 68.6129H26.3226V66.2903H35.6129V68.6129ZM29.7263 63.9677L27.6465 34.8472C27.5385 33.3329 27.4839 31.7988 27.4839 30.2903C27.4839 28.3695 29.047 26.8065 30.9677 26.8065C32.8885 26.8065 34.4516 28.3695 34.4516 30.2903C34.4516 31.7988 34.397 33.3329 34.289 34.8472L32.2092 63.9677H29.7263ZM36.1123 41.9218L36.6058 35.0133C36.6093 34.961 36.6105 34.9076 36.6139 34.8554C37.7311 34.6939 38.7635 34.2689 39.6437 33.6406L50.2289 44.2258H49.5484C48.3917 44.2258 47.4255 45.0573 47.2502 46.2035L46.356 52.1655L36.1123 41.9218ZM49.5484 46.5484H68.2951L70.6165 61.6452H73.9355V67.4516H65.8064V51.1935C65.8064 49.9126 64.7648 48.871 63.4839 48.871H54.1935C52.9126 48.871 51.871 49.9126 51.871 51.1935V57.6805L49.5484 60.0031V67.4516H46.4129L49.5484 46.5484ZM53.513 59.3226H58.8387V57H54.1935V51.1935H63.4839V57H61.1613V59.3226H63.4839V67.4516H51.871V60.9646L53.513 59.3226ZM78.5806 86.0323C78.5806 88.5941 76.4973 90.6774 73.9355 90.6774H46.0645C43.5027 90.6774 41.4194 88.5941 41.4194 86.0323C41.4194 83.4705 43.5027 81.3871 46.0645 81.3871H73.9355C76.4973 81.3871 78.5806 83.4705 78.5806 86.0323ZM72.7742 79.0645H47.2258V76.7419H72.7742V79.0645ZM43.7419 74.4194V69.7742H76.2581L76.2592 74.4194H43.7419ZM78.5806 73.2581V70.9355H82.0645V73.2581H78.5806ZM93.6774 90.6774H86.0292L88.2693 88.4373L93.6774 89.3384V90.6774Z"></path></mask><path d="M88.9684 86.1995L87.7966 68.6129H83.2258H82.0645H78.2578C77.8548 67.9219 77.1139 67.4516 76.2581 67.4516V61.6452C76.2581 60.3643 75.2164 59.3226 73.9355 59.3226H72.6093L70.5898 46.1954C70.4144 45.0538 69.4483 44.2258 68.2939 44.2258H68.129V38.4194H70.4516V34.9355C70.4516 33.0147 68.8885 31.4516 66.9677 31.4516C65.047 31.4516 63.4839 33.0147 63.4839 34.9355V38.4194H65.8064V44.2258H53.513L41.2858 31.9986C42.0975 30.8594 42.5806 29.4705 42.5806 27.9677C42.5806 24.125 39.4556 21 35.6129 21C33.0244 21 30.6821 22.4435 29.4778 24.7022C27.0008 25.3641 25.1613 27.6066 25.1613 30.2903C25.1613 31.8546 25.2182 33.4432 25.3308 35.0121L27.3979 63.9677H24V70.9355H25.8732L24 76.5538V84.0186L29.1329 93H33.7711L39.0968 87.6743V86.0323V83.7097H34.4516V70.9355H37.9355V63.9677H34.5375L35.8928 44.9865L45.9286 55.0223L44.0636 67.4516H43.7419C42.461 67.4516 41.4194 68.4933 41.4194 69.7742V74.4194C41.4194 75.7003 42.461 76.7419 43.7419 76.7419H44.9032V79.169C41.6133 79.7241 39.0968 82.5855 39.0968 86.0323C39.0968 89.875 42.2218 93 46.0645 93H73.9355C77.7782 93 80.9032 89.875 80.9032 86.0323C80.9032 82.5867 78.3867 79.7253 75.0968 79.169V76.7419H76.2581C77.1139 76.7419 77.8548 76.2716 78.2578 75.5806H82.0645V90.6774C82.0645 91.9583 83.1062 93 84.3871 93H96V87.3712L88.9684 86.1995ZM65.8064 34.9355C65.8064 34.2956 66.3267 33.7742 66.9677 33.7742C67.6088 33.7742 68.129 34.2956 68.129 34.9355V36.0968H65.8064V34.9355ZM85.6227 70.9355L86.676 86.7453L84.3871 89.0354V70.9355H85.6227ZM35.6129 23.3226C38.1747 23.3226 40.2581 25.4059 40.2581 27.9677C40.2581 30.1405 38.753 31.9545 36.7347 32.4596C36.7591 31.735 36.7742 31.0092 36.7742 30.2903C36.7742 27.5694 34.8859 25.2968 32.3566 24.6708C33.2102 23.8277 34.368 23.3226 35.6129 23.3226ZM36.7742 86.0323V86.7128L34.4516 89.0354V86.0323H36.7742ZM32.129 90.6774H30.48L26.3226 83.4008V76.9301L28.32 70.9355H32.129V90.6774ZM35.6129 68.6129H26.3226V66.2903H35.6129V68.6129ZM29.7263 63.9677L27.6465 34.8472C27.5385 33.3329 27.4839 31.7988 27.4839 30.2903C27.4839 28.3695 29.047 26.8065 30.9677 26.8065C32.8885 26.8065 34.4516 28.3695 34.4516 30.2903C34.4516 31.7988 34.397 33.3329 34.289 34.8472L32.2092 63.9677H29.7263ZM36.1123 41.9218L36.6058 35.0133C36.6093 34.961 36.6105 34.9076 36.6139 34.8554C37.7311 34.6939 38.7635 34.2689 39.6437 33.6406L50.2289 44.2258H49.5484C48.3917 44.2258 47.4255 45.0573 47.2502 46.2035L46.356 52.1655L36.1123 41.9218ZM49.5484 46.5484H68.2951L70.6165 61.6452H73.9355V67.4516H65.8064V51.1935C65.8064 49.9126 64.7648 48.871 63.4839 48.871H54.1935C52.9126 48.871 51.871 49.9126 51.871 51.1935V57.6805L49.5484 60.0031V67.4516H46.4129L49.5484 46.5484ZM53.513 59.3226H58.8387V57H54.1935V51.1935H63.4839V57H61.1613V59.3226H63.4839V67.4516H51.871V60.9646L53.513 59.3226ZM78.5806 86.0323C78.5806 88.5941 76.4973 90.6774 73.9355 90.6774H46.0645C43.5027 90.6774 41.4194 88.5941 41.4194 86.0323C41.4194 83.4705 43.5027 81.3871 46.0645 81.3871H73.9355C76.4973 81.3871 78.5806 83.4705 78.5806 86.0323ZM72.7742 79.0645H47.2258V76.7419H72.7742V79.0645ZM43.7419 74.4194V69.7742H76.2581L76.2592 74.4194H43.7419ZM78.5806 73.2581V70.9355H82.0645V73.2581H78.5806ZM93.6774 90.6774H86.0292L88.2693 88.4373L93.6774 89.3384V90.6774Z" fill="#1F2428" stroke="#F2F6FC" stroke-width="0.6" mask="url(#path-7-inside-1)"></path></svg> 