<?xml version="1.0" encoding="UTF-8"?> <svg xmlns="http://www.w3.org/2000/svg" width="96" height="96" viewBox="0 0 96 96" fill="none"><rect width="96" height="96" rx="6" fill="#F2F6FC"></rect><circle cx="32" cy="62" r="5" fill="#3693E7"></circle><circle cx="49.5" cy="53.5" r="4.5" fill="#3693E7"></circle><path d="M26.4613 62.0336C26.4613 58.9762 28.9489 56.4885 32.0064 56.4885C35.0643 56.4885 37.5519 58.9762 37.5519 62.0336C37.5519 65.0911 35.0643 67.5791 32.0064 67.5791C28.9489 67.5791 26.4613 65.0911 26.4613 62.0336ZM27.8743 62.0336C27.8743 64.3124 29.7281 66.1661 32.0064 66.1661C34.2852 66.1661 36.1389 64.3124 36.1389 62.0336C36.1389 59.7548 34.2852 57.9016 32.0064 57.9016C29.7281 57.9016 27.8743 59.7549 27.8743 62.0336Z" fill="#1F2428" stroke="#F2F6FC" stroke-width="0.2"></path><path d="M29.6874 62.0336C29.6874 60.7549 30.7278 59.7141 32.0065 59.7141C33.2856 59.7141 34.326 60.7549 34.326 62.0336C34.326 63.3124 33.2856 64.3531 32.0065 64.3531C30.7278 64.3531 29.6874 63.3124 29.6874 62.0336ZM31.1004 62.0336C31.1004 62.5336 31.5068 62.9401 32.0065 62.9401C32.5065 62.9401 32.913 62.5337 32.913 62.0336C32.913 61.5336 32.5065 61.1271 32.0065 61.1271C31.5068 61.1271 31.1004 61.5336 31.1004 62.0336Z" fill="#1F2428" stroke="#F2F6FC" stroke-width="0.2"></path><path d="M21.1 60.7897H24.5561V62.2027H21.1V60.7897Z" fill="#1F2428" stroke="#F2F6FC" stroke-width="0.2"></path><mask id="path-7-inside-1" fill="white"><path d="M73.9844 55.5881L72.6487 54.8168L74.55 47.223L60.5252 39.1261L53.9679 44.0314L49.8653 41.6631C48.9329 41.1243 47.8461 40.9813 46.8055 41.2603C45.7653 41.5389 44.8958 42.2061 44.357 43.1389L42.4411 46.4577L33.0849 33.2029L33.2989 32.4031C33.2993 32.4022 33.2993 32.4014 33.2998 32.401C33.5415 31.4992 33.4177 30.5572 32.9506 29.749C32.484 28.9404 31.7304 28.3622 30.8286 28.1209C29.9269 27.8788 28.9853 28.003 28.1771 28.4696C27.3685 28.9366 26.7903 29.6903 26.5486 30.5916C26.5469 30.5987 26.5452 30.6054 26.5435 30.6122L22.1846 46.8798C21.4851 47.6053 21.0537 48.5906 21.0537 49.6757V54.7757H41.0542V57.4637H39.3577V59.0767H42.452V60.6897H39.3577V62.3027H44.065V57.4637H42.6672V53.1627H29.1183V49.6757C29.1183 49.2947 29.0642 48.9267 28.9651 48.5771L32.5415 35.23L41.5532 47.996L40.7282 49.4248L44.6021 51.6613C43.7209 53.9633 44.6176 56.6371 46.8189 57.9081C47.6216 58.3714 48.4982 58.5912 49.3643 58.5912C50.8741 58.5912 52.3486 57.9199 53.3355 56.7038L60.3398 60.7476C59.4586 63.0501 60.3553 65.7234 62.557 66.9945C63.3593 67.4573 64.2359 67.6776 65.102 67.6776C66.6117 67.6776 68.0863 67.0062 69.0732 65.7902L71.8313 67.3822L75.4606 61.0968C76.5721 59.1707 75.91 56.6996 73.9844 55.5881ZM27.5057 53.1627H22.6667V49.6757C22.6667 48.3413 23.7523 47.2562 25.0862 47.2562C26.4202 47.2562 27.5057 48.3413 27.5057 49.6757V53.1627ZM27.7994 46.6956C27.0827 46.0422 26.1302 45.6432 25.0862 45.6432C24.766 45.6432 24.4551 45.6818 24.1563 45.7527L27.3446 33.8541C27.7898 34.3434 28.3655 34.6967 29.0197 34.8717C29.3214 34.9526 29.6248 34.9913 29.9231 34.9913C30.2869 34.9913 30.6423 34.9321 30.9805 34.8242L27.7994 46.6956ZM31.7417 31.9835C31.7417 31.9835 31.7417 31.9835 31.7417 31.9839L31.7413 31.9851C31.4723 32.9859 30.4392 33.5822 29.4372 33.3141C28.9517 33.184 28.5459 32.8726 28.2946 32.4371C28.0453 32.0049 27.9782 31.5022 28.1045 31.0196L28.107 31.0095H28.1066C28.1066 31.0095 28.1066 31.0095 28.1066 31.0091C28.2367 30.5236 28.548 30.1178 28.9836 29.8665C29.2736 29.6991 29.595 29.6135 29.9214 29.6135C30.0847 29.6135 30.2492 29.6353 30.4115 29.6785C30.897 29.8086 31.3028 30.1199 31.5542 30.5555C31.8055 30.9906 31.8718 31.498 31.7417 31.9835ZM72.6899 48.0115L71.196 53.9784L66.8606 51.475L69.8176 46.3536L72.6899 48.0115ZM60.6398 41.0547L68.4207 45.5471L65.4637 50.6689L55.4877 44.9093L60.6398 41.0547ZM52.3994 55.2318C51.7528 56.3522 50.5757 56.9787 49.3668 56.9787C48.7743 56.9787 48.1743 56.828 47.6254 56.5112C45.9566 55.5478 45.383 53.4061 46.3464 51.7373C46.813 50.9287 47.5667 50.3504 48.4684 50.1091C48.7693 50.0282 49.0752 49.9883 49.3786 49.9883C49.9841 49.9883 50.5816 50.1473 51.1204 50.4583C51.9286 50.9249 52.5068 51.6785 52.7485 52.5803C52.9902 53.4816 52.866 54.4236 52.3994 55.2318ZM68.137 64.3181C67.4904 65.4381 66.3134 66.065 65.1045 66.0646C64.5124 66.0646 63.9119 65.9144 63.3631 65.5971C62.5549 65.1305 61.9767 64.3769 61.735 63.4756C61.4933 62.5738 61.6171 61.6318 62.0841 60.8236C62.7307 59.7036 63.9077 59.0767 65.1162 59.0767C65.7087 59.0767 66.3092 59.2274 66.8581 59.5446C68.5269 60.5076 69.1005 62.6493 68.137 64.3181ZM74.0637 60.2898L71.2409 65.1788L69.8814 64.3941C70.7626 62.0921 69.8659 59.4183 67.6641 58.1477C65.4628 56.8763 62.6992 57.436 61.1458 59.3507L54.1437 55.3078C55.0249 53.0057 54.1278 50.3324 51.9265 49.0614C49.7252 47.7904 46.9612 48.3501 45.4082 50.2644L42.9312 48.8344L45.7539 43.9454C46.077 43.3857 46.599 42.9853 47.223 42.8183C47.847 42.6509 48.4991 42.7365 49.0588 43.06L73.1779 56.985C74.3331 57.6517 74.7304 59.1346 74.0637 60.2898Z"></path></mask><path d="M73.9844 55.5881L72.6487 54.8168L74.55 47.223L60.5252 39.1261L53.9679 44.0314L49.8653 41.6631C48.9329 41.1243 47.8461 40.9813 46.8055 41.2603C45.7653 41.5389 44.8958 42.2061 44.357 43.1389L42.4411 46.4577L33.0849 33.2029L33.2989 32.4031C33.2993 32.4022 33.2993 32.4014 33.2998 32.401C33.5415 31.4992 33.4177 30.5572 32.9506 29.749C32.484 28.9404 31.7304 28.3622 30.8286 28.1209C29.9269 27.8788 28.9853 28.003 28.1771 28.4696C27.3685 28.9366 26.7903 29.6903 26.5486 30.5916C26.5469 30.5987 26.5452 30.6054 26.5435 30.6122L22.1846 46.8798C21.4851 47.6053 21.0537 48.5906 21.0537 49.6757V54.7757H41.0542V57.4637H39.3577V59.0767H42.452V60.6897H39.3577V62.3027H44.065V57.4637H42.6672V53.1627H29.1183V49.6757C29.1183 49.2947 29.0642 48.9267 28.9651 48.5771L32.5415 35.23L41.5532 47.996L40.7282 49.4248L44.6021 51.6613C43.7209 53.9633 44.6176 56.6371 46.8189 57.9081C47.6216 58.3714 48.4982 58.5912 49.3643 58.5912C50.8741 58.5912 52.3486 57.9199 53.3355 56.7038L60.3398 60.7476C59.4586 63.0501 60.3553 65.7234 62.557 66.9945C63.3593 67.4573 64.2359 67.6776 65.102 67.6776C66.6117 67.6776 68.0863 67.0062 69.0732 65.7902L71.8313 67.3822L75.4606 61.0968C76.5721 59.1707 75.91 56.6996 73.9844 55.5881ZM27.5057 53.1627H22.6667V49.6757C22.6667 48.3413 23.7523 47.2562 25.0862 47.2562C26.4202 47.2562 27.5057 48.3413 27.5057 49.6757V53.1627ZM27.7994 46.6956C27.0827 46.0422 26.1302 45.6432 25.0862 45.6432C24.766 45.6432 24.4551 45.6818 24.1563 45.7527L27.3446 33.8541C27.7898 34.3434 28.3655 34.6967 29.0197 34.8717C29.3214 34.9526 29.6248 34.9913 29.9231 34.9913C30.2869 34.9913 30.6423 34.9321 30.9805 34.8242L27.7994 46.6956ZM31.7417 31.9835C31.7417 31.9835 31.7417 31.9835 31.7417 31.9839L31.7413 31.9851C31.4723 32.9859 30.4392 33.5822 29.4372 33.3141C28.9517 33.184 28.5459 32.8726 28.2946 32.4371C28.0453 32.0049 27.9782 31.5022 28.1045 31.0196L28.107 31.0095H28.1066C28.1066 31.0095 28.1066 31.0095 28.1066 31.0091C28.2367 30.5236 28.548 30.1178 28.9836 29.8665C29.2736 29.6991 29.595 29.6135 29.9214 29.6135C30.0847 29.6135 30.2492 29.6353 30.4115 29.6785C30.897 29.8086 31.3028 30.1199 31.5542 30.5555C31.8055 30.9906 31.8718 31.498 31.7417 31.9835ZM72.6899 48.0115L71.196 53.9784L66.8606 51.475L69.8176 46.3536L72.6899 48.0115ZM60.6398 41.0547L68.4207 45.5471L65.4637 50.6689L55.4877 44.9093L60.6398 41.0547ZM52.3994 55.2318C51.7528 56.3522 50.5757 56.9787 49.3668 56.9787C48.7743 56.9787 48.1743 56.828 47.6254 56.5112C45.9566 55.5478 45.383 53.4061 46.3464 51.7373C46.813 50.9287 47.5667 50.3504 48.4684 50.1091C48.7693 50.0282 49.0752 49.9883 49.3786 49.9883C49.9841 49.9883 50.5816 50.1473 51.1204 50.4583C51.9286 50.9249 52.5068 51.6785 52.7485 52.5803C52.9902 53.4816 52.866 54.4236 52.3994 55.2318ZM68.137 64.3181C67.4904 65.4381 66.3134 66.065 65.1045 66.0646C64.5124 66.0646 63.9119 65.9144 63.3631 65.5971C62.5549 65.1305 61.9767 64.3769 61.735 63.4756C61.4933 62.5738 61.6171 61.6318 62.0841 60.8236C62.7307 59.7036 63.9077 59.0767 65.1162 59.0767C65.7087 59.0767 66.3092 59.2274 66.8581 59.5446C68.5269 60.5076 69.1005 62.6493 68.137 64.3181ZM74.0637 60.2898L71.2409 65.1788L69.8814 64.3941C70.7626 62.0921 69.8659 59.4183 67.6641 58.1477C65.4628 56.8763 62.6992 57.436 61.1458 59.3507L54.1437 55.3078C55.0249 53.0057 54.1278 50.3324 51.9265 49.0614C49.7252 47.7904 46.9612 48.3501 45.4082 50.2644L42.9312 48.8344L45.7539 43.9454C46.077 43.3857 46.599 42.9853 47.223 42.8183C47.847 42.6509 48.4991 42.7365 49.0588 43.06L73.1779 56.985C74.3331 57.6517 74.7304 59.1346 74.0637 60.2898Z" fill="#1F2428" stroke="#F2F6FC" stroke-width="0.4" mask="url(#path-7-inside-1)"></path><path d="M24.3798 49.2918H25.7928V50.7048H24.3798V49.2918Z" fill="#1F2428" stroke="#F2F6FC" stroke-width="0.2"></path><path d="M62.9599 54.6964L61.7362 53.9899L62.4427 52.7662L63.6664 53.4727L62.9599 54.6964Z" fill="#1F2428" stroke="#F2F6FC" stroke-width="0.2"></path><path d="M60.1669 53.0839L57.1737 51.356L57.8802 50.1323L60.8734 51.8602L60.1669 53.0839Z" fill="#1F2428" stroke="#F2F6FC" stroke-width="0.2"></path></svg> 