<?xml version="1.0" encoding="UTF-8"?> <svg xmlns="http://www.w3.org/2000/svg" width="72" height="72" viewBox="0 0 72 72" fill="none"><rect width="72" height="72" fill="#F2F6FC"></rect><path d="M48.7744 22.0645H62.7099V31.3548H48.7744V22.0645Z" fill="#3693E7"></path><path d="M18.5806 20.9033H32.5161V31.3549H18.5806V20.9033Z" fill="#3693E7"></path><path d="M17.4194 71.9998C7.81432 71.9998 0 64.1855 0 54.5805C0 44.9755 7.81432 37.1611 17.4194 37.1611C27.0244 37.1611 34.8387 44.9755 34.8387 54.5805C34.8387 64.1855 27.0244 71.9998 17.4194 71.9998ZM17.4194 42.9676C11.016 42.9676 5.80645 48.1771 5.80645 54.5805C5.80645 60.9838 11.016 66.1934 17.4194 66.1934C23.8227 66.1934 29.0323 60.9838 29.0323 54.5805C29.0323 48.1771 23.8227 42.9676 17.4194 42.9676Z" fill="#3693E7"></path><path d="M16.2583 58.0646C15.6184 58.0646 15.097 57.5443 15.097 56.9033H12.7744C12.7744 58.824 14.3375 60.3871 16.2583 60.3871V62.7097H18.5809V60.3871H22.0647V56.9033C22.0647 54.9825 20.5016 53.4194 18.5809 53.4194H16.2583C15.6184 53.4194 15.097 52.8991 15.097 52.2581V51.0968H18.5809C19.2207 51.0968 19.7422 51.6171 19.7422 52.2581H22.0647C22.0647 50.3373 20.5016 48.7742 18.5809 48.7742V46.4517H16.2583V48.7742H12.7744V52.2581C12.7744 54.1789 14.3375 55.742 16.2583 55.742H18.5809C19.2207 55.742 19.7422 56.2622 19.7422 56.9033V58.0646H16.2583Z" fill="#1F2428"></path><path d="M20.9038 18.5806H60.3877V9.29028H20.9038V18.5806ZM23.2264 11.6129H58.0651V16.258H23.2264V11.6129Z" fill="#1F2428"></path><path d="M34.8389 31.3548C34.8389 34.5565 37.4436 37.1612 40.6453 37.1612C43.847 37.1612 46.4518 34.5565 46.4518 31.3548C46.4518 28.1531 43.847 25.5483 40.6453 25.5483C37.4436 25.5483 34.8389 28.1531 34.8389 31.3548ZM44.1292 31.3548C44.1292 33.2756 42.5661 34.8387 40.6453 34.8387C38.7245 34.8387 37.1614 33.2756 37.1614 31.3548C37.1614 29.434 38.7245 27.8709 40.6453 27.8709C42.5661 27.8709 44.1292 29.434 44.1292 31.3548Z" fill="#1F2428"></path><path d="M18.5811 20.9033H20.9036V23.2259H18.5811V20.9033Z" fill="#1F2428"></path><path d="M23.2261 20.9033H62.7099V23.2259H23.2261V20.9033Z" fill="#1F2428"></path><path d="M66.1938 0H15.097C11.8953 0 9.29053 2.60477 9.29053 5.80645V39.1866C10.0326 38.7929 10.8118 38.4631 11.6131 38.1786V5.80645C11.6131 3.88568 13.1762 2.32258 15.097 2.32258H66.1938C68.1145 2.32258 69.6776 3.88568 69.6776 5.80645V40.6452C69.6776 42.5659 68.1145 44.129 66.1938 44.129H31.3225C31.8765 44.863 32.3816 45.6341 32.8148 46.4516H66.1938C69.3954 46.4516 72.0002 43.8468 72.0002 40.6452V5.80645C72.0002 2.60477 69.3954 0 66.1938 0Z" fill="#1F2428"></path><path d="M18.5812 4.64526V5.80655C18.5812 7.72733 17.0181 9.29042 15.0973 9.29042H13.936V37.5121C14.692 37.3576 15.4713 37.2717 16.2586 37.2195V11.4957C18.5301 11.0335 20.3243 9.23933 20.7865 6.96784H60.5038C60.966 9.23933 62.7602 11.0335 65.0316 11.4957V34.9549C62.7602 35.4171 60.966 37.2113 60.5038 39.4828H26.0727C27.2107 40.1378 28.264 40.9193 29.2221 41.8054H62.7102V40.6441C62.7102 38.7233 64.2733 37.1602 66.1941 37.1602H67.3554V9.29042H66.1941C64.2733 9.29042 62.7102 7.72733 62.7102 5.80655V4.64526H18.5812Z" fill="#1F2428"></path><path d="M17.4197 65.0321C11.6574 65.0321 6.96809 60.344 6.96809 54.5805C6.96809 52.172 7.80886 49.8204 9.3348 47.9588L7.53828 46.4863C5.67325 48.7625 4.64551 51.6367 4.64551 54.5805C4.64551 61.6237 10.3765 67.3547 17.4197 67.3547C20.3647 67.3547 23.2389 66.327 25.5139 64.4619L24.0402 62.6654C22.1798 64.1914 19.8282 65.0321 17.4197 65.0321Z" fill="#1F2428"></path><path d="M17.4199 41.8066C14.4748 41.8066 11.6007 42.8344 9.32568 44.6994L10.7994 46.4959C12.6597 44.97 15.0114 44.1292 17.4199 44.1292C23.1822 44.1292 27.8715 48.8174 27.8715 54.5808C27.8715 56.9894 27.0307 59.341 25.5048 61.2025L27.3013 62.675C29.1663 60.3989 30.1941 57.5247 30.1941 54.5808C30.1941 47.5376 24.4631 41.8066 17.4199 41.8066Z" fill="#1F2428"></path></svg> 