<?xml version="1.0" encoding="UTF-8"?> <svg xmlns="http://www.w3.org/2000/svg" width="96" height="96" viewBox="0 0 96 96" fill="none"><rect width="96" height="96" rx="6" fill="#F2F6FC"></rect><circle cx="30.5" cy="58.5" r="5.5" fill="#3693E7"></circle><circle cx="57.5" cy="58.5" r="5.5" fill="#3693E7"></circle><mask id="path-4-inside-1" fill="white"><path d="M52.6168 58.0841C52.6168 59.3295 53.1072 60.514 53.9872 61.3941C54.8338 62.2405 56.0031 62.7644 57.2941 62.7644C58.5883 62.7644 59.7576 62.2405 60.6042 61.3941C61.4841 60.514 61.9745 59.3294 61.9745 58.0841C61.9745 55.4989 59.8764 53.4069 57.2942 53.4069C54.715 53.4069 52.6168 55.4989 52.6168 58.0841ZM71.2557 56.6743V56.4885H66.6669V58.2424C66.6669 58.687 66.3045 59.0464 65.8599 59.0464H63.5122C63.3051 60.3984 62.6656 61.6102 61.743 62.5331C60.6041 63.6719 59.0328 64.3751 57.2941 64.3751C55.5585 64.3751 53.9872 63.6718 52.8482 62.5331C51.9226 61.6102 51.2862 60.3984 51.0791 59.0464H45.6588C45.2142 59.0464 44.8518 58.6869 44.8518 58.2424C44.8518 57.7979 45.2142 57.4355 45.6588 57.4355H51.0393C51.1308 56.5281 51.42 55.6755 51.8584 54.9203H35.8082C36.2466 55.6755 36.536 56.5281 36.6273 57.4355H42.008C42.4526 57.4355 42.8149 57.7979 42.8149 58.2424C42.8149 58.687 42.4526 59.0464 42.008 59.0464H36.5877C36.3807 60.3984 35.7442 61.6102 34.8185 62.5331C33.6796 63.6719 32.1084 64.3751 30.3727 64.3751C28.6339 64.3751 27.0627 63.6718 25.9238 62.5331C25.0011 61.6102 24.3618 60.3984 24.1547 59.0464H21.807C21.3623 59.0464 21 58.6869 21 58.2424C21 49.762 21 41.2845 21 32.8071C21 32.3624 21.3624 32.0001 21.807 32.0001C22.2515 32.0001 22.6108 32.3624 22.6108 32.8071V34.5063H32.014V32.807C32.014 32.3623 32.3733 32 32.8209 32C33.2655 32 33.6248 32.3623 33.6248 32.807V34.5062H43.0279V32.807C43.0279 32.3623 43.3873 32 43.8349 32C44.2795 32 44.6387 32.3623 44.6387 32.807V34.5062H54.042V32.807C54.042 32.3623 54.4013 32 54.8458 32C55.2935 32 55.6528 32.3623 55.6528 32.807V34.5062H65.0559V32.807C65.0559 32.3623 65.4153 32 65.8598 32C66.3044 32 66.6668 32.3623 66.6668 32.807V46.2114C66.6668 46.656 66.3044 47.0183 65.8598 47.0183C65.4152 47.0183 65.0559 46.656 65.0559 46.2114V43.4311C50.9085 43.4311 36.7581 43.4311 22.6108 43.4311V53.3094H26.277C27.3794 52.3654 28.8075 51.7959 30.3727 51.7959C31.9348 51.7959 33.366 52.3654 34.4652 53.3094H53.2015C54.3008 52.3654 55.7321 51.7959 57.2941 51.7959C58.8592 51.7959 60.2874 52.3654 61.3897 53.3094H65.056V49.8623C65.056 49.4177 65.4154 49.0554 65.8599 49.0554C66.3045 49.0554 66.6669 49.4177 66.6669 49.8623V51.7442H71.2557V51.5554C71.2557 50.9038 71.5237 50.31 71.9531 49.8806C72.3825 49.4512 72.9763 49.1833 73.6279 49.1833C74.2826 49.1833 74.8764 49.4512 75.3057 49.8806C75.7351 50.31 76 50.9037 76 51.5554V56.6742C76 57.3288 75.7351 57.9226 75.3057 58.352C74.8764 58.7812 74.2826 59.0463 73.6279 59.0463C72.9763 59.0463 72.3825 58.7812 71.9531 58.352C71.5237 57.9227 71.2557 57.3289 71.2557 56.6743ZM72.8666 51.5555V56.6743C72.8666 56.8844 72.9519 57.0731 73.092 57.2133C73.2289 57.3503 73.4208 57.4355 73.6279 57.4355C73.838 57.4355 74.0269 57.3503 74.1668 57.2133C74.3038 57.0731 74.3891 56.8845 74.3891 56.6743V51.5555C74.3891 51.3484 74.3038 51.1565 74.1668 51.0196C74.0268 50.8826 73.838 50.7942 73.6279 50.7942C73.4208 50.7942 73.2289 50.8825 73.092 51.0196C72.9519 51.1565 72.8666 51.3484 72.8666 51.5555ZM71.2557 53.355H66.6669V54.8776H71.2557V53.355ZM65.056 41.8204V39.7741H55.6529V41.8204H65.056ZM65.056 38.1633V36.1201H55.6529V38.1633H65.056ZM22.6109 36.1201V38.1633H32.0141V36.1201H22.6109ZM22.6109 39.7741V41.8204H32.0141V39.7741H22.6109ZM33.6249 36.1201V38.1633H43.028V36.1201H33.6249ZM33.6249 39.7741V41.8204H43.028V39.7741H33.6249ZM44.6388 36.1201V38.1633H54.0421V36.1201H44.6388ZM44.6388 39.7741V41.8204H54.0421V39.7741H44.6388ZM62.7326 54.9203C63.1711 55.6755 63.4574 56.5281 63.5517 57.4355H65.056V54.9203H62.7326ZM57.2941 54.8776C58.1802 54.8776 58.9841 55.237 59.5626 55.8154C60.1442 56.397 60.5036 57.201 60.5036 58.084C60.5036 58.9701 60.1442 59.7739 59.5626 60.3525C58.9841 60.9341 58.1802 61.2935 57.2941 61.2935C56.408 61.2935 55.6071 60.9341 55.0256 60.3525C54.447 59.7739 54.0878 58.9701 54.0878 58.084C54.0878 57.201 54.4471 56.397 55.0256 55.8154C55.6071 55.237 56.408 54.8776 57.2941 54.8776ZM58.4238 56.9574C58.1347 56.6683 57.7357 56.4885 57.2941 56.4885C56.8557 56.4885 56.4537 56.6683 56.1643 56.9574C55.8782 57.2437 55.6984 57.6456 55.6984 58.0841C55.6984 58.5256 55.8782 58.9244 56.1643 59.2138C56.4536 59.5031 56.8557 59.6827 57.2941 59.6827C57.7356 59.6827 58.1346 59.5031 58.4238 59.2138C58.7131 58.9245 58.8927 58.5257 58.8927 58.0841C58.8927 57.6456 58.7131 57.2437 58.4238 56.9574ZM30.3728 54.8776C31.2589 54.8776 32.0597 55.237 32.6414 55.8154C33.22 56.397 33.5793 57.201 33.5793 58.084C33.5793 58.9701 33.22 59.7739 32.6414 60.3525C32.0597 60.9341 31.2589 61.2935 30.3728 61.2935C29.4867 61.2935 28.6828 60.9341 28.1042 60.3525C27.5225 59.7739 27.1632 58.9701 27.1632 58.084C27.1632 57.201 27.5225 56.397 28.1042 55.8154C28.6828 55.237 29.4867 54.8776 30.3728 54.8776ZM31.5024 56.9574C31.2131 56.6683 30.8143 56.4885 30.3727 56.4885C29.9312 56.4885 29.5322 56.6683 29.243 56.9574C28.9537 57.2437 28.774 57.6456 28.774 58.0841C28.774 58.5256 28.9536 58.9244 29.243 59.2138C29.5322 59.5031 29.9312 59.6827 30.3727 59.6827C30.8142 59.6827 31.2131 59.5031 31.5024 59.2138C31.7887 58.9245 31.9683 58.5257 31.9683 58.0841C31.9683 57.6456 31.7887 57.2437 31.5024 56.9574ZM30.3728 53.4069C27.7906 53.4069 25.6925 55.499 25.6925 58.0841C25.6925 59.3295 26.1828 60.514 27.0628 61.3941C27.9094 62.2405 29.0787 62.7644 30.3728 62.7644C31.6639 62.7644 32.8332 62.2405 33.6798 61.3941C34.5598 60.514 35.05 59.3294 35.05 58.0841C35.0499 55.4989 32.952 53.4069 30.3728 53.4069ZM24.1151 57.4355C24.2096 56.5281 24.4957 55.6755 24.9342 54.9203H22.6109V57.4355H24.1151Z"></path></mask><path d="M52.6168 58.0841C52.6168 59.3295 53.1072 60.514 53.9872 61.3941C54.8338 62.2405 56.0031 62.7644 57.2941 62.7644C58.5883 62.7644 59.7576 62.2405 60.6042 61.3941C61.4841 60.514 61.9745 59.3294 61.9745 58.0841C61.9745 55.4989 59.8764 53.4069 57.2942 53.4069C54.715 53.4069 52.6168 55.4989 52.6168 58.0841ZM71.2557 56.6743V56.4885H66.6669V58.2424C66.6669 58.687 66.3045 59.0464 65.8599 59.0464H63.5122C63.3051 60.3984 62.6656 61.6102 61.743 62.5331C60.6041 63.6719 59.0328 64.3751 57.2941 64.3751C55.5585 64.3751 53.9872 63.6718 52.8482 62.5331C51.9226 61.6102 51.2862 60.3984 51.0791 59.0464H45.6588C45.2142 59.0464 44.8518 58.6869 44.8518 58.2424C44.8518 57.7979 45.2142 57.4355 45.6588 57.4355H51.0393C51.1308 56.5281 51.42 55.6755 51.8584 54.9203H35.8082C36.2466 55.6755 36.536 56.5281 36.6273 57.4355H42.008C42.4526 57.4355 42.8149 57.7979 42.8149 58.2424C42.8149 58.687 42.4526 59.0464 42.008 59.0464H36.5877C36.3807 60.3984 35.7442 61.6102 34.8185 62.5331C33.6796 63.6719 32.1084 64.3751 30.3727 64.3751C28.6339 64.3751 27.0627 63.6718 25.9238 62.5331C25.0011 61.6102 24.3618 60.3984 24.1547 59.0464H21.807C21.3623 59.0464 21 58.6869 21 58.2424C21 49.762 21 41.2845 21 32.8071C21 32.3624 21.3624 32.0001 21.807 32.0001C22.2515 32.0001 22.6108 32.3624 22.6108 32.8071V34.5063H32.014V32.807C32.014 32.3623 32.3733 32 32.8209 32C33.2655 32 33.6248 32.3623 33.6248 32.807V34.5062H43.0279V32.807C43.0279 32.3623 43.3873 32 43.8349 32C44.2795 32 44.6387 32.3623 44.6387 32.807V34.5062H54.042V32.807C54.042 32.3623 54.4013 32 54.8458 32C55.2935 32 55.6528 32.3623 55.6528 32.807V34.5062H65.0559V32.807C65.0559 32.3623 65.4153 32 65.8598 32C66.3044 32 66.6668 32.3623 66.6668 32.807V46.2114C66.6668 46.656 66.3044 47.0183 65.8598 47.0183C65.4152 47.0183 65.0559 46.656 65.0559 46.2114V43.4311C50.9085 43.4311 36.7581 43.4311 22.6108 43.4311V53.3094H26.277C27.3794 52.3654 28.8075 51.7959 30.3727 51.7959C31.9348 51.7959 33.366 52.3654 34.4652 53.3094H53.2015C54.3008 52.3654 55.7321 51.7959 57.2941 51.7959C58.8592 51.7959 60.2874 52.3654 61.3897 53.3094H65.056V49.8623C65.056 49.4177 65.4154 49.0554 65.8599 49.0554C66.3045 49.0554 66.6669 49.4177 66.6669 49.8623V51.7442H71.2557V51.5554C71.2557 50.9038 71.5237 50.31 71.9531 49.8806C72.3825 49.4512 72.9763 49.1833 73.6279 49.1833C74.2826 49.1833 74.8764 49.4512 75.3057 49.8806C75.7351 50.31 76 50.9037 76 51.5554V56.6742C76 57.3288 75.7351 57.9226 75.3057 58.352C74.8764 58.7812 74.2826 59.0463 73.6279 59.0463C72.9763 59.0463 72.3825 58.7812 71.9531 58.352C71.5237 57.9227 71.2557 57.3289 71.2557 56.6743ZM72.8666 51.5555V56.6743C72.8666 56.8844 72.9519 57.0731 73.092 57.2133C73.2289 57.3503 73.4208 57.4355 73.6279 57.4355C73.838 57.4355 74.0269 57.3503 74.1668 57.2133C74.3038 57.0731 74.3891 56.8845 74.3891 56.6743V51.5555C74.3891 51.3484 74.3038 51.1565 74.1668 51.0196C74.0268 50.8826 73.838 50.7942 73.6279 50.7942C73.4208 50.7942 73.2289 50.8825 73.092 51.0196C72.9519 51.1565 72.8666 51.3484 72.8666 51.5555ZM71.2557 53.355H66.6669V54.8776H71.2557V53.355ZM65.056 41.8204V39.7741H55.6529V41.8204H65.056ZM65.056 38.1633V36.1201H55.6529V38.1633H65.056ZM22.6109 36.1201V38.1633H32.0141V36.1201H22.6109ZM22.6109 39.7741V41.8204H32.0141V39.7741H22.6109ZM33.6249 36.1201V38.1633H43.028V36.1201H33.6249ZM33.6249 39.7741V41.8204H43.028V39.7741H33.6249ZM44.6388 36.1201V38.1633H54.0421V36.1201H44.6388ZM44.6388 39.7741V41.8204H54.0421V39.7741H44.6388ZM62.7326 54.9203C63.1711 55.6755 63.4574 56.5281 63.5517 57.4355H65.056V54.9203H62.7326ZM57.2941 54.8776C58.1802 54.8776 58.9841 55.237 59.5626 55.8154C60.1442 56.397 60.5036 57.201 60.5036 58.084C60.5036 58.9701 60.1442 59.7739 59.5626 60.3525C58.9841 60.9341 58.1802 61.2935 57.2941 61.2935C56.408 61.2935 55.6071 60.9341 55.0256 60.3525C54.447 59.7739 54.0878 58.9701 54.0878 58.084C54.0878 57.201 54.4471 56.397 55.0256 55.8154C55.6071 55.237 56.408 54.8776 57.2941 54.8776ZM58.4238 56.9574C58.1347 56.6683 57.7357 56.4885 57.2941 56.4885C56.8557 56.4885 56.4537 56.6683 56.1643 56.9574C55.8782 57.2437 55.6984 57.6456 55.6984 58.0841C55.6984 58.5256 55.8782 58.9244 56.1643 59.2138C56.4536 59.5031 56.8557 59.6827 57.2941 59.6827C57.7356 59.6827 58.1346 59.5031 58.4238 59.2138C58.7131 58.9245 58.8927 58.5257 58.8927 58.0841C58.8927 57.6456 58.7131 57.2437 58.4238 56.9574ZM30.3728 54.8776C31.2589 54.8776 32.0597 55.237 32.6414 55.8154C33.22 56.397 33.5793 57.201 33.5793 58.084C33.5793 58.9701 33.22 59.7739 32.6414 60.3525C32.0597 60.9341 31.2589 61.2935 30.3728 61.2935C29.4867 61.2935 28.6828 60.9341 28.1042 60.3525C27.5225 59.7739 27.1632 58.9701 27.1632 58.084C27.1632 57.201 27.5225 56.397 28.1042 55.8154C28.6828 55.237 29.4867 54.8776 30.3728 54.8776ZM31.5024 56.9574C31.2131 56.6683 30.8143 56.4885 30.3727 56.4885C29.9312 56.4885 29.5322 56.6683 29.243 56.9574C28.9537 57.2437 28.774 57.6456 28.774 58.0841C28.774 58.5256 28.9536 58.9244 29.243 59.2138C29.5322 59.5031 29.9312 59.6827 30.3727 59.6827C30.8142 59.6827 31.2131 59.5031 31.5024 59.2138C31.7887 58.9245 31.9683 58.5257 31.9683 58.0841C31.9683 57.6456 31.7887 57.2437 31.5024 56.9574ZM30.3728 53.4069C27.7906 53.4069 25.6925 55.499 25.6925 58.0841C25.6925 59.3295 26.1828 60.514 27.0628 61.3941C27.9094 62.2405 29.0787 62.7644 30.3728 62.7644C31.6639 62.7644 32.8332 62.2405 33.6798 61.3941C34.5598 60.514 35.05 59.3294 35.05 58.0841C35.0499 55.4989 32.952 53.4069 30.3728 53.4069ZM24.1151 57.4355C24.2096 56.5281 24.4957 55.6755 24.9342 54.9203H22.6109V57.4355H24.1151Z" fill="#1F2428" stroke="#F2F6FC" stroke-width="0.5" mask="url(#path-4-inside-1)"></path></svg> 