<?xml version="1.0" encoding="UTF-8"?> <svg xmlns="http://www.w3.org/2000/svg" width="96" height="96" viewBox="0 0 96 96" fill="none"><rect width="96" height="96" rx="6" fill="#F2F6FC"></rect><rect x="28" y="61" width="7" height="4" rx="1" fill="#3693E7"></rect><rect x="61" y="61" width="7" height="4" rx="1" fill="#3693E7"></rect><rect x="40" y="44" width="16" height="13" fill="#3693E7"></rect><mask id="path-5-inside-1" fill="white"><path d="M69.3078 46.4197C69.2984 46.3979 65.7707 39.7499 65.7707 39.7499L62.98 32.9552C62.7314 32.3549 62.254 31.8507 61.6011 31.4981C60.9972 31.1729 60.2875 31.0009 59.5485 31H52.2262C51.7513 31 51.3659 31.3862 51.3659 31.8602C51.3659 32.3342 51.7513 32.7205 52.2262 32.7205H59.5546C60.001 32.7205 60.438 32.8237 60.7838 33.0121C61.0798 33.1713 61.3 33.3889 61.3877 33.61L63.7069 39.254H32.3374L34.6557 33.61C34.7443 33.3889 34.9646 33.1712 35.2605 33.0121C35.6063 32.8238 36.0433 32.7205 36.4898 32.7205H44.484C44.958 32.7205 45.3442 32.3342 45.3442 31.8602C45.3442 31.3862 44.958 31 44.484 31H36.4958C35.7569 31.0009 35.0472 31.1729 34.4433 31.4981C33.7903 31.8508 33.3138 32.3549 33.0643 32.9552L30.2736 39.7499C30.2736 39.7499 26.7485 46.395 26.7397 46.4152C26.2733 47.1027 26 47.9311 26 48.8226V60.768C26 61.2431 26.3851 61.6283 26.8602 61.6283H27.7276V63.3987C27.7276 64.7922 28.8612 65.9258 30.2546 65.9258H32.9427C34.3362 65.9258 35.4698 64.7922 35.4698 63.3987V61.6283H60.587V63.3987C60.587 64.7922 61.7206 65.9258 63.114 65.9258H65.8021C67.1956 65.9258 68.3291 64.7922 68.3291 63.3987V61.6283H69.1841C69.6592 61.6283 70.0443 61.2431 70.0443 60.768V48.8226C70.0443 47.933 69.7724 47.106 69.3078 46.4197ZM64.5986 41.2112L66.3829 44.5723C66.364 44.5694 66.1566 44.5228 66.0656 44.5228H56.6877L64.5986 41.2112ZM65.2055 46.2432V48.0294L56.6031 48.7457V46.2432H65.2055ZM31.4452 41.2123L39.3166 44.5227H29.9356C29.8404 44.5227 29.7492 44.5393 29.6636 44.568L31.4452 41.2123ZM39.3983 46.2432V48.7457L30.7958 48.0294V46.2432H39.3983ZM27.7205 48.8226C27.7205 47.8432 28.2692 46.9896 29.0754 46.553V48.8211C29.0754 49.2685 29.4183 49.6412 29.8642 49.6784L39.3983 50.4722V52.2584H27.7205V48.8226ZM27.7205 53.9788H39.3983V55.6962H27.7205V53.9788ZM33.7493 63.3987C33.7493 63.8435 33.3875 64.2053 32.9427 64.2053H30.2547C29.81 64.2053 29.4482 63.8435 29.4482 63.3987V61.6283H33.7494V63.3987H33.7493ZM40.2585 59.9078H27.7205V57.4167H39.4026C39.4461 57.8511 39.8126 58.1903 40.2585 58.1903V59.9078ZM54.0223 59.9078H41.979V58.1903H54.0223V59.9078ZM41.1187 56.4698V44.7589C41.8129 44.6887 42.5085 44.6304 43.2048 44.5815V56.4698H41.1187ZM44.9253 56.4698V44.4825C45.6704 44.449 46.416 44.4266 47.1619 44.4174V56.4698H44.9253ZM48.8824 56.4698V44.4179C49.6283 44.4274 50.374 44.4504 51.119 44.4843V56.4698H48.8824V56.4698ZM54.8826 56.4698H52.8395V44.5845C53.5214 44.6328 54.2027 44.6901 54.8826 44.7589V56.4698ZM40.3881 43.107L35.3183 40.9748H60.7075L55.6139 43.1071C50.5609 42.5548 45.4411 42.5548 40.3881 43.107ZM66.6088 63.3987C66.6088 63.8435 66.247 64.2053 65.8023 64.2053H63.1141C62.6695 64.2053 62.3077 63.8435 62.3077 63.3987V61.6283H66.6089V63.3987H66.6088ZM68.3239 59.9078H55.7428V58.1903C56.1887 58.1903 56.5552 57.8511 56.5987 57.4167H68.3239V59.9078ZM68.3239 55.6962H56.6031V53.9788H68.3239V55.6962ZM68.3239 52.2583H56.6031V50.4721L66.1371 49.6782C66.5831 49.6411 66.926 49.2683 66.926 48.8209V46.5308C67.7553 46.96 68.3239 47.8259 68.3239 48.8225V52.2583Z"></path></mask><path d="M69.3078 46.4197C69.2984 46.3979 65.7707 39.7499 65.7707 39.7499L62.98 32.9552C62.7314 32.3549 62.254 31.8507 61.6011 31.4981C60.9972 31.1729 60.2875 31.0009 59.5485 31H52.2262C51.7513 31 51.3659 31.3862 51.3659 31.8602C51.3659 32.3342 51.7513 32.7205 52.2262 32.7205H59.5546C60.001 32.7205 60.438 32.8237 60.7838 33.0121C61.0798 33.1713 61.3 33.3889 61.3877 33.61L63.7069 39.254H32.3374L34.6557 33.61C34.7443 33.3889 34.9646 33.1712 35.2605 33.0121C35.6063 32.8238 36.0433 32.7205 36.4898 32.7205H44.484C44.958 32.7205 45.3442 32.3342 45.3442 31.8602C45.3442 31.3862 44.958 31 44.484 31H36.4958C35.7569 31.0009 35.0472 31.1729 34.4433 31.4981C33.7903 31.8508 33.3138 32.3549 33.0643 32.9552L30.2736 39.7499C30.2736 39.7499 26.7485 46.395 26.7397 46.4152C26.2733 47.1027 26 47.9311 26 48.8226V60.768C26 61.2431 26.3851 61.6283 26.8602 61.6283H27.7276V63.3987C27.7276 64.7922 28.8612 65.9258 30.2546 65.9258H32.9427C34.3362 65.9258 35.4698 64.7922 35.4698 63.3987V61.6283H60.587V63.3987C60.587 64.7922 61.7206 65.9258 63.114 65.9258H65.8021C67.1956 65.9258 68.3291 64.7922 68.3291 63.3987V61.6283H69.1841C69.6592 61.6283 70.0443 61.2431 70.0443 60.768V48.8226C70.0443 47.933 69.7724 47.106 69.3078 46.4197ZM64.5986 41.2112L66.3829 44.5723C66.364 44.5694 66.1566 44.5228 66.0656 44.5228H56.6877L64.5986 41.2112ZM65.2055 46.2432V48.0294L56.6031 48.7457V46.2432H65.2055ZM31.4452 41.2123L39.3166 44.5227H29.9356C29.8404 44.5227 29.7492 44.5393 29.6636 44.568L31.4452 41.2123ZM39.3983 46.2432V48.7457L30.7958 48.0294V46.2432H39.3983ZM27.7205 48.8226C27.7205 47.8432 28.2692 46.9896 29.0754 46.553V48.8211C29.0754 49.2685 29.4183 49.6412 29.8642 49.6784L39.3983 50.4722V52.2584H27.7205V48.8226ZM27.7205 53.9788H39.3983V55.6962H27.7205V53.9788ZM33.7493 63.3987C33.7493 63.8435 33.3875 64.2053 32.9427 64.2053H30.2547C29.81 64.2053 29.4482 63.8435 29.4482 63.3987V61.6283H33.7494V63.3987H33.7493ZM40.2585 59.9078H27.7205V57.4167H39.4026C39.4461 57.8511 39.8126 58.1903 40.2585 58.1903V59.9078ZM54.0223 59.9078H41.979V58.1903H54.0223V59.9078ZM41.1187 56.4698V44.7589C41.8129 44.6887 42.5085 44.6304 43.2048 44.5815V56.4698H41.1187ZM44.9253 56.4698V44.4825C45.6704 44.449 46.416 44.4266 47.1619 44.4174V56.4698H44.9253ZM48.8824 56.4698V44.4179C49.6283 44.4274 50.374 44.4504 51.119 44.4843V56.4698H48.8824V56.4698ZM54.8826 56.4698H52.8395V44.5845C53.5214 44.6328 54.2027 44.6901 54.8826 44.7589V56.4698ZM40.3881 43.107L35.3183 40.9748H60.7075L55.6139 43.1071C50.5609 42.5548 45.4411 42.5548 40.3881 43.107ZM66.6088 63.3987C66.6088 63.8435 66.247 64.2053 65.8023 64.2053H63.1141C62.6695 64.2053 62.3077 63.8435 62.3077 63.3987V61.6283H66.6089V63.3987H66.6088ZM68.3239 59.9078H55.7428V58.1903C56.1887 58.1903 56.5552 57.8511 56.5987 57.4167H68.3239V59.9078ZM68.3239 55.6962H56.6031V53.9788H68.3239V55.6962ZM68.3239 52.2583H56.6031V50.4721L66.1371 49.6782C66.5831 49.6411 66.926 49.2683 66.926 48.8209V46.5308C67.7553 46.96 68.3239 47.8259 68.3239 48.8225V52.2583Z" fill="#1F2428" stroke="#F2F6FC" stroke-width="0.4" mask="url(#path-5-inside-1)"></path><path d="M49.1156 31.8602C49.1156 32.2801 48.7752 32.6205 48.3554 32.6205C47.9355 32.6205 47.5951 32.2801 47.5951 31.8602C47.5951 31.4404 47.9355 31.1 48.3554 31.1C48.7752 31.1 49.1156 31.4404 49.1156 31.8602Z" fill="#1F2428" stroke="#F2F6FC" stroke-width="0.2"></path></svg> 