<?xml version="1.0" encoding="UTF-8"?> <svg xmlns="http://www.w3.org/2000/svg" width="96" height="96" viewBox="0 0 96 96" fill="none"><rect width="96" height="96" rx="6" transform="matrix(-1 0 0 1 96 0)" fill="#F2F6FC"></rect><circle cx="34" cy="60" r="7" fill="#3693E7"></circle><circle cx="61" cy="60" r="7" fill="#3693E7"></circle><mask id="path-4-inside-1" fill="white"><path d="M70.5 28H54.7158C53.3702 28.0007 52.1077 28.6505 51.325 29.745L49.1517 32.7867C48.6819 33.443 47.9246 33.8326 47.1176 33.8333H25.5C24.1193 33.8333 23 34.9526 23 36.3333V43.375C22.9999 44.515 23.7711 45.5108 24.875 45.7958L25.1909 45.8792L23.4408 49.3791C22.5306 51.1958 23.0732 53.4045 24.7216 54.5925L26.4408 55.8425C25.0998 58.4234 25.2036 61.5172 26.7147 64.0023C28.2258 66.4874 30.9249 68.0031 33.8333 68H60.5C64.1376 67.9951 67.3533 65.6353 68.4491 62.1667H70.5C71.8779 62.1599 72.9932 61.0446 73 59.6667C72.9957 58.611 72.3286 57.6719 71.3333 57.32V50.5C71.3333 48.659 69.8409 47.1667 68 47.1667V40.5C67.9972 38.2 66.1333 36.3361 63.8333 36.3333H60.6667L60.7883 36.1508C61.4059 35.222 62.4479 34.6647 63.5633 34.6666H70.5C71.8807 34.6666 73 33.5473 73 32.1666V30.5C73 29.1193 71.8807 28 70.5 28ZM27.1667 59.6667C27.1667 55.9848 30.1515 53 33.8334 53C37.5153 53 40.5001 55.9848 40.5001 59.6667C40.5001 63.3486 37.5153 66.3334 33.8334 66.3334C30.1531 66.3292 27.1708 63.3469 27.1667 59.6667ZM52.2092 60.5H42.1258C42.1825 59.9459 42.1825 59.3874 42.1258 58.8333H52.2092C52.1525 59.3874 52.1525 59.9459 52.2092 60.5ZM38.8117 66.3334C40.2132 65.2893 41.2522 63.8321 41.7825 62.1667H52.5509C53.0812 63.832 54.1201 65.2892 55.5217 66.3334H38.8117ZM60.5 66.3334C56.8181 66.3334 53.8333 63.3486 53.8333 59.6667C53.8333 55.9848 56.8181 53 60.5 53C64.1819 53 67.1667 55.9848 67.1667 59.6667C67.1626 63.3469 64.1802 66.3292 60.5 66.3334ZM71.0783 60.2608C70.9258 60.4154 70.7171 60.5016 70.5 60.5H68.7908C68.8475 59.9459 68.8475 59.3874 68.7908 58.8333H70.5C70.9602 58.8333 71.3333 59.2064 71.3333 59.6666C71.3339 59.8914 71.2416 60.1064 71.0783 60.2608ZM69.6667 50.5V57.1667H68.4492C67.3571 53.6955 64.139 51.3344 60.5001 51.3344C56.8612 51.3344 53.643 53.6955 52.551 57.1667H41.7825C40.8628 54.2343 38.4022 52.0472 35.3822 51.4775C32.3622 50.9078 29.274 52.0483 27.3492 54.4442L25.6983 53.2425C24.7109 52.5327 24.3847 51.2112 24.9283 50.1234L26.845 46.3034L48.315 51.8434C48.5187 51.8977 48.7284 51.9257 48.9392 51.9267C49.7762 51.9278 50.5582 51.5098 51.0225 50.8134L52.3334 48.8334H68C68.9205 48.8333 69.6667 49.5795 69.6667 50.5ZM63.8334 38C65.2141 38 66.3334 39.1193 66.3334 40.5V47.1667H62.0567L64.5267 43.4625C64.692 43.2148 64.7125 42.8977 64.5806 42.6308C64.4487 42.3639 64.1843 42.1876 63.8873 42.1683C63.5901 42.1491 63.3053 42.2898 63.1401 42.5375L60.0542 47.1667H57.8876L60.3575 43.4625C60.5228 43.2148 60.5433 42.8977 60.4114 42.6308C60.2795 42.3639 60.0152 42.1876 59.7181 42.1683C59.421 42.1491 59.1361 42.2898 58.9709 42.5375L55.8876 47.1667H53.4459L59.5568 38H63.8334ZM71.3334 32.1667C71.3334 32.6269 70.9603 33 70.5001 33H63.5634C61.8912 32.9984 60.3294 33.8343 59.4034 35.2266L49.6301 49.8858C49.4334 50.1805 49.0716 50.3187 48.7285 50.2299L45.1785 49.3133L48.6785 44.3133C48.8494 44.0694 48.8772 43.7529 48.7515 43.4831C48.6257 43.2132 48.3656 43.0308 48.069 43.0048C47.7724 42.9787 47.4844 43.1129 47.3135 43.3566L43.451 48.8708L41.6493 48.4058L44.5118 44.3125C44.7588 43.9357 44.6618 43.431 44.2927 43.1727C43.9236 42.9145 43.4162 42.9963 43.1469 43.3574L39.926 47.9608L38.1185 47.4941L40.3451 44.3125C40.5921 43.9357 40.4951 43.431 40.126 43.1727C39.7569 42.9145 39.2495 42.9963 38.9802 43.3574L36.3969 47.0499L25.2917 44.1816C24.9238 44.0867 24.6668 43.7549 24.6667 43.375V36.3333C24.6667 35.8731 25.0398 35.5 25.5 35.5H47.1175C48.4631 35.4993 49.7256 34.8495 50.5083 33.755L52.6816 30.7133C53.1514 30.057 53.9087 29.6673 54.7157 29.6667H70.4999C70.9601 29.6667 71.3332 30.0398 71.3332 30.5V32.1667H71.3334Z"></path></mask><path d="M70.5 28H54.7158C53.3702 28.0007 52.1077 28.6505 51.325 29.745L49.1517 32.7867C48.6819 33.443 47.9246 33.8326 47.1176 33.8333H25.5C24.1193 33.8333 23 34.9526 23 36.3333V43.375C22.9999 44.515 23.7711 45.5108 24.875 45.7958L25.1909 45.8792L23.4408 49.3791C22.5306 51.1958 23.0732 53.4045 24.7216 54.5925L26.4408 55.8425C25.0998 58.4234 25.2036 61.5172 26.7147 64.0023C28.2258 66.4874 30.9249 68.0031 33.8333 68H60.5C64.1376 67.9951 67.3533 65.6353 68.4491 62.1667H70.5C71.8779 62.1599 72.9932 61.0446 73 59.6667C72.9957 58.611 72.3286 57.6719 71.3333 57.32V50.5C71.3333 48.659 69.8409 47.1667 68 47.1667V40.5C67.9972 38.2 66.1333 36.3361 63.8333 36.3333H60.6667L60.7883 36.1508C61.4059 35.222 62.4479 34.6647 63.5633 34.6666H70.5C71.8807 34.6666 73 33.5473 73 32.1666V30.5C73 29.1193 71.8807 28 70.5 28ZM27.1667 59.6667C27.1667 55.9848 30.1515 53 33.8334 53C37.5153 53 40.5001 55.9848 40.5001 59.6667C40.5001 63.3486 37.5153 66.3334 33.8334 66.3334C30.1531 66.3292 27.1708 63.3469 27.1667 59.6667ZM52.2092 60.5H42.1258C42.1825 59.9459 42.1825 59.3874 42.1258 58.8333H52.2092C52.1525 59.3874 52.1525 59.9459 52.2092 60.5ZM38.8117 66.3334C40.2132 65.2893 41.2522 63.8321 41.7825 62.1667H52.5509C53.0812 63.832 54.1201 65.2892 55.5217 66.3334H38.8117ZM60.5 66.3334C56.8181 66.3334 53.8333 63.3486 53.8333 59.6667C53.8333 55.9848 56.8181 53 60.5 53C64.1819 53 67.1667 55.9848 67.1667 59.6667C67.1626 63.3469 64.1802 66.3292 60.5 66.3334ZM71.0783 60.2608C70.9258 60.4154 70.7171 60.5016 70.5 60.5H68.7908C68.8475 59.9459 68.8475 59.3874 68.7908 58.8333H70.5C70.9602 58.8333 71.3333 59.2064 71.3333 59.6666C71.3339 59.8914 71.2416 60.1064 71.0783 60.2608ZM69.6667 50.5V57.1667H68.4492C67.3571 53.6955 64.139 51.3344 60.5001 51.3344C56.8612 51.3344 53.643 53.6955 52.551 57.1667H41.7825C40.8628 54.2343 38.4022 52.0472 35.3822 51.4775C32.3622 50.9078 29.274 52.0483 27.3492 54.4442L25.6983 53.2425C24.7109 52.5327 24.3847 51.2112 24.9283 50.1234L26.845 46.3034L48.315 51.8434C48.5187 51.8977 48.7284 51.9257 48.9392 51.9267C49.7762 51.9278 50.5582 51.5098 51.0225 50.8134L52.3334 48.8334H68C68.9205 48.8333 69.6667 49.5795 69.6667 50.5ZM63.8334 38C65.2141 38 66.3334 39.1193 66.3334 40.5V47.1667H62.0567L64.5267 43.4625C64.692 43.2148 64.7125 42.8977 64.5806 42.6308C64.4487 42.3639 64.1843 42.1876 63.8873 42.1683C63.5901 42.1491 63.3053 42.2898 63.1401 42.5375L60.0542 47.1667H57.8876L60.3575 43.4625C60.5228 43.2148 60.5433 42.8977 60.4114 42.6308C60.2795 42.3639 60.0152 42.1876 59.7181 42.1683C59.421 42.1491 59.1361 42.2898 58.9709 42.5375L55.8876 47.1667H53.4459L59.5568 38H63.8334ZM71.3334 32.1667C71.3334 32.6269 70.9603 33 70.5001 33H63.5634C61.8912 32.9984 60.3294 33.8343 59.4034 35.2266L49.6301 49.8858C49.4334 50.1805 49.0716 50.3187 48.7285 50.2299L45.1785 49.3133L48.6785 44.3133C48.8494 44.0694 48.8772 43.7529 48.7515 43.4831C48.6257 43.2132 48.3656 43.0308 48.069 43.0048C47.7724 42.9787 47.4844 43.1129 47.3135 43.3566L43.451 48.8708L41.6493 48.4058L44.5118 44.3125C44.7588 43.9357 44.6618 43.431 44.2927 43.1727C43.9236 42.9145 43.4162 42.9963 43.1469 43.3574L39.926 47.9608L38.1185 47.4941L40.3451 44.3125C40.5921 43.9357 40.4951 43.431 40.126 43.1727C39.7569 42.9145 39.2495 42.9963 38.9802 43.3574L36.3969 47.0499L25.2917 44.1816C24.9238 44.0867 24.6668 43.7549 24.6667 43.375V36.3333C24.6667 35.8731 25.0398 35.5 25.5 35.5H47.1175C48.4631 35.4993 49.7256 34.8495 50.5083 33.755L52.6816 30.7133C53.1514 30.057 53.9087 29.6673 54.7157 29.6667H70.4999C70.9601 29.6667 71.3332 30.0398 71.3332 30.5V32.1667H71.3334Z" fill="#1F2428" stroke="#F2F6FC" stroke-width="0.4" mask="url(#path-4-inside-1)"></path><path d="M57.266 59.6666C57.266 57.8809 58.7136 56.4333 60.4993 56.4333C62.2851 56.4333 63.7327 57.8809 63.7326 59.6666C63.7326 61.4522 62.285 62.8999 60.4993 62.8999C58.7136 62.8999 57.266 61.4523 57.266 59.6666ZM58.7326 59.6666C58.7326 60.6423 59.5236 61.4333 60.4993 61.4333C61.475 61.4333 62.266 60.6424 62.266 59.6666C62.266 58.6908 61.475 57.8999 60.4993 57.8999C59.5236 57.8999 58.7326 58.6908 58.7326 59.6666Z" fill="#1F2428" stroke="#F2F6FC" stroke-width="0.2"></path><path d="M33.8333 61.4334H33.8333C34.809 61.4334 35.6 60.6424 35.6 59.6667C35.6 58.691 34.809 57.9 33.8333 57.9C32.8576 57.9 32.0666 58.691 32.0666 59.6667C32.0666 60.6424 32.8576 61.4333 33.8333 61.4334ZM33.8333 56.4334C35.619 56.4334 37.0666 57.8809 37.0666 59.6667C37.0666 61.4524 35.619 62.9 33.8333 62.9C32.0476 62.9 30.6 61.4524 30.6 59.6667C30.6 57.881 32.0476 56.4334 33.8333 56.4334Z" fill="#1F2428" stroke="#F2F6FC" stroke-width="0.2"></path><path d="M28.0006 38.7334H27.9006V38.8334V40.5001C27.9006 40.905 27.5723 41.2334 27.1673 41.2334C26.7623 41.2334 26.434 40.905 26.434 40.5001V38.0001C26.434 37.5951 26.7623 37.2667 27.1673 37.2667H29.6673C30.0723 37.2667 30.4006 37.5951 30.4006 38.0001C30.4006 38.405 30.0723 38.7334 29.6673 38.7334H28.0006Z" fill="#1F2428" stroke="#F2F6FC" stroke-width="0.2"></path></svg> 