<?xml version="1.0" encoding="UTF-8"?> <svg xmlns="http://www.w3.org/2000/svg" width="120" height="120" viewBox="0 0 120 120" fill="none"><rect width="120" height="120" rx="6" fill="#F2F6FC"></rect><path d="M79.7416 72.7742C74.2873 72.7742 69.6336 76.4883 68.4247 81.8066L68.4235 82.0646H74.53C75.431 80 77.4632 78.6317 79.7915 78.6317C82.9663 78.6317 85.548 81.2134 85.548 84.3871C85.548 87.5608 82.9663 90.1426 79.7926 90.1426C77.4632 90.1426 75.4321 88.7743 74.5311 86.7097H68.3958L68.4247 86.9677C69.6336 92.286 74.2873 96 79.7416 96C86.1451 96 91.3545 90.7907 91.3545 84.3871C91.3545 77.9836 86.1451 72.7742 79.7416 72.7742V72.7742Z" fill="#3693E7"></path><path d="M42.4143 74.9862L42.1461 74.8785L39.9199 80.5177C40.8697 81.5746 41.4191 82.9508 41.4191 84.3871C41.4191 87.5886 38.8141 90.1936 35.6127 90.1936C32.4112 90.1936 29.8062 87.5886 29.8062 84.3871C29.8062 81.3518 32.1566 78.8801 35.1284 78.6294L37.3988 72.954L37.3966 72.9528L37.1176 72.8808C36.5556 72.8077 36.0759 72.7742 35.6127 72.7742C29.2091 72.7742 23.9998 77.9836 23.9998 84.3871C23.9998 90.7907 29.2091 96 35.6127 96C42.0162 96 47.2256 90.7907 47.2256 84.3871C47.2256 80.685 45.4269 77.171 42.4143 74.9862V74.9862Z" fill="#3693E7"></path><path d="M72.7741 65.8065H51.8708V62.3226C51.8708 57.8413 55.5175 54.1936 59.9999 54.1936H64.645C69.1275 54.1936 72.7741 57.8413 72.7741 62.3226V65.8065Z" fill="#3693E7"></path><mask id="path-5-inside-1" fill="white"><path d="M96.0001 53.0322H93.445L79.5096 58.8387H79.1614L77.8771 57.1256C74.3189 52.3807 68.6531 49.5483 62.7207 49.5483C58.8819 49.5483 55.2189 50.6875 52.1115 52.7986L56.1448 42.5806H65.8066C67.7271 42.5806 69.2904 41.0173 69.2904 39.0967C69.2904 37.1762 67.7271 35.6128 65.8066 35.6128H58.8388V29.8064H56.5162V35.6128H53.4435C52.0117 35.6128 50.741 36.4725 50.208 37.8033L48.1989 42.8244C47.3501 41.9625 46.1831 41.4193 44.9033 41.4193H35.613V50.7096H44.9033C44.9532 50.7096 45.0009 50.6994 45.0508 50.6966L34.2878 77.6053C31.0297 78.2302 28.6453 81.0064 28.6453 84.387C28.6453 88.2298 31.7702 91.3548 35.613 91.3548C39.4558 91.3548 42.5807 88.2298 42.5807 84.387C42.5807 82.9366 42.092 81.5382 41.2346 80.3526L46.2852 67.5597C48.2454 68.5191 49.5485 70.5338 49.5485 72.7741V82.0645C49.5485 85.2659 52.1535 87.8709 55.3549 87.8709H73.7286C74.9659 90.0041 77.242 91.3548 79.742 91.3548C83.5848 91.3548 86.7098 88.2298 86.7098 84.387C86.7098 80.5442 83.5848 77.4193 79.742 77.4193C77.242 77.4193 74.9659 78.77 73.7286 80.9032H66.5244L65.8066 79.468C65.6926 79.2401 65.5627 79.0251 65.4232 78.8187C66.7518 77.979 67.688 76.6317 68.0027 75.0791C68.0458 75.0803 68.086 75.0967 68.1291 75.0967C70.0497 75.0967 71.613 73.5334 71.613 71.6128C71.613 69.6923 70.0497 68.129 68.1291 68.129C67.1708 68.129 66.2851 68.5299 65.6449 69.1871C64.702 68.5248 63.5594 68.129 62.3227 68.129C59.1212 68.129 56.5162 70.7339 56.5162 73.9354C56.5162 75.0003 56.8134 76.0278 57.3594 76.9237C55.4899 77.8882 54.1937 79.8184 54.1937 82.0645C54.1937 83.3766 54.6478 84.5753 55.385 85.5483H55.3549C53.4344 85.5483 51.8711 83.985 51.8711 82.0645V72.7741C51.8711 69.5772 49.9772 66.7029 47.1397 65.393L50.2873 57.4205L50.9678 56.7389C54.1063 53.5998 58.2814 51.8709 62.7207 51.8709C67.925 51.8709 72.8962 54.3574 76.0189 58.5194L78.0001 61.1612H79.9745L93.0515 55.7126L88.5424 61.2622L81.3887 63.6466C79.0151 64.437 77.4195 66.6518 77.4195 69.1542V73.0134C78.1719 72.8626 78.9465 72.7741 79.742 72.7741C80.5143 72.7741 81.2691 72.853 81.9994 72.9981L87.4543 66.285L92.9948 76.258H96.0001V69.7802C96.0001 67.7099 95.3928 65.7055 94.244 63.9834L92.0274 60.6571L96.0001 55.767V53.0322ZM79.742 79.7419C82.3039 79.7419 84.3872 81.8252 84.3872 84.387C84.3872 86.9489 82.3039 89.0322 79.742 89.0322C78.591 89.0322 77.5079 88.6047 76.6761 87.8709H78.5807C80.5013 87.8709 82.0646 86.3076 82.0646 84.387C82.0646 82.4665 80.5013 80.9032 78.5807 80.9032H76.6761C77.5079 80.1694 78.591 79.7419 79.742 79.7419ZM68.1291 70.4516C68.7688 70.4516 69.2904 70.9721 69.2904 71.6128C69.2904 72.2933 68.6633 72.8184 68.0061 72.7509C67.8655 72.0784 67.5961 71.4563 67.244 70.8904C67.4589 70.6245 67.7759 70.4516 68.1291 70.4516V70.4516ZM58.8388 73.9354C58.8388 72.0149 60.4021 70.4516 62.3227 70.4516C64.2432 70.4516 65.8066 72.0149 65.8066 73.9354C65.8066 75.3428 64.9498 76.588 63.6734 77.1233C62.7746 76.567 61.7222 76.258 60.6131 76.258H60.0001C59.9315 76.258 59.868 76.2756 59.7994 76.2779C59.1955 75.6343 58.8388 74.8087 58.8388 73.9354ZM56.5162 82.0645C56.5162 80.1439 58.0795 78.5806 60.0001 78.5806H60.6131C61.9416 78.5806 63.1358 79.3194 63.7289 80.5062L65.0887 83.2257H78.5807C79.2204 83.2257 79.742 83.7463 79.742 84.387C79.742 85.0278 79.2204 85.5483 78.5807 85.5483H60.0001C58.0795 85.5483 56.5162 83.985 56.5162 82.0645ZM52.3644 38.6658C52.5424 38.2223 52.966 37.9354 53.4435 37.9354H65.8066C66.4462 37.9354 66.9678 38.456 66.9678 39.0967C66.9678 39.7375 66.4462 40.258 65.8066 40.258H54.5651L37.3419 83.8886C37.2228 84.192 36.9359 84.387 36.6104 84.387H35.2376C34.805 84.387 34.4517 84.0338 34.4517 83.6011C34.4517 83.4996 34.4704 83.4021 34.5073 83.3108L52.3644 38.6658ZM37.9356 43.7419H40.2582V48.387H37.9356V43.7419ZM44.9033 48.387H42.5807V43.7419H44.9033C45.9626 43.7419 46.8755 44.4711 47.1409 45.4725L46.1276 48.006C45.7579 48.2396 45.3468 48.387 44.9033 48.387ZM40.2582 84.387C40.2582 86.9489 38.1749 89.0322 35.613 89.0322C33.0511 89.0322 30.9678 86.9489 30.9678 84.387C30.9678 82.7426 31.8246 81.3177 33.13 80.4989L32.352 82.4444C32.2034 82.8146 32.1291 83.2025 32.1291 83.6011C32.1291 85.3147 33.524 86.7096 35.2376 86.7096H36.6104C37.8948 86.7096 39.0305 85.9373 39.5023 84.7426L40.092 83.249C40.1896 83.6204 40.2582 83.9992 40.2582 84.387ZM79.742 72.0937V69.1542C79.742 67.6527 80.6992 66.3241 82.1236 65.8484L85.8167 64.6173L79.742 72.0937ZM92.3121 65.2711C93.2046 66.6099 93.6775 68.1698 93.6775 69.7802V72.7055L89.0324 64.3446L90.4942 62.5442L92.3121 65.2711Z"></path></mask><path d="M96.0001 53.0322H93.445L79.5096 58.8387H79.1614L77.8771 57.1256C74.3189 52.3807 68.6531 49.5483 62.7207 49.5483C58.8819 49.5483 55.2189 50.6875 52.1115 52.7986L56.1448 42.5806H65.8066C67.7271 42.5806 69.2904 41.0173 69.2904 39.0967C69.2904 37.1762 67.7271 35.6128 65.8066 35.6128H58.8388V29.8064H56.5162V35.6128H53.4435C52.0117 35.6128 50.741 36.4725 50.208 37.8033L48.1989 42.8244C47.3501 41.9625 46.1831 41.4193 44.9033 41.4193H35.613V50.7096H44.9033C44.9532 50.7096 45.0009 50.6994 45.0508 50.6966L34.2878 77.6053C31.0297 78.2302 28.6453 81.0064 28.6453 84.387C28.6453 88.2298 31.7702 91.3548 35.613 91.3548C39.4558 91.3548 42.5807 88.2298 42.5807 84.387C42.5807 82.9366 42.092 81.5382 41.2346 80.3526L46.2852 67.5597C48.2454 68.5191 49.5485 70.5338 49.5485 72.7741V82.0645C49.5485 85.2659 52.1535 87.8709 55.3549 87.8709H73.7286C74.9659 90.0041 77.242 91.3548 79.742 91.3548C83.5848 91.3548 86.7098 88.2298 86.7098 84.387C86.7098 80.5442 83.5848 77.4193 79.742 77.4193C77.242 77.4193 74.9659 78.77 73.7286 80.9032H66.5244L65.8066 79.468C65.6926 79.2401 65.5627 79.0251 65.4232 78.8187C66.7518 77.979 67.688 76.6317 68.0027 75.0791C68.0458 75.0803 68.086 75.0967 68.1291 75.0967C70.0497 75.0967 71.613 73.5334 71.613 71.6128C71.613 69.6923 70.0497 68.129 68.1291 68.129C67.1708 68.129 66.2851 68.5299 65.6449 69.1871C64.702 68.5248 63.5594 68.129 62.3227 68.129C59.1212 68.129 56.5162 70.7339 56.5162 73.9354C56.5162 75.0003 56.8134 76.0278 57.3594 76.9237C55.4899 77.8882 54.1937 79.8184 54.1937 82.0645C54.1937 83.3766 54.6478 84.5753 55.385 85.5483H55.3549C53.4344 85.5483 51.8711 83.985 51.8711 82.0645V72.7741C51.8711 69.5772 49.9772 66.7029 47.1397 65.393L50.2873 57.4205L50.9678 56.7389C54.1063 53.5998 58.2814 51.8709 62.7207 51.8709C67.925 51.8709 72.8962 54.3574 76.0189 58.5194L78.0001 61.1612H79.9745L93.0515 55.7126L88.5424 61.2622L81.3887 63.6466C79.0151 64.437 77.4195 66.6518 77.4195 69.1542V73.0134C78.1719 72.8626 78.9465 72.7741 79.742 72.7741C80.5143 72.7741 81.2691 72.853 81.9994 72.9981L87.4543 66.285L92.9948 76.258H96.0001V69.7802C96.0001 67.7099 95.3928 65.7055 94.244 63.9834L92.0274 60.6571L96.0001 55.767V53.0322ZM79.742 79.7419C82.3039 79.7419 84.3872 81.8252 84.3872 84.387C84.3872 86.9489 82.3039 89.0322 79.742 89.0322C78.591 89.0322 77.5079 88.6047 76.6761 87.8709H78.5807C80.5013 87.8709 82.0646 86.3076 82.0646 84.387C82.0646 82.4665 80.5013 80.9032 78.5807 80.9032H76.6761C77.5079 80.1694 78.591 79.7419 79.742 79.7419ZM68.1291 70.4516C68.7688 70.4516 69.2904 70.9721 69.2904 71.6128C69.2904 72.2933 68.6633 72.8184 68.0061 72.7509C67.8655 72.0784 67.5961 71.4563 67.244 70.8904C67.4589 70.6245 67.7759 70.4516 68.1291 70.4516V70.4516ZM58.8388 73.9354C58.8388 72.0149 60.4021 70.4516 62.3227 70.4516C64.2432 70.4516 65.8066 72.0149 65.8066 73.9354C65.8066 75.3428 64.9498 76.588 63.6734 77.1233C62.7746 76.567 61.7222 76.258 60.6131 76.258H60.0001C59.9315 76.258 59.868 76.2756 59.7994 76.2779C59.1955 75.6343 58.8388 74.8087 58.8388 73.9354ZM56.5162 82.0645C56.5162 80.1439 58.0795 78.5806 60.0001 78.5806H60.6131C61.9416 78.5806 63.1358 79.3194 63.7289 80.5062L65.0887 83.2257H78.5807C79.2204 83.2257 79.742 83.7463 79.742 84.387C79.742 85.0278 79.2204 85.5483 78.5807 85.5483H60.0001C58.0795 85.5483 56.5162 83.985 56.5162 82.0645ZM52.3644 38.6658C52.5424 38.2223 52.966 37.9354 53.4435 37.9354H65.8066C66.4462 37.9354 66.9678 38.456 66.9678 39.0967C66.9678 39.7375 66.4462 40.258 65.8066 40.258H54.5651L37.3419 83.8886C37.2228 84.192 36.9359 84.387 36.6104 84.387H35.2376C34.805 84.387 34.4517 84.0338 34.4517 83.6011C34.4517 83.4996 34.4704 83.4021 34.5073 83.3108L52.3644 38.6658ZM37.9356 43.7419H40.2582V48.387H37.9356V43.7419ZM44.9033 48.387H42.5807V43.7419H44.9033C45.9626 43.7419 46.8755 44.4711 47.1409 45.4725L46.1276 48.006C45.7579 48.2396 45.3468 48.387 44.9033 48.387ZM40.2582 84.387C40.2582 86.9489 38.1749 89.0322 35.613 89.0322C33.0511 89.0322 30.9678 86.9489 30.9678 84.387C30.9678 82.7426 31.8246 81.3177 33.13 80.4989L32.352 82.4444C32.2034 82.8146 32.1291 83.2025 32.1291 83.6011C32.1291 85.3147 33.524 86.7096 35.2376 86.7096H36.6104C37.8948 86.7096 39.0305 85.9373 39.5023 84.7426L40.092 83.249C40.1896 83.6204 40.2582 83.9992 40.2582 84.387ZM79.742 72.0937V69.1542C79.742 67.6527 80.6992 66.3241 82.1236 65.8484L85.8167 64.6173L79.742 72.0937ZM92.3121 65.2711C93.2046 66.6099 93.6775 68.1698 93.6775 69.7802V72.7055L89.0324 64.3446L90.4942 62.5442L92.3121 65.2711Z" fill="#1F2428" stroke="#F2F6FC" stroke-width="0.6" mask="url(#path-5-inside-1)"></path><path d="M64.6449 30.9678H56.5159V27.4839C56.5159 25.5634 58.0792 24.0001 59.9997 24.0001H68.1288V27.4839C68.1288 29.4045 66.5655 30.9678 64.6449 30.9678Z" fill="#3693E7"></path></svg> 