<?xml version="1.0" encoding="UTF-8"?> <svg xmlns="http://www.w3.org/2000/svg" width="96" height="96" viewBox="0 0 96 96" fill="none"><rect width="96" height="96" rx="6" fill="#F2F6FC"></rect><path d="M43.199 40.349C41.5178 40.349 40.1498 38.9811 40.1498 37.2997C40.1498 35.6184 41.5178 34.2503 43.199 34.2504H43.199C44.8802 34.2504 46.2482 35.6185 46.2482 37.2997C46.2482 38.981 44.8803 40.349 43.199 40.349ZM45.2061 37.2997C45.2061 36.1928 44.3058 35.2925 43.199 35.2925C42.0922 35.2925 41.192 36.1928 41.192 37.2997C41.192 38.4064 42.0922 39.3067 43.199 39.3067C44.3058 39.3067 45.2061 38.4064 45.2061 37.2997Z" fill="#1F2428" stroke="#F2F6FC" stroke-width="0.2"></path><path d="M41.1001 45.5818H45.1846C45.4724 45.5818 45.7057 45.815 45.7057 46.1029C45.7057 46.3908 45.4725 46.624 45.1846 46.624H41.1001C40.8122 46.624 40.579 46.3908 40.579 46.1029C40.579 45.815 40.8122 45.5818 41.1001 45.5818Z" fill="#1F2428" stroke="#F2F6FC" stroke-width="0.2"></path><mask id="path-4-inside-1" fill="white"><path d="M61.7224 29H57.4031C56.9869 29 56.6235 29.2272 56.428 29.5635L52.8882 29.5634C52.048 29.5629 51.5839 29.5622 51.2272 29.919C50.87 30.2761 50.8703 30.7416 50.871 31.5866L50.8711 33.3218H47.9215C47.1299 32.3811 46.0581 31.6726 44.8113 31.336C44.4495 31.2383 44.0752 31.4818 44.0315 31.8704C43.9967 32.1792 44.2105 32.4591 44.5101 32.5415C46.6451 33.1284 48.134 35.0816 48.134 37.2998C48.134 40.141 45.7185 42.4289 42.8323 42.2196C40.4156 42.0442 38.4634 40.1002 38.2803 37.6841C38.0962 35.2543 39.6738 33.0964 41.9923 32.5143C42.2942 32.4385 42.5149 32.1635 42.4869 31.8535C42.4517 31.4643 42.0838 31.2128 41.7194 31.3022C40.41 31.6242 39.2881 32.3473 38.4693 33.3219H35.5264L35.5265 31.5808C35.5272 30.7391 35.5276 30.2755 35.171 29.919C34.8144 29.5625 34.3501 29.5642 33.5095 29.5635L29.9719 29.5636C29.7764 29.2273 29.413 29.0002 28.9968 29.0002H24.7241C23.3432 29.0002 22.0927 30.1241 22.0055 31.5023C21.9073 33.0552 23.1428 34.3503 24.6752 34.3503H28.9968C29.413 34.3503 29.7764 34.1232 29.9719 33.7869H31.303L31.3029 34.8576L25.3428 35.713C25.0032 35.7618 24.7675 36.0765 24.8163 36.416C24.8607 36.7256 25.1263 36.949 25.4303 36.949C25.4596 36.949 25.4894 36.9469 25.5193 36.9426L31.3088 36.1116C31.3262 36.6027 31.3943 36.9259 31.6583 37.1898C31.9988 37.5303 32.4369 37.5453 33.2087 37.5453C33.245 37.5453 37.03 37.5451 37.03 37.5451C37.057 38.2315 37.1979 38.8888 37.4319 39.5002H33.6049C33.0579 39.5002 32.6129 39.9464 32.6129 40.4946V43.889C32.6129 44.4167 33.0188 44.6434 33.1922 44.7402C33.2175 44.7543 33.2436 44.7683 33.2728 44.7871L37.228 47.2898V48.2201C36.7968 48.341 36.4792 48.7368 36.4792 49.2062V51.7156V53.6674H33.5017C32.3114 53.6674 31.343 54.6357 31.343 55.8261C31.343 57.0151 32.3114 57.9824 33.5017 57.9824H36.4792V60.1971C36.4792 61.342 37.4118 62.2736 38.5581 62.2736C38.8548 62.2736 39.1369 62.2106 39.3924 62.0979V64.8709C39.3924 66.0354 40.3397 66.9827 41.5041 66.9827H44.8938C46.0583 66.9827 47.0056 66.0354 47.0056 64.8709V62.0974C47.2618 62.2104 47.5447 62.2736 47.8423 62.2736C48.9873 62.2736 49.9187 61.342 49.9187 60.1971V57.9824H52.8962C54.0866 57.9824 55.0549 57.0151 55.0549 55.8261C55.0549 54.6357 54.0866 53.6674 52.8962 53.6674H49.9185V51.7156V49.2063C49.9185 48.7372 49.602 48.3416 49.172 48.2205V47.2899L53.1258 44.7866C53.1512 44.7705 53.1775 44.7563 53.2031 44.7422C53.3779 44.6455 53.7871 44.419 53.7871 43.8891V40.4947C53.7871 39.9464 53.341 39.5003 52.7927 39.5003H48.968C49.2021 38.8888 49.343 38.2316 49.37 37.5452C49.37 37.5452 53.1549 37.5454 53.1913 37.5454C53.9624 37.5454 54.4003 37.5304 54.741 37.1897C55.0047 36.926 55.0734 36.6027 55.091 36.1117L60.8807 36.9427C60.9106 36.947 60.9404 36.9491 60.9698 36.9491C61.2737 36.9491 61.5393 36.7258 61.5837 36.4161C61.6325 36.0765 61.3967 35.7619 61.0572 35.7131L55.0971 34.8576V33.787H56.4282C56.6237 34.1233 56.9871 34.3504 57.4033 34.3504H61.7225C63.1989 34.3504 64.4 33.1503 64.4 31.6752C64.4 30.2 63.1987 29 61.7224 29ZM28.8827 33.1081H24.6752C23.8412 33.1081 23.1712 32.3919 23.2482 31.5422C23.3132 30.8253 23.9892 30.2422 24.709 30.2422H28.8827V33.1081ZM36.4791 56.7404H33.5015C32.9961 56.7404 32.5851 56.3303 32.5851 55.8263C32.5851 55.3209 32.9962 54.9098 33.5015 54.9098H36.4791V56.7404ZM49.9185 54.9098H52.896C53.4014 54.9098 53.8125 55.3209 53.8125 55.8263C53.8125 56.3303 53.4013 56.7404 52.896 56.7404H49.9185V54.9098ZM37.1007 36.3273C37.1007 36.3273 32.9238 36.3292 32.7587 36.3219C32.6712 36.318 32.5596 36.2218 32.5577 36.1342C32.5446 35.5001 32.5451 33.1659 32.5451 33.1659C32.5451 32.8228 32.2671 32.5448 31.924 32.5448H30.1249V30.8056L34.1115 30.8053C34.1977 30.8093 34.2729 30.8854 34.2769 30.9715C34.2846 31.1371 34.2841 33.9429 34.2841 33.9429C34.2841 34.286 34.5621 34.564 34.9052 34.564L37.659 34.5622C37.3885 35.1115 37.1987 35.7055 37.1007 36.3273ZM39.3922 60.1973C39.3922 60.6574 39.0179 61.0317 38.5579 61.0317C38.0966 61.0317 37.7212 60.6573 37.7212 60.1973V52.3369H39.3922V60.1973ZM45.7631 54.0244H44.7644C44.4213 54.0244 44.1433 54.3024 44.1433 54.6455C44.1433 54.9886 44.4213 55.2666 44.7644 55.2666H45.7631V56.9518H44.7644C44.4213 56.9518 44.1433 57.2298 44.1433 57.5728C44.1433 57.9159 44.4213 58.1939 44.7644 58.1939H45.7631V59.8815H44.7644C44.4213 59.8815 44.1433 60.1595 44.1433 60.5026C44.1433 60.8457 44.4213 61.1237 44.7644 61.1237H45.7631V62.8111H44.7644C44.4213 62.8111 44.1433 63.0891 44.1433 63.4322C44.1433 63.7753 44.4213 64.0533 44.7644 64.0533H45.7631V64.8712C45.7631 65.3507 45.3731 65.7409 44.8936 65.7409H41.5039C41.0244 65.7409 40.6344 65.3507 40.6344 64.8712V64.0533H41.6331C41.9762 64.0533 42.2542 63.7753 42.2542 63.4322C42.2542 63.0891 41.9762 62.8111 41.6331 62.8111H40.6344V61.1237H41.6331C41.9762 61.1237 42.2542 60.8457 42.2542 60.5026C42.2542 60.1595 41.9762 59.8815 41.6331 59.8815H40.6344V58.1939H41.6331C41.9762 58.1939 42.2542 57.9159 42.2542 57.5728C42.2542 57.2298 41.9762 56.9518 41.6331 56.9518H40.6344V55.2666H41.6331C41.9762 55.2666 42.2542 54.9886 42.2542 54.6455C42.2542 54.3024 41.9762 54.0244 41.6331 54.0244H40.6344V52.3369H45.7632V54.0244H45.7631ZM48.6763 60.1973C48.6763 60.6574 48.302 61.0317 47.842 61.0317C47.3807 61.0317 47.0053 60.6573 47.0053 60.1973V52.3369H48.6763V60.1973ZM52.5449 40.7426V43.6872C52.5165 43.7035 52.4881 43.7202 52.4605 43.7377L48.2187 46.4233C48.0388 46.5371 47.9298 46.7352 47.9298 46.948V48.1815H44.5908C44.2477 48.1815 43.9697 48.4595 43.9697 48.8026C43.9697 49.1457 44.2477 49.4237 44.5908 49.4237H48.6763V51.0948H37.7212V49.4237H41.7246C42.0677 49.4237 42.3457 49.1457 42.3457 48.8026C42.3457 48.4595 42.0677 48.1815 41.7246 48.1815H38.47V46.948C38.47 46.7351 38.361 46.537 38.1811 46.4232L33.9412 43.7404C33.9128 43.722 33.884 43.7048 33.855 43.6881V40.7426H38.0728C38.0764 40.7455 38.0802 40.7486 38.084 40.7515C39.1946 42.393 41.0719 43.4751 43.1988 43.4751C45.3143 43.4751 47.183 42.4055 48.2965 40.78C48.3067 40.7674 48.3172 40.7553 48.3273 40.7426H52.5449ZM54.4759 32.5448C54.1329 32.5448 53.8548 32.8229 53.8548 33.1659C53.8548 33.1659 53.855 35.6828 53.8547 35.7605C53.8535 36.0595 53.6072 36.2932 53.3082 36.2943C53.2325 36.2945 49.2936 36.295 49.2936 36.295C49.1988 35.7212 49.0237 35.1707 48.7796 34.6566C48.767 34.6256 48.7536 34.5947 48.7383 34.5639H51.4922C51.8352 34.5639 52.1133 34.2858 52.1133 33.9428C52.1133 33.9428 52.1129 31.1384 52.1208 30.9715C52.1248 30.8854 52.1933 30.8169 52.2795 30.8129C52.445 30.8052 56.274 30.8052 56.274 30.8052L56.275 32.5447H54.4759V32.5448ZM61.7224 33.1081H57.5172V30.2422H61.7224C62.5138 30.2422 63.1577 30.8851 63.1577 31.6752C63.1577 32.4654 62.5138 33.1081 61.7224 33.1081Z"></path></mask><path d="M61.7224 29H57.4031C56.9869 29 56.6235 29.2272 56.428 29.5635L52.8882 29.5634C52.048 29.5629 51.5839 29.5622 51.2272 29.919C50.87 30.2761 50.8703 30.7416 50.871 31.5866L50.8711 33.3218H47.9215C47.1299 32.3811 46.0581 31.6726 44.8113 31.336C44.4495 31.2383 44.0752 31.4818 44.0315 31.8704C43.9967 32.1792 44.2105 32.4591 44.5101 32.5415C46.6451 33.1284 48.134 35.0816 48.134 37.2998C48.134 40.141 45.7185 42.4289 42.8323 42.2196C40.4156 42.0442 38.4634 40.1002 38.2803 37.6841C38.0962 35.2543 39.6738 33.0964 41.9923 32.5143C42.2942 32.4385 42.5149 32.1635 42.4869 31.8535C42.4517 31.4643 42.0838 31.2128 41.7194 31.3022C40.41 31.6242 39.2881 32.3473 38.4693 33.3219H35.5264L35.5265 31.5808C35.5272 30.7391 35.5276 30.2755 35.171 29.919C34.8144 29.5625 34.3501 29.5642 33.5095 29.5635L29.9719 29.5636C29.7764 29.2273 29.413 29.0002 28.9968 29.0002H24.7241C23.3432 29.0002 22.0927 30.1241 22.0055 31.5023C21.9073 33.0552 23.1428 34.3503 24.6752 34.3503H28.9968C29.413 34.3503 29.7764 34.1232 29.9719 33.7869H31.303L31.3029 34.8576L25.3428 35.713C25.0032 35.7618 24.7675 36.0765 24.8163 36.416C24.8607 36.7256 25.1263 36.949 25.4303 36.949C25.4596 36.949 25.4894 36.9469 25.5193 36.9426L31.3088 36.1116C31.3262 36.6027 31.3943 36.9259 31.6583 37.1898C31.9988 37.5303 32.4369 37.5453 33.2087 37.5453C33.245 37.5453 37.03 37.5451 37.03 37.5451C37.057 38.2315 37.1979 38.8888 37.4319 39.5002H33.6049C33.0579 39.5002 32.6129 39.9464 32.6129 40.4946V43.889C32.6129 44.4167 33.0188 44.6434 33.1922 44.7402C33.2175 44.7543 33.2436 44.7683 33.2728 44.7871L37.228 47.2898V48.2201C36.7968 48.341 36.4792 48.7368 36.4792 49.2062V51.7156V53.6674H33.5017C32.3114 53.6674 31.343 54.6357 31.343 55.8261C31.343 57.0151 32.3114 57.9824 33.5017 57.9824H36.4792V60.1971C36.4792 61.342 37.4118 62.2736 38.5581 62.2736C38.8548 62.2736 39.1369 62.2106 39.3924 62.0979V64.8709C39.3924 66.0354 40.3397 66.9827 41.5041 66.9827H44.8938C46.0583 66.9827 47.0056 66.0354 47.0056 64.8709V62.0974C47.2618 62.2104 47.5447 62.2736 47.8423 62.2736C48.9873 62.2736 49.9187 61.342 49.9187 60.1971V57.9824H52.8962C54.0866 57.9824 55.0549 57.0151 55.0549 55.8261C55.0549 54.6357 54.0866 53.6674 52.8962 53.6674H49.9185V51.7156V49.2063C49.9185 48.7372 49.602 48.3416 49.172 48.2205V47.2899L53.1258 44.7866C53.1512 44.7705 53.1775 44.7563 53.2031 44.7422C53.3779 44.6455 53.7871 44.419 53.7871 43.8891V40.4947C53.7871 39.9464 53.341 39.5003 52.7927 39.5003H48.968C49.2021 38.8888 49.343 38.2316 49.37 37.5452C49.37 37.5452 53.1549 37.5454 53.1913 37.5454C53.9624 37.5454 54.4003 37.5304 54.741 37.1897C55.0047 36.926 55.0734 36.6027 55.091 36.1117L60.8807 36.9427C60.9106 36.947 60.9404 36.9491 60.9698 36.9491C61.2737 36.9491 61.5393 36.7258 61.5837 36.4161C61.6325 36.0765 61.3967 35.7619 61.0572 35.7131L55.0971 34.8576V33.787H56.4282C56.6237 34.1233 56.9871 34.3504 57.4033 34.3504H61.7225C63.1989 34.3504 64.4 33.1503 64.4 31.6752C64.4 30.2 63.1987 29 61.7224 29ZM28.8827 33.1081H24.6752C23.8412 33.1081 23.1712 32.3919 23.2482 31.5422C23.3132 30.8253 23.9892 30.2422 24.709 30.2422H28.8827V33.1081ZM36.4791 56.7404H33.5015C32.9961 56.7404 32.5851 56.3303 32.5851 55.8263C32.5851 55.3209 32.9962 54.9098 33.5015 54.9098H36.4791V56.7404ZM49.9185 54.9098H52.896C53.4014 54.9098 53.8125 55.3209 53.8125 55.8263C53.8125 56.3303 53.4013 56.7404 52.896 56.7404H49.9185V54.9098ZM37.1007 36.3273C37.1007 36.3273 32.9238 36.3292 32.7587 36.3219C32.6712 36.318 32.5596 36.2218 32.5577 36.1342C32.5446 35.5001 32.5451 33.1659 32.5451 33.1659C32.5451 32.8228 32.2671 32.5448 31.924 32.5448H30.1249V30.8056L34.1115 30.8053C34.1977 30.8093 34.2729 30.8854 34.2769 30.9715C34.2846 31.1371 34.2841 33.9429 34.2841 33.9429C34.2841 34.286 34.5621 34.564 34.9052 34.564L37.659 34.5622C37.3885 35.1115 37.1987 35.7055 37.1007 36.3273ZM39.3922 60.1973C39.3922 60.6574 39.0179 61.0317 38.5579 61.0317C38.0966 61.0317 37.7212 60.6573 37.7212 60.1973V52.3369H39.3922V60.1973ZM45.7631 54.0244H44.7644C44.4213 54.0244 44.1433 54.3024 44.1433 54.6455C44.1433 54.9886 44.4213 55.2666 44.7644 55.2666H45.7631V56.9518H44.7644C44.4213 56.9518 44.1433 57.2298 44.1433 57.5728C44.1433 57.9159 44.4213 58.1939 44.7644 58.1939H45.7631V59.8815H44.7644C44.4213 59.8815 44.1433 60.1595 44.1433 60.5026C44.1433 60.8457 44.4213 61.1237 44.7644 61.1237H45.7631V62.8111H44.7644C44.4213 62.8111 44.1433 63.0891 44.1433 63.4322C44.1433 63.7753 44.4213 64.0533 44.7644 64.0533H45.7631V64.8712C45.7631 65.3507 45.3731 65.7409 44.8936 65.7409H41.5039C41.0244 65.7409 40.6344 65.3507 40.6344 64.8712V64.0533H41.6331C41.9762 64.0533 42.2542 63.7753 42.2542 63.4322C42.2542 63.0891 41.9762 62.8111 41.6331 62.8111H40.6344V61.1237H41.6331C41.9762 61.1237 42.2542 60.8457 42.2542 60.5026C42.2542 60.1595 41.9762 59.8815 41.6331 59.8815H40.6344V58.1939H41.6331C41.9762 58.1939 42.2542 57.9159 42.2542 57.5728C42.2542 57.2298 41.9762 56.9518 41.6331 56.9518H40.6344V55.2666H41.6331C41.9762 55.2666 42.2542 54.9886 42.2542 54.6455C42.2542 54.3024 41.9762 54.0244 41.6331 54.0244H40.6344V52.3369H45.7632V54.0244H45.7631ZM48.6763 60.1973C48.6763 60.6574 48.302 61.0317 47.842 61.0317C47.3807 61.0317 47.0053 60.6573 47.0053 60.1973V52.3369H48.6763V60.1973ZM52.5449 40.7426V43.6872C52.5165 43.7035 52.4881 43.7202 52.4605 43.7377L48.2187 46.4233C48.0388 46.5371 47.9298 46.7352 47.9298 46.948V48.1815H44.5908C44.2477 48.1815 43.9697 48.4595 43.9697 48.8026C43.9697 49.1457 44.2477 49.4237 44.5908 49.4237H48.6763V51.0948H37.7212V49.4237H41.7246C42.0677 49.4237 42.3457 49.1457 42.3457 48.8026C42.3457 48.4595 42.0677 48.1815 41.7246 48.1815H38.47V46.948C38.47 46.7351 38.361 46.537 38.1811 46.4232L33.9412 43.7404C33.9128 43.722 33.884 43.7048 33.855 43.6881V40.7426H38.0728C38.0764 40.7455 38.0802 40.7486 38.084 40.7515C39.1946 42.393 41.0719 43.4751 43.1988 43.4751C45.3143 43.4751 47.183 42.4055 48.2965 40.78C48.3067 40.7674 48.3172 40.7553 48.3273 40.7426H52.5449ZM54.4759 32.5448C54.1329 32.5448 53.8548 32.8229 53.8548 33.1659C53.8548 33.1659 53.855 35.6828 53.8547 35.7605C53.8535 36.0595 53.6072 36.2932 53.3082 36.2943C53.2325 36.2945 49.2936 36.295 49.2936 36.295C49.1988 35.7212 49.0237 35.1707 48.7796 34.6566C48.767 34.6256 48.7536 34.5947 48.7383 34.5639H51.4922C51.8352 34.5639 52.1133 34.2858 52.1133 33.9428C52.1133 33.9428 52.1129 31.1384 52.1208 30.9715C52.1248 30.8854 52.1933 30.8169 52.2795 30.8129C52.445 30.8052 56.274 30.8052 56.274 30.8052L56.275 32.5447H54.4759V32.5448ZM61.7224 33.1081H57.5172V30.2422H61.7224C62.5138 30.2422 63.1577 30.8851 63.1577 31.6752C63.1577 32.4654 62.5138 33.1081 61.7224 33.1081Z" fill="#1F2428" stroke="#F2F6FC" stroke-width="0.4" mask="url(#path-4-inside-1)"></path><rect x="54.2998" y="42.991" width="15.3818" height="17.3091" rx="3.5" fill="#3693E7" stroke="#1F2428"></rect><rect x="69.7183" y="54.5546" width="4.78182" height="9.6" rx="0.5" fill="#F2F6FC" stroke="#1F2428"></rect><path d="M58.1362 48.7545H66.3271" stroke="#1F2428" stroke-linecap="round" stroke-linejoin="round"></path><path d="M58.1362 53.0909H66.3271" stroke="#1F2428" stroke-linecap="round" stroke-linejoin="round"></path><path d="M70.1816 57.9091H71.1453" stroke="#1F2428" stroke-linecap="round" stroke-linejoin="round"></path><path d="M73.0728 57.9091H74.0364" stroke="#1F2428" stroke-linecap="round" stroke-linejoin="round"></path><path d="M70.1816 60.8H71.1453" stroke="#1F2428" stroke-linecap="round" stroke-linejoin="round"></path><path d="M73.0728 60.8H74.0364" stroke="#1F2428" stroke-linecap="round" stroke-linejoin="round"></path></svg> 