<?xml version="1.0" encoding="UTF-8"?> <svg xmlns="http://www.w3.org/2000/svg" width="96" height="96" viewBox="0 0 96 96" fill="none"><rect width="96" height="96" rx="6" transform="matrix(-1 0 0 1 96 0)" fill="#F2F6FC"></rect><circle cx="32.5459" cy="60.4546" r="5" fill="#3693E7"></circle><circle cx="63.4541" cy="60.4546" r="5" fill="#3693E7"></circle><path d="M23.9092 32.9091C23.9092 31.8045 24.8046 30.9091 25.9092 30.9091H70.091C71.1956 30.9091 72.091 31.8045 72.091 32.9091V35.4545H23.9092V32.9091Z" fill="#3693E7"></path><path d="M32.6772 61.6015L32.6773 61.6015C32.9309 61.6012 33.1739 61.5004 33.3532 61.3211C33.5325 61.1418 33.6333 60.8988 33.6336 60.6452V60.6451C33.6336 60.4559 33.5775 60.271 33.4724 60.1137C33.3673 59.9564 33.218 59.8338 33.0432 59.7614C32.8684 59.689 32.6761 59.6701 32.4906 59.707C32.305 59.7439 32.1346 59.835 32.0009 59.9687C31.8671 60.1025 31.776 60.2729 31.7391 60.4585C31.7022 60.644 31.7211 60.8363 31.7935 61.0111C31.8659 61.1858 31.9885 61.3352 32.1458 61.4403C32.3031 61.5454 32.488 61.6015 32.6772 61.6015ZM31.4164 58.7582C31.7896 58.5088 32.2283 58.3757 32.6771 58.3757C33.2788 58.3764 33.8556 58.6158 34.281 59.0412C34.7065 59.4667 34.9458 60.0435 34.9465 60.6452C34.9465 61.094 34.8134 61.5327 34.5641 61.9058C34.3147 62.279 33.9603 62.5699 33.5456 62.7417C33.1309 62.9134 32.6747 62.9584 32.2344 62.8708C31.7942 62.7832 31.3899 62.5671 31.0725 62.2497C30.7551 61.9324 30.539 61.528 30.4514 61.0878C30.3639 60.6476 30.4088 60.1913 30.5806 59.7766C30.7523 59.3619 31.0432 59.0075 31.4164 58.7582Z" fill="#1F2428" stroke="#F2F6FC" stroke-width="0.3"></path><path d="M63.3227 61.6015L63.3228 61.6015C63.5764 61.6012 63.8194 61.5004 63.9987 61.3211C64.178 61.1418 64.2788 60.8988 64.2791 60.6452V60.6451C64.2791 60.4559 64.223 60.271 64.1179 60.1137C64.0128 59.9564 63.8635 59.8338 63.6887 59.7614C63.5139 59.689 63.3216 59.6701 63.1361 59.707C62.9505 59.7439 62.7801 59.835 62.6464 59.9687C62.5126 60.1025 62.4215 60.2729 62.3846 60.4585C62.3477 60.644 62.3666 60.8363 62.439 61.0111C62.5114 61.1858 62.634 61.3352 62.7913 61.4403C62.9486 61.5454 63.1335 61.6015 63.3227 61.6015ZM62.0619 58.7582C62.4351 58.5088 62.8738 58.3757 63.3226 58.3757C63.9243 58.3764 64.5011 58.6158 64.9265 59.0412C65.352 59.4667 65.5913 60.0435 65.592 60.6452C65.592 61.094 65.4589 61.5327 65.2096 61.9058C64.9602 62.279 64.6058 62.5699 64.1911 62.7417C63.7764 62.9134 63.3202 62.9584 62.8799 62.8708C62.4397 62.7832 62.0354 62.5671 61.718 62.2497C61.4006 61.9324 61.1845 61.528 61.0969 61.0878C61.0094 60.6476 61.0543 60.1913 61.2261 59.7766C61.3978 59.3619 61.6887 59.0075 62.0619 58.7582Z" fill="#1F2428" stroke="#F2F6FC" stroke-width="0.3"></path><path d="M58.4842 50.8176H60.9035C61.0776 50.8176 61.2446 50.7485 61.3677 50.6254C61.4908 50.5023 61.56 50.3353 61.56 50.1612C61.56 49.9871 61.4908 49.8201 61.3677 49.697C61.2446 49.5739 61.0776 49.5047 60.9035 49.5047H58.4842C58.3101 49.5047 58.1431 49.5739 58.02 49.697C57.8969 49.8201 57.8277 49.9871 57.8277 50.1612C57.8277 50.3353 57.8969 50.5023 58.02 50.6254M58.4842 50.8176L58.02 50.6254M58.4842 50.8176C58.3101 50.8176 58.1431 50.7485 58.02 50.6254M58.4842 50.8176L58.02 50.6254" fill="#1F2428" stroke="#F2F6FC" stroke-width="0.3"></path><path d="M47.8496 46.9354V47.0854H47.9996H54.4512H54.6012V46.9354V42.0967V41.9467H54.4512H47.9996H47.8496V42.0967V46.9354ZM54.6012 39.6774V39.5274H54.4512H47.9996H47.8496V39.6774V40.4838V40.6338H47.9996H54.4512H54.6012V40.4838V39.6774ZM55.2577 48.3983H47.1932C47.0191 48.3983 46.8521 48.3292 46.729 48.2061C46.6059 48.0829 46.5367 47.916 46.5367 47.7419V38.8709C46.5367 38.6968 46.6059 38.5298 46.729 38.4067C46.8521 38.2836 47.0191 38.2145 47.1932 38.2145H55.2577C55.4318 38.2145 55.5988 38.2836 55.7219 38.4067C55.845 38.5298 55.9141 38.6968 55.9141 38.8709V47.7419C55.9141 47.916 55.845 48.0829 55.7219 48.2061C55.5988 48.3292 55.4318 48.3983 55.2577 48.3983Z" fill="#1F2428" stroke="#F2F6FC" stroke-width="0.3"></path><path d="M36.5596 46.9354V47.0854H36.7096H43.1612H43.3112V46.9354V42.0967V41.9467H43.1612H36.7096H36.5596V42.0967V46.9354ZM43.3112 39.6774V39.5274H43.1612H36.7096H36.5596V39.6774V40.4838V40.6338H36.7096H43.1612H43.3112V40.4838V39.6774ZM43.9676 48.3983H35.9031C35.729 48.3983 35.5621 48.3292 35.4389 48.2061C35.3158 48.0829 35.2467 47.916 35.2467 47.7419V38.8709C35.2467 38.6968 35.3158 38.5298 35.4389 38.4067C35.5621 38.2836 35.729 38.2145 35.9031 38.2145H43.9676C44.1418 38.2145 44.3087 38.2836 44.4318 38.4067C44.5549 38.5298 44.6241 38.6968 44.6241 38.8709V47.7419C44.6241 47.916 44.5549 48.0829 44.4318 48.2061C44.3087 48.3292 44.1417 48.3983 43.9676 48.3983Z" fill="#1F2428" stroke="#F2F6FC" stroke-width="0.3"></path><mask id="path-10-inside-1" fill="white"><path d="M73 35.6452V32.8226C72.9992 32.0742 72.7015 31.3568 72.1724 30.8276C71.6432 30.2985 70.9258 30.0008 70.1774 30H25.8226C25.0742 30.0008 24.3568 30.2985 23.8276 30.8276C23.2985 31.3568 23.0008 32.0742 23 32.8226V58.629C23.0008 59.3774 23.2985 60.0948 23.8276 60.624C24.3568 61.1531 25.0742 61.4508 25.8226 61.4516H27.0907C27.2846 62.7951 27.9561 64.0237 28.9821 64.9123C30.0082 65.8009 31.3201 66.29 32.6774 66.29C34.0348 66.29 35.3467 65.8009 36.3727 64.9123C37.3988 64.0237 38.0703 62.7951 38.2641 61.4516H57.7359C57.9297 62.7951 58.6012 64.0237 59.6273 64.9123C60.6533 65.8009 61.9652 66.29 63.3226 66.29C64.6799 66.29 65.9918 65.8009 67.0179 64.9123C68.0439 64.0237 68.7154 62.7951 68.9093 61.4516H70.1774C70.9258 61.4508 71.6432 61.1531 72.1724 60.624C72.7015 60.0948 72.9992 59.3774 73 58.629V47.7419C72.9998 47.6242 72.974 47.508 72.9244 47.4012L67.8145 36.4516H72.1936C72.4074 36.4516 72.6126 36.3666 72.7638 36.2154C72.915 36.0642 73 35.859 73 35.6452ZM24.6129 39.6774H31.871V40.4839H24.6129V39.6774ZM24.6129 42.0968H31.871V46.9355H24.6129V42.0968ZM24.6129 51.7742H26.2258C26.4397 51.7742 26.6448 51.8592 26.7961 52.0104C26.9473 52.1616 27.0323 52.3668 27.0323 52.5806C27.0323 52.7945 26.9473 52.9997 26.7961 53.1509C26.6448 53.3021 26.4397 53.3871 26.2258 53.3871H24.6129V51.7742ZM32.6774 64.6774C31.8799 64.6774 31.1003 64.4409 30.4372 63.9979C29.7741 63.5548 29.2573 62.925 28.9521 62.1882C28.6469 61.4514 28.5671 60.6407 28.7226 59.8585C28.8782 59.0763 29.2623 58.3578 29.8262 57.7939C30.3901 57.23 31.1086 56.846 31.8908 56.6904C32.6729 56.5348 33.4837 56.6146 34.2205 56.9198C34.9573 57.225 35.587 57.7419 36.0301 58.405C36.4732 59.0681 36.7097 59.8477 36.7097 60.6452C36.7086 61.7143 36.2834 62.7393 35.5275 63.4952C34.7715 64.2512 33.7465 64.6763 32.6774 64.6774ZM63.3226 64.6774C62.5251 64.6774 61.7455 64.4409 61.0824 63.9979C60.4193 63.5548 59.9025 62.925 59.5973 62.1882C59.2921 61.4514 59.2122 60.6407 59.3678 59.8585C59.5234 59.0763 59.9074 58.3578 60.4713 57.7939C61.0353 57.23 61.7537 56.846 62.5359 56.6904C63.3181 56.5348 64.1289 56.6146 64.8657 56.9198C65.6025 57.225 66.2322 57.7419 66.6753 58.405C67.1184 59.0681 67.3548 59.8477 67.3548 60.6452C67.3538 61.7143 66.9286 62.7393 66.1726 63.4952C65.4167 64.2512 64.3917 64.6763 63.3226 64.6774ZM71.3871 58.629C71.3868 58.9498 71.2593 59.2573 71.0325 59.4841C70.8057 59.7109 70.4982 59.8384 70.1774 59.8387H68.9093C68.7154 58.4953 68.0439 57.2667 67.0179 56.378C65.9918 55.4894 64.6799 55.0003 63.3226 55.0003C61.9652 55.0003 60.6533 55.4894 59.6273 56.378C58.6012 57.2667 57.9297 58.4953 57.7359 59.8387H38.2641C38.0703 58.4953 37.3988 57.2667 36.3727 56.378C35.3467 55.4894 34.0348 55.0003 32.6774 55.0003C31.3201 55.0003 30.0082 55.4894 28.9821 56.378C27.9561 57.2667 27.2846 58.4953 27.0907 59.8387H25.8226C25.5018 59.8384 25.1943 59.7109 24.9675 59.4841C24.7407 59.2573 24.6132 58.9498 24.6129 58.629V55H26.2258C26.7259 54.9994 27.2135 54.844 27.6218 54.5553C28.03 54.2665 28.3389 53.8584 28.506 53.3871H67.494C67.6611 53.8584 67.97 54.2665 68.3782 54.5553C68.7865 54.844 69.2741 54.9994 69.7742 55H71.3871V58.629ZM71.3871 53.3871H69.7742C69.5603 53.3871 69.3552 53.3021 69.2039 53.1509C69.0527 52.9997 68.9677 52.7945 68.9677 52.5806C68.9677 52.3668 69.0527 52.1616 69.2039 52.0104C69.3552 51.8592 69.5603 51.7742 69.7742 51.7742H71.3871V53.3871ZM71.3871 50.1613H69.7742C69.2741 50.1619 68.7865 50.3173 68.3782 50.606C67.97 50.8948 67.6611 51.3029 67.494 51.7742H28.506C28.3389 51.3029 28.03 50.8948 27.6218 50.606C27.2135 50.3173 26.7259 50.1619 26.2258 50.1613H24.6129V48.5484H32.6774C32.8913 48.5484 33.0964 48.4634 33.2477 48.3122C33.3989 48.1609 33.4839 47.9558 33.4839 47.7419V38.871C33.4839 38.6571 33.3989 38.452 33.2477 38.3007C33.0964 38.1495 32.8913 38.0645 32.6774 38.0645H24.6129V36.4516H66.0353L66.7873 38.0645H58.4839C58.27 38.0645 58.0649 38.1495 57.9136 38.3007C57.7624 38.452 57.6774 38.6571 57.6774 38.871V47.7419C57.6774 47.9558 57.7624 48.1609 57.9136 48.3122C58.0649 48.4634 58.27 48.5484 58.4839 48.5484H71.3871V50.1613ZM70.9274 46.9355H59.2903V39.6774H67.5403L70.9274 46.9355ZM71.3871 34.8387H24.6129V32.8226C24.6132 32.5018 24.7407 32.1943 24.9675 31.9675C25.1943 31.7407 25.5018 31.6132 25.8226 31.6129H70.1774C70.4982 31.6132 70.8057 31.7407 71.0325 31.9675C71.2593 32.1943 71.3868 32.5018 71.3871 32.8226V34.8387Z"></path></mask><path d="M73 35.6452V32.8226C72.9992 32.0742 72.7015 31.3568 72.1724 30.8276C71.6432 30.2985 70.9258 30.0008 70.1774 30H25.8226C25.0742 30.0008 24.3568 30.2985 23.8276 30.8276C23.2985 31.3568 23.0008 32.0742 23 32.8226V58.629C23.0008 59.3774 23.2985 60.0948 23.8276 60.624C24.3568 61.1531 25.0742 61.4508 25.8226 61.4516H27.0907C27.2846 62.7951 27.9561 64.0237 28.9821 64.9123C30.0082 65.8009 31.3201 66.29 32.6774 66.29C34.0348 66.29 35.3467 65.8009 36.3727 64.9123C37.3988 64.0237 38.0703 62.7951 38.2641 61.4516H57.7359C57.9297 62.7951 58.6012 64.0237 59.6273 64.9123C60.6533 65.8009 61.9652 66.29 63.3226 66.29C64.6799 66.29 65.9918 65.8009 67.0179 64.9123C68.0439 64.0237 68.7154 62.7951 68.9093 61.4516H70.1774C70.9258 61.4508 71.6432 61.1531 72.1724 60.624C72.7015 60.0948 72.9992 59.3774 73 58.629V47.7419C72.9998 47.6242 72.974 47.508 72.9244 47.4012L67.8145 36.4516H72.1936C72.4074 36.4516 72.6126 36.3666 72.7638 36.2154C72.915 36.0642 73 35.859 73 35.6452ZM24.6129 39.6774H31.871V40.4839H24.6129V39.6774ZM24.6129 42.0968H31.871V46.9355H24.6129V42.0968ZM24.6129 51.7742H26.2258C26.4397 51.7742 26.6448 51.8592 26.7961 52.0104C26.9473 52.1616 27.0323 52.3668 27.0323 52.5806C27.0323 52.7945 26.9473 52.9997 26.7961 53.1509C26.6448 53.3021 26.4397 53.3871 26.2258 53.3871H24.6129V51.7742ZM32.6774 64.6774C31.8799 64.6774 31.1003 64.4409 30.4372 63.9979C29.7741 63.5548 29.2573 62.925 28.9521 62.1882C28.6469 61.4514 28.5671 60.6407 28.7226 59.8585C28.8782 59.0763 29.2623 58.3578 29.8262 57.7939C30.3901 57.23 31.1086 56.846 31.8908 56.6904C32.6729 56.5348 33.4837 56.6146 34.2205 56.9198C34.9573 57.225 35.587 57.7419 36.0301 58.405C36.4732 59.0681 36.7097 59.8477 36.7097 60.6452C36.7086 61.7143 36.2834 62.7393 35.5275 63.4952C34.7715 64.2512 33.7465 64.6763 32.6774 64.6774ZM63.3226 64.6774C62.5251 64.6774 61.7455 64.4409 61.0824 63.9979C60.4193 63.5548 59.9025 62.925 59.5973 62.1882C59.2921 61.4514 59.2122 60.6407 59.3678 59.8585C59.5234 59.0763 59.9074 58.3578 60.4713 57.7939C61.0353 57.23 61.7537 56.846 62.5359 56.6904C63.3181 56.5348 64.1289 56.6146 64.8657 56.9198C65.6025 57.225 66.2322 57.7419 66.6753 58.405C67.1184 59.0681 67.3548 59.8477 67.3548 60.6452C67.3538 61.7143 66.9286 62.7393 66.1726 63.4952C65.4167 64.2512 64.3917 64.6763 63.3226 64.6774ZM71.3871 58.629C71.3868 58.9498 71.2593 59.2573 71.0325 59.4841C70.8057 59.7109 70.4982 59.8384 70.1774 59.8387H68.9093C68.7154 58.4953 68.0439 57.2667 67.0179 56.378C65.9918 55.4894 64.6799 55.0003 63.3226 55.0003C61.9652 55.0003 60.6533 55.4894 59.6273 56.378C58.6012 57.2667 57.9297 58.4953 57.7359 59.8387H38.2641C38.0703 58.4953 37.3988 57.2667 36.3727 56.378C35.3467 55.4894 34.0348 55.0003 32.6774 55.0003C31.3201 55.0003 30.0082 55.4894 28.9821 56.378C27.9561 57.2667 27.2846 58.4953 27.0907 59.8387H25.8226C25.5018 59.8384 25.1943 59.7109 24.9675 59.4841C24.7407 59.2573 24.6132 58.9498 24.6129 58.629V55H26.2258C26.7259 54.9994 27.2135 54.844 27.6218 54.5553C28.03 54.2665 28.3389 53.8584 28.506 53.3871H67.494C67.6611 53.8584 67.97 54.2665 68.3782 54.5553C68.7865 54.844 69.2741 54.9994 69.7742 55H71.3871V58.629ZM71.3871 53.3871H69.7742C69.5603 53.3871 69.3552 53.3021 69.2039 53.1509C69.0527 52.9997 68.9677 52.7945 68.9677 52.5806C68.9677 52.3668 69.0527 52.1616 69.2039 52.0104C69.3552 51.8592 69.5603 51.7742 69.7742 51.7742H71.3871V53.3871ZM71.3871 50.1613H69.7742C69.2741 50.1619 68.7865 50.3173 68.3782 50.606C67.97 50.8948 67.6611 51.3029 67.494 51.7742H28.506C28.3389 51.3029 28.03 50.8948 27.6218 50.606C27.2135 50.3173 26.7259 50.1619 26.2258 50.1613H24.6129V48.5484H32.6774C32.8913 48.5484 33.0964 48.4634 33.2477 48.3122C33.3989 48.1609 33.4839 47.9558 33.4839 47.7419V38.871C33.4839 38.6571 33.3989 38.452 33.2477 38.3007C33.0964 38.1495 32.8913 38.0645 32.6774 38.0645H24.6129V36.4516H66.0353L66.7873 38.0645H58.4839C58.27 38.0645 58.0649 38.1495 57.9136 38.3007C57.7624 38.452 57.6774 38.6571 57.6774 38.871V47.7419C57.6774 47.9558 57.7624 48.1609 57.9136 48.3122C58.0649 48.4634 58.27 48.5484 58.4839 48.5484H71.3871V50.1613ZM70.9274 46.9355H59.2903V39.6774H67.5403L70.9274 46.9355ZM71.3871 34.8387H24.6129V32.8226C24.6132 32.5018 24.7407 32.1943 24.9675 31.9675C25.1943 31.7407 25.5018 31.6132 25.8226 31.6129H70.1774C70.4982 31.6132 70.8057 31.7407 71.0325 31.9675C71.2593 32.1943 71.3868 32.5018 71.3871 32.8226V34.8387Z" fill="#1F2428" stroke="#F2F6FC" stroke-width="0.6" mask="url(#path-10-inside-1)"></path><path d="M27.033 32.5693H32.6782C32.8523 32.5693 33.0192 32.6385 33.1424 32.7616C33.2655 32.8847 33.3346 33.0517 33.3346 33.2258C33.3346 33.3999 33.2655 33.5668 33.1424 33.6899C33.0192 33.8131 32.8523 33.8822 32.6782 33.8822H27.033C26.8589 33.8822 26.6919 33.8131 26.5688 33.6899C26.4457 33.5668 26.3766 33.3999 26.3766 33.2258C26.3766 33.0517 26.4457 32.8847 26.5688 32.7616C26.6919 32.6385 26.8589 32.5693 27.033 32.5693Z" fill="#1F2428" stroke="#F2F6FC" stroke-width="0.3"></path><path d="M35.0965 32.5693H35.9029C36.077 32.5693 36.244 32.6385 36.3671 32.7616C36.4902 32.8847 36.5594 33.0517 36.5594 33.2258C36.5594 33.3999 36.4902 33.5668 36.3671 33.6899C36.244 33.8131 36.077 33.8822 35.9029 33.8822H35.0965C34.9224 33.8822 34.7554 33.8131 34.6323 33.6899C34.5092 33.5668 34.44 33.3999 34.44 33.2258C34.44 33.0517 34.5092 32.8847 34.6323 32.7616C34.7554 32.6385 34.9224 32.5693 35.0965 32.5693Z" fill="#1F2428" stroke="#F2F6FC" stroke-width="0.3"></path></svg> 