<?xml version="1.0" encoding="UTF-8"?> <svg xmlns="http://www.w3.org/2000/svg" width="96" height="96" viewBox="0 0 96 96" fill="none"><rect width="96" height="96" rx="6" fill="#F2F6FC"></rect><path d="M43.0002 40H53.5002C60.5076 44.5139 61.1498 48.1419 58.0002 56H39.0002C36.0895 48.7397 36.0317 45.0252 43.0002 40Z" fill="#3693E7"></path><path d="M28.7841 47.1774C28.7841 47.5568 28.4765 47.8645 28.0971 47.8645C27.7176 47.8645 27.41 47.5568 27.41 47.1774C27.41 46.7979 27.7176 46.4903 28.0971 46.4903C28.4765 46.4903 28.7841 46.7979 28.7841 47.1774Z" fill="#1F2428" stroke="#F2F6FC" stroke-width="0.4"></path><path d="M69.5898 47.1774C69.5898 47.5568 69.2822 47.8645 68.9027 47.8645C68.5232 47.8645 68.2156 47.5568 68.2156 47.1774C68.2156 46.7979 68.5232 46.4903 68.9027 46.4903C69.2822 46.4903 69.5898 46.7979 69.5898 47.1774Z" fill="#1F2428" stroke="#F2F6FC" stroke-width="0.4"></path><path d="M53.8217 50.0396H54.0147L54.0216 49.8468C54.0226 49.8192 54.0226 49.7923 54.0226 49.77V49.7686V49.3676C54.0226 48.058 53.3568 46.8358 52.2688 46.1239L52.2189 46.0913H52.1593H49.3871H49.1871V46.2913V49.8396V50.0396H49.3871H53.8217ZM47.8129 46.2903V46.0904L47.613 46.0903L44.8409 46.0893L44.7811 46.0893L44.7312 46.1221C43.6443 46.8347 42.9775 48.0569 42.9775 49.3667V49.7677V49.769C42.9775 49.7921 42.9775 49.8182 42.9785 49.8458L42.9854 50.0387H43.1784H47.6129H47.8129V49.8387V46.2903Z" fill="#1F2428" stroke="#F2F6FC" stroke-width="0.4"></path><mask id="path-6-inside-1" fill="white"><path d="M74.2258 39.1934H52.6454L52.4033 37.0112L64.4678 34.5983V30.3225H51.6599L51.0691 25H45.932L45.3412 30.3225H32.5323V34.5984L44.5977 37.0113L44.3546 39.1935H22.7742C21.7957 39.1934 21 39.9892 21 40.9676V42.7418C21 43.7203 21.7957 44.516 22.7742 44.516H24.5715C24.0081 45.2593 23.6613 46.1749 23.6613 47.1772C23.6613 49.6229 25.651 51.6127 28.0967 51.6127C29.0538 51.6127 29.9357 51.3004 30.6613 50.7823L36.4913 52.8102C36.7326 53.6875 37.0813 54.5259 37.5177 55.3154L35.5688 60.5147C35.4454 60.497 35.3186 60.4837 35.1935 60.4837C33.9125 60.4837 32.8277 61.3841 32.5854 62.6349L30.8317 67.8954L30.7979 68.0302C30.6809 68.7319 30.845 69.4362 31.2584 70.0156C31.6717 70.5939 32.2848 70.9762 32.9865 71.0934C33.1346 71.1174 33.2783 71.1289 33.4238 71.1289C34.7048 71.1289 35.7915 70.2293 36.0344 68.9795L37.7882 63.7181L37.8219 63.5833C37.939 62.8816 37.7749 62.1772 37.3615 61.5979C37.2976 61.5092 37.2213 61.4337 37.1486 61.3539L38.7418 57.1047C39.652 58.1968 40.7662 59.13 42.056 59.8343L44.743 61.2998C45.8927 61.9261 47.1905 62.2579 48.4999 62.2579C49.8093 62.2579 51.107 61.9261 52.2559 61.2998L54.9429 59.8343C56.2346 59.13 57.3496 58.195 58.2598 57.1021L59.854 61.3539C59.7812 61.4337 59.705 61.5083 59.641 61.5979C59.2277 62.1762 59.0644 62.8815 59.1806 63.5833L60.9681 68.9795C61.2121 70.2294 62.2988 71.1289 63.5798 71.1289C63.7252 71.1289 63.869 71.1174 64.0171 71.0925C64.7188 70.9754 65.3317 70.5931 65.7452 70.0146C66.1585 69.4362 66.3218 68.731 66.2056 68.0292L64.4181 62.6339C64.176 61.383 63.091 60.4835 61.81 60.4835C61.6831 60.4835 61.5563 60.4968 61.4348 60.5145L59.4841 55.3117C59.9197 54.5231 60.2683 53.6856 60.5087 52.81L66.3378 50.7821C67.0643 51.3002 67.9462 51.6125 68.9033 51.6125C71.349 51.6125 73.3387 49.6227 73.3387 47.177C73.3387 46.1746 72.9919 45.2591 72.4285 44.5158H74.2258C75.2043 44.5158 76 43.7201 76 42.7416V40.9674C76 39.9892 75.2042 39.1934 74.2258 39.1934ZM34.3313 68.4784L34.2975 68.614C34.2186 69.0913 33.7697 69.4249 33.2774 69.3424C33.0396 69.3034 32.8409 69.1782 32.7017 68.9831C32.5748 68.8057 32.519 68.5937 32.5402 68.379L34.2887 63.1354L34.3225 62.9988C34.4014 62.5206 34.8264 62.1853 35.3426 62.2704C35.5804 62.3094 35.7791 62.4346 35.9183 62.6298C36.0452 62.8072 36.101 63.0192 36.0798 63.2339L34.3313 68.4784ZM62.6811 62.9988L64.4632 68.379C64.4845 68.5936 64.4286 68.8057 64.3018 68.9831C64.1624 69.1792 63.9628 69.3034 63.7261 69.3424C63.2319 69.424 62.784 69.0905 62.7059 68.614L60.9238 63.2338C60.9025 63.0192 60.9584 62.8071 61.0852 62.6297C61.2246 62.4336 61.4241 62.3094 61.6663 62.2695C62.1321 62.1941 62.6021 62.5205 62.6811 62.9988ZM54.6104 41.5523C57.4074 43.1509 59.1452 46.1457 59.1452 49.3677V49.7687C59.1452 51.7301 58.5366 53.5912 57.4819 55.1622H39.5181C38.4634 53.5912 37.8548 51.7291 37.8548 49.7678V49.3668C37.8548 46.1449 39.5927 43.15 42.3896 41.5515C43.0594 41.17 43.8215 40.9677 44.5915 40.9677H52.4094C53.1785 40.9676 53.9406 41.1699 54.6104 41.5523ZM64.7383 45.7048L60.6585 47.1242C60.4634 46.2131 60.1529 45.3394 59.736 44.5161H65.377C65.1056 44.8753 64.8917 45.2736 64.7383 45.7048ZM36.3415 47.1241L32.2617 45.7056C32.1082 45.2735 31.8944 44.8752 31.6221 44.5168H37.2631C36.8471 45.3393 36.5366 46.213 36.3415 47.1241ZM62.6935 32.0967V33.1435L52.2063 35.2415L51.8567 32.0967H62.6935ZM49.4794 26.7741L50.8588 39.1934H46.1394L47.5188 26.7741H49.4794ZM34.3065 33.1434V32.0966H45.1433L44.7937 35.2414L34.3065 33.1434ZM22.7742 40.9676H40.1294C39.4729 41.4945 38.8785 42.0862 38.3675 42.7418H22.7742V40.9676ZM28.0968 49.8386C26.6296 49.8386 25.4356 48.6446 25.4356 47.1774C25.4356 45.7101 26.6296 44.5161 28.0968 44.5161C29.5641 44.5161 30.7581 45.7101 30.7581 47.1774C30.7581 48.6446 29.564 49.8386 28.0968 49.8386ZM31.9396 49.349C32.2297 48.839 32.416 48.2694 32.4834 47.66L36.1107 48.9215C36.1045 49.0704 36.0805 49.2169 36.0805 49.3677V49.7687C36.0805 50.1182 36.1018 50.4641 36.1337 50.8083L31.9396 49.349ZM54.095 58.2767L51.4079 59.7422C49.6284 60.7118 47.3725 60.7118 45.5929 59.7422L42.9059 58.2767C42.2228 57.9042 41.6072 57.4446 41.0457 56.9354H55.9551C55.3927 57.4446 54.778 57.9041 54.095 58.2767ZM60.8892 48.9213L64.5165 47.6599C64.584 48.2693 64.7702 48.8388 65.0594 49.3489L60.8661 50.8072C60.898 50.4639 60.9193 50.1179 60.9193 49.7676V49.3666C60.9194 49.2168 60.8954 49.0713 60.8892 48.9213ZM71.5645 47.1774C71.5645 48.6446 70.3706 49.8386 68.9033 49.8386C67.436 49.8386 66.242 48.6446 66.242 47.1774C66.242 45.7101 67.436 44.5161 68.9033 44.5161C70.3704 44.5161 71.5645 45.7101 71.5645 47.1774ZM74.2258 42.7419H58.6325C58.1215 42.0863 57.5271 41.4946 56.8706 40.9677H74.2258V42.7419Z"></path></mask><path d="M74.2258 39.1934H52.6454L52.4033 37.0112L64.4678 34.5983V30.3225H51.6599L51.0691 25H45.932L45.3412 30.3225H32.5323V34.5984L44.5977 37.0113L44.3546 39.1935H22.7742C21.7957 39.1934 21 39.9892 21 40.9676V42.7418C21 43.7203 21.7957 44.516 22.7742 44.516H24.5715C24.0081 45.2593 23.6613 46.1749 23.6613 47.1772C23.6613 49.6229 25.651 51.6127 28.0967 51.6127C29.0538 51.6127 29.9357 51.3004 30.6613 50.7823L36.4913 52.8102C36.7326 53.6875 37.0813 54.5259 37.5177 55.3154L35.5688 60.5147C35.4454 60.497 35.3186 60.4837 35.1935 60.4837C33.9125 60.4837 32.8277 61.3841 32.5854 62.6349L30.8317 67.8954L30.7979 68.0302C30.6809 68.7319 30.845 69.4362 31.2584 70.0156C31.6717 70.5939 32.2848 70.9762 32.9865 71.0934C33.1346 71.1174 33.2783 71.1289 33.4238 71.1289C34.7048 71.1289 35.7915 70.2293 36.0344 68.9795L37.7882 63.7181L37.8219 63.5833C37.939 62.8816 37.7749 62.1772 37.3615 61.5979C37.2976 61.5092 37.2213 61.4337 37.1486 61.3539L38.7418 57.1047C39.652 58.1968 40.7662 59.13 42.056 59.8343L44.743 61.2998C45.8927 61.9261 47.1905 62.2579 48.4999 62.2579C49.8093 62.2579 51.107 61.9261 52.2559 61.2998L54.9429 59.8343C56.2346 59.13 57.3496 58.195 58.2598 57.1021L59.854 61.3539C59.7812 61.4337 59.705 61.5083 59.641 61.5979C59.2277 62.1762 59.0644 62.8815 59.1806 63.5833L60.9681 68.9795C61.2121 70.2294 62.2988 71.1289 63.5798 71.1289C63.7252 71.1289 63.869 71.1174 64.0171 71.0925C64.7188 70.9754 65.3317 70.5931 65.7452 70.0146C66.1585 69.4362 66.3218 68.731 66.2056 68.0292L64.4181 62.6339C64.176 61.383 63.091 60.4835 61.81 60.4835C61.6831 60.4835 61.5563 60.4968 61.4348 60.5145L59.4841 55.3117C59.9197 54.5231 60.2683 53.6856 60.5087 52.81L66.3378 50.7821C67.0643 51.3002 67.9462 51.6125 68.9033 51.6125C71.349 51.6125 73.3387 49.6227 73.3387 47.177C73.3387 46.1746 72.9919 45.2591 72.4285 44.5158H74.2258C75.2043 44.5158 76 43.7201 76 42.7416V40.9674C76 39.9892 75.2042 39.1934 74.2258 39.1934ZM34.3313 68.4784L34.2975 68.614C34.2186 69.0913 33.7697 69.4249 33.2774 69.3424C33.0396 69.3034 32.8409 69.1782 32.7017 68.9831C32.5748 68.8057 32.519 68.5937 32.5402 68.379L34.2887 63.1354L34.3225 62.9988C34.4014 62.5206 34.8264 62.1853 35.3426 62.2704C35.5804 62.3094 35.7791 62.4346 35.9183 62.6298C36.0452 62.8072 36.101 63.0192 36.0798 63.2339L34.3313 68.4784ZM62.6811 62.9988L64.4632 68.379C64.4845 68.5936 64.4286 68.8057 64.3018 68.9831C64.1624 69.1792 63.9628 69.3034 63.7261 69.3424C63.2319 69.424 62.784 69.0905 62.7059 68.614L60.9238 63.2338C60.9025 63.0192 60.9584 62.8071 61.0852 62.6297C61.2246 62.4336 61.4241 62.3094 61.6663 62.2695C62.1321 62.1941 62.6021 62.5205 62.6811 62.9988ZM54.6104 41.5523C57.4074 43.1509 59.1452 46.1457 59.1452 49.3677V49.7687C59.1452 51.7301 58.5366 53.5912 57.4819 55.1622H39.5181C38.4634 53.5912 37.8548 51.7291 37.8548 49.7678V49.3668C37.8548 46.1449 39.5927 43.15 42.3896 41.5515C43.0594 41.17 43.8215 40.9677 44.5915 40.9677H52.4094C53.1785 40.9676 53.9406 41.1699 54.6104 41.5523ZM64.7383 45.7048L60.6585 47.1242C60.4634 46.2131 60.1529 45.3394 59.736 44.5161H65.377C65.1056 44.8753 64.8917 45.2736 64.7383 45.7048ZM36.3415 47.1241L32.2617 45.7056C32.1082 45.2735 31.8944 44.8752 31.6221 44.5168H37.2631C36.8471 45.3393 36.5366 46.213 36.3415 47.1241ZM62.6935 32.0967V33.1435L52.2063 35.2415L51.8567 32.0967H62.6935ZM49.4794 26.7741L50.8588 39.1934H46.1394L47.5188 26.7741H49.4794ZM34.3065 33.1434V32.0966H45.1433L44.7937 35.2414L34.3065 33.1434ZM22.7742 40.9676H40.1294C39.4729 41.4945 38.8785 42.0862 38.3675 42.7418H22.7742V40.9676ZM28.0968 49.8386C26.6296 49.8386 25.4356 48.6446 25.4356 47.1774C25.4356 45.7101 26.6296 44.5161 28.0968 44.5161C29.5641 44.5161 30.7581 45.7101 30.7581 47.1774C30.7581 48.6446 29.564 49.8386 28.0968 49.8386ZM31.9396 49.349C32.2297 48.839 32.416 48.2694 32.4834 47.66L36.1107 48.9215C36.1045 49.0704 36.0805 49.2169 36.0805 49.3677V49.7687C36.0805 50.1182 36.1018 50.4641 36.1337 50.8083L31.9396 49.349ZM54.095 58.2767L51.4079 59.7422C49.6284 60.7118 47.3725 60.7118 45.5929 59.7422L42.9059 58.2767C42.2228 57.9042 41.6072 57.4446 41.0457 56.9354H55.9551C55.3927 57.4446 54.778 57.9041 54.095 58.2767ZM60.8892 48.9213L64.5165 47.6599C64.584 48.2693 64.7702 48.8388 65.0594 49.3489L60.8661 50.8072C60.898 50.4639 60.9193 50.1179 60.9193 49.7676V49.3666C60.9194 49.2168 60.8954 49.0713 60.8892 48.9213ZM71.5645 47.1774C71.5645 48.6446 70.3706 49.8386 68.9033 49.8386C67.436 49.8386 66.242 48.6446 66.242 47.1774C66.242 45.7101 67.436 44.5161 68.9033 44.5161C70.3704 44.5161 71.5645 45.7101 71.5645 47.1774ZM74.2258 42.7419H58.6325C58.1215 42.0863 57.5271 41.4946 56.8706 40.9677H74.2258V42.7419Z" fill="#1F2428" stroke="#F2F6FC" stroke-width="0.8" mask="url(#path-6-inside-1)"></path></svg> 