<?xml version="1.0" encoding="UTF-8"?> <svg xmlns="http://www.w3.org/2000/svg" width="96" height="96" viewBox="0 0 96 96" fill="none"><rect width="96" height="96" rx="6" transform="matrix(-1 0 0 1 96 0)" fill="#F2F6FC"></rect><rect x="31" y="54" width="11" height="9" rx="1" fill="#3693E7"></rect><rect x="25" y="30" width="22" height="5" rx="1" fill="#3693E7"></rect><path d="M69.6003 65.7002H71.2003C71.5869 65.7002 71.9003 66.0136 71.9003 66.4002C71.9003 66.7868 71.5869 67.1002 71.2003 67.1002H69.6003C69.2136 67.1002 68.9003 66.7868 68.9003 66.4002C68.9003 66.0136 69.2136 65.7002 69.6003 65.7002Z" fill="#1F2428" stroke="#F2F6FC" stroke-width="0.2"></path><path d="M37.5998 50.5003H37.6998V50.4003V48.8003V48.8001C37.6992 48.3034 37.2967 47.9009 36.8 47.9003H36.7999H35.1998H35.1997C34.703 47.9009 34.3005 48.3034 34.2999 48.8001V48.8003V50.4003V50.5003H34.3999H37.5998ZM30.3998 38.3003H30.2998V38.4003V50.4003V50.5003H30.3998H32.7998H32.8998V50.4003V48.8004C32.9012 47.5306 33.9302 46.5016 35.1999 46.5003H36.7998C38.0695 46.5016 39.0985 47.5306 39.0999 48.8004V50.4003V50.5003H39.1999H41.601H41.701L41.701 50.4003L41.6999 38.4003L41.6999 38.3003H41.5999H30.3998ZM43.0999 50.4001C43.099 51.2283 42.4279 51.8994 41.5998 51.9002H30.3999C29.5718 51.8994 28.9006 51.2283 28.8998 50.4001L28.8998 38.4003C28.9007 37.5721 29.5718 36.901 30.3999 36.9002L41.5998 36.9002C42.428 36.9011 43.0991 37.5722 43.0999 38.4003V50.4001Z" fill="#1F2428" stroke="#F2F6FC" stroke-width="0.2"></path><path d="M31.1001 62.4003V62.5003H31.2001H40.8013H40.9013L40.9013 62.4002L40.9001 55.2002L40.9001 55.1002H40.8001H31.2001H31.1001V55.2002V62.4003ZM29.7001 55.2003C29.701 54.3721 30.3721 53.701 31.2002 53.7002L40.8001 53.7002C41.6282 53.701 42.2993 54.3722 42.3002 55.2004V62.4001C42.2993 63.2283 41.6282 63.8995 40.8 63.9003H31.2002C30.3721 63.8994 29.7009 63.2283 29.7001 62.4002L29.7001 55.2003Z" fill="#1F2428" stroke="#F2F6FC" stroke-width="0.2"></path><path d="M33.6003 56.9002H38.4003C38.7869 56.9002 39.1002 57.2136 39.1002 57.6001C39.1002 57.9867 38.7869 58.3001 38.4003 58.3001H33.6003C33.2136 58.3001 32.9003 57.9868 32.9003 57.6001C32.9003 57.2136 33.2137 56.9002 33.6003 56.9002Z" fill="#1F2428" stroke="#F2F6FC" stroke-width="0.2"></path><path d="M33.6003 59.3002H38.4003C38.7869 59.3002 39.1002 59.6135 39.1002 60.0002C39.1002 60.3868 38.7869 60.7001 38.4003 60.7001H33.6003C33.2136 60.7001 32.9003 60.3868 32.9003 60.0002C32.9003 59.6135 33.2136 59.3002 33.6003 59.3002Z" fill="#1F2428" stroke="#F2F6FC" stroke-width="0.2"></path><path d="M67.7168 29.2975L67.7168 29.2973C67.3009 29.4494 66.9229 29.6897 66.6088 30.0017L62.7054 33.9051L62.7053 33.9052L62.7049 33.9056L62.7049 33.9057L57.9057 38.7049L57.9054 38.7051L57.9052 38.7053L57.9049 38.7056L53.1054 43.5051L53.1049 43.5056L46.5225 50.088L46.5127 50.0978L46.5005 50.1046C46.4883 50.1114 46.4805 50.1155 46.4738 50.119C46.4663 50.1229 46.4601 50.1262 46.4502 50.1319L46.3001 50.219V50.0454V35.0529V34.9821L46.3668 34.9586C47.2831 34.6358 47.897 33.7714 47.9 32.8V30.4003C47.9 30.0137 47.5866 29.7003 47.2 29.7003H24.8C24.4134 29.7003 24.1 30.0137 24.1 30.4003V32.8001C24.103 33.7715 24.717 34.6358 25.6333 34.9585L25.7 34.982V35.0528V65.6003V65.7003H25.6H24.8C24.4134 65.7003 24.1 66.0137 24.1 66.4003C24.1 66.7869 24.4134 67.1003 24.8 67.1003H66.3999C66.7866 67.1003 67.0999 66.7869 67.0999 66.4003C67.0999 66.0137 66.7865 65.7003 66.3999 65.7003H51.2H51.1V65.6003V54.3155V54.2741L51.1293 54.2448L54.0947 51.2794L54.095 51.2791L54.0951 51.2789L54.0954 51.2787L58.8947 46.4794L58.8951 46.4789L63.6947 41.6794L63.695 41.6791L63.6951 41.6789L63.6954 41.6787L68.4945 36.8796L68.4947 36.8794L68.4949 36.8791L68.4951 36.8789L70.9908 34.3833C71.5706 33.8011 71.8973 33.0137 71.9 32.1922C71.9005 31.1828 71.408 30.2368 70.581 29.6582C69.754 29.0796 68.6966 28.9413 67.7487 29.2878C67.7485 29.2879 67.7483 29.2879 67.7481 29.288L67.7137 29.1941C67.709 29.1959 67.704 29.1971 67.699 29.1983C67.6934 29.1997 67.6877 29.2011 67.6824 29.2034L67.7168 29.2975ZM67.7168 29.2975L67.7196 29.2963L67.7168 29.2975ZM27.1 65.6003V65.7003H27.2H44.6999H44.7999H44.8L44.7999 65.6003H44.8999V35.2003V35.1003H44.7999H27.2H27.1V35.2003V65.6003ZM45.6 33.7003H45.6001C46.0968 33.6997 46.4993 33.2972 46.5001 32.8005V32.8004V31.2003V31.1003H46.4001H25.6H25.5V31.2003V32.8004L25.5 32.8005C25.5007 33.2972 25.9032 33.6997 26.3999 33.7003H26.4H45.6ZM46.3001 65.6003V65.7003H46.4001H49.6H49.6001H49.7001V65.6003V52.8003C49.7001 51.8614 48.939 51.1003 48.0001 51.1003C47.0612 51.1003 46.3001 51.8614 46.3001 52.8003V65.6003ZM52.8707 50.5237L53.0414 50.353H52.8999V45.9316V45.6901L52.7292 45.8608L48.8952 49.6948L48.7787 49.8113L48.9358 49.8609C49.9921 50.1947 50.7898 51.0669 51.0282 52.1487L51.0674 52.327L51.1965 52.1979L52.8707 50.5237ZM57.6707 45.7237L57.7 45.6945V45.653V41.1316V40.8901L57.5293 41.0608L54.3293 44.2608L54.3 44.2901V44.3315V48.853V49.0944L54.4707 48.9237L57.6707 45.7237ZM62.4707 40.9237L62.5 40.8945V40.853V36.3316V36.0901L62.3293 36.2608L59.1293 39.4608L59.1 39.4901V39.5315V44.053V44.2944L59.2707 44.1237L62.4707 40.9237ZM67.2707 36.1237L67.3 36.0945V36.053V31.5316V31.2901L67.1293 31.4608L63.9293 34.6608L63.9 34.6901V34.7315V39.253V39.4944L64.0707 39.3237L67.2707 36.1237ZM68.7 34.453V34.6944L68.8707 34.5237L70.001 33.3934C70.3204 33.0753 70.5 32.6431 70.5 32.1923C70.5 31.7415 70.3204 31.3093 70.001 30.9912C69.6826 30.6724 69.2504 30.4936 68.7999 30.4944L68.7 30.4946V30.5944V34.453Z" fill="#1F2428" stroke="#F2F6FC" stroke-width="0.2"></path><path d="M48.6407 53.329L48.6416 53.3287C48.6273 53.2873 48.6075 53.2478 48.583 53.2112C48.5537 53.174 48.524 53.137 48.4939 53.0996C48.2927 52.9038 47.9937 52.8472 47.7346 52.9562L47.7326 52.957L47.7326 52.957C47.6487 52.9902 47.5718 53.0388 47.5058 53.1004C47.4997 53.1079 47.4936 53.1155 47.4875 53.1231C47.4639 53.1525 47.4403 53.1819 47.4167 53.2115C47.3923 53.2479 47.3727 53.2874 47.3582 53.3289L47.3537 53.3417L47.3529 53.3413C47.3344 53.3776 47.3216 53.4166 47.3147 53.4568L47.3146 53.4575L47.3146 53.4575C47.3062 53.5048 47.3014 53.5528 47.3002 53.6009C47.3014 53.6917 47.3203 53.7814 47.3559 53.8651L47.3568 53.8674L47.3568 53.8674C47.3905 53.9524 47.4398 54.0302 47.5021 54.0968C47.5709 54.1585 47.6495 54.2083 47.7346 54.2441L47.7351 54.2443C47.8187 54.28 47.9085 54.299 47.9994 54.3003C48.0474 54.2989 48.0954 54.294 48.1428 54.2858L48.1599 54.3843M48.6407 53.329L48.7001 53.6009C48.6987 53.6917 48.6797 53.7813 48.6441 53.8649L48.6441 53.8649L48.6431 53.8673C48.6098 53.9513 48.5613 54.0284 48.5 54.0946L48.3889 54.1833C48.3525 54.2077 48.3129 54.2273 48.2713 54.2417L48.271 54.2408L48.2588 54.247C48.2222 54.2656 48.183 54.2787 48.1424 54.2859L48.1599 54.3843M48.6407 53.329L48.6468 53.3411C48.6654 53.3779 48.6785 53.4171 48.6856 53.4574L48.6407 53.329ZM48.1599 54.3843C48.2101 54.3754 48.2586 54.3592 48.304 54.3362L48.0002 54.4003C48.0537 54.3988 48.1071 54.3935 48.1599 54.3843Z" fill="#1F2428" stroke="#F2F6FC" stroke-width="0.2"></path></svg> 