<?xml version="1.0" encoding="UTF-8"?> <svg xmlns="http://www.w3.org/2000/svg" width="96" height="96" viewBox="0 0 96 96" fill="none"><rect width="96" height="96" rx="6" transform="matrix(-1 0 0 1 96 0)" fill="#F2F6FC"></rect><circle cx="35" cy="61" r="9" fill="#3693E7"></circle><circle cx="62" cy="61" r="9" fill="#3693E7"></circle><mask id="path-4-inside-1" fill="white"><path d="M28.3405 48.6867V28.7496C28.3405 27.231 29.5715 26 31.0901 26H44.8381C46.3566 26 47.5877 27.231 47.5877 28.7496C47.5802 30.2651 46.3535 31.4917 44.8381 31.4992H33.8397V35.1652H34.374C35.5815 35.1642 36.5957 36.073 36.7268 37.2733L37.3573 42.9401C37.3864 43.2111 37.6154 43.4164 37.888 43.4158C39.1941 43.4173 40.2529 44.4752 40.2554 45.7814V47.6145L44.9178 52.2759C45.1092 52.469 45.37 52.5774 45.6419 52.5765H46.6712V43.9181C46.6734 43.419 46.8105 42.9297 47.068 42.502L47.5648 41.6772L44.236 40.0155L42.8511 42.0932C42.5702 42.5144 42.001 42.628 41.5799 42.347C41.1587 42.0661 41.0451 41.4969 41.3261 41.0758L44.9922 35.5767C45.2731 35.1555 45.8423 35.0418 46.2633 35.3228C46.6845 35.6037 46.7982 36.1729 46.5172 36.594L45.2606 38.4793L48.5107 40.1016L48.8287 39.5718C49.4723 38.5073 50.747 38.0027 51.9449 38.3382L68.501 43.0712C69.6834 43.4063 70.4998 44.4855 70.5008 45.7144V55.0539C71.1501 55.9734 71.6394 56.9959 71.948 58.0784H73.2504C74.769 58.0784 76 59.3095 76 60.828C76 62.3465 74.769 63.5776 73.2504 63.5776H71.948C70.77 67.7429 67.0625 70.6897 62.7389 70.8975C58.4152 71.1052 54.4424 68.5273 52.8705 64.4942H52.1702V67.2438C52.1702 68.2561 51.3495 69.0768 50.3372 69.0768H46.6711C45.6587 69.0768 44.838 68.2561 44.838 67.2438V64.4942H44.1377C42.5659 68.5273 38.593 71.1052 34.2693 70.8975C29.9456 70.6897 26.2382 67.7429 25.0602 63.5776H23.7578C22.2549 63.5778 21.0302 62.3711 21.0082 60.8683C21.0082 60.8536 21 60.8408 21 60.8252C20.9899 55.7263 23.8202 51.0461 28.3405 48.6867ZM44.8381 29.6661C45.0852 29.6667 45.3218 29.5652 45.4915 29.3856C45.6615 29.2178 45.7564 28.9884 45.7546 28.7496C45.7546 28.2434 45.3442 27.8331 44.8381 27.8331H31.0902C30.584 27.8331 30.1737 28.2434 30.1737 28.7496V47.8803C30.7717 47.6664 31.3843 47.4956 32.0067 47.3689V30.5826C32.0067 30.0764 32.4171 29.6661 32.9232 29.6661H44.8381ZM37.888 45.2471C36.6806 45.2482 35.6663 44.3393 35.5353 43.139L34.9047 37.4722C34.8748 37.2019 34.646 36.9976 34.374 36.9983H33.8397V47.1141C34.1431 47.093 34.4483 47.0802 34.7562 47.0802H38.4223V45.7815C38.4219 45.4865 38.1829 45.2475 37.888 45.2471ZM74.1669 60.828C74.1669 60.3218 73.7566 59.9115 73.2504 59.9115H65.4233C65.0956 59.9119 64.7926 59.7371 64.6287 59.4533C64.0054 58.3812 62.745 57.855 61.5445 58.1656C60.5787 58.415 59.8268 59.1729 59.5849 60.1407C59.2441 61.4705 59.9362 62.8478 61.2066 63.3679C62.477 63.8881 63.9362 63.3917 64.6259 62.2047C64.7898 61.9209 65.0928 61.7461 65.4205 61.7465H73.2504C73.4938 61.7465 73.7272 61.6497 73.8992 61.4774C74.0711 61.305 74.1675 61.0715 74.1669 60.828ZM62.2521 69.0767C65.7425 69.0652 68.8507 66.8655 70.0224 63.5776H65.9182C64.6095 65.3231 62.2518 65.9041 60.282 64.9665C58.3121 64.0289 57.2764 61.8326 57.806 59.7163C58.202 58.0758 59.4771 56.7915 61.1147 56.3838C62.9111 55.9264 64.8064 56.5951 65.9182 58.0784H70.0224C68.6238 54.1227 64.4786 51.847 60.3903 52.7905C56.3021 53.7341 53.5734 57.5963 54.05 61.7648C54.5265 65.9334 58.0563 69.0802 62.2521 69.0767ZM46.6711 67.2438H50.3372V64.4942H46.6711V67.2438ZM45.7546 62.6611H52.3453C51.5664 58.4928 53.4832 54.2834 57.1386 52.1343C60.7941 49.9853 65.4043 50.3575 68.6677 53.065V48.9132H65.0017C64.4955 48.9132 64.0852 48.5028 64.0852 47.9967C64.0852 47.4905 64.4955 47.0802 65.0017 47.0802H68.6677V45.7144C68.6667 45.3059 68.3952 44.9474 68.0024 44.8355L51.4434 40.0979C51.0419 39.9815 50.6125 40.1515 50.3995 40.5112L48.6406 43.4441C48.5527 43.5867 48.5054 43.7505 48.5041 43.918V52.5792C48.5041 53.5915 47.6834 54.4122 46.671 54.4122H45.6417C44.885 54.413 44.1593 54.1118 43.6253 53.5755L38.9593 48.9131H34.7562C34.1858 48.9122 33.6161 48.955 33.0523 49.0413C31.8724 49.2078 30.7253 49.555 29.6511 50.0706C26.3536 51.6194 23.9533 54.6006 23.1438 58.1526C23.345 58.1048 23.5511 58.0799 23.7578 58.0783H25.0602C26.5088 52.8766 31.8008 49.7418 37.0588 50.971C42.3167 52.2003 45.6706 57.3562 44.6629 62.661H45.7546V62.6611ZM34.7562 69.0767C38.952 69.0802 42.4818 65.9334 42.9583 61.7648C43.4347 57.5962 40.7062 53.7341 36.6179 52.7905C32.5297 51.847 28.3844 54.1226 26.9859 58.0784H31.0901C32.2021 56.5942 34.0984 55.9255 35.8955 56.3838C37.5328 56.7913 38.8079 58.0753 39.2041 59.7154C39.544 61.094 39.2295 62.5523 38.3518 63.6684C37.4702 64.7843 36.1206 65.4277 34.6986 65.4099C33.2767 65.3922 31.9435 64.7153 31.0901 63.5778H26.9822C28.1544 66.8668 31.2644 69.0667 34.7562 69.0767ZM23.7579 61.7446H31.585C31.9128 61.7442 32.2158 61.919 32.3797 62.2028C33.005 63.2783 34.2745 63.7999 35.4752 63.4748C36.676 63.1497 37.5089 62.0589 37.5062 60.8149C37.5035 59.5709 36.6659 58.4836 35.4637 58.1638C35.237 58.108 35.0044 58.0794 34.7709 58.0785C33.7842 58.0718 32.8703 58.5972 32.3797 59.4533C32.2158 59.7372 31.9128 59.912 31.585 59.9116H23.7579C23.2518 59.9116 22.8414 60.3219 22.8414 60.8281C22.8414 61.3342 23.2517 61.7446 23.7579 61.7446Z"></path></mask><path d="M28.3405 48.6867V28.7496C28.3405 27.231 29.5715 26 31.0901 26H44.8381C46.3566 26 47.5877 27.231 47.5877 28.7496C47.5802 30.2651 46.3535 31.4917 44.8381 31.4992H33.8397V35.1652H34.374C35.5815 35.1642 36.5957 36.073 36.7268 37.2733L37.3573 42.9401C37.3864 43.2111 37.6154 43.4164 37.888 43.4158C39.1941 43.4173 40.2529 44.4752 40.2554 45.7814V47.6145L44.9178 52.2759C45.1092 52.469 45.37 52.5774 45.6419 52.5765H46.6712V43.9181C46.6734 43.419 46.8105 42.9297 47.068 42.502L47.5648 41.6772L44.236 40.0155L42.8511 42.0932C42.5702 42.5144 42.001 42.628 41.5799 42.347C41.1587 42.0661 41.0451 41.4969 41.3261 41.0758L44.9922 35.5767C45.2731 35.1555 45.8423 35.0418 46.2633 35.3228C46.6845 35.6037 46.7982 36.1729 46.5172 36.594L45.2606 38.4793L48.5107 40.1016L48.8287 39.5718C49.4723 38.5073 50.747 38.0027 51.9449 38.3382L68.501 43.0712C69.6834 43.4063 70.4998 44.4855 70.5008 45.7144V55.0539C71.1501 55.9734 71.6394 56.9959 71.948 58.0784H73.2504C74.769 58.0784 76 59.3095 76 60.828C76 62.3465 74.769 63.5776 73.2504 63.5776H71.948C70.77 67.7429 67.0625 70.6897 62.7389 70.8975C58.4152 71.1052 54.4424 68.5273 52.8705 64.4942H52.1702V67.2438C52.1702 68.2561 51.3495 69.0768 50.3372 69.0768H46.6711C45.6587 69.0768 44.838 68.2561 44.838 67.2438V64.4942H44.1377C42.5659 68.5273 38.593 71.1052 34.2693 70.8975C29.9456 70.6897 26.2382 67.7429 25.0602 63.5776H23.7578C22.2549 63.5778 21.0302 62.3711 21.0082 60.8683C21.0082 60.8536 21 60.8408 21 60.8252C20.9899 55.7263 23.8202 51.0461 28.3405 48.6867ZM44.8381 29.6661C45.0852 29.6667 45.3218 29.5652 45.4915 29.3856C45.6615 29.2178 45.7564 28.9884 45.7546 28.7496C45.7546 28.2434 45.3442 27.8331 44.8381 27.8331H31.0902C30.584 27.8331 30.1737 28.2434 30.1737 28.7496V47.8803C30.7717 47.6664 31.3843 47.4956 32.0067 47.3689V30.5826C32.0067 30.0764 32.4171 29.6661 32.9232 29.6661H44.8381ZM37.888 45.2471C36.6806 45.2482 35.6663 44.3393 35.5353 43.139L34.9047 37.4722C34.8748 37.2019 34.646 36.9976 34.374 36.9983H33.8397V47.1141C34.1431 47.093 34.4483 47.0802 34.7562 47.0802H38.4223V45.7815C38.4219 45.4865 38.1829 45.2475 37.888 45.2471ZM74.1669 60.828C74.1669 60.3218 73.7566 59.9115 73.2504 59.9115H65.4233C65.0956 59.9119 64.7926 59.7371 64.6287 59.4533C64.0054 58.3812 62.745 57.855 61.5445 58.1656C60.5787 58.415 59.8268 59.1729 59.5849 60.1407C59.2441 61.4705 59.9362 62.8478 61.2066 63.3679C62.477 63.8881 63.9362 63.3917 64.6259 62.2047C64.7898 61.9209 65.0928 61.7461 65.4205 61.7465H73.2504C73.4938 61.7465 73.7272 61.6497 73.8992 61.4774C74.0711 61.305 74.1675 61.0715 74.1669 60.828ZM62.2521 69.0767C65.7425 69.0652 68.8507 66.8655 70.0224 63.5776H65.9182C64.6095 65.3231 62.2518 65.9041 60.282 64.9665C58.3121 64.0289 57.2764 61.8326 57.806 59.7163C58.202 58.0758 59.4771 56.7915 61.1147 56.3838C62.9111 55.9264 64.8064 56.5951 65.9182 58.0784H70.0224C68.6238 54.1227 64.4786 51.847 60.3903 52.7905C56.3021 53.7341 53.5734 57.5963 54.05 61.7648C54.5265 65.9334 58.0563 69.0802 62.2521 69.0767ZM46.6711 67.2438H50.3372V64.4942H46.6711V67.2438ZM45.7546 62.6611H52.3453C51.5664 58.4928 53.4832 54.2834 57.1386 52.1343C60.7941 49.9853 65.4043 50.3575 68.6677 53.065V48.9132H65.0017C64.4955 48.9132 64.0852 48.5028 64.0852 47.9967C64.0852 47.4905 64.4955 47.0802 65.0017 47.0802H68.6677V45.7144C68.6667 45.3059 68.3952 44.9474 68.0024 44.8355L51.4434 40.0979C51.0419 39.9815 50.6125 40.1515 50.3995 40.5112L48.6406 43.4441C48.5527 43.5867 48.5054 43.7505 48.5041 43.918V52.5792C48.5041 53.5915 47.6834 54.4122 46.671 54.4122H45.6417C44.885 54.413 44.1593 54.1118 43.6253 53.5755L38.9593 48.9131H34.7562C34.1858 48.9122 33.6161 48.955 33.0523 49.0413C31.8724 49.2078 30.7253 49.555 29.6511 50.0706C26.3536 51.6194 23.9533 54.6006 23.1438 58.1526C23.345 58.1048 23.5511 58.0799 23.7578 58.0783H25.0602C26.5088 52.8766 31.8008 49.7418 37.0588 50.971C42.3167 52.2003 45.6706 57.3562 44.6629 62.661H45.7546V62.6611ZM34.7562 69.0767C38.952 69.0802 42.4818 65.9334 42.9583 61.7648C43.4347 57.5962 40.7062 53.7341 36.6179 52.7905C32.5297 51.847 28.3844 54.1226 26.9859 58.0784H31.0901C32.2021 56.5942 34.0984 55.9255 35.8955 56.3838C37.5328 56.7913 38.8079 58.0753 39.2041 59.7154C39.544 61.094 39.2295 62.5523 38.3518 63.6684C37.4702 64.7843 36.1206 65.4277 34.6986 65.4099C33.2767 65.3922 31.9435 64.7153 31.0901 63.5778H26.9822C28.1544 66.8668 31.2644 69.0667 34.7562 69.0767ZM23.7579 61.7446H31.585C31.9128 61.7442 32.2158 61.919 32.3797 62.2028C33.005 63.2783 34.2745 63.7999 35.4752 63.4748C36.676 63.1497 37.5089 62.0589 37.5062 60.8149C37.5035 59.5709 36.6659 58.4836 35.4637 58.1638C35.237 58.108 35.0044 58.0794 34.7709 58.0785C33.7842 58.0718 32.8703 58.5972 32.3797 59.4533C32.2158 59.7372 31.9128 59.912 31.585 59.9116H23.7579C23.2518 59.9116 22.8414 60.3219 22.8414 60.8281C22.8414 61.3342 23.2517 61.7446 23.7579 61.7446Z" fill="#1F2428" stroke="#F2F6FC" stroke-width="0.6" mask="url(#path-4-inside-1)"></path></svg> 