<?xml version="1.0" encoding="UTF-8"?> <svg xmlns="http://www.w3.org/2000/svg" width="72" height="72" viewBox="0 0 72 72" fill="none"><rect width="72" height="72" fill="white"></rect><path d="M53.4192 32.5162C48.2968 32.5162 44.1289 28.3483 44.1289 23.2259C44.1289 18.1034 48.2968 13.9355 53.4192 13.9355C58.5417 13.9355 62.7096 18.1034 62.7096 23.2259C62.7096 28.3483 58.5417 32.5162 53.4192 32.5162ZM53.4192 19.742C51.4985 19.742 49.9354 21.3051 49.9354 23.2259C49.9354 25.1466 51.4985 26.7097 53.4192 26.7097C55.34 26.7097 56.9031 25.1466 56.9031 23.2259C56.9031 21.3051 55.34 19.742 53.4192 19.742Z" fill="#3693E7"></path><path d="M4.64551 48.7744H30.1939V59.226H4.64551V48.7744Z" fill="#3693E7"></path><path d="M65.4468 46.4725L61.5484 43.5484V41.2664L62.7248 40.4826C68.5324 36.6108 72 30.132 72 23.1515C72 14.2095 66.4316 6.43123 58.0645 3.50826V3.48387C58.0645 1.5631 56.5014 0 54.5806 0H52.2581C50.7461 0 49.4686 0.974323 48.9879 2.32258H43.5019C42.2245 0.901161 40.3792 0 38.3226 0C34.4799 0 31.3548 3.12503 31.3548 6.96774C31.3548 9.95806 33.2524 12.5071 35.9036 13.493C35.1453 14.2572 34.4218 15.2001 33.7622 16.2581H20.873C19.8116 14.8564 18.1463 13.9355 16.2581 13.9355C14.3698 13.9355 12.7034 14.8564 11.6431 16.2581H3.48387C1.5631 16.2581 0 17.8212 0 19.7419V33.6774C0 35.5982 1.5631 37.1613 3.48387 37.1613H16.9386L20.7627 40.9854C21.2923 41.515 21.996 41.8064 22.745 41.8064C24.2907 41.8064 25.5484 40.5488 25.5484 39.0031V37.1613H35.5413C35.6144 37.2414 35.6818 37.325 35.7596 37.4017C35.8072 37.4493 35.8583 37.4899 35.9071 37.5352C35.2661 37.9486 34.8387 38.6663 34.8387 39.4839C34.8387 42.0457 36.9221 44.129 39.4839 44.129H48.7742V46.8418C43.1884 49.2852 39.4839 54.8768 39.4839 61.0188V72H72V53.4194C72 49.7172 69.0956 46.6885 65.4468 46.4725ZM33.6774 6.96774C33.6774 4.40594 35.7608 2.32258 38.3226 2.32258C40.8844 2.32258 42.9677 4.40594 42.9677 6.96774H45.2903C45.2903 6.15252 45.1417 5.37329 44.8839 4.64516H48.7742V11.6129H40.6452H39.4839H38.3226C35.7608 11.6129 33.6774 9.52955 33.6774 6.96774ZM16.2581 16.2581C18.1788 16.2581 19.7419 17.8212 19.7419 19.7419C19.7419 21.6627 18.1788 23.2258 16.2581 23.2258C14.3373 23.2258 12.7742 21.6627 12.7742 19.7419C12.7742 17.8212 14.3373 16.2581 16.2581 16.2581ZM2.32258 33.6774V19.7419C2.32258 19.1021 2.844 18.5806 3.48387 18.5806H10.5689C10.4923 18.9557 10.4516 19.3448 10.4516 19.7419C10.4516 21.3979 11.1577 22.8855 12.2737 23.9446C7.83058 25.5751 4.64516 29.8359 4.64516 34.8387H3.48387C2.844 34.8387 2.32258 34.3173 2.32258 33.6774ZM23.2258 34.8387V39.0031C23.2258 39.3956 22.6812 39.6209 22.4048 39.3434L17.9001 34.8387H6.96774C6.96774 29.7163 11.1356 25.5484 16.2581 25.5484C21.3805 25.5484 25.5484 29.7163 25.5484 34.8387H23.2258ZM27.871 34.8387C27.871 29.8359 24.6855 25.5751 20.2425 23.9446C21.3584 22.8855 22.0645 21.3979 22.0645 19.7419C22.0645 19.3448 22.0239 18.9557 21.9472 18.5806H32.4871C31.0901 21.4711 30.1935 24.6286 30.1935 26.7097V27.547L33.6774 28.7083V32.3756C33.6774 33.2303 33.8354 34.0595 34.1222 34.8387H27.871ZM54.5806 32.436V38.3226C54.5806 40.2434 53.0175 41.8064 51.0968 41.8064H39.4839C38.203 41.8064 37.1613 40.7648 37.1613 39.4839H40.7857H48.7742H49.9355C51.2164 39.4839 52.2581 38.4422 52.2581 37.1613V32.436C51.4475 32.3338 50.6683 32.1306 49.9355 31.8321V37.1613H48.7742H40.7857C39.5071 37.1613 38.3052 36.6631 37.4017 35.7596C36.4982 34.8561 36 33.653 36 32.3756V27.0337L32.5626 25.8875C33.048 21.3341 37.217 13.9355 39.4839 13.9355H40.6452H48.7742V15.192C49.493 14.7739 50.2723 14.4546 51.0968 14.2409V3.48387C51.0968 2.844 51.6182 2.32258 52.2581 2.32258H54.5806C55.2205 2.32258 55.7419 2.844 55.7419 3.48387V14.2409C56.5664 14.4546 57.3457 14.7751 58.0645 15.192V5.97135C65.0717 8.76426 69.6774 15.4812 69.6774 23.1515C69.6774 29.3528 66.5965 35.1093 61.4369 38.5502L59.2258 40.0239V43.6483L56.4224 46.4516H51.0968V44.129C54.2985 44.129 56.9032 41.5243 56.9032 38.3226V31.8321C56.1704 32.1294 55.3912 32.3338 54.5806 32.436ZM58.0645 53.4194V69.6774H41.8064V61.0188C41.8064 55.6351 45.151 50.7403 50.1515 48.7742H57.3852L60.4974 45.6619L62.2974 47.0125C59.8111 48.0786 58.0645 50.5475 58.0645 53.4194ZM69.6774 69.6774H60.3871V53.4194C60.3871 50.8575 62.4705 48.7742 65.0323 48.7742C67.5941 48.7742 69.6774 50.8575 69.6774 53.4194V69.6774Z" fill="#1F2428"></path><path d="M53.4196 18.5806C50.8578 18.5806 48.7744 20.6639 48.7744 23.2257C48.7744 25.7875 50.8578 27.8709 53.4196 27.8709C55.9814 27.8709 58.0647 25.7875 58.0647 23.2257C58.0647 20.6639 55.9814 18.5806 53.4196 18.5806ZM53.4196 25.5483C52.1387 25.5483 51.097 24.5066 51.097 23.2257C51.097 21.9448 52.1387 20.9031 53.4196 20.9031C54.7005 20.9031 55.7422 21.9448 55.7422 23.2257C55.7422 24.5066 54.7005 25.5483 53.4196 25.5483Z" fill="#1F2428"></path><path d="M31.3548 44.1289H3.48387C1.5631 44.1289 0 45.692 0 47.6128V61.5483C0 63.469 1.5631 65.0321 3.48387 65.0321H21.5837L25.4079 68.8563C25.9374 69.3858 26.6412 69.6773 27.3902 69.6773C28.9359 69.6773 30.1936 68.4196 30.1936 66.8739V65.0321H31.3548C33.2756 65.0321 34.8387 63.469 34.8387 61.5483V47.6128C34.8387 45.692 33.2756 44.1289 31.3548 44.1289ZM32.5161 61.5483C32.5161 62.1881 31.9947 62.7096 31.3548 62.7096H27.871V66.8739C27.871 67.2665 27.3263 67.4906 27.0499 67.2142L22.5453 62.7096H3.48387C2.844 62.7096 2.32258 62.1881 2.32258 61.5483V47.6128C2.32258 46.9729 2.844 46.4515 3.48387 46.4515H31.3548C31.9947 46.4515 32.5161 46.9729 32.5161 47.6128V61.5483Z" fill="#1F2428"></path></svg> 