<?xml version="1.0" encoding="UTF-8"?> <svg xmlns="http://www.w3.org/2000/svg" width="96" height="96" viewBox="0 0 96 96" fill="none"><rect width="96" height="96" rx="6" fill="#F2F6FC"></rect><path d="M36.5036 54.7529H57.7851L58.6364 59.0092H35.6523L36.5036 54.7529Z" fill="#3693E7"></path><path d="M46.7187 42.8353L47.57 21.1282L57.7851 38.579L59.4876 42.8353H46.7187Z" fill="#3693E7"></path><mask id="path-3-inside-1" fill="white"><path d="M68.5758 58.7353C68.258 58.3791 67.802 58.1749 67.3249 58.1749H59.0652L57.3596 48.1977C57.0054 46.127 55.2239 44.6239 53.1237 44.6239H48.0346V43.5798H61.5759C62.0267 43.5798 62.392 43.2146 62.392 42.7637C62.392 42.3129 62.0267 41.9476 61.5759 41.9476H60.2131L47.9351 19.4256C47.7565 19.0979 47.3789 18.9332 47.0169 19.0254C46.6554 19.1175 46.4024 19.4431 46.4024 19.8162V44.6239H41.3134C39.2132 44.6239 37.4317 46.1269 37.0775 48.1978L35.3718 58.1749H27.1122C26.635 58.1749 26.1791 58.3791 25.8612 58.7353C25.5444 59.0902 25.3934 59.5644 25.4472 60.0364C25.9768 64.6856 27.3347 69.3167 29.483 73.8014C29.7483 74.3551 30.3179 74.7129 30.9344 74.7129H32.0666C32.9547 74.7129 33.6773 73.9904 33.6773 73.1022V65.3075H37.6318C38.0826 65.3075 38.4479 64.9423 38.4479 64.4914C38.4479 64.0406 38.0826 63.6753 37.6318 63.6753H33.6773V59.807H60.7598V63.6753H52.0511C50.8789 63.6753 49.7602 64.1781 48.9821 65.0548L48.3667 65.7481C48.2617 65.8664 48.1107 65.9343 47.9526 65.9343H46.4845C46.3264 65.9343 46.1753 65.8664 46.0703 65.7481L45.455 65.0548C44.6768 64.1781 43.5581 63.6753 42.386 63.6753H41.4403C40.9895 63.6753 40.6242 64.0406 40.6242 64.4914C40.6242 64.9423 40.9895 65.3075 41.4403 65.3075H42.386C43.092 65.3075 43.7656 65.6103 44.2342 66.1382L44.8495 66.8316C45.2641 67.2986 45.86 67.5665 46.4844 67.5665H47.9525C48.5769 67.5665 49.1728 67.2986 49.5873 66.8316L50.2027 66.1382C50.6713 65.6103 51.3449 65.3075 52.0509 65.3075H60.7596V73.1022C60.7596 73.9904 61.4821 74.7129 62.3703 74.7129H63.5025C64.1189 74.7129 64.6885 74.3551 64.9538 73.8014C66.2504 71.0947 67.2661 68.3202 67.973 65.5548C68.0845 65.118 67.8211 64.6735 67.3844 64.5619C66.9474 64.4506 66.5031 64.714 66.3916 65.1505C65.7126 67.8073 64.7362 70.4752 63.4893 73.0807H62.3918V59.8071H67.3247C67.3301 59.8071 67.3446 59.8071 67.358 59.8221C67.3697 59.8354 67.3685 59.8464 67.3679 59.8517C67.3075 60.3818 67.2349 60.9199 67.1522 61.4509C67.0827 61.8963 67.3875 62.3136 67.8328 62.3829C68.2786 62.4531 68.6956 62.1476 68.7648 61.7023C68.8511 61.1492 68.9266 60.5888 68.9896 60.0364C69.0436 59.5644 68.8927 59.0902 68.5758 58.7353ZM48.0346 41.9476V23.0183L58.3541 41.9477C57.3873 41.9476 49.0544 41.9476 48.0346 41.9476ZM38.2798 50.8515H43.2213V53.6456H37.8023L38.2798 50.8515ZM44.8536 50.8515H49.6892V53.6456H44.8536V50.8515ZM51.3214 50.8515H56.1573L56.6348 53.6456H51.3214V50.8515ZM41.3134 46.2561H53.1238C54.4263 46.2561 55.5311 47.1883 55.7509 48.4728L55.8785 49.2192H38.5587L38.6863 48.4729C38.9061 47.1883 40.0109 46.2561 41.3134 46.2561ZM32.045 73.0807H30.9475C28.8824 68.7653 27.5772 64.3143 27.0691 59.8516C27.0684 59.8463 27.0671 59.8354 27.079 59.8221C27.0924 59.8071 27.1068 59.8071 27.1123 59.8071H32.0452V73.0807H32.045ZM37.0276 58.1749L37.523 55.2778H56.9142L57.4095 58.1749H37.0276Z"></path></mask><path d="M68.5758 58.7353C68.258 58.3791 67.802 58.1749 67.3249 58.1749H59.0652L57.3596 48.1977C57.0054 46.127 55.2239 44.6239 53.1237 44.6239H48.0346V43.5798H61.5759C62.0267 43.5798 62.392 43.2146 62.392 42.7637C62.392 42.3129 62.0267 41.9476 61.5759 41.9476H60.2131L47.9351 19.4256C47.7565 19.0979 47.3789 18.9332 47.0169 19.0254C46.6554 19.1175 46.4024 19.4431 46.4024 19.8162V44.6239H41.3134C39.2132 44.6239 37.4317 46.1269 37.0775 48.1978L35.3718 58.1749H27.1122C26.635 58.1749 26.1791 58.3791 25.8612 58.7353C25.5444 59.0902 25.3934 59.5644 25.4472 60.0364C25.9768 64.6856 27.3347 69.3167 29.483 73.8014C29.7483 74.3551 30.3179 74.7129 30.9344 74.7129H32.0666C32.9547 74.7129 33.6773 73.9904 33.6773 73.1022V65.3075H37.6318C38.0826 65.3075 38.4479 64.9423 38.4479 64.4914C38.4479 64.0406 38.0826 63.6753 37.6318 63.6753H33.6773V59.807H60.7598V63.6753H52.0511C50.8789 63.6753 49.7602 64.1781 48.9821 65.0548L48.3667 65.7481C48.2617 65.8664 48.1107 65.9343 47.9526 65.9343H46.4845C46.3264 65.9343 46.1753 65.8664 46.0703 65.7481L45.455 65.0548C44.6768 64.1781 43.5581 63.6753 42.386 63.6753H41.4403C40.9895 63.6753 40.6242 64.0406 40.6242 64.4914C40.6242 64.9423 40.9895 65.3075 41.4403 65.3075H42.386C43.092 65.3075 43.7656 65.6103 44.2342 66.1382L44.8495 66.8316C45.2641 67.2986 45.86 67.5665 46.4844 67.5665H47.9525C48.5769 67.5665 49.1728 67.2986 49.5873 66.8316L50.2027 66.1382C50.6713 65.6103 51.3449 65.3075 52.0509 65.3075H60.7596V73.1022C60.7596 73.9904 61.4821 74.7129 62.3703 74.7129H63.5025C64.1189 74.7129 64.6885 74.3551 64.9538 73.8014C66.2504 71.0947 67.2661 68.3202 67.973 65.5548C68.0845 65.118 67.8211 64.6735 67.3844 64.5619C66.9474 64.4506 66.5031 64.714 66.3916 65.1505C65.7126 67.8073 64.7362 70.4752 63.4893 73.0807H62.3918V59.8071H67.3247C67.3301 59.8071 67.3446 59.8071 67.358 59.8221C67.3697 59.8354 67.3685 59.8464 67.3679 59.8517C67.3075 60.3818 67.2349 60.9199 67.1522 61.4509C67.0827 61.8963 67.3875 62.3136 67.8328 62.3829C68.2786 62.4531 68.6956 62.1476 68.7648 61.7023C68.8511 61.1492 68.9266 60.5888 68.9896 60.0364C69.0436 59.5644 68.8927 59.0902 68.5758 58.7353ZM48.0346 41.9476V23.0183L58.3541 41.9477C57.3873 41.9476 49.0544 41.9476 48.0346 41.9476ZM38.2798 50.8515H43.2213V53.6456H37.8023L38.2798 50.8515ZM44.8536 50.8515H49.6892V53.6456H44.8536V50.8515ZM51.3214 50.8515H56.1573L56.6348 53.6456H51.3214V50.8515ZM41.3134 46.2561H53.1238C54.4263 46.2561 55.5311 47.1883 55.7509 48.4728L55.8785 49.2192H38.5587L38.6863 48.4729C38.9061 47.1883 40.0109 46.2561 41.3134 46.2561ZM32.045 73.0807H30.9475C28.8824 68.7653 27.5772 64.3143 27.0691 59.8516C27.0684 59.8463 27.0671 59.8354 27.079 59.8221C27.0924 59.8071 27.1068 59.8071 27.1123 59.8071H32.0452V73.0807H32.045ZM37.0276 58.1749L37.523 55.2778H56.9142L57.4095 58.1749H37.0276Z" fill="#1F2428" stroke="#F2F6FC" stroke-width="0.4" mask="url(#path-3-inside-1)"></path></svg> 