<?xml version="1.0" encoding="UTF-8"?> <svg xmlns="http://www.w3.org/2000/svg" width="72" height="72" viewBox="0 0 72 72" fill="none"><rect width="72" height="72" fill="#F2F6FC"></rect><path d="M47.1437 6.01796L45.5549 4.42912C42.6993 1.57239 38.9019 0 34.8629 0C26.5246 0 19.7417 6.78289 19.7417 15.1212V24.3871H20.903C20.903 21.8218 22.9829 19.7419 25.5482 19.7419V18.5806H32.9735C35.7038 18.5806 38.3722 17.7726 40.6449 16.2581C42.1323 17.7454 44.1486 18.5806 46.2518 18.5806H46.4514V19.7419C49.0166 19.7419 51.0965 21.8218 51.0965 24.3871H52.2578V14.4838C52.2578 10.9024 50.3033 7.67597 47.1437 6.01796Z" fill="#3693E7"></path><path d="M4.75293 36.5885L39.0031 70.8386H46.4516C44.5271 70.8386 42.9678 69.2793 42.9678 67.3548C42.9678 65.9718 43.7798 64.7884 44.9479 64.2253L44.9399 64.1998L5.75318 25.0142C5.77303 25.1916 5.80648 25.3646 5.80648 25.5483V33.6773C5.80648 34.7865 5.40219 35.7907 4.75293 36.5885Z" fill="#3693E7"></path><path d="M42.9676 23.2257C42.9676 23.8671 42.4476 24.387 41.8063 24.387C41.165 24.387 40.645 23.8671 40.645 23.2257C40.645 22.5844 41.165 22.0645 41.8063 22.0645C42.4476 22.0645 42.9676 22.5844 42.9676 23.2257Z" fill="#1F2428"></path><path d="M31.3548 23.2257C31.3548 23.8671 30.8348 24.387 30.1935 24.387C29.5522 24.387 29.0322 23.8671 29.0322 23.2257C29.0322 22.5844 29.5522 22.0645 30.1935 22.0645C30.8348 22.0645 31.3548 22.5844 31.3548 23.2257Z" fill="#1F2428"></path><path d="M36.0001 33.6774C38.562 33.6774 40.6453 31.5941 40.6453 29.0322H38.3227C38.3227 30.3132 37.2811 31.3548 36.0001 31.3548C34.7192 31.3548 33.6776 30.3132 33.6776 29.0322H31.355C31.355 31.5941 33.4383 33.6774 36.0001 33.6774Z" fill="#1F2428"></path><path d="M60.387 58.0646H62.7095V48.7499C62.7095 44.8396 59.9214 41.4805 56.0786 40.7603L44.1289 38.52V36.1498C45.771 34.5383 46.9357 32.4442 47.3933 30.0984C50.1457 29.6442 52.2579 27.266 52.2579 24.3872C52.2579 21.5837 50.2591 19.2379 47.6128 18.6981V16.2581H45.2902V17.344C43.8476 17.1393 42.5145 16.4844 41.4661 15.4371L40.7936 14.7634L40.0003 15.2919C37.9125 16.6845 35.4844 17.4194 32.9747 17.4194H26.7095V16.2581H24.387V18.6981C21.7406 19.2379 19.7418 21.5826 19.7418 24.3872C19.7418 27.266 21.854 29.6442 24.6064 30.0984C25.064 32.4442 26.2287 34.5383 27.8708 36.1498V38.52L20.6882 39.8673C20.6627 39.8718 20.6428 39.8752 20.6173 39.8797L22.6076 41.8706L28.5592 40.7547C29.5464 41.8808 32.0108 44.1291 35.9999 44.1291C39.989 44.1291 42.4533 41.8808 43.4388 40.7547L55.6499 43.0444C58.3944 43.5575 60.387 45.9584 60.387 48.7499V55.742H53.4192V47.613H51.0966V55.2181C48.0879 49.9889 42.4544 46.4517 35.9999 46.4517C29.5453 46.4517 23.9118 49.9889 20.9031 55.2181V52.7401L18.5805 50.4175V55.742H11.6128V48.7499C11.6128 47.3158 12.1412 45.9629 13.0734 44.9093L11.4302 43.2661C10.0648 44.7562 9.29018 46.6944 9.29018 48.7499V58.0646H11.6128V69.6775H4.64502V72.0001H67.3547V69.6775H60.387V58.0646ZM49.9353 24.3872C49.9353 25.8989 48.9612 27.1764 47.6128 27.6573V21.1182C48.9612 21.5979 49.9353 22.8754 49.9353 24.3872ZM22.0644 24.3872C22.0644 22.8754 23.0385 21.5979 24.387 21.1171V27.6561C23.0385 27.1764 22.0644 25.8989 22.0644 24.3872ZM26.7095 27.871V19.742H32.9747C35.6398 19.742 38.2283 19.0406 40.5174 17.7063C41.8851 18.8234 43.5341 19.5027 45.2902 19.6864V27.871C45.2902 32.9936 41.1225 37.1614 35.9999 37.1614C30.8773 37.1614 26.7095 32.9936 26.7095 27.871ZM35.9999 41.8065C32.7088 41.8065 30.7843 39.8162 30.1934 39.0938V37.9127C31.9042 38.9056 33.8842 39.4839 35.9999 39.4839C38.1155 39.4839 40.0956 38.9056 41.8063 37.9127V39.0938C41.2189 39.8077 39.2841 41.8065 35.9999 41.8065ZM35.9999 48.7743C43.9316 48.7743 50.4406 54.9277 51.0377 62.7098H48.7151C48.1259 56.2087 42.6518 51.0968 35.9999 51.0968C29.348 51.0968 23.8738 56.2087 23.2846 62.7098H20.9621C21.5591 54.9277 28.0682 48.7743 35.9999 48.7743ZM42.4522 69.6775H29.5476C29.9473 68.9914 30.1934 68.2049 30.1934 67.3549C30.1934 64.8163 28.1458 62.754 25.6157 62.7166C26.193 57.4953 30.6266 53.4194 35.9999 53.4194C41.3731 53.4194 45.8068 57.4953 46.384 62.7166C43.8539 62.754 41.8063 64.8163 41.8063 67.3549C41.8063 68.2049 42.0524 68.9914 42.4522 69.6775ZM13.9353 69.6775V58.0646H18.5805V62.7098H16.2579V65.0323H25.5482C26.8292 65.0323 27.8708 66.074 27.8708 67.3549C27.8708 68.6358 26.8292 69.6775 25.5482 69.6775H13.9353ZM44.1289 67.3549C44.1289 66.074 45.1705 65.0323 46.4515 65.0323H55.7418V62.7098H53.4192V58.0646H58.0644V69.6775H46.4515C45.1705 69.6775 44.1289 68.6358 44.1289 67.3549Z" fill="#1F2428"></path><path d="M6.96774 33.6774V25.5484C6.96774 22.7449 4.96894 20.3991 2.32258 19.8593V12.7742H0V47.6129H2.32258V39.3665C4.96894 38.8267 6.96774 36.4808 6.96774 33.6774ZM4.64516 25.5484V33.6774C4.64516 35.1891 3.67099 36.4666 2.32258 36.9475V22.2783C3.67099 22.7591 4.64516 24.0366 4.64516 25.5484Z" fill="#1F2428"></path><path d="M69.6772 69.6772H71.9998V71.9998H69.6772V69.6772Z" fill="#1F2428"></path><path d="M0 69.6772H2.32258V71.9998H0V69.6772Z" fill="#1F2428"></path></svg> 