<?xml version="1.0" encoding="UTF-8"?> <svg xmlns="http://www.w3.org/2000/svg" width="96" height="96" viewBox="0 0 96 96" fill="none"><rect width="96" height="96" rx="6" transform="matrix(-1 0 0 1 96 0)" fill="#F2F6FC"></rect><path d="M28.9998 49L31 46L49.5 41.5L52.5 39L61.5 37L70 40.5C72.3941 40.2516 74.5 42 72.5 44C70.5 46 28.9998 53 28.9998 53C27.5 53 26.9996 51 28.9998 49Z" fill="#3693E7"></path><mask id="path-3-inside-1" fill="white"><path d="M21.8057 58.8903C24.3256 58.8903 26.7067 57.6653 28.1751 55.6133C28.2741 55.4749 28.4076 55.4543 28.4783 55.4543C28.5491 55.4543 28.6825 55.4749 28.7815 55.6133C30.2178 57.6057 32.5816 58.8888 35.1527 58.8903C37.6726 58.8903 40.0537 57.6653 41.5222 55.6133C41.6211 55.4749 41.7547 55.4543 41.8253 55.4543C41.8961 55.4543 42.0296 55.4749 42.1286 55.6133C43.5973 57.6653 45.979 58.8903 48.4998 58.8903C51.0197 58.8903 53.4008 57.6653 54.8693 55.6133C54.9682 55.4749 55.1017 55.4543 55.1724 55.4543C55.2432 55.4543 55.3766 55.4749 55.4757 55.6133C56.9443 57.6653 59.3261 58.8903 61.8468 58.8903C64.3667 58.8903 66.7479 57.6653 68.2163 55.6133C68.3153 55.4749 68.4488 55.4543 68.5195 55.4543C68.5903 55.4543 68.7237 55.4749 68.8227 55.6133C70.2914 57.6653 72.6731 58.8903 75.1939 58.8903C75.6388 58.8903 75.9996 58.5297 75.9996 58.0846C75.9996 57.6396 75.6388 57.279 75.1939 57.279C73.1918 57.279 71.2999 56.3056 70.133 54.6755C69.76 54.1542 69.1568 53.843 68.5195 53.843C67.8822 53.843 67.2791 54.1542 66.9059 54.6755C65.7392 56.3057 63.8479 57.279 61.8467 57.279C59.8446 57.279 57.9527 56.3056 56.7859 54.6755C56.4128 54.1542 55.8096 53.843 55.1723 53.843C54.5351 53.843 53.9319 54.1542 53.5587 54.6755C52.392 56.3057 50.5007 57.279 48.4996 57.279C46.4974 57.279 44.6055 56.3056 43.4387 54.6755C43.0656 54.1542 42.4625 53.843 41.8251 53.843C41.1879 53.843 40.5847 54.1542 40.2115 54.6755C39.0448 56.3057 37.1536 57.279 35.1524 57.279C34.5048 57.279 33.8691 57.1756 33.2653 56.9826L32.5382 53.5616L69.9439 45.6108C69.1416 47.7104 67.9427 49.594 66.3802 51.2095C64.9907 52.6462 63.3701 53.8081 61.5634 54.6631C61.1612 54.8534 60.9894 55.3338 61.1798 55.736C61.3701 56.1381 61.8504 56.3098 62.2526 56.1196C64.2353 55.1813 66.0136 53.9062 67.5385 52.3296C69.2536 50.5564 70.5695 48.4887 71.4498 46.1841L71.8213 45.2116L72.3094 45.1079C73.0368 44.9534 73.6605 44.5247 74.0655 43.9011C74.4705 43.2774 74.6085 42.5334 74.4538 41.8059C74.2992 41.0786 73.8706 40.4549 73.2469 40.0499C72.6232 39.6448 71.8792 39.507 71.1518 39.6617L70.4639 39.8079L63.5795 37.2503L64.6858 37.0151C65.343 36.8755 65.8515 36.3593 65.9813 35.7C66.0928 35.1257 65.8296 34.2521 65.1418 33.916L58.8368 31.2401C57.4909 30.6691 55.9362 31.1444 55.1399 32.3705L54.8903 32.7548L50.2396 31.4559C49.9976 31.3884 49.738 31.4376 49.5376 31.5887L47.1688 33.3761C46.8137 33.6441 46.743 34.1493 47.011 34.5046C47.1695 34.7145 47.4106 34.825 47.6548 34.8249C47.8238 34.8249 47.9942 34.7719 48.1395 34.6624L50.1901 33.1151L53.9707 34.1709L51.8849 37.3828L43.4455 39.1038C40.0589 39.8417 37.4484 38.1299 36.3251 37.0338C35.9476 36.679 35.4355 36.4921 34.92 36.5216C34.4001 36.5512 33.9284 36.7863 33.5897 37.1861L32.8583 38.0562C32.5719 38.3969 32.616 38.905 32.9566 39.1914C33.2972 39.4775 33.8053 39.4337 34.0917 39.0931L34.8212 38.2253C34.8831 38.1523 34.9588 38.1335 35.0115 38.1305C35.0564 38.1273 35.1435 38.1346 35.2216 38.2079C35.878 38.825 36.8846 39.6095 38.2054 40.1722L37.0022 40.4176C36.5662 40.5064 36.2848 40.9319 36.3738 41.368C36.4379 41.6722 36.8323 42.0981 37.3242 41.9965L50.6539 39.2785L50.0542 40.202C49.8385 40.5089 48.9363 41.0822 47.6626 41.353L31.6708 44.7522C31.14 44.17 30.5858 43.3006 31.2237 42.5048L31.6448 42.0039C31.9311 41.6634 31.8871 41.1552 31.5466 40.8689C31.2059 40.5824 30.6977 40.6264 30.4114 40.9671L29.9923 41.4656C29.0266 42.5659 29.128 44.3078 30.1471 45.4108C29.6565 45.8936 29.4129 46.6078 29.5664 47.3296L29.8046 48.4504L28.483 48.7313C26.9815 49.0506 26.0195 50.5319 26.3388 52.0333C26.5233 52.9014 27.0973 53.5871 27.8379 53.9511C27.4518 54.084 27.1089 54.3344 26.8647 54.6755C25.6981 56.3056 23.8068 57.279 21.8057 57.279C21.3607 57.279 21 57.6396 21 58.0846C21 58.5297 21.3607 58.8903 21.8057 58.8903ZM31.4154 56.0273C30.9136 55.6506 30.4654 55.197 30.092 54.6754C29.9534 54.4818 29.7829 54.3172 29.591 54.1868C29.6076 54.1836 29.6243 54.1811 29.641 54.1776L30.9626 53.8967L31.4154 56.0273ZM56.4915 33.2482C56.8926 32.754 57.4298 32.4352 58.2076 32.7234L59.937 33.4574L58.0934 33.8493C57.6581 33.9418 57.3804 34.3696 57.4728 34.8049C57.5534 35.1836 57.8878 35.4432 58.2601 35.4432C58.3156 35.4432 58.372 35.4374 58.4284 35.4254L62.5232 34.555L64.3992 35.3513C64.4027 35.3605 64.4038 35.3724 64.4006 35.389C64.3924 35.4304 64.3695 35.4353 64.3511 35.4392L53.5822 37.7283L56.4915 33.2482ZM28.8182 50.3073L56.762 44.3676C57.1972 44.2751 57.4751 43.8473 57.3825 43.412C57.2899 42.9767 56.8626 42.6985 56.4269 42.7915L31.3809 48.1152L31.1427 46.9944C31.0886 46.7398 31.2517 46.4885 31.5063 46.4344L47.9978 42.929C49.851 42.5352 50.9832 41.6999 51.3894 41.1043C51.3929 41.0993 51.3962 41.0942 51.3995 41.0891L52.3411 39.6391L60.6367 37.8758L67.5211 40.4334L60.3528 41.9571C59.9177 42.0496 59.6398 42.4774 59.7324 42.9127C59.825 43.348 60.2523 43.6264 60.6879 43.5332L71.4871 41.2378C71.7937 41.1727 72.1069 41.2308 72.3696 41.4013C72.6322 41.5717 72.8128 41.8345 72.8779 42.141C72.943 42.4474 72.8849 42.7608 72.7144 43.0234C72.5438 43.2861 72.2811 43.4667 71.9747 43.5318L29.3059 52.6015C28.6734 52.7359 28.0495 52.3307 27.915 51.6982C27.7806 51.0658 28.1858 50.4418 28.8182 50.3073Z"></path></mask><path d="M21.8057 58.8903C24.3256 58.8903 26.7067 57.6653 28.1751 55.6133C28.2741 55.4749 28.4076 55.4543 28.4783 55.4543C28.5491 55.4543 28.6825 55.4749 28.7815 55.6133C30.2178 57.6057 32.5816 58.8888 35.1527 58.8903C37.6726 58.8903 40.0537 57.6653 41.5222 55.6133C41.6211 55.4749 41.7547 55.4543 41.8253 55.4543C41.8961 55.4543 42.0296 55.4749 42.1286 55.6133C43.5973 57.6653 45.979 58.8903 48.4998 58.8903C51.0197 58.8903 53.4008 57.6653 54.8693 55.6133C54.9682 55.4749 55.1017 55.4543 55.1724 55.4543C55.2432 55.4543 55.3766 55.4749 55.4757 55.6133C56.9443 57.6653 59.3261 58.8903 61.8468 58.8903C64.3667 58.8903 66.7479 57.6653 68.2163 55.6133C68.3153 55.4749 68.4488 55.4543 68.5195 55.4543C68.5903 55.4543 68.7237 55.4749 68.8227 55.6133C70.2914 57.6653 72.6731 58.8903 75.1939 58.8903C75.6388 58.8903 75.9996 58.5297 75.9996 58.0846C75.9996 57.6396 75.6388 57.279 75.1939 57.279C73.1918 57.279 71.2999 56.3056 70.133 54.6755C69.76 54.1542 69.1568 53.843 68.5195 53.843C67.8822 53.843 67.2791 54.1542 66.9059 54.6755C65.7392 56.3057 63.8479 57.279 61.8467 57.279C59.8446 57.279 57.9527 56.3056 56.7859 54.6755C56.4128 54.1542 55.8096 53.843 55.1723 53.843C54.5351 53.843 53.9319 54.1542 53.5587 54.6755C52.392 56.3057 50.5007 57.279 48.4996 57.279C46.4974 57.279 44.6055 56.3056 43.4387 54.6755C43.0656 54.1542 42.4625 53.843 41.8251 53.843C41.1879 53.843 40.5847 54.1542 40.2115 54.6755C39.0448 56.3057 37.1536 57.279 35.1524 57.279C34.5048 57.279 33.8691 57.1756 33.2653 56.9826L32.5382 53.5616L69.9439 45.6108C69.1416 47.7104 67.9427 49.594 66.3802 51.2095C64.9907 52.6462 63.3701 53.8081 61.5634 54.6631C61.1612 54.8534 60.9894 55.3338 61.1798 55.736C61.3701 56.1381 61.8504 56.3098 62.2526 56.1196C64.2353 55.1813 66.0136 53.9062 67.5385 52.3296C69.2536 50.5564 70.5695 48.4887 71.4498 46.1841L71.8213 45.2116L72.3094 45.1079C73.0368 44.9534 73.6605 44.5247 74.0655 43.9011C74.4705 43.2774 74.6085 42.5334 74.4538 41.8059C74.2992 41.0786 73.8706 40.4549 73.2469 40.0499C72.6232 39.6448 71.8792 39.507 71.1518 39.6617L70.4639 39.8079L63.5795 37.2503L64.6858 37.0151C65.343 36.8755 65.8515 36.3593 65.9813 35.7C66.0928 35.1257 65.8296 34.2521 65.1418 33.916L58.8368 31.2401C57.4909 30.6691 55.9362 31.1444 55.1399 32.3705L54.8903 32.7548L50.2396 31.4559C49.9976 31.3884 49.738 31.4376 49.5376 31.5887L47.1688 33.3761C46.8137 33.6441 46.743 34.1493 47.011 34.5046C47.1695 34.7145 47.4106 34.825 47.6548 34.8249C47.8238 34.8249 47.9942 34.7719 48.1395 34.6624L50.1901 33.1151L53.9707 34.1709L51.8849 37.3828L43.4455 39.1038C40.0589 39.8417 37.4484 38.1299 36.3251 37.0338C35.9476 36.679 35.4355 36.4921 34.92 36.5216C34.4001 36.5512 33.9284 36.7863 33.5897 37.1861L32.8583 38.0562C32.5719 38.3969 32.616 38.905 32.9566 39.1914C33.2972 39.4775 33.8053 39.4337 34.0917 39.0931L34.8212 38.2253C34.8831 38.1523 34.9588 38.1335 35.0115 38.1305C35.0564 38.1273 35.1435 38.1346 35.2216 38.2079C35.878 38.825 36.8846 39.6095 38.2054 40.1722L37.0022 40.4176C36.5662 40.5064 36.2848 40.9319 36.3738 41.368C36.4379 41.6722 36.8323 42.0981 37.3242 41.9965L50.6539 39.2785L50.0542 40.202C49.8385 40.5089 48.9363 41.0822 47.6626 41.353L31.6708 44.7522C31.14 44.17 30.5858 43.3006 31.2237 42.5048L31.6448 42.0039C31.9311 41.6634 31.8871 41.1552 31.5466 40.8689C31.2059 40.5824 30.6977 40.6264 30.4114 40.9671L29.9923 41.4656C29.0266 42.5659 29.128 44.3078 30.1471 45.4108C29.6565 45.8936 29.4129 46.6078 29.5664 47.3296L29.8046 48.4504L28.483 48.7313C26.9815 49.0506 26.0195 50.5319 26.3388 52.0333C26.5233 52.9014 27.0973 53.5871 27.8379 53.9511C27.4518 54.084 27.1089 54.3344 26.8647 54.6755C25.6981 56.3056 23.8068 57.279 21.8057 57.279C21.3607 57.279 21 57.6396 21 58.0846C21 58.5297 21.3607 58.8903 21.8057 58.8903ZM31.4154 56.0273C30.9136 55.6506 30.4654 55.197 30.092 54.6754C29.9534 54.4818 29.7829 54.3172 29.591 54.1868C29.6076 54.1836 29.6243 54.1811 29.641 54.1776L30.9626 53.8967L31.4154 56.0273ZM56.4915 33.2482C56.8926 32.754 57.4298 32.4352 58.2076 32.7234L59.937 33.4574L58.0934 33.8493C57.6581 33.9418 57.3804 34.3696 57.4728 34.8049C57.5534 35.1836 57.8878 35.4432 58.2601 35.4432C58.3156 35.4432 58.372 35.4374 58.4284 35.4254L62.5232 34.555L64.3992 35.3513C64.4027 35.3605 64.4038 35.3724 64.4006 35.389C64.3924 35.4304 64.3695 35.4353 64.3511 35.4392L53.5822 37.7283L56.4915 33.2482ZM28.8182 50.3073L56.762 44.3676C57.1972 44.2751 57.4751 43.8473 57.3825 43.412C57.2899 42.9767 56.8626 42.6985 56.4269 42.7915L31.3809 48.1152L31.1427 46.9944C31.0886 46.7398 31.2517 46.4885 31.5063 46.4344L47.9978 42.929C49.851 42.5352 50.9832 41.6999 51.3894 41.1043C51.3929 41.0993 51.3962 41.0942 51.3995 41.0891L52.3411 39.6391L60.6367 37.8758L67.5211 40.4334L60.3528 41.9571C59.9177 42.0496 59.6398 42.4774 59.7324 42.9127C59.825 43.348 60.2523 43.6264 60.6879 43.5332L71.4871 41.2378C71.7937 41.1727 72.1069 41.2308 72.3696 41.4013C72.6322 41.5717 72.8128 41.8345 72.8779 42.141C72.943 42.4474 72.8849 42.7608 72.7144 43.0234C72.5438 43.2861 72.2811 43.4667 71.9747 43.5318L29.3059 52.6015C28.6734 52.7359 28.0495 52.3307 27.915 51.6982C27.7806 51.0658 28.1858 50.4418 28.8182 50.3073Z" fill="#1F2428" stroke="#F2F6FC" stroke-width="0.4" mask="url(#path-3-inside-1)"></path><path d="M21.8057 63.2033H75.1943C75.5841 63.2033 75.9 63.5191 75.9 63.9089C75.9 64.2987 75.5841 64.6146 75.1943 64.6146H21.8057C21.4159 64.6146 21.1 64.2987 21.1 63.9089C21.1 63.5191 21.4159 63.2033 21.8057 63.2033Z" fill="#1F2428" stroke="#F2F6FC" stroke-width="0.2"></path></svg> 