<?xml version="1.0" encoding="UTF-8"?> <svg xmlns="http://www.w3.org/2000/svg" width="72" height="72" viewBox="0 0 72 72" fill="none"><rect width="72" height="72" fill="white"></rect><path d="M71.6932 55.742H57.9114V46.4517H47.4258V48.7742H55.5888V60.3871H16.105V48.7742H24.2663V46.4517H13.7824V55.742H0L5.4186 63.871L0 72H27.7179V62.7097H43.9759V72H71.6932L66.2746 63.871L71.6932 55.742ZM8.21012 63.871L4.33839 58.0646H13.7824V62.1058L23.2457 69.6775H4.33839L8.21012 63.871ZM25.3953 68.422L18.2546 62.7097H25.3953V68.422ZM53.4392 62.7097L46.2985 68.422V62.7097H53.4392ZM67.3548 69.6775H48.4493L57.9114 62.1058V58.0646H67.3548L63.4831 63.871L67.3548 69.6775Z" fill="#1F2428"></path><path d="M46.2988 55.7417H48.6214V58.0643H46.2988V55.7417Z" fill="#1F2428"></path><path d="M48.6211 53.4194H50.9437V55.742H48.6211V53.4194Z" fill="#1F2428"></path><path d="M43.9756 53.4194H46.2982V55.742H43.9756V53.4194Z" fill="#1F2428"></path><path d="M23.0723 55.7417H25.3948V58.0643H23.0723V55.7417Z" fill="#1F2428"></path><path d="M25.3955 53.4194H27.7181V55.742H25.3955V53.4194Z" fill="#1F2428"></path><path d="M20.75 53.4194H23.0726V55.742H20.75V53.4194Z" fill="#1F2428"></path><path d="M46.2988 51.0967H48.6214V53.4193H46.2988V51.0967Z" fill="#1F2428"></path><path d="M23.0723 51.0967H25.3948V53.4193H23.0723V51.0967Z" fill="#1F2428"></path><path d="M61.3958 11.6129C55.6318 11.6129 50.9441 6.92465 50.9441 1.16129V0H20.7506V1.16129C20.7506 6.92465 16.0623 11.6129 10.299 11.6129H9.1377V21.6466C9.1377 37.2543 20.2834 50.6091 35.6393 53.4006L35.8474 53.4392L36.0549 53.4006C51.4108 50.6091 62.557 37.2543 62.557 21.6466V11.6129H61.3958ZM35.8474 45.2903C25.5846 45.2903 17.2667 36.9719 17.2667 26.7097C17.2667 16.4475 25.5846 8.12903 35.8474 8.12903C46.1096 8.12903 54.428 16.4475 54.428 26.7097C54.428 36.9719 46.1096 45.2903 35.8474 45.2903Z" fill="#3693E7"></path><path d="M31.4305 35.9898C31.1634 35.9898 30.8918 35.9201 30.6179 35.7608C29.2553 34.9737 29.7917 33.1875 30.31 31.4604C30.471 30.9251 30.7245 30.0785 30.7642 29.6538C30.3843 29.4854 29.561 29.2937 29.0381 29.1718C27.2474 28.7533 25.3955 28.3229 25.3955 26.7097C25.3955 25.0965 27.2474 24.6644 29.0381 24.2477C29.561 24.1257 30.3843 23.9341 30.7642 23.7657C30.7268 23.341 30.471 22.4944 30.31 21.958C29.7917 20.2308 29.2565 18.4457 30.6179 17.6587C31.9487 16.883 33.2076 18.2127 34.4222 19.4982C34.8333 19.9336 35.4893 20.6294 35.8471 20.8556C36.2044 20.6294 36.8621 19.9325 37.2732 19.4982C38.4855 18.2138 39.7387 16.8819 41.0763 17.6587C42.4384 18.4457 41.9019 20.2319 41.3842 21.9591C41.2226 22.4944 40.9692 23.341 40.93 23.7657C41.3094 23.9341 42.1327 24.1257 42.6555 24.2477C44.4462 24.6661 46.2987 25.0965 46.2987 26.7097C46.2987 28.3229 44.4462 28.755 42.6555 29.1718C42.1327 29.2937 41.3094 29.4854 40.93 29.6538C40.9669 30.0785 41.2226 30.9251 41.3842 31.4615C41.9019 33.1887 42.4372 34.9737 41.0763 35.7608C39.7444 36.5342 38.4855 35.2068 37.2721 33.9213C36.861 33.4858 36.2044 32.7901 35.8471 32.5638C35.4893 32.7901 34.8321 33.4869 34.421 33.9213C33.4571 34.9408 32.4676 35.9898 31.4305 35.9898ZM28.7388 26.7097C29.0313 26.784 29.3273 26.8538 29.5644 26.9082C31.0358 27.2507 32.3048 27.5472 32.8277 28.4483C33.3629 29.3737 32.9796 30.6501 32.5362 32.1272C32.484 32.299 32.4222 32.5031 32.3632 32.7158C32.4965 32.5763 32.6258 32.4419 32.7335 32.3257C33.8137 31.1819 34.7471 30.1936 35.8471 30.1936C36.9466 30.1936 37.8805 31.1819 38.9601 32.3257C39.0707 32.4419 39.1972 32.5763 39.3321 32.7158C39.2703 32.5031 39.2113 32.3001 39.1592 32.1283C38.7152 30.6512 38.3319 29.3737 38.866 28.4494C39.3888 27.5472 40.6596 27.2507 42.1304 26.9082C42.3675 26.8526 42.6635 26.784 42.9566 26.7086C42.6635 26.6343 42.3675 26.5646 42.1304 26.5101C40.6596 26.1676 39.39 25.8711 38.8677 24.9701C38.3319 24.0447 38.7152 22.7683 39.1592 21.2911C39.2113 21.1193 39.2726 20.9146 39.3321 20.7025C39.1983 20.8415 39.0696 20.9764 38.9613 21.0927C37.8805 22.2375 36.9466 23.2259 35.8471 23.2259C34.7471 23.2259 33.8137 22.2375 32.7335 21.0938C32.623 20.9776 32.4965 20.8432 32.3621 20.7037C32.4234 20.9163 32.4829 21.1193 32.5351 21.2911C32.9785 22.7683 33.3618 24.0458 32.8277 24.9701C32.3048 25.8722 31.0347 26.1688 29.5632 26.5113C29.3273 26.5657 29.0313 26.6343 28.7388 26.7097Z" fill="#1F2428"></path><path d="M35.8464 46.4516C24.9605 46.4516 16.1045 37.5957 16.1045 26.7097C16.1045 15.8237 24.9605 6.96777 35.8464 6.96777C46.7324 6.96777 55.5884 15.8237 55.5884 26.7097C55.5884 37.5957 46.7324 46.4516 35.8464 46.4516ZM35.8464 9.29035C26.2414 9.29035 18.4271 17.1047 18.4271 26.7097C18.4271 36.3147 26.2414 44.1291 35.8464 44.1291C45.4515 44.1291 53.2658 36.3147 53.2658 26.7097C53.2658 17.1047 45.4515 9.29035 35.8464 9.29035Z" fill="#1F2428"></path><path d="M35.8471 41.8062C28.052 41.8062 21.4483 35.7208 20.8115 27.953L23.1273 27.7642C23.6648 34.3355 29.2519 39.4837 35.8471 39.4837C42.4417 39.4837 48.0287 34.3355 48.5662 27.7642L50.882 27.953C50.2458 35.7208 43.6415 41.8062 35.8471 41.8062Z" fill="#1F2428"></path><path d="M48.5662 25.6549C48.0287 19.0835 42.4417 13.9354 35.8471 13.9354C29.2519 13.9354 23.6648 19.0835 23.1273 25.6549L20.8115 25.4661C21.4483 17.6982 28.052 11.6128 35.8471 11.6128C43.6415 11.6128 50.2458 17.6982 50.882 25.4661L48.5662 25.6549Z" fill="#1F2428"></path></svg> 