<?xml version="1.0" encoding="UTF-8"?> <svg xmlns="http://www.w3.org/2000/svg" width="96" height="96" viewBox="0 0 96 96" fill="none"><rect width="96" height="96" rx="6" fill="#F2F6FC"></rect><path d="M42.2633 29.7981V54.2981H31.127L42.2633 29.7981Z" fill="#3693E7"></path><path d="M42.2633 21.7799V27.1254L36.4724 24.4526L42.2633 21.7799Z" fill="#3693E7"></path><path d="M26.6154 59.2379L26.6265 59.1575L26.7075 59.1519L30.157 58.9128C30.5028 58.8889 30.7638 58.589 30.7398 58.2432C30.716 57.8973 30.4161 57.6364 30.0703 57.6604L26.0311 57.9403C25.7348 57.9608 25.4934 58.1863 25.4527 58.4806L24.1075 68.2129L24.0084 68.1992L24.1075 68.2129C24.0916 68.3277 24.1004 68.442 24.1402 68.5432C24.2387 68.7936 24.4742 68.9455 24.7266 68.9455H64.6428C64.8651 68.9455 65.0708 68.8279 65.1836 68.6363L65.2698 68.687L65.1836 68.6363L72.8131 55.6832L72.8131 55.6831C72.9314 55.4824 72.9287 55.2327 72.8062 55.0344L72.8061 55.0344C72.6835 54.8359 72.461 54.7216 72.2292 54.7383L72.2289 54.7383L71.354 54.799L71.308 54.8022L71.2757 54.7692L43.1787 26.1151L43.1501 26.086V26.0451V20.7259C43.1501 20.3726 42.8585 20.0876 42.503 20.0983L42.5029 20.0983C42.1639 20.1085 41.8946 20.4064 41.8946 20.7563V21.2187V21.2843L41.8344 21.3105L35.7595 23.9468C35.5301 24.0463 35.3817 24.2725 35.3817 24.5226C35.3817 24.7728 35.5302 24.999 35.7595 25.0985L35.7197 25.1902L35.7595 25.0985L41.8344 27.7347L41.8946 27.7608V27.8264V28.3682V28.3898L41.8857 28.4095L30.4997 53.514L30.4731 53.5727H30.4086H28.9858C28.6325 53.5727 28.3475 53.8643 28.3582 54.2198L28.2583 54.2228L28.3582 54.2198C28.3684 54.5588 28.6663 54.8282 29.0162 54.8282H41.7947H41.8947V54.9282V56.7476V56.8409L41.8016 56.8474L33.3705 57.4317C33.0247 57.4556 32.7638 57.7555 32.7877 58.1013C32.8116 58.4472 33.1115 58.7081 33.4573 58.6841L70.937 56.0864L71.1264 56.0733L71.03 56.2369L64.313 67.6407L64.284 67.69H64.2269H25.5619H25.4472L25.4629 67.5763L26.6154 59.2379ZM41.7547 22.7138L41.8945 22.6531V22.8055V26.2398V26.3922L41.7547 26.3315L37.7977 24.6144L37.5863 24.5226L37.7977 24.4309L41.7547 22.7138ZM41.7035 31.8506L41.8946 31.8919V53.4727V53.5727H41.7946H32.0067H31.8515L31.9156 53.4314L41.7035 31.8506ZM59.2327 55.4899L59.3263 55.6327L59.156 55.6445L46.0447 56.5532L45.8148 56.5691L45.9602 56.3903L48.0566 53.812L48.0828 53.7798L48.1241 53.7756L57.426 52.8318L57.4865 52.8257L57.5198 52.8765L59.2327 55.4899ZM72.8912 54.9818L72.8912 54.9818L72.8912 54.9818ZM54.9766 39.9751L55.0138 39.9781L55.0399 40.0048L57.4023 42.4139L57.6209 42.6368L57.3135 42.5824C51.567 41.5651 45.5577 42.8529 43.2752 43.443L43.1501 43.4753V43.3462V41.2751V41.1985L43.2241 41.1785C43.763 41.0335 44.6952 40.8003 45.8866 40.5726C46.2223 40.5084 46.4449 40.1863 46.3866 39.8492L46.3854 39.8425C46.3226 39.4999 45.9921 39.2741 45.6485 39.3397C44.659 39.5284 43.8474 39.7197 43.2749 39.8663L43.2627 39.8695H43.2501H43.25H43.15V39.7695V28.1239V27.8791L43.3214 28.0539L53.534 38.469L53.7062 38.6446L53.4603 38.6389C52.1278 38.6084 50.7305 38.6652 49.2821 38.8098C48.9336 38.8446 48.6813 39.1602 48.7226 39.5088L48.7233 39.5087V39.5146C48.7664 39.8515 49.0705 40.0926 49.4102 40.0588C51.3797 39.8626 53.247 39.8354 54.9766 39.9751ZM59.2688 44.3349L59.2933 44.3423L59.3112 44.3606L64.248 49.3952L64.476 49.6278L64.1568 49.5633C62.7205 49.2729 60.7429 48.9426 58.4432 48.7455C54.3598 48.3957 48.53 48.4331 43.2859 50.4426L43.1501 50.4946V50.3492V44.8548V44.778L43.2243 44.7582C44.242 44.486 46.67 43.9006 49.6336 43.6227C52.596 43.3449 56.1008 43.3736 59.2688 44.3349ZM66.0963 51.3004L66.1228 51.3074L66.1421 51.327L69.5099 54.7616L69.6616 54.9164L69.4454 54.9314L60.8206 55.5292L60.7622 55.5333L60.73 55.4843L58.3275 51.8187C58.1991 51.6229 57.9721 51.5151 57.7388 51.5382L47.6967 52.557C47.5307 52.5738 47.3781 52.6561 47.273 52.7855L47.1954 52.7224L47.273 52.7855L44.1275 56.6543L44.1001 56.688L44.0568 56.6909L43.257 56.7463L43.1501 56.7537V56.6466V51.916V51.8491L43.2119 51.8236C47.9065 49.8798 53.2301 49.6447 57.5741 49.9463C61.9195 50.2481 65.2942 51.0875 66.0963 51.3004Z" fill="#1F2428" stroke="#F2F6FC" stroke-width="0.2"></path><path d="M62.9413 59.8764V59.8764C62.9413 59.4199 63.3125 59.0487 63.7691 59.0487C64.2256 59.0487 64.5967 59.42 64.5967 59.8764C64.5967 60.3329 64.2255 60.7041 63.7691 60.7041C63.3125 60.7041 62.9414 60.3328 62.9413 59.8764ZM65.8521 59.8764C65.8521 58.7279 64.9175 57.7932 63.7691 57.7932C62.6204 57.7932 61.6859 58.7279 61.6859 59.8764C61.6859 61.025 62.6205 61.9595 63.7691 61.9595C64.9176 61.9595 65.8521 61.025 65.8521 59.8764Z" fill="#1F2428" stroke="#F2F6FC" stroke-width="0.2"></path></svg> 