<?xml version="1.0" encoding="UTF-8"?> <svg xmlns="http://www.w3.org/2000/svg" width="96" height="96" viewBox="0 0 96 96" fill="none"><rect width="96" height="96" rx="6" transform="matrix(-1 0 0 1 96 0)" fill="#F2F6FC"></rect><rect x="28" y="40" width="17" height="8" rx="1" fill="#3693E7"></rect><circle cx="44" cy="61" r="4" fill="#3693E7"></circle><path d="M44.1949 60.2387H44.2035C44.5932 60.2387 44.9092 60.5546 44.9092 60.9443C44.9092 61.334 44.5932 61.65 44.2035 61.65C43.8131 61.65 43.4936 61.3334 43.4936 60.9443C43.4936 60.5539 43.8059 60.2387 44.1949 60.2387Z" fill="#1F2428" stroke="#F2F6FC" stroke-width="0.2"></path><path d="M70.7332 59.2775V59.3775H70.8332H74.3331C74.419 59.3775 74.4886 59.3079 74.4886 59.222V58.3609C74.4886 57.9712 74.8045 57.6553 75.1942 57.6553C75.5839 57.6553 75.8999 57.9712 75.9 58.361V59.2221C75.9 60.086 75.1971 60.7889 74.3332 60.7889H49.3043H49.2032L49.2043 60.89C49.2044 60.8997 49.2048 60.9092 49.2051 60.9174L49.2052 60.9201C49.2055 60.9293 49.2057 60.937 49.2057 60.9443C49.2057 63.7074 46.9576 65.9555 44.1945 65.9555C41.4314 65.9555 39.1833 63.7074 39.1833 60.9443C39.1833 60.937 39.1835 60.9293 39.1838 60.9201C39.1841 60.9114 39.1845 60.9008 39.1846 60.89L39.1858 60.7889H39.0847H28.6945C24.507 60.7889 21.1 57.3819 21.1 53.1944V37.6945C21.1 33.5069 24.507 30.0999 28.6945 30.1H59.6944C63.8819 30.1 67.2889 33.5069 67.2889 37.6945V50.6664V50.7664H67.3889H69.1665C70.0304 50.7664 70.7332 51.4693 70.7332 52.3332V59.2775ZM59.7497 59.3776H59.8497V59.2776V47.1112V47.0112H59.7497H52.75H52.65V47.1112V59.2776V59.3776H52.75H59.7497ZM59.7498 45.5999H59.8498V45.4999V41.9445V41.8445H59.7498H52.7501H52.6501V41.9445V45.4999V45.5999H52.7501H59.7498ZM59.7498 40.4332H59.8498V40.3332V40.2778C59.8498 38.2927 58.2349 36.6779 56.2499 36.6779C54.2648 36.6779 52.65 38.2927 52.65 40.2778V40.3332V40.4332H52.75H59.7498ZM51.1387 50.7664H51.2387V50.6664V40.2778C51.2387 37.5147 53.4868 35.2667 56.2499 35.2667C59.013 35.2667 61.2611 37.5148 61.2611 40.2779V50.6665V50.7665H61.3611H65.7775H65.8775V50.6665V37.6945C65.8775 34.285 63.1039 31.5113 59.6944 31.5113H28.6945C25.285 31.5113 22.5113 34.2849 22.5113 37.6945V50.6665V50.7665H22.6113H45.0556C45.4453 50.7665 45.7612 51.0825 45.7612 51.4722C45.7612 51.8619 45.4453 52.1779 45.0556 52.1779H22.6113H22.5113V52.2779V53.1944C22.5113 56.6038 25.285 59.3776 28.6945 59.3775H39.3637H39.4349L39.4582 59.3102C40.1376 57.3469 42.0038 55.9331 44.1944 55.9331C46.385 55.9331 48.2511 57.3469 48.9305 59.3102L48.9538 59.3775H49.025H51.1387H51.2387V59.2775V52.2778V52.1778H51.1387H48.4996C48.1099 52.1778 47.794 51.8618 47.794 51.4721C47.794 51.0824 48.1099 50.7664 48.4996 50.7664H51.1387ZM61.2611 59.0435V59.176L61.3886 59.1397C63.9764 58.4011 65.8775 56.0166 65.8775 53.1944V52.2779V52.1779H65.7775H61.3611H61.2611V52.2779V59.0435ZM64.3365 59.1985L64.1054 59.3776H64.3977H69.2218H69.3218V59.2776V52.3333C69.3218 52.2474 69.2522 52.1779 69.1664 52.1779H67.3888H67.2888V52.2779V53.1944C67.2888 55.6343 66.1309 57.8079 64.3365 59.1985ZM40.5945 60.9443C40.5945 62.9294 42.2093 64.5442 44.1944 64.5442C46.1794 64.5442 47.7943 62.9294 47.7943 60.9443C47.7943 58.9593 46.1794 57.3444 44.1944 57.3444C42.2093 57.3444 40.5945 58.9593 40.5945 60.9443Z" fill="#1F2428" stroke="#F2F6FC" stroke-width="0.2"></path><path d="M35.6384 47.3221H35.7384V47.2221V40.2224V40.1224H35.6384H29.5552C28.9947 40.1224 28.5387 40.5783 28.5387 41.1389V46.3056C28.5387 46.8661 28.9945 47.3221 29.5552 47.3221H35.6384ZM37.1498 47.2221V47.3221H37.2498H43.333C43.8935 47.3221 44.3495 46.8662 44.3495 46.3056V41.1389C44.3495 40.5784 43.8936 40.1224 43.333 40.1224H37.2498H37.1498V40.2224V47.2221ZM29.5552 38.7111H43.3329C44.6716 38.7111 45.7608 39.8004 45.7607 41.1389V46.3056C45.7607 47.6442 44.6716 48.7334 43.3329 48.7334H29.5552C28.2166 48.7334 27.1273 47.6443 27.1273 46.3056V41.1389C27.1273 39.8004 28.2165 38.7111 29.5552 38.7111Z" fill="#1F2428" stroke="#F2F6FC" stroke-width="0.2"></path></svg> 