<?xml version="1.0" encoding="UTF-8"?> <svg xmlns="http://www.w3.org/2000/svg" width="120" height="120" viewBox="0 0 120 120" fill="none"><rect width="120" height="120" rx="6" fill="#F2F6FC"></rect><path d="M57.6774 52.7419H62.3225V57.3871H57.6774V52.7419Z" fill="#3693E7"></path><path d="M36.7742 52.7419H41.4193V57.3871H36.7742V52.7419Z" fill="#3693E7"></path><path d="M58.8387 38.8064H44.9032L46.0645 34.1613H58.8387V38.8064Z" fill="#3693E7"></path><path d="M86.7097 62.0322H92.5161V71.3225H86.7097V62.0322Z" fill="#3693E7"></path><path d="M52.5525 72.4839H46.0645L40.3675 78.1809C40.3023 78.596 40.2581 79.0184 40.2581 79.4516C40.2581 83.9329 43.9058 87.5807 48.3871 87.5807C52.8684 87.5807 56.5161 83.9329 56.5161 79.4516C56.5161 76.4928 54.9216 73.9066 52.5525 72.4839Z" fill="#3693E7"></path><path d="M66.9677 72.4839H60.4797C58.1106 73.9066 56.5161 76.4928 56.5161 79.4516C56.5161 83.9329 60.1639 87.5807 64.6451 87.5807C69.1264 87.5807 72.7742 83.9329 72.7742 79.4516C72.7742 79.0184 72.7299 78.596 72.6647 78.1809L66.9677 72.4839Z" fill="#3693E7"></path><path d="M79.7419 58.5484H70.4516V51.5807H79.7419V58.5484Z" fill="#3693E7"></path><path d="M37.9355 49.108H37.7855V49.258V60.8709V61.0209H37.9355H48.3871H48.5371V60.8709V49.258V49.108H48.3871H37.9355ZM61.1613 61.0209H61.3113V60.8709V49.258V49.108H61.1613H50.7097H50.5597V49.258V60.8709V61.0209H50.7097H61.1613ZM35.7629 47.0854H63.3339V63.0435H35.7629V47.0854Z" fill="#1F2428" stroke="#F2F6FC" stroke-width="0.3"></path><mask id="path-10-inside-1" fill="white"><path d="M91.3548 85.2581V81.7742C92.6358 81.7742 93.6774 80.7325 93.6774 79.4516V56.3511C93.6774 55.3004 93.3916 54.2667 92.8495 53.3634L87.5994 44.6129H87.871C89.7915 44.6129 91.3548 43.0496 91.3548 41.129C91.3548 39.2085 89.7915 37.6452 87.871 37.6452H76.0023L74.8422 33H45.1578L43.9977 37.6452H27.4839C25.5633 37.6452 24 39.2085 24 41.129C24 42.6408 24.9742 43.9183 26.3226 44.3991V63.1936C25.0416 63.1936 24 64.2352 24 65.5161V67.8387C24 68.2612 24.114 68.6586 24.3124 69C24.114 69.3414 24 69.7388 24 70.1613V72.4839C24 73.7648 25.0416 74.8065 26.3226 74.8065V79.4516C26.3226 80.7325 27.3642 81.7742 28.6452 81.7742V85.2581H24V87.5807H40.2581V85.2581H35.6129V81.7742H37.4546C38.0653 81.7742 38.6647 81.5258 39.0968 81.0938L46.5454 73.6452H66.4869L73.9355 81.0938C74.3676 81.5258 74.9669 81.7742 75.5776 81.7742H84.3871V85.2581H79.7419V87.5807H96V85.2581H91.3548ZM73.6094 37.6452H56.5161V35.3226H73.0288L73.6094 37.6452ZM51.871 37.6452V35.3226H54.1935V37.6452H51.871ZM46.9712 35.3226H49.5484V37.6452H46.3906L46.9712 35.3226ZM27.4839 39.9677H87.871C88.5117 39.9677 89.0323 40.4883 89.0323 41.129C89.0323 41.7698 88.5117 42.2903 87.871 42.2903H27.4839C26.8431 42.2903 26.3226 41.7698 26.3226 41.129C26.3226 40.4883 26.8431 39.9677 27.4839 39.9677ZM28.6452 44.6129H84.8912L90.8575 54.5582C91.1819 55.1002 91.3548 55.7194 91.3548 56.3511V60.871H86.7097V63.1936H91.3548V65.5161H86.7097V67.8387H91.3548V70.1613H86.7097V72.4839H91.3548V79.4516H84.3871V46.9355H65.8064V66.6774H43.2611L37.4546 72.4839H33.2903V63.1936H28.6452V44.6129ZM26.3226 72.4839V70.1613H30.9677V72.4839H26.3226ZM30.9677 65.5161V67.8387H26.3226V65.5161H30.9677ZM33.2903 85.2581H30.9677V81.7742H33.2903V85.2581ZM45.5837 71.3226L37.4546 79.4516H28.6452V74.8065H38.4163L44.2228 69H65.8064V71.3226H45.5837ZM68.129 72.003V49.2581H82.0645V79.4516H75.5776L68.129 72.003ZM86.7097 81.7742H89.0323V85.2581H86.7097V81.7742Z"></path></mask><path d="M91.3548 85.2581V81.7742C92.6358 81.7742 93.6774 80.7325 93.6774 79.4516V56.3511C93.6774 55.3004 93.3916 54.2667 92.8495 53.3634L87.5994 44.6129H87.871C89.7915 44.6129 91.3548 43.0496 91.3548 41.129C91.3548 39.2085 89.7915 37.6452 87.871 37.6452H76.0023L74.8422 33H45.1578L43.9977 37.6452H27.4839C25.5633 37.6452 24 39.2085 24 41.129C24 42.6408 24.9742 43.9183 26.3226 44.3991V63.1936C25.0416 63.1936 24 64.2352 24 65.5161V67.8387C24 68.2612 24.114 68.6586 24.3124 69C24.114 69.3414 24 69.7388 24 70.1613V72.4839C24 73.7648 25.0416 74.8065 26.3226 74.8065V79.4516C26.3226 80.7325 27.3642 81.7742 28.6452 81.7742V85.2581H24V87.5807H40.2581V85.2581H35.6129V81.7742H37.4546C38.0653 81.7742 38.6647 81.5258 39.0968 81.0938L46.5454 73.6452H66.4869L73.9355 81.0938C74.3676 81.5258 74.9669 81.7742 75.5776 81.7742H84.3871V85.2581H79.7419V87.5807H96V85.2581H91.3548ZM73.6094 37.6452H56.5161V35.3226H73.0288L73.6094 37.6452ZM51.871 37.6452V35.3226H54.1935V37.6452H51.871ZM46.9712 35.3226H49.5484V37.6452H46.3906L46.9712 35.3226ZM27.4839 39.9677H87.871C88.5117 39.9677 89.0323 40.4883 89.0323 41.129C89.0323 41.7698 88.5117 42.2903 87.871 42.2903H27.4839C26.8431 42.2903 26.3226 41.7698 26.3226 41.129C26.3226 40.4883 26.8431 39.9677 27.4839 39.9677ZM28.6452 44.6129H84.8912L90.8575 54.5582C91.1819 55.1002 91.3548 55.7194 91.3548 56.3511V60.871H86.7097V63.1936H91.3548V65.5161H86.7097V67.8387H91.3548V70.1613H86.7097V72.4839H91.3548V79.4516H84.3871V46.9355H65.8064V66.6774H43.2611L37.4546 72.4839H33.2903V63.1936H28.6452V44.6129ZM26.3226 72.4839V70.1613H30.9677V72.4839H26.3226ZM30.9677 65.5161V67.8387H26.3226V65.5161H30.9677ZM33.2903 85.2581H30.9677V81.7742H33.2903V85.2581ZM45.5837 71.3226L37.4546 79.4516H28.6452V74.8065H38.4163L44.2228 69H65.8064V71.3226H45.5837ZM68.129 72.003V49.2581H82.0645V79.4516H75.5776L68.129 72.003ZM86.7097 81.7742H89.0323V85.2581H86.7097V81.7742Z" fill="#1F2428" stroke="#F2F6FC" stroke-width="0.6" mask="url(#path-10-inside-1)"></path></svg> 