<?xml version="1.0" encoding="UTF-8"?> <svg xmlns="http://www.w3.org/2000/svg" width="96" height="96" viewBox="0 0 96 96" fill="none"><rect width="96" height="96" rx="6" transform="matrix(-1 0 0 1 96 0)" fill="#F2F6FC"></rect><circle cx="37.1998" cy="60.909" r="5.4" fill="#3693E7"></circle><path d="M28.8545 31.9818C28.8545 30.8772 29.7499 29.9818 30.8545 29.9818H56.309C57.4136 29.9818 58.309 30.8772 58.309 31.9818V34.8909H28.8545V31.9818Z" fill="#3693E7"></path><mask id="path-4-inside-1" fill="white"><path d="M68.7 62.3H74.1C74.3387 62.3 74.5676 62.2052 74.7364 62.0364C74.9052 61.8676 75 61.6387 75 61.4C75 61.1613 74.9052 60.9324 74.7364 60.7636C74.5676 60.5948 74.3387 60.5 74.1 60.5H71.2452C71.3478 60.211 71.4001 59.9066 71.4 59.6V37.1597C71.3992 36.4439 71.1144 35.7576 70.6083 35.2515C70.1021 34.7453 69.4158 34.4606 68.7 34.4597H58.8V31.7C58.7992 30.9842 58.5144 30.2979 58.0083 29.7917C57.5021 29.2856 56.8158 29.0008 56.1 29H30.9C30.1842 29.0008 29.4979 29.2856 28.9917 29.7917C28.4856 30.2979 28.2008 30.9842 28.2 31.7V34.4597H23.7C22.9842 34.4606 22.2979 34.7453 21.7917 35.2515C21.2856 35.7576 21.0008 36.4439 21 37.1597V59.6C21.0008 60.3158 21.2856 61.0021 21.7917 61.5083C22.2979 62.0144 22.9842 62.2992 23.7 62.3H30.9654C31.1633 63.6688 31.8071 64.9341 32.797 65.9H22.0379C21.7992 65.9 21.5703 65.9948 21.4015 66.1636C21.2327 66.3324 21.1379 66.5613 21.1379 66.8C21.1379 67.0387 21.2327 67.2676 21.4015 67.4364C21.5703 67.6052 21.7992 67.7 22.0379 67.7H74.1C74.3387 67.7 74.5676 67.6052 74.7364 67.4364C74.9052 67.2676 75 67.0387 75 66.8C75 66.5613 74.9052 66.3324 74.7364 66.1636C74.5676 65.9948 74.3387 65.9 74.1 65.9H41.603C42.5929 64.9341 43.2367 63.6688 43.4346 62.3H68.7ZM57 60.5H48V44.3C48.0003 44.0614 48.0952 43.8326 48.2639 43.6639C48.4326 43.4952 48.6614 43.4003 48.9 43.4H56.1C56.3386 43.4003 56.5674 43.4952 56.7361 43.6639C56.9048 43.8326 56.9997 44.0614 57 44.3V60.5ZM69.6 59.6C69.5997 59.8386 69.5048 60.0674 69.3361 60.2361C69.1674 60.4048 68.9386 60.4997 68.7 60.5H58.8V52.4H69.6V59.6ZM69.6 47H64.2V44.3H69.6V47ZM30 31.7C30.0003 31.4614 30.0952 31.2326 30.2639 31.0639C30.4326 30.8952 30.6614 30.8003 30.9 30.8H56.1C56.3386 30.8003 56.5674 30.8952 56.7361 31.0639C56.9048 31.2326 56.9997 31.4614 57 31.7V34.4597H30V31.7ZM22.8 37.1597C22.8003 36.9211 22.8952 36.6924 23.0639 36.5236C23.2326 36.3549 23.4614 36.26 23.7 36.2597H68.7C68.9386 36.26 69.1674 36.3549 69.3361 36.5236C69.5048 36.6924 69.5997 36.9211 69.6 37.1597V42.5H63.3C63.0613 42.5 62.8324 42.5948 62.6636 42.7636C62.4948 42.9324 62.4 43.1613 62.4 43.4V47.9C62.4 48.1387 62.4948 48.3676 62.6636 48.5364C62.8324 48.7052 63.0613 48.8 63.3 48.8H69.6V50.6H58.8V44.3C58.7992 43.5842 58.5144 42.8979 58.0083 42.3917C57.5021 41.8856 56.8158 41.6008 56.1 41.6H48.9C48.1842 41.6008 47.4979 41.8856 46.9917 42.3917C46.4856 42.8979 46.2008 43.5842 46.2 44.3V50.6H22.8V37.1597ZM37.2 65.9C36.31 65.9 35.44 65.6361 34.6999 65.1416C33.9599 64.6471 33.3831 63.9443 33.0425 63.1221C32.7019 62.2998 32.6128 61.395 32.7865 60.5221C32.9601 59.6492 33.3887 58.8474 34.018 58.218C34.6474 57.5887 35.4492 57.1601 36.3221 56.9865C37.195 56.8128 38.0998 56.902 38.9221 57.2425C39.7443 57.5831 40.4471 58.1599 40.9416 58.8999C41.4361 59.64 41.7 60.51 41.7 61.4C41.6987 62.5931 41.2241 63.7369 40.3805 64.5805C39.5369 65.4241 38.3931 65.8987 37.2 65.9ZM37.2 55.1C35.6857 55.102 34.2226 55.6486 33.078 56.64C31.9334 57.6314 31.1835 59.0015 30.9654 60.5H23.7C23.4614 60.4997 23.2326 60.4048 23.0639 60.2361C22.8952 60.0674 22.8003 59.8386 22.8 59.6V52.4H46.2V60.5H43.4346C43.2165 59.0015 42.4666 57.6314 41.322 56.64C40.1774 55.6486 38.7143 55.102 37.2 55.1Z"></path></mask><path d="M68.7 62.3H74.1C74.3387 62.3 74.5676 62.2052 74.7364 62.0364C74.9052 61.8676 75 61.6387 75 61.4C75 61.1613 74.9052 60.9324 74.7364 60.7636C74.5676 60.5948 74.3387 60.5 74.1 60.5H71.2452C71.3478 60.211 71.4001 59.9066 71.4 59.6V37.1597C71.3992 36.4439 71.1144 35.7576 70.6083 35.2515C70.1021 34.7453 69.4158 34.4606 68.7 34.4597H58.8V31.7C58.7992 30.9842 58.5144 30.2979 58.0083 29.7917C57.5021 29.2856 56.8158 29.0008 56.1 29H30.9C30.1842 29.0008 29.4979 29.2856 28.9917 29.7917C28.4856 30.2979 28.2008 30.9842 28.2 31.7V34.4597H23.7C22.9842 34.4606 22.2979 34.7453 21.7917 35.2515C21.2856 35.7576 21.0008 36.4439 21 37.1597V59.6C21.0008 60.3158 21.2856 61.0021 21.7917 61.5083C22.2979 62.0144 22.9842 62.2992 23.7 62.3H30.9654C31.1633 63.6688 31.8071 64.9341 32.797 65.9H22.0379C21.7992 65.9 21.5703 65.9948 21.4015 66.1636C21.2327 66.3324 21.1379 66.5613 21.1379 66.8C21.1379 67.0387 21.2327 67.2676 21.4015 67.4364C21.5703 67.6052 21.7992 67.7 22.0379 67.7H74.1C74.3387 67.7 74.5676 67.6052 74.7364 67.4364C74.9052 67.2676 75 67.0387 75 66.8C75 66.5613 74.9052 66.3324 74.7364 66.1636C74.5676 65.9948 74.3387 65.9 74.1 65.9H41.603C42.5929 64.9341 43.2367 63.6688 43.4346 62.3H68.7ZM57 60.5H48V44.3C48.0003 44.0614 48.0952 43.8326 48.2639 43.6639C48.4326 43.4952 48.6614 43.4003 48.9 43.4H56.1C56.3386 43.4003 56.5674 43.4952 56.7361 43.6639C56.9048 43.8326 56.9997 44.0614 57 44.3V60.5ZM69.6 59.6C69.5997 59.8386 69.5048 60.0674 69.3361 60.2361C69.1674 60.4048 68.9386 60.4997 68.7 60.5H58.8V52.4H69.6V59.6ZM69.6 47H64.2V44.3H69.6V47ZM30 31.7C30.0003 31.4614 30.0952 31.2326 30.2639 31.0639C30.4326 30.8952 30.6614 30.8003 30.9 30.8H56.1C56.3386 30.8003 56.5674 30.8952 56.7361 31.0639C56.9048 31.2326 56.9997 31.4614 57 31.7V34.4597H30V31.7ZM22.8 37.1597C22.8003 36.9211 22.8952 36.6924 23.0639 36.5236C23.2326 36.3549 23.4614 36.26 23.7 36.2597H68.7C68.9386 36.26 69.1674 36.3549 69.3361 36.5236C69.5048 36.6924 69.5997 36.9211 69.6 37.1597V42.5H63.3C63.0613 42.5 62.8324 42.5948 62.6636 42.7636C62.4948 42.9324 62.4 43.1613 62.4 43.4V47.9C62.4 48.1387 62.4948 48.3676 62.6636 48.5364C62.8324 48.7052 63.0613 48.8 63.3 48.8H69.6V50.6H58.8V44.3C58.7992 43.5842 58.5144 42.8979 58.0083 42.3917C57.5021 41.8856 56.8158 41.6008 56.1 41.6H48.9C48.1842 41.6008 47.4979 41.8856 46.9917 42.3917C46.4856 42.8979 46.2008 43.5842 46.2 44.3V50.6H22.8V37.1597ZM37.2 65.9C36.31 65.9 35.44 65.6361 34.6999 65.1416C33.9599 64.6471 33.3831 63.9443 33.0425 63.1221C32.7019 62.2998 32.6128 61.395 32.7865 60.5221C32.9601 59.6492 33.3887 58.8474 34.018 58.218C34.6474 57.5887 35.4492 57.1601 36.3221 56.9865C37.195 56.8128 38.0998 56.902 38.9221 57.2425C39.7443 57.5831 40.4471 58.1599 40.9416 58.8999C41.4361 59.64 41.7 60.51 41.7 61.4C41.6987 62.5931 41.2241 63.7369 40.3805 64.5805C39.5369 65.4241 38.3931 65.8987 37.2 65.9ZM37.2 55.1C35.6857 55.102 34.2226 55.6486 33.078 56.64C31.9334 57.6314 31.1835 59.0015 30.9654 60.5H23.7C23.4614 60.4997 23.2326 60.4048 23.0639 60.2361C22.8952 60.0674 22.8003 59.8386 22.8 59.6V52.4H46.2V60.5H43.4346C43.2165 59.0015 42.4666 57.6314 41.322 56.64C40.1774 55.6486 38.7143 55.102 37.2 55.1Z" fill="#1F2428" stroke="#F2F6FC" stroke-width="0.6" mask="url(#path-4-inside-1)"></path><path d="M37.2 62.45L37.2002 62.45C37.4785 62.4496 37.7454 62.3389 37.9422 62.1421C38.139 61.9453 38.2497 61.6785 38.25 61.4001V61.4C38.25 61.1923 38.1884 60.9893 38.073 60.8166C37.9577 60.6439 37.7937 60.5094 37.6018 60.4299C37.41 60.3504 37.1988 60.3296 36.9952 60.3701C36.7915 60.4106 36.6044 60.5106 36.4575 60.6575C36.3107 60.8043 36.2107 60.9914 36.1702 61.1951C36.1297 61.3988 36.1505 61.6099 36.2299 61.8018C36.3094 61.9936 36.444 62.1576 36.6167 62.273C36.7893 62.3884 36.9923 62.45 37.2 62.45ZM35.7833 59.2797C36.2026 58.9995 36.6956 58.85 37.1999 58.85C37.876 58.8507 38.5242 59.1197 39.0022 59.5977C39.4803 60.0758 39.7492 60.724 39.75 61.4001C39.75 61.9044 39.6004 62.3974 39.3202 62.8167C39.0401 63.236 38.6418 63.5628 38.1758 63.7558C37.7099 63.9488 37.1972 63.9993 36.7025 63.901C36.2079 63.8026 35.7535 63.5597 35.3969 63.2031C35.0403 62.8464 34.7974 62.3921 34.699 61.8974C34.6006 61.4028 34.6511 60.8901 34.8441 60.4241C35.0371 59.9582 35.364 59.5599 35.7833 59.2797Z" fill="#1F2428" stroke="#F2F6FC" stroke-width="0.3"></path><path d="M40.8004 47.15H40.9504V47V43.4V43.25H40.8004H28.2004H28.0504V43.4V47V47.15H28.2004H40.8004ZM27.3004 41.75H41.7004C41.8993 41.75 42.0901 41.829 42.2307 41.9696C42.3714 42.1103 42.4504 42.3011 42.4504 42.5V47.9C42.4504 48.0989 42.3714 48.2897 42.2307 48.4303C42.0901 48.571 41.8993 48.65 41.7004 48.65H27.3004C27.1015 48.65 26.9107 48.571 26.7701 48.4303C26.6294 48.2897 26.5504 48.0989 26.5504 47.9V42.5C26.5504 42.3011 26.6294 42.1103 26.7701 41.9696C26.9107 41.829 27.1015 41.75 27.3004 41.75Z" fill="#1F2428" stroke="#F2F6FC" stroke-width="0.3"></path><path d="M51.4498 51.5C51.4498 51.9142 51.114 52.25 50.6998 52.25C50.2856 52.25 49.9498 51.9142 49.9498 51.5C49.9498 51.0858 50.2856 50.75 50.6998 50.75C51.114 50.75 51.4498 51.0858 51.4498 51.5Z" fill="#1F2428" stroke="#F2F6FC" stroke-width="0.3"></path></svg> 