<?xml version="1.0" encoding="UTF-8"?> <svg xmlns="http://www.w3.org/2000/svg" width="96" height="96" viewBox="0 0 96 96" fill="none"><rect width="96" height="96" rx="6" transform="matrix(-1 0 0 1 96 0)" fill="#F2F6FC"></rect><path d="M36 47H60V61C60 63.2091 58.2091 65 56 65H40C37.7909 65 36 63.2091 36 61V47Z" fill="#3693E7"></path><path d="M45.7681 50.4937C46.4286 50.0523 47.2052 49.8168 47.9996 49.8167C49.0645 49.818 50.0854 50.2417 50.8384 50.9947C51.5915 51.7477 52.0151 52.7687 52.0163 53.8336C52.0163 54.628 51.7807 55.4045 51.3394 56.065C50.8981 56.7255 50.2707 57.2403 49.5368 57.5443C48.8028 57.8483 47.9952 57.9279 47.2161 57.7729C46.4369 57.6179 45.7212 57.2354 45.1595 56.6736C44.5977 56.1119 44.2152 55.3962 44.0602 54.617C43.9052 53.8379 43.9847 53.0303 44.2888 52.2963C44.5928 51.5624 45.1076 50.935 45.7681 50.4937ZM46.5274 56.0368C46.9632 56.328 47.4756 56.4834 47.9997 56.4834C48.7025 56.4834 49.3765 56.2042 49.8735 55.7072C50.3705 55.2103 50.6497 54.5362 50.6497 53.8334C50.6497 53.3093 50.4943 52.7969 50.2031 52.3612C49.9119 51.9254 49.498 51.5857 49.0138 51.3851C48.5296 51.1846 47.9967 51.1321 47.4827 51.2343C46.9686 51.3366 46.4965 51.589 46.1258 51.9596C45.7552 52.3302 45.5028 52.8024 45.4006 53.3164C45.2983 53.8305 45.3508 54.3633 45.5514 54.8475C45.752 55.3317 46.0916 55.7456 46.5274 56.0368Z" fill="#1F2428" stroke="#F2F6FC" stroke-width="0.3"></path><mask id="path-4-inside-1" fill="white"><path d="M28.8333 41.3333H29.6667V43.8333C29.6667 44.0543 29.7545 44.2663 29.9107 44.4226C30.067 44.5789 30.279 44.6667 30.5 44.6667H34.6667V51.3333H33.8333C33.1703 51.3333 32.5344 51.5967 32.0656 52.0656C31.5967 52.5344 31.3333 53.1703 31.3333 53.8333V70.5C31.3333 70.721 31.4211 70.933 31.5774 71.0893C31.7337 71.2455 31.9457 71.3333 32.1667 71.3333H38.8333C39.0543 71.3333 39.2663 71.2455 39.4226 71.0893C39.5789 70.933 39.6667 70.721 39.6667 70.5V66.2667C39.94 66.3058 43.8333 66.3333 43.8333 66.3333V72.1667C43.8333 72.3877 43.9211 72.5996 44.0774 72.7559C44.2337 72.9122 44.4457 73 44.6667 73H51.3333C51.5543 73 51.7663 72.9122 51.9226 72.7559C52.0789 72.5996 52.1667 72.3877 52.1667 72.1667V66.3333C52.1667 66.3333 56.06 66.3058 56.3333 66.2667V70.5C56.3333 70.721 56.4211 70.933 56.5774 71.0893C56.7337 71.2455 56.9457 71.3333 57.1667 71.3333H63.8333C64.0543 71.3333 64.2663 71.2455 64.4226 71.0893C64.5789 70.933 64.6667 70.721 64.6667 70.5V53.8333C64.6667 53.1703 64.4033 52.5344 63.9344 52.0656C63.4656 51.5967 62.8297 51.3333 62.1667 51.3333H61.3333V44.6667H65.5C65.721 44.6667 65.933 44.5789 66.0893 44.4226C66.2455 44.2663 66.3333 44.0543 66.3333 43.8333V41.3333H67.1667C67.3877 41.3333 67.5996 41.2455 67.7559 41.0893C67.9122 40.933 68 40.721 68 40.5V35.5C68 35.279 67.9122 35.067 67.7559 34.9107C67.5996 34.7545 67.3877 34.6667 67.1667 34.6667H63.8333C63.6123 34.6667 63.4004 34.7545 63.2441 34.9107C63.0878 35.067 63 35.279 63 35.5V40.5C63 40.721 63.0878 40.933 63.2441 41.0893C63.4004 41.2455 63.6123 41.3333 63.8333 41.3333H64.6667V43H61.3333V29.6667H62.1667C62.3315 29.6666 62.4925 29.6177 62.6295 29.5262C62.7666 29.4346 62.8733 29.3045 62.9364 29.1522C62.9995 29 63.016 28.8324 62.9838 28.6708C62.9517 28.5092 62.8723 28.3607 62.7558 28.2442L57.7558 23.2442C57.5996 23.0879 57.3877 23 57.1667 23H38.8333C38.6123 23 38.4004 23.0879 38.2442 23.2442L33.2442 28.2442C33.1277 28.3607 33.0483 28.5092 33.0162 28.6708C32.984 28.8324 33.0005 29 33.0636 29.1522C33.1267 29.3045 33.2334 29.4346 33.3705 29.5262C33.5075 29.6177 33.6685 29.6666 33.8333 29.6667H34.6667V43H31.3333V41.3333H32.1667C32.3877 41.3333 32.5996 41.2455 32.7559 41.0893C32.9122 40.933 33 40.721 33 40.5V35.5C33 35.279 32.9122 35.067 32.7559 34.9107C32.5996 34.7545 32.3877 34.6667 32.1667 34.6667H28.8333C28.6123 34.6667 28.4004 34.7545 28.2441 34.9107C28.0878 35.067 28 35.279 28 35.5V40.5C28 40.721 28.0878 40.933 28.2441 41.0893C28.4004 41.2455 28.6123 41.3333 28.8333 41.3333ZM64.6667 36.3333H66.3333V39.6667H64.6667V36.3333ZM59.6667 46.3333H51.6783L56.9225 41.0892L55.7442 39.9108L49.3217 46.3333H45.845L51.0892 41.0892L49.9108 39.9108L43.4883 46.3333H40.0117L45.2558 41.0892L44.0775 39.9108L37.655 46.3333H36.3333V33H59.6667V46.3333ZM38 51.3333C38.3296 51.3333 38.6519 51.4311 38.926 51.6142C39.2 51.7973 39.4137 52.0577 39.5398 52.3622C39.6659 52.6667 39.699 53.0019 39.6346 53.3252C39.5703 53.6485 39.4116 53.9454 39.1785 54.1785C38.9454 54.4116 38.6485 54.5703 38.3252 54.6346C38.0018 54.6989 37.6667 54.6659 37.3622 54.5398C37.0576 54.4137 36.7974 54.2 36.6142 53.926C36.4311 53.6519 36.3333 53.3296 36.3333 53C36.3333 52.558 36.5089 52.134 36.8215 51.8215C37.134 51.5089 37.558 51.3333 38 51.3333ZM33 53.8333C33 53.6123 33.0878 53.4004 33.2441 53.2441C33.4004 53.0878 33.6123 53 33.8333 53H34.6667V58H33V53.8333ZM38 69.6667H33V68H34.6667V66.3333H33V64.6667H34.6667V63H33V59.6667H34.6667V60.5C34.6682 61.6025 34.9821 62.682 35.5721 63.6134C36.162 64.5448 37.0039 65.29 38 65.7625V69.6667ZM50.5 71.3333H48.8333V69.6667H47.1667V71.3333H45.5V66.3333H47.1667V68H48.8333V66.3333H50.5V71.3333ZM51.3333 64.6667H43.8333V63.8333C43.8333 63.1703 44.0967 62.5344 44.5656 62.0656C45.0344 61.5967 45.6703 61.3333 46.3333 61.3333H49.6667C50.3297 61.3333 50.9656 61.5967 51.4344 62.0656C51.9033 62.5344 52.1667 63.1703 52.1667 63.8333V64.6667H51.3333ZM53.8333 64.6667V63.8333C53.832 62.7287 53.3926 61.6696 52.6115 60.8885C51.8304 60.1074 50.7713 59.668 49.6667 59.6667H46.3333C45.2287 59.668 44.1696 60.1074 43.3885 60.8885C42.6074 61.6696 42.168 62.7287 42.1667 63.8333V64.6667H40.5C39.3953 64.6653 38.3363 64.2259 37.5552 63.4448C36.7741 62.6637 36.3347 61.6047 36.3333 60.5V55.87C36.8378 56.1699 37.4131 56.3299 38 56.3333C38.8841 56.3333 39.7319 55.9821 40.357 55.357C40.9821 54.7319 41.3333 53.8841 41.3333 53C41.3333 52.1159 40.9821 51.2681 40.357 50.643C39.7319 50.0179 38.8841 49.6667 38 49.6667C37.4131 49.6701 36.8378 49.8301 36.3333 50.13V48H59.6667V50.13C59.1622 49.8301 58.5869 49.6701 58 49.6667C57.1159 49.6667 56.2681 50.0179 55.643 50.643C55.0179 51.2681 54.6667 52.1159 54.6667 53C54.6667 53.8841 55.0179 54.7319 55.643 55.357C56.2681 55.9821 57.1159 56.3333 58 56.3333C58.5869 56.3299 59.1622 56.1699 59.6667 55.87V60.5C59.6653 61.6047 59.2259 62.6637 58.4448 63.4448C57.6637 64.2259 56.6047 64.6653 55.5 64.6667H53.8333ZM59.6667 53C59.6667 53.3296 59.5689 53.6519 59.3858 53.926C59.2026 54.2 58.9423 54.4137 58.6378 54.5398C58.3333 54.6659 57.9981 54.6989 57.6748 54.6346C57.3515 54.5703 57.0546 54.4116 56.8215 54.1785C56.5884 53.9454 56.4297 53.6485 56.3654 53.3252C56.301 53.0019 56.3341 52.6667 56.4602 52.3622C56.5863 52.0577 56.8 51.7973 57.074 51.6142C57.3481 51.4311 57.6704 51.3333 58 51.3333C58.442 51.3333 58.866 51.5089 59.1785 51.8215C59.4911 52.134 59.6667 52.558 59.6667 53ZM58 69.6667V65.7625C58.9961 65.29 59.838 64.5448 60.4279 63.6134C61.0179 62.682 61.3318 61.6025 61.3333 60.5V59.6667H63V63H61.3333V64.6667H63V66.3333H61.3333V68H63V69.6667H58ZM62.1667 53C62.3877 53 62.5996 53.0878 62.7559 53.2441C62.9122 53.4004 63 53.6123 63 53.8333V58H61.3333V53H62.1667ZM39.1783 24.6667H56.8217L60.155 28H35.845L39.1783 24.6667ZM59.6667 29.6667V31.3333H36.3333V29.6667H59.6667ZM29.6667 36.3333H31.3333V39.6667H29.6667V36.3333Z"></path></mask><path d="M28.8333 41.3333H29.6667V43.8333C29.6667 44.0543 29.7545 44.2663 29.9107 44.4226C30.067 44.5789 30.279 44.6667 30.5 44.6667H34.6667V51.3333H33.8333C33.1703 51.3333 32.5344 51.5967 32.0656 52.0656C31.5967 52.5344 31.3333 53.1703 31.3333 53.8333V70.5C31.3333 70.721 31.4211 70.933 31.5774 71.0893C31.7337 71.2455 31.9457 71.3333 32.1667 71.3333H38.8333C39.0543 71.3333 39.2663 71.2455 39.4226 71.0893C39.5789 70.933 39.6667 70.721 39.6667 70.5V66.2667C39.94 66.3058 43.8333 66.3333 43.8333 66.3333V72.1667C43.8333 72.3877 43.9211 72.5996 44.0774 72.7559C44.2337 72.9122 44.4457 73 44.6667 73H51.3333C51.5543 73 51.7663 72.9122 51.9226 72.7559C52.0789 72.5996 52.1667 72.3877 52.1667 72.1667V66.3333C52.1667 66.3333 56.06 66.3058 56.3333 66.2667V70.5C56.3333 70.721 56.4211 70.933 56.5774 71.0893C56.7337 71.2455 56.9457 71.3333 57.1667 71.3333H63.8333C64.0543 71.3333 64.2663 71.2455 64.4226 71.0893C64.5789 70.933 64.6667 70.721 64.6667 70.5V53.8333C64.6667 53.1703 64.4033 52.5344 63.9344 52.0656C63.4656 51.5967 62.8297 51.3333 62.1667 51.3333H61.3333V44.6667H65.5C65.721 44.6667 65.933 44.5789 66.0893 44.4226C66.2455 44.2663 66.3333 44.0543 66.3333 43.8333V41.3333H67.1667C67.3877 41.3333 67.5996 41.2455 67.7559 41.0893C67.9122 40.933 68 40.721 68 40.5V35.5C68 35.279 67.9122 35.067 67.7559 34.9107C67.5996 34.7545 67.3877 34.6667 67.1667 34.6667H63.8333C63.6123 34.6667 63.4004 34.7545 63.2441 34.9107C63.0878 35.067 63 35.279 63 35.5V40.5C63 40.721 63.0878 40.933 63.2441 41.0893C63.4004 41.2455 63.6123 41.3333 63.8333 41.3333H64.6667V43H61.3333V29.6667H62.1667C62.3315 29.6666 62.4925 29.6177 62.6295 29.5262C62.7666 29.4346 62.8733 29.3045 62.9364 29.1522C62.9995 29 63.016 28.8324 62.9838 28.6708C62.9517 28.5092 62.8723 28.3607 62.7558 28.2442L57.7558 23.2442C57.5996 23.0879 57.3877 23 57.1667 23H38.8333C38.6123 23 38.4004 23.0879 38.2442 23.2442L33.2442 28.2442C33.1277 28.3607 33.0483 28.5092 33.0162 28.6708C32.984 28.8324 33.0005 29 33.0636 29.1522C33.1267 29.3045 33.2334 29.4346 33.3705 29.5262C33.5075 29.6177 33.6685 29.6666 33.8333 29.6667H34.6667V43H31.3333V41.3333H32.1667C32.3877 41.3333 32.5996 41.2455 32.7559 41.0893C32.9122 40.933 33 40.721 33 40.5V35.5C33 35.279 32.9122 35.067 32.7559 34.9107C32.5996 34.7545 32.3877 34.6667 32.1667 34.6667H28.8333C28.6123 34.6667 28.4004 34.7545 28.2441 34.9107C28.0878 35.067 28 35.279 28 35.5V40.5C28 40.721 28.0878 40.933 28.2441 41.0893C28.4004 41.2455 28.6123 41.3333 28.8333 41.3333ZM64.6667 36.3333H66.3333V39.6667H64.6667V36.3333ZM59.6667 46.3333H51.6783L56.9225 41.0892L55.7442 39.9108L49.3217 46.3333H45.845L51.0892 41.0892L49.9108 39.9108L43.4883 46.3333H40.0117L45.2558 41.0892L44.0775 39.9108L37.655 46.3333H36.3333V33H59.6667V46.3333ZM38 51.3333C38.3296 51.3333 38.6519 51.4311 38.926 51.6142C39.2 51.7973 39.4137 52.0577 39.5398 52.3622C39.6659 52.6667 39.699 53.0019 39.6346 53.3252C39.5703 53.6485 39.4116 53.9454 39.1785 54.1785C38.9454 54.4116 38.6485 54.5703 38.3252 54.6346C38.0018 54.6989 37.6667 54.6659 37.3622 54.5398C37.0576 54.4137 36.7974 54.2 36.6142 53.926C36.4311 53.6519 36.3333 53.3296 36.3333 53C36.3333 52.558 36.5089 52.134 36.8215 51.8215C37.134 51.5089 37.558 51.3333 38 51.3333ZM33 53.8333C33 53.6123 33.0878 53.4004 33.2441 53.2441C33.4004 53.0878 33.6123 53 33.8333 53H34.6667V58H33V53.8333ZM38 69.6667H33V68H34.6667V66.3333H33V64.6667H34.6667V63H33V59.6667H34.6667V60.5C34.6682 61.6025 34.9821 62.682 35.5721 63.6134C36.162 64.5448 37.0039 65.29 38 65.7625V69.6667ZM50.5 71.3333H48.8333V69.6667H47.1667V71.3333H45.5V66.3333H47.1667V68H48.8333V66.3333H50.5V71.3333ZM51.3333 64.6667H43.8333V63.8333C43.8333 63.1703 44.0967 62.5344 44.5656 62.0656C45.0344 61.5967 45.6703 61.3333 46.3333 61.3333H49.6667C50.3297 61.3333 50.9656 61.5967 51.4344 62.0656C51.9033 62.5344 52.1667 63.1703 52.1667 63.8333V64.6667H51.3333ZM53.8333 64.6667V63.8333C53.832 62.7287 53.3926 61.6696 52.6115 60.8885C51.8304 60.1074 50.7713 59.668 49.6667 59.6667H46.3333C45.2287 59.668 44.1696 60.1074 43.3885 60.8885C42.6074 61.6696 42.168 62.7287 42.1667 63.8333V64.6667H40.5C39.3953 64.6653 38.3363 64.2259 37.5552 63.4448C36.7741 62.6637 36.3347 61.6047 36.3333 60.5V55.87C36.8378 56.1699 37.4131 56.3299 38 56.3333C38.8841 56.3333 39.7319 55.9821 40.357 55.357C40.9821 54.7319 41.3333 53.8841 41.3333 53C41.3333 52.1159 40.9821 51.2681 40.357 50.643C39.7319 50.0179 38.8841 49.6667 38 49.6667C37.4131 49.6701 36.8378 49.8301 36.3333 50.13V48H59.6667V50.13C59.1622 49.8301 58.5869 49.6701 58 49.6667C57.1159 49.6667 56.2681 50.0179 55.643 50.643C55.0179 51.2681 54.6667 52.1159 54.6667 53C54.6667 53.8841 55.0179 54.7319 55.643 55.357C56.2681 55.9821 57.1159 56.3333 58 56.3333C58.5869 56.3299 59.1622 56.1699 59.6667 55.87V60.5C59.6653 61.6047 59.2259 62.6637 58.4448 63.4448C57.6637 64.2259 56.6047 64.6653 55.5 64.6667H53.8333ZM59.6667 53C59.6667 53.3296 59.5689 53.6519 59.3858 53.926C59.2026 54.2 58.9423 54.4137 58.6378 54.5398C58.3333 54.6659 57.9981 54.6989 57.6748 54.6346C57.3515 54.5703 57.0546 54.4116 56.8215 54.1785C56.5884 53.9454 56.4297 53.6485 56.3654 53.3252C56.301 53.0019 56.3341 52.6667 56.4602 52.3622C56.5863 52.0577 56.8 51.7973 57.074 51.6142C57.3481 51.4311 57.6704 51.3333 58 51.3333C58.442 51.3333 58.866 51.5089 59.1785 51.8215C59.4911 52.134 59.6667 52.558 59.6667 53ZM58 69.6667V65.7625C58.9961 65.29 59.838 64.5448 60.4279 63.6134C61.0179 62.682 61.3318 61.6025 61.3333 60.5V59.6667H63V63H61.3333V64.6667H63V66.3333H61.3333V68H63V69.6667H58ZM62.1667 53C62.3877 53 62.5996 53.0878 62.7559 53.2441C62.9122 53.4004 63 53.6123 63 53.8333V58H61.3333V53H62.1667ZM39.1783 24.6667H56.8217L60.155 28H35.845L39.1783 24.6667ZM59.6667 29.6667V31.3333H36.3333V29.6667H59.6667ZM29.6667 36.3333H31.3333V39.6667H29.6667V36.3333Z" fill="#1F2428" stroke="#F2F6FC" stroke-width="0.6" mask="url(#path-4-inside-1)"></path></svg> 