<?xml version="1.0" encoding="UTF-8"?> <svg xmlns="http://www.w3.org/2000/svg" width="72" height="72" viewBox="0 0 72 72" fill="none"><rect width="72" height="72" fill="#F2F6FC"></rect><path d="M46.4516 17.4194C46.4516 23.1918 41.7724 27.871 36 27.871C30.2275 27.871 25.5483 23.1918 25.5483 17.4194C25.5483 11.647 30.2275 6.96777 36 6.96777C41.7724 6.96777 46.4516 11.647 46.4516 17.4194Z" fill="#3693E7"></path><path d="M36 20.9032C35.3604 20.9032 34.8387 20.3815 34.8387 19.7419H32.5161C32.5161 21.2536 33.4903 22.5311 34.8387 23.012V25.5483H37.1613V23.012C38.5097 22.5311 39.4839 21.2536 39.4839 19.7419C39.4839 17.8213 37.9205 16.258 36 16.258C35.3604 16.258 34.8387 15.7364 34.8387 15.0967C34.8387 14.4571 35.3604 13.9354 36 13.9354C36.6396 13.9354 37.1613 14.4571 37.1613 15.0967H39.4839C39.4839 13.585 38.5097 12.3075 37.1613 11.8266V9.29028H34.8387V11.8266C33.4903 12.3075 32.5161 13.585 32.5161 15.0967C32.5161 17.0173 34.0794 18.5806 36 18.5806C36.6396 18.5806 37.1613 19.1023 37.1613 19.7419C37.1613 20.3815 36.6396 20.9032 36 20.9032Z" fill="#1F2428"></path><path d="M72 0H0V34.8387H18.5806V41.3165C18.5806 43.3868 19.1879 45.3924 20.3368 47.1145L23.2258 51.4489V53.4194H20.9032V65.0323H41.2422V62.7097H23.2258V55.7419H38.3226V53.4194H25.5484V50.7446L22.2686 45.8256C21.3761 44.4857 20.9032 42.9258 20.9032 41.3165V32.5161H2.32258V2.32258H69.6774V32.5161H27.871V30.1935H62.7097V29.0323C62.7097 27.1117 64.273 25.5484 66.1936 25.5484H67.3548V9.29032H66.1936C64.273 9.29032 62.7097 7.727 62.7097 5.80645V4.64516H9.29032V5.80645C9.29032 7.727 7.727 9.29032 5.80645 9.29032H4.64516V25.5484H5.80645C7.727 25.5484 9.29032 27.1117 9.29032 29.0323V30.1935H20.9032V22.0645C20.9032 20.7836 21.9449 19.7419 23.2258 19.7419C24.5067 19.7419 25.5484 20.7836 25.5484 22.0645V39.4839H26.7097C29.9112 39.4839 32.5161 42.0888 32.5161 45.2903H34.8387C34.8387 41.2014 31.8056 37.8094 27.871 37.2435V34.8387H51.0968V38.4887H53.4194V34.8387H72V0ZM23.2258 17.4194C20.6639 17.4194 18.5806 19.5026 18.5806 22.0645V27.871H11.4955C11.0334 25.5994 9.23929 23.8053 6.96774 23.3432V11.4955C9.23929 11.0334 11.0334 9.23929 11.4955 6.96774H60.5033C60.9655 9.23929 62.7596 11.0334 65.0311 11.4955V23.342C62.7596 23.8042 60.9655 25.5983 60.5033 27.8698H27.871V22.0634C27.871 19.5026 25.7877 17.4194 23.2258 17.4194Z" fill="#1F2428"></path><path d="M4.64502 4.64526H6.9676V6.96784H4.64502V4.64526Z" fill="#1F2428"></path><path d="M4.64502 27.8708H6.9676V30.1934H4.64502V27.8708Z" fill="#1F2428"></path><path d="M65.0322 4.64526H67.3548V6.96784H65.0322V4.64526Z" fill="#1F2428"></path><path d="M65.0322 27.8708H67.3548V30.1934H65.0322V27.8708Z" fill="#1F2428"></path><path d="M54.5805 37.1614C44.9755 37.1614 37.1611 44.9757 37.1611 54.5807C37.1611 64.1858 44.9755 72.0001 54.5805 72.0001C64.1855 72.0001 71.9998 64.1858 71.9998 54.5807C71.9998 44.9757 64.1855 37.1614 54.5805 37.1614ZM65.0321 61.5485L61.5482 65.0323L54.5805 58.0646L47.6127 65.0323L44.1289 61.5485L51.0966 54.5807L44.1289 47.613L47.6127 44.1291L54.5805 51.0969L61.5482 44.1291L65.0321 47.613L58.0644 54.5807L65.0321 61.5485Z" fill="#3693E7"></path></svg> 