<?xml version="1.0" encoding="UTF-8"?> <svg xmlns="http://www.w3.org/2000/svg" width="96" height="96" viewBox="0 0 96 96" fill="none"><rect width="96" height="96" rx="6" fill="#F2F6FC"></rect><path d="M26 55H29L30 52.5L74.5 46.5L70.5 54.5L62.5 57.5L56 58L26 60V55Z" fill="#3693E7"></path><path d="M75.6813 46.1066L75.682 46.1073C75.8286 46.3292 75.8394 46.6157 75.71 46.8489L69.1095 58.7295L69.1094 58.7297C67.3921 61.827 64.2305 63.85 60.6988 64.1115L60.6981 64.1115L44.1818 65.3953L44.1818 65.3952L44.1762 65.3958C44.0875 65.4053 43.9971 65.4055 43.8954 65.4055H43.8948C42.6779 65.4095 41.5357 64.8241 40.83 63.8339L40.7659 63.7438L40.6555 63.7503L28.5363 64.4604L28.5355 64.4605C27.7899 64.5071 27.0492 64.3063 26.4282 63.8892L26.205 63.7393L26.1256 63.9962C25.6776 65.446 24.349 66.4429 22.8321 66.4701C21.9303 66.4692 21.2 65.7383 21.2 64.8363V51.0853C21.2 49.6767 22.3416 48.535 23.7502 48.535H25.5834C26.0718 48.5382 26.5493 48.6834 26.9571 48.954L27.0796 49.0353L27.1938 48.9425C27.5603 48.6448 28.0015 48.4555 28.4689 48.3937L39.3998 46.9552L39.5691 46.9329L39.5737 46.7622C39.7045 41.8387 40.1294 37.4442 40.3396 35.5222L40.3638 35.3004H40.1408H37.5012C35.5866 35.3004 34.0346 33.7484 34.0346 31.8338C34.0346 30.9311 34.7659 30.2 35.6674 30.2H56.7526C57.6553 30.2 58.3865 30.9312 58.3865 31.8338V33.6672C58.3855 34.1122 58.2028 34.5369 57.8805 34.8429L57.7691 34.9487L57.8425 35.0835L60.2016 39.4205L60.2695 39.5452L60.4097 39.5223C64.6467 38.8279 68.9331 38.4796 73.2258 38.4818L73.2266 38.4818C74.0804 38.4788 74.8811 38.8935 75.37 39.5932C75.8486 40.299 75.9329 41.1996 75.5958 41.9832L75.5957 41.9835L74.3892 44.8014L74.3195 44.9642L74.4727 45.0531C74.8896 45.2949 75.2615 45.6058 75.5727 45.9722L75.6479 46.0699C75.6574 46.0822 75.6665 46.0919 75.6729 46.0984L75.6813 46.1066ZM74.2821 41.4158L74.2824 41.4152C74.4257 41.0772 74.3893 40.6885 74.182 40.3845C73.9752 40.0803 73.6277 39.9023 73.2601 39.9124C71.9296 39.935 70.7056 39.9759 69.5785 40.0254L69.4408 40.0314L69.3975 40.1622L68.3275 43.3872L68.2427 43.6425L68.5116 43.6501C69.9782 43.6916 71.4342 43.9199 72.8435 44.3298L73.0135 44.3793L73.0832 44.2165L74.2821 41.4158ZM70.0674 53.9988L70.1177 53.971L70.1456 53.9208L73.578 47.7414L73.7705 47.3949L73.3774 47.4459L30.558 53.0087L30.423 53.0262L30.3898 53.1583L29.9461 54.9266L29.9461 54.9267C29.8664 55.2449 29.5789 55.4693 29.2506 55.4693H26.5004H26.3004V55.6693V59.2703V59.4844L26.514 59.4699L59.0405 57.2547L59.041 57.2546C62.9095 56.9819 66.6719 55.8713 70.0674 53.9988ZM29.7543 51.6682L29.7544 51.6682L72.4954 46.1162L72.5318 45.7278C71.1568 45.278 69.3319 45.0903 67.4995 45.0639C65.6641 45.0374 63.8053 45.1726 62.3538 45.377C62.3536 45.377 62.3533 45.3771 62.353 45.3771L28.653 49.8148L28.6529 49.8148C28.2274 49.8709 27.8706 50.1635 27.7333 50.5701L27.7331 50.5708L26.6652 53.7722L26.5774 54.0355H26.8549H28.5351H28.691L28.7291 53.8843L29.1523 52.2041L29.1524 52.2038C29.2238 51.9183 29.4621 51.706 29.7543 51.6682ZM67.8617 58.0331L67.8618 58.033L68.5848 56.7277L68.8684 56.2157L68.3308 56.4471C65.4132 57.7027 62.3046 58.459 59.1364 58.683C57.5414 58.7958 49.3812 59.352 41.6191 59.88C37.7382 60.144 33.957 60.401 31.1461 60.5919L27.7661 60.8215L26.8259 60.8853L26.579 60.9021L26.5157 60.9064L26.4997 60.9075L26.4957 60.9077L26.4947 60.9078C26.4945 60.9078 26.4944 60.9078 26.5079 61.1074L26.4944 60.9078L26.2987 60.9211L26.3082 61.1171C26.3332 61.6341 26.5577 62.1198 26.9334 62.4752L26.9337 62.4755C27.3434 62.8614 27.8947 63.0614 28.4577 63.0281C28.4577 63.0281 28.4577 63.0281 28.4578 63.0281L41.1199 62.2861H41.1678H41.1684C41.4427 62.2852 41.6929 62.44 41.8136 62.684L41.8142 62.6851C42.2394 63.5309 43.1334 64.0374 44.0771 63.9657L44.0775 63.9657L60.5929 62.6819C63.6446 62.4567 66.3766 60.709 67.8617 58.0331ZM66.5966 43.6255L66.7383 43.623L66.783 43.4886L67.8111 40.3957L67.9041 40.1159L67.6098 40.1329C65.4876 40.2558 63.3731 40.4875 61.2748 40.8248L60.9955 40.8697L61.131 41.1181L62.5824 43.777L62.6471 43.8955L62.7812 43.8798C63.5868 43.7858 64.9775 43.6533 66.5966 43.6255ZM60.8342 44.133L61.1233 44.095L60.9837 43.839L56.3836 35.4046L56.3267 35.3004H56.208H45.653H45.4737L45.4542 35.4786C45.2691 37.1668 44.855 41.3319 44.6947 46.0228L44.6866 46.2587L44.9206 46.2279L60.8342 44.133ZM56.7526 33.8677H56.9526V33.6677V31.8338V31.6338H56.7526H35.6674H35.4674V31.8338C35.4674 32.9573 36.3777 33.8677 37.5012 33.8677H56.7526ZM44.0084 35.5218L44.0322 35.3004H43.8095H41.9853H41.8064L41.7866 35.4783C41.5939 37.2087 41.1583 41.5601 41.013 46.5072L41.0061 46.7419L41.239 46.7113L43.0792 46.4696L43.2477 46.4475L43.2531 46.2776C43.4001 41.6082 43.8067 37.3949 44.0084 35.5218ZM24.9233 54.0355H25.0675L25.1131 53.8986L26.2809 50.3921L26.3283 50.2497L26.2048 50.1644C26.0226 50.0385 25.8072 49.9702 25.5852 49.9689H25.584H23.7502C23.1338 49.9689 22.6338 50.4688 22.6338 51.0853V53.8355V54.0355H22.8338H24.9233ZM24.8665 63.0074H24.8666V63.0024V55.6693V55.4693H24.6666H22.8338H22.6338V55.6693V64.8363V65.0415L22.839 65.0362C23.9465 65.0077 24.8392 64.1164 24.8665 63.0074Z" fill="#1F2428" stroke="#F2F6FC" stroke-width="0.4"></path></svg> 