<?xml version="1.0" encoding="UTF-8"?> <svg xmlns="http://www.w3.org/2000/svg" width="96" height="96" viewBox="0 0 96 96" fill="none"><rect width="96" height="96" rx="6" fill="#F2F6FC"></rect><circle cx="29.5" cy="58.5" r="3.5" fill="#3693E7"></circle><circle cx="36.5" cy="58.5" r="3.5" fill="#3693E7"></circle><circle cx="64.5" cy="58.5" r="3.5" fill="#3693E7"></circle><path d="M25.5 40H30.5V48H25.5V40Z" fill="#3693E7"></path><path d="M56 40H61V48H56V40Z" fill="#3693E7"></path><path d="M55.8333 48.5833H61.3333C61.5764 48.5833 61.8096 48.4868 61.9815 48.3148C62.1534 48.1429 62.25 47.9098 62.25 47.6667V40.3333C62.25 40.0902 62.1534 39.8571 61.9815 39.6852C61.8096 39.5132 61.5764 39.4167 61.3333 39.4167H55.8333C55.5902 39.4167 55.3571 39.5132 55.1852 39.6852C55.0132 39.8571 54.9167 40.0902 54.9167 40.3333V47.6667C54.9167 47.9098 55.0132 48.1429 55.1852 48.3148C55.3571 48.4868 55.5902 48.5833 55.8333 48.5833ZM56.75 41.25H60.4167V46.75H56.75V41.25Z" fill="#1F2428"></path><path fill-rule="evenodd" clip-rule="evenodd" d="M56.45 40.95H60.7167V47.05H56.45V40.95ZM55.8333 48.2833H61.3333C61.4969 48.2833 61.6537 48.2184 61.7694 48.1027C61.885 47.9871 61.95 47.8302 61.95 47.6667V40.3333C61.95 40.1698 61.885 40.0129 61.7694 39.8973C61.6537 39.7816 61.4969 39.7167 61.3333 39.7167H55.8333C55.8333 39.7167 55.8333 39.7167 55.8333 39.7167C55.6698 39.7167 55.5129 39.7816 55.3973 39.8973C55.2816 40.0129 55.2167 40.1698 55.2167 40.3333C55.2167 40.3333 55.2167 40.3333 55.2167 40.3333V47.6667C55.2167 47.8302 55.2816 47.9871 55.3973 48.1027C55.5129 48.2184 55.6698 48.2833 55.8333 48.2833ZM54.9167 40.3333C54.9167 40.0902 55.0132 39.8571 55.1852 39.6852C55.3571 39.5132 55.5902 39.4167 55.8333 39.4167H61.3333C61.5764 39.4167 61.8096 39.5132 61.9815 39.6852C62.1534 39.8571 62.25 40.0902 62.25 40.3333V47.6667C62.25 47.9098 62.1534 48.1429 61.9815 48.3148C61.8096 48.4868 61.5764 48.5833 61.3333 48.5833H55.8333C55.5902 48.5833 55.3571 48.4868 55.1852 48.3148C55.0132 48.1429 54.9167 47.9098 54.9167 47.6667V40.3333ZM56.75 41.25V46.75H60.4167V41.25H56.75Z" fill="#F2F6FC"></path><path d="M34.9 40.4833H38.2667V42.0167H34.9V40.4833Z" fill="#1F2428" stroke="#F2F6FC" stroke-width="0.3"></path><path d="M34.9 43.2333H38.2667V44.7667H34.9V43.2333Z" fill="#1F2428" stroke="#F2F6FC" stroke-width="0.3"></path><path d="M34.9 45.9833H38.2667V47.5167H34.9V45.9833Z" fill="#1F2428" stroke="#F2F6FC" stroke-width="0.3"></path><path d="M25.5833 48.5833H31.0833C31.3264 48.5833 31.5596 48.4868 31.7315 48.3148C31.9034 48.1429 32 47.9098 32 47.6667V40.3333C32 40.0902 31.9034 39.8571 31.7315 39.6852C31.5596 39.5132 31.3264 39.4167 31.0833 39.4167H25.5833C25.3402 39.4167 25.1071 39.5132 24.9352 39.6852C24.7632 39.8571 24.6667 40.0902 24.6667 40.3333V47.6667C24.6667 47.9098 24.7632 48.1429 24.9352 48.3148C25.1071 48.4868 25.3402 48.5833 25.5833 48.5833ZM26.5 41.25H30.1667V46.75H26.5V41.25Z" fill="#1F2428"></path><path fill-rule="evenodd" clip-rule="evenodd" d="M26.2 40.95H30.4667V47.05H26.2V40.95ZM25.5833 48.2833H31.0833C31.2469 48.2833 31.4037 48.2184 31.5194 48.1027C31.635 47.9871 31.7 47.8302 31.7 47.6667V40.3333C31.7 40.1698 31.635 40.0129 31.5194 39.8973C31.4037 39.7816 31.2469 39.7167 31.0833 39.7167H25.5833C25.5833 39.7167 25.5833 39.7167 25.5833 39.7167C25.4198 39.7167 25.2629 39.7816 25.1473 39.8973C25.0316 40.0129 24.9667 40.1698 24.9667 40.3333C24.9667 40.3333 24.9667 40.3333 24.9667 40.3333V47.6667C24.9667 47.8302 25.0316 47.9871 25.1473 48.1027C25.2629 48.2184 25.4198 48.2833 25.5833 48.2833ZM24.6667 40.3333C24.6667 40.0902 24.7632 39.8571 24.9352 39.6852C25.1071 39.5132 25.3402 39.4167 25.5833 39.4167H31.0833C31.3264 39.4167 31.5596 39.5132 31.7315 39.6852C31.9034 39.8571 32 40.0902 32 40.3333V47.6667C32 47.9098 31.9034 48.1429 31.7315 48.3148C31.5596 48.4868 31.3264 48.5833 31.0833 48.5833H25.5833C25.3402 48.5833 25.1071 48.4868 24.9352 48.3148C24.7632 48.1429 24.6667 47.9098 24.6667 47.6667V40.3333ZM26.5 41.25V46.75H30.1667V41.25H26.5Z" fill="#F2F6FC"></path><path d="M30.0167 58.6667C30.0167 59.0901 29.6734 59.4333 29.25 59.4333C28.8266 59.4333 28.4833 59.0901 28.4833 58.6667C28.4833 58.2432 28.8266 57.9 29.25 57.9C29.6734 57.9 30.0167 58.2432 30.0167 58.6667Z" fill="#1F2428" stroke="#F2F6FC" stroke-width="0.3"></path><path d="M37.35 58.6667C37.35 59.0901 37.0068 59.4333 36.5833 59.4333C36.1599 59.4333 35.8167 59.0901 35.8167 58.6667C35.8167 58.2432 36.1599 57.9 36.5833 57.9C37.0068 57.9 37.35 58.2432 37.35 58.6667Z" fill="#1F2428" stroke="#F2F6FC" stroke-width="0.3"></path><path d="M64.85 58.6667C64.85 59.0901 64.5068 59.4333 64.0833 59.4333C63.6599 59.4333 63.3167 59.0901 63.3167 58.6667C63.3167 58.2432 63.6599 57.9 64.0833 57.9C64.5068 57.9 64.85 58.2432 64.85 58.6667Z" fill="#1F2428" stroke="#F2F6FC" stroke-width="0.3"></path><mask id="path-17-inside-1" fill="white"><path d="M21.9167 58.6667H24.6667C24.6663 59.6288 24.9689 60.5667 25.5315 61.3473C26.0941 62.1278 26.8881 62.7114 27.801 63.0154C28.7139 63.3193 29.6994 63.3282 30.6176 63.0406C31.5358 62.7531 32.3402 62.1838 32.9167 61.4135C33.4932 62.1838 34.2975 62.7531 35.2158 63.0406C36.134 63.3282 37.1194 63.3193 38.0323 63.0154C38.9452 62.7114 39.7392 62.1278 40.3018 61.3473C40.8644 60.5667 41.167 59.6288 41.1667 58.6667H59.5C59.5 59.8822 59.9829 61.048 60.8424 61.9076C61.702 62.7671 62.8678 63.25 64.0833 63.25C65.2989 63.25 66.4647 62.7671 67.3242 61.9076C68.1838 61.048 68.6667 59.8822 68.6667 58.6667H72.3333V63.25H74.1667V58.6667H75.0833C75.3264 58.6667 75.5596 58.5701 75.7315 58.3982C75.9034 58.2263 76 57.9931 76 57.75V52.25C76 52.0069 75.9034 51.7737 75.7315 51.6018C75.5596 51.4299 75.3264 51.3333 75.0833 51.3333H74.1667V48.3353C74.5162 48.1335 74.7893 47.822 74.9438 47.4491C75.0982 47.0763 75.1253 46.6629 75.0209 46.273C74.9164 45.8832 74.6862 45.5388 74.3661 45.2931C74.0459 45.0474 73.6536 44.9142 73.25 44.9142C72.8464 44.9142 72.4541 45.0474 72.1339 45.2931C71.8138 45.5388 71.5836 45.8832 71.4791 46.273C71.3747 46.6629 71.4018 47.0763 71.5562 47.4491C71.7107 47.822 71.9838 48.1335 72.3333 48.3353V51.3333H69.5833V47.6667C69.5789 43.7782 68.0323 40.0502 65.2827 37.3006C62.5331 34.551 58.8052 33.0044 54.9167 33H25.5833C24.3682 33.0014 23.2032 33.4847 22.344 34.344C21.4847 35.2032 21.0014 36.3682 21 37.5833V57.75C21 57.9931 21.0966 58.2263 21.2685 58.3982C21.4404 58.5701 21.6736 58.6667 21.9167 58.6667V58.6667ZM29.25 61.4167C28.7061 61.4167 28.1744 61.2554 27.7222 60.9532C27.2699 60.651 26.9175 60.2215 26.7093 59.719C26.5012 59.2165 26.4467 58.6636 26.5528 58.1302C26.6589 57.5967 26.9209 57.1067 27.3055 56.7221C27.6901 56.3375 28.1801 56.0756 28.7135 55.9695C29.2469 55.8634 29.7999 55.9179 30.3024 56.126C30.8049 56.3341 31.2344 56.6866 31.5365 57.1388C31.8387 57.5911 32 58.1228 32 58.6667C31.9992 59.3958 31.7092 60.0947 31.1936 60.6103C30.6781 61.1258 29.9791 61.4158 29.25 61.4167V61.4167ZM36.5833 61.4167C36.0394 61.4167 35.5078 61.2554 35.0555 60.9532C34.6033 60.651 34.2508 60.2215 34.0427 59.719C33.8345 59.2165 33.7801 58.6636 33.8862 58.1302C33.9923 57.5967 34.2542 57.1067 34.6388 56.7221C35.0234 56.3375 35.5134 56.0756 36.0468 55.9695C36.5803 55.8634 37.1332 55.9179 37.6357 56.126C38.1382 56.3341 38.5677 56.6866 38.8699 57.1388C39.172 57.5911 39.3333 58.1228 39.3333 58.6667C39.3325 59.3958 39.0425 60.0947 38.527 60.6103C38.0114 61.1258 37.3124 61.4158 36.5833 61.4167ZM64.0833 61.4167C63.5394 61.4167 63.0078 61.2554 62.5555 60.9532C62.1033 60.651 61.7508 60.2215 61.5427 59.719C61.3345 59.2165 61.2801 58.6636 61.3862 58.1302C61.4923 57.5967 61.7542 57.1067 62.1388 56.7221C62.5234 56.3375 63.0134 56.0756 63.5468 55.9695C64.0803 55.8634 64.6332 55.9179 65.1357 56.126C65.6382 56.3341 66.0677 56.6866 66.3699 57.1388C66.672 57.5911 66.8333 58.1228 66.8333 58.6667C66.8325 59.3958 66.5425 60.0947 66.027 60.6103C65.5114 61.1258 64.8124 61.4158 64.0833 61.4167V61.4167ZM74.1667 56.8333H68.2828C67.9264 56.016 67.3392 55.3205 66.5932 54.832C65.8473 54.3435 64.975 54.0833 64.0833 54.0833C63.1917 54.0833 62.3194 54.3435 61.5735 54.832C60.8275 55.3205 60.2403 56.016 59.8839 56.8333H40.7828C40.4625 56.0985 39.9549 55.4606 39.3109 54.9834C38.6668 54.5062 37.9087 54.2064 37.1125 54.1139C36.3162 54.0214 35.5097 54.1396 34.7734 54.4565C34.0371 54.7734 33.3968 55.278 32.9167 55.9199C32.4365 55.278 31.7963 54.7734 31.06 54.4565C30.3237 54.1396 29.5171 54.0214 28.7208 54.1139C27.9246 54.2064 27.1666 54.5062 26.5225 54.9834C25.8784 55.4606 25.3708 56.0985 25.0505 56.8333H22.8333V53.1667H74.1667V56.8333ZM50.3333 51.3333H47.5833V41.25H50.3333V51.3333ZM45.75 51.3333H43V41.25H45.75V51.3333ZM25.5833 34.8333H54.9167C58.3191 34.8372 61.5811 36.1905 63.9869 38.5964C66.3928 41.0023 67.7461 44.2642 67.75 47.6667V51.3333H52.1667V40.3333C52.1667 40.0902 52.0701 39.8571 51.8982 39.6852C51.7263 39.5132 51.4931 39.4167 51.25 39.4167H42.0833C41.8402 39.4167 41.6071 39.5132 41.4352 39.6852C41.2632 39.8571 41.1667 40.0902 41.1667 40.3333V51.3333H22.8333V37.5833C22.8342 36.8542 23.1242 36.1552 23.6397 35.6397C24.1552 35.1242 24.8542 34.8342 25.5833 34.8333V34.8333Z"></path></mask><path d="M21.9167 58.6667H24.6667C24.6663 59.6288 24.9689 60.5667 25.5315 61.3473C26.0941 62.1278 26.8881 62.7114 27.801 63.0154C28.7139 63.3193 29.6994 63.3282 30.6176 63.0406C31.5358 62.7531 32.3402 62.1838 32.9167 61.4135C33.4932 62.1838 34.2975 62.7531 35.2158 63.0406C36.134 63.3282 37.1194 63.3193 38.0323 63.0154C38.9452 62.7114 39.7392 62.1278 40.3018 61.3473C40.8644 60.5667 41.167 59.6288 41.1667 58.6667H59.5C59.5 59.8822 59.9829 61.048 60.8424 61.9076C61.702 62.7671 62.8678 63.25 64.0833 63.25C65.2989 63.25 66.4647 62.7671 67.3242 61.9076C68.1838 61.048 68.6667 59.8822 68.6667 58.6667H72.3333V63.25H74.1667V58.6667H75.0833C75.3264 58.6667 75.5596 58.5701 75.7315 58.3982C75.9034 58.2263 76 57.9931 76 57.75V52.25C76 52.0069 75.9034 51.7737 75.7315 51.6018C75.5596 51.4299 75.3264 51.3333 75.0833 51.3333H74.1667V48.3353C74.5162 48.1335 74.7893 47.822 74.9438 47.4491C75.0982 47.0763 75.1253 46.6629 75.0209 46.273C74.9164 45.8832 74.6862 45.5388 74.3661 45.2931C74.0459 45.0474 73.6536 44.9142 73.25 44.9142C72.8464 44.9142 72.4541 45.0474 72.1339 45.2931C71.8138 45.5388 71.5836 45.8832 71.4791 46.273C71.3747 46.6629 71.4018 47.0763 71.5562 47.4491C71.7107 47.822 71.9838 48.1335 72.3333 48.3353V51.3333H69.5833V47.6667C69.5789 43.7782 68.0323 40.0502 65.2827 37.3006C62.5331 34.551 58.8052 33.0044 54.9167 33H25.5833C24.3682 33.0014 23.2032 33.4847 22.344 34.344C21.4847 35.2032 21.0014 36.3682 21 37.5833V57.75C21 57.9931 21.0966 58.2263 21.2685 58.3982C21.4404 58.5701 21.6736 58.6667 21.9167 58.6667V58.6667ZM29.25 61.4167C28.7061 61.4167 28.1744 61.2554 27.7222 60.9532C27.2699 60.651 26.9175 60.2215 26.7093 59.719C26.5012 59.2165 26.4467 58.6636 26.5528 58.1302C26.6589 57.5967 26.9209 57.1067 27.3055 56.7221C27.6901 56.3375 28.1801 56.0756 28.7135 55.9695C29.2469 55.8634 29.7999 55.9179 30.3024 56.126C30.8049 56.3341 31.2344 56.6866 31.5365 57.1388C31.8387 57.5911 32 58.1228 32 58.6667C31.9992 59.3958 31.7092 60.0947 31.1936 60.6103C30.6781 61.1258 29.9791 61.4158 29.25 61.4167V61.4167ZM36.5833 61.4167C36.0394 61.4167 35.5078 61.2554 35.0555 60.9532C34.6033 60.651 34.2508 60.2215 34.0427 59.719C33.8345 59.2165 33.7801 58.6636 33.8862 58.1302C33.9923 57.5967 34.2542 57.1067 34.6388 56.7221C35.0234 56.3375 35.5134 56.0756 36.0468 55.9695C36.5803 55.8634 37.1332 55.9179 37.6357 56.126C38.1382 56.3341 38.5677 56.6866 38.8699 57.1388C39.172 57.5911 39.3333 58.1228 39.3333 58.6667C39.3325 59.3958 39.0425 60.0947 38.527 60.6103C38.0114 61.1258 37.3124 61.4158 36.5833 61.4167ZM64.0833 61.4167C63.5394 61.4167 63.0078 61.2554 62.5555 60.9532C62.1033 60.651 61.7508 60.2215 61.5427 59.719C61.3345 59.2165 61.2801 58.6636 61.3862 58.1302C61.4923 57.5967 61.7542 57.1067 62.1388 56.7221C62.5234 56.3375 63.0134 56.0756 63.5468 55.9695C64.0803 55.8634 64.6332 55.9179 65.1357 56.126C65.6382 56.3341 66.0677 56.6866 66.3699 57.1388C66.672 57.5911 66.8333 58.1228 66.8333 58.6667C66.8325 59.3958 66.5425 60.0947 66.027 60.6103C65.5114 61.1258 64.8124 61.4158 64.0833 61.4167V61.4167ZM74.1667 56.8333H68.2828C67.9264 56.016 67.3392 55.3205 66.5932 54.832C65.8473 54.3435 64.975 54.0833 64.0833 54.0833C63.1917 54.0833 62.3194 54.3435 61.5735 54.832C60.8275 55.3205 60.2403 56.016 59.8839 56.8333H40.7828C40.4625 56.0985 39.9549 55.4606 39.3109 54.9834C38.6668 54.5062 37.9087 54.2064 37.1125 54.1139C36.3162 54.0214 35.5097 54.1396 34.7734 54.4565C34.0371 54.7734 33.3968 55.278 32.9167 55.9199C32.4365 55.278 31.7963 54.7734 31.06 54.4565C30.3237 54.1396 29.5171 54.0214 28.7208 54.1139C27.9246 54.2064 27.1666 54.5062 26.5225 54.9834C25.8784 55.4606 25.3708 56.0985 25.0505 56.8333H22.8333V53.1667H74.1667V56.8333ZM50.3333 51.3333H47.5833V41.25H50.3333V51.3333ZM45.75 51.3333H43V41.25H45.75V51.3333ZM25.5833 34.8333H54.9167C58.3191 34.8372 61.5811 36.1905 63.9869 38.5964C66.3928 41.0023 67.7461 44.2642 67.75 47.6667V51.3333H52.1667V40.3333C52.1667 40.0902 52.0701 39.8571 51.8982 39.6852C51.7263 39.5132 51.4931 39.4167 51.25 39.4167H42.0833C41.8402 39.4167 41.6071 39.5132 41.4352 39.6852C41.2632 39.8571 41.1667 40.0902 41.1667 40.3333V51.3333H22.8333V37.5833C22.8342 36.8542 23.1242 36.1552 23.6397 35.6397C24.1552 35.1242 24.8542 34.8342 25.5833 34.8333V34.8333Z" fill="#1F2428" stroke="#F2F6FC" stroke-width="0.6" mask="url(#path-17-inside-1)"></path></svg> 