<?xml version="1.0" encoding="UTF-8"?> <svg xmlns="http://www.w3.org/2000/svg" width="96" height="96" viewBox="0 0 96 96" fill="none"><rect width="96" height="96" rx="6" transform="matrix(-1 0 0 1 96 0)" fill="#F2F6FC"></rect><path d="M21.9427 48.9638L49.2732 44.7228L61.996 43.3092H74.7189L73.7764 47.5501L52.1005 48.4926L22.8851 53.2047L21.9427 48.9638Z" fill="#3693E7"></path><path d="M21.1096 48.578C21.2249 48.3787 21.4186 48.2374 21.6435 48.1884C25.3262 47.3886 28.7981 46.6914 32.0619 46.0834L32.1313 45.4356C32.266 44.1769 31.858 42.915 31.0121 41.9735C30.1661 41.0319 28.9547 40.4919 27.6889 40.4919C27.4125 40.4919 27.1547 40.352 27.0041 40.1202L24.8936 36.8733C24.7631 36.6724 24.713 36.4247 24.7767 36.1938C24.8773 35.8299 25.2038 35.5911 25.5652 35.5911H32.1083C32.5594 35.5911 32.9251 35.9568 32.9251 36.4079C32.9251 36.859 32.5594 37.2247 32.1083 37.2247H27.0704L28.1433 38.8753C29.7049 38.9924 31.1734 39.7089 32.2272 40.8814C33.3826 42.1672 33.9398 43.8905 33.7557 45.6095L33.7379 45.7758C44.8275 43.7698 53.4013 42.8168 59.5133 42.3785L57.5962 41.3875C56.7469 41.3898 53.1037 41.4473 48.4602 42.2043C48.2407 42.2402 48.0223 42.2575 47.806 42.2574C45.9456 42.2573 44.2657 40.9734 43.8216 39.1111C43.7899 38.9781 43.7877 38.8379 43.8228 38.7059C43.9083 38.3854 44.1689 38.1581 44.4786 38.1064L49.59 37.2487L49.5437 37.2247H35.9203C35.4692 37.2247 35.1034 36.859 35.1034 36.4079C35.1034 35.9568 35.4692 35.5911 35.9203 35.5911H39.6404L38.8356 33.0617C38.7222 32.7055 38.8639 32.3087 39.2009 32.109C39.414 31.9826 39.6762 31.9694 39.9096 32.0524L50.0151 35.6389C50.0499 35.6512 61.2333 41.4288 61.2333 41.4288C62.4055 39.5136 64.4846 38.2374 66.7796 38.1248L75.1429 37.7152C75.5136 37.6973 75.8597 37.9328 75.9685 38.3065C76.0372 38.5422 75.9861 38.7967 75.851 39.0015L73.7689 42.1556C74.7383 42.2221 75.2375 42.2885 75.2941 42.2963C75.5391 42.3299 75.7557 42.4726 75.8832 42.6845C76.0106 42.8964 76.0352 43.1547 75.9499 43.3868L69.2951 61.5197C69.1771 61.8413 68.8708 62.0551 68.5282 62.0551H25.7283C25.3728 62.0551 25.0583 61.8253 24.9501 61.4867L21.0383 49.2348C20.9688 49.0157 20.9946 48.7772 21.1096 48.578ZM40.8914 34.134L41.355 35.5911H44.9978L40.8914 34.134ZM52.0092 38.4994L45.771 39.546C46.2958 40.3137 47.2343 40.7492 48.1974 40.592C50.74 40.1775 52.9709 39.9669 54.6423 39.8606L52.0092 38.4994ZM66.8598 39.7566C65.1474 39.8406 63.5932 40.774 62.6894 42.1815L62.6919 42.1828C64.3839 42.0965 65.8959 42.0481 67.2336 42.0262L68.0271 39.6994L66.8598 39.7566ZM69.7825 39.6136L68.9646 42.0119C70.0892 42.012 71.0576 42.0315 71.875 42.06L73.6137 39.4259L69.7825 39.6136ZM24.9484 56.1085C37.7474 53.4466 49.3263 51.7316 59.3892 51.0081C59.8413 50.9757 60.2339 51.3159 60.2641 51.7682C60.2942 52.2162 59.9572 52.6053 59.5095 52.6375C49.5618 53.3524 38.1115 55.0456 25.4479 57.6733L26.3253 60.4218H67.9584L70.9424 52.291C69.1852 52.251 66.6994 52.2538 63.4995 52.4006C63.051 52.4212 62.6697 52.0752 62.6466 51.6269V51.6267C62.6233 51.1749 62.9719 50.7894 63.4241 50.7687C67.0192 50.6037 69.7326 50.6179 71.5365 50.6725L72.3383 48.4879C66.1609 48.2153 50.9529 48.4473 24.2964 54.0667L24.9484 56.1085ZM23.7969 52.5023C51.4867 46.6528 67.0096 46.571 72.9279 46.8808L74.0518 43.8184C70.0133 43.512 53.8578 42.9406 22.8687 49.5952L23.7969 52.5023Z" fill="#1F2428"></path><path fill-rule="evenodd" clip-rule="evenodd" d="M74.1119 42.1806C74.8567 42.2379 75.2446 42.2895 75.2941 42.2963C75.5391 42.3299 75.7557 42.4726 75.8832 42.6845C76.0106 42.8964 76.0352 43.1547 75.9499 43.3868L69.2951 61.5197C69.1771 61.8413 68.8708 62.0551 68.5282 62.0551H25.7283C25.3728 62.0551 25.0583 61.8253 24.9501 61.4867L21.0383 49.2348C20.9688 49.0157 20.9946 48.7772 21.1096 48.578C21.2249 48.3787 21.4186 48.2374 21.6435 48.1884C25.3262 47.3886 28.7981 46.6914 32.0619 46.0834L32.1313 45.4356C32.266 44.1769 31.858 42.915 31.0121 41.9735C30.1661 41.0319 28.9547 40.4919 27.6889 40.4919C27.4125 40.4919 27.1547 40.352 27.0041 40.1202L24.8936 36.8733C24.7631 36.6724 24.713 36.4247 24.7767 36.1938C24.8773 35.8299 25.2038 35.5911 25.5652 35.5911H32.1083C32.5594 35.5911 32.9251 35.9568 32.9251 36.4079C32.9251 36.859 32.5594 37.2247 32.1083 37.2247H27.0704L28.1433 38.8753C29.7049 38.9924 31.1734 39.7089 32.2272 40.8814C33.3503 42.1313 33.9082 43.7944 33.7694 45.4652C33.7654 45.5133 33.7609 45.5614 33.7557 45.6095L33.7379 45.7758C33.8407 45.7572 33.9432 45.7387 34.0456 45.7203C44.6459 43.8134 52.9286 42.8722 58.9413 42.4205C59.1343 42.406 59.325 42.3921 59.5133 42.3785L57.5962 41.3875C56.7469 41.3898 53.1037 41.4473 48.4602 42.2043C48.2407 42.2402 48.0223 42.2575 47.806 42.2574C45.9456 42.2573 44.2657 40.9734 43.8216 39.1111C43.7899 38.9781 43.7877 38.8379 43.8228 38.7059C43.9083 38.3854 44.1689 38.1581 44.4786 38.1064L49.59 37.2487L49.5437 37.2247H35.9203C35.4692 37.2247 35.1034 36.859 35.1034 36.4079C35.1034 35.9568 35.4692 35.5911 35.9203 35.5911H39.6404L38.8356 33.0617C38.7222 32.7055 38.8639 32.3087 39.2009 32.109C39.414 31.9826 39.6762 31.9694 39.9096 32.0524L50.0151 35.6389C50.0499 35.6512 61.2333 41.4288 61.2333 41.4288C62.4055 39.5136 64.4846 38.2374 66.7796 38.1248L75.1429 37.7152C75.5136 37.6973 75.8597 37.9328 75.9685 38.3065C76.0372 38.5422 75.9861 38.7967 75.851 39.0015L73.7689 42.1556C73.8907 42.164 74.005 42.1723 74.1119 42.1806ZM75.1574 38.0149C75.3921 38.0035 75.6112 38.1524 75.6805 38.3904C75.7214 38.5309 75.6937 38.6952 75.6006 38.8363L73.2351 42.4197L73.7484 42.4549C74.7101 42.5209 75.2025 42.5865 75.2533 42.5935C75.4084 42.6148 75.5455 42.7051 75.6262 42.8392C75.7068 42.9733 75.7222 43.1366 75.6683 43.2833L69.0135 61.4163C68.9388 61.6198 68.745 61.7551 68.5282 61.7551H25.7283C25.5034 61.7551 25.3043 61.6097 25.2359 61.3954L21.3243 49.144C21.2802 49.0053 21.2966 48.8541 21.3694 48.7281C21.4424 48.6019 21.565 48.5125 21.7074 48.4815C25.3871 47.6824 28.856 46.9858 32.1168 46.3784L32.3364 46.3375L32.4296 45.4675C32.5733 44.1242 32.138 42.7778 31.2352 41.773C30.3324 40.7681 29.0398 40.1919 27.6889 40.1919C27.5141 40.1919 27.3509 40.1034 27.2557 39.9568L25.1452 36.7098C25.0554 36.5716 25.0279 36.4116 25.0659 36.2737M75.1574 38.0149L66.7943 38.4245C64.6009 38.5321 62.6109 39.7527 61.4892 41.5854L61.3435 41.8234L61.0956 41.6954L61.2333 41.4288C61.0956 41.6954 61.0956 41.6954 61.0956 41.6954L59.3477 40.7924C58.2987 40.2506 56.8997 39.528 55.4996 38.805C54.0995 38.0821 52.6983 37.3587 51.6451 36.8154C51.1184 36.5437 50.6788 36.317 50.3698 36.1579L50.0099 35.9729L49.9142 35.9239L49.8977 35.9155L39.8093 32.3351C39.6491 32.2782 39.4811 32.2916 39.3538 32.367C39.139 32.4944 39.0497 32.7454 39.1215 32.9707L40.0507 35.8911H35.9203C35.6349 35.8911 35.4034 36.1225 35.4034 36.4079C35.4034 36.6933 35.6349 36.9247 35.9203 36.9247H49.6167L50.5269 37.3957L44.5283 38.4022C44.3328 38.4349 44.1674 38.5782 44.1127 38.7832C44.0919 38.8614 44.0918 38.9507 44.1135 39.0415C44.5248 40.7664 46.0821 41.9573 47.806 41.9574C48.0061 41.9575 48.2084 41.9415 48.4119 41.9082C53.076 41.1479 56.7362 41.0899 57.5953 41.0875L57.6687 41.0873L60.598 42.6015L59.5348 42.6778C53.4338 43.1153 44.8706 44.0668 33.7913 46.071L33.3969 46.1423L33.4574 45.5775C33.6325 43.9432 33.1026 42.3045 32.0041 41.0819C31.0022 39.9672 29.6058 39.2858 28.1209 39.1744L27.9728 39.1633L26.5176 36.9247H32.1083C32.3937 36.9247 32.6251 36.6933 32.6251 36.4079C32.6251 36.1225 32.3937 35.8911 32.1083 35.8911H25.5652C25.3367 35.8911 25.13 36.0418 25.0659 36.2737M40.4223 33.6492L41.1356 35.8911H44.9978L45.0981 35.3083L40.4223 33.6492ZM52.0582 38.187L45.2585 39.3278L45.5234 39.7153C46.1111 40.5751 47.1631 41.0648 48.2457 40.8881C50.7769 40.4754 52.9979 40.2658 54.6613 40.16L55.7417 40.0912L52.0582 38.187ZM48.1974 40.592C47.3532 40.7298 46.5278 40.4121 45.9835 39.8146C45.9069 39.7305 45.8358 39.6408 45.771 39.546L52.0092 38.4994L54.6423 39.8606C54.4567 39.8724 54.2643 39.8855 54.0652 39.9C52.4717 40.0162 50.4577 40.2235 48.1974 40.592ZM66.8452 39.4569C65.0332 39.5458 63.3917 40.5326 62.437 42.0194L62.2596 42.2956L62.6255 42.4866L62.7072 42.4824C64.3958 42.3962 65.9044 42.348 67.2385 42.3262L67.4494 42.3227L68.4536 39.3782L66.8452 39.4569ZM69.5643 39.3239L68.5453 42.3119L68.9645 42.3119C70.0857 42.312 71.0506 42.3314 71.8645 42.3599L72.0326 42.3657L74.1901 39.0973L69.5643 39.3239ZM24.7448 56.4573L25.0095 56.4022C37.799 53.7423 49.3643 52.0296 59.4106 51.3073C59.6977 51.2867 59.9457 51.5025 59.9648 51.7882C59.9839 52.0722 59.7702 52.3179 59.4879 52.3383C49.5238 53.0543 38.0599 54.7499 25.3869 57.3796L25.0608 57.4473L26.1062 60.7218H68.1678L71.3686 52.0007L70.9493 51.9911C69.1853 51.9509 66.6926 51.9538 63.4857 52.1009C63.203 52.1139 62.9623 51.8964 62.9464 51.614L62.9462 51.6114C62.9315 51.3252 63.1524 51.0814 63.4378 51.0683C67.0252 50.9037 69.7311 50.918 71.5274 50.9724L71.7436 50.9789L72.7612 48.2062L72.3515 48.1882C66.1451 47.9143 50.9116 48.1494 24.2346 53.7732L23.9097 53.8417L24.7448 56.4573ZM62.6466 51.6269C62.6697 52.0752 63.051 52.4212 63.4995 52.4006C66.5114 52.2624 68.8908 52.2518 70.6253 52.2845C70.7335 52.2865 70.8392 52.2887 70.9424 52.291L67.9584 60.4218H26.3253L25.4479 57.6733C25.5464 57.6529 25.6449 57.6325 25.7433 57.6122C38.2896 55.0193 49.6392 53.3468 59.5095 52.6375C59.9572 52.6053 60.2942 52.2162 60.2641 51.7682C60.2339 51.3159 59.8413 50.9757 59.3892 51.0081C49.3263 51.7316 37.7474 53.4466 24.9484 56.1085L24.2964 54.0667C24.395 54.046 24.4933 54.0253 24.5915 54.0047C50.6246 48.5381 65.6773 48.2255 72.0235 48.4747C72.1309 48.479 72.2359 48.4833 72.3383 48.4879L71.5365 50.6725C69.7326 50.6179 67.0192 50.6037 63.4241 50.7687C62.9719 50.7894 62.6233 51.175 62.6466 51.6269ZM23.5936 52.8519L23.8589 52.7959C51.5273 46.9508 67.0239 46.8722 72.9122 47.1804L73.1333 47.192L74.4701 43.5493L74.0745 43.5193C70.0037 43.2104 53.8192 42.642 22.8057 49.3019L22.4823 49.3713L23.5936 52.8519ZM40.8914 34.134L44.9978 35.5911H41.355L40.8914 34.134ZM62.9045 41.8718C63.8282 40.6382 65.2764 39.8343 66.8598 39.7566L68.0271 39.6994L67.2336 42.0262C65.9944 42.0465 64.6055 42.0895 63.0626 42.1644C62.94 42.1703 62.8164 42.1765 62.6919 42.1828L62.6894 42.1815L62.6916 42.1781C62.6963 42.1708 62.701 42.1635 62.7058 42.1562C62.7689 42.059 62.8352 41.9642 62.9045 41.8718ZM69.2814 42.0125C70.2721 42.0158 71.1354 42.0342 71.875 42.06L73.6137 39.4259L69.7825 39.6136L68.9646 42.0119C69.0716 42.0119 69.1772 42.0121 69.2814 42.0125ZM23.7969 52.5023L22.8687 49.5952C22.9671 49.574 23.0653 49.553 23.1634 49.532C53.2197 43.1026 69.2449 43.4897 73.7404 43.796C73.8512 43.8036 73.955 43.8111 74.0518 43.8184L72.9279 46.8808C67.0096 46.571 51.4867 46.6528 23.7969 52.5023Z" fill="#F2F6FC"></path></svg> 