<?xml version="1.0" encoding="UTF-8"?> <svg xmlns="http://www.w3.org/2000/svg" width="430" height="397" viewBox="0 0 430 397" fill="none"><path fill-rule="evenodd" clip-rule="evenodd" d="M3.01931 199.995C2.45784 252.782 14.047 306.857 50.9353 344.595C88.1648 382.682 142.198 396.34 195.437 396.846C249.268 397.358 301.48 382.004 342.711 347.369C388.118 309.226 433.569 259.199 429.778 199.995C426.086 142.335 368.919 107.846 324.972 70.3716C286.118 37.2396 246.435 2.411 195.437 0.165739C142.479 -2.16581 90.7606 20.2424 53.979 58.4408C17.8271 95.9852 3.57383 147.86 3.01931 199.995Z" fill="#F2F6FC"></path><path d="M203.445 46.1424L35.8757 36.4324C32.017 36.2432 28.5427 40.462 28.5427 44.004V260.141C28.5427 265.054 33.5521 266.042 37.4121 265.648L203.445 248.662C206.477 248.352 208.925 245.572 208.925 242.452V52.0606C208.925 48.9405 206.477 46.2909 203.445 46.1424Z" fill="url(#paint0_linear)"></path><path d="M206.2 44.4261L38.3057 36.1461C34.4456 35.9555 31.3033 38.6945 31.3033 42.2641V260.096C31.3033 263.666 34.4522 266.235 38.3057 265.839L206.2 248.528C209.232 248.215 211.682 245.413 211.682 242.269V50.3903C211.682 47.2452 209.232 44.5746 206.2 44.4261Z" fill="#C5DFF8"></path><path d="M38.3057 262.884C36.2234 263.095 34.5256 261.701 34.5256 259.777V42.4115C34.5256 40.4874 36.2234 39.0023 38.3057 39.1008L206.2 47.0509C207.839 47.1285 209.17 48.5755 209.17 50.2775V242.517C209.17 244.225 207.839 245.738 206.2 245.904L38.3057 262.884Z" fill="#3693E7"></path><path d="M195.378 240.748L51.7778 254.607V54.0732L195.378 59.4907V240.748Z" fill="white"></path><g style="mix-blend-mode:multiply" opacity="0.3"><path d="M137.943 60.4723L80.5525 61.1912L81.8396 48.2258C81.9367 46.5422 83.1517 45.1583 84.7524 44.9125L94.4721 43.4168C95.042 43.3226 95.5799 43.0886 96.0377 42.7357C96.4956 42.3828 96.8592 41.9219 97.0962 41.3942L98.1458 39.1021L123.568 40.6792L137.943 60.4723Z" fill="#97A6B7"></path></g><path d="M168.59 52.0609C168.472 51.3616 168.117 50.7245 167.584 50.2575C167.052 49.7904 166.374 49.5222 165.667 49.4981L156.495 49.0867C152.334 48.9001 149.279 45.5118 149.435 41.222L149.788 31.2794C149.854 29.4394 148.543 27.9674 146.742 27.8623L143.724 27.6822C141.427 27.5508 139.897 25.5163 140.218 23.1703C140.782 19.071 137.977 15.533 133.92 15.2557C129.824 14.9757 126.001 18.1103 125.392 22.2621C125.304 22.8898 125.087 23.4924 124.756 24.0325C123.808 25.5544 122.15 26.3982 120.526 26.2943L117.419 26.1077C115.534 25.996 113.745 27.3195 113.269 29.1818L110.684 39.2742C109.566 43.639 105.35 46.7933 100.874 46.5922L90.8141 46.1401C89.9847 46.1147 89.1654 46.3263 88.4516 46.7501C87.7379 47.1739 87.1593 47.7924 86.7834 48.5334L80.7217 60.5827C80.2245 61.5698 80.8359 62.6357 81.9183 62.6711L169.157 65.5731C170.111 65.6059 170.922 64.6531 170.746 63.7042L168.59 52.0609ZM132.682 23.8577C131.48 23.7827 130.647 22.7366 130.821 21.5195C130.996 20.3025 132.112 19.3812 133.314 19.4601C134.516 19.5389 135.343 20.5838 135.168 21.7969C134.994 23.0099 133.886 23.9313 132.682 23.8577Z" fill="#95C0EA"></path><path d="M154.177 57.8671C146.395 53.0542 140.424 56.4674 135.575 51.0328C130.383 45.2289 133.886 37.5811 128.507 33.9708C125.068 31.6603 122 33.6987 118 33.0731C116.536 32.8444 114.973 32.2609 113.349 31.124L111.193 39.5355C110.075 43.9002 105.859 47.0532 101.383 46.8534L91.3232 46.4013C90.4956 46.3795 89.6789 46.5937 88.9682 47.0188C88.2574 47.4439 87.6818 48.0624 87.3083 48.8025L81.2466 60.8518C80.7493 61.8389 81.3607 62.9048 82.4432 62.9403L161.724 65.578C159.724 62.4014 157.241 59.7597 154.177 57.8671Z" fill="#C5DFF8"></path><path d="M181.375 118.857L70.1597 119.454V112.839L181.375 112.484V118.857Z" fill="#C5DFF8"></path><path d="M162.568 137.232L68.4947 139.502V132.612L162.568 130.773V137.232Z" fill="#C5DFF8"></path><path d="M162.568 148.538L68.4947 151.561V144.673L162.568 142.08V148.538Z" fill="#C5DFF8"></path><path d="M162.568 159.846L68.4947 163.623V156.735L162.568 153.387V159.846Z" fill="#C5DFF8"></path><path d="M162.568 171.152L68.4947 175.684V168.794L162.568 164.694V171.152Z" fill="#C5DFF8"></path><path d="M181.375 136.777L168.999 137.075V130.647L181.375 130.405V136.777Z" fill="#C5DFF8"></path><path d="M181.375 147.934L168.999 148.331V141.903L181.375 141.561V147.934Z" fill="#C5DFF8"></path><path d="M181.375 159.09L168.999 159.587V153.159L181.375 152.718V159.09Z" fill="#C5DFF8"></path><path d="M181.375 170.247L168.999 170.842V164.414L181.375 163.874V170.247Z" fill="#C5DFF8"></path><path d="M162.568 189.501L68.4947 195.256V188.367L162.568 183.042V189.501Z" fill="#C5DFF8"></path><path d="M162.568 200.808L68.4947 207.317V200.428L162.568 194.351V200.808Z" fill="#C5DFF8"></path><path d="M162.568 212.116L68.4947 219.378V212.489L162.568 205.658V212.116Z" fill="#C5DFF8"></path><path d="M162.568 223.423L68.4947 231.439V224.55L162.568 216.964V223.423Z" fill="#C5DFF8"></path><path d="M181.375 188.351L168.999 189.108V182.679L181.375 181.978V188.351Z" fill="#C5DFF8"></path><path d="M181.375 199.506L168.999 200.363V193.934L181.375 193.135V199.506Z" fill="#C5DFF8"></path><path d="M181.375 210.664L168.999 211.619V205.19L181.375 204.291V210.664Z" fill="#C5DFF8"></path><path d="M181.375 221.819L168.999 222.875V216.445L181.375 215.448V221.819Z" fill="#C5DFF8"></path><path d="M70.1584 101.257V107.872L111.87 107.808V101.284L70.1584 101.257Z" fill="#C5DFF8"></path><path d="M70.1584 78.0942V84.709L111.87 84.964V78.4399L70.1584 78.0942Z" fill="#C5DFF8"></path><path d="M70.1584 89.6758V96.2906L111.87 96.3852V89.8611L70.1584 89.6758Z" fill="#C5DFF8"></path><path d="M5.72739 318.783H11.6159L18.9109 300.214C18.9109 300.214 5.52665 301.152 5.72739 318.783Z" fill="url(#paint1_linear)"></path><path d="M143.174 350.897L104.848 343.777C104.848 343.777 101.368 314.143 118.5 311.327C135.631 308.512 144.827 331.471 143.174 350.897Z" fill="url(#paint2_linear)"></path><path d="M141.287 316.035H141.301C142.496 316.156 143.593 316.624 144.683 317.296C145.733 317.829 146.996 318.456 146.996 319.258V319.276C151.035 323.482 153.688 331.255 153.707 339.958C153.728 351.547 149.019 360.917 142.817 361.997L142.829 362.005C142.411 362.065 137.208 363.951 120.812 362.093C120.377 355.039 120.12 315.102 120.12 315.102C120.12 315.102 133.22 314.424 141.287 316.035Z" fill="url(#paint3_linear)"></path><path d="M108.552 337.731C108.552 350.99 114.679 361.976 122.105 362.252C129.388 362.524 135.18 352.353 135.165 339.55C135.151 326.748 129.349 315.829 122.079 315.104C114.667 314.371 108.552 324.488 108.552 337.731Z" fill="#C5DFF8"></path><path d="M114.361 338.036C114.361 347.444 118.447 355.264 123.423 355.495C128.334 355.721 132.262 348.451 132.253 339.261C132.243 330.072 128.307 322.286 123.403 321.842C118.434 321.391 114.359 328.637 114.361 338.036Z" fill="white"></path><path d="M33.3304 301.92H33.3409C34.4108 302.052 35.4375 302.423 36.3455 303.005C37.1957 303.464 36.9674 304.004 38.4815 304.696V304.71C41.0059 308.333 43.6536 315.028 43.6654 322.525C43.6825 332.514 39.7293 340.578 34.6962 341.51H34.6411C34.3013 341.563 30.0489 343.188 16.7473 341.586C16.3944 335.51 16.17 301.106 16.17 301.106C16.17 301.106 26.7858 300.537 33.3304 301.92Z" fill="url(#paint4_linear)"></path><path d="M6.77441 320.609C6.77441 332.029 11.7458 341.493 17.7694 341.731C23.6737 341.965 28.3761 333.204 28.3643 322.176C28.3525 311.147 23.6409 301.742 17.7484 301.119C11.734 300.486 6.77441 309.201 6.77441 320.609Z" fill="#C5DFF8"></path><path d="M11.4873 320.87C11.4873 328.974 14.8016 335.71 18.8348 335.908C22.8182 336.104 26.0052 329.84 25.9986 321.926C25.9921 314.011 22.7972 307.303 18.8177 306.92C14.7911 306.533 11.486 312.773 11.4873 320.87Z" fill="white"></path><path d="M286.202 306.714H286.218C287.703 306.714 288.836 307.465 290.198 308.131C291.51 308.638 292.356 309.648 292.861 310.511V310.533C298.412 315.044 301.578 324.081 301.578 334.486C301.578 348.335 295.686 359.747 287.9 361.314L287.975 361.321C287.45 361.412 281.066 363.847 261.424 362.394C260.919 354.361 260.654 308.403 260.654 308.403C260.654 308.403 276.303 305.7 286.202 306.714Z" fill="url(#paint5_linear)"></path><path d="M262.978 362.518C271.628 362.518 278.64 350.424 278.64 335.505C278.64 320.587 271.628 308.493 262.978 308.493C254.328 308.493 247.316 320.587 247.316 335.505C247.316 350.424 254.328 362.518 262.978 362.518Z" fill="#1A70BE"></path><path d="M264.535 354.714C270.371 354.714 275.102 346.067 275.102 335.4C275.102 324.732 270.371 316.085 264.535 316.085C258.699 316.085 253.968 324.732 253.968 335.4C253.968 346.067 258.699 354.714 264.535 354.714Z" fill="url(#paint6_linear)"></path><path d="M0.6563 308.382C0.386671 309.606 0.416466 310.878 0.74315 312.088C1.06983 313.298 1.68373 314.412 2.53253 315.333L5.72214 318.792C6.59596 308.587 11.8665 300.737 18.2431 300.737C25.2245 300.737 30.8939 310.16 30.8939 321.781C30.9031 324.406 30.6005 327.022 29.9925 329.575L31.3872 330.152L106.719 344.128C106.514 342.573 106.138 340.962 106.138 339.324C106.138 337.843 106.114 336.4 106.114 334.987V334.971C108.638 322.94 114.781 313.778 123.222 313.778C132.658 313.778 140.445 325.222 140.445 339.329C140.445 343.184 139.937 346.834 138.915 350.107L150.178 352.192C150.194 352.282 150.218 352.37 150.25 352.455C150.603 352.836 153.326 355.243 166.638 355.243H313.554C320.2 355.243 325.163 349.434 325.163 342.775V342.226C325.163 339.675 323.937 337.347 321.659 336.201C321.659 336.201 325.727 324.525 322.5 310.558C321.209 304.981 318.836 299.04 314.551 293.332C311.838 289.738 308.666 286.516 305.114 283.751C305.114 283.751 288.396 269.858 257.72 266.246C257.72 266.246 232.294 247.73 209.027 235.459C197.621 229.431 184.915 226.294 172.02 226.32H86.9737C72.2065 226.32 57.7314 230.442 45.173 238.224L23.0176 251.935C23.0176 251.935 17.7287 255.089 12.3375 262.653C6.20235 271.247 -0.0627074 285.541 1.17325 307.338L0.648426 308.382H0.6563Z" fill="#F07440"></path><path d="M150.212 352.188C150.223 352.277 150.241 352.365 150.267 352.451C151.291 353.092 152.583 356.251 186.66 355.239H313.554C320.2 355.239 325.163 349.43 325.163 342.771V342.222C325.163 342.073 325.369 341.933 325.359 341.784C325.21 339.409 323.916 337.278 321.766 336.197L174.021 337.6C174.021 337.6 160.085 335.058 155.307 337.563C154.638 337.916 154.159 338.363 153.917 338.931C151.909 343.569 149.283 350.022 150.212 352.188Z" fill="#ACD1F5"></path><path d="M288.409 310.859V312.786C288.41 313.527 288.559 314.26 288.85 314.941C289.14 315.622 289.565 316.238 290.099 316.75C290.633 317.262 291.265 317.661 291.957 317.922C292.649 318.184 293.387 318.302 294.126 318.27L309.928 317.6C313.723 317.44 317.319 315.858 320.005 313.168L322.608 310.561C321.179 304.319 318.451 298.449 314.604 293.334C314.548 293.344 314.493 293.344 314.437 293.353L306.852 299.354C302.835 302.531 298.073 304.624 293.02 305.434C291.733 305.642 290.562 306.302 289.718 307.296C288.873 308.29 288.409 309.554 288.409 310.859Z" fill="white"></path><path d="M218.27 308.65C219.309 309.902 221.043 310.921 222.118 310.924L281.276 310.916C282.349 310.916 283.867 309.894 284.646 308.646C285.42 307.405 285.065 306.412 283.859 306.412H218.602C217.397 306.412 217.228 307.412 218.27 308.654V308.65Z" fill="#D95B26"></path><path d="M224.935 316.745C226.034 318.059 227.626 319.132 228.506 319.13L276.586 319.114C277.462 319.114 278.839 318.041 279.659 316.73C280.478 315.427 280.305 314.379 279.296 314.38L224.817 314.392C223.804 314.392 223.847 315.444 224.935 316.745Z" fill="#D95B26"></path><path d="M201.086 318.674C204.686 318.582 207.563 315.967 207.563 312.772V310.824C207.563 307.787 204.954 305.245 201.545 304.947L195.116 304.386L156.876 294.298L157.713 299.127C158.981 306.423 164.545 312.562 172.307 315.228L177.986 317.18C181.761 318.469 185.736 319.075 189.723 318.969L201.086 318.674Z" fill="white"></path><path d="M155.334 337.718L171.28 342.102H325.577C325.429 339.573 324.024 337.44 321.877 336.359L174.074 337.756C174.074 337.756 160.113 335.215 155.334 337.718Z" fill="#C5DFF8"></path><path d="M54.8572 326.933H54.8861C55.3991 325.923 55.8045 326.235 55.7875 325.721C55.7783 325.41 54.869 294.31 55.7875 281.693C56.5747 270.77 58.4116 268.788 58.569 268.641C58.7669 268.523 58.9166 268.339 58.9913 268.12C59.0661 267.902 59.061 267.665 58.9771 267.45C58.8865 267.22 58.709 267.035 58.4831 266.934C58.2572 266.834 58.001 266.827 57.77 266.915C57.0969 267.178 54.8349 269.018 53.9335 281.439C53.0151 294.143 53.9217 325.468 53.9335 325.779C53.944 326.285 54.3573 326.933 54.8572 326.933Z" fill="#D95B26"></path><path d="M0.653673 308.382L1.17193 307.34C-0.0653324 285.541 6.19579 271.248 12.331 262.654C16.1976 262.878 21.3749 264.804 20.9839 273.594C20.3712 287.479 23.141 294.648 33.6728 300.999C38.6744 304.006 44.1574 306.595 48.5909 310.44C52.5506 313.885 54.3993 319.174 58.4313 322.415C65.2539 327.89 74.5131 325.459 82.4602 325.096C89.7014 324.761 106.113 324.417 106.113 334.966V334.985C106.113 336.4 106.136 337.843 106.136 339.322C106.136 340.959 106.53 342.571 106.732 344.126L31.3938 330.149L29.9951 329.572C30.6027 327.019 30.9048 324.403 30.8952 321.779C30.8952 310.158 25.2232 300.734 18.2431 300.734C11.8665 300.734 6.59465 308.585 5.72082 318.79L2.53122 315.33C1.68289 314.409 1.06918 313.296 0.742287 312.086C0.415395 310.877 0.384995 309.606 0.653673 308.382Z" fill="#D95B26"></path><path d="M102.498 232.896C102.498 232.896 112.416 258.32 114.889 262.044C115.121 262.389 115.414 262.904 115.772 263.201C119.202 266.069 127.596 266.769 127.596 266.769H251.227C223.648 245.535 200.102 232.896 200.102 232.896H102.498Z" fill="#3693E7"></path><path d="M26.5064 254.264C26.5064 254.264 39.6978 259.665 57.4144 264.749C58.1339 261.354 59.1386 258.026 60.4177 254.8C63.173 247.808 67.8348 239.623 75.7556 232.407C68.6416 232.912 61.6249 234.352 54.8861 236.69C45.5994 239.925 35.7367 245.353 26.5064 254.264Z" fill="#3693E7"></path><path d="M61.9502 266.016C70.7764 268.408 80.4856 270.624 90.1161 272.039C95.6004 272.84 101.057 273.38 106.309 273.539C107.843 273.585 109.367 273.603 110.864 273.585C110.863 273.578 110.86 273.571 110.854 273.566C110.622 272.579 101.224 233.993 92.5053 232.849C89.4618 232.456 86.3985 232.236 83.3301 232.191C73.9148 239.16 68.4672 247.834 65.3445 255.241C63.8752 258.717 62.7387 262.325 61.9502 266.016Z" fill="#3693E7"></path><path d="M115.772 263.189C119.202 266.057 127.596 266.769 127.596 266.769H251.227C223.648 245.535 200.102 232.896 200.102 232.896H198.354C195.621 233.907 192.944 236.343 190.573 239.722C181.009 253.383 128.163 243.03 115.772 263.189Z" fill="#1A70BE"></path><path opacity="0.3" d="M106.309 273.539C107.843 273.585 109.366 273.604 110.864 273.585C110.863 273.578 110.86 273.572 110.854 273.567C109.613 273.557 108.085 273.548 106.309 273.539Z" fill="url(#paint7_linear)"></path><path d="M65.3445 255.241C63.8751 258.718 62.7386 262.326 61.9502 266.018C70.7764 268.408 80.4856 270.624 90.1161 272.039C88.7594 270.689 87.5038 268.985 86.4082 266.853C81.6205 257.589 73.1709 255.996 65.3445 255.241Z" fill="#1A70BE"></path><path d="M26.5064 254.264C26.5064 254.264 39.6978 259.665 57.4144 264.749C58.1339 261.354 59.1386 258.026 60.4177 254.8C55.6943 254.326 51.6138 253.59 49.281 250.778C45.19 245.825 50.2664 240.274 54.8861 236.69C45.5994 239.925 35.7367 245.353 26.5064 254.264Z" fill="#1A70BE"></path><path d="M111.203 275.399C111.203 275.399 107.291 259.926 101.729 259.307C96.1672 258.688 80.3098 254.15 78.8678 261.783C77.4259 269.416 80.3111 273.217 88.3422 273.693C96.3732 274.169 101.725 273.693 101.725 273.693L105.437 277.669C105.437 277.669 111.409 281.794 111.203 275.399Z" fill="#D95B26"></path><path d="M113.057 275.399C113.057 275.399 109.143 259.926 103.578 259.307C98.012 258.688 82.1585 254.15 80.7165 261.783C79.2746 269.416 82.1598 273.217 90.1908 273.693C98.2219 274.169 103.574 273.693 103.574 273.693L107.291 277.669C107.291 277.669 113.263 281.794 113.057 275.399Z" fill="white"></path><path d="M214.559 124.292C198.724 135.472 177.068 131.21 166.286 114.791C155.504 98.3713 159.614 75.9259 175.449 64.74C191.285 53.5541 212.94 57.8216 223.722 74.241C234.505 90.6603 230.394 113.12 214.559 124.292ZM177.773 68.2781C163.819 78.1352 160.192 97.9152 169.699 112.384C179.206 126.853 198.282 130.609 212.237 120.757C226.192 110.906 229.812 91.119 220.311 76.6501C210.811 62.1811 191.727 58.4262 177.773 68.2781Z" fill="#1A70BE"></path><path d="M210.223 109.786C204.82 138.998 236.81 169.914 270.927 176.7C305.045 183.486 328.369 163.569 333.775 134.356C339.18 105.144 324.614 77.6935 290.497 70.9078C256.379 64.1221 215.627 80.5717 210.223 109.786ZM238.463 101.9L233.647 127.937C232.563 133.799 224.756 134.454 222.733 128.865C220.648 123.109 220.06 117.382 221.068 111.938C222.076 106.495 224.664 101.399 228.654 96.8518C232.528 92.4397 239.547 96.0422 238.463 101.904V101.9Z" fill="#D95B26"></path><path d="M332.084 134.017C329.45 148.256 322.365 160.171 312.141 167.561C301.119 175.519 286.987 178.076 271.257 174.945C254.802 171.672 238.667 162.722 226.987 150.401C214.836 137.577 209.484 123.271 211.918 110.118C214.352 96.9645 224.418 85.7313 240.286 78.4791C255.535 71.5134 273.717 69.3869 290.171 72.6594C305.902 75.7874 318.118 83.5838 325.52 95.2034C332.387 105.995 334.718 119.781 332.084 134.017ZM219.378 111.603C218.317 117.345 218.903 123.363 221.123 129.493C222.326 132.818 225.305 134.771 228.708 134.472C232.112 134.172 234.695 131.741 235.337 128.275L240.152 102.237C240.794 98.7717 239.245 95.5136 236.207 93.9377C233.168 92.3619 229.687 93.0256 227.382 95.6463C223.133 100.503 220.44 105.865 219.378 111.606V111.603Z" fill="#F07440"></path><path d="M283.244 161.507C303.058 161.507 319.121 144.852 319.121 124.307C319.121 103.762 303.058 87.1074 283.244 87.1074C263.43 87.1074 247.367 103.762 247.367 124.307C247.367 144.852 263.43 161.507 283.244 161.507Z" fill="#D95B26"></path><path d="M263.854 173.083L246.51 185.33L290.963 253.022C291.897 254.439 293.107 255.653 294.521 256.59L297.91 258.859C300.117 260.336 303.721 259.878 306.753 257.737C309.785 255.597 311.516 252.287 310.999 249.617L310.212 245.516C309.895 243.826 309.25 242.216 308.313 240.775L263.854 173.083Z" fill="#C5DFF8"></path><g style="mix-blend-mode:multiply" opacity="0.6"><path d="M271.769 204.184C274.151 210.037 282.413 207.595 285.913 214.948C288.257 219.876 285.388 222.751 288.751 226.875C291.899 230.738 295.162 229.148 297.464 233.174C299.606 236.918 297.464 239.482 299.789 243.688C301.479 246.732 303.826 247.579 305.751 248.965C307.279 250.065 308.821 251.71 309.983 254.277C310.889 252.73 311.282 251.079 310.999 249.62L310.212 245.52C309.895 243.83 309.25 242.22 308.313 240.779L274.987 190.04C270.779 197.424 270.733 201.635 271.769 204.184Z" fill="#C5DFF8"></path></g><path d="M279.071 201.046C279.625 201.888 279.213 203.178 278.153 203.925C277.093 204.673 275.791 204.598 275.234 203.756C274.676 202.913 275.092 201.625 276.152 200.878C277.212 200.13 278.519 200.205 279.071 201.046Z" fill="#629ED9"></path><path d="M292.792 221.943C293.344 222.786 292.933 224.075 291.873 224.823C290.813 225.571 289.511 225.496 288.953 224.653C288.394 223.811 288.811 222.523 289.871 221.775C290.931 221.027 292.239 221.097 292.792 221.943Z" fill="#629ED9"></path><path d="M224.024 104.596C221.977 110.957 217.989 116.7 212.239 120.761C210.091 122.281 207.753 123.514 205.286 124.427C205.633 125.806 206.035 127.175 206.499 128.521C209.362 127.477 212.072 126.054 214.559 124.292C221.287 119.542 225.897 112.757 228.149 105.265C226.776 105.025 225.401 104.802 224.024 104.596Z" fill="#1A70BE"></path><path d="M207.814 107.074C188.759 120.527 183.829 147.45 196.804 167.207L221.803 205.274C224.71 209.701 230.528 210.846 234.792 207.831L288.338 170.028C292.608 167.015 293.718 160.982 290.805 156.556L265.807 118.489C252.833 98.731 226.867 93.6211 207.814 107.074ZM232.694 113.027L204.038 133.267C203.842 133.404 203.618 133.494 203.382 133.53C203.145 133.566 202.904 133.547 202.677 133.474C202.449 133.401 202.242 133.276 202.071 133.109C201.9 132.942 201.769 132.738 201.69 132.512C200.378 128.924 201.559 124.743 204.746 122.489L222.765 109.768C224.273 108.697 226.106 108.184 227.951 108.316C229.795 108.448 231.537 109.217 232.878 110.493C233.051 110.661 233.185 110.866 233.271 111.092C233.357 111.319 233.392 111.561 233.375 111.802C233.357 112.044 233.287 112.278 233.17 112.49C233.052 112.701 232.89 112.885 232.694 113.027Z" fill="#95C0EA"></path><path d="M208.782 108.549C190.545 121.429 185.807 147.291 198.227 166.204L223.225 204.27C225.587 207.877 230.351 208.813 233.829 206.358L287.37 168.555C290.85 166.099 291.752 161.166 289.384 157.559L264.386 119.493C251.971 100.579 227.021 95.6702 208.782 108.549ZM235.115 113.476L203.556 135.76C203.37 135.891 203.16 135.984 202.937 136.031C202.714 136.079 202.484 136.08 202.261 136.036C202.038 135.993 201.826 135.904 201.638 135.775C201.45 135.647 201.289 135.481 201.167 135.289C198.086 130.597 199.257 124.205 203.782 121.01L221.794 108.287C226.319 105.092 232.484 106.307 235.57 110.999C235.827 111.391 235.923 111.867 235.838 112.329C235.753 112.79 235.494 113.201 235.115 113.476Z" fill="url(#paint8_linear)"></path><path d="M258.973 141.509L219.965 169.05C218.161 170.323 217.694 172.873 218.923 174.743L221.862 179.221C225.748 185.135 233.522 186.666 239.228 182.638L264.107 165.073C269.814 161.044 271.29 152.981 267.405 147.067L264.464 142.59C264.183 142.149 263.815 141.769 263.383 141.473C262.951 141.178 262.463 140.974 261.95 140.873C261.437 140.772 260.908 140.776 260.397 140.885C259.885 140.994 259.401 141.207 258.973 141.509Z" fill="#95C0EA"></path><path d="M255.819 136.704L216.808 164.246C216.381 164.548 215.896 164.76 215.385 164.869C214.873 164.979 214.345 164.983 213.832 164.882C213.319 164.781 212.831 164.577 212.399 164.282C211.967 163.987 211.599 163.607 211.317 163.165L208.377 158.688C204.492 152.773 205.968 144.71 211.673 140.682L236.553 123.115C242.258 119.087 250.033 120.618 253.918 126.532L256.858 131.009C258.089 132.882 257.623 135.43 255.819 136.704Z" fill="#95C0EA"></path><path d="M212.237 120.757C208.384 123.498 203.933 125.279 199.255 125.951C194.577 126.624 189.807 126.169 185.34 124.624C185.03 126.018 184.712 127.411 184.386 128.803C189.415 130.482 194.769 130.948 200.013 130.164C205.256 129.381 210.241 127.37 214.563 124.294C215.397 123.705 216.199 123.085 216.967 122.434C216.151 121.284 215.317 120.146 214.489 119.005C213.769 119.618 213.018 120.202 212.237 120.757Z" fill="#1A70BE"></path><defs><linearGradient id="paint0_linear" x1="29" y1="240" x2="29" y2="36" gradientUnits="userSpaceOnUse"><stop stop-color="#3693E7"></stop><stop offset="1" stop-color="#1A70BE"></stop></linearGradient><linearGradient id="paint1_linear" x1="20.4788" y1="317.559" x2="12.7221" y2="309.924" gradientUnits="userSpaceOnUse"><stop stop-color="#FF9085"></stop><stop offset="1" stop-color="#FB6FBB"></stop></linearGradient><linearGradient id="paint2_linear" x1="182139" y1="108832" x2="192480" y2="98891.8" gradientUnits="userSpaceOnUse"><stop stop-color="#FF9085"></stop><stop offset="1" stop-color="#FB6FBB"></stop></linearGradient><linearGradient id="paint3_linear" x1="120.12" y1="338.932" x2="153.707" y2="338.932" gradientUnits="userSpaceOnUse"><stop stop-color="#328CDE"></stop><stop offset="1" stop-color="#1361A7"></stop></linearGradient><linearGradient id="paint4_linear" x1="16.17" y1="321.638" x2="43.6655" y2="321.638" gradientUnits="userSpaceOnUse"><stop stop-color="#328CDE"></stop><stop offset="1" stop-color="#1361A7"></stop></linearGradient><linearGradient id="paint5_linear" x1="260.654" y1="334.667" x2="301.578" y2="334.667" gradientUnits="userSpaceOnUse"><stop stop-color="#328CDE"></stop><stop offset="1" stop-color="#1361A7"></stop></linearGradient><linearGradient id="paint6_linear" x1="80653.2" y1="95663.8" x2="84057.5" y2="95663.8" gradientUnits="userSpaceOnUse"><stop stop-color="#444B8C"></stop><stop offset="1" stop-color="#3E4177"></stop></linearGradient><linearGradient id="paint7_linear" x1="23170.3" y1="380.147" x2="23170.3" y2="378.257" gradientUnits="userSpaceOnUse"><stop stop-color="#444B8C"></stop><stop offset="1" stop-color="#3E4177"></stop></linearGradient><linearGradient id="paint8_linear" x1="191.552" y1="195.794" x2="191.552" y2="101.167" gradientUnits="userSpaceOnUse"><stop stop-color="#3693E7"></stop><stop offset="1" stop-color="#1A70BE"></stop></linearGradient></defs></svg> 