<?xml version="1.0" encoding="UTF-8"?> <svg xmlns="http://www.w3.org/2000/svg" width="427" height="408" viewBox="0 0 427 408" fill="none"><path fill-rule="evenodd" clip-rule="evenodd" d="M0.0193082 210.995C-0.542156 263.782 11.047 317.857 47.9353 355.595C85.1648 393.682 139.198 407.34 192.437 407.846C246.268 408.358 298.48 393.004 339.711 358.369C385.118 320.226 430.569 270.199 426.778 210.995C423.086 153.335 365.919 118.846 321.972 81.3716C283.118 48.2396 243.435 13.411 192.437 11.1657C139.479 8.83419 87.7606 31.2424 50.979 69.4408C14.8271 106.985 0.573833 158.86 0.0193082 210.995Z" fill="#F2F6FC"></path><path d="M287.909 48.3999L38.8447 33.1944C33.1083 32.8943 27.9445 39.5059 27.9445 45.0491V383.517C27.9445 391.21 35.3912 392.759 41.1276 392.141L287.909 365.544C292.416 365.058 296.055 360.705 296.055 355.817V57.6676C296.055 52.7817 292.416 48.6325 287.909 48.3999Z" fill="#0F5FA7"></path><path d="M292.005 45.7124L42.4498 32.7563C36.7134 32.4562 32.0412 36.7479 32.0412 42.3376V383.446C32.0412 389.037 36.7134 393.062 42.4498 392.439L292.005 365.331C296.513 364.842 300.152 360.454 300.152 355.531V55.0521C300.152 50.1271 296.513 45.9465 292.005 45.7124Z" fill="#C5DFF8"></path><path d="M42.4498 387.813C39.356 388.143 36.8318 385.961 36.8318 382.948V42.5658C36.8318 39.5526 39.356 37.2282 42.4498 37.3828L292.005 49.8197C294.443 49.9412 296.42 52.2071 296.42 54.8722V355.918C296.42 358.583 294.443 360.961 292.005 361.221L42.4498 387.813Z" fill="#3693E7"></path><path d="M275.92 353.148L62.4755 374.851V60.8188L275.92 69.3032V353.148Z" fill="white"></path><g style="mix-blend-mode:multiply" opacity="0.3"><path d="M190.549 70.84L105.245 71.9654L107.157 51.6639C107.307 49.0258 109.106 46.862 111.488 46.4733L125.936 44.1309C127.636 43.8548 129.102 42.6693 129.844 40.9647L131.411 37.3752L169.198 39.8377L190.549 70.84Z" fill="#97A6B7"></path></g><path d="M236.103 57.6677C235.698 55.3718 233.953 53.7587 231.756 53.6551L218.124 53.0099C211.937 52.7172 207.403 47.4126 207.632 40.6945L208.158 25.1259C208.256 22.2462 206.307 19.9398 203.63 19.7702L199.151 19.4881C195.736 19.2735 193.463 16.0953 193.941 12.4218C194.779 6.0023 190.61 0.462116 184.569 0.0269446C178.481 -0.411228 172.798 4.49871 171.891 11.0008C171.761 11.9786 171.439 12.921 170.944 13.7739C169.538 16.1553 167.072 17.4668 164.659 17.3138L160.039 17.0227C157.239 16.8471 154.58 18.9194 153.871 21.8366L150.028 37.6408C148.367 44.476 142.099 49.4144 135.446 49.0993L120.495 48.3925C118.045 48.277 115.643 49.7821 114.514 52.144L105.504 71.0125C104.766 72.5581 105.675 74.2267 107.283 74.2838L236.953 78.829C238.371 78.8786 239.576 77.3855 239.313 75.9014L236.103 57.6677ZM182.729 13.5053C180.944 13.3882 179.704 11.7496 179.963 9.84532C180.223 7.94107 181.883 6.496 183.669 6.61905C185.454 6.74209 186.683 8.37924 186.425 10.279C186.167 12.1787 184.518 13.6193 182.729 13.5053Z" fill="#0F5FA7"></path><path d="M236.87 58.0909C236.465 55.7935 234.722 54.1804 232.523 54.0768L218.892 53.4316C212.706 53.1389 208.17 47.8359 208.399 41.1162L208.926 25.5476C209.023 22.6679 207.074 20.3615 204.397 20.1919L199.919 19.9098C196.504 19.6952 194.223 16.5185 194.71 12.845C195.546 6.42401 191.378 0.88382 185.337 0.448648C179.248 0.0119755 173.567 4.92041 172.66 11.4225C172.53 12.4003 172.208 13.3427 171.713 14.1956C170.306 16.577 167.841 17.8885 165.427 17.7355L160.807 17.4444C158.008 17.2688 155.348 19.3426 154.639 22.2598L150.793 38.0625C149.13 44.8977 142.865 49.8361 136.211 49.521L121.264 48.8142C118.814 48.6987 116.412 50.2053 115.284 52.5657L106.274 71.4282C105.535 72.9738 106.445 74.6439 108.052 74.6995L237.722 79.2448C239.141 79.2943 240.345 77.8012 240.084 76.3171L236.87 58.0909ZM183.498 13.924C181.711 13.8069 180.471 12.1683 180.732 10.264C180.993 8.35977 182.651 6.9162 184.438 7.03775C186.224 7.1593 187.452 8.79944 187.193 10.6977C186.933 12.5959 185.28 14.041 183.498 13.924Z" fill="#A1C8EE"></path><path d="M214.678 66.7613C203.113 59.2254 194.238 64.569 187.029 56.0696C179.311 46.9715 184.517 34.9923 176.537 29.3411C171.424 25.7216 166.864 28.9134 160.919 27.935C158.741 27.5764 156.423 26.6625 154.005 24.8828L150.793 38.0625C149.13 44.8977 142.865 49.8362 136.211 49.521L121.264 48.8143C118.816 48.6987 116.412 50.2053 115.284 52.5657L106.274 71.4357C105.535 72.9798 106.445 74.65 108.052 74.7055L225.889 78.8366C222.926 73.8621 219.238 69.731 214.678 66.7613Z" fill="#C5DFF8"></path><path d="M157.86 109.782L82.3498 106.143V90.9314L157.86 95.0805V109.782Z" fill="#C5DFF8"></path><path d="M262.256 126.986L181.678 123.563V109.018L262.256 112.987V126.986Z" fill="#C5DFF8"></path><path d="M262.256 147.306L181.678 144.677V130.131L262.256 133.307V147.306Z" fill="#C5DFF8"></path><path d="M156.34 193.708L83.3631 193.007V184.669L156.34 185.64V193.708Z" fill="#C5DFF8"></path><path d="M262.256 207.364L83.3631 206.741V198.402L262.256 199.687V207.364Z" fill="#C5DFF8"></path><path d="M181.678 219.28L83.3631 219.493V211.154L181.678 211.304V219.28Z" fill="#C5DFF8"></path><path d="M141.136 239.442L83.3631 240.093V231.755L141.136 231.316V239.442Z" fill="#C5DFF8"></path><path d="M262.256 328.382L83.3631 338.187V281.292L262.256 276.001V328.382Z" fill="#C5DFF8"></path><path d="M220.893 151.765C221.999 150.071 222.621 148.106 222.692 146.083C222.831 140.812 218.926 136.701 218.402 136.929C218.118 137.057 218.477 138.601 218.678 139.285C219.096 140.71 219.547 140.849 219.508 141.503C219.431 142.853 217.487 142.901 216.464 144.69C215.725 145.978 215.666 147.811 216.464 149.262C217.786 151.678 220.767 151.764 220.893 151.765Z" fill="url(#paint0_linear)"></path><path d="M304.312 266.255L302.811 261.084L309.078 256.435L312.984 254.972L310.671 262.208L304.312 266.255Z" fill="url(#paint1_linear)"></path><path d="M296.555 370.397C296.555 370.397 299.983 379.029 299.08 382.852C302.76 382.78 305.142 382.31 305.142 382.31C305.142 382.31 303.662 378.373 303.375 376.422C302.983 373.787 303.013 369.519 303.013 369.519L296.555 370.397Z" fill="#F07440"></path><path d="M258.772 390.588C259.154 391.032 259.382 391.588 259.42 392.172C259.431 392.536 259.365 392.898 259.225 393.235C258.641 394.774 257.726 394.978 256.732 396.611C256.133 397.61 256.242 397.911 255.683 398.361C254.952 398.961 254.067 398.989 253.301 398.998C251.461 399.015 249.622 398.91 247.796 398.686C249.025 397.099 250.334 395.49 251.724 393.859C252.334 393.145 252.943 392.447 253.552 391.767L257.169 390.544L258.772 390.588Z" fill="#0F5FA7"></path><path d="M255.764 373.008C255.764 373.008 253.697 383.812 256.328 386.83C258.576 389.854 255.245 387.697 255.245 387.697L251.276 391.165L248.896 395.283C248.896 395.283 251.087 384.713 250.503 380.519C249.918 376.324 249.626 373.496 249.626 373.496L255.764 373.008Z" fill="#F07440"></path><path d="M247.97 254.884C247.97 254.884 242.424 259.859 242.424 280.343C242.424 300.828 245.054 345.306 245.054 345.306L249.263 377.151C249.263 377.151 253.628 377.301 256.551 376.428C259.182 364.423 263.469 344.135 261.423 327.164C260.546 308.727 268.73 285.611 268.73 285.611C268.73 285.611 275.746 309.02 280.721 320.724C285.696 332.429 295.15 369.098 296.027 371.731C301.843 372.259 304.325 370.72 304.325 370.72C304.325 370.72 300.597 331.254 297.09 316.335C293.582 301.416 293.874 265.419 288.029 255.176C274.862 249.91 247.97 254.884 247.97 254.884Z" fill="url(#paint2_linear)"></path><path d="M247.97 254.884C247.97 254.884 242.424 259.859 242.424 280.343C242.424 300.828 245.054 345.306 245.054 345.306L249.263 377.151C249.263 377.151 253.628 377.301 256.551 376.428C259.183 364.423 263.469 344.135 261.423 327.164C260.546 308.727 268.73 285.611 268.73 285.611C268.73 285.611 275.746 309.02 280.721 320.724C285.696 332.429 295.151 369.098 296.027 371.731C301.841 372.259 304.325 370.72 304.325 370.72C304.325 370.72 300.597 331.254 297.09 316.335C293.582 301.416 293.874 265.419 288.029 255.176C274.862 249.91 247.97 254.884 247.97 254.884Z" fill="#0F5FA7"></path><path style="mix-blend-mode:multiply" opacity="0.25" d="M276.819 292.417C278.552 303.687 282.015 309.754 290.674 317.555C297.601 322.756 292.405 334.026 295.005 342.695C295.869 345.294 298.467 347.894 299.333 350.498C302.555 356.95 299.546 364.842 301.006 371.673C303.28 371.357 304.304 370.724 304.304 370.724C304.304 370.724 300.576 331.259 297.069 316.34C293.561 301.421 293.853 265.422 288.008 255.18C274.854 249.913 247.962 254.88 247.962 254.88C247.962 254.88 242.416 259.854 242.416 280.339C242.416 282 242.434 283.822 242.465 285.764C248.23 290.866 260.022 292.008 267.295 286.344C267.706 286.033 268.18 285.818 268.685 285.714L268.722 285.606C268.722 285.606 268.736 285.647 268.754 285.707C272.063 285.112 276.069 289.41 276.819 292.417Z" fill="url(#paint3_linear)"></path><path d="M298.179 386.134C298.179 386.134 297.325 386.134 297.395 387.238C297.466 388.343 297.012 392.142 301.354 392.321C305.697 392.499 306.365 392.013 306.507 392.013C306.65 392.013 305.37 388.379 305.37 388.379L303.98 386.596L300.243 386.204L298.179 386.134Z" fill="#0F5FA7"></path><path d="M307.807 389.947C307.714 389.03 307.207 387.585 306.686 386.424C305.92 384.697 306.549 384.051 305.816 382.477C305.563 381.934 305.316 381.418 304.781 380.908C304.658 380.791 303.46 379.682 301.715 379.737C301.214 379.733 300.718 379.849 300.27 380.076C299.597 380.436 299.26 380.977 298.972 381.449C298.523 382.2 298.623 382.422 297.923 384.556C297.808 384.899 297.717 385.25 297.65 385.606C297.592 385.92 297.553 386.237 297.535 386.556C298.674 386.556 303.052 386.733 303.98 387.411C304.908 388.09 305.37 389.228 305.37 390.369C305.37 391.509 305.938 392.044 306.507 392.008C307.017 391.982 308.03 391.038 307.807 389.947Z" fill="#0F5FA7"></path><path d="M255.209 385.313C256.187 385.33 256.905 386.108 257.446 387.987C257.987 389.866 260.585 391.526 257.554 391.129C254.523 390.733 252.323 395.031 251.24 396.619C250.158 398.206 247.253 399.62 247.325 398.067C247.397 396.514 248.674 395.789 249.04 394.2C249.406 392.61 252.978 385.279 255.209 385.313Z" fill="#0F5FA7"></path><path d="M306.612 257.351C307.332 255.35 311.82 242.195 304.565 230.21C298.626 220.393 288.351 217.191 286.878 216.757C277.959 214.121 273.488 217.508 270.674 214.391C265.899 209.1 271.308 191.078 281.766 187.467C293.561 183.398 307.71 199.044 313.445 209.322C320.966 222.805 319.115 236.205 318.68 238.965C317.78 244.605 315.844 250.03 312.971 254.965L306.612 257.351Z" fill="#D95B26"></path><path d="M275.811 184.928C265.282 184.508 257.163 184.675 252.577 189.264C247.733 194.109 252.628 199.582 251.576 212.259C249.966 231.669 237.612 236.418 236.681 256.102C236.451 261.266 237.018 266.434 238.361 271.426C241.073 274.805 245.51 279.575 252.06 283.565C261.59 289.37 267.117 288.358 280.805 292.108C303.193 298.243 305.185 305.548 316.286 303.687C327.506 301.805 337.351 292.353 336.161 287.162C335.449 284.053 330.926 284.934 325.719 280.192C319.007 274.082 321.596 268.249 316.493 261.682C309.163 252.251 298.956 258.016 292.707 249.843C286.389 241.573 288.895 225.279 294.221 216.397C297.7 210.596 299.188 203.792 302.148 197.715C302.51 196.981 302.651 196.158 302.555 195.346C302.074 191.384 295.478 189.235 290.482 187.658C282.86 185.254 276.676 184.963 275.811 184.928Z" fill="#F07440"></path><path d="M266.942 184.493L269.019 183.854C269.019 183.854 269.562 186.668 276.238 187.02C278.446 187.022 280.592 186.291 282.34 184.94L283.758 185.976C283.758 185.976 280.646 189.877 275.695 189.771C269.305 189.642 266.942 184.493 266.942 184.493Z" fill="url(#paint4_linear)"></path><path d="M271.17 175.932C271.57 172.841 274.018 170.86 274.544 170.437C276.773 168.662 277.227 168.486 277.992 168.336L279.041 168.177H279.155C279.768 168.215 281.603 168.928 281.937 169.166C283.003 169.916 282.217 175.232 278.986 181.842C278.86 182.402 278.733 182.962 278.605 183.521C281.421 184.016 282.118 184.525 282.141 184.93C282.189 185.811 279.106 186.933 276.247 187.005C272.663 187.097 268.859 185.554 268.931 184.402C268.961 183.935 269.637 183.36 272.239 182.795C272.647 182.223 273.053 181.651 273.459 181.078C273.089 180.635 270.875 178.209 271.17 175.932Z" fill="url(#paint5_linear)"></path><path d="M275.601 174.768C276.413 174.282 277.033 175.328 276.65 176.243C276.268 177.158 274.98 177.73 274.2 177.185C273.419 176.641 274.507 175.419 275.601 174.768Z" fill="url(#paint6_linear)"></path><path d="M380.961 174.753C370.262 163.13 345.364 166.317 331.556 175.653C325.139 179.992 321.846 185.116 314.265 185.545C308.501 185.872 299.331 183.703 294.503 177.453C293.894 176.665 291.46 173.362 287.807 169.199C286.196 167.364 284.593 165.641 282.111 165.251C281.48 165.152 279.381 164.81 277.993 166.167C276.869 167.267 276.593 169.178 276.926 170.556C277.126 171.38 277.376 171.467 277.346 172.006C277.242 173.521 274.486 174.181 274.639 174.945C274.748 175.49 276.184 175.29 276.438 175.975C276.707 176.725 275.132 177.37 274.454 179.256C273.186 180.107 272.384 182.223 272.107 185.053C271.699 189.214 272.118 192.595 272.905 195.142C276.697 207.403 279.41 216.172 285.975 221.07C294.669 227.553 302.492 221.567 324.601 220.62C354.88 219.324 362.422 229.597 373.303 222.571C386.882 213.79 392.071 186.824 380.961 174.753Z" fill="#0F5FA7"></path><path d="M222.172 151.027C221.902 153.563 220.989 164.78 228.717 174.252C235.941 183.105 246.168 184.87 248.069 185.158C257.266 186.549 261.231 182.582 264.444 185.284C269.897 189.871 266.993 208.465 257.128 213.474C246 219.12 229.848 205.557 222.762 196.16C213.469 183.835 213.469 170.307 213.527 167.513C213.648 161.801 214.825 156.162 216.997 150.88C218.693 150.37 220.508 150.423 222.172 151.03V151.027Z" fill="#F07440"></path><path d="M316.622 296.266C313.924 293.504 316.893 287.932 312.917 283.79C309.226 279.944 305.047 283.05 299.106 279.739C291.485 275.495 293.585 267.734 286.305 263.552C281.07 260.551 278.611 263.777 270.473 262.201C262.335 260.626 252.454 255.022 247.566 245.003C245.717 241.175 244.714 236.993 244.625 232.742C240.973 239.277 237.182 245.54 236.681 256.109C236.451 261.273 237.018 266.441 238.361 271.431C241.073 274.812 245.51 279.583 252.06 283.573C261.59 289.377 267.117 288.366 280.805 292.116C303.193 298.25 305.185 305.555 316.286 303.694C323.457 302.494 330.05 298.197 333.577 293.898C323.228 298.502 318.575 298.272 316.622 296.266Z" fill="#D95B26"></path><path d="M346.025 126.288L226.514 130.49C221.989 130.49 218.27 126.644 218.27 121.937L218.261 63.9521C218.261 59.2432 221.975 55.4737 226.505 55.5758L345.764 59.3467C349.891 59.4398 353.259 63.1808 353.25 67.66L353.184 122.817C353.186 127.292 350.15 126.272 346.025 126.288Z" fill="#D95B26"></path><path d="M312.89 123.133L312.941 145.631L315.14 146.627L330.925 123.911L312.89 123.133Z" fill="#D95B26"></path><path d="M348.085 131.051L228.418 130.587C223.876 130.587 220.151 126.723 220.149 121.998V63.7421C220.149 59.0107 223.876 55.2232 228.421 55.3253L348.173 59.0932C352.316 59.1863 355.695 62.9453 355.689 67.4455L355.621 122.876C355.609 127.372 352.225 131.05 348.085 131.051Z" fill="#F07440"></path><path d="M315.159 122.984L315.14 146.627L333.263 123.761L315.159 122.984Z" fill="#F07440"></path><path d="M320.45 73.943L262.704 71.6081C262.236 71.5848 261.767 71.6555 261.326 71.816C260.885 71.9766 260.481 72.2237 260.136 72.543C259.796 72.8559 259.523 73.2358 259.335 73.6589C259.147 74.0821 259.049 74.5394 259.045 75.0024L258.639 111.365C258.632 111.982 258.753 112.594 258.994 113.162C259.236 113.731 259.592 114.243 260.041 114.666C260.896 115.489 262.033 115.955 263.22 115.969H263.421L320.11 115.464C321.253 115.43 322.338 114.954 323.138 114.137C323.938 113.319 324.39 112.223 324.4 111.078L324.788 78.5153C324.794 77.3401 324.346 76.2081 323.538 75.356C322.729 74.5039 321.623 73.9976 320.45 73.943ZM320.69 79.3121L300.096 97.1932C298.769 98.3499 297.059 98.9713 295.3 98.9369C293.816 98.9055 292.376 98.4195 291.176 97.5443L263.918 77.7875C263.809 77.7111 263.717 77.6135 263.646 77.5007C263.575 77.3878 263.527 77.262 263.505 77.1304C263.484 76.9989 263.489 76.8644 263.52 76.7347C263.551 76.6051 263.607 76.4829 263.686 76.3755C263.852 76.1611 264.095 76.02 264.364 75.9825C264.632 75.9449 264.905 76.0138 265.123 76.1744L292.353 95.9402C293.293 96.6346 294.441 96.9884 295.608 96.9434C296.775 96.8984 297.892 96.4573 298.776 95.6926L319.394 77.8145C319.592 77.6424 319.851 77.5564 320.114 77.5754C320.376 77.5944 320.619 77.7168 320.791 77.9158C320.963 78.1148 321.049 78.374 321.03 78.6365C321.011 78.8989 320.889 79.143 320.69 79.3151V79.3121Z" fill="white"></path><path d="M110.861 359.144C115.864 361.695 122.152 359.351 124.903 353.927C127.653 348.502 125.828 342.044 120.823 339.5C120.565 339.368 120.3 339.257 120.034 339.15C120.953 336.188 121.655 333.162 122.133 330.097C122.419 330.097 122.707 330.097 122.999 330.066C128.709 329.556 133.24 324.303 133.122 318.334C133.003 312.365 128.276 307.938 122.566 308.447C122.266 308.474 121.967 308.522 121.683 308.573C121.092 305.632 120.274 302.742 119.238 299.928C119.501 299.778 119.763 299.614 120.018 299.436C124.903 296.01 126.463 289.248 123.506 284.332C120.549 279.416 114.19 278.21 109.305 281.631C109.055 281.807 108.819 281.997 108.587 282.189C106.645 280.042 104.525 278.061 102.251 276.27C102.413 276.005 102.57 275.738 102.713 275.456C105.465 270.032 109.059 264.106 104.015 261.642C92.3476 255.939 87.3412 260.821 84.5907 266.246C84.4408 266.526 84.3254 266.811 84.2069 267.098C81.4205 266.319 78.5735 265.776 75.696 265.476C75.714 265.176 75.7275 264.876 75.7215 264.566C75.6031 258.596 77.3703 255.365 71.6414 255.254C59.1433 255.011 54.9268 260.441 55.0467 266.411C55.0467 266.723 55.0782 267.027 55.1097 267.33C52.2286 268.154 49.4153 269.199 46.6947 270.456C46.5643 270.191 46.4294 269.927 46.275 269.668C43.3161 264.754 36.9591 263.546 32.0741 266.967C27.1891 270.389 25.6287 277.155 28.5861 282.069C28.736 282.321 28.9039 282.557 29.0717 282.79C26.8823 284.985 24.8563 287.338 23.0101 289.83C22.7687 289.68 22.5229 289.53 22.2606 289.398C17.2572 286.855 10.9692 289.19 8.21861 294.614C5.46807 300.039 7.29377 306.499 12.2972 309.042C12.5565 309.175 12.8218 309.286 13.0871 309.391C12.1682 312.353 11.4668 315.379 10.9886 318.444C10.7023 318.444 10.4145 318.444 10.1223 318.475C4.41283 318.985 -0.118443 324.237 0.00147168 330.207C0.121386 336.176 4.84602 340.603 10.5554 340.094C10.8552 340.067 11.1475 340.021 11.4383 339.968C12.0296 342.909 12.8469 345.8 13.8831 348.615C13.6208 348.765 13.3584 348.927 13.1036 349.105C8.21861 352.531 6.65823 359.294 9.61562 364.209C12.573 369.123 22.367 371.412 27.252 367.981C27.5024 367.806 24.3021 366.541 24.5345 366.347C26.4788 368.497 28.6008 370.48 30.878 372.273C30.7176 372.537 30.5602 372.806 30.4178 373.086C27.6672 378.511 29.4929 384.971 34.4979 387.514C39.5028 390.058 45.7893 387.723 48.5399 382.298C48.6898 382.016 48.8052 381.731 48.9236 381.446C51.7105 382.226 54.558 382.77 57.436 383.073C57.418 383.373 57.4045 383.673 57.4105 383.982C57.529 389.951 62.2551 394.378 67.9645 393.868C73.674 393.358 78.2052 388.107 78.0853 382.136C78.0853 381.824 78.0538 381.52 78.0223 381.216C80.9037 380.393 83.7171 379.348 86.4373 378.091C86.5677 378.356 86.7027 378.622 86.857 378.879C89.8159 383.793 96.1729 385.001 101.058 381.58C105.943 378.158 107.503 371.391 104.546 366.476C104.396 366.224 104.228 365.988 104.06 365.756C106.25 363.561 108.276 361.208 110.122 358.717C110.356 358.864 110.602 359.012 110.861 359.144ZM48.4769 359.937C30.3069 350.7 23.6741 327.248 33.6645 307.552C43.6549 287.857 66.4806 279.376 84.6491 288.612C102.818 297.848 109.452 321.299 99.4631 340.996C89.4742 360.693 66.6455 369.171 48.4769 359.937Z" fill="#D95B26"></path><path d="M123.002 330.066C128.712 329.556 133.243 324.304 133.125 318.334C133.006 312.365 128.279 307.938 122.569 308.447C122.269 308.474 121.97 308.522 121.686 308.573C121.095 305.633 120.278 302.742 119.242 299.928C119.504 299.778 119.766 299.614 120.021 299.436C124.906 296.01 130.95 287.731 127.504 283.147C120.962 274.443 114.193 278.21 109.308 281.636C109.058 281.811 108.822 282.002 108.59 282.194C106.648 280.046 104.528 278.066 102.254 276.274C102.416 276.01 102.573 275.743 102.716 275.461C103.426 274.087 103.85 272.583 103.96 271.04C104.07 269.497 103.864 267.948 103.356 266.487C98.6383 274.801 93.9916 283.154 89.4158 291.547C103.91 302.182 108.526 323.136 99.4587 341.002C91.7811 356.142 76.525 364.643 61.6166 363.577C60.9511 365.303 60.2991 367.038 59.5871 368.747C57.655 373.387 55.4605 377.929 53.2631 382.467C54.6451 382.726 56.0326 382.929 57.4256 383.077C57.4076 383.378 57.3941 383.678 57.4001 383.988C57.5186 389.958 61.1475 395.03 71.4901 394.48C77.2145 394.18 78.1978 388.113 78.0779 382.143C78.0779 381.83 78.0464 381.526 78.0149 381.223C80.8963 380.4 83.7097 379.355 86.4299 378.097C86.5604 378.362 86.6953 378.628 86.8496 378.885C89.8085 383.799 100.07 385.888 104.955 382.462C109.84 379.036 107.503 371.392 104.539 366.478C104.389 366.226 104.221 365.99 104.053 365.758C106.242 363.562 108.268 361.21 110.115 358.718C110.356 358.868 110.602 359.018 110.864 359.15C115.867 361.701 122.155 359.358 124.906 353.933C127.657 348.508 125.831 342.048 120.827 339.505C120.568 339.374 120.303 339.263 120.037 339.157C120.956 336.194 121.658 333.168 122.136 330.103C122.422 330.097 122.71 330.091 123.002 330.066Z" fill="#D95B26"></path><path d="M128.385 330.678C134.094 330.169 138.626 324.917 138.506 318.946C138.386 312.976 133.661 308.55 127.952 309.061C127.652 309.088 127.352 309.134 127.069 309.187C126.478 306.246 125.66 303.355 124.624 300.54C124.886 300.39 125.149 300.228 125.403 300.048C130.288 296.622 131.849 289.861 128.892 284.946C125.934 280.032 119.576 278.824 114.691 282.245C114.44 282.421 114.205 282.61 113.973 282.802C112.03 280.654 109.911 278.674 107.637 276.882C107.799 276.618 107.956 276.351 108.098 276.07C110.849 270.645 109.023 264.185 104.018 261.642C99.0133 259.098 92.7268 261.433 89.9763 266.858C89.8339 267.14 89.711 267.425 89.5925 267.71C86.8056 266.93 83.9581 266.386 81.0801 266.084C81.0981 265.784 81.1116 265.483 81.1056 265.174C80.9857 259.205 76.2611 254.778 70.5516 255.287C64.8422 255.796 60.3109 261.049 60.4294 267.019C60.4368 267.331 60.4623 267.637 60.4923 267.94C57.6113 268.762 54.7984 269.808 52.0788 271.066C51.9484 270.798 51.8135 270.534 51.6591 270.278C48.7002 265.362 42.3433 264.155 37.4582 267.577C32.5732 270.998 31.0128 277.764 33.9702 282.68C34.1201 282.932 34.2865 283.168 34.4559 283.399C32.2668 285.595 30.2408 287.948 28.3942 290.44C28.1529 290.29 27.9071 290.14 27.6447 290.008C22.6398 287.457 16.3533 289.799 13.6028 295.224C10.8522 300.648 12.6779 307.108 17.6814 309.652C17.9407 309.784 18.206 309.895 18.4713 310C17.5527 312.962 16.8513 315.988 16.3728 319.053C16.0865 319.053 15.7987 319.053 15.5064 319.085C9.79699 319.595 5.26572 324.847 5.38414 330.818C5.50255 336.789 10.2302 341.214 15.9396 340.704C16.2394 340.678 16.5302 340.63 16.8225 340.578C17.4137 343.518 18.2311 346.409 19.2672 349.224C19.0034 349.374 18.7426 349.536 18.4878 349.716C13.6028 353.142 12.0424 359.904 14.9998 364.818C17.9572 369.732 24.3156 370.94 29.2006 367.519C29.451 367.344 29.6863 367.154 29.9186 366.962C31.8608 369.11 33.9797 371.09 36.2531 372.882C36.0927 373.146 35.9353 373.413 35.7929 373.694C33.0409 379.12 34.8681 385.579 39.873 388.122C44.878 390.666 51.1645 388.331 53.915 382.906C54.0574 382.626 54.1803 382.339 54.2987 382.054C57.0836 382.835 59.9291 383.381 62.8052 383.685C62.7872 383.985 62.7737 384.285 62.7782 384.594C62.8981 390.564 67.6242 394.99 73.3336 394.482C79.0431 393.973 83.5743 388.719 83.4544 382.75C83.4544 382.438 83.423 382.132 83.3915 381.829C86.273 381.006 89.0864 379.961 91.8065 378.703C91.9369 378.97 92.0718 379.234 92.2262 379.491C95.1836 384.407 101.542 385.613 106.427 382.192C111.312 378.771 112.872 372.004 109.915 367.088C109.765 366.836 109.597 366.602 109.429 366.37C111.619 364.174 113.644 361.82 115.491 359.329C115.732 359.479 115.978 359.629 116.241 359.761C121.244 362.312 127.532 359.97 130.283 354.545C133.033 349.12 131.207 342.66 126.202 340.117C125.943 339.985 125.679 339.874 125.414 339.769C126.333 336.806 127.035 333.781 127.512 330.716C127.805 330.71 128.093 330.705 128.385 330.678ZM107.174 342.794C96.4786 363.894 72.0341 372.966 52.578 363.076C33.1218 353.185 26.0184 328.072 36.7148 306.979C47.4111 285.887 71.8557 276.807 91.3133 286.697C110.771 296.588 117.873 321.702 107.174 342.794Z" fill="#F07440"></path><defs><linearGradient id="paint0_linear" x1="221.209" y1="141.806" x2="215.172" y2="151.56" gradientUnits="userSpaceOnUse"><stop stop-color="#FFC444"></stop><stop offset="1" stop-color="#F36F56"></stop></linearGradient><linearGradient id="paint1_linear" x1="21141.8" y1="19602.1" x2="21336.4" y2="19962.9" gradientUnits="userSpaceOnUse"><stop stop-color="#FFC444"></stop><stop offset="1" stop-color="#F36F56"></stop></linearGradient><linearGradient id="paint2_linear" x1="242.416" y1="314.959" x2="304.311" y2="314.959" gradientUnits="userSpaceOnUse"><stop stop-color="#311944"></stop><stop offset="1" stop-color="#893976"></stop></linearGradient><linearGradient id="paint3_linear" x1="29434.3" y1="204945" x2="69313.7" y2="239805" gradientUnits="userSpaceOnUse"><stop stop-color="#311944"></stop><stop offset="1" stop-color="#893976"></stop></linearGradient><linearGradient id="paint4_linear" x1="269.467" y1="175.907" x2="278.622" y2="190.443" gradientUnits="userSpaceOnUse"><stop stop-color="#E38DDD"></stop><stop offset="1" stop-color="#9571F6"></stop></linearGradient><linearGradient id="paint5_linear" x1="8821.78" y1="21964" x2="7425.51" y2="23577.6" gradientUnits="userSpaceOnUse"><stop stop-color="#FFC444"></stop><stop offset="1" stop-color="#F36F56"></stop></linearGradient><linearGradient id="paint6_linear" x1="1140.75" y1="2015.65" x2="1038.78" y2="2342.33" gradientUnits="userSpaceOnUse"><stop stop-color="#FFC444"></stop><stop offset="1" stop-color="#F36F56"></stop></linearGradient></defs></svg> 