<?xml version="1.0" encoding="UTF-8"?> <svg xmlns="http://www.w3.org/2000/svg" width="427" height="397" viewBox="0 0 427 397" fill="none"><path fill-rule="evenodd" clip-rule="evenodd" d="M426.981 199.995C427.542 252.782 415.953 306.857 379.065 344.595C341.835 382.682 287.802 396.34 234.563 396.846C180.732 397.358 128.52 382.004 87.2892 347.369C41.8821 309.226 -3.5695 259.199 0.221824 199.995C3.91427 142.335 61.0806 107.846 105.028 70.3716C143.882 37.2396 183.565 2.411 234.563 0.165739C287.521 -2.16581 339.239 20.2424 376.021 58.4408C412.173 95.9852 426.426 147.86 426.981 199.995Z" fill="#F2F6FC"></path><path d="M310.75 31.3906V218.818L327.712 213.14V49.1891L312.286 33.0036L310.944 31.5926L310.75 31.3906Z" fill="#3693E7"></path><path d="M310.748 31.2061H263.604V218.817H310.748V31.2061Z" fill="white"></path><path d="M301.77 51.9277H295.783V206.498H301.77V51.9277Z" fill="#C5DFF8"></path><path opacity="0.3" d="M289.298 51.9277H283.062V206.498H289.298V51.9277Z" fill="#97A6B7"></path><path opacity="0.3" d="M276.825 51.9277H270.589V206.498H276.825V51.9277Z" fill="#97A6B7"></path><g style="mix-blend-mode:multiply" opacity="0.5"><path d="M285.057 51.9277H283.062V206.498H285.057V51.9277Z" fill="#97A6B7"></path></g><g style="mix-blend-mode:multiply" opacity="0.5"><path d="M272.336 51.9277H270.34V206.498H272.336V51.9277Z" fill="#97A6B7"></path></g><path d="M280.473 124.044V218.817L293.812 215.947V133.043L281.681 124.86L280.627 124.145L280.473 124.044Z" fill="#97A6B7"></path><path d="M280.473 123.949H243.401V218.817H280.473V123.949Z" fill="#F4F7FA"></path><path d="M273.413 134.427H268.705V212.588H273.413V134.427Z" fill="#97A6B7"></path><path d="M263.604 134.427H258.701V212.588H263.604V134.427Z" fill="#97A6B7"></path><path d="M253.796 134.427H248.893V212.588H253.796V134.427Z" fill="#97A6B7"></path><g style="mix-blend-mode:multiply" opacity="0.5"><path d="M270.274 134.427H268.705V212.588H270.274V134.427Z" fill="#97A6B7"></path></g><g style="mix-blend-mode:multiply" opacity="0.5"><path d="M260.27 134.427H258.701V212.588H260.27V134.427Z" fill="#97A6B7"></path></g><g style="mix-blend-mode:multiply" opacity="0.5"><path d="M250.265 134.427H248.697V212.588H250.265V134.427Z" fill="#97A6B7"></path></g><g style="mix-blend-mode:multiply" opacity="0.1"><path d="M243.401 218.812H280.473L293.805 215.942V206.298C287.627 195.561 289.66 191.095 288.327 183.128C287.023 175.352 289.772 134.378 281.674 124.854C281.398 124.521 281.09 124.217 280.755 123.944L280.62 124.141L280.466 124.361C276.253 130.446 274.323 133.352 273.405 136.442C272.511 139.452 272.578 142.635 272.432 149.106C272.252 157.064 272.29 163.987 270.267 168.753C269.867 169.724 269.34 170.636 268.698 171.466C267.475 173.027 265.828 174.185 263.597 174.862C263.35 174.939 263.097 175.009 262.836 175.072C261.943 175.292 261.079 175.618 260.263 176.043C259.72 176.32 259.196 176.632 258.694 176.977C256.962 178.153 255.309 179.767 253.791 181.729C252.439 183.499 251.256 185.392 250.26 187.384C249.775 188.341 249.317 189.337 248.886 190.372C248.82 190.53 248.752 190.689 248.69 190.851C246.137 197.28 244.88 204.151 244.991 211.067C245.052 214.202 244.441 216.722 243.401 218.812Z" fill="#97A6B7"></path></g><path d="M342.358 78.6394H285.475V218.817H342.358V78.6394Z" fill="#F7FBFF"></path><path d="M338.044 91.9502H289.791V100.729H338.044V91.9502Z" fill="#C5DFF8"></path><path d="M338.044 107.526H289.791V116.304H338.044V107.526Z" fill="#C5DFF8"></path><path d="M338.044 123.1H289.791V131.879H338.044V123.1Z" fill="#C5DFF8"></path><path d="M338.044 138.675H289.791V147.454H338.044V138.675Z" fill="#C5DFF8"></path><path d="M338.044 154.251H289.791V163.029H338.044V154.251Z" fill="#C5DFF8"></path><path d="M338.044 169.826H289.791V178.605H338.044V169.826Z" fill="#C5DFF8"></path><path d="M338.044 185.402H289.791V194.181H338.044V185.402Z" fill="#C5DFF8"></path><path d="M342.358 78.6394V218.817H357.659V91.9502L342.801 79.0245L342.421 78.6933L342.358 78.6394Z" fill="#3693E7"></path><g style="mix-blend-mode:multiply" opacity="0.5"><path d="M362.367 113.189H352.951V115.171H362.367V113.189Z" fill="#97A6B7"></path></g><g style="mix-blend-mode:multiply" opacity="0.5"><path d="M362.367 137.826H352.951V139.808H362.367V137.826Z" fill="#97A6B7"></path></g><g style="mix-blend-mode:multiply" opacity="0.5"><path d="M362.367 162.464H352.951V164.446H362.367V162.464Z" fill="#97A6B7"></path></g><g style="mix-blend-mode:multiply" opacity="0.5"><path d="M362.367 187.101H352.951V189.083H362.367V187.101Z" fill="#97A6B7"></path></g><g style="mix-blend-mode:multiply" opacity="0.5"><path d="M387.288 112.996H377.677V114.978H387.288V112.996Z" fill="#97A6B7"></path></g><g style="mix-blend-mode:multiply" opacity="0.5"><path d="M387.288 137.633H377.677V139.615H387.288V137.633Z" fill="#97A6B7"></path></g><g style="mix-blend-mode:multiply" opacity="0.5"><path d="M387.288 162.27H377.677V164.252H387.288V162.27Z" fill="#97A6B7"></path></g><path d="M397.084 99.5952V218.817L412.384 215.205V110.915L397.084 99.5952Z" fill="#3693E7"></path><path d="M397.084 99.8794H349.223V218.819H397.084V99.8794Z" fill="white"></path><path d="M388.454 114.038H379.038V132.728H388.454V114.038Z" fill="#C5DFF8"></path><path d="M375.507 114.038H365.896V132.728H375.507V114.038Z" fill="#C5DFF8"></path><path d="M362.367 114.038H352.951V132.728H362.367V114.038Z" fill="#C5DFF8"></path><path d="M388.454 138.675H379.038V157.365H388.454V138.675Z" fill="#C5DFF8"></path><path d="M375.507 138.675H365.896V157.365H375.507V138.675Z" fill="#C5DFF8"></path><path d="M362.367 138.675H352.951V157.365H362.367V138.675Z" fill="#C5DFF8"></path><path d="M388.454 163.313H379.038V182.003H388.454V163.313Z" fill="#C5DFF8"></path><path d="M375.507 163.313H365.896V182.003H375.507V163.313Z" fill="#C5DFF8"></path><path d="M362.367 163.313H352.951V182.003H362.367V163.313Z" fill="#C5DFF8"></path><path opacity="0.3" d="M388.454 187.951H379.038V206.64H388.454V187.951Z" fill="#97A6B7"></path><path opacity="0.3" d="M375.507 187.951H365.896V206.64H375.507V187.951Z" fill="#97A6B7"></path><path opacity="0.3" d="M362.367 187.951H352.951V206.64H362.367V187.951Z" fill="#97A6B7"></path><g style="mix-blend-mode:multiply" opacity="0.5"><path d="M388.454 187.951H379.038V189.933H388.454V187.951Z" fill="#97A6B7"></path></g><path d="M288.313 280.388C288.313 283.494 285.953 286.136 283.036 286.287L97.5926 295.919C94.1869 296.096 91.4209 293.509 91.4209 290.142V15.057C91.4209 11.691 94.1869 9.13275 97.5926 9.33606L100.076 9.20142L283.036 20.6461C285.953 20.8238 288.313 23.487 288.313 26.5932V280.388Z" fill="url(#paint0_linear)"></path><path d="M291.967 280.26C291.967 283.368 289.606 286.008 286.689 286.16L101.245 295.791C97.8402 295.968 95.0742 293.381 95.0742 290.014V14.9291C95.0742 11.563 97.8402 9.00479 101.245 9.2081L286.689 20.5181C289.606 20.6958 291.967 23.3577 291.967 26.4653V280.26Z" fill="#3693E7"></path><g style="mix-blend-mode:multiply"><path d="M149.355 35.0705C144.745 40.9947 144.087 52.1876 151.989 56.7964C169.109 67.3295 191.496 64.0389 207.959 52.846C220.079 44.3635 214.915 28.6453 211.447 15.931L174.976 13.7053C171.837 22.476 155.136 27.3648 149.355 35.0705Z" fill="#D8DEE8"></path></g><path d="M283.245 269.249C283.245 272.001 281.148 274.329 278.556 274.45L110.639 282.308C107.659 282.443 105.237 280.162 105.237 277.204V41.7392C105.237 38.777 107.661 36.5042 110.639 36.6537L278.556 45.1052C281.148 45.2399 283.245 47.5719 283.245 50.3226V269.249Z" fill="white"></path><path d="M237.21 37.6191C236.96 36.1758 235.833 35.1552 234.405 35.0784L225.568 34.6031C221.574 34.3877 218.687 31.0593 218.875 26.8746L219.314 17.1803C219.395 15.3882 218.157 13.9489 216.438 13.8439L213.585 13.6675C211.415 13.5329 209.929 11.59 210.273 9.32797C210.877 5.32639 208.253 1.87414 204.385 1.61563C200.518 1.35711 196.866 4.40812 196.257 8.4326C196.08 9.54368 195.506 10.5528 194.641 11.2722C193.808 11.9881 192.732 12.3573 191.635 12.3036L188.724 12.1232C186.961 12.0141 185.274 13.2878 184.806 15.0853L182.28 24.7984C181.187 28.9966 177.223 32.0072 173.066 31.7851L163.775 31.2855C162.257 31.2034 160.757 32.1136 160.04 33.5516L153.368 46.9391L153.941 47.6716L239.531 51.0013L237.21 37.6191ZM203.123 9.95271C201.988 9.88135 201.211 8.87557 201.389 7.69071C201.567 6.50586 202.633 5.61856 203.767 5.69261C204.901 5.76667 205.675 6.77918 205.498 7.95461C205.32 9.13005 204.257 10.0254 203.123 9.95271Z" fill="#707C87"></path><path d="M237.783 38.3517C237.534 36.9083 236.407 35.8877 234.978 35.8109L226.142 35.337C222.147 35.1229 219.26 31.7932 219.449 27.6085L219.888 17.9142C219.969 16.1221 218.731 14.6828 217.011 14.5791L214.159 14.4068C211.988 14.2721 210.503 12.3292 210.846 10.0672C211.451 6.06564 208.826 2.6134 204.958 2.35489C201.089 2.09637 197.439 5.14738 196.831 9.17186C196.654 10.2833 196.08 11.2929 195.215 12.0128C194.381 12.7279 193.306 13.0965 192.209 13.0428L189.296 12.8624C187.535 12.7534 185.847 14.0271 185.38 15.8246L182.85 25.539C181.756 29.7386 177.792 32.7492 173.636 32.5257L164.344 32.0261C162.827 31.944 161.326 32.8542 160.61 34.2922L153.937 47.6797L240.101 51.7419L237.783 38.3517ZM203.692 10.6852C202.557 10.6139 201.78 9.6081 201.957 8.42324C202.135 7.23838 203.202 6.35243 204.335 6.42649C205.469 6.50054 206.244 7.51305 206.066 8.68714C205.888 9.86123 204.831 10.7579 203.692 10.6852Z" fill="#C5DFF8"></path><path d="M271.188 87.2404C271.188 87.8261 270.796 88.2933 270.311 88.2825L204.66 86.8136C204.137 86.8015 203.717 86.2979 203.717 85.688V72.4378C203.717 71.8292 204.14 71.3472 204.66 71.3606L270.311 73.3991C270.796 73.4139 271.188 73.9013 271.188 74.4884V87.2404Z" fill="#C5DFF8"></path><path d="M271.188 101.933C271.188 102.518 270.796 102.99 270.311 102.983L204.66 102.075C204.137 102.075 203.717 101.568 203.717 100.958V97.2795C203.717 96.6695 204.14 96.1821 204.66 96.1915L270.311 97.3145C270.796 97.3239 271.188 97.8059 271.188 98.3916V101.933Z" fill="#C5DFF8"></path><path d="M271.188 115.389C271.188 115.975 270.796 116.448 270.311 116.446L204.66 116.053C204.137 116.053 203.717 115.553 203.717 114.943V111.261C203.717 110.652 204.14 110.161 204.66 110.166L270.311 110.775C270.796 110.775 271.188 111.259 271.188 111.845V115.389Z" fill="#C5DFF8"></path><path d="M271.188 128.84C271.188 129.425 270.796 129.902 270.311 129.903L204.66 130.025C204.137 130.025 203.717 129.533 203.717 128.923V125.243C203.717 124.633 204.14 124.141 204.66 124.141L270.311 124.235C270.796 124.235 271.188 124.713 271.188 125.299V128.84Z" fill="#C5DFF8"></path><path d="M271.188 142.293C271.188 142.879 270.796 143.358 270.311 143.37L204.66 144.006C204.137 144.006 203.717 143.521 203.717 142.911V139.221C203.717 138.611 204.14 138.114 204.66 138.11L270.311 137.69C270.796 137.69 271.188 138.161 271.188 138.747V142.293Z" fill="#C5DFF8"></path><path d="M181.068 144.787L126.051 145.338C123.985 145.359 122.306 143.502 122.306 141.191V72.5147C122.306 70.2042 123.985 68.3838 126.051 68.4484L181.068 70.1705C183.01 70.2311 184.58 72.0905 184.58 74.3243V140.703C184.579 142.941 183.009 144.768 181.068 144.787Z" fill="#C5DFF8"></path><path d="M125.924 70.2998H125.99L181.009 72.007C182.079 72.0394 182.949 73.0842 182.949 74.335V140.734C182.949 141.946 182.113 142.933 181.073 142.95L126.055 143.489C124.898 143.5 123.957 142.459 123.957 141.168V72.5052C123.961 71.2746 124.823 70.3065 125.924 70.2998ZM125.924 68.4471C123.917 68.4579 122.305 70.2513 122.305 72.5147V141.191C122.305 143.502 123.984 145.364 126.05 145.338L181.067 144.787H181.088C183.021 144.755 184.579 142.933 184.579 140.709V74.3229C184.579 72.0892 183.009 70.2298 181.067 70.1692L126.05 68.4484C126.008 68.4471 125.966 68.4457 125.924 68.4471Z" fill="#C5DFF8"></path><path d="M158.81 178.948L123.618 179.694C123.559 179.692 123.501 179.678 123.447 179.654C123.394 179.629 123.346 179.594 123.306 179.55C123.266 179.507 123.236 179.456 123.216 179.4C123.196 179.345 123.188 179.286 123.191 179.227V173.998C123.185 173.877 123.227 173.76 123.306 173.669C123.386 173.579 123.498 173.523 123.618 173.514L158.81 172.881C158.866 172.885 158.922 172.899 158.973 172.924C159.024 172.949 159.07 172.984 159.107 173.027C159.145 173.069 159.173 173.119 159.192 173.173C159.21 173.227 159.217 173.284 159.214 173.34V178.468C159.222 178.585 159.184 178.7 159.109 178.79C159.033 178.88 158.926 178.936 158.81 178.948Z" fill="#C5DFF8"></path><path d="M183.454 190.684L123.618 192.357C123.559 192.356 123.501 192.343 123.447 192.318C123.394 192.294 123.346 192.259 123.306 192.216C123.266 192.172 123.235 192.121 123.216 192.066C123.196 192.011 123.187 191.952 123.191 191.893V186.665C123.185 186.544 123.227 186.426 123.306 186.335C123.386 186.245 123.497 186.188 123.618 186.177L183.454 184.696C183.511 184.698 183.566 184.712 183.617 184.736C183.668 184.76 183.714 184.794 183.752 184.836C183.79 184.878 183.818 184.928 183.837 184.981C183.855 185.034 183.862 185.091 183.858 185.147V190.206C183.867 190.323 183.83 190.438 183.754 190.527C183.678 190.617 183.571 190.673 183.454 190.684Z" fill="#C5DFF8"></path><path d="M183.454 202.94L123.618 205.021C123.559 205.019 123.501 205.006 123.448 204.982C123.394 204.958 123.346 204.924 123.306 204.881C123.266 204.837 123.235 204.787 123.216 204.731C123.196 204.676 123.187 204.617 123.191 204.559V199.331C123.186 199.21 123.227 199.092 123.307 199.001C123.386 198.909 123.497 198.852 123.618 198.841L183.454 196.956C183.511 196.957 183.566 196.97 183.617 196.994C183.669 197.018 183.714 197.051 183.752 197.093C183.79 197.135 183.819 197.184 183.837 197.238C183.855 197.291 183.863 197.348 183.858 197.404V202.462C183.866 202.579 183.828 202.694 183.753 202.783C183.677 202.872 183.57 202.928 183.454 202.94Z" fill="#C5DFF8"></path><path d="M183.454 215.198L123.618 217.684C123.559 217.683 123.501 217.671 123.447 217.647C123.394 217.623 123.346 217.589 123.306 217.546C123.266 217.503 123.235 217.452 123.215 217.397C123.195 217.342 123.187 217.283 123.191 217.225V211.997C123.186 211.876 123.227 211.757 123.306 211.666C123.386 211.575 123.497 211.517 123.618 211.505L183.454 209.216C183.511 209.217 183.566 209.23 183.617 209.253C183.669 209.276 183.715 209.309 183.752 209.351C183.79 209.393 183.819 209.442 183.837 209.495C183.856 209.548 183.863 209.605 183.858 209.661V214.719C183.865 214.835 183.827 214.95 183.752 215.039C183.677 215.128 183.57 215.185 183.454 215.198Z" fill="#C5DFF8"></path><path d="M254.899 176.921L204.105 177.998C204.05 177.995 203.996 177.981 203.946 177.957C203.896 177.932 203.852 177.898 203.816 177.857C203.779 177.815 203.752 177.767 203.734 177.714C203.717 177.662 203.71 177.606 203.715 177.551V172.549C203.707 172.436 203.743 172.325 203.816 172.239C203.889 172.152 203.993 172.097 204.105 172.086L254.899 171.18C255.006 171.189 255.104 171.239 255.173 171.321C255.243 171.402 255.277 171.508 255.268 171.615V176.474C255.275 176.581 255.241 176.688 255.173 176.771C255.104 176.854 255.006 176.908 254.899 176.921Z" fill="#C5DFF8"></path><path d="M269.946 188.266L204.102 190.106C204.047 190.104 203.993 190.09 203.943 190.066C203.894 190.042 203.849 190.009 203.813 189.967C203.776 189.926 203.748 189.877 203.731 189.825C203.714 189.772 203.707 189.717 203.712 189.662V184.66C203.704 184.547 203.741 184.435 203.813 184.348C203.886 184.262 203.99 184.206 204.102 184.194L269.953 182.578C270.005 182.582 270.056 182.597 270.103 182.621C270.149 182.645 270.19 182.677 270.224 182.717C270.258 182.757 270.283 182.804 270.299 182.853C270.315 182.903 270.32 182.956 270.315 183.008V187.824C270.322 187.931 270.287 188.036 270.218 188.118C270.15 188.2 270.053 188.253 269.946 188.266Z" fill="#C5DFF8"></path><path d="M269.946 199.935L204.102 202.224C204.047 202.223 203.993 202.21 203.942 202.186C203.892 202.163 203.848 202.129 203.811 202.087C203.774 202.046 203.747 201.997 203.73 201.945C203.713 201.892 203.706 201.836 203.712 201.781V196.779C203.705 196.666 203.741 196.554 203.814 196.467C203.886 196.38 203.99 196.324 204.102 196.311L269.953 194.241C270.153 194.234 270.315 194.426 270.315 194.668V199.484C270.323 199.592 270.289 199.699 270.221 199.783C270.152 199.867 270.054 199.921 269.946 199.935Z" fill="#C5DFF8"></path><path d="M269.946 211.605L204.102 214.341C204.047 214.339 203.993 214.326 203.943 214.303C203.893 214.279 203.849 214.246 203.812 214.205C203.775 214.164 203.748 214.115 203.73 214.063C203.713 214.011 203.707 213.955 203.712 213.9V208.898C203.705 208.785 203.741 208.673 203.814 208.585C203.886 208.498 203.99 208.441 204.102 208.427L269.953 205.911C270.152 205.903 270.315 206.092 270.315 206.335V211.151C270.323 211.259 270.289 211.367 270.221 211.451C270.152 211.535 270.054 211.59 269.946 211.605Z" fill="#C5DFF8"></path><g style="mix-blend-mode:multiply" opacity="0.3"><path d="M234.978 35.8149L226.142 35.341C224.898 35.2845 223.692 34.8933 222.652 34.2087C221.612 33.524 220.776 32.5713 220.233 31.4512C212.041 33.1598 203.422 31.3717 194.789 33.0952C188.864 34.412 189.521 43.6283 182.939 44.2867C173.493 45.5631 164.148 45.652 154.902 45.7422L153.94 47.6716L240.104 51.7338L237.785 38.3516C237.534 36.9082 236.407 35.8877 234.978 35.8149Z" fill="#97A6B7"></path></g><path d="M406.631 264.269C405.419 271.674 396.546 279.409 366.485 290.959C350.101 297.251 304.29 315.211 263.911 328.44C225.455 341.04 211.083 347.585 191.241 353.276C182.684 355.733 111.072 375.47 77.0199 346.479C64.3614 335.708 56.1469 320.428 53.657 302.705C53.9182 302.647 53.7257 296.698 53.9869 296.64C159.592 272.961 241.989 262.71 239.97 247.535C239.409 243.285 232.525 239.196 222.161 235.801L222.713 216.547C234.616 217.288 245.562 218.042 253.465 218.714C282.13 221.164 337.327 225.82 368.565 236.756C385.373 242.64 399.114 245.47 404.539 250.077C406.523 251.762 407.169 256.758 407.118 258.471C407.023 261.729 406.975 262.174 406.631 264.269Z" fill="url(#paint1_linear)"></path><path d="M406.188 256.764C404.976 264.16 396.562 272.372 366.532 283.986C350.166 290.314 304.402 308.374 264.063 321.695C225.643 334.384 211.287 340.959 191.46 346.699C182.913 349.176 111.365 369.09 77.3377 340.261C64.6873 329.545 56.4809 314.326 53.991 296.646C160.048 272.858 242.165 256.205 240.143 241.039C239.581 236.799 232.704 232.738 222.35 229.382L222.9 210.168C234.792 210.872 245.727 211.591 253.624 212.239C282.262 214.599 337.405 219.083 368.611 229.899C400.792 241.043 407.39 249.375 406.188 256.764Z" fill="#C5DFF8"></path><path d="M339.736 243.535L337.893 243.45L335.877 237.534C335.877 237.534 340.052 238.02 339.736 243.535Z" fill="url(#paint2_linear)"></path><path d="M296.258 251.61L308.356 249.932C308.356 249.932 309.871 240.708 304.549 239.581C299.228 238.453 296.02 245.507 296.258 251.61Z" fill="url(#paint3_linear)"></path><path d="M297.35 240.726L297.346 240.726C296.97 240.747 296.62 240.878 296.269 241.072C295.933 241.224 295.528 241.402 295.517 241.653L295.517 241.659C294.192 242.917 293.25 245.311 293.119 248.035C292.946 251.662 294.285 254.662 296.21 255.089L296.207 255.091C296.337 255.116 297.938 255.781 303.096 255.435C303.333 253.234 303.988 240.739 303.988 240.739C303.988 240.739 299.898 240.338 297.35 240.726Z" fill="url(#paint4_linear)"></path><path d="M307.283 247.987C307.093 252.137 305.017 255.487 302.689 255.466C300.406 255.447 298.739 252.18 298.928 248.174C299.116 244.167 301.089 240.833 303.375 240.711C305.705 240.588 307.474 243.843 307.283 247.987Z" fill="#C5DFF8"></path><path d="M305.461 247.999C305.325 250.943 303.934 253.332 302.374 253.333C300.834 253.333 299.709 251.001 299.844 248.125C299.979 245.249 301.322 242.869 302.864 242.801C304.425 242.731 305.596 245.057 305.461 247.999Z" fill="white"></path><path d="M331.34 237.861L331.336 237.861C331 237.887 330.673 237.988 330.38 238.157C330.108 238.288 330.171 238.461 329.688 238.655L329.687 238.66C328.845 239.758 327.92 241.815 327.809 244.161C327.66 247.287 328.781 249.867 330.343 250.231L330.36 250.232C330.466 250.254 331.773 250.823 335.959 250.513C336.157 248.617 336.722 237.853 336.722 237.853C336.722 237.853 333.408 237.522 331.34 237.861Z" fill="url(#paint5_linear)"></path><path d="M339.382 244.091C339.218 247.665 337.526 250.556 335.637 250.544C333.786 250.532 332.441 247.723 332.603 244.271C332.765 240.82 334.375 237.944 336.228 237.834C338.119 237.722 339.546 240.521 339.382 244.091Z" fill="#C5DFF8"></path><path d="M337.903 244.105C337.787 246.642 336.653 248.702 335.388 248.706C334.138 248.71 333.231 246.704 333.347 244.227C333.462 241.75 334.559 239.697 335.81 239.634C337.075 239.571 338.02 241.571 337.903 244.105Z" fill="white"></path><path d="M252.131 235.727L252.126 235.726C251.661 235.705 251.296 235.924 250.86 236.113C250.442 236.252 250.163 236.556 249.992 236.819L249.992 236.826C248.19 238.158 247.069 240.941 246.919 244.197C246.72 248.531 248.4 252.188 250.814 252.79L250.791 252.791C250.954 252.827 252.917 253.681 259.085 253.509C259.359 251.002 260.102 236.622 260.102 236.622C260.102 236.622 255.243 235.551 252.131 235.727Z" fill="url(#paint6_linear)"></path><path d="M258.597 253.525C255.89 253.4 253.869 249.515 254.084 244.846C254.298 240.177 256.666 236.492 259.373 236.617C262.081 236.741 264.101 240.627 263.887 245.296C263.672 249.965 261.304 253.649 258.597 253.525Z" fill="#1A70BE"></path><path d="M258.222 251.06C256.395 250.976 255.039 248.202 255.192 244.864C255.345 241.525 256.95 238.887 258.777 238.971C260.603 239.055 261.96 241.829 261.806 245.167C261.653 248.506 260.048 251.144 258.222 251.06Z" fill="url(#paint7_linear)"></path><path d="M341.473 240.353C341.539 240.74 341.512 241.137 341.392 241.511C341.272 241.885 341.064 242.225 340.785 242.501L339.737 243.538C339.611 240.331 338.074 237.799 336.078 237.707C333.893 237.607 331.984 240.475 331.817 244.112C331.776 244.933 331.833 245.756 331.987 246.564L331.542 246.724L307.765 250.015C307.851 249.532 307.992 249.033 308.016 248.52C308.037 248.057 308.065 247.606 308.086 247.163L308.086 247.158C307.469 243.357 305.678 240.401 303.036 240.28C300.083 240.144 297.481 243.614 297.279 248.029C297.223 249.235 297.33 250.385 297.603 251.424L294.048 251.915C294.041 251.942 294.033 251.97 294.021 251.996C293.905 252.11 293.019 252.824 288.853 252.633L242.873 250.521C240.793 250.426 239.323 248.536 239.419 246.452L239.427 246.28C239.464 245.482 239.881 244.771 240.61 244.445C240.61 244.445 239.505 240.733 240.715 236.408C241.199 234.681 242.028 232.856 243.451 231.131C244.351 230.045 245.391 229.082 246.542 228.268C246.542 228.268 251.974 224.16 261.626 223.471C261.626 223.471 269.85 218.041 277.308 214.535C280.964 212.813 284.986 212.014 289.021 212.207L315.638 213.43C320.259 213.642 324.73 215.14 328.549 217.756L335.286 222.365C335.286 222.365 336.895 223.428 338.474 225.873C340.271 228.651 342.026 233.215 341.326 240.019L341.475 240.353L341.473 240.353Z" fill="#F07440"></path><path d="M294.037 251.913C294.033 251.941 294.026 251.968 294.016 251.994C293.687 252.18 293.237 253.15 282.587 252.344L242.873 250.52C240.793 250.424 239.323 248.535 239.419 246.451L239.427 246.279C239.429 246.233 239.367 246.186 239.372 246.139C239.453 245.398 239.888 244.75 240.577 244.443L286.796 247.005C286.796 247.005 291.194 246.41 292.653 247.263C292.857 247.383 293.001 247.529 293.068 247.711C293.63 249.191 294.359 251.248 294.037 251.913Z" fill="#ACD1F5"></path><path d="M251.38 236.992L251.352 237.595C251.342 237.827 251.284 238.054 251.184 238.263C251.083 238.472 250.941 238.659 250.767 238.811C250.592 238.964 250.389 239.08 250.168 239.152C249.948 239.223 249.715 239.25 249.485 239.229L244.549 238.792C243.363 238.688 242.261 238.141 241.459 237.261L240.681 236.407C241.219 234.474 242.156 232.676 243.434 231.131C243.451 231.135 243.469 231.135 243.486 231.139L245.774 233.126C246.985 234.178 248.445 234.902 250.015 235.228C250.415 235.311 250.772 235.535 251.022 235.858C251.272 236.181 251.399 236.583 251.38 236.992Z" fill="white"></path><path d="M273.363 237.309C273.02 237.686 272.463 237.98 272.126 237.965L253.612 237.112C253.276 237.097 252.816 236.755 252.59 236.353C252.365 235.954 252.491 235.648 252.868 235.666L273.292 236.604C273.669 236.621 273.707 236.936 273.363 237.31L273.363 237.309Z" fill="#D95B26"></path><path d="M271.161 239.746C270.798 240.142 270.285 240.454 270.009 240.441L254.962 239.745C254.688 239.733 254.272 239.377 254.034 238.955C253.797 238.535 253.866 238.21 254.182 238.225L271.232 239.012C271.549 239.026 271.52 239.355 271.161 239.746Z" fill="#D95B26"></path><path d="M278.597 240.693C277.472 240.612 276.609 239.752 276.655 238.753L276.683 238.143C276.727 237.192 277.58 236.434 278.651 236.39L280.671 236.307L292.784 233.699L292.452 235.199C291.951 237.464 290.121 239.305 287.654 240.028L285.848 240.557C284.648 240.906 283.396 241.039 282.149 240.948L278.597 240.693Z" fill="white"></path><path d="M292.642 247.311L287.589 248.453L239.299 246.235C239.382 245.446 239.852 244.799 240.539 244.491L286.777 247.053C286.777 247.053 291.183 246.458 292.642 247.311Z" fill="#C5DFF8"></path><path d="M324.243 245.379L324.234 245.379C324.088 245.055 323.957 245.147 323.969 244.987C323.977 244.89 324.708 235.169 324.602 231.207C324.513 227.778 323.966 227.131 323.919 227.083C323.859 227.043 323.815 226.983 323.794 226.914C323.774 226.844 323.779 226.77 323.809 226.704C323.84 226.633 323.898 226.578 323.971 226.55C324.043 226.522 324.123 226.523 324.194 226.554C324.401 226.646 325.082 227.254 325.186 231.155C325.291 235.144 324.557 244.934 324.549 245.032C324.538 245.19 324.399 245.387 324.243 245.379Z" fill="#D95B26"></path><path d="M341.474 240.353L341.326 240.019C342.027 233.215 340.273 228.651 338.476 225.873C337.263 225.888 335.615 226.416 335.611 229.173C335.603 233.527 334.633 235.731 331.246 237.567C329.637 238.436 327.884 239.168 326.441 240.308C325.152 241.329 324.498 242.957 323.189 243.914C320.975 245.529 318.113 244.635 315.631 244.408C313.369 244.199 308.238 243.855 308.086 247.157L308.086 247.162C308.066 247.605 308.038 248.057 308.016 248.519C307.993 249.032 307.847 249.531 307.761 250.014L331.54 246.723L331.986 246.563C331.833 245.755 331.776 244.932 331.816 244.111C331.983 240.474 333.894 237.606 336.079 237.706C338.074 237.798 339.611 240.331 339.738 243.537L340.786 242.5C341.065 242.224 341.273 241.884 341.393 241.511C341.512 241.137 341.54 240.739 341.474 240.353Z" fill="#D95B26"></path><path d="M310.685 215.264C310.685 215.264 307.215 223.079 306.388 224.209C306.31 224.313 306.211 224.47 306.095 224.558C304.98 225.406 302.343 225.505 302.343 225.505L263.651 223.728C272.587 217.479 280.138 213.862 280.138 213.862L310.685 215.264Z" fill="#3693E7"></path><path d="M334.16 223.044C334.16 223.044 329.954 224.545 324.336 225.881C324.16 224.808 323.893 223.752 323.539 222.724C322.778 220.497 321.436 217.868 319.061 215.496C321.28 215.756 323.456 216.307 325.531 217.136C328.391 218.282 331.4 220.122 334.16 223.044Z" fill="#3693E7"></path><path d="M322.899 226.212C320.102 226.834 317.031 227.388 313.997 227.693C312.269 227.864 310.554 227.955 308.908 227.929C308.427 227.922 307.95 227.905 307.482 227.878C307.482 227.876 307.483 227.874 307.485 227.872C307.572 227.567 311.068 215.626 313.813 215.393C314.771 215.314 315.733 215.289 316.694 215.319C319.54 217.635 321.12 220.428 321.991 222.792C322.401 223.9 322.705 225.046 322.899 226.212Z" fill="#3693E7"></path><path d="M306.095 224.554C304.98 225.403 302.343 225.505 302.343 225.505L263.651 223.728C272.587 217.479 280.138 213.862 280.138 213.862L280.685 213.887C281.526 214.242 282.329 215.043 283.022 216.135C285.819 220.548 302.507 218.067 306.095 224.554Z" fill="#1A70BE"></path><path opacity="0.3" d="M308.908 227.929C308.427 227.922 307.95 227.905 307.482 227.878C307.482 227.876 307.483 227.874 307.485 227.873C307.873 227.887 308.352 227.907 308.908 227.929Z" fill="url(#paint8_linear)"></path><path d="M321.991 222.792C322.401 223.901 322.705 225.047 322.899 226.213C320.102 226.834 317.031 227.388 313.997 227.693C314.441 227.29 314.859 226.775 315.232 226.123C316.864 223.292 319.531 222.915 321.991 222.792Z" fill="#1A70BE"></path><path d="M334.16 223.044C334.16 223.044 329.954 224.545 324.336 225.881C324.16 224.808 323.893 223.752 323.539 222.724C325.025 222.644 326.312 222.472 327.083 221.626C328.434 220.134 326.925 218.324 325.531 217.136C328.391 218.282 331.4 220.123 334.16 223.044Z" fill="#1A70BE"></path><path d="M307.349 228.441C307.349 228.441 308.796 223.655 310.546 223.541C312.295 223.427 317.323 222.235 317.665 224.645C318.006 227.054 317.049 228.202 314.529 228.236C312.008 228.269 310.34 228.044 310.34 228.044L309.121 229.235C309.121 229.235 307.193 230.44 307.349 228.441Z" fill="#D95B26"></path><path d="M306.769 228.415C306.769 228.415 308.216 223.628 309.967 223.515C311.718 223.401 316.745 222.208 317.086 224.618C317.428 227.028 316.47 228.176 313.95 228.209C311.43 228.243 309.762 228.017 309.762 228.017L308.541 229.208C308.541 229.208 306.613 230.413 306.769 228.415Z" fill="white"></path><path d="M340.965 184.615L339.283 184.538L337.442 179.136C337.442 179.136 341.254 179.58 340.965 184.615Z" fill="url(#paint9_linear)"></path><path d="M301.273 191.987L312.317 190.456C312.317 190.456 313.7 182.034 308.842 181.005C303.984 179.976 301.056 186.415 301.273 191.987Z" fill="url(#paint10_linear)"></path><path d="M302.269 182.051L302.266 182.051C301.923 182.07 301.603 182.189 301.283 182.367C300.976 182.505 300.607 182.668 300.596 182.897L300.596 182.902C299.387 184.051 298.527 186.237 298.407 188.723C298.249 192.034 299.471 194.773 301.229 195.163L301.226 195.165C301.345 195.188 302.806 195.795 307.515 195.479C307.732 193.47 308.33 182.062 308.33 182.062C308.33 182.062 304.596 181.697 302.269 182.051Z" fill="url(#paint11_linear)"></path><path d="M311.338 188.68C311.164 192.468 309.269 195.526 307.144 195.508C305.059 195.49 303.538 192.508 303.71 188.85C303.882 185.192 305.683 182.149 307.77 182.037C309.897 181.925 311.512 184.896 311.338 188.68Z" fill="#C5DFF8"></path><path d="M309.674 188.691C309.551 191.379 308.281 193.559 306.856 193.56C305.45 193.56 304.423 191.431 304.546 188.806C304.669 186.18 305.896 184.007 307.303 183.945C308.729 183.881 309.798 186.005 309.674 188.691Z" fill="white"></path><path d="M333.3 179.435L333.297 179.435C332.989 179.458 332.691 179.551 332.424 179.705C332.175 179.825 332.233 179.983 331.792 180.16L331.791 180.164C331.023 181.166 330.178 183.045 330.077 185.186C329.941 188.04 330.964 190.396 332.39 190.728L332.406 190.729C332.502 190.749 333.696 191.269 337.517 190.986C337.698 189.254 338.213 179.427 338.213 179.427C338.213 179.427 335.188 179.126 333.3 179.435Z" fill="url(#paint12_linear)"></path><path d="M340.642 185.123C340.492 188.386 338.948 191.025 337.223 191.013C335.533 191.003 334.305 188.438 334.453 185.287C334.601 182.136 336.071 179.511 337.762 179.41C339.489 179.308 340.792 181.863 340.642 185.123Z" fill="#C5DFF8"></path><path d="M339.292 185.136C339.186 187.451 338.15 189.332 336.995 189.336C335.855 189.339 335.026 187.508 335.132 185.247C335.238 182.985 336.239 181.111 337.381 181.054C338.536 180.996 339.399 182.822 339.292 185.136Z" fill="white"></path><path d="M260.987 177.486L260.983 177.486C260.559 177.467 260.225 177.666 259.827 177.839C259.446 177.967 259.191 178.244 259.035 178.484L259.035 178.49C257.389 179.706 256.366 182.247 256.23 185.22C256.048 189.176 257.582 192.514 259.786 193.064L259.764 193.065C259.913 193.098 261.705 193.878 267.336 193.72C267.586 191.432 268.265 178.304 268.265 178.304C268.265 178.304 263.829 177.326 260.987 177.486Z" fill="url(#paint13_linear)"></path><path d="M266.891 193.735C264.419 193.621 262.575 190.074 262.77 185.812C262.966 181.549 265.128 178.186 267.6 178.299C270.071 178.413 271.916 181.96 271.72 186.223C271.524 190.485 269.362 193.848 266.891 193.735Z" fill="#1A70BE"></path><path d="M266.548 191.485C264.881 191.408 263.642 188.876 263.782 185.828C263.922 182.78 265.388 180.371 267.055 180.448C268.723 180.525 269.961 183.057 269.821 186.105C269.681 189.153 268.216 191.562 266.548 191.485Z" fill="url(#paint14_linear)"></path><path d="M342.55 181.71C342.611 182.063 342.586 182.426 342.477 182.768C342.368 183.109 342.178 183.419 341.923 183.671L340.966 184.618C340.851 181.69 339.448 179.378 337.626 179.295C335.631 179.203 333.888 181.821 333.735 185.141C333.698 185.891 333.75 186.643 333.89 187.38L333.484 187.527L311.778 190.531C311.856 190.09 311.985 189.634 312.007 189.166C312.026 188.743 312.052 188.331 312.07 187.927L312.071 187.923C311.507 184.452 309.872 181.754 307.461 181.643C304.765 181.52 302.389 184.687 302.204 188.718C302.154 189.819 302.251 190.868 302.5 191.817L299.255 192.265C299.249 192.29 299.241 192.315 299.231 192.339C299.125 192.444 298.315 193.095 294.512 192.921L252.536 190.993C250.637 190.906 249.295 189.181 249.382 187.278L249.39 187.121C249.423 186.393 249.804 185.744 250.47 185.446C250.47 185.446 249.461 182.057 250.566 178.108C251.008 176.532 251.764 174.866 253.063 173.291C253.885 172.3 254.834 171.421 255.885 170.677C255.885 170.677 260.844 166.927 269.656 166.298C269.656 166.298 277.164 161.341 283.972 158.14C287.31 156.568 290.982 155.838 294.666 156.015L318.965 157.131C323.184 157.324 327.266 158.692 330.752 161.08L336.902 165.288C336.902 165.288 338.372 166.259 339.813 168.491C341.453 171.027 343.055 175.193 342.416 181.405L342.553 181.71L342.55 181.71Z" fill="#F07440"></path><path d="M299.245 192.264C299.241 192.289 299.235 192.314 299.226 192.338C298.925 192.508 298.515 193.393 288.792 192.657L252.536 190.992C250.637 190.905 249.295 189.18 249.383 187.277L249.39 187.12C249.392 187.078 249.335 187.035 249.339 186.993C249.413 186.316 249.811 185.724 250.44 185.444L292.634 187.783C292.634 187.783 296.649 187.24 297.982 188.018C298.168 188.128 298.299 188.262 298.361 188.427C298.874 189.779 299.539 191.657 299.245 192.264Z" fill="#ACD1F5"></path><path d="M260.302 178.642L260.277 179.192C260.267 179.404 260.215 179.611 260.123 179.802C260.031 179.993 259.902 180.163 259.742 180.303C259.583 180.442 259.397 180.548 259.196 180.613C258.995 180.679 258.782 180.703 258.572 180.684L254.066 180.285C252.984 180.19 251.977 179.691 251.245 178.887L250.535 178.108C251.026 176.343 251.882 174.702 253.048 173.291C253.064 173.294 253.08 173.295 253.096 173.298L255.184 175.112C256.29 176.073 257.623 176.733 259.056 177.031C259.421 177.107 259.747 177.311 259.975 177.606C260.204 177.902 260.32 178.269 260.302 178.642Z" fill="white"></path><path d="M280.371 178.931C280.058 179.275 279.549 179.544 279.242 179.53L262.34 178.752C262.033 178.738 261.613 178.426 261.407 178.059C261.202 177.694 261.316 177.415 261.661 177.431L280.306 178.287C280.65 178.303 280.685 178.591 280.371 178.932L280.371 178.931Z" fill="#D95B26"></path><path d="M278.361 181.156C278.029 181.517 277.561 181.803 277.309 181.791L263.572 181.155C263.322 181.144 262.943 180.819 262.725 180.434C262.509 180.051 262.572 179.754 262.86 179.767L278.425 180.485C278.715 180.499 278.689 180.799 278.361 181.156Z" fill="#D95B26"></path><path d="M285.15 182.021C284.122 181.947 283.334 181.162 283.376 180.249L283.402 179.693C283.442 178.825 284.221 178.133 285.199 178.092L287.043 178.016L298.101 175.636L297.798 177.005C297.341 179.072 295.67 180.753 293.417 181.414L291.769 181.897C290.674 182.215 289.53 182.336 288.392 182.254L285.15 182.021Z" fill="white"></path><path d="M297.972 188.062L293.358 189.105L249.273 187.08C249.348 186.36 249.778 185.769 250.405 185.488L292.617 187.827C292.617 187.827 296.639 187.284 297.972 188.062Z" fill="#C5DFF8"></path><path d="M326.821 186.299L326.813 186.299C326.679 186.003 326.559 186.087 326.571 185.941C326.578 185.852 327.246 176.978 327.149 173.361C327.067 170.23 326.568 169.639 326.525 169.595C326.47 169.559 326.43 169.504 326.412 169.441C326.393 169.378 326.398 169.31 326.424 169.25C326.453 169.185 326.506 169.134 326.572 169.109C326.638 169.083 326.711 169.085 326.776 169.113C326.965 169.197 327.587 169.752 327.682 173.313C327.778 176.954 327.107 185.893 327.1 185.981C327.09 186.126 326.964 186.306 326.821 186.299Z" fill="#D95B26"></path><path d="M342.551 181.71L342.417 181.405C343.056 175.193 341.455 171.027 339.815 168.491C338.707 168.504 337.203 168.987 337.199 171.504C337.192 175.479 336.307 177.491 333.214 179.167C331.746 179.96 330.145 180.628 328.828 181.669C327.651 182.601 327.054 184.088 325.859 184.961C323.838 186.436 321.224 185.62 318.959 185.412C316.894 185.221 312.21 184.907 312.071 187.921L312.071 187.927C312.052 188.331 312.027 188.743 312.007 189.166C311.986 189.633 311.852 190.089 311.774 190.53L333.483 187.526L333.89 187.379C333.75 186.642 333.698 185.89 333.735 185.141C333.888 181.82 335.632 179.202 337.626 179.294C339.448 179.378 340.851 181.69 340.967 184.617L341.924 183.67C342.178 183.418 342.368 183.108 342.477 182.767C342.587 182.426 342.612 182.063 342.551 181.71Z" fill="#D95B26"></path><path d="M314.443 158.806C314.443 158.806 311.276 165.94 310.521 166.971C310.45 167.067 310.359 167.21 310.253 167.29C309.236 168.065 306.828 168.155 306.828 168.155L271.505 166.532C279.663 160.828 286.556 157.525 286.556 157.525L314.443 158.806Z" fill="#3693E7"></path><path d="M335.875 165.908C335.875 165.908 332.035 167.279 326.906 168.499C326.745 167.519 326.502 166.555 326.179 165.617C325.483 163.583 324.259 161.183 322.09 159.017C324.116 159.255 326.102 159.758 327.997 160.515C330.608 161.561 333.355 163.241 335.875 165.908Z" fill="#3693E7"></path><path d="M325.594 168.801C323.041 169.368 320.237 169.874 317.467 170.152C315.89 170.309 314.324 170.391 312.821 170.368C312.382 170.361 311.947 170.346 311.519 170.321C311.519 170.319 311.52 170.318 311.522 170.316C311.601 170.037 314.793 159.136 317.299 158.923C318.174 158.851 319.052 158.829 319.929 158.856C322.528 160.97 323.97 163.52 324.765 165.678C325.14 166.69 325.417 167.736 325.594 168.801Z" fill="#3693E7"></path><path d="M310.253 167.287C309.236 168.061 306.828 168.155 306.828 168.155L271.504 166.532C279.663 160.828 286.556 157.525 286.556 157.525L287.056 157.548C287.823 157.873 288.556 158.604 289.189 159.601C291.743 163.629 306.977 161.365 310.253 167.287Z" fill="#1A70BE"></path><path opacity="0.3" d="M312.821 170.368C312.382 170.361 311.947 170.346 311.519 170.322C311.519 170.32 311.52 170.318 311.522 170.316C311.877 170.33 312.314 170.348 312.821 170.368Z" fill="url(#paint15_linear)"></path><path d="M324.765 165.678C325.14 166.69 325.417 167.736 325.594 168.802C323.041 169.368 320.237 169.874 317.467 170.152C317.873 169.784 318.254 169.314 318.595 168.719C320.084 166.135 322.519 165.791 324.765 165.678Z" fill="#1A70BE"></path><path d="M335.875 165.908C335.875 165.908 332.035 167.278 326.906 168.498C326.745 167.519 326.502 166.555 326.179 165.616C327.534 165.543 328.71 165.386 329.413 164.613C330.647 163.252 329.27 161.599 327.997 160.515C330.608 161.561 333.354 163.241 335.875 165.908Z" fill="#1A70BE"></path><path d="M311.398 170.835C311.398 170.835 312.719 166.466 314.316 166.362C315.914 166.258 320.504 165.169 320.816 167.369C321.128 169.569 320.253 170.617 317.952 170.648C315.652 170.678 314.129 170.472 314.129 170.472L313.016 171.56C313.016 171.56 311.256 172.66 311.398 170.835Z" fill="#D95B26"></path><path d="M310.868 170.811C310.868 170.811 312.19 166.442 313.788 166.338C315.386 166.234 319.976 165.145 320.287 167.345C320.599 169.545 319.725 170.593 317.424 170.624C315.123 170.654 313.6 170.448 313.6 170.448L312.486 171.535C312.486 171.535 310.726 172.636 310.868 170.811Z" fill="white"></path><path d="M88.9067 333.159C88.3471 333.13 87.8104 332.928 87.3704 332.581C86.9305 332.234 86.6091 331.759 86.4504 331.221C86.354 330.888 86.3254 330.539 86.3662 330.195C86.407 329.851 86.5165 329.518 86.6881 329.217C86.8597 328.916 87.09 328.652 87.3654 328.441C87.6408 328.23 87.9556 328.077 88.2913 327.99C93.6307 326.56 98.9715 325.107 104.166 323.672C104.855 323.481 105.591 323.565 106.219 323.907C106.847 324.249 107.318 324.821 107.532 325.503C107.633 325.838 107.665 326.19 107.626 326.538C107.588 326.885 107.48 327.222 107.308 327.527C107.137 327.832 106.906 328.099 106.629 328.313C106.352 328.527 106.035 328.682 105.697 328.771C100.477 330.201 95.1093 331.648 89.7443 333.071C89.4715 333.144 89.1888 333.174 88.9067 333.159Z" fill="white"></path><path d="M143.011 317.977C142.442 317.955 141.892 317.763 141.433 317.426C140.974 317.089 140.627 316.621 140.436 316.085C139.958 314.67 140.763 313.166 142.235 312.725C155.028 308.899 167.805 304.932 181.297 300.593C182.808 300.105 184.474 300.862 185.014 302.292C185.554 303.722 184.765 305.27 183.248 305.754C169.682 310.084 156.838 314.042 143.972 317.859C143.66 317.951 143.335 317.991 143.011 317.977ZM222.418 292.664C221.229 292.625 220.118 291.938 219.668 290.85C219.076 289.417 219.851 287.831 221.403 287.305C223.338 286.648 225.287 285.984 227.249 285.314C238.799 281.366 249.35 277.067 261.464 271.363C262.982 270.648 264.872 271.18 265.687 272.553C266.502 273.927 265.927 275.622 264.405 276.336C252.029 282.133 241.243 286.501 229.429 290.509C227.454 291.179 225.496 291.841 223.556 292.497C223.19 292.621 222.805 292.679 222.418 292.668V292.664Z" fill="white"></path><g filter="url(#filter0_d)"><path d="M387.538 240.504L387.594 253.161C387.594 254.336 386.786 255.382 385.709 255.584L254.98 278.999L235.823 293.365L206.754 259.974L387.538 240.504Z" fill="#0F5FA7"></path></g><g filter="url(#filter1_d)"><path d="M379.5 185L379.557 197.656C379.557 198.832 378.749 199.878 377.671 200.08L254.98 206.45L235.823 220.817L206.754 187.425L379.5 185Z" fill="#0F5FA7"></path></g><path d="M289.668 265.558L289.928 277.619C289.933 278.117 289.77 278.602 289.467 278.997C289.163 279.392 288.736 279.674 288.254 279.797L254.769 288.183L255.221 268.225L287.445 263.665C287.719 263.622 287.998 263.64 288.265 263.715C288.531 263.791 288.779 263.923 288.99 264.103C289.201 264.282 289.37 264.505 289.487 264.756C289.604 265.007 289.666 265.281 289.668 265.558Z" fill="#1A70BE"></path><path d="M375.355 247.204C375.453 247.198 375.552 247.198 375.65 247.204L377.19 247.07V247.801C378.688 248.951 379.735 251.615 379.749 254.791C379.769 258.09 378.672 261 377.099 262.302V262.887L375.464 263.022C373.056 263.219 371.073 259.832 371.04 255.452C371.008 251.072 372.942 247.373 375.355 247.204Z" fill="url(#paint16_linear)"></path><path d="M372.882 255.318C372.913 259.691 374.89 263.073 377.291 262.878C379.692 262.683 381.601 259.007 381.572 254.665C381.544 250.323 379.589 246.913 377.19 247.08C374.792 247.247 372.851 250.937 372.882 255.318Z" fill="url(#paint17_linear)"></path><path d="M375.407 255.127C375.425 257.58 376.532 259.481 377.879 259.376C379.225 259.271 380.303 257.203 380.285 254.758C380.268 252.313 379.17 250.405 377.823 250.502C376.477 250.599 375.389 252.671 375.407 255.127Z" fill="#D8DEE8"></path><path d="M375.407 255.127C375.424 257.405 376.364 259.177 377.508 259.086C378.653 258.996 379.563 257.084 379.55 254.814C379.536 252.544 378.599 250.764 377.456 250.846C376.312 250.928 375.389 252.847 375.407 255.127Z" fill="url(#paint18_linear)"></path><path d="M364.975 248.828C365.084 248.822 365.193 248.822 365.302 248.828L367.017 248.685V249.493C368.684 250.76 369.854 253.698 369.881 257.201C369.908 260.837 368.696 264.048 366.948 265.489V266.134L365.13 266.284C362.454 266.508 360.24 262.784 360.194 257.945C360.149 253.106 362.291 249.018 364.975 248.828Z" fill="url(#paint19_linear)"></path><path d="M362.24 257.785C362.283 262.61 364.489 266.336 367.158 266.114C369.827 265.891 371.934 261.836 371.899 257.043C371.864 252.249 369.683 248.497 367.016 248.686C364.35 248.874 362.191 252.951 362.24 257.785Z" fill="url(#paint20_linear)"></path><path d="M365.049 257.571C365.072 260.278 366.307 262.371 367.804 262.252C369.302 262.132 370.497 259.851 370.471 257.155C370.444 254.46 369.224 252.355 367.726 252.465C366.229 252.574 365.026 254.86 365.049 257.571Z" fill="#D8DEE8"></path><path d="M365.049 257.572C365.071 260.084 366.126 262.036 367.392 261.935C368.658 261.834 369.672 259.722 369.653 257.223C369.634 254.724 368.589 252.758 367.318 252.852C366.047 252.947 365.027 255.054 365.049 257.572Z" fill="url(#paint21_linear)"></path><path d="M353.714 249.628C353.835 249.621 353.957 249.621 354.078 249.628L355.979 249.47V250.358C357.831 251.748 359.135 254.98 359.171 258.84C359.209 262.84 357.871 266.38 355.939 267.961V268.67L353.919 268.84C350.95 269.09 348.485 264.989 348.425 259.672C348.364 254.355 350.734 249.831 353.714 249.628Z" fill="url(#paint22_linear)"></path><path d="M350.697 259.481C350.756 264.79 353.211 268.884 356.171 268.637C359.131 268.389 361.459 263.924 361.412 258.653C361.365 253.382 358.937 249.255 355.979 249.464C353.022 249.672 350.639 254.161 350.697 259.481Z" fill="url(#paint23_linear)"></path><path d="M353.814 259.24C353.845 262.217 355.22 264.519 356.88 264.385C358.541 264.25 359.855 261.74 359.827 258.774C359.798 255.808 358.434 253.496 356.774 253.619C355.114 253.741 353.783 256.259 353.814 259.24Z" fill="#D8DEE8"></path><path d="M353.814 259.24C353.844 262.004 355.012 264.151 356.422 264.036C357.832 263.922 358.947 261.599 358.92 258.844C358.894 256.089 357.733 253.934 356.323 254.039C354.913 254.144 353.786 256.472 353.814 259.24Z" fill="url(#paint24_linear)"></path><path d="M299.438 258.664C299.604 258.654 299.771 258.654 299.938 258.664L302.554 258.438L302.561 259.61C305.12 261.433 306.954 265.689 307.048 270.777C307.145 276.057 305.348 280.741 302.708 282.859V283.801L299.935 284.056C295.849 284.43 292.394 279.043 292.251 272.008C292.108 264.973 295.327 258.968 299.438 258.664Z" fill="url(#paint25_linear)"></path><path d="M295.398 271.739C295.542 278.759 298.973 284.136 303.042 283.763C307.082 283.392 310.25 277.471 310.125 270.519C310 263.568 306.624 258.132 302.554 258.434C298.459 258.737 295.246 264.708 295.398 271.739Z" fill="#1A70BE"></path><path d="M299.683 271.383C299.761 275.318 301.68 278.342 303.961 278.141C306.243 277.94 308.017 274.612 307.945 270.699C307.872 266.787 305.971 263.744 303.691 263.921C301.411 264.099 299.605 267.442 299.683 271.383Z" fill="#D8DEE8"></path><path d="M299.683 271.384C299.756 275.036 301.389 277.857 303.327 277.688C305.265 277.518 306.769 274.439 306.694 270.802C306.618 267.165 305.005 264.33 303.067 264.474C301.129 264.618 299.61 267.725 299.683 271.384Z" fill="url(#paint26_linear)"></path><path d="M248.424 264.529C248.652 264.513 248.88 264.51 249.109 264.519L252.685 264.207L252.708 265.755C256.23 268.145 258.768 273.744 258.95 280.445C259.137 287.394 256.733 293.574 253.151 296.401L253.169 297.635L249.383 298.005C243.795 298.552 239.006 291.488 238.723 282.198C238.435 272.877 242.799 264.953 248.424 264.529Z" fill="url(#paint27_linear)"></path><path d="M243.03 281.824C243.299 291.088 248.061 298.134 253.617 297.59C259.138 297.052 263.38 289.225 263.14 280.087C262.901 270.913 258.236 263.795 252.685 264.212C247.094 264.628 242.754 272.529 243.03 281.824Z" fill="#1A70BE"></path><path d="M248.905 281.314C249.053 286.504 251.709 290.47 254.83 290.178C257.952 289.886 260.326 285.488 260.189 280.338C260.051 275.188 257.425 271.191 254.312 271.44C251.199 271.689 248.756 276.117 248.905 281.314Z" fill="#D8DEE8"></path><path d="M248.905 281.315C249.04 286.132 251.306 289.833 253.952 289.588C256.599 289.343 258.616 285.272 258.486 280.485C258.357 275.699 256.114 271.969 253.469 272.183C250.824 272.397 248.766 276.489 248.905 281.315Z" fill="url(#paint28_linear)"></path><path d="M148.726 229.768L153.8 215.806L153.288 204.24L147.215 203.199C146.625 203.098 146.225 202.563 146.336 202.019C147.033 198.578 149.675 187.159 154.648 183.304C158.163 180.582 228.075 178.664 228.075 178.664L262.031 180.194C264.703 180.315 266.834 182.358 266.903 184.861L268.806 253.916C268.856 255.692 267.418 257.188 265.497 257.363L242.783 259.424L238.435 263.645C238.435 263.645 174.638 269.016 148.993 265.017C147.665 264.81 146.643 263.772 146.569 262.539L144.709 232.867C144.44 228.516 148.726 229.768 148.726 229.768Z" fill="#3693E7"></path><path d="M218.842 233.026C218.842 233.026 218.311 203.079 217.08 190.614C216.481 184.537 219.584 180.928 222.943 178.816C226.154 178.717 228.075 178.663 228.075 178.663L262.031 180.192C264.703 180.314 266.835 182.356 266.903 184.859L268.806 253.915C268.856 255.691 267.418 257.187 265.497 257.362L242.783 259.423L238.435 263.645C238.435 263.645 227.883 264.535 213.646 265.32L212.561 240.293L218.842 233.026Z" fill="#1A70BE"></path><path d="M147.77 270.228L150.23 269.392L149.941 264.696C149.862 263.427 150.914 262.386 152.289 262.372L231.515 261.526C233.436 261.505 235.047 262.918 235.113 264.681L236.157 292.704C236.213 294.232 234.864 295.465 233.185 295.421L149.003 293.195C147.426 293.154 146.109 291.984 146.018 290.54L144.986 274.191C144.874 272.425 145.989 270.835 147.77 270.228Z" fill="#F07440"></path><path d="M155.909 245.887L203.033 245.334C204.625 245.315 205.939 246.546 205.895 248.016L204.857 281.976C204.805 283.664 203.3 284.967 201.451 284.927L161.341 284.056C159.591 284.018 158.1 282.778 157.878 281.183L153.352 248.631C153.15 247.168 154.324 245.906 155.909 245.887Z" fill="#1A70BE"></path><path d="M147.77 270.228L150.23 269.392L149.941 264.696C149.879 263.694 150.524 262.836 151.476 262.512L157.509 283.162C158.222 285.606 160.636 287.365 163.369 287.438L200.133 288.412C202.775 288.482 205.1 286.965 205.861 284.677L213.484 261.719L231.508 261.526C233.43 261.505 235.04 262.918 235.106 264.681L236.15 292.704C236.206 294.232 234.857 295.465 233.178 295.421L148.997 293.195C147.421 293.154 146.103 291.984 146.011 290.54L144.979 274.191C144.874 272.425 145.991 270.835 147.77 270.228Z" fill="#D95B26"></path><path d="M210.623 286.436L219.412 286.757C224.873 286.956 229.414 283.164 229.67 278.177L229.872 274.252L212.231 274.427C211.046 274.438 210.125 275.328 210.172 276.413L210.623 286.436Z" fill="#FFCBB6"></path><path d="M153.64 276.659L155.559 285.353C155.559 285.353 146.362 285.143 145.923 274.499L151.671 275.02C152.638 275.108 153.447 275.782 153.64 276.659Z" fill="#FFCBB6"></path><path d="M153.288 204.24L217.912 203.311L221.515 202.674C223.389 202.343 225.168 203.675 225.239 205.464L226.027 225.457C226.052 226.206 225.889 226.949 225.552 227.618C225.215 228.288 224.715 228.862 224.099 229.289L220.525 231.825C219.401 232.613 218.059 233.03 216.687 233.017L149.549 232.748L148.723 229.764L153.288 204.24Z" fill="#BDDCFA"></path><path d="M193.053 196.667L198.575 196.585C199.409 196.573 200.116 197.198 200.153 197.981L200.254 200.148C200.29 200.93 199.642 201.574 198.807 201.586L193.3 201.665C192.465 201.677 191.759 201.054 191.72 200.273L191.615 198.107C191.572 197.324 192.222 196.679 193.053 196.667Z" fill="#1A70BE"></path><path d="M160.751 197.148L166.244 197.066C167.077 197.054 167.786 197.677 167.829 198.459L167.949 200.614C167.992 201.395 167.354 202.037 166.523 202.049L161.037 202.128C160.206 202.141 159.498 201.519 159.452 200.739L159.327 198.585C159.282 197.804 159.926 197.16 160.751 197.148Z" fill="#1A70BE"></path><path d="M174.215 218.165C190.526 212.003 206.535 219.19 213.365 211.016C215.219 208.799 215.89 206.057 215.958 203.342L217.912 203.315L221.515 202.678C223.389 202.347 225.168 203.68 225.239 205.468L226.027 225.462C226.052 226.211 225.888 226.954 225.551 227.623C225.214 228.292 224.715 228.866 224.099 229.293L220.525 231.825C219.401 232.613 218.059 233.03 216.687 233.017L155.847 232.776C162.204 224.078 168.97 220.141 174.215 218.165Z" fill="#95C0EA"></path><path d="M149.38 232.943L148.522 229.764L153.337 204.501H153.536L217.662 203.06L221.199 202.415C221.412 202.377 221.628 202.358 221.844 202.357C223.625 202.357 225.148 203.69 225.241 205.328L226.349 224.93C226.387 225.712 226.225 226.491 225.879 227.194C225.533 227.896 225.014 228.499 224.371 228.945L220.821 231.487C219.654 232.306 218.262 232.745 216.836 232.742L149.38 232.943ZM149.027 229.745L149.757 232.449L216.835 232.244C218.158 232.246 219.45 231.841 220.534 231.082L224.084 228.54C224.659 228.141 225.124 227.602 225.434 226.975C225.744 226.347 225.89 225.651 225.857 224.952L224.749 205.351C224.671 203.969 223.367 202.845 221.844 202.845C221.657 202.845 221.471 202.862 221.287 202.895L217.712 203.544L153.746 204.984L149.027 229.745Z" fill="#1A70BE"></path><path d="M330.622 203.214L314.674 175.709C314.578 175.544 314.431 175.413 314.256 175.337C314.08 175.262 313.885 175.244 313.699 175.287L291.386 180.501C291.247 180.533 291.118 180.597 291.009 180.69C290.9 180.782 290.815 180.899 290.761 181.031C290.707 181.163 290.685 181.306 290.698 181.448C290.71 181.59 290.756 181.727 290.833 181.847L309.338 211.434C309.447 211.606 309.611 211.737 309.804 211.804C309.997 211.87 310.206 211.869 310.398 211.8L330.009 204.718L330.622 203.214Z" fill="#1A70BE"></path><path d="M326.699 200.093L313.786 177.821C313.708 177.688 313.59 177.582 313.447 177.521C313.305 177.46 313.147 177.446 312.996 177.481L294.929 181.702C294.818 181.728 294.714 181.781 294.626 181.855C294.538 181.93 294.47 182.024 294.426 182.13C294.382 182.236 294.364 182.351 294.374 182.466C294.384 182.58 294.42 182.691 294.481 182.788L309.466 206.744C309.554 206.884 309.687 206.99 309.843 207.044C309.999 207.098 310.169 207.097 310.324 207.04L326.203 201.307L326.699 200.093Z" fill="white"></path><path d="M309.975 178.077L308.949 176.29C308.88 176.17 308.774 176.074 308.646 176.018C308.519 175.962 308.377 175.948 308.241 175.978L298.949 178.068C298.849 178.09 298.755 178.136 298.676 178.202C298.597 178.268 298.535 178.351 298.494 178.445C298.453 178.54 298.435 178.642 298.441 178.745C298.448 178.848 298.478 178.947 298.53 179.036L299.67 180.977C299.741 181.099 299.849 181.194 299.979 181.249C300.108 181.303 300.252 181.315 300.389 181.282L309.566 179.036C309.664 179.011 309.755 178.965 309.832 178.899C309.909 178.834 309.97 178.751 310.009 178.658C310.049 178.565 310.067 178.465 310.061 178.364C310.055 178.263 310.026 178.165 309.975 178.077Z" fill="#3693E7"></path><path d="M297.803 185.736C297.817 185.734 297.831 185.731 297.845 185.728L314.207 181.868C314.303 181.844 314.387 181.784 314.44 181.699C314.492 181.614 314.509 181.512 314.487 181.415C314.462 181.319 314.401 181.235 314.317 181.183C314.232 181.131 314.13 181.113 314.033 181.135L297.673 184.999C297.579 185.022 297.498 185.08 297.446 185.16C297.393 185.241 297.374 185.339 297.391 185.433C297.408 185.528 297.461 185.612 297.538 185.669C297.615 185.726 297.712 185.751 297.807 185.74L297.803 185.736Z" fill="#D8DEE8"></path><path d="M298.829 187.321L298.875 187.312L315.136 183.3C315.233 183.276 315.317 183.215 315.368 183.129C315.42 183.043 315.436 182.941 315.412 182.844C315.388 182.746 315.326 182.663 315.241 182.611C315.155 182.559 315.053 182.544 314.955 182.568L298.695 186.581C298.603 186.606 298.525 186.664 298.474 186.744C298.424 186.824 298.405 186.92 298.422 187.013C298.439 187.106 298.49 187.189 298.566 187.246C298.641 187.303 298.735 187.33 298.829 187.321Z" fill="#D8DEE8"></path><path d="M307.406 189.086L307.463 189.073L316.303 186.635C316.353 186.624 316.401 186.603 316.442 186.573C316.484 186.543 316.519 186.505 316.545 186.461C316.572 186.418 316.589 186.369 316.596 186.318C316.603 186.267 316.599 186.216 316.586 186.166C316.572 186.117 316.548 186.071 316.516 186.031C316.484 185.991 316.445 185.958 316.399 185.934C316.354 185.91 316.305 185.895 316.254 185.891C316.203 185.887 316.151 185.893 316.103 185.909L307.262 188.348C307.17 188.373 307.092 188.432 307.042 188.513C306.992 188.593 306.974 188.69 306.992 188.783C307.011 188.877 307.063 188.959 307.14 189.016C307.217 189.072 307.312 189.097 307.406 189.086Z" fill="#D8DEE8"></path><path d="M309.303 192.278L309.36 192.266L318.201 189.828C318.251 189.817 318.298 189.796 318.34 189.766C318.381 189.736 318.416 189.698 318.443 189.654C318.469 189.61 318.486 189.561 318.493 189.511C318.5 189.46 318.497 189.408 318.483 189.359C318.469 189.31 318.446 189.264 318.414 189.224C318.382 189.184 318.342 189.151 318.297 189.127C318.252 189.103 318.202 189.088 318.151 189.084C318.1 189.08 318.049 189.086 318 189.102L309.159 191.54C309.068 191.566 308.989 191.625 308.939 191.705C308.889 191.786 308.871 191.883 308.89 191.976C308.908 192.069 308.961 192.152 309.037 192.208C309.114 192.264 309.209 192.289 309.303 192.278Z" fill="#D8DEE8"></path><path d="M311.296 195.462C311.316 195.46 311.334 195.456 311.353 195.45L320.194 193.012C320.244 193.001 320.291 192.98 320.333 192.95C320.374 192.92 320.409 192.882 320.436 192.838C320.462 192.794 320.479 192.746 320.486 192.695C320.493 192.644 320.49 192.592 320.476 192.543C320.462 192.494 320.439 192.448 320.407 192.408C320.375 192.368 320.335 192.335 320.29 192.311C320.245 192.287 320.195 192.272 320.144 192.268C320.093 192.264 320.042 192.27 319.993 192.286L311.154 194.724C311.062 194.75 310.983 194.809 310.934 194.889C310.884 194.97 310.866 195.067 310.884 195.16C310.902 195.253 310.955 195.336 311.032 195.392C311.108 195.448 311.203 195.473 311.298 195.462H311.296Z" fill="#D8DEE8"></path><path d="M303.65 198.986C303.65 198.986 301.939 195.779 300.91 195.841C299.881 195.903 299.142 195.129 299.142 195.129C299.142 195.129 297.273 190.82 296.852 191.462C296.432 192.104 295.65 200.349 300.82 202.317C305.989 204.286 303.65 198.986 303.65 198.986Z" fill="url(#paint29_linear)"></path><path d="M390.095 172.16C391.166 172.564 407.493 179.056 410.848 196.094C411.118 197.47 413.742 212.108 403.814 222.449C392.681 234.044 371.244 233.759 362.741 224.064C360.757 221.804 359.71 219.298 359.124 217.198L361.366 211.241C364.101 207.94 367.83 207.157 369.815 206.663C374.719 205.451 378.423 207.638 381.23 205.274C382.784 203.966 383.093 202.083 383.369 200.401C384.311 194.672 381.079 191.146 380.838 187.61C380.663 184.97 379.738 179.183 383.186 175.409C385.363 173.016 388.386 172.37 390.095 172.16Z" fill="#D95B26"></path><path d="M396.457 362.034C396.648 360.986 400.035 360.036 401.709 361.441C402.541 362.138 403.115 363.552 402.633 364.191C402.458 364.423 403.171 364.832 402.487 364.84C400.21 364.866 396.262 363.077 396.457 362.034Z" fill="#1A70BE"></path><path d="M400.008 362.416L403.492 361.924C401.876 359.98 402.176 353.793 402.176 353.793L398.471 354.62C398.471 354.62 398.893 356.318 399.612 358.823C399.857 359.681 399.968 361.023 400.008 362.416Z" fill="#F07440"></path><path d="M399.698 361.987C399.698 361.987 403.893 361.02 404.347 361.853C404.801 362.685 405.155 364.912 402.491 364.84C399.827 364.769 399.463 362.693 399.698 361.987Z" fill="#1A70BE"></path><path d="M348.652 365.968C348.988 364.955 352.474 364.486 353.939 366.116C354.667 366.924 355.036 368.405 354.47 368.967C354.264 369.173 354.917 369.678 354.234 369.589C351.972 369.297 348.321 366.973 348.652 365.968Z" fill="#1A70BE"></path><path d="M352.115 366.842H355.633C354.307 364.688 355.469 358.607 355.469 358.607L351.685 358.908C351.685 358.908 351.864 360.647 352.224 363.228C352.349 364.113 352.269 365.457 352.115 366.842Z" fill="#F07440"></path><path d="M342.995 233.802C340.525 241.968 338.701 250.315 337.54 258.767C333.266 289.852 342.349 290.843 340.653 325.289C340.115 336.284 350.179 361.643 351.067 362.197C351.529 362.245 351.994 362.264 352.459 362.253C353.662 362.21 354.855 362.011 356.006 361.661C357.601 361.392 363.351 345.814 362.019 336.555C361.076 330.002 361.346 322.969 361.895 308.903C361.984 306.623 367.82 264.561 367.82 264.561C369.594 280.13 371.634 293.36 373.404 303.616C379.086 336.568 397.564 356.513 398.526 356.833C398.718 356.91 400.451 357.54 401.869 356.606C402.234 356.373 402.527 356.043 402.715 355.652C403.209 355.266 402.569 322.754 396.933 298.285C388.753 262.77 392.314 254.46 389.723 238.596C387.476 224.87 342.995 233.802 342.995 233.802Z" fill="#1A70BE"></path><path d="M376.036 169.389C370.605 169.229 358.126 167.311 351.247 173.498C351.127 173.604 352.536 174.357 351.842 175.17C350.008 177.333 348.383 179.665 346.988 182.134C345.537 184.721 344.229 187.734 342.907 192.232C341.229 197.974 340.15 203.873 339.686 209.837C338.43 226.364 339.676 233.989 340.807 239.174C345.717 241.696 358.371 246.208 373.447 243.966C379.135 243.111 384.637 241.299 389.719 238.607C385.807 226.759 388.876 220.431 390.324 214.586C392.389 206.257 392.422 206.887 394.122 200.27C396.927 189.354 397.387 178.198 395.46 175.915C390.264 169.754 380.899 169.531 376.036 169.389Z" fill="#F07440"></path><path d="M351.868 366.374C351.868 366.374 356.157 366.004 356.49 366.891C356.822 367.778 356.86 370.034 354.234 369.584C351.608 369.134 351.535 367.036 351.868 366.374Z" fill="#1A70BE"></path><path d="M360.612 163.444C358.929 160.601 359.82 157.07 359.988 156.367C360.695 153.429 360.959 152.982 361.505 152.362L362.276 151.546C362.276 151.546 362.324 151.509 362.375 151.474C362.913 151.106 364.914 150.506 365.347 150.485C366.728 150.415 369.539 155.368 371.149 163C371.284 163.269 371.409 163.548 371.537 163.827C372.336 165.558 373.019 167.261 373.608 168.921C382.943 169.71 384.24 170.806 384.28 171.438C384.368 172.77 379.05 174.307 375.049 174.893C366.326 176.171 357.357 173.87 357.399 172.243C357.416 171.535 359.149 170.613 366.547 169.643C366.373 168.421 366.2 167.197 366.027 165.973C365.423 165.839 361.851 165.539 360.612 163.444Z" fill="url(#paint30_linear)"></path><path d="M358.997 150.127C359.626 152.456 361.39 154.653 362.056 154.905C362.455 155.077 362.823 155.312 363.146 155.603C363.226 155.673 363.295 155.754 363.354 155.842C364.256 157.175 362.38 159.527 363.006 160.066C363.461 160.455 364.879 159.393 365.177 159.756C365.459 160.096 364.353 161.251 364.679 161.662C364.925 161.973 365.652 161.434 366.307 161.835C366.634 162.035 366.615 162.267 367.104 163.013C367.358 163.409 367.649 163.78 367.971 164.121C369.142 165.275 371.558 165.168 371.851 164.503C371.932 164.317 371.793 164.217 371.781 163.67C371.786 163.284 371.845 162.899 371.955 162.529C372.217 161.618 373.209 160.753 374.138 159.618C375.859 157.517 376.089 156.056 376.146 155.568C376.164 155.394 376.171 155.265 376.177 155.172C376.272 153.306 375.602 150.781 374.415 149.435C372.426 147.178 369.836 149.191 366.758 147.252C363.207 145.014 363.766 140.512 362.15 140.462C360.368 140.41 357.834 145.818 358.997 150.127Z" fill="#1A70BE"></path><path d="M363.698 159.297C364.061 158.355 365.262 158.829 365.539 159.844C365.817 160.859 365.112 162.177 364.104 162.231C363.095 162.285 363.211 160.559 363.698 159.297Z" fill="url(#paint31_linear)"></path><path d="M387.989 231.066C387.96 231.066 387.933 231.056 387.911 231.036C387.89 231.017 387.876 230.991 387.873 230.962C387.224 225.131 388.429 220.907 389.489 217.18C389.749 216.27 389.994 215.411 390.208 214.551C391.381 209.819 391.894 207.991 392.438 206.057C392.791 204.8 393.156 203.499 393.723 201.329C393.726 201.313 393.732 201.298 393.741 201.285C393.751 201.272 393.762 201.261 393.776 201.252C393.789 201.244 393.804 201.238 393.82 201.235C393.836 201.233 393.852 201.234 393.868 201.238C393.883 201.242 393.898 201.249 393.91 201.259C393.923 201.269 393.933 201.281 393.941 201.295C393.949 201.309 393.953 201.325 393.955 201.341C393.956 201.357 393.954 201.373 393.949 201.388C393.382 203.561 393.017 204.862 392.663 206.121C392.125 208.053 391.607 209.878 390.436 214.603C390.222 215.466 389.975 216.328 389.715 217.241C388.658 220.946 387.46 225.147 388.099 230.933C388.102 230.948 388.101 230.964 388.097 230.98C388.093 230.995 388.086 231.009 388.076 231.022C388.066 231.034 388.054 231.045 388.041 231.053C388.027 231.06 388.012 231.065 387.996 231.067L387.989 231.066Z" fill="#9B305E"></path><path d="M363.709 157.473L362.843 159.552C362.843 159.552 362.241 161.556 360.834 161.111C359.866 160.804 359.613 160.019 359.603 159.581C359.305 160.452 359.159 161.367 359.171 162.287C359.171 163.439 359.171 164.671 360.072 165.613C360.123 165.668 361.105 166.666 362.427 166.618C362.427 166.618 362.947 166.599 364.921 165.683C364.921 165.683 362.22 164.644 362.081 164.263C361.704 163.226 363.024 162.261 363.535 159.794C363.693 159.031 363.752 158.251 363.709 157.473Z" fill="#1A70BE"></path><path d="M303.715 198.314C301.752 199.689 300.697 201.555 300.152 202.747C301.595 206.136 304.865 212.428 311.649 217.065C322.763 224.668 339.06 224.924 350.411 216.257C363.973 205.897 366.238 186.032 360.542 177.525C359.887 176.547 357.731 173.326 354.384 172.957C352.271 172.724 349.394 173.595 344.849 178.916C335.379 190.003 338.724 196.925 333.134 200.168C324.739 205.029 312.27 192.329 303.715 198.314Z" fill="#D95B26"></path><path opacity="0.4" d="M341.892 220.906C341.865 220.906 341.839 220.897 341.819 220.88C341.798 220.863 341.783 220.839 341.778 220.813C341.772 220.783 341.778 220.752 341.795 220.727C341.812 220.702 341.838 220.684 341.868 220.678C342.003 220.649 355.162 217.619 361.089 201.27C361.099 201.24 361.121 201.216 361.149 201.203C361.177 201.19 361.209 201.188 361.239 201.199C361.268 201.209 361.292 201.231 361.305 201.259C361.318 201.287 361.32 201.32 361.309 201.349C358.189 209.957 353.085 214.813 349.354 217.371C345.307 220.148 341.947 220.898 341.916 220.904L341.892 220.906Z" fill="#9B305E"></path><defs><filter id="filter0_d" x="202.754" y="240.504" width="188.841" height="60.8608" color-interpolation-filters="sRGB"><feFlood flood-opacity="0" result="BackgroundImageFix"></feFlood><feColorMatrix in="SourceAlpha" type="matrix" values="0 0 0 0 0 0 0 0 0 0 0 0 0 0 0 0 0 0 127 0" result="hardAlpha"></feColorMatrix><feOffset dy="4"></feOffset><feGaussianBlur stdDeviation="2"></feGaussianBlur><feColorMatrix type="matrix" values="0 0 0 0 0 0 0 0 0 0 0 0 0 0 0 0 0 0 0.25 0"></feColorMatrix><feBlend mode="normal" in2="BackgroundImageFix" result="effect1_dropShadow"></feBlend><feBlend mode="normal" in="SourceGraphic" in2="effect1_dropShadow" result="shape"></feBlend></filter><filter id="filter1_d" x="202.754" y="185" width="180.803" height="43.8168" color-interpolation-filters="sRGB"><feFlood flood-opacity="0" result="BackgroundImageFix"></feFlood><feColorMatrix in="SourceAlpha" type="matrix" values="0 0 0 0 0 0 0 0 0 0 0 0 0 0 0 0 0 0 127 0" result="hardAlpha"></feColorMatrix><feOffset dy="4"></feOffset><feGaussianBlur stdDeviation="2"></feGaussianBlur><feColorMatrix type="matrix" values="0 0 0 0 0 0 0 0 0 0 0 0 0 0 0 0 0 0 0.25 0"></feColorMatrix><feBlend mode="normal" in2="BackgroundImageFix" result="effect1_dropShadow"></feBlend><feBlend mode="normal" in="SourceGraphic" in2="effect1_dropShadow" result="shape"></feBlend></filter><linearGradient id="paint0_linear" x1="91.9201" y1="263.759" x2="91.9201" y2="8.66839" gradientUnits="userSpaceOnUse"><stop stop-color="#3693E7"></stop><stop offset="1" stop-color="#1A70BE"></stop></linearGradient><linearGradient id="paint1_linear" x1="54.5531" y1="345.783" x2="54.5531" y2="216.277" gradientUnits="userSpaceOnUse"><stop stop-color="#3693E7"></stop><stop offset="1" stop-color="#1A70BE"></stop></linearGradient><linearGradient id="paint2_linear" x1="335.137" y1="242.94" x2="337.674" y2="240.662" gradientUnits="userSpaceOnUse"><stop stop-color="#FF9085"></stop><stop offset="1" stop-color="#FB6FBB"></stop></linearGradient><linearGradient id="paint3_linear" x1="-58221.4" y1="31586.6" x2="-61314.9" y2="28327" gradientUnits="userSpaceOnUse"><stop stop-color="#FF9085"></stop><stop offset="1" stop-color="#FB6FBB"></stop></linearGradient><linearGradient id="paint4_linear" x1="303.645" y1="248.197" x2="293.134" y2="247.714" gradientUnits="userSpaceOnUse"><stop stop-color="#328CDE"></stop><stop offset="1" stop-color="#1361A7"></stop></linearGradient><linearGradient id="paint5_linear" x1="336.427" y1="244.278" x2="327.822" y2="243.883" gradientUnits="userSpaceOnUse"><stop stop-color="#328CDE"></stop><stop offset="1" stop-color="#1361A7"></stop></linearGradient><linearGradient id="paint6_linear" x1="259.725" y1="244.842" x2="246.917" y2="244.254" gradientUnits="userSpaceOnUse"><stop stop-color="#328CDE"></stop><stop offset="1" stop-color="#1361A7"></stop></linearGradient><linearGradient id="paint7_linear" x1="-26270.5" y1="28924" x2="-27336" y2="28875.1" gradientUnits="userSpaceOnUse"><stop stop-color="#444B8C"></stop><stop offset="1" stop-color="#3E4177"></stop></linearGradient><linearGradient id="paint8_linear" x1="-6910.84" y1="-70.212" x2="-6910.82" y2="-70.8036" gradientUnits="userSpaceOnUse"><stop stop-color="#444B8C"></stop><stop offset="1" stop-color="#3E4177"></stop></linearGradient><linearGradient id="paint9_linear" x1="336.767" y1="184.071" x2="339.083" y2="181.992" gradientUnits="userSpaceOnUse"><stop stop-color="#FF9085"></stop><stop offset="1" stop-color="#FB6FBB"></stop></linearGradient><linearGradient id="paint10_linear" x1="-53121.3" y1="28798.6" x2="-55945.5" y2="25822.9" gradientUnits="userSpaceOnUse"><stop stop-color="#FF9085"></stop><stop offset="1" stop-color="#FB6FBB"></stop></linearGradient><linearGradient id="paint11_linear" x1="308.017" y1="188.871" x2="298.42" y2="188.43" gradientUnits="userSpaceOnUse"><stop stop-color="#328CDE"></stop><stop offset="1" stop-color="#1361A7"></stop></linearGradient><linearGradient id="paint12_linear" x1="337.944" y1="185.294" x2="330.088" y2="184.933" gradientUnits="userSpaceOnUse"><stop stop-color="#328CDE"></stop><stop offset="1" stop-color="#1361A7"></stop></linearGradient><linearGradient id="paint13_linear" x1="267.92" y1="185.808" x2="256.227" y2="185.271" gradientUnits="userSpaceOnUse"><stop stop-color="#328CDE"></stop><stop offset="1" stop-color="#1361A7"></stop></linearGradient><linearGradient id="paint14_linear" x1="-23952.4" y1="26367.9" x2="-24925.1" y2="26323.3" gradientUnits="userSpaceOnUse"><stop stop-color="#444B8C"></stop><stop offset="1" stop-color="#3E4177"></stop></linearGradient><linearGradient id="paint15_linear" x1="-6278.32" y1="-101.814" x2="-6278.3" y2="-102.354" gradientUnits="userSpaceOnUse"><stop stop-color="#444B8C"></stop><stop offset="1" stop-color="#3E4177"></stop></linearGradient><linearGradient id="paint16_linear" x1="379.75" y1="255.055" x2="371.038" y2="255.055" gradientUnits="userSpaceOnUse"><stop stop-color="#311944"></stop><stop offset="1" stop-color="#6B3976"></stop></linearGradient><linearGradient id="paint17_linear" x1="-15004.6" y1="30190.2" x2="-14443.7" y2="30190.2" gradientUnits="userSpaceOnUse"><stop stop-color="#311944"></stop><stop offset="1" stop-color="#6B3976"></stop></linearGradient><linearGradient id="paint18_linear" x1="373.071" y1="255.56" x2="379.929" y2="254.637" gradientUnits="userSpaceOnUse"><stop offset="0.01" stop-color="#D8DEE8"></stop><stop offset="1" stop-color="#F4F7FA"></stop></linearGradient><linearGradient id="paint19_linear" x1="-15940" y1="33923.2" x2="-15243" y2="33923.2" gradientUnits="userSpaceOnUse"><stop stop-color="#311944"></stop><stop offset="1" stop-color="#6B3976"></stop></linearGradient><linearGradient id="paint20_linear" x1="-16037.7" y1="33597.5" x2="-15344.8" y2="33597.5" gradientUnits="userSpaceOnUse"><stop stop-color="#311944"></stop><stop offset="1" stop-color="#6B3976"></stop></linearGradient><linearGradient id="paint21_linear" x1="-7129.12" y1="17674" x2="-7393.01" y2="17656.1" gradientUnits="userSpaceOnUse"><stop offset="0.01" stop-color="#D8DEE8"></stop><stop offset="1" stop-color="#F4F7FA"></stop></linearGradient><linearGradient id="paint22_linear" x1="-16881.6" y1="37551.7" x2="-16023.5" y2="37551.7" gradientUnits="userSpaceOnUse"><stop stop-color="#311944"></stop><stop offset="1" stop-color="#6B3976"></stop></linearGradient><linearGradient id="paint23_linear" x1="-17007.7" y1="37173.3" x2="-16154.9" y2="37173.3" gradientUnits="userSpaceOnUse"><stop stop-color="#311944"></stop><stop offset="1" stop-color="#6B3976"></stop></linearGradient><linearGradient id="paint24_linear" x1="-7521.88" y1="19557.3" x2="-7846.07" y2="19535.1" gradientUnits="userSpaceOnUse"><stop offset="0.01" stop-color="#D8DEE8"></stop><stop offset="1" stop-color="#F4F7FA"></stop></linearGradient><linearGradient id="paint25_linear" x1="292.246" y1="271.254" x2="307.052" y2="271.254" gradientUnits="userSpaceOnUse"><stop stop-color="#328CDE"></stop><stop offset="1" stop-color="#1361A7"></stop></linearGradient><linearGradient id="paint26_linear" x1="-7644.6" y1="26991.9" x2="-8253.29" y2="26948.4" gradientUnits="userSpaceOnUse"><stop offset="0.01" stop-color="#D8DEE8"></stop><stop offset="1" stop-color="#F4F7FA"></stop></linearGradient><linearGradient id="paint27_linear" x1="238.71" y1="281.119" x2="258.96" y2="281.119" gradientUnits="userSpaceOnUse"><stop stop-color="#328CDE"></stop><stop offset="1" stop-color="#1361A7"></stop></linearGradient><linearGradient id="paint28_linear" x1="-6898.2" y1="36800.2" x2="-8029.72" y2="36716.4" gradientUnits="userSpaceOnUse"><stop offset="0.01" stop-color="#D8DEE8"></stop><stop offset="1" stop-color="#F4F7FA"></stop></linearGradient><linearGradient id="paint29_linear" x1="302.577" y1="194.092" x2="294.668" y2="204.042" gradientUnits="userSpaceOnUse"><stop stop-color="#FFC444"></stop><stop offset="1" stop-color="#F36F56"></stop></linearGradient><linearGradient id="paint30_linear" x1="-32835.7" y1="28427" x2="-32102.3" y2="37468.8" gradientUnits="userSpaceOnUse"><stop stop-color="#FFC444"></stop><stop offset="1" stop-color="#F36F56"></stop></linearGradient><linearGradient id="paint31_linear" x1="-2311.06" y1="4072.33" x2="-2144.87" y2="5315.02" gradientUnits="userSpaceOnUse"><stop stop-color="#FFC444"></stop><stop offset="1" stop-color="#F36F56"></stop></linearGradient></defs></svg> 