<?xml version="1.0" encoding="UTF-8"?> <svg xmlns="http://www.w3.org/2000/svg" width="73" height="72" viewBox="0 0 73 72" fill="none"><rect width="72" height="72" fill="white"></rect><path d="M42.0083 70.8388L39.7356 58.2392L41.8864 53.9388L36.2019 49.9355L30.5173 53.9388L32.6681 58.2392L30.3954 70.8388H42.0083Z" fill="#3693E7"></path><path d="M36.2019 0C26.5968 0 18.7825 7.81433 18.7825 17.4194V26.7097H19.9438C19.9438 24.1444 22.0237 22.0645 24.589 22.0645V19.7419L29.2341 17.4194L29.8199 17.8095C31.7092 19.07 33.9303 19.7419 36.2019 19.7419C38.4734 19.7419 40.695 19.07 42.5844 17.8095L43.1696 17.4194L47.8148 19.7419V22.0645C50.38 22.0645 52.4599 24.1444 52.4599 26.7097H53.6212V17.4194C53.6212 7.81433 45.8069 0 36.2019 0Z" fill="#3693E7"></path><path d="M54.3856 45.0512L44.3309 43.1658V40.0403C46.6212 38.1464 48.231 35.466 48.7697 32.4199C51.5158 31.9611 53.6212 29.5841 53.6212 26.7098C53.6212 23.9064 51.623 21.5611 48.9761 21.0207V19.0248L43.0862 16.0796L41.9403 16.844C38.5295 19.1161 33.8736 19.1161 30.4629 16.844L29.3169 16.0796L23.4277 19.0248V21.0207C20.7813 21.5611 18.7825 23.9053 18.7825 26.7098C18.7825 29.5841 20.8879 31.9611 23.6346 32.4199C24.1733 35.4649 25.782 38.1452 28.0728 40.0403V43.1658L18.0176 45.0512C13.0776 45.9783 9.49219 50.298 9.49219 55.3242V72.0001H62.9115V55.3242C62.9115 50.298 59.3267 45.9783 54.3856 45.0512ZM47.6804 61.6988L44.6876 69.6775H43.3312L44.5968 59.9739L46.18 59.4465L47.6804 61.6988ZM28.9103 45.3721L34.3034 49.8659L29.2982 53.4416L28.2611 45.494L28.9103 45.3721ZM43.4939 45.3721L44.1443 45.494L43.1072 53.4416L38.102 49.8659L43.4939 45.3721ZM27.474 57.416L23.2581 56.0103L21.2145 46.8152L25.9748 45.9238L27.474 57.416ZM26.2254 59.4465L27.808 59.9739L29.0731 69.6775H27.7167L24.7239 61.6988L26.2254 59.4465ZM29.6384 56.0511L36.2019 51.3628L42.7659 56.0511L40.9888 69.6775H31.4149L29.6384 56.0511ZM44.9302 57.416L46.4295 45.9221L51.1898 46.8141L49.1456 56.0091L44.9302 57.416ZM51.2986 26.7098C51.2986 28.2221 50.3245 29.4996 48.9761 29.9805V23.4409C50.3245 23.9206 51.2986 25.1981 51.2986 26.7098ZM21.1051 26.7098C21.1051 25.1981 22.0798 23.9206 23.4277 23.4397V29.9788C22.0798 29.4996 21.1051 28.2221 21.1051 26.7098ZM25.7502 30.1937V20.4599L29.1508 18.76L29.1751 18.7758C33.3514 21.5594 39.0529 21.5594 43.2291 18.7758L43.2535 18.76L46.6535 20.4599V30.1937C46.6535 35.9565 41.9646 40.6453 36.2019 40.6453C30.4396 40.6453 25.7502 35.9565 25.7502 30.1937ZM36.2019 42.9679C38.2937 42.9679 40.2641 42.4524 42.0083 41.5582V43.5859L36.2019 48.425L30.3954 43.5859V41.5582C32.1396 42.4524 34.1106 42.9679 36.2019 42.9679ZM11.8148 55.3242C11.8148 51.4156 14.6035 48.0548 18.4457 47.3335L18.9299 47.2428L21.2746 57.7976L23.9403 58.6861L22.1309 61.4L25.2359 69.6775H11.8148V55.3242ZM60.589 69.6775H47.1683L50.2723 61.3988L48.4629 58.685L51.128 57.7964L53.4726 47.2416L53.9569 47.3324C57.8008 48.0548 60.589 51.4139 60.589 55.3242V69.6775Z" fill="#1F2428"></path><path d="M36.2019 37.1613C38.7637 37.1613 40.847 35.078 40.847 32.5161H38.5244C38.5244 33.797 37.4828 34.8387 36.2019 34.8387C34.9209 34.8387 33.8793 33.797 33.8793 32.5161H31.5567C31.5567 35.078 33.64 37.1613 36.2019 37.1613Z" fill="#1F2428"></path><path d="M43.1696 24.3869C43.1696 25.0282 42.6496 25.5482 42.0083 25.5482C41.367 25.5482 40.847 25.0282 40.847 24.3869C40.847 23.7456 41.367 23.2256 42.0083 23.2256C42.6496 23.2256 43.1696 23.7456 43.1696 24.3869Z" fill="#1F2428"></path><path d="M31.5567 24.3869C31.5567 25.0282 31.0367 25.5482 30.3954 25.5482C29.7541 25.5482 29.2341 25.0282 29.2341 24.3869C29.2341 23.7456 29.7541 23.2256 30.3954 23.2256C31.0367 23.2256 31.5567 23.7456 31.5567 24.3869Z" fill="#1F2428"></path><path d="M58.2664 41.8066H60.5889V44.1292H58.2664V41.8066Z" fill="#1F2428"></path><path d="M62.9115 0.538086L53.4193 11.6129H58.2664V39.4838H60.5889V9.29029H58.4688L62.9115 4.10758L67.3548 9.29029H65.2341V67.3548H67.5567V11.6129H72.4043L62.9115 0.538086Z" fill="#1F2428"></path><path d="M65.2341 69.6772H67.5567V71.9998H65.2341V69.6772Z" fill="#1F2428"></path><path d="M11.8148 41.8066H14.1373V44.1292H11.8148V41.8066Z" fill="#1F2428"></path><path d="M9.49219 4.10758L13.9355 9.29029H11.8148V39.4838H14.1373V11.6129H18.9849L9.49219 0.538086L0 11.6129H4.84703V67.3548H7.16961V9.29029H5.04946L9.49219 4.10758Z" fill="#1F2428"></path><path d="M4.84702 69.6772H7.1696V71.9998H4.84702V69.6772Z" fill="#1F2428"></path></svg> 