<?xml version="1.0" encoding="UTF-8"?> <svg xmlns="http://www.w3.org/2000/svg" width="72" height="72" viewBox="0 0 72 72" fill="none"><rect width="72" height="72" fill="white"></rect><path d="M42.9677 29.0323L36 18.5806H39.4839V0H46.4516V18.5806H49.9355L42.9677 29.0323Z" fill="#3693E7"></path><path d="M60.3872 29.0323H53.4194V10.4516H49.9355L56.9033 0L63.871 10.4516H60.3872V29.0323Z" fill="#3693E7"></path><path d="M13.9355 60.387H6.96777V51.0967H13.9355V60.387Z" fill="#3693E7"></path><path d="M25.5484 60.3871H18.5807V46.4517H25.5484V60.3871Z" fill="#3693E7"></path><path d="M37.1613 60.3873H30.1936V41.8066H37.1613V60.3873Z" fill="#3693E7"></path><path d="M55.742 48.7741C57.0229 48.7741 58.0645 49.8157 58.0645 51.0966H60.3871C60.3871 48.9379 58.9021 47.1353 56.9033 46.6165V44.1289H54.5807V46.6165C52.5819 47.1353 51.0968 48.9379 51.0968 51.0966C51.0968 53.6585 53.1801 55.7418 55.742 55.7418C57.0229 55.7418 58.0645 56.7835 58.0645 58.0644C58.0645 59.3453 57.0229 60.387 55.742 60.387C54.461 60.387 53.4194 59.3453 53.4194 58.0644H51.0968C51.0968 60.2231 52.5819 62.0257 54.5807 62.5445V65.0321H56.9033V62.5445C58.9021 62.0257 60.3871 60.2231 60.3871 58.0644C60.3871 55.5025 58.3038 53.4192 55.742 53.4192C54.461 53.4192 53.4194 52.3776 53.4194 51.0966C53.4194 49.8157 54.461 48.7741 55.742 48.7741Z" fill="#1F2428"></path><path d="M46.4517 12.7744H53.4194V15.097H46.4517V12.7744Z" fill="#1F2428"></path><path d="M60.387 12.7744V15.097H65.0322V69.6776H16.258V65.0325H13.9354V72.0002H67.3548V12.7744H60.387Z" fill="#1F2428"></path><path d="M16.258 26.7099H27.8709V15.097H39.4838V12.7744H26.2288L13.9354 25.0678V36.0002H16.258V26.7099ZM17.9001 24.3873L25.5483 16.7391V24.3873H17.9001Z" fill="#1F2428"></path><path d="M41.8064 60.3869H2.32258V33.6772H0V62.7095H41.8064V60.3869Z" fill="#1F2428"></path><path d="M60.3871 31.355H62.7097V33.6776H60.3871V31.355Z" fill="#1F2428"></path><path d="M18.5807 31.355H58.0646V33.6776H18.5807V31.355Z" fill="#1F2428"></path><path d="M18.5807 36H62.7097V38.3226H18.5807V36Z" fill="#1F2428"></path></svg> 