<?xml version="1.0" encoding="UTF-8"?> <svg xmlns="http://www.w3.org/2000/svg" width="72" height="72" viewBox="0 0 72 72" fill="none"><rect width="72" height="72" fill="white"></rect><path d="M24.3871 12.7744C16.063 12.7744 9.29034 19.5471 9.29034 27.8712V31.4724H12.9812C13.4235 29.5445 14.5763 27.8304 16.2581 26.7099C20.017 29.7163 24.6865 31.3551 29.5001 31.3551H36V31.4724H39.4839V27.8712C39.4839 19.5471 32.7112 12.7744 24.3871 12.7744Z" fill="#3693E7"></path><path d="M68.5161 31.3547H67.3548C66.7141 31.3547 66.1935 30.833 66.1935 30.1934V26.5H63.8709V30.1934C63.8709 32.114 65.4343 33.6773 67.3548 33.6773H68.5161C69.1569 33.6773 69.6774 34.199 69.6774 34.8386V41.8063C69.6774 42.4471 69.1569 42.9676 68.5161 42.9676H65.0322V40.645H62.7097V45.2902H68.5161C70.4367 45.2902 72 43.7269 72 41.8063V34.8386C72 32.918 70.4367 31.3547 68.5161 31.3547Z" fill="#1F2428"></path><path d="M19.742 36.0002C19.742 36.6415 19.222 37.1614 18.5807 37.1614C17.9393 37.1614 17.4194 36.6415 17.4194 36.0002C17.4194 35.3588 17.9393 34.8389 18.5807 34.8389C19.222 34.8389 19.742 35.3588 19.742 36.0002Z" fill="#1F2428"></path><path d="M31.3549 36.0002C31.3549 36.6415 30.8349 37.1614 30.1936 37.1614C29.5523 37.1614 29.0323 36.6415 29.0323 36.0002C29.0323 35.3588 29.5523 34.8389 30.1936 34.8389C30.8349 34.8389 31.3549 35.3588 31.3549 36.0002Z" fill="#1F2428"></path><path d="M24.3871 46.4515C23.1062 46.4515 22.0645 45.4098 22.0645 44.1289H19.7419C19.7419 46.6908 21.8252 48.7741 24.3871 48.7741C26.949 48.7741 29.0323 46.6908 29.0323 44.1289H26.7097C26.7097 45.4098 25.668 46.4515 24.3871 46.4515Z" fill="#1F2428"></path><path d="M46.4516 46.4515V48.7741C46.4516 49.4148 45.9311 49.9354 45.2903 49.9354H42.9677C42.327 49.9354 41.8064 49.4148 41.8064 48.7741V42.3405C43.228 41.0641 44.129 39.2189 44.129 37.1612V27.8708C44.129 16.9849 35.2731 8.12891 24.3871 8.12891C13.5011 8.12891 4.64516 16.9849 4.64516 27.8708V37.1612C4.64516 41.004 7.7701 44.1289 11.6129 44.1289H11.8346C12.5638 48.0783 15.1132 51.3915 18.5806 53.1709V54.8363L6.15858 57.9425C2.53295 58.8469 0 62.0892 0 65.8277V71.9999H48.7742V65.8277C48.7742 62.0892 46.2412 58.8469 42.6156 57.9425L30.1935 54.8363V53.1709C33.661 51.3915 36.2104 48.0794 36.9396 44.1289H37.1613C37.9767 44.1289 38.7558 43.9803 39.4839 43.7223V48.7741C39.4839 50.6946 41.0472 52.2579 42.9677 52.2579H45.2903C47.2109 52.2579 48.7742 50.6946 48.7742 48.7741V46.4515C48.7742 45.8107 49.2947 45.2902 49.9355 45.2902H53.4194V47.6128H55.7419V42.9676H49.9355C48.0149 42.9676 46.4516 44.5309 46.4516 46.4515ZM6.96774 37.1612C6.96774 34.5993 9.05103 32.516 11.6129 32.516H11.656C11.6384 32.7496 11.6129 32.9815 11.6129 33.2186V41.8063C9.05103 41.8063 6.96774 39.723 6.96774 37.1612ZM12.1471 30.1934H11.6129C9.82674 30.1934 8.20218 30.8739 6.96774 31.9819V27.8708C6.96774 18.2658 14.7821 10.4515 24.3871 10.4515C33.9921 10.4515 41.8064 18.2658 41.8064 27.8708V31.9819C40.572 30.8739 38.9475 30.1934 37.1613 30.1934H29.5001C24.9677 30.1934 20.5222 28.6341 16.9839 25.8029L16.321 25.2721L15.6145 25.7433C13.982 26.8315 12.7884 28.4016 12.1471 30.1934ZM19.3853 57.0273L22.745 60.387L19.0348 64.096L16.6414 57.714L19.3853 57.0273ZM2.32258 65.8277C2.32258 63.1581 4.13199 60.8423 6.72051 60.1942L14.3721 58.2804L18.1264 68.2898L23.2258 63.1904V69.6773H11.6129V65.0321H9.29032V69.6773H2.32258V65.8277ZM46.4516 65.8277V69.6773H39.4839V65.0321H37.1613V69.6773H25.5484V63.1904L30.6477 68.2898L34.4021 58.2804L42.0537 60.1942C44.6422 60.8423 46.4516 63.1581 46.4516 65.8277ZM32.1328 57.714L29.7394 64.096L26.0292 60.387L29.3889 57.0273L32.1328 57.714ZM27.871 55.261L24.3871 58.7448L20.9032 55.261V54.0861C22.0123 54.4008 23.1782 54.5805 24.3871 54.5805C25.596 54.5805 26.7618 54.4008 27.871 54.0861V55.261ZM34.8387 41.8063C34.8387 47.5697 30.1505 52.2579 24.3871 52.2579C18.6237 52.2579 13.9355 47.5697 13.9355 41.8063V33.2186C13.9355 31.2594 14.7889 29.4245 16.2524 28.168C20.0765 30.9782 24.746 32.516 29.5001 32.516H34.8387V41.8063ZM37.1613 32.516C39.7232 32.516 41.8064 34.5993 41.8064 37.1612C41.8064 39.723 39.7232 41.8063 37.1613 41.8063V32.516Z" fill="#1F2428"></path><path d="M58.0645 40.645H60.3871V47.6128H58.0645V40.645Z" fill="#1F2428"></path><path d="M53.4194 26.1744V20.9032H47.6129C45.6923 20.9032 44.129 19.3399 44.129 17.4194V3.48387C44.129 1.56332 45.6923 0 47.6129 0H68.5161C70.4367 0 72 1.56332 72 3.48387V17.4194C72 19.3399 70.4367 20.9032 68.5161 20.9032H65.2783L53.4194 26.1744Z" fill="#3693E7"></path></svg> 