<svg width="96" height="96" viewBox="0 0 96 96" fill="none" xmlns="http://www.w3.org/2000/svg">
<rect width="96" height="96" rx="6" transform="matrix(-1 0 0 1 96 0)" fill="#F2F6FC"/>
<path d="M24.6328 51L27.0236 54.4007C27.2605 54.7378 27.5644 55.0225 27.9162 55.2369L29.4136 56.1498C29.884 56.4365 30.4242 56.5882 30.9752 56.5882H35.6328V67C35.6328 68.6569 34.2897 70 32.6328 70H27.6328C25.976 70 24.6328 68.6569 24.6328 67V51Z" fill="#3693E7"/>
<path d="M72.6328 51L70.2421 54.4007C70.0051 54.7378 69.7012 55.0225 69.3494 55.2369L67.852 56.1498C67.3817 56.4365 66.8414 56.5882 66.2905 56.5882H61.6328V67C61.6328 68.6569 62.976 70 64.6328 70H69.6328C71.2897 70 72.6328 68.6569 72.6328 67V51Z" fill="#3693E7"/>
<mask id="path-4-inside-1" fill="white">
<path d="M74.1439 43.7613C73.5286 42.7948 72.4821 42.3622 71.7179 42.3622H65.8492V39.6958C65.8492 37.3363 63.9303 35.4167 61.5721 35.4167L58.2627 35.4149V30.2726H67.5147C69.3956 30.2726 70.3796 28.9522 70.3796 27.6479C70.3796 26.3444 69.3956 25.0248 67.5147 25.0248H55.8577C54.2619 25.0248 52.9637 26.3248 52.9637 27.9227V30.5737H43.6713V27.8948C43.6713 26.2986 42.3718 25 40.7743 25H29.1206C27.2389 25 26.2544 26.3192 26.2544 27.6224C26.2544 28.9255 27.2389 30.2447 29.1206 30.2447H38.3695V35.4167H35.0603C32.7033 35.4167 30.7859 37.3363 30.7859 39.6958V42.3622H24.9171C24.1527 42.3622 23.106 42.7944 22.4905 43.7602C22.0254 44.4899 21.6545 45.754 22.5293 47.6321L23.3554 49.4039C23.3126 53.0947 23.3274 56.857 23.3421 60.4976C23.3495 62.3408 23.3572 64.2468 23.3572 66.1151C23.3572 68.4984 25.294 70.4374 27.675 70.4374H32.058C34.4388 70.4374 36.3758 68.4984 36.3758 66.1151V62.7217L39.4272 62.431C40.2768 63.6071 41.6583 64.3745 43.2166 64.3745H53.4188C54.974 64.3745 56.354 63.6069 57.2035 62.4308L60.2564 62.7217V66.1151C60.2564 68.4984 62.1947 70.4374 64.5773 70.4374H68.9572C71.3397 70.4374 73.278 68.4984 73.278 66.1151C73.278 64.2761 73.2851 62.4002 73.2921 60.586C73.3059 56.9163 73.32 53.124 73.2768 49.404L74.1028 47.6324C74.9789 45.7555 74.6087 44.4914 74.1439 43.7613ZM66.818 26.5785H67.5146C68.4824 26.5785 68.8259 27.1546 68.8259 27.6479C68.8259 28.142 68.4824 28.7189 67.5146 28.7189H66.818V26.5785ZM58.2626 26.5785H65.2645V28.7189H58.2626V26.5785ZM54.5173 27.9227C54.5173 27.1815 55.1186 26.5785 55.8578 26.5785H56.7091V29.4957V35.4139L54.5173 35.4127V27.9227ZM39.923 29.4679V26.5537H40.7743C41.515 26.5537 42.1178 27.1553 42.1178 27.8948V35.4166H39.923V29.4679ZM29.8171 28.691H29.1206C28.1517 28.691 27.808 28.1153 27.808 27.6224C27.808 27.1294 28.1518 26.5537 29.1206 26.5537H29.8171V28.691ZM31.3707 28.691V26.5537H38.3695V28.691H31.3707ZM32.3394 39.6957C32.3394 38.1929 33.5601 36.9704 35.0603 36.9704H46.4789C46.9079 36.9704 47.2557 36.6227 47.2557 36.1936C47.2557 35.7645 46.9079 35.4167 46.4789 35.4167H43.6714V32.1275H52.9638V35.412L50.2556 35.4105C50.2555 35.4105 50.2553 35.4105 50.2552 35.4105C49.8264 35.4105 49.4786 35.7581 49.4784 36.187C49.4781 36.6161 49.8258 36.9641 50.2548 36.9643L57.2853 36.9682C57.3493 36.9852 57.4163 36.9953 57.4858 36.9953C57.555 36.9953 57.6217 36.9854 57.6856 36.9685L61.5717 36.9706C63.0736 36.9706 64.2957 38.1931 64.2957 39.6959V42.5229L52.5493 45.2677L49.2127 46.0295C48.5471 46.1814 48.0731 46.1805 47.4014 46.0265L44.0897 45.2686L32.3395 42.523V39.6957H32.3394ZM34.8223 59.4921H33.5622C33.1333 59.4921 32.7855 59.8399 32.7855 60.269C32.7855 60.6981 33.1333 61.0458 33.5622 61.0458H34.8223V62.0075V62.0124V63.2545H33.5622C33.1333 63.2545 32.7855 63.6023 32.7855 64.0314C32.7855 64.4604 33.1333 64.8082 33.5622 64.8082H34.8223V66.1153C34.8223 67.642 33.5823 68.8839 32.058 68.8839H27.675C26.1508 68.8839 24.9107 67.6419 24.9107 66.1153C24.9107 65.6812 24.9103 65.245 24.9096 64.8082H26.1707C26.5997 64.8082 26.9475 64.4604 26.9475 64.0314C26.9475 63.6023 26.5997 63.2545 26.1707 63.2545H24.9059C24.9036 62.514 24.9008 61.776 24.898 61.0459H26.1708C26.5998 61.0459 26.9476 60.6982 26.9476 60.2691C26.9476 59.84 26.5998 59.4922 26.1708 59.4922H24.8917C24.883 57.2463 24.8765 54.9624 24.8849 52.6844L25.6061 54.2312C26.5948 56.3491 29.0119 57.9463 31.2285 57.9463H34.8223V59.4921ZM36.3758 61.161V57.9461H38.5428V59.6992C38.5428 60.1283 38.602 60.5436 38.7108 60.9385L36.3758 61.161ZM53.4186 62.8209H43.2165C42.0625 62.8209 41.0536 62.1903 40.5138 61.256C40.5043 61.2376 40.4938 61.2199 40.4829 61.2024C40.2368 60.7562 40.0963 60.2439 40.0963 59.6992V57.9461H46.0952C46.5242 57.9461 46.8719 57.5983 46.8719 57.1693C46.8719 56.7402 46.5242 56.3924 46.0952 56.3924H31.2285C29.63 56.3924 27.7395 55.1281 27.0141 53.5741L24.8548 48.943C24.8444 48.9172 24.8327 48.8921 24.8197 48.8678L23.9376 46.9757C23.4807 45.9947 23.4333 45.1715 23.8007 44.5951C24.1161 44.1002 24.6529 43.9158 24.9172 43.9158H31.4733L43.7397 46.7822L47.0544 47.5407C47.5086 47.645 47.912 47.697 48.3147 47.697C48.7135 47.697 49.1117 47.646 49.5586 47.544L52.8991 46.7813L65.1622 43.9158H71.7183C71.9821 43.9158 72.5183 44.1003 72.8336 44.5956C73.2006 45.172 73.1527 45.9948 72.6951 46.9754L71.8127 48.8677C71.7997 48.892 71.788 48.9172 71.7776 48.9431L69.618 53.5748C68.8084 55.3152 66.8018 56.3924 65.407 56.3924H57.3208H57.3189H49.918C49.489 56.3924 49.1412 56.7402 49.1412 57.1693C49.1412 57.5983 49.489 57.9461 49.918 57.9461H56.5402L56.5358 59.698C56.5332 61.4199 55.1348 62.8209 53.4186 62.8209ZM57.9203 60.9384C58.029 60.5441 58.0886 60.1294 58.0893 59.7011L58.0936 57.9462H60.2563V61.1611L57.9203 60.9384ZM71.7423 59.4921H70.4612C70.0322 59.4921 69.6845 59.8399 69.6845 60.269C69.6845 60.6981 70.0322 61.0458 70.4612 61.0458H71.7366C71.7338 61.7761 71.7311 62.5132 71.7289 63.2544H70.4612C70.0322 63.2544 69.6845 63.6022 69.6845 64.0313C69.6845 64.4603 70.0322 64.8081 70.4612 64.8081H71.7255C71.7247 65.2449 71.7243 65.6811 71.7243 66.1152C71.7243 67.6419 70.4829 68.8838 68.9569 68.8838H64.5771C63.0511 68.8838 61.8097 67.6418 61.8097 66.1152V64.8081H63.0697C63.4987 64.8081 63.8465 64.4603 63.8465 64.0313C63.8465 63.6022 63.4987 63.2544 63.0697 63.2544H61.8097V62.0123C61.8097 62.0107 61.8097 62.0091 61.8097 62.0074V61.0457H63.0697C63.4987 61.0457 63.8465 60.698 63.8465 60.2689C63.8465 59.8398 63.4987 59.492 63.0697 59.492H61.8097V57.9461H65.4065C67.6249 57.9461 70.0408 56.3486 71.0259 54.2307L71.7474 52.6833C71.7564 54.9608 71.7505 57.2452 71.7423 59.4921Z"/>
</mask>
<path d="M74.1439 43.7613C73.5286 42.7948 72.4821 42.3622 71.7179 42.3622H65.8492V39.6958C65.8492 37.3363 63.9303 35.4167 61.5721 35.4167L58.2627 35.4149V30.2726H67.5147C69.3956 30.2726 70.3796 28.9522 70.3796 27.6479C70.3796 26.3444 69.3956 25.0248 67.5147 25.0248H55.8577C54.2619 25.0248 52.9637 26.3248 52.9637 27.9227V30.5737H43.6713V27.8948C43.6713 26.2986 42.3718 25 40.7743 25H29.1206C27.2389 25 26.2544 26.3192 26.2544 27.6224C26.2544 28.9255 27.2389 30.2447 29.1206 30.2447H38.3695V35.4167H35.0603C32.7033 35.4167 30.7859 37.3363 30.7859 39.6958V42.3622H24.9171C24.1527 42.3622 23.106 42.7944 22.4905 43.7602C22.0254 44.4899 21.6545 45.754 22.5293 47.6321L23.3554 49.4039C23.3126 53.0947 23.3274 56.857 23.3421 60.4976C23.3495 62.3408 23.3572 64.2468 23.3572 66.1151C23.3572 68.4984 25.294 70.4374 27.675 70.4374H32.058C34.4388 70.4374 36.3758 68.4984 36.3758 66.1151V62.7217L39.4272 62.431C40.2768 63.6071 41.6583 64.3745 43.2166 64.3745H53.4188C54.974 64.3745 56.354 63.6069 57.2035 62.4308L60.2564 62.7217V66.1151C60.2564 68.4984 62.1947 70.4374 64.5773 70.4374H68.9572C71.3397 70.4374 73.278 68.4984 73.278 66.1151C73.278 64.2761 73.2851 62.4002 73.2921 60.586C73.3059 56.9163 73.32 53.124 73.2768 49.404L74.1028 47.6324C74.9789 45.7555 74.6087 44.4914 74.1439 43.7613ZM66.818 26.5785H67.5146C68.4824 26.5785 68.8259 27.1546 68.8259 27.6479C68.8259 28.142 68.4824 28.7189 67.5146 28.7189H66.818V26.5785ZM58.2626 26.5785H65.2645V28.7189H58.2626V26.5785ZM54.5173 27.9227C54.5173 27.1815 55.1186 26.5785 55.8578 26.5785H56.7091V29.4957V35.4139L54.5173 35.4127V27.9227ZM39.923 29.4679V26.5537H40.7743C41.515 26.5537 42.1178 27.1553 42.1178 27.8948V35.4166H39.923V29.4679ZM29.8171 28.691H29.1206C28.1517 28.691 27.808 28.1153 27.808 27.6224C27.808 27.1294 28.1518 26.5537 29.1206 26.5537H29.8171V28.691ZM31.3707 28.691V26.5537H38.3695V28.691H31.3707ZM32.3394 39.6957C32.3394 38.1929 33.5601 36.9704 35.0603 36.9704H46.4789C46.9079 36.9704 47.2557 36.6227 47.2557 36.1936C47.2557 35.7645 46.9079 35.4167 46.4789 35.4167H43.6714V32.1275H52.9638V35.412L50.2556 35.4105C50.2555 35.4105 50.2553 35.4105 50.2552 35.4105C49.8264 35.4105 49.4786 35.7581 49.4784 36.187C49.4781 36.6161 49.8258 36.9641 50.2548 36.9643L57.2853 36.9682C57.3493 36.9852 57.4163 36.9953 57.4858 36.9953C57.555 36.9953 57.6217 36.9854 57.6856 36.9685L61.5717 36.9706C63.0736 36.9706 64.2957 38.1931 64.2957 39.6959V42.5229L52.5493 45.2677L49.2127 46.0295C48.5471 46.1814 48.0731 46.1805 47.4014 46.0265L44.0897 45.2686L32.3395 42.523V39.6957H32.3394ZM34.8223 59.4921H33.5622C33.1333 59.4921 32.7855 59.8399 32.7855 60.269C32.7855 60.6981 33.1333 61.0458 33.5622 61.0458H34.8223V62.0075V62.0124V63.2545H33.5622C33.1333 63.2545 32.7855 63.6023 32.7855 64.0314C32.7855 64.4604 33.1333 64.8082 33.5622 64.8082H34.8223V66.1153C34.8223 67.642 33.5823 68.8839 32.058 68.8839H27.675C26.1508 68.8839 24.9107 67.6419 24.9107 66.1153C24.9107 65.6812 24.9103 65.245 24.9096 64.8082H26.1707C26.5997 64.8082 26.9475 64.4604 26.9475 64.0314C26.9475 63.6023 26.5997 63.2545 26.1707 63.2545H24.9059C24.9036 62.514 24.9008 61.776 24.898 61.0459H26.1708C26.5998 61.0459 26.9476 60.6982 26.9476 60.2691C26.9476 59.84 26.5998 59.4922 26.1708 59.4922H24.8917C24.883 57.2463 24.8765 54.9624 24.8849 52.6844L25.6061 54.2312C26.5948 56.3491 29.0119 57.9463 31.2285 57.9463H34.8223V59.4921ZM36.3758 61.161V57.9461H38.5428V59.6992C38.5428 60.1283 38.602 60.5436 38.7108 60.9385L36.3758 61.161ZM53.4186 62.8209H43.2165C42.0625 62.8209 41.0536 62.1903 40.5138 61.256C40.5043 61.2376 40.4938 61.2199 40.4829 61.2024C40.2368 60.7562 40.0963 60.2439 40.0963 59.6992V57.9461H46.0952C46.5242 57.9461 46.8719 57.5983 46.8719 57.1693C46.8719 56.7402 46.5242 56.3924 46.0952 56.3924H31.2285C29.63 56.3924 27.7395 55.1281 27.0141 53.5741L24.8548 48.943C24.8444 48.9172 24.8327 48.8921 24.8197 48.8678L23.9376 46.9757C23.4807 45.9947 23.4333 45.1715 23.8007 44.5951C24.1161 44.1002 24.6529 43.9158 24.9172 43.9158H31.4733L43.7397 46.7822L47.0544 47.5407C47.5086 47.645 47.912 47.697 48.3147 47.697C48.7135 47.697 49.1117 47.646 49.5586 47.544L52.8991 46.7813L65.1622 43.9158H71.7183C71.9821 43.9158 72.5183 44.1003 72.8336 44.5956C73.2006 45.172 73.1527 45.9948 72.6951 46.9754L71.8127 48.8677C71.7997 48.892 71.788 48.9172 71.7776 48.9431L69.618 53.5748C68.8084 55.3152 66.8018 56.3924 65.407 56.3924H57.3208H57.3189H49.918C49.489 56.3924 49.1412 56.7402 49.1412 57.1693C49.1412 57.5983 49.489 57.9461 49.918 57.9461H56.5402L56.5358 59.698C56.5332 61.4199 55.1348 62.8209 53.4186 62.8209ZM57.9203 60.9384C58.029 60.5441 58.0886 60.1294 58.0893 59.7011L58.0936 57.9462H60.2563V61.1611L57.9203 60.9384ZM71.7423 59.4921H70.4612C70.0322 59.4921 69.6845 59.8399 69.6845 60.269C69.6845 60.6981 70.0322 61.0458 70.4612 61.0458H71.7366C71.7338 61.7761 71.7311 62.5132 71.7289 63.2544H70.4612C70.0322 63.2544 69.6845 63.6022 69.6845 64.0313C69.6845 64.4603 70.0322 64.8081 70.4612 64.8081H71.7255C71.7247 65.2449 71.7243 65.6811 71.7243 66.1152C71.7243 67.6419 70.4829 68.8838 68.9569 68.8838H64.5771C63.0511 68.8838 61.8097 67.6418 61.8097 66.1152V64.8081H63.0697C63.4987 64.8081 63.8465 64.4603 63.8465 64.0313C63.8465 63.6022 63.4987 63.2544 63.0697 63.2544H61.8097V62.0123C61.8097 62.0107 61.8097 62.0091 61.8097 62.0074V61.0457H63.0697C63.4987 61.0457 63.8465 60.698 63.8465 60.2689C63.8465 59.8398 63.4987 59.492 63.0697 59.492H61.8097V57.9461H65.4065C67.6249 57.9461 70.0408 56.3486 71.0259 54.2307L71.7474 52.6833C71.7564 54.9608 71.7505 57.2452 71.7423 59.4921Z" fill="#1F2428" stroke="#F2F6FC" stroke-width="0.2" mask="url(#path-4-inside-1)"/>
<path d="M53.7419 51.182C54.1156 51.182 54.4187 51.485 54.4187 51.8589C54.4187 52.2327 54.1157 52.5357 53.7418 52.5357H42.8959C42.5221 52.5357 42.2191 52.2328 42.2191 51.8589C42.2191 51.485 42.5221 51.182 42.8959 51.182H53.7419Z" fill="#1F2428" stroke="#F2F6FC" stroke-width="0.2"/>
<path d="M66.1882 53.9044H60.7931C59.1349 53.9044 57.7855 52.5547 57.7855 50.8958C57.7855 49.237 59.1349 47.8874 60.7931 47.8874H66.1882C67.8464 47.8874 69.1958 49.237 69.1958 50.8958C69.1958 52.5547 67.8464 53.9044 66.1882 53.9044ZM66.1882 49.241H60.7931C59.881 49.241 59.1391 49.9833 59.1391 50.8957C59.1391 51.8082 59.881 52.5506 60.7931 52.5506H66.1882C67.1003 52.5506 67.8422 51.8082 67.8422 50.8957C67.8422 49.9833 67.1003 49.241 66.1882 49.241Z" fill="#1F2428" stroke="#F2F6FC" stroke-width="0.2"/>
<path d="M31.8595 47.8872H37.2546C38.9128 47.8872 40.2621 49.237 40.2621 50.8957C40.2621 52.5546 38.9128 53.9043 37.2546 53.9043H31.8595C30.2013 53.9043 28.852 52.5546 28.852 50.8957C28.852 49.2369 30.2013 47.8872 31.8595 47.8872ZM31.8595 52.5506H37.2546C38.1668 52.5506 38.9086 51.8083 38.9086 50.8958C38.9086 49.9834 38.1667 49.2411 37.2546 49.2411H31.8595C30.9474 49.2411 30.2055 49.9833 30.2055 50.8958C30.2055 51.8083 30.9474 52.5506 31.8595 52.5506Z" fill="#1F2428" stroke="#F2F6FC" stroke-width="0.2"/>
<path d="M51.5722 42.2336H45.0658C44.692 42.2336 44.3891 41.9306 44.3891 41.5568C44.3891 41.1829 44.6921 40.8799 45.0658 40.8799H51.5722C51.946 40.8799 52.249 41.1829 52.249 41.5568C52.249 41.9306 51.946 42.2336 51.5722 42.2336Z" fill="#1F2428" stroke="#F2F6FC" stroke-width="0.2"/>
</svg>
