<svg width="100" height="100" viewBox="0 0 100 100" fill="none" xmlns="http://www.w3.org/2000/svg">
<rect width="100" height="100" rx="6" fill="#F2F6FC"/>
<path d="M42.2587 76.129C40.658 76.129 39.3555 74.8264 39.3555 73.2258C39.3555 71.6252 40.658 70.3226 42.2587 70.3226C43.8593 70.3226 45.1619 71.6252 45.1619 73.2258C45.1619 74.8264 43.8593 76.129 42.2587 76.129Z" fill="#3693E7"/>
<path d="M50.0004 76.129C48.3997 76.129 47.0972 74.8264 47.0972 73.2258C47.0972 71.6252 48.3997 70.3226 50.0004 70.3226C51.601 70.3226 52.9036 71.6252 52.9036 73.2258C52.9036 74.8264 51.601 76.129 50.0004 76.129Z" fill="#3693E7"/>
<path d="M57.7421 76.129C56.1414 76.129 54.8389 74.8264 54.8389 73.2258C54.8389 71.6252 56.1414 70.3226 57.7421 70.3226C59.3427 70.3226 60.6453 71.6252 60.6453 73.2258C60.6453 74.8264 59.3427 76.129 57.7421 76.129Z" fill="#3693E7"/>
<path d="M65.4854 61.6129H20.9692V65.4838H74.1273C72.0012 63.1119 68.9209 61.6129 65.4854 61.6129Z" fill="#3693E7"/>
<mask id="path-6-inside-1" fill="white">
<path d="M80 46.129C80 44.5284 78.6974 43.2258 77.0968 43.2258H67.4194L71.7742 37.4194H77.0968C78.6974 37.4194 80 36.1168 80 34.5161C80 32.9155 78.6974 31.6129 77.0968 31.6129H64.5161V20H52.9032V27.7419H62.5806V31.6129H50.5758C45.5358 31.6129 40.9981 34.6061 39.0132 39.2387L37.2935 43.2519C32.5381 43.5152 28.3235 46.4348 26.4316 50.8516L24.7226 54.8387H20V56.7742H21.9355V60.6452H20V65.7684L20.1539 66.0074C25.7861 74.7694 35.3677 80 45.7835 80H71.2903C73.9187 80 76.279 78.4652 77.3919 76.129H78.0645C79.1319 76.129 80 75.261 80 74.1935V72.2581C80 71.1906 79.1319 70.3226 78.0645 70.3226H77.7181C76.7755 66.3113 73.9768 63.1284 70.3226 61.6148V57.7419C70.3226 54.5494 69.2881 51.5319 67.401 49.0323H77.0968C78.6974 49.0323 80 47.7297 80 46.129ZM54.8387 25.8065V21.9355H62.5806V25.8065H54.8387ZM65 43.2258H64.5161V37.4194H69.3548L65 43.2258ZM43.6197 43.2258L44.3484 41.5245C45.4177 39.0306 47.8623 37.4194 50.5758 37.4194H62.5806V43.2258H43.6197ZM77.0968 33.5484C77.63 33.5484 78.0645 33.9819 78.0645 34.5161C78.0645 35.0503 77.63 35.4839 77.0968 35.4839H64.5161V33.5484H77.0968ZM50.5758 33.5484H62.5806V35.4839H50.5758C47.0881 35.4839 43.9448 37.5558 42.5697 40.7619L41.5139 43.2258H39.409L40.791 40.0003C42.471 36.081 46.311 33.5484 50.5758 33.5484ZM28.2094 51.6132C29.8894 47.6939 33.7303 45.1613 37.9942 45.1613H77.0968C77.63 45.1613 78.0645 45.5948 78.0645 46.129C78.0645 46.6632 77.63 47.0968 77.0968 47.0968H37.9942C34.5065 47.0968 31.3632 49.1687 29.989 52.3748L28.9323 54.8387H26.8274L28.2094 51.6132ZM64.5161 60.6452H47.0968V56.7742H49.0323V54.8387H31.0381L31.7677 53.1374C32.8361 50.6435 35.2806 49.0323 37.9942 49.0323H55.8064C60.6084 49.0323 64.5161 52.939 64.5161 57.7419V60.6452ZM33.5484 56.7742V60.6452H29.6774V56.7742H33.5484ZM35.4839 56.7742H39.3548V60.6452H35.4839V56.7742ZM41.2903 56.7742H45.1613V60.6452H41.2903V56.7742ZM23.871 56.7742H27.7419V60.6452H23.871V56.7742ZM78.0645 74.1935H68.3871L68.3861 72.2581H68.3871H78.0645V74.1935ZM75.7226 70.3226H68.3871C67.3197 70.3226 66.4516 71.1906 66.4516 72.2581V74.1935C66.4516 75.261 67.3197 76.129 68.3871 76.129H75.1594C74.2613 77.3232 72.8377 78.0645 71.2903 78.0645H45.7835C36.1235 78.0645 27.23 73.2597 21.9355 65.1974V62.5806H65.4839C70.3129 62.5806 74.4471 65.7761 75.7226 70.3226ZM68.3871 57.7419V60.9916C67.7571 60.8435 67.1126 60.7381 66.4516 60.6887V57.7419C66.4516 54.1419 64.6506 50.96 61.9081 49.0323H64.8665C67.1329 51.3858 68.3871 54.4594 68.3871 57.7419Z"/>
</mask>
<path d="M80 46.129C80 44.5284 78.6974 43.2258 77.0968 43.2258H67.4194L71.7742 37.4194H77.0968C78.6974 37.4194 80 36.1168 80 34.5161C80 32.9155 78.6974 31.6129 77.0968 31.6129H64.5161V20H52.9032V27.7419H62.5806V31.6129H50.5758C45.5358 31.6129 40.9981 34.6061 39.0132 39.2387L37.2935 43.2519C32.5381 43.5152 28.3235 46.4348 26.4316 50.8516L24.7226 54.8387H20V56.7742H21.9355V60.6452H20V65.7684L20.1539 66.0074C25.7861 74.7694 35.3677 80 45.7835 80H71.2903C73.9187 80 76.279 78.4652 77.3919 76.129H78.0645C79.1319 76.129 80 75.261 80 74.1935V72.2581C80 71.1906 79.1319 70.3226 78.0645 70.3226H77.7181C76.7755 66.3113 73.9768 63.1284 70.3226 61.6148V57.7419C70.3226 54.5494 69.2881 51.5319 67.401 49.0323H77.0968C78.6974 49.0323 80 47.7297 80 46.129ZM54.8387 25.8065V21.9355H62.5806V25.8065H54.8387ZM65 43.2258H64.5161V37.4194H69.3548L65 43.2258ZM43.6197 43.2258L44.3484 41.5245C45.4177 39.0306 47.8623 37.4194 50.5758 37.4194H62.5806V43.2258H43.6197ZM77.0968 33.5484C77.63 33.5484 78.0645 33.9819 78.0645 34.5161C78.0645 35.0503 77.63 35.4839 77.0968 35.4839H64.5161V33.5484H77.0968ZM50.5758 33.5484H62.5806V35.4839H50.5758C47.0881 35.4839 43.9448 37.5558 42.5697 40.7619L41.5139 43.2258H39.409L40.791 40.0003C42.471 36.081 46.311 33.5484 50.5758 33.5484ZM28.2094 51.6132C29.8894 47.6939 33.7303 45.1613 37.9942 45.1613H77.0968C77.63 45.1613 78.0645 45.5948 78.0645 46.129C78.0645 46.6632 77.63 47.0968 77.0968 47.0968H37.9942C34.5065 47.0968 31.3632 49.1687 29.989 52.3748L28.9323 54.8387H26.8274L28.2094 51.6132ZM64.5161 60.6452H47.0968V56.7742H49.0323V54.8387H31.0381L31.7677 53.1374C32.8361 50.6435 35.2806 49.0323 37.9942 49.0323H55.8064C60.6084 49.0323 64.5161 52.939 64.5161 57.7419V60.6452ZM33.5484 56.7742V60.6452H29.6774V56.7742H33.5484ZM35.4839 56.7742H39.3548V60.6452H35.4839V56.7742ZM41.2903 56.7742H45.1613V60.6452H41.2903V56.7742ZM23.871 56.7742H27.7419V60.6452H23.871V56.7742ZM78.0645 74.1935H68.3871L68.3861 72.2581H68.3871H78.0645V74.1935ZM75.7226 70.3226H68.3871C67.3197 70.3226 66.4516 71.1906 66.4516 72.2581V74.1935C66.4516 75.261 67.3197 76.129 68.3871 76.129H75.1594C74.2613 77.3232 72.8377 78.0645 71.2903 78.0645H45.7835C36.1235 78.0645 27.23 73.2597 21.9355 65.1974V62.5806H65.4839C70.3129 62.5806 74.4471 65.7761 75.7226 70.3226ZM68.3871 57.7419V60.9916C67.7571 60.8435 67.1126 60.7381 66.4516 60.6887V57.7419C66.4516 54.1419 64.6506 50.96 61.9081 49.0323H64.8665C67.1329 51.3858 68.3871 54.4594 68.3871 57.7419Z" fill="#1F2428" stroke="#F2F6FC" stroke-width="0.6" mask="url(#path-6-inside-1)"/>
</svg>
