<svg width="120" height="120" viewBox="0 0 120 120" fill="none" xmlns="http://www.w3.org/2000/svg">
<rect width="120" height="120" rx="6" fill="#F2F6FC"/>
<path d="M78.682 41.2021C78.5693 39.3696 77.041 37.9354 75.2051 37.9354H44.7305C42.8945 37.9354 41.3674 39.3696 41.2536 41.201L40.2281 57.6042H79.7074L78.682 41.2021Z" fill="#3693E7"/>
<path d="M39.0645 69.2903C36.5027 69.2903 34.4194 67.207 34.4194 64.6452C34.4194 62.0834 36.5027 60 39.0645 60C41.6263 60 43.7097 62.0834 43.7097 64.6452C43.7097 67.207 41.6263 69.2903 39.0645 69.2903Z" fill="#3693E7"/>
<path d="M80.871 69.2903C78.3092 69.2903 76.2258 67.207 76.2258 64.6452C76.2258 62.0834 78.3092 60 80.871 60C83.4328 60 85.5162 62.0834 85.5162 64.6452C85.5162 67.207 83.4328 69.2903 80.871 69.2903Z" fill="#3693E7"/>
<mask id="path-5-inside-1" fill="white">
<path d="M90.1613 78.1939V64.6452C90.1613 63.3968 89.871 62.2192 89.3658 61.1613H90.1613C92.0821 61.1613 93.6452 59.5982 93.6452 57.6774V50.7097C93.6452 48.7889 92.0821 47.2258 90.1613 47.2258H84.4768L83.6058 38.5185C83.3736 36.1947 81.8046 34.3332 79.7097 33.6178V30.9677H85.5161V24H34.4194V30.9677H40.2258V33.6178C38.1297 34.3332 36.5619 36.1947 36.3297 38.5185L35.4587 47.2258H29.7742C27.8534 47.2258 26.2903 48.7889 26.2903 50.7097V57.6774C26.2903 59.5982 27.8534 61.1613 29.7742 61.1613H30.5697C30.0645 62.2192 29.7742 63.3968 29.7742 64.6452V78.1939L26 83.2258L30.3548 89.0323H34.4194V92.5161C34.4194 94.4369 35.9825 96 37.9032 96H44.871C46.7917 96 48.3548 94.4369 48.3548 92.5161V89.0323H71.5807V92.5161C71.5807 94.4369 73.1437 96 75.0645 96H82.0323C83.953 96 85.5161 94.4369 85.5161 92.5161V89.0323H89.5807L93.9355 83.2258L90.1613 78.1939ZM90.1613 49.5484C90.8012 49.5484 91.3226 50.0698 91.3226 50.7097V57.6774C91.3226 58.3173 90.8012 58.8387 90.1613 58.8387H87.6889C87.0444 58.2116 86.3058 57.6844 85.4836 57.2954L84.709 49.5484H90.1613ZM36.7419 28.6452V26.3226H83.1936V28.6452H36.7419ZM77.3871 30.9677V33.2903H75.0645V30.9677H77.3871ZM72.7419 30.9677V33.2903H47.1936V30.9677H72.7419ZM44.871 30.9677V33.2903H42.5484V30.9677H44.871ZM38.6406 38.7507C38.8195 36.9623 40.3094 35.6129 42.1071 35.6129H77.8284C79.6261 35.6129 81.1172 36.9623 81.2948 38.7507L83.0786 56.5916C82.736 56.5463 82.3876 56.5161 82.0323 56.5161H58.7019C58.1468 53.2262 55.2854 50.7097 51.8387 50.7097C48.392 50.7097 45.5317 53.2262 44.9755 56.5161H37.9032C37.5479 56.5161 37.1995 56.5463 36.8569 56.5916L38.6406 38.7507ZM73.5037 58.8387L70.9652 67.301C70.8165 67.7957 70.3694 68.129 69.8526 68.129H50.0828C49.5661 68.129 49.119 67.7957 48.9703 67.3022L46.4317 58.8387H73.5037ZM47.3585 56.5161C47.8776 54.5187 49.681 53.0323 51.8387 53.0323C53.9964 53.0323 55.7999 54.5187 56.319 56.5161H47.3585ZM29.7742 58.8387C29.1343 58.8387 28.6129 58.3173 28.6129 57.6774V50.7097C28.6129 50.0698 29.1343 49.5484 29.7742 49.5484H35.2265L34.4519 57.2965C33.6297 57.6844 32.8911 58.2116 32.2466 58.8387H29.7742ZM31.5161 86.7097L29.7742 84.3871H33.2581V82.0645H29.7742L31.5161 79.7419H40.2258V82.0645H35.5806V84.3871H40.2258V86.7097H31.5161ZM46.0323 92.5161C46.0323 93.156 45.5108 93.6774 44.871 93.6774H37.9032C37.2634 93.6774 36.7419 93.156 36.7419 92.5161V89.0323H46.0323V92.5161ZM42.5484 86.7097V76.2581C42.5484 75.6182 43.0698 75.0968 43.7097 75.0968C44.3496 75.0968 44.871 75.6182 44.871 76.2581V86.7097H42.5484ZM72.7419 86.7097H47.1936V84.3871H72.7419V86.7097ZM72.7419 82.0645H47.1936V79.7419H72.7419V82.0645ZM51.8387 77.4194V75.0968H68.0968V77.4194H51.8387ZM72.7419 76.2581V77.4194H70.4194V72.7742H49.5161V77.4194H47.1936V76.2581C47.1936 74.3373 45.6305 72.7742 43.7097 72.7742C41.7889 72.7742 40.2258 74.3373 40.2258 76.2581V77.4194H32.0968V64.6452C32.0968 61.4435 34.7015 58.8387 37.9032 58.8387H44.007L46.7453 67.9688C47.1912 69.4541 48.5325 70.4516 50.0828 70.4516H69.8515C71.4018 70.4516 72.7431 69.4541 73.189 67.9688L75.9285 58.8387H82.0323C85.2339 58.8387 87.8387 61.4435 87.8387 64.6452V77.4194H79.7097V76.2581C79.7097 74.3373 78.1466 72.7742 76.2258 72.7742C74.305 72.7742 72.7419 74.3373 72.7419 76.2581ZM77.3871 76.2581V86.7097H75.0645V76.2581C75.0645 75.6182 75.5859 75.0968 76.2258 75.0968C76.8657 75.0968 77.3871 75.6182 77.3871 76.2581ZM83.1936 92.5161C83.1936 93.156 82.6721 93.6774 82.0323 93.6774H75.0645C74.4246 93.6774 73.9032 93.156 73.9032 92.5161V89.0323H83.1936V92.5161ZM90.1613 84.3871L88.4194 86.7097H79.7097V84.3871H85.5161V82.0645H79.7097V79.7419H88.4194L90.1613 82.0645H87.8387V84.3871H90.1613Z"/>
</mask>
<path d="M90.1613 78.1939V64.6452C90.1613 63.3968 89.871 62.2192 89.3658 61.1613H90.1613C92.0821 61.1613 93.6452 59.5982 93.6452 57.6774V50.7097C93.6452 48.7889 92.0821 47.2258 90.1613 47.2258H84.4768L83.6058 38.5185C83.3736 36.1947 81.8046 34.3332 79.7097 33.6178V30.9677H85.5161V24H34.4194V30.9677H40.2258V33.6178C38.1297 34.3332 36.5619 36.1947 36.3297 38.5185L35.4587 47.2258H29.7742C27.8534 47.2258 26.2903 48.7889 26.2903 50.7097V57.6774C26.2903 59.5982 27.8534 61.1613 29.7742 61.1613H30.5697C30.0645 62.2192 29.7742 63.3968 29.7742 64.6452V78.1939L26 83.2258L30.3548 89.0323H34.4194V92.5161C34.4194 94.4369 35.9825 96 37.9032 96H44.871C46.7917 96 48.3548 94.4369 48.3548 92.5161V89.0323H71.5807V92.5161C71.5807 94.4369 73.1437 96 75.0645 96H82.0323C83.953 96 85.5161 94.4369 85.5161 92.5161V89.0323H89.5807L93.9355 83.2258L90.1613 78.1939ZM90.1613 49.5484C90.8012 49.5484 91.3226 50.0698 91.3226 50.7097V57.6774C91.3226 58.3173 90.8012 58.8387 90.1613 58.8387H87.6889C87.0444 58.2116 86.3058 57.6844 85.4836 57.2954L84.709 49.5484H90.1613ZM36.7419 28.6452V26.3226H83.1936V28.6452H36.7419ZM77.3871 30.9677V33.2903H75.0645V30.9677H77.3871ZM72.7419 30.9677V33.2903H47.1936V30.9677H72.7419ZM44.871 30.9677V33.2903H42.5484V30.9677H44.871ZM38.6406 38.7507C38.8195 36.9623 40.3094 35.6129 42.1071 35.6129H77.8284C79.6261 35.6129 81.1172 36.9623 81.2948 38.7507L83.0786 56.5916C82.736 56.5463 82.3876 56.5161 82.0323 56.5161H58.7019C58.1468 53.2262 55.2854 50.7097 51.8387 50.7097C48.392 50.7097 45.5317 53.2262 44.9755 56.5161H37.9032C37.5479 56.5161 37.1995 56.5463 36.8569 56.5916L38.6406 38.7507ZM73.5037 58.8387L70.9652 67.301C70.8165 67.7957 70.3694 68.129 69.8526 68.129H50.0828C49.5661 68.129 49.119 67.7957 48.9703 67.3022L46.4317 58.8387H73.5037ZM47.3585 56.5161C47.8776 54.5187 49.681 53.0323 51.8387 53.0323C53.9964 53.0323 55.7999 54.5187 56.319 56.5161H47.3585ZM29.7742 58.8387C29.1343 58.8387 28.6129 58.3173 28.6129 57.6774V50.7097C28.6129 50.0698 29.1343 49.5484 29.7742 49.5484H35.2265L34.4519 57.2965C33.6297 57.6844 32.8911 58.2116 32.2466 58.8387H29.7742ZM31.5161 86.7097L29.7742 84.3871H33.2581V82.0645H29.7742L31.5161 79.7419H40.2258V82.0645H35.5806V84.3871H40.2258V86.7097H31.5161ZM46.0323 92.5161C46.0323 93.156 45.5108 93.6774 44.871 93.6774H37.9032C37.2634 93.6774 36.7419 93.156 36.7419 92.5161V89.0323H46.0323V92.5161ZM42.5484 86.7097V76.2581C42.5484 75.6182 43.0698 75.0968 43.7097 75.0968C44.3496 75.0968 44.871 75.6182 44.871 76.2581V86.7097H42.5484ZM72.7419 86.7097H47.1936V84.3871H72.7419V86.7097ZM72.7419 82.0645H47.1936V79.7419H72.7419V82.0645ZM51.8387 77.4194V75.0968H68.0968V77.4194H51.8387ZM72.7419 76.2581V77.4194H70.4194V72.7742H49.5161V77.4194H47.1936V76.2581C47.1936 74.3373 45.6305 72.7742 43.7097 72.7742C41.7889 72.7742 40.2258 74.3373 40.2258 76.2581V77.4194H32.0968V64.6452C32.0968 61.4435 34.7015 58.8387 37.9032 58.8387H44.007L46.7453 67.9688C47.1912 69.4541 48.5325 70.4516 50.0828 70.4516H69.8515C71.4018 70.4516 72.7431 69.4541 73.189 67.9688L75.9285 58.8387H82.0323C85.2339 58.8387 87.8387 61.4435 87.8387 64.6452V77.4194H79.7097V76.2581C79.7097 74.3373 78.1466 72.7742 76.2258 72.7742C74.305 72.7742 72.7419 74.3373 72.7419 76.2581ZM77.3871 76.2581V86.7097H75.0645V76.2581C75.0645 75.6182 75.5859 75.0968 76.2258 75.0968C76.8657 75.0968 77.3871 75.6182 77.3871 76.2581ZM83.1936 92.5161C83.1936 93.156 82.6721 93.6774 82.0323 93.6774H75.0645C74.4246 93.6774 73.9032 93.156 73.9032 92.5161V89.0323H83.1936V92.5161ZM90.1613 84.3871L88.4194 86.7097H79.7097V84.3871H85.5161V82.0645H79.7097V79.7419H88.4194L90.1613 82.0645H87.8387V84.3871H90.1613Z" fill="#1F2428" stroke="#F2F6FC" stroke-width="0.6" mask="url(#path-5-inside-1)"/>
</svg>
