<svg width="100" height="100" viewBox="0 0 100 100" fill="none" xmlns="http://www.w3.org/2000/svg">
<rect width="100" height="100" rx="6" fill="#F2F6FC"/>
<circle cx="33" cy="71" r="6" fill="#3693E7"/>
<circle cx="51.5" cy="71.5" r="5.5" fill="#3693E7"/>
<path d="M51.8119 72.8761C51.1823 72.8761 50.6703 72.3641 50.6703 71.7344C50.6703 71.1048 51.1823 70.5928 51.8119 70.5928C52.4415 70.5928 52.9535 71.1048 52.9535 71.7344L51.8119 72.8761ZM51.8119 72.8761C52.4415 72.8761 52.9536 72.364 52.9535 71.7344L51.8119 72.8761ZM54.2941 71.7343V71.7343C54.2941 73.103 53.1805 74.2166 51.8119 74.2166C50.4433 74.2166 49.3297 73.103 49.3297 71.7343C49.3297 70.3657 50.4432 69.2521 51.8119 69.2521C53.1806 69.2521 54.2942 70.3658 54.2941 71.7343Z" fill="#1F2428" stroke="#F2F6FC" stroke-width="0.3"/>
<path d="M32.7866 71.9701C32.1569 71.9701 31.6449 71.4581 31.6449 70.8284C31.6449 70.1988 32.1569 69.6868 32.7866 69.6868C33.4162 69.6868 33.9282 70.1988 33.9282 70.8284L32.7866 71.9701ZM32.7866 71.9701C33.4162 71.9701 33.9283 71.4581 33.9282 70.8284L32.7866 71.9701ZM35.2689 70.8284V70.8284C35.2689 72.1971 34.1552 73.3107 32.7866 73.3107C31.4181 73.3107 30.3043 72.1971 30.3043 70.8284C30.3043 69.4598 31.4179 68.3462 32.7866 68.3462C34.1553 68.3462 35.269 69.4599 35.2689 70.8284Z" fill="#1F2428" stroke="#F2F6FC" stroke-width="0.3"/>
<mask id="path-6-inside-1" fill="white">
<path d="M76.2738 69.1021H65.4019C65.3547 69.1021 65.3163 69.0636 65.3163 69.0165V47.2727C65.3163 46.3208 64.5419 45.5464 63.59 45.5464H61.7781C61.7492 45.5464 61.721 45.5494 61.6925 45.5508V31.9195C61.6925 31.4664 61.3253 31.0991 60.8722 31.0991C60.419 31.0991 60.0519 31.4664 60.0519 31.9195V47.2727V72.7262H58.0684V27.2646H60.0516V28.6383C60.0516 29.0913 60.4188 29.4586 60.872 29.4586C61.3251 29.4586 61.6923 29.0913 61.6923 28.6383V27.2646H61.8089C62.7437 27.2646 63.5042 26.5041 63.5042 25.5692V23.6953C63.5042 22.7605 62.7437 22 61.8089 22H56.311C55.3762 22 54.6157 22.7605 54.6157 23.6953V25.5692C54.6157 26.5041 55.3762 27.2646 56.311 27.2646H56.4276V44.4553L53.36 37.8865C53.3503 37.8661 53.3399 37.8461 53.3289 37.8266C52.2175 35.8823 50.1362 34.6745 47.897 34.6745H30.0683C29.6151 34.6745 29.248 35.0418 29.248 35.4948V39.1188C29.248 39.5718 29.6151 39.9391 30.0683 39.9391H31.0599V42.2101C31.0599 42.6632 31.427 43.0304 31.8802 43.0304C32.3333 43.0304 32.7005 42.6632 32.7005 42.2101V39.9391H34.6839V56.4183H32.7005V45.4655C32.7005 45.0124 32.3333 44.6452 31.8802 44.6452C31.427 44.6452 31.0599 45.0124 31.0599 45.4655V56.4183H27.0042C26.3461 56.4183 25.7544 56.7839 25.4602 57.3726L22.1819 63.9289C22.0629 64.1673 22 64.4341 22 64.7004V70.8285C22 71.7804 22.7744 72.5548 23.7263 72.5548H25.8356C26.6103 75.6727 29.432 77.9907 32.7864 77.9907C36.1405 77.9907 38.9622 75.6727 39.7369 72.5548H45.6115C46.0148 75.618 48.6406 77.9907 51.8122 77.9907C54.3219 77.9907 56.4898 76.5046 57.4857 74.3668H60.872H76.2737C77.2256 74.3668 78 73.5924 78 72.6405V70.8285C78.0001 69.8766 77.2257 69.1021 76.2738 69.1021ZM56.2563 25.5692V23.6953C56.2563 23.6651 56.2809 23.6406 56.311 23.6406H61.809C61.8391 23.6406 61.8637 23.6651 61.8637 23.6953V25.5692C61.8637 25.5994 61.8391 25.6239 61.809 25.6239H60.872H57.2479H56.311C56.2809 25.6239 56.2563 25.5994 56.2563 25.5692ZM31.8802 38.2984H30.8886V36.3151H47.8971C49.5384 36.3151 51.0646 37.1946 51.8884 38.6127L56.4277 48.3327V51.9912L50.2026 39.662C50.1962 39.6494 50.1895 39.637 50.1825 39.6247C49.715 38.8067 48.8393 38.2984 47.8971 38.2984H35.5042H31.8802ZM36.3245 39.9391H47.8971C48.246 39.9391 48.5708 40.1241 48.749 40.4233L56.4277 55.6315V60.0422H54.2645L52.6079 53.4157C52.498 52.976 52.0525 52.7092 51.613 52.8189C51.1734 52.9287 50.9063 53.3742 51.0162 53.8136L52.5733 60.0423H45.3844V50.8966C45.3844 49.9447 44.61 49.1703 43.6582 49.1703H40.0341C39.0822 49.1703 38.3078 49.9447 38.3078 50.8966V56.4182H36.3245V39.9391ZM43.1274 60.0422C43.1048 60.0422 43.0829 60.0332 43.0669 60.0172L39.9736 56.9239C39.9655 56.9159 39.9567 56.909 39.9485 56.9011V50.8966C39.9485 50.8494 39.987 50.811 40.0341 50.811H43.6582C43.7054 50.811 43.7438 50.8495 43.7438 50.8966V60.0422H43.1274ZM23.6496 64.662L26.9276 58.1062C26.9422 58.077 26.9715 58.0588 27.0042 58.0588H31.8802H35.5042H38.7529C38.7758 58.0588 38.7973 58.0678 38.8135 58.0839L41.9066 61.1769C42.2326 61.503 42.6661 61.6828 43.1274 61.6828H53.6208C53.6217 61.6828 53.6225 61.683 53.6233 61.683C53.6244 61.683 53.6256 61.6828 53.6268 61.6828H56.4277V67.516C55.283 66.2645 53.6378 65.4782 51.8121 65.4782C50.0989 65.4782 48.5449 66.1709 47.414 67.2901H39.1282C39.0896 67.2901 39.0518 67.2937 39.0146 67.2988C37.7817 65.1318 35.4527 63.6662 32.7864 63.6662C30.1224 63.6662 27.7951 65.1292 26.5614 67.2928C26.544 67.2917 26.5267 67.2902 26.509 67.2902H23.6406V64.7004C23.6406 64.6871 23.6438 64.6737 23.6496 64.662ZM23.7263 70.9141C23.679 70.9141 23.6406 70.8756 23.6406 70.8285V68.9308H25.8811C25.7146 69.5357 25.6239 70.1716 25.6239 70.8285C25.6239 70.8573 25.6258 70.8855 25.6261 70.9141H23.7263ZM32.7863 76.3501C29.7416 76.3501 27.2646 73.8731 27.2646 70.8285C27.2646 67.7839 29.7416 65.3069 32.7863 65.3069C35.8308 65.3069 38.3077 67.7839 38.3077 70.8285C38.3078 73.8731 35.8308 76.3501 32.7863 76.3501ZM39.6913 68.9308H46.2218C45.9141 69.5418 45.7041 70.2095 45.6114 70.9141H39.9463C39.9466 70.8855 39.9485 70.8571 39.9485 70.8285C39.9485 70.1715 39.8577 69.5356 39.6913 68.9308ZM51.812 76.3501C49.2669 76.3501 47.1964 74.2795 47.1964 71.7344C47.1964 69.1894 49.267 67.1188 51.812 67.1188C54.3571 67.1188 56.4276 69.1894 56.4276 71.7344C56.4277 74.2795 54.3571 76.3501 51.812 76.3501ZM61.778 47.187H63.5899C63.6372 47.187 63.6756 47.2255 63.6756 47.2727V50.9824H61.6923V47.2727C61.6923 47.2254 61.7308 47.187 61.778 47.187ZM76.3595 72.6404C76.3595 72.6877 76.321 72.726 76.2738 72.726H61.6923V52.6229H63.6756V69.0164C63.6756 69.9683 64.4499 70.7426 65.4018 70.7426H76.2737C76.321 70.7426 76.3594 70.7811 76.3594 70.8283V72.6404H76.3595Z"/>
</mask>
<path d="M76.2738 69.1021H65.4019C65.3547 69.1021 65.3163 69.0636 65.3163 69.0165V47.2727C65.3163 46.3208 64.5419 45.5464 63.59 45.5464H61.7781C61.7492 45.5464 61.721 45.5494 61.6925 45.5508V31.9195C61.6925 31.4664 61.3253 31.0991 60.8722 31.0991C60.419 31.0991 60.0519 31.4664 60.0519 31.9195V47.2727V72.7262H58.0684V27.2646H60.0516V28.6383C60.0516 29.0913 60.4188 29.4586 60.872 29.4586C61.3251 29.4586 61.6923 29.0913 61.6923 28.6383V27.2646H61.8089C62.7437 27.2646 63.5042 26.5041 63.5042 25.5692V23.6953C63.5042 22.7605 62.7437 22 61.8089 22H56.311C55.3762 22 54.6157 22.7605 54.6157 23.6953V25.5692C54.6157 26.5041 55.3762 27.2646 56.311 27.2646H56.4276V44.4553L53.36 37.8865C53.3503 37.8661 53.3399 37.8461 53.3289 37.8266C52.2175 35.8823 50.1362 34.6745 47.897 34.6745H30.0683C29.6151 34.6745 29.248 35.0418 29.248 35.4948V39.1188C29.248 39.5718 29.6151 39.9391 30.0683 39.9391H31.0599V42.2101C31.0599 42.6632 31.427 43.0304 31.8802 43.0304C32.3333 43.0304 32.7005 42.6632 32.7005 42.2101V39.9391H34.6839V56.4183H32.7005V45.4655C32.7005 45.0124 32.3333 44.6452 31.8802 44.6452C31.427 44.6452 31.0599 45.0124 31.0599 45.4655V56.4183H27.0042C26.3461 56.4183 25.7544 56.7839 25.4602 57.3726L22.1819 63.9289C22.0629 64.1673 22 64.4341 22 64.7004V70.8285C22 71.7804 22.7744 72.5548 23.7263 72.5548H25.8356C26.6103 75.6727 29.432 77.9907 32.7864 77.9907C36.1405 77.9907 38.9622 75.6727 39.7369 72.5548H45.6115C46.0148 75.618 48.6406 77.9907 51.8122 77.9907C54.3219 77.9907 56.4898 76.5046 57.4857 74.3668H60.872H76.2737C77.2256 74.3668 78 73.5924 78 72.6405V70.8285C78.0001 69.8766 77.2257 69.1021 76.2738 69.1021ZM56.2563 25.5692V23.6953C56.2563 23.6651 56.2809 23.6406 56.311 23.6406H61.809C61.8391 23.6406 61.8637 23.6651 61.8637 23.6953V25.5692C61.8637 25.5994 61.8391 25.6239 61.809 25.6239H60.872H57.2479H56.311C56.2809 25.6239 56.2563 25.5994 56.2563 25.5692ZM31.8802 38.2984H30.8886V36.3151H47.8971C49.5384 36.3151 51.0646 37.1946 51.8884 38.6127L56.4277 48.3327V51.9912L50.2026 39.662C50.1962 39.6494 50.1895 39.637 50.1825 39.6247C49.715 38.8067 48.8393 38.2984 47.8971 38.2984H35.5042H31.8802ZM36.3245 39.9391H47.8971C48.246 39.9391 48.5708 40.1241 48.749 40.4233L56.4277 55.6315V60.0422H54.2645L52.6079 53.4157C52.498 52.976 52.0525 52.7092 51.613 52.8189C51.1734 52.9287 50.9063 53.3742 51.0162 53.8136L52.5733 60.0423H45.3844V50.8966C45.3844 49.9447 44.61 49.1703 43.6582 49.1703H40.0341C39.0822 49.1703 38.3078 49.9447 38.3078 50.8966V56.4182H36.3245V39.9391ZM43.1274 60.0422C43.1048 60.0422 43.0829 60.0332 43.0669 60.0172L39.9736 56.9239C39.9655 56.9159 39.9567 56.909 39.9485 56.9011V50.8966C39.9485 50.8494 39.987 50.811 40.0341 50.811H43.6582C43.7054 50.811 43.7438 50.8495 43.7438 50.8966V60.0422H43.1274ZM23.6496 64.662L26.9276 58.1062C26.9422 58.077 26.9715 58.0588 27.0042 58.0588H31.8802H35.5042H38.7529C38.7758 58.0588 38.7973 58.0678 38.8135 58.0839L41.9066 61.1769C42.2326 61.503 42.6661 61.6828 43.1274 61.6828H53.6208C53.6217 61.6828 53.6225 61.683 53.6233 61.683C53.6244 61.683 53.6256 61.6828 53.6268 61.6828H56.4277V67.516C55.283 66.2645 53.6378 65.4782 51.8121 65.4782C50.0989 65.4782 48.5449 66.1709 47.414 67.2901H39.1282C39.0896 67.2901 39.0518 67.2937 39.0146 67.2988C37.7817 65.1318 35.4527 63.6662 32.7864 63.6662C30.1224 63.6662 27.7951 65.1292 26.5614 67.2928C26.544 67.2917 26.5267 67.2902 26.509 67.2902H23.6406V64.7004C23.6406 64.6871 23.6438 64.6737 23.6496 64.662ZM23.7263 70.9141C23.679 70.9141 23.6406 70.8756 23.6406 70.8285V68.9308H25.8811C25.7146 69.5357 25.6239 70.1716 25.6239 70.8285C25.6239 70.8573 25.6258 70.8855 25.6261 70.9141H23.7263ZM32.7863 76.3501C29.7416 76.3501 27.2646 73.8731 27.2646 70.8285C27.2646 67.7839 29.7416 65.3069 32.7863 65.3069C35.8308 65.3069 38.3077 67.7839 38.3077 70.8285C38.3078 73.8731 35.8308 76.3501 32.7863 76.3501ZM39.6913 68.9308H46.2218C45.9141 69.5418 45.7041 70.2095 45.6114 70.9141H39.9463C39.9466 70.8855 39.9485 70.8571 39.9485 70.8285C39.9485 70.1715 39.8577 69.5356 39.6913 68.9308ZM51.812 76.3501C49.2669 76.3501 47.1964 74.2795 47.1964 71.7344C47.1964 69.1894 49.267 67.1188 51.812 67.1188C54.3571 67.1188 56.4276 69.1894 56.4276 71.7344C56.4277 74.2795 54.3571 76.3501 51.812 76.3501ZM61.778 47.187H63.5899C63.6372 47.187 63.6756 47.2255 63.6756 47.2727V50.9824H61.6923V47.2727C61.6923 47.2254 61.7308 47.187 61.778 47.187ZM76.3595 72.6404C76.3595 72.6877 76.321 72.726 76.2738 72.726H61.6923V52.6229H63.6756V69.0164C63.6756 69.9683 64.4499 70.7426 65.4018 70.7426H76.2737C76.321 70.7426 76.3594 70.7811 76.3594 70.8283V72.6404H76.3595Z" fill="#1F2428" stroke="#F2F6FC" stroke-width="0.6" mask="url(#path-6-inside-1)"/>
<path d="M35.5033 61.5329H33.6914C33.3212 61.5329 33.0211 61.2327 33.0211 60.8626C33.0211 60.4923 33.3211 60.1922 33.6914 60.1922H35.5033C35.8736 60.1922 36.1736 60.4923 36.1736 60.8626C36.1736 61.2328 35.8736 61.5329 35.5033 61.5329Z" fill="#1F2428" stroke="#F2F6FC" stroke-width="0.3"/>
</svg>
