<svg width="100" height="100" viewBox="0 0 100 100" fill="none" xmlns="http://www.w3.org/2000/svg">
<rect width="100" height="100" rx="6" fill="#F2F6FC"/>
<path d="M39.6397 40.4462L41.0083 39.0776L30.3636 28.4329L28.995 29.8014L39.6397 40.4462Z" fill="#3693E7"/>
<path d="M52.904 41.6935H45.1621C44.6279 41.6935 44.1943 42.127 44.1943 42.6612V48.4676H53.8718V42.6612C53.8718 42.127 53.4382 41.6935 52.904 41.6935Z" fill="#3693E7"/>
<path d="M61.6127 75.5645C63.7505 75.5645 65.4836 73.8314 65.4836 71.6936C65.4836 69.5557 63.7505 67.8226 61.6127 67.8226C59.4748 67.8226 57.7417 69.5557 57.7417 71.6936C57.7417 73.8314 59.4748 75.5645 61.6127 75.5645Z" fill="#3693E7"/>
<path d="M51.9349 75.5645C54.0728 75.5645 55.8059 73.8314 55.8059 71.6936C55.8059 69.5557 54.0728 67.8226 51.9349 67.8226C49.7971 67.8226 48.064 69.5557 48.064 71.6936C48.064 73.8314 49.7971 75.5645 51.9349 75.5645Z" fill="#3693E7"/>
<path d="M38.3876 75.5645C40.5254 75.5645 42.2585 73.8314 42.2585 71.6936C42.2585 69.5557 40.5254 67.8226 38.3876 67.8226C36.2497 67.8226 34.5166 69.5557 34.5166 71.6936C34.5166 73.8314 36.2497 75.5645 38.3876 75.5645Z" fill="#3693E7"/>
<mask id="path-7-inside-1" fill="white">
<path d="M74.1403 71.8329L73.1639 57.1774H69.3548H68.3871H65.2148C64.879 56.6016 64.2616 56.2097 63.5484 56.2097V51.371C63.5484 50.3035 62.6803 49.4355 61.6129 49.4355H60.5077L58.8248 38.4961C58.6787 37.5448 57.8735 36.8548 56.9116 36.8548H56.7742V32.0161H58.7097V29.1129C58.7097 27.5123 57.4071 26.2097 55.8064 26.2097C54.2058 26.2097 52.9032 27.5123 52.9032 29.1129V32.0161H54.8387V36.8548H44.5942L34.4048 26.6655C35.0813 25.7161 35.4839 24.5587 35.4839 23.3065C35.4839 20.1042 32.8797 17.5 29.6774 17.5C27.5203 17.5 25.5684 18.7029 24.5648 20.5852C22.5006 21.1368 20.9677 23.0055 20.9677 25.2419C20.9677 26.5455 21.0152 27.8694 21.109 29.1768L22.8316 53.3064H20V59.1129H21.561L20 63.7948V70.0155L24.2774 77.5H28.1426L32.5806 73.0619V71.6935V69.7581H28.7097V59.1129H31.6129V53.3064H28.7813L29.9106 37.4887L38.2739 45.8519L36.7197 56.2097H36.4516C35.3842 56.2097 34.5161 57.0777 34.5161 58.1452V62.0161C34.5161 63.0835 35.3842 63.9516 36.4516 63.9516H37.4194V65.9742C34.6777 66.4368 32.5806 68.8213 32.5806 71.6935C32.5806 74.8958 35.1848 77.5 38.3871 77.5H61.6129C64.8152 77.5 67.4194 74.8958 67.4194 71.6935C67.4194 68.8223 65.3223 66.4377 62.5806 65.9742V63.9516H63.5484C64.2616 63.9516 64.879 63.5597 65.2148 62.9839H68.3871V75.5645C68.3871 76.6319 69.2552 77.5 70.3226 77.5H80V72.8094L74.1403 71.8329ZM54.8387 29.1129C54.8387 28.5797 55.2723 28.1452 55.8064 28.1452C56.3406 28.1452 56.7742 28.5797 56.7742 29.1129V30.0806H54.8387V29.1129ZM71.3523 59.1129L72.23 72.2877L70.3226 74.1961V59.1129H71.3523ZM29.6774 19.4355C31.8123 19.4355 33.5484 21.1716 33.5484 23.3065C33.5484 25.1171 32.2942 26.6287 30.6123 27.0497C30.6326 26.4458 30.6452 25.841 30.6452 25.2419C30.6452 22.9745 29.0716 21.0806 26.9639 20.559C27.6752 19.8565 28.64 19.4355 29.6774 19.4355ZM30.6452 71.6935V72.2606L28.7097 74.1961V71.6935H30.6452ZM26.7742 75.5645H25.4L21.9355 69.5006V64.1084L23.6 59.1129H26.7742V75.5645ZM29.6774 57.1774H21.9355V55.2419H29.6774V57.1774ZM24.7719 53.3064L23.0387 29.0394C22.9487 27.7774 22.9032 26.499 22.9032 25.2419C22.9032 23.6413 24.2058 22.3387 25.8065 22.3387C27.4071 22.3387 28.7097 23.6413 28.7097 25.2419C28.7097 26.499 28.6642 27.7774 28.5742 29.0394L26.841 53.3064H24.7719ZM30.0935 34.9348L30.5048 29.1777C30.5077 29.1342 30.5087 29.0897 30.5116 29.0461C31.4426 28.9116 32.3029 28.5574 33.0365 28.0339L41.8574 36.8548H41.2903C40.3265 36.8548 39.5213 37.5477 39.3752 38.5029L38.63 43.4713L30.0935 34.9348ZM41.2903 38.7903H56.9126L58.8471 51.371H61.6129V56.2097H54.8387V42.6613C54.8387 41.5939 53.9706 40.7258 52.9032 40.7258H45.1613C44.0939 40.7258 43.2258 41.5939 43.2258 42.6613V48.0671L41.2903 50.0026V56.2097H38.6774L41.2903 38.7903ZM44.5942 49.4355H49.0323V47.5H45.1613V42.6613H52.9032V47.5H50.9677V49.4355H52.9032V56.2097H43.2258V50.8039L44.5942 49.4355ZM65.4839 71.6935C65.4839 73.8284 63.7477 75.5645 61.6129 75.5645H38.3871C36.2523 75.5645 34.5161 73.8284 34.5161 71.6935C34.5161 69.5587 36.2523 67.8226 38.3871 67.8226H61.6129C63.7477 67.8226 65.4839 69.5587 65.4839 71.6935ZM60.6452 65.8871H39.3548V63.9516H60.6452V65.8871ZM36.4516 62.0161V58.1452H63.5484L63.5494 62.0161H36.4516ZM65.4839 61.0484V59.1129H68.3871V61.0484H65.4839ZM78.0645 75.5645H71.691L73.5577 73.6977L78.0645 74.4487V75.5645Z"/>
</mask>
<path d="M74.1403 71.8329L73.1639 57.1774H69.3548H68.3871H65.2148C64.879 56.6016 64.2616 56.2097 63.5484 56.2097V51.371C63.5484 50.3035 62.6803 49.4355 61.6129 49.4355H60.5077L58.8248 38.4961C58.6787 37.5448 57.8735 36.8548 56.9116 36.8548H56.7742V32.0161H58.7097V29.1129C58.7097 27.5123 57.4071 26.2097 55.8064 26.2097C54.2058 26.2097 52.9032 27.5123 52.9032 29.1129V32.0161H54.8387V36.8548H44.5942L34.4048 26.6655C35.0813 25.7161 35.4839 24.5587 35.4839 23.3065C35.4839 20.1042 32.8797 17.5 29.6774 17.5C27.5203 17.5 25.5684 18.7029 24.5648 20.5852C22.5006 21.1368 20.9677 23.0055 20.9677 25.2419C20.9677 26.5455 21.0152 27.8694 21.109 29.1768L22.8316 53.3064H20V59.1129H21.561L20 63.7948V70.0155L24.2774 77.5H28.1426L32.5806 73.0619V71.6935V69.7581H28.7097V59.1129H31.6129V53.3064H28.7813L29.9106 37.4887L38.2739 45.8519L36.7197 56.2097H36.4516C35.3842 56.2097 34.5161 57.0777 34.5161 58.1452V62.0161C34.5161 63.0835 35.3842 63.9516 36.4516 63.9516H37.4194V65.9742C34.6777 66.4368 32.5806 68.8213 32.5806 71.6935C32.5806 74.8958 35.1848 77.5 38.3871 77.5H61.6129C64.8152 77.5 67.4194 74.8958 67.4194 71.6935C67.4194 68.8223 65.3223 66.4377 62.5806 65.9742V63.9516H63.5484C64.2616 63.9516 64.879 63.5597 65.2148 62.9839H68.3871V75.5645C68.3871 76.6319 69.2552 77.5 70.3226 77.5H80V72.8094L74.1403 71.8329ZM54.8387 29.1129C54.8387 28.5797 55.2723 28.1452 55.8064 28.1452C56.3406 28.1452 56.7742 28.5797 56.7742 29.1129V30.0806H54.8387V29.1129ZM71.3523 59.1129L72.23 72.2877L70.3226 74.1961V59.1129H71.3523ZM29.6774 19.4355C31.8123 19.4355 33.5484 21.1716 33.5484 23.3065C33.5484 25.1171 32.2942 26.6287 30.6123 27.0497C30.6326 26.4458 30.6452 25.841 30.6452 25.2419C30.6452 22.9745 29.0716 21.0806 26.9639 20.559C27.6752 19.8565 28.64 19.4355 29.6774 19.4355ZM30.6452 71.6935V72.2606L28.7097 74.1961V71.6935H30.6452ZM26.7742 75.5645H25.4L21.9355 69.5006V64.1084L23.6 59.1129H26.7742V75.5645ZM29.6774 57.1774H21.9355V55.2419H29.6774V57.1774ZM24.7719 53.3064L23.0387 29.0394C22.9487 27.7774 22.9032 26.499 22.9032 25.2419C22.9032 23.6413 24.2058 22.3387 25.8065 22.3387C27.4071 22.3387 28.7097 23.6413 28.7097 25.2419C28.7097 26.499 28.6642 27.7774 28.5742 29.0394L26.841 53.3064H24.7719ZM30.0935 34.9348L30.5048 29.1777C30.5077 29.1342 30.5087 29.0897 30.5116 29.0461C31.4426 28.9116 32.3029 28.5574 33.0365 28.0339L41.8574 36.8548H41.2903C40.3265 36.8548 39.5213 37.5477 39.3752 38.5029L38.63 43.4713L30.0935 34.9348ZM41.2903 38.7903H56.9126L58.8471 51.371H61.6129V56.2097H54.8387V42.6613C54.8387 41.5939 53.9706 40.7258 52.9032 40.7258H45.1613C44.0939 40.7258 43.2258 41.5939 43.2258 42.6613V48.0671L41.2903 50.0026V56.2097H38.6774L41.2903 38.7903ZM44.5942 49.4355H49.0323V47.5H45.1613V42.6613H52.9032V47.5H50.9677V49.4355H52.9032V56.2097H43.2258V50.8039L44.5942 49.4355ZM65.4839 71.6935C65.4839 73.8284 63.7477 75.5645 61.6129 75.5645H38.3871C36.2523 75.5645 34.5161 73.8284 34.5161 71.6935C34.5161 69.5587 36.2523 67.8226 38.3871 67.8226H61.6129C63.7477 67.8226 65.4839 69.5587 65.4839 71.6935ZM60.6452 65.8871H39.3548V63.9516H60.6452V65.8871ZM36.4516 62.0161V58.1452H63.5484L63.5494 62.0161H36.4516ZM65.4839 61.0484V59.1129H68.3871V61.0484H65.4839ZM78.0645 75.5645H71.691L73.5577 73.6977L78.0645 74.4487V75.5645Z" fill="#1F2428" stroke="#F2F6FC" stroke-width="0.6" mask="url(#path-7-inside-1)"/>
</svg>
