<svg width="16" height="15" viewBox="0 0 16 15" fill="none" xmlns="http://www.w3.org/2000/svg">
<path d="M14.8926 14.4647C13.968 14.4427 13.0654 14.4427 12.1408 14.4647C11.9426 14.4647 11.8986 14.4207 11.8986 14.2225C11.8986 12.5934 11.8986 10.9423 11.8986 9.31321C11.8986 8.93895 11.8766 8.5647 11.7665 8.21246C11.4363 7.06768 10.1154 6.6494 9.16875 7.41992C8.66241 7.81619 8.46427 8.36657 8.46427 9.02701C8.46427 10.5681 8.46427 12.1091 8.46427 13.6502C8.46427 13.8483 8.44226 14.0464 8.46427 14.2666C8.48629 14.4427 8.39823 14.4867 8.24412 14.4647C7.29748 14.4647 6.37285 14.4647 5.4262 14.4647C5.25008 14.4647 5.20605 14.4207 5.20605 14.2446C5.22807 12.8576 5.22807 11.4707 5.22807 10.0617C5.22807 8.34455 5.22807 6.62738 5.20605 4.93223C5.20605 4.73409 5.25008 4.69006 5.4262 4.69006C6.37285 4.69006 7.29748 4.69006 8.24412 4.69006C8.42024 4.69006 8.46427 4.73409 8.46427 4.91021C8.46427 5.26245 8.46427 5.61469 8.46427 6.03298C8.53032 5.96693 8.55233 5.94492 8.57435 5.9229C9.43293 4.66805 10.6438 4.31581 12.0747 4.53596C13.7259 4.80014 14.7826 5.94492 15.0467 7.70612C15.1128 8.1244 15.1348 8.54269 15.1348 8.96097C15.1348 10.7222 15.1348 12.4614 15.1348 14.2225C15.1348 14.3987 15.0908 14.4647 14.8926 14.4647Z" fill="#1F2428"/>
<path d="M3.44485 9.57738C3.44485 11.1184 3.44485 12.6595 3.44485 14.2005C3.44485 14.3987 3.40082 14.4647 3.20269 14.4647C2.27806 14.4427 1.35343 14.4647 0.428798 14.4647C0.252679 14.4647 0.208649 14.4207 0.208649 14.2446C0.208649 11.1404 0.208649 8.01432 0.208649 4.91021C0.208649 4.7561 0.252679 4.69006 0.428798 4.69006C1.37544 4.69006 2.32209 4.69006 3.26873 4.69006C3.46686 4.69006 3.48888 4.7561 3.48888 4.93222C3.44485 6.47327 3.44485 8.01432 3.44485 9.57738Z" fill="#1F2428"/>
<path d="M3.59896 2.13632C3.37881 3.01692 2.47619 3.52327 1.44149 3.34715C0.340742 3.17103 -0.275678 2.09229 0.120592 1.03558C0.384771 0.375126 1.02321 -0.0211431 1.83776 0.000871841C3.0706 -0.0211431 3.88515 0.969531 3.59896 2.13632Z" fill="#1F2428"/>
</svg>
