<svg width="42" height="42" viewBox="0 0 42 42" fill="none" xmlns="http://www.w3.org/2000/svg">
<rect width="42" height="42" rx="21" fill="#0077B5"/>
<path d="M30.9395 28.2225C29.842 28.1964 28.7706 28.1964 27.673 28.2225C27.4378 28.2225 27.3856 28.1702 27.3856 27.9351C27.3856 26.0013 27.3856 24.0414 27.3856 22.1076C27.3856 21.6634 27.3594 21.2191 27.2288 20.801C26.8368 19.4421 25.2689 18.9456 24.1452 19.8602C23.5441 20.3306 23.309 20.9839 23.309 21.7679C23.309 23.5971 23.309 25.4264 23.309 27.2556C23.309 27.4908 23.2828 27.726 23.309 27.9873C23.3351 28.1964 23.2306 28.2486 23.0476 28.2225C21.924 28.2225 20.8264 28.2225 19.7027 28.2225C19.4937 28.2225 19.4414 28.1702 19.4414 27.9612C19.4675 26.3149 19.4675 24.6685 19.4675 22.9961C19.4675 20.9578 19.4675 18.9195 19.4414 16.9073C19.4414 16.6721 19.4937 16.6199 19.7027 16.6199C20.8264 16.6199 21.924 16.6199 23.0476 16.6199C23.2567 16.6199 23.309 16.6721 23.309 16.8812C23.309 17.2993 23.309 17.7174 23.309 18.2139C23.3874 18.1355 23.4135 18.1094 23.4396 18.0833C24.4588 16.5937 25.896 16.1756 27.5946 16.4369C29.5545 16.7505 30.8089 18.1094 31.1224 20.2C31.2008 20.6965 31.227 21.193 31.227 21.6895C31.227 23.7801 31.227 25.8445 31.227 27.9351C31.227 28.1441 31.1747 28.2225 30.9395 28.2225Z" fill="white"/>
<path d="M17.3531 22.4212C17.3531 24.2504 17.3531 26.0797 17.3531 27.9089C17.3531 28.1441 17.3009 28.2225 17.0657 28.2225C15.9681 28.1964 14.8706 28.2225 13.773 28.2225C13.564 28.2225 13.5117 28.1703 13.5117 27.9612C13.5117 24.2766 13.5117 20.5658 13.5117 16.8812C13.5117 16.6983 13.564 16.6199 13.773 16.6199C14.8967 16.6199 16.0204 16.6199 17.1441 16.6199C17.3793 16.6199 17.4054 16.6983 17.4054 16.9073C17.3531 18.7366 17.3531 20.5658 17.3531 22.4212Z" fill="white"/>
<path d="M17.5357 13.5885C17.2744 14.6337 16.2029 15.2348 14.9747 15.0257C13.6681 14.8167 12.9364 13.5362 13.4068 12.2819C13.7204 11.4979 14.4782 11.0275 15.4451 11.0536C16.9085 11.0275 17.8754 12.2035 17.5357 13.5885Z" fill="white"/>
</svg>
