<svg width="17" height="78" viewBox="0 0 17 78" fill="none" xmlns="http://www.w3.org/2000/svg">
<path d="M4 29L8.5 34L13 29" stroke="#F07440" stroke-width="1.5" stroke-linejoin="round"/>
<path d="M4 43L8.5 48L13 43" stroke="#F07440" stroke-width="1.5" stroke-linejoin="round"/>
<path d="M8.19694 0.00542314C3.96361 0.153961 0.446752 3.45675 0.0404573 7.6726C-0.0425492 8.51578 0.00550733 9.33274 0.154045 10.1147C0.154045 10.1147 0.167152 10.2065 0.210839 10.3812C0.341902 10.9667 0.538497 11.5346 0.783147 12.0676C1.63506 14.086 3.60537 17.463 8.02656 21.1371C8.29742 21.3643 8.69498 21.3643 8.97021 21.1371C13.3914 17.4674 15.3617 14.0903 16.218 12.0632C16.467 11.5302 16.6592 10.9667 16.7903 10.3769C16.8296 10.2065 16.8471 10.1104 16.8471 10.1104C16.9476 9.58612 17 9.04877 17 8.4983C17 3.7014 13.0288 -0.164959 8.19694 0.00542314ZM8.49839 12.7273C6.21789 12.7273 4.3699 10.8793 4.3699 8.59878C4.3699 6.31829 6.21789 4.4703 8.49839 4.4703C10.7789 4.4703 12.6269 6.31829 12.6269 8.59878C12.6269 10.8793 10.7789 12.7273 8.49839 12.7273Z" fill="#3693E7"/>
<path d="M8.19694 56.0054C3.96361 56.154 0.446752 59.4567 0.0404573 63.6726C-0.0425492 64.5158 0.00550733 65.3327 0.154045 66.1147C0.154045 66.1147 0.167152 66.2065 0.210839 66.3812C0.341902 66.9667 0.538497 67.5346 0.783147 68.0676C1.63506 70.086 3.60537 73.463 8.02656 77.1371C8.29742 77.3643 8.69498 77.3643 8.97021 77.1371C13.3914 73.4674 15.3617 70.0903 16.218 68.0632C16.467 67.5302 16.6592 66.9667 16.7903 66.3769C16.8296 66.2065 16.8471 66.1104 16.8471 66.1104C16.9476 65.5861 17 65.0488 17 64.4983C17 59.7014 13.0288 55.835 8.19694 56.0054ZM8.49839 68.7273C6.21789 68.7273 4.3699 66.8793 4.3699 64.5988C4.3699 62.3183 6.21789 60.4703 8.49839 60.4703C10.7789 60.4703 12.6269 62.3183 12.6269 64.5988C12.6269 66.8793 10.7789 68.7273 8.49839 68.7273Z" fill="#3693E7"/>
</svg>
