<svg width="111" height="34" viewBox="0 0 111 34" fill="none" xmlns="http://www.w3.org/2000/svg">
<path d="M10.0446 2.90851H6.70771V20.7035H3.68931V2.90851H0.352386V0.197494H10.0446V2.90851ZM6.82568 33.8008H3.51403V25.2509H4.77296V32.6597H6.82568V33.8008ZM18.1072 33.1243C18.1055 33.5736 17.883 33.7991 17.4398 33.8008H14.5242C14.081 33.7991 13.8585 33.5736 13.8568 33.1243V25.9291C13.8585 25.4798 14.081 25.2543 14.5242 25.2526H17.4398C17.883 25.2543 18.1055 25.4798 18.1072 25.9291V33.1243ZM16.8482 32.7041V26.3476H15.1157V32.7041H16.8482ZM29.5741 33.1243C29.5724 33.5736 29.3499 33.7991 28.9067 33.8008H26.0686C25.6254 33.7991 25.4029 33.5736 25.4012 33.1243V25.9291C25.4029 25.4798 25.6304 25.2543 26.0854 25.2526H28.9067C29.3499 25.2543 29.5724 25.4798 29.5741 25.9291V27.8594H28.305V26.3476H26.6601V32.7041H28.305V30.2971H27.3663V29.2124H29.5741V33.1226V33.1243ZM38.1405 33.8008H36.8816V25.2509H38.1405V33.8008ZM49.4978 33.1243C49.4978 33.5736 49.2754 33.7991 48.8304 33.8008H46.1036C45.6587 33.7991 45.4362 33.5736 45.4362 33.1243V30.9924H46.6952V32.7263H48.2406V31.0471L45.7109 28.6213C45.5289 28.442 45.4362 28.2148 45.4362 27.938V25.9274C45.4362 25.4781 45.6587 25.2526 46.1036 25.2509H48.8304C49.2754 25.2526 49.4978 25.4747 49.4978 25.9171V27.938H48.2389V26.3271H46.6935V27.8765L49.2231 30.292C49.4051 30.468 49.4978 30.6986 49.4978 30.9856V33.1243ZM60.4456 26.3818H59.0553V33.8008H57.7963V26.3818H56.4059V25.2509H60.4456V26.3818ZM68.6481 33.8008H67.3891V25.2509H68.6481V33.8008ZM80.1149 33.1243C80.1132 33.5736 79.8908 33.7991 79.4476 33.8008H76.6314C76.1881 33.7991 75.9657 33.5736 75.964 33.1243V25.9291C75.9657 25.4798 76.1881 25.2543 76.6314 25.2526H79.4476C79.8908 25.2543 80.1132 25.4798 80.1149 25.9291V28.0508H78.856V26.3493H77.2213V32.7058H78.856V30.9155H80.1149V33.126V33.1243ZM91.4268 33.1243C91.4268 33.5736 91.2043 33.7991 90.7594 33.8008H88.0325C87.5876 33.7991 87.3652 33.5736 87.3652 33.1243V30.9924H88.6241V32.7263H90.1695V31.0471L87.6399 28.6213C87.4578 28.442 87.3652 28.2148 87.3652 27.938V25.9274C87.3652 25.4781 87.5876 25.2526 88.0325 25.2509H90.7594C91.2043 25.2526 91.4268 25.4747 91.4268 25.9171V27.938H90.1678V26.3271H88.6224V27.8765L91.1521 30.292C91.3341 30.468 91.4268 30.6986 91.4268 30.9856V33.1243ZM21.9396 20.7035H18.788L15.4511 11.1714C15.4511 11.1714 15.4511 10.5547 15.4511 9.32475H18.4173V2.82993H14.6034V20.7052H11.585V0.199203H19.8329C20.9014 0.204328 21.4357 0.745847 21.4357 1.82376V9.7689C21.4357 10.512 21.1492 10.9989 20.5711 11.2226C20.2576 11.3354 19.6037 11.3935 18.6026 11.3935L21.9396 20.7069V20.7035ZM33.9087 19.079C33.9036 20.1569 33.3711 20.6984 32.3059 20.7035H25.3945C24.331 20.6984 23.7968 20.1586 23.7917 19.079V0.195786H26.8101V18.0728H30.8886V0.195786H33.907V19.079H33.9087ZM46.3058 19.079C46.3008 20.1569 45.7682 20.6984 44.7031 20.7035H37.9501C36.8866 20.6984 36.3524 20.1586 36.3473 19.079V1.82035C36.3524 0.742431 36.8849 0.20091 37.9501 0.195786H44.7031C45.7665 0.20091 46.3008 0.742431 46.3058 1.82035V6.90585H43.2875V2.82651H39.3691V18.0728H43.2875V13.7782H46.3058V19.079ZM58.88 20.7035H55.5431L51.7039 11.5694V20.7035H48.6855V0.197494H51.7039V8.88061L55.0661 0.197494H58.3761V0.340988L54.2454 10.0883L58.88 20.7035ZM75.2494 19.079C75.2494 20.1569 74.7152 20.6984 73.6467 20.7035H67.106C66.0375 20.6984 65.5033 20.1586 65.5033 19.079V13.9661H68.5217V18.1257H72.2293V14.0994L66.1605 8.2793C65.724 7.85052 65.5033 7.30388 65.5033 6.64278V1.82035C65.5033 0.742431 66.0375 0.20091 67.106 0.195786H73.6467C74.7152 0.20091 75.2494 0.732181 75.2494 1.79301V6.63765H72.231V2.77185H68.5233V6.48904L74.5922 12.2818C75.0287 12.702 75.2494 13.2572 75.2494 13.9456V19.0772V19.079ZM87.4309 11.6446C87.4258 12.7225 86.8916 13.264 85.8281 13.2691H80.6778V20.7035H77.6594V0.197494H85.8281C86.8916 0.202619 87.4258 0.744139 87.4309 1.82205V11.6463V11.6446ZM84.3855 10.6384V2.82822H80.6778V10.6384H84.3855ZM99.7741 19.0807C99.7691 20.1586 99.2365 20.7001 98.1714 20.7052H91.1807C90.1173 20.7001 89.583 20.1603 89.578 19.0807V1.82205C89.583 0.744139 90.1156 0.202619 91.1807 0.197494H98.1714C99.2348 0.202619 99.7691 0.744139 99.7741 1.82205V19.0807ZM96.7557 18.0745V2.82822H92.5981V18.0745H96.7557ZM111.002 2.91022H107.665V20.7052H104.646V2.91022H101.309V0.199203H111.002V2.91022Z" fill="#1F2428"/>
</svg>
