<svg width="53" height="62" viewBox="0 0 53 62" fill="none" xmlns="http://www.w3.org/2000/svg">
<path fill-rule="evenodd" clip-rule="evenodd" d="M0 28.8697L20.903 16.6368V32.9763H21.0984L32.2603 26.4457V16.589L52.9576 28.7006V15.4086L26.6263 0L26.6229 0.00683306L26.6195 0L0 15.5777V28.8697Z" fill="#F07440"/>
<path fill-rule="evenodd" clip-rule="evenodd" d="M11.5023 38.2704L18.3834 34.2423V20.9503L0 31.7089C0 36.6321 0 41.5553 0 46.4786C4.20654 48.9402 8.43668 51.4274 12.6618 53.901L40.5082 37.6058L41.7435 38.3284V39.789L15.1442 55.3547L26.5016 61.9999L52.9576 46.5179C52.9576 41.5451 52.9576 36.5723 52.9576 31.5996L34.4697 20.747V27.8465L12.6719 40.6038L11.5006 39.9188V38.2704H11.5023Z" fill="#3693E7"/>
</svg>
