<svg width="121" height="37" viewBox="0 0 121 37" fill="none" xmlns="http://www.w3.org/2000/svg">
<path d="M10.599 3.64518H6.9488V22.8586H3.64627V3.64518H-0.00390625V0.719907H10.5944V3.64518H10.599ZM23.6079 22.8586H20.1635L16.5133 12.5675C16.5133 12.5675 16.5133 11.8991 16.5133 10.5715H19.7564V3.5582H15.5848V22.8586H12.2823V0.715332H21.3025C22.4689 0.71991 23.0544 1.30588 23.0544 2.46866V11.0476C23.0544 11.8487 22.7388 12.3752 22.1075 12.6178C21.7645 12.7369 21.0509 12.8009 19.9531 12.8009L23.6033 22.8586H23.6079ZM36.6945 21.1052C36.6899 22.268 36.1044 22.854 34.9426 22.8586H27.3861C26.2243 22.854 25.6388 22.268 25.6342 21.1052V0.715332H28.9367V20.0157H33.3965V0.715332H36.6991V21.1052H36.6945ZM50.2523 21.1052C50.2477 22.268 49.6622 22.854 48.5004 22.8586H41.1177C39.9559 22.854 39.3704 22.268 39.3658 21.1052V2.46866C39.3704 1.30588 39.9559 0.71991 41.1177 0.715332H48.5004C49.6622 0.71991 50.2477 1.30588 50.2523 2.46866V7.96213H46.9497V3.5582H42.6638V20.0203H46.9497V15.3829H50.2523V21.1052ZM64.0022 22.8586H60.352L56.1529 12.9932V22.8586H52.8504V0.715332H56.1529V10.0908L59.8306 0.715332H63.4487V0.870978L58.9294 11.3955L63.9976 22.8586H64.0022ZM81.9054 21.1052C81.9054 22.268 81.3199 22.854 80.1535 22.8586H72.9995C71.8331 22.854 71.2476 22.268 71.2476 21.1052V15.5843H74.5502V20.0752H78.6029V15.7262L71.9658 9.44078C71.4901 8.97842 71.2476 8.38787 71.2476 7.67372V2.46866C71.2476 1.30588 71.8331 0.71991 72.9995 0.715332H80.1535C81.3199 0.71991 81.9054 1.29672 81.9054 2.44119V7.67372H78.6029V3.49869H74.5502V7.51349L81.1873 13.7669C81.663 14.2201 81.9054 14.8198 81.9054 15.5614V21.1007V21.1052ZM95.2253 13.0756C95.2207 14.2384 94.6353 14.8244 93.4734 14.829H87.8426V22.8586H84.5401V0.715332H93.4734C94.6353 0.71991 95.2207 1.30588 95.2253 2.46866V13.0756ZM91.8953 11.9907V3.5582H87.8426V11.9907H91.8953ZM108.724 21.1052C108.719 22.268 108.134 22.854 106.972 22.8586H99.3283C98.1665 22.854 97.581 22.268 97.5764 21.1052V2.46866C97.581 1.30588 98.1665 0.71991 99.3283 0.715332H106.972C108.134 0.71991 108.719 1.30588 108.724 2.46866V21.1052ZM105.421 20.0203V3.5582H100.874V20.0203H105.421ZM121.001 3.64518H117.35V22.8586H114.048V3.64518H110.398V0.719907H120.996V3.64518H121.001Z" fill="#1F2428"/>
<path d="M16.0505 36.9987H12.4277V27.7651H13.8046V35.7627H16.0505V36.9942V36.9987ZM28.3869 36.2663C28.3869 36.7515 28.1399 36.9942 27.6551 36.9987H24.4669C23.982 36.9987 23.7396 36.7515 23.735 36.2663V28.4976C23.735 28.0123 23.982 27.7697 24.4669 27.7651H27.6551C28.1399 27.7651 28.3824 28.0123 28.3869 28.4976V36.2663ZM27.0101 35.8131V28.9508H25.1164V35.8131H27.0101ZM40.9293 36.2663C40.9293 36.7515 40.6823 36.9942 40.1974 36.9987H37.0961C36.6113 36.9987 36.3688 36.7515 36.3643 36.2663V28.4976C36.3643 28.0123 36.6158 27.7697 37.1144 27.7651H40.1974C40.6823 27.7651 40.9247 28.0123 40.9293 28.4976V30.5805H39.5387V28.9508H37.7411V35.8131H39.5387V33.2128H38.5141V32.0409H40.9293V36.2617V36.2663ZM50.2971 36.9987H48.9203V27.7651H50.2971V36.9987ZM62.7159 36.2663C62.7159 36.7515 62.4735 36.9942 61.9841 36.9987H59.0017C58.5169 36.9987 58.2699 36.7515 58.2699 36.2663V33.9636H59.6467V35.836H61.3391V34.0231L58.5718 31.4046C58.3705 31.2123 58.2699 30.9651 58.2699 30.6675V28.4976C58.2699 28.0123 58.5123 27.7697 59.0017 27.7651H61.9841C62.4735 27.7651 62.7159 28.0078 62.7159 28.4839V30.6629H61.3391V28.9233H59.6467V30.5988L62.4141 33.2082C62.6107 33.3959 62.7159 33.6477 62.7159 33.959V36.2709V36.2663ZM74.6865 28.9874H73.1679V36.9987H71.7911V28.9874H70.2724V27.7651H74.6911V28.9874H74.6865ZM83.6564 36.9987H82.2796V27.7651H83.6564V36.9987ZM96.1987 36.2663C96.1987 36.7515 95.9517 36.9942 95.4669 36.9987H92.3885C91.9036 36.9987 91.6612 36.7515 91.6566 36.2663V28.4976C91.6566 28.0123 91.9036 27.7697 92.3885 27.7651H95.4669C95.9517 27.7651 96.1942 28.0123 96.1987 28.4976V30.7865H94.8219V28.9508H93.0334V35.8131H94.8219V33.8812H96.1987V36.2663ZM108.567 36.2663C108.567 36.7515 108.325 36.9942 107.835 36.9987H104.853C104.364 36.9987 104.121 36.7515 104.121 36.2663V33.9636H105.498V35.836H107.19V34.0231L104.423 31.4046C104.222 31.2123 104.121 30.9651 104.121 30.6675V28.4976C104.121 28.0123 104.364 27.7697 104.853 27.7651H107.835C108.32 27.7651 108.567 28.0078 108.567 28.4839V30.6629H107.19V28.9233H105.498V30.5988L108.265 33.2082C108.467 33.3959 108.567 33.6477 108.567 33.959V36.2709V36.2663Z" fill="#1F2428"/>
</svg>
