<svg width="100" height="100" viewBox="0 0 100 100" fill="none" xmlns="http://www.w3.org/2000/svg">
<rect width="100" height="100" rx="6" fill="#F2F6FC"/>
<path d="M66.4519 60.6451C61.9067 60.6451 58.0286 63.7402 57.0212 68.1721L57.0202 68.3871H62.1089C62.8598 66.6666 64.5533 65.5264 66.4935 65.5264C69.1392 65.5264 71.2906 67.6778 71.2906 70.3226C71.2906 72.9673 69.1392 75.1187 66.4945 75.1187C64.5533 75.1187 62.8607 73.9785 62.1098 72.258H56.9971L57.0212 72.473C58.0286 76.9049 61.9067 80 66.4519 80C71.7882 80 76.1293 75.6588 76.1293 70.3226C76.1293 64.9863 71.7882 60.6451 66.4519 60.6451Z" fill="#3693E7"/>
<path d="M35.3454 62.4885L35.1219 62.3987L33.2668 67.098C34.0582 67.9788 34.5161 69.1256 34.5161 70.3226C34.5161 72.9905 32.3453 75.1613 29.6774 75.1613C27.0095 75.1613 24.8387 72.9905 24.8387 70.3226C24.8387 67.7931 26.7973 65.7333 29.2739 65.5245L31.1659 60.7949L31.164 60.794L30.9315 60.734C30.4632 60.673 30.0635 60.6451 29.6774 60.6451C24.3411 60.6451 20 64.9863 20 70.3226C20 75.6588 24.3411 80 29.6774 80C35.0137 80 39.3548 75.6588 39.3548 70.3226C39.3548 67.2374 37.856 64.3091 35.3454 62.4885Z" fill="#3693E7"/>
<path d="M60.6445 54.8388H43.2251V51.9355C43.2251 48.2011 46.2639 45.1613 49.9993 45.1613H53.8703C57.6056 45.1613 60.6445 48.2011 60.6445 51.9355V54.8388Z" fill="#3693E7"/>
<mask id="path-5-inside-1" fill="white">
<path d="M79.9987 44.1935H77.8694L66.2565 49.0322H65.9664L64.8961 47.6047C61.931 43.6506 57.2095 41.2903 52.2659 41.2903C49.0668 41.2903 46.0143 42.2396 43.4248 43.9988L46.7859 35.4838H54.8374C56.4378 35.4838 57.7406 34.181 57.7406 32.5806C57.7406 30.9801 56.4378 29.6774 54.8374 29.6774H49.0309V24.8387H47.0954V29.6774H44.5348C43.3417 29.6774 42.2827 30.3937 41.8385 31.5027L40.1644 35.687C39.457 34.9688 38.4845 34.5161 37.418 34.5161H29.6761V42.258H37.418C37.4596 42.258 37.4993 42.2495 37.5409 42.2471L28.5718 64.6711C25.8566 65.1918 23.8696 67.5053 23.8696 70.3225C23.8696 73.5249 26.4737 76.129 29.6761 76.129C32.8784 76.129 35.4825 73.5249 35.4825 70.3225C35.4825 69.1138 35.0752 67.9485 34.3607 66.9605L38.5696 56.2997C40.2031 57.0992 41.289 58.7781 41.289 60.6451V68.387C41.289 71.0549 43.4598 73.2257 46.1277 73.2257H61.4391C62.4701 75.0034 64.3669 76.129 66.4503 76.129C69.6526 76.129 72.2567 73.5249 72.2567 70.3225C72.2567 67.1202 69.6526 64.5161 66.4503 64.5161C64.3669 64.5161 62.4701 65.6416 61.4391 67.4193H55.4356L54.8374 66.2233C54.7424 66.0334 54.6342 65.8543 54.5179 65.6823C55.6251 64.9825 56.4052 63.8597 56.6675 62.5659C56.7034 62.5669 56.7369 62.5806 56.7729 62.5806C58.3733 62.5806 59.6761 61.2778 59.6761 59.6774C59.6761 58.0769 58.3733 56.7741 56.7729 56.7741C55.9743 56.7741 55.2362 57.1082 54.7027 57.6559C53.9169 57.104 52.9647 56.7741 51.9341 56.7741C49.2662 56.7741 47.0954 58.9449 47.0954 61.6128C47.0954 62.5003 47.343 63.3565 47.7981 64.1031C46.2402 64.9069 45.16 66.5153 45.16 68.387C45.16 69.4805 45.5384 70.4794 46.1527 71.2903H46.1277C44.5272 71.2903 43.2245 69.9875 43.2245 68.387V60.6451C43.2245 57.981 41.6462 55.5857 39.2817 54.4942L41.9047 47.8504L42.4717 47.2824C45.0872 44.6665 48.5664 43.2257 52.2659 43.2257C56.6027 43.2257 60.7454 45.2978 63.3476 48.7662L64.9987 50.9677H66.644L77.5415 46.4271L73.7839 51.0518L67.8225 53.0388C65.8445 53.6975 64.5148 55.5432 64.5148 57.6285V60.8445C65.1418 60.7188 65.7873 60.6451 66.4503 60.6451C67.0939 60.6451 67.7228 60.7108 68.3314 60.8318L72.8772 55.2375L77.4942 63.5483H79.9987V58.1501C79.9987 56.4249 79.4926 54.7545 78.5352 53.3195L76.6881 50.5476L79.9987 46.4725V44.1935ZM66.4503 66.4516C68.5852 66.4516 70.3212 68.1876 70.3212 70.3225C70.3212 72.4574 68.5852 74.1935 66.4503 74.1935C65.491 74.1935 64.5885 73.8372 63.8953 73.2257H65.4825C67.083 73.2257 68.3858 71.923 68.3858 70.3225C68.3858 68.7221 67.083 67.4193 65.4825 67.4193H63.8953C64.5885 66.8078 65.491 66.4516 66.4503 66.4516ZM56.7729 58.7096C57.3059 58.7096 57.7406 59.1434 57.7406 59.6774C57.7406 60.2444 57.218 60.682 56.6703 60.6257C56.5531 60.0653 56.3287 59.5469 56.0352 59.0754C56.2143 58.8537 56.4785 58.7096 56.7729 58.7096ZM49.0309 61.6128C49.0309 60.0124 50.3337 58.7096 51.9341 58.7096C53.5346 58.7096 54.8374 60.0124 54.8374 61.6128C54.8374 62.7857 54.1234 63.8233 53.0597 64.2694C52.3108 63.8059 51.4337 63.5483 50.5095 63.5483H49.9987C49.9415 63.5483 49.8886 63.563 49.8314 63.5649C49.3281 63.0285 49.0309 62.3405 49.0309 61.6128ZM47.0954 68.387C47.0954 66.7866 48.3982 65.4838 49.9987 65.4838H50.5095C51.6166 65.4838 52.6118 66.0995 53.106 67.0885L54.2391 69.3548H65.4825C66.0155 69.3548 66.4503 69.7886 66.4503 70.3225C66.4503 70.8565 66.0155 71.2903 65.4825 71.2903H49.9987C48.3982 71.2903 47.0954 69.9875 47.0954 68.387ZM43.6356 32.2215C43.7839 31.8519 44.1369 31.6128 44.5348 31.6128H54.8374C55.3704 31.6128 55.8051 32.0466 55.8051 32.5806C55.8051 33.1145 55.3704 33.5483 54.8374 33.5483H45.4695L31.1168 69.9072C31.0176 70.16 30.7785 70.3225 30.5073 70.3225H29.3633C29.0027 70.3225 28.7083 70.0281 28.7083 69.6676C28.7083 69.583 28.7239 69.5017 28.7546 69.4257L43.6356 32.2215ZM31.6116 36.4516H33.547V40.3225H31.6116V36.4516ZM37.418 40.3225H35.4825V36.4516H37.418C38.3007 36.4516 39.0615 37.0592 39.2826 37.8937L38.4382 40.005C38.1301 40.1997 37.7875 40.3225 37.418 40.3225ZM33.547 70.3225C33.547 72.4574 31.811 74.1935 29.6761 74.1935C27.5412 74.1935 25.8051 72.4574 25.8051 70.3225C25.8051 68.9522 26.5191 67.7647 27.6069 67.0824L26.9586 68.7036C26.8348 69.0122 26.7729 69.3354 26.7729 69.6676C26.7729 71.0956 27.9353 72.258 29.3633 72.258H30.5073C31.5775 72.258 32.524 71.6144 32.9172 70.6188L33.4086 69.3742C33.4899 69.6837 33.547 69.9993 33.547 70.3225ZM66.4503 60.0781V57.6285C66.4503 56.3772 67.2479 55.2701 68.4349 54.8736L71.5125 53.8478L66.4503 60.0781ZM76.9253 54.3926C77.6691 55.5082 78.0632 56.8082 78.0632 58.1501V60.5879L74.1922 53.6205L75.4104 52.1202L76.9253 54.3926Z"/>
</mask>
<path d="M79.9987 44.1935H77.8694L66.2565 49.0322H65.9664L64.8961 47.6047C61.931 43.6506 57.2095 41.2903 52.2659 41.2903C49.0668 41.2903 46.0143 42.2396 43.4248 43.9988L46.7859 35.4838H54.8374C56.4378 35.4838 57.7406 34.181 57.7406 32.5806C57.7406 30.9801 56.4378 29.6774 54.8374 29.6774H49.0309V24.8387H47.0954V29.6774H44.5348C43.3417 29.6774 42.2827 30.3937 41.8385 31.5027L40.1644 35.687C39.457 34.9688 38.4845 34.5161 37.418 34.5161H29.6761V42.258H37.418C37.4596 42.258 37.4993 42.2495 37.5409 42.2471L28.5718 64.6711C25.8566 65.1918 23.8696 67.5053 23.8696 70.3225C23.8696 73.5249 26.4737 76.129 29.6761 76.129C32.8784 76.129 35.4825 73.5249 35.4825 70.3225C35.4825 69.1138 35.0752 67.9485 34.3607 66.9605L38.5696 56.2997C40.2031 57.0992 41.289 58.7781 41.289 60.6451V68.387C41.289 71.0549 43.4598 73.2257 46.1277 73.2257H61.4391C62.4701 75.0034 64.3669 76.129 66.4503 76.129C69.6526 76.129 72.2567 73.5249 72.2567 70.3225C72.2567 67.1202 69.6526 64.5161 66.4503 64.5161C64.3669 64.5161 62.4701 65.6416 61.4391 67.4193H55.4356L54.8374 66.2233C54.7424 66.0334 54.6342 65.8543 54.5179 65.6823C55.6251 64.9825 56.4052 63.8597 56.6675 62.5659C56.7034 62.5669 56.7369 62.5806 56.7729 62.5806C58.3733 62.5806 59.6761 61.2778 59.6761 59.6774C59.6761 58.0769 58.3733 56.7741 56.7729 56.7741C55.9743 56.7741 55.2362 57.1082 54.7027 57.6559C53.9169 57.104 52.9647 56.7741 51.9341 56.7741C49.2662 56.7741 47.0954 58.9449 47.0954 61.6128C47.0954 62.5003 47.343 63.3565 47.7981 64.1031C46.2402 64.9069 45.16 66.5153 45.16 68.387C45.16 69.4805 45.5384 70.4794 46.1527 71.2903H46.1277C44.5272 71.2903 43.2245 69.9875 43.2245 68.387V60.6451C43.2245 57.981 41.6462 55.5857 39.2817 54.4942L41.9047 47.8504L42.4717 47.2824C45.0872 44.6665 48.5664 43.2257 52.2659 43.2257C56.6027 43.2257 60.7454 45.2978 63.3476 48.7662L64.9987 50.9677H66.644L77.5415 46.4271L73.7839 51.0518L67.8225 53.0388C65.8445 53.6975 64.5148 55.5432 64.5148 57.6285V60.8445C65.1418 60.7188 65.7873 60.6451 66.4503 60.6451C67.0939 60.6451 67.7228 60.7108 68.3314 60.8318L72.8772 55.2375L77.4942 63.5483H79.9987V58.1501C79.9987 56.4249 79.4926 54.7545 78.5352 53.3195L76.6881 50.5476L79.9987 46.4725V44.1935ZM66.4503 66.4516C68.5852 66.4516 70.3212 68.1876 70.3212 70.3225C70.3212 72.4574 68.5852 74.1935 66.4503 74.1935C65.491 74.1935 64.5885 73.8372 63.8953 73.2257H65.4825C67.083 73.2257 68.3858 71.923 68.3858 70.3225C68.3858 68.7221 67.083 67.4193 65.4825 67.4193H63.8953C64.5885 66.8078 65.491 66.4516 66.4503 66.4516ZM56.7729 58.7096C57.3059 58.7096 57.7406 59.1434 57.7406 59.6774C57.7406 60.2444 57.218 60.682 56.6703 60.6257C56.5531 60.0653 56.3287 59.5469 56.0352 59.0754C56.2143 58.8537 56.4785 58.7096 56.7729 58.7096ZM49.0309 61.6128C49.0309 60.0124 50.3337 58.7096 51.9341 58.7096C53.5346 58.7096 54.8374 60.0124 54.8374 61.6128C54.8374 62.7857 54.1234 63.8233 53.0597 64.2694C52.3108 63.8059 51.4337 63.5483 50.5095 63.5483H49.9987C49.9415 63.5483 49.8886 63.563 49.8314 63.5649C49.3281 63.0285 49.0309 62.3405 49.0309 61.6128ZM47.0954 68.387C47.0954 66.7866 48.3982 65.4838 49.9987 65.4838H50.5095C51.6166 65.4838 52.6118 66.0995 53.106 67.0885L54.2391 69.3548H65.4825C66.0155 69.3548 66.4503 69.7886 66.4503 70.3225C66.4503 70.8565 66.0155 71.2903 65.4825 71.2903H49.9987C48.3982 71.2903 47.0954 69.9875 47.0954 68.387ZM43.6356 32.2215C43.7839 31.8519 44.1369 31.6128 44.5348 31.6128H54.8374C55.3704 31.6128 55.8051 32.0466 55.8051 32.5806C55.8051 33.1145 55.3704 33.5483 54.8374 33.5483H45.4695L31.1168 69.9072C31.0176 70.16 30.7785 70.3225 30.5073 70.3225H29.3633C29.0027 70.3225 28.7083 70.0281 28.7083 69.6676C28.7083 69.583 28.7239 69.5017 28.7546 69.4257L43.6356 32.2215ZM31.6116 36.4516H33.547V40.3225H31.6116V36.4516ZM37.418 40.3225H35.4825V36.4516H37.418C38.3007 36.4516 39.0615 37.0592 39.2826 37.8937L38.4382 40.005C38.1301 40.1997 37.7875 40.3225 37.418 40.3225ZM33.547 70.3225C33.547 72.4574 31.811 74.1935 29.6761 74.1935C27.5412 74.1935 25.8051 72.4574 25.8051 70.3225C25.8051 68.9522 26.5191 67.7647 27.6069 67.0824L26.9586 68.7036C26.8348 69.0122 26.7729 69.3354 26.7729 69.6676C26.7729 71.0956 27.9353 72.258 29.3633 72.258H30.5073C31.5775 72.258 32.524 71.6144 32.9172 70.6188L33.4086 69.3742C33.4899 69.6837 33.547 69.9993 33.547 70.3225ZM66.4503 60.0781V57.6285C66.4503 56.3772 67.2479 55.2701 68.4349 54.8736L71.5125 53.8478L66.4503 60.0781ZM76.9253 54.3926C77.6691 55.5082 78.0632 56.8082 78.0632 58.1501V60.5879L74.1922 53.6205L75.4104 52.1202L76.9253 54.3926Z" fill="#1F2428" stroke="#F2F6FC" stroke-width="0.6" mask="url(#path-5-inside-1)"/>
<path d="M53.8714 25.8065H47.0972V22.9032C47.0972 21.3028 48.3999 20 50.0004 20H56.7746V22.9032C56.7746 24.5037 55.4718 25.8065 53.8714 25.8065Z" fill="#3693E7"/>
</svg>
