<svg width="96" height="96" viewBox="0 0 96 96" fill="none" xmlns="http://www.w3.org/2000/svg">
<rect width="96" height="96" rx="6" transform="matrix(-1 0 0 1 96 0)" fill="#F2F6FC"/>
<circle cx="29.5939" cy="62.5939" r="5.59392" fill="#3693E7"/>
<circle cx="40.5939" cy="62.5939" r="5.59392" fill="#3693E7"/>
<circle cx="65.5939" cy="62.5939" r="5.59392" fill="#3693E7"/>
<path d="M63.5465 62.5602V62.5601C63.5465 62.4248 63.5625 62.2877 63.5946 62.1563C63.7008 61.7143 63.3671 61.2841 62.9075 61.2841C62.5809 61.2841 62.2998 61.5058 62.2226 61.8241L62.1254 61.8006L62.2226 61.824C62.1644 62.0647 62.1352 62.3124 62.1352 62.5601C62.1352 64.2909 63.537 65.6827 65.2578 65.6827C66.9818 65.6827 68.3805 64.2877 68.3805 62.5601C68.3805 60.8312 66.9806 59.4374 65.2578 59.4374C64.8683 59.4374 64.5521 59.7547 64.5521 60.1431C64.5521 60.5326 64.8682 60.8487 65.2578 60.8487L65.258 60.8487C66.2006 60.851 66.9669 61.6177 66.9691 62.5598L66.9691 62.5603C66.9669 63.5027 66.2007 64.2705 65.2579 64.2714H65.2577C64.315 64.2705 63.5478 63.5028 63.5465 62.5602Z" fill="#1F2428" stroke="#F2F6FC" stroke-width="0.2"/>
<path d="M39.307 62.1799L39.2098 62.1565C39.301 61.7782 39.0674 61.3951 38.6894 61.3036C38.3128 61.2131 37.9308 61.4403 37.8378 61.8253L37.8378 61.8254C37.7797 62.0647 37.7504 62.3123 37.7504 62.5599C37.7524 64.2878 39.1479 65.6827 40.873 65.6827C42.6007 65.6827 43.9957 64.2845 43.9957 62.5601C43.9957 61.7263 43.6709 60.9415 43.0809 60.3523L43.0808 60.3522C42.4916 59.7621 41.708 59.4374 40.873 59.4374C40.4847 59.4374 40.1674 59.7548 40.1674 60.1431C40.1674 60.5325 40.4846 60.8487 40.873 60.8487L40.8733 60.8487C41.8157 60.851 42.583 61.6177 42.5844 62.5599L42.5844 62.5602C42.583 63.5028 41.8158 64.2705 40.8731 64.2714H40.873C39.9315 64.2705 39.1639 63.5027 39.1617 62.5603V62.5601C39.1617 62.4235 39.1777 62.2875 39.2099 62.1561L39.307 62.1799ZM39.307 62.1799C39.2768 62.3033 39.2617 62.4312 39.2617 62.5601M39.307 62.1799C39.4111 61.7481 39.1446 61.3109 38.7129 61.2064C38.2832 61.1031 37.8468 61.3625 37.7406 61.8018L39.2617 62.5601M39.2617 62.5601C39.2638 63.4475 39.9868 64.1705 40.873 64.1714C41.7605 64.1705 42.4831 63.4475 42.4844 62.5601H39.2617Z" fill="#1F2428" stroke="#F2F6FC" stroke-width="0.2"/>
<path d="M28.0277 62.1799L27.9305 62.1565C28.0217 61.7782 27.7881 61.3951 27.4101 61.3036C27.0335 61.2131 26.6516 61.4403 26.5585 61.8253L26.5585 61.8254C26.5004 62.0647 26.4711 62.3123 26.4711 62.5599C26.4731 64.2878 27.8686 65.6827 29.5938 65.6827C31.3214 65.6827 32.7164 64.2845 32.7164 62.5601C32.7164 60.836 31.321 59.4374 29.5938 59.4374C29.2054 59.4374 28.8881 59.7548 28.8881 60.1431C28.8881 60.5325 29.2053 60.8487 29.5938 60.8487L29.594 60.8487C30.5365 60.851 31.3037 61.6177 31.3051 62.5599L31.3051 62.5602C31.3037 63.5028 30.5365 64.2705 29.5938 64.2714H29.5937C28.6522 64.2705 27.8847 63.5027 27.8824 62.5603V62.5601C27.8824 62.4235 27.8984 62.2875 27.9306 62.1561L28.0277 62.1799ZM28.0277 62.1799C27.9975 62.3033 27.9824 62.4312 27.9824 62.5601M28.0277 62.1799C28.1318 61.7481 27.8653 61.3109 27.4336 61.2064C27.0039 61.1031 26.5675 61.3625 26.4613 61.8018L27.9824 62.5601M27.9824 62.5601C27.9845 63.4475 28.7075 64.1705 29.5938 64.1714C30.4812 64.1705 31.2038 63.4475 31.2051 62.5601H27.9824Z" fill="#1F2428" stroke="#F2F6FC" stroke-width="0.2"/>
<path d="M47.7948 56.2147V56.1147C47.7948 55.2285 47.7948 33.8309 47.7943 32.651L47.7948 56.2147ZM47.7948 56.2147H47.6948M47.7948 56.2147H47.6948M47.6948 56.2147H47.6904H47.6855H47.6802H47.6743H47.668H47.6612H47.6539H47.6462H47.6379H47.6292H47.62H47.6103H47.6002H47.5896H47.5785H47.567H47.555H47.5425H47.5296H47.5162H47.5024H47.4881H47.4734H47.4582H47.4426H47.4265H47.41H47.393H47.3756H47.3578H47.3395H47.3208H47.3017H47.2821H47.2621H47.2417H47.2208H47.1996H47.1779H47.1558H47.1332H47.1103H47.0869H47.0632H47.039H47.0144H46.9894H46.964H46.9382H46.912H46.8854H46.8584H46.831H46.8033H46.7751H46.7465H46.7176H46.6883H46.6586H46.6285H46.598H46.5672H46.5359H46.5043H46.4724H46.44H46.4073H46.3743H46.3408H46.307H46.2729H46.2383H46.2035H46.1682H46.1327H46.0967H46.0605H46.0238H45.9869H45.9496H45.9119H45.8739H45.8356H45.7969H45.7579H45.7186H45.6789H45.6389H45.5986H45.558H45.517H45.4757H45.4341H45.3922H45.35H45.3075H45.2646H45.2214H45.178H45.1342H45.0901H45.0457H45.0011H44.9561H44.9108H44.8653H44.8194H44.7733H44.7268H44.6801H44.6331H44.5858H44.5382H44.4904H44.4423H44.3939H44.3452H44.2963H44.2471H44.1976H44.1478H44.0978H44.0476H43.997H43.9462H43.8952H43.8439H43.7924H43.7406H43.6885H43.6362H43.5837H43.5309H43.4779H43.4246H43.3712H43.3174H43.2635H43.2093H43.1549H43.1002H43.0453H42.9902H42.9349H42.8794H42.8236H42.7676H42.7115H42.6551H42.5984H42.5416H42.4846H42.4274H42.3699H42.3123H42.2545H42.1965H42.1382H42.0798H42.0212H41.9624H41.9034H41.8443H41.7849H41.7254H41.6657H41.6058H41.5457H41.4855H41.425H41.3645H41.3037H41.2428H41.1817H41.1204H41.059H40.9975H40.9357H40.8739H40.8118H40.7496H40.6873H40.6248H40.5622H40.4994H40.4365H40.3735H40.3103H40.2469H40.1835H40.1199H40.0562H39.9923H39.9283H39.8642H39.8H39.7356H39.6712H39.6066H39.5419H39.4771H39.4121H39.3471H39.282H39.2167H39.1514H39.0859H39.0203H38.9547H38.8889H38.8231H38.7572H38.6911H38.625H38.5588H38.4925H38.4261H38.3597H38.2932H38.2265H38.1599H38.0931H38.0263H37.9594H37.8924H37.8254H37.7583H37.6911H37.6239H37.5566H37.4893H37.4219H37.3544H37.2869H37.2194H37.1518H37.0842H37.0165H36.9488H36.881H36.8132H36.7454H36.6775H36.6096H36.5417H36.4737H36.4057H36.3377H36.2697H36.2016H36.1336H36.0655H35.9974H35.9293H35.8611H35.793H35.7249H35.6567H35.5886H35.5204H35.4523H35.3841H35.316H35.2478H35.1797H35.1116H35.0435H34.9754H34.9073H34.8392H34.7712H34.7032H34.6352H34.5672H34.4992H34.4313H34.3634H34.2956H34.2278H34.16H34.0922H34.0245H33.9569H33.8892H33.8217H33.7541H33.6867H33.6192H33.5519H33.4846H33.4173H33.3501H33.283H33.2159H33.1489H33.0819H33.015H32.9482H32.8815H32.8148H32.7483H32.6818H32.6153H32.549H32.4827H32.4166H32.3505H32.2845H32.2186H32.1528H32.0871H32.0214H31.9559H31.8905H31.8252H31.76H31.6949H31.6299H31.565H31.5002H31.4356H31.371H31.3066H31.2423H31.1781H31.114H31.0501H30.9863H30.9226H30.8591H30.7957H30.7324H30.6693H30.6062H30.5434H30.4807H30.4181H30.3557H30.2934H30.2313H30.1693H30.1075H30.0458H29.9843H29.9229H29.8617H29.8007H29.7399H29.6792H29.6186H29.5583H29.4981H29.4381H29.3783H29.3186H29.2592H29.1999H29.1408H29.0819H29.0231H28.9646H28.9063H28.8481H28.7902H28.7324H28.6748H28.6175H28.5603H28.5034H28.4466H28.3901H28.3338H28.2777H28.2218H28.1661H28.1107H28.0554H28.0004H27.9456H27.891H27.8367H27.7826H27.7287H27.6751H27.6217H27.5685H27.5156H27.4629H27.4104H27.3582H27.3063H27.2546H27.2031H27.1519H27.101H27.0503H26.9999H26.9497H26.8998H26.8502H26.8008H26.7517H26.7028H26.6543H26.606H26.5579H26.5102H26.4627H26.4155H26.3686H26.322H26.2757H26.2297H26.1839H26.1385H26.0933H26.0484H26.0039H25.9596H25.9156H25.872H25.8286H25.7856H25.7428H25.7004H25.6583H25.6165H25.575H25.5338H25.493H25.4525H25.4123H25.3724H25.3329H25.2937H25.2548H25.2163H25.1781H25.1402H25.1027H25.0655H25.0286H24.9921H24.956H24.9202H24.8847H24.8497H24.8149H24.7805H24.7465H24.7128H24.6795H24.6466H24.614H24.5818H24.55H24.5185H24.4875H24.4568H24.4264H24.3965H24.3669H24.3377H24.3089H24.2805H24.2525H24.2248H24.1976H24.1708H24.1443H24.1183H24.0926H24.0674H24.0425H24.0181H23.9941H23.9705H23.9473H23.9245H23.9021H23.8801H23.8586H23.8375H23.8168H23.7965H23.7767H23.7573H23.7383H23.7197H23.7016H23.684H23.6667H23.6499H23.6336H23.6177H23.6022H23.5872H23.5726H23.5585H23.5448H23.5316H23.5189H23.5066H23.4948H23.4834H23.4725H23.4621H23.4521H23.4426H23.4336H23.4251H23.417C22.1395 56.2147 21.1 57.2542 21.1 58.5317V60.9487C21.1 62.1556 22.0284 63.1498 23.2082 63.256L23.2885 63.2632L23.2985 63.3433C23.6859 66.4734 26.3606 68.9053 29.5938 68.9053C31.9799 68.9053 34.0626 67.5803 35.146 65.6276L35.2334 65.4699L35.3208 65.6276C36.4042 67.5807 38.4868 68.9053 40.873 68.9053C44.1029 68.9053 46.7751 66.4788 47.1671 63.3532L47.1781 63.2657H47.2663H58.8645H58.9528L58.9638 63.3532C59.3554 66.4787 62.028 68.9053 65.2578 68.9053C68.4876 68.9053 71.1598 66.4788 71.5519 63.3532L71.5629 63.2657H71.6511H74.3887C75.2218 63.2657 75.9 62.5878 75.9 61.7543V60.143C75.9 59.5453 75.5497 59.0283 75.0433 58.7832L74.9869 58.7559V58.6932V51.2799C74.9869 49.7061 73.7065 48.4258 72.1328 48.4258H67.4067H67.3267L67.3091 48.3477L65.7595 41.4572L65.7595 41.4572C65.3535 39.651 63.778 38.3906 61.9269 38.3906H61.0721H60.9839L60.9729 38.3031C60.5817 35.1772 57.9071 32.751 54.6772 32.751H52.5283H52.4283V32.651C52.4283 31.0687 51.8587 29.5363 50.8241 28.3368L50.8998 28.2714M47.6948 56.2147L50.8998 28.2714M50.8998 28.2714L50.8241 28.3368C49.8004 27.1498 48.3899 26.362 46.8529 26.1186C46.4169 26.0497 45.9755 26.1744 45.6399 26.4613C45.3024 26.7499 45.1088 27.1695 45.1088 27.6126V29.2546C45.1088 29.9561 45.5878 30.5607 46.2745 30.725C47.1692 30.9389 47.7943 31.7311 47.7943 32.6509L50.8998 28.2714ZM46.5201 27.613L46.5197 27.4955L46.6357 27.5139C49.1325 27.9089 51.017 30.1174 51.017 32.651V32.751H50.917H49.3057H49.2057V32.651C49.2057 31.075 48.1355 29.7188 46.6027 29.3523L46.5263 29.334L46.526 29.2554L46.5201 27.613ZM71.6519 61.8543H71.5636L71.5527 61.7667C71.4845 61.2206 71.3458 60.6883 71.1393 60.1807L71.0833 60.043H71.2319H74.3887H74.4887V60.143V61.7543V61.8543H74.3887H71.6519ZM58.9638 61.7668L58.9528 61.8543H58.8645H47.2663H47.1781L47.1671 61.7668C46.9701 60.1948 46.1965 58.7997 45.0635 57.801L44.865 57.626H45.1296H48.5C48.89 57.626 49.2057 57.3103 49.2057 56.9204V39.9028V39.8028H49.3057H57.0938C57.4831 39.8028 57.7994 39.4856 57.7994 39.0959C57.7994 38.7075 57.4832 38.3902 57.0938 38.3902H49.3061H49.2061V38.2902V34.2623V34.1623H49.3061H54.6772C57.4 34.1623 59.6107 36.3778 59.6107 39.0959C59.6107 39.4813 59.9245 39.8011 60.3133 39.8028C60.316 39.8025 60.3219 39.802 60.3286 39.802H61.9269C63.1121 39.802 64.1223 40.6103 64.3827 41.7666L64.3827 41.7666L66.0733 49.2861C66.1457 49.6081 66.4317 49.8371 66.7621 49.8371H72.1328C72.9287 49.8371 73.5756 50.484 73.5756 51.2799V58.5317V58.6317H73.4756H70.2831H70.2352L70.2052 58.5943C69.0029 57.0974 67.1838 56.2147 65.2578 56.2147C62.028 56.2147 59.3558 58.6412 58.9638 61.7668ZM35.3208 59.4929L35.2334 59.6504L35.146 59.4929C34.7911 58.8534 34.3292 58.2816 33.7842 57.801L33.5857 57.626H33.8503H36.6169H36.8815L36.683 57.801C36.138 58.2816 35.6757 58.8534 35.3208 59.4929ZM23.3034 61.7379L23.2886 61.8518L23.1778 61.8214C22.7946 61.7163 22.5113 61.3656 22.5113 60.9487V58.5317C22.5113 58.0321 22.9174 57.626 23.417 57.626H25.3376H25.6022L25.4037 57.801C24.2778 58.7939 23.5066 60.1778 23.3034 61.7379ZM70.1918 62.56C70.1918 65.2806 67.9784 67.494 65.2578 67.494C62.5372 67.494 60.3238 65.2806 60.3238 62.56C60.3238 59.8394 62.5372 57.626 65.2578 57.626C67.9471 57.626 70.1918 59.8173 70.1918 62.56ZM45.807 62.56C45.807 65.2806 43.5937 67.494 40.873 67.494C38.1524 67.494 35.9391 65.2811 35.9391 62.56C35.9391 59.8394 38.1524 57.626 40.873 57.626H40.8735C43.5941 57.626 45.807 59.8394 45.807 62.56ZM34.5277 62.56C34.5277 65.2806 32.3144 67.494 29.5938 67.494C26.8731 67.494 24.6598 65.2811 24.6598 62.56C24.6598 59.8394 26.8731 57.626 29.5938 57.626H29.5942C32.3148 57.626 34.5277 59.8394 34.5277 62.56Z" fill="#1F2428" stroke="#F2F6FC" stroke-width="0.2"/>
<path d="M64.4369 48.9548L62.9049 42.1423L64.4369 48.9548ZM64.4369 48.9548C64.4906 49.1936 64.4327 49.4436 64.28 49.6346L64.4369 48.9548ZM53.6982 58.5317L53.6982 58.6317H53.5982H50.6483C50.2587 58.6317 49.9426 58.9478 49.9426 59.3374C49.9426 59.7273 50.2587 60.043 50.6483 60.043H57.0047C57.2922 60.043 57.5568 59.8629 57.6609 59.5953L57.661 59.595C58.6585 57.0482 60.9341 55.1236 63.6013 54.5729C63.9274 54.5053 64.164 54.2143 64.164 53.8811V52.3537V52.3517C64.1629 51.9641 63.8466 51.648 63.4584 51.648C63.0701 51.648 62.7527 51.9654 62.7527 52.3537V53.2483V53.3241L62.6797 53.3446C59.9934 54.0987 57.7441 56.0069 56.5634 58.5735L56.5367 58.6317H56.4726H55.2095H55.1095V58.5317V49.9371V49.8371H55.2095H63.651C63.8653 49.8371 64.0681 49.7397 64.2018 49.5722L64.2019 49.5721C64.3357 49.4049 64.3864 49.1858 64.3394 48.9767L64.3394 48.9767L62.8073 42.1643L62.8073 42.1642C62.7349 41.8419 62.449 41.6133 62.119 41.6133H54.4035C54.0139 41.6133 53.6978 41.929 53.6978 42.319L53.6982 58.5317ZM55.2091 48.4258H55.1091V48.3258V43.1246V43.0246H55.2091H61.4744H61.5544L61.572 43.1027L62.7415 48.3038L62.7689 48.4258H62.6439H55.2091Z" fill="#1F2428" stroke="#F2F6FC" stroke-width="0.2"/>
</svg>
