<svg width="18" height="18" viewBox="0 0 18 18" fill="none" xmlns="http://www.w3.org/2000/svg">
<path d="M5.94718 8.72631C6.66032 10.1843 7.84213 11.3607 9.30333 12.0672C9.41024 12.1179 9.52849 12.1398 9.64646 12.1309C9.76443 12.122 9.87804 12.0825 9.97611 12.0163L12.1276 10.5816C12.2228 10.5182 12.3322 10.4795 12.4461 10.469C12.56 10.4586 12.6747 10.4767 12.7798 10.5217L16.8049 12.2467C16.9416 12.3048 17.0558 12.4058 17.1302 12.5344C17.2045 12.663 17.2351 12.8123 17.2173 12.9597C17.09 13.9552 16.6043 14.8702 15.851 15.5334C15.0978 16.1966 14.1286 16.5624 13.125 16.5625C10.0253 16.5625 7.05252 15.3311 4.86069 13.1393C2.66886 10.9475 1.4375 7.97472 1.4375 4.875C1.43755 3.8714 1.80342 2.90223 2.46659 2.14896C3.12975 1.39568 4.04475 0.909964 5.04026 0.782743C5.18774 0.764895 5.33703 0.79546 5.46562 0.869833C5.59422 0.944206 5.69517 1.05836 5.75325 1.19509L7.47978 5.22366C7.52444 5.32786 7.54264 5.44149 7.53275 5.55443C7.52287 5.66736 7.4852 5.7761 7.42312 5.87096L5.99343 8.05547C5.92836 8.15374 5.88989 8.26721 5.88179 8.38479C5.87368 8.50237 5.89621 8.62004 5.94718 8.72631V8.72631Z" stroke="#F07440" stroke-width="1.2" stroke-linecap="round" stroke-linejoin="round"/>
</svg>
