<svg width="250" height="233" viewBox="0 0 250 233" fill="none" xmlns="http://www.w3.org/2000/svg">
<path fill-rule="evenodd" clip-rule="evenodd" d="M249.989 117.093C250.317 147.999 243.532 179.658 221.935 201.753C200.138 224.053 168.503 232.049 137.332 232.346C105.815 232.645 75.2462 223.656 51.1061 203.378C24.5212 181.046 -2.08984 151.756 0.129908 117.093C2.29176 83.3343 35.7615 63.1419 61.4916 41.2012C84.2399 21.8031 107.473 1.41159 137.332 0.0970371C168.338 -1.26804 198.618 11.8515 220.153 34.2159C241.319 56.1974 249.664 86.5694 249.989 117.093Z" fill="white"/>
<path d="M181.938 18.3785V128.113L191.869 124.789V28.7992L182.837 19.3229L182.051 18.4968L181.938 18.3785Z" fill="#3693E7"/>
<path d="M181.938 18.2705H154.336V128.113H181.938V18.2705Z" fill="white"/>
<path d="M176.681 30.4026H173.176V120.9H176.681V30.4026Z" fill="#C5DFF8"/>
<path opacity="0.3" d="M169.378 30.4026H165.727V120.9H169.378V30.4026Z" fill="#97A6B7"/>
<path opacity="0.3" d="M162.075 30.4026H158.424V120.9H162.075V30.4026Z" fill="#97A6B7"/>
<g style="mix-blend-mode:multiply" opacity="0.5">
<path d="M166.895 30.4026H165.727V120.9H166.895V30.4026Z" fill="#97A6B7"/>
</g>
<g style="mix-blend-mode:multiply" opacity="0.5">
<path d="M159.448 30.4026H158.279V120.9H159.448V30.4026Z" fill="#97A6B7"/>
</g>
<path d="M164.211 72.6251V128.113L172.02 126.433V77.8942L164.918 73.1028L164.301 72.6842L164.211 72.6251Z" fill="#97A6B7"/>
<path d="M164.213 72.5699H142.508V128.113H164.213V72.5699Z" fill="#F4F7FA"/>
<path d="M160.079 78.7046H157.322V124.466H160.079V78.7046Z" fill="#97A6B7"/>
<path d="M154.335 78.7046H151.465V124.466H154.335V78.7046Z" fill="#97A6B7"/>
<path d="M148.593 78.7046H145.723V124.466H148.593V78.7046Z" fill="#97A6B7"/>
<g style="mix-blend-mode:multiply" opacity="0.5">
<path d="M158.241 78.7046H157.322V124.466H158.241V78.7046Z" fill="#97A6B7"/>
</g>
<g style="mix-blend-mode:multiply" opacity="0.5">
<path d="M152.383 78.7046H151.465V124.466H152.383V78.7046Z" fill="#97A6B7"/>
</g>
<g style="mix-blend-mode:multiply" opacity="0.5">
<path d="M146.526 78.7046H145.607V124.466H146.526V78.7046Z" fill="#97A6B7"/>
</g>
<g style="mix-blend-mode:multiply" opacity="0.1">
<path d="M142.508 128.11H164.213L172.018 126.429V120.784C168.401 114.497 169.591 111.882 168.811 107.218C168.047 102.665 169.657 78.6754 164.916 73.0997C164.754 72.9048 164.574 72.7263 164.377 72.5668L164.298 72.6819L164.209 72.8112C161.742 76.3735 160.612 78.0747 160.074 79.8838C159.551 81.6465 159.59 83.5101 159.505 87.2987C159.399 91.9576 159.421 96.011 158.237 98.8016C158.003 99.3697 157.694 99.904 157.319 100.39C156.603 101.304 155.638 101.982 154.332 102.378C154.187 102.423 154.039 102.464 153.886 102.501C153.363 102.63 152.858 102.821 152.38 103.07C152.062 103.232 151.755 103.414 151.461 103.617C150.447 104.305 149.479 105.25 148.591 106.399C147.799 107.435 147.107 108.543 146.523 109.709C146.239 110.27 145.971 110.853 145.719 111.459C145.68 111.552 145.64 111.645 145.604 111.739C144.109 115.504 143.373 119.526 143.438 123.576C143.474 125.411 143.116 126.887 142.508 128.11Z" fill="#97A6B7"/>
</g>
<path d="M200.445 46.0419H167.141V128.113H200.445V46.0419Z" fill="#F7FBFF"/>
<path d="M197.917 53.8348H169.666V58.9746H197.917V53.8348Z" fill="#C5DFF8"/>
<path d="M197.917 62.9541H169.666V68.0939H197.917V62.9541Z" fill="#C5DFF8"/>
<path d="M197.917 72.0725H169.666V77.2123H197.917V72.0725Z" fill="#C5DFF8"/>
<path d="M197.917 81.1917H169.666V86.3314H197.917V81.1917Z" fill="#C5DFF8"/>
<path d="M197.917 90.3108H169.666V95.4506H197.917V90.3108Z" fill="#C5DFF8"/>
<path d="M197.917 99.4301H169.666V104.57H197.917V99.4301Z" fill="#C5DFF8"/>
<path d="M197.917 108.549H169.666V113.689H197.917V108.549Z" fill="#C5DFF8"/>
<path d="M200.443 46.0419V128.113H209.402V53.8351L200.703 46.2673L200.48 46.0734L200.443 46.0419Z" fill="#3693E7"/>
<g style="mix-blend-mode:multiply" opacity="0.5">
<path d="M212.159 66.2698H206.646V67.4301H212.159V66.2698Z" fill="#97A6B7"/>
</g>
<g style="mix-blend-mode:multiply" opacity="0.5">
<path d="M212.159 80.6943H206.646V81.8547H212.159V80.6943Z" fill="#97A6B7"/>
</g>
<g style="mix-blend-mode:multiply" opacity="0.5">
<path d="M212.159 95.1195H206.646V96.2799H212.159V95.1195Z" fill="#97A6B7"/>
</g>
<g style="mix-blend-mode:multiply" opacity="0.5">
<path d="M212.159 109.544H206.646V110.704H212.159V109.544Z" fill="#97A6B7"/>
</g>
<g style="mix-blend-mode:multiply" opacity="0.5">
<path d="M226.75 66.1571H221.123V67.3175H226.75V66.1571Z" fill="#97A6B7"/>
</g>
<g style="mix-blend-mode:multiply" opacity="0.5">
<path d="M226.75 80.5815H221.123V81.7419H226.75V80.5815Z" fill="#97A6B7"/>
</g>
<g style="mix-blend-mode:multiply" opacity="0.5">
<path d="M226.75 95.006H221.123V96.1664H226.75V95.006Z" fill="#97A6B7"/>
</g>
<path d="M232.486 58.311V128.113L241.444 125.998V64.9383L232.486 58.311Z" fill="#3693E7"/>
<path d="M232.485 58.4775H204.463V128.114H232.485V58.4775Z" fill="white"/>
<path d="M227.433 66.7672H221.92V77.7097H227.433V66.7672Z" fill="#C5DFF8"/>
<path d="M219.852 66.7672H214.225V77.7097H219.852V66.7672Z" fill="#C5DFF8"/>
<path d="M212.159 66.7672H206.646V77.7097H212.159V66.7672Z" fill="#C5DFF8"/>
<path d="M227.433 81.1917H221.92V92.1341H227.433V81.1917Z" fill="#C5DFF8"/>
<path d="M219.852 81.1917H214.225V92.1341H219.852V81.1917Z" fill="#C5DFF8"/>
<path d="M212.159 81.1917H206.646V92.1341H212.159V81.1917Z" fill="#C5DFF8"/>
<path d="M227.433 95.6167H221.92V106.559H227.433V95.6167Z" fill="#C5DFF8"/>
<path d="M219.852 95.6167H214.225V106.559H219.852V95.6167Z" fill="#C5DFF8"/>
<path d="M212.159 95.6167H206.646V106.559H212.159V95.6167Z" fill="#C5DFF8"/>
<path opacity="0.3" d="M227.433 110.041H221.92V120.984H227.433V110.041Z" fill="#97A6B7"/>
<path opacity="0.3" d="M219.852 110.041H214.225V120.984H219.852V110.041Z" fill="#97A6B7"/>
<path opacity="0.3" d="M212.159 110.041H206.646V120.984H212.159V110.041Z" fill="#97A6B7"/>
<g style="mix-blend-mode:multiply" opacity="0.5">
<path d="M227.433 110.041H221.92V111.202H227.433V110.041Z" fill="#97A6B7"/>
</g>
<path d="M168.802 164.162C168.802 165.98 167.42 167.527 165.712 167.615L57.1388 173.255C55.1448 173.358 53.5254 171.844 53.5254 169.872V8.81555C53.5254 6.84479 55.1448 5.347 57.1388 5.46604L58.5926 5.38721L165.712 12.0878C167.42 12.1919 168.802 13.7511 168.802 15.5698V164.162Z" fill="url(#paint0_linear)"/>
<path d="M170.941 164.087C170.941 165.906 169.559 167.452 167.851 167.541L59.2767 173.18C57.2835 173.283 55.6641 171.769 55.6641 169.797V8.74067C55.6641 6.7699 57.2835 5.27212 59.2767 5.39115L167.851 12.0129C169.559 12.117 170.941 13.6755 170.941 15.4949V164.087Z" fill="#3693E7"/>
<g style="mix-blend-mode:multiply">
<path d="M87.4444 20.533C84.7456 24.0016 84.36 30.5548 88.9865 33.2532C99.0099 39.4201 112.118 37.4935 121.756 30.9403C128.852 25.9739 125.828 16.7712 123.798 9.32724L102.445 8.02417C100.607 13.1592 90.8291 16.0215 87.4444 20.533Z" fill="#D8DEE8"/>
</g>
<path d="M165.835 157.64C165.835 159.251 164.607 160.614 163.09 160.685L64.7776 165.286C63.0328 165.365 61.6152 164.029 61.6152 162.297V24.4374C61.6152 22.7032 63.0344 21.3725 64.7776 21.46L163.09 26.4082C164.607 26.487 165.835 27.8524 165.835 29.4629V157.64Z" fill="white"/>
<path d="M138.883 22.0253C138.737 21.1802 138.077 20.5827 137.24 20.5378L132.067 20.2595C129.728 20.1334 128.038 18.1847 128.148 15.7346L128.405 10.0588C128.453 9.00955 127.728 8.16685 126.721 8.10537L125.051 8.0021C123.78 7.92327 122.911 6.78574 123.112 5.46138C123.466 3.11854 121.929 1.09732 119.665 0.945962C117.4 0.794607 115.262 2.58091 114.906 4.93716C114.802 5.58768 114.466 6.17849 113.96 6.5997C113.472 7.01884 112.842 7.23497 112.2 7.20354L110.495 7.09791C109.463 7.03406 108.475 7.7798 108.202 8.83219L106.723 14.519C106.082 16.977 103.762 18.7396 101.328 18.6096L95.8879 18.3171C94.9994 18.269 94.121 18.8019 93.7016 19.6438L89.7949 27.4819L90.1308 27.9108L140.242 29.8603L138.883 22.0253ZM118.926 5.82716C118.261 5.78538 117.806 5.19651 117.91 4.5028C118.014 3.80909 118.639 3.2896 119.303 3.33296C119.967 3.37631 120.42 3.96912 120.316 4.65731C120.212 5.3455 119.59 5.86973 118.926 5.82716Z" fill="#707C87"/>
<path d="M139.217 22.4542C139.071 21.6091 138.411 21.0116 137.575 20.9667L132.401 20.6892C130.063 20.5639 128.372 18.6144 128.483 16.1643L128.74 10.4885C128.787 9.43926 128.062 8.59656 127.056 8.53586L125.386 8.43496C124.115 8.35613 123.245 7.2186 123.446 5.89425C123.8 3.5514 122.263 1.53018 119.998 1.37882C117.733 1.22747 115.596 3.01377 115.24 5.37002C115.137 6.02077 114.801 6.61185 114.294 7.03335C113.806 7.45199 113.176 7.66781 112.534 7.6364L110.829 7.53077C109.798 7.46692 108.81 8.21266 108.536 9.26505L107.055 14.9527C106.414 17.4114 104.093 19.1741 101.66 19.0432L96.22 18.7507C95.3314 18.7027 94.4531 19.2356 94.0336 20.0775L90.127 27.9156L140.574 30.2939L139.217 22.4542ZM119.257 6.25608C118.592 6.2143 118.138 5.62543 118.242 4.93172C118.346 4.23801 118.97 3.71931 119.634 3.76266C120.298 3.80602 120.751 4.39883 120.647 5.08623C120.543 5.77364 119.924 6.29865 119.257 6.25608Z" fill="#C5DFF8"/>
<path d="M158.774 51.0775C158.774 51.4204 158.545 51.6939 158.261 51.6876L119.823 50.8276C119.517 50.8205 119.271 50.5257 119.271 50.1686V42.4108C119.271 42.0545 119.519 41.7723 119.823 41.7802L158.261 42.9737C158.545 42.9824 158.774 43.2677 158.774 43.6114V51.0775Z" fill="#C5DFF8"/>
<path d="M158.774 59.6795C158.774 60.0224 158.545 60.2984 158.261 60.2944L119.823 59.7631C119.517 59.7631 119.271 59.4659 119.271 59.1088V56.9551C119.271 56.598 119.519 56.3127 119.823 56.3182L158.261 56.9756C158.545 56.9812 158.774 57.2634 158.774 57.6063V59.6795Z" fill="#C5DFF8"/>
<path d="M158.774 67.5579C158.774 67.9008 158.545 68.1783 158.261 68.1767L119.823 67.9465C119.517 67.9465 119.271 67.654 119.271 67.2969V65.1409C119.271 64.7846 119.519 64.4969 119.823 64.5L158.261 64.8563C158.545 64.8563 158.774 65.1401 158.774 65.483V67.5579Z" fill="#C5DFF8"/>
<path d="M158.774 75.4331C158.774 75.776 158.545 76.055 158.261 76.0558L119.823 76.1268C119.517 76.1268 119.271 75.8391 119.271 75.482V73.3275C119.271 72.9704 119.519 72.6819 119.823 72.6819L158.261 72.7371C158.545 72.7371 158.774 73.0169 158.774 73.3598V75.4331Z" fill="#C5DFF8"/>
<path d="M158.774 83.3098C158.774 83.6528 158.545 83.9334 158.261 83.9405L119.823 84.3126C119.517 84.3126 119.271 84.0288 119.271 83.6717V81.5109C119.271 81.1538 119.519 80.8629 119.823 80.8606L158.261 80.6146C158.545 80.6146 158.774 80.8905 158.774 81.2334V83.3098Z" fill="#C5DFF8"/>
<path d="M106.011 84.7699L73.8001 85.0923C72.5906 85.1049 71.6074 84.0178 71.6074 82.6643V42.4559C71.6074 41.1031 72.5906 40.0374 73.8001 40.0752L106.011 41.0834C107.148 41.1189 108.068 42.2076 108.068 43.5154V82.3789C108.067 83.6891 107.148 84.7588 106.011 84.7699Z" fill="#C5DFF8"/>
<path d="M73.7267 41.1591H73.7654L105.978 42.1587C106.604 42.1776 107.114 42.7894 107.114 43.5217V82.397C107.114 83.1065 106.624 83.6843 106.015 83.6946L73.8032 84.0099C73.1259 84.0162 72.5748 83.4069 72.5748 82.6509V42.4504C72.5772 41.7299 73.0818 41.1631 73.7267 41.1591ZM73.7267 40.0744C72.5512 40.0807 71.6074 41.1308 71.6074 42.4559V82.6643C71.6074 84.0178 72.5906 85.108 73.8001 85.0923L106.011 84.7698H106.024C107.155 84.7509 108.068 83.6843 108.068 82.3821V43.5146C108.068 42.2068 107.148 41.1181 106.011 41.0827L73.8001 40.0752C73.7756 40.0744 73.7512 40.0736 73.7267 40.0744Z" fill="#C5DFF8"/>
<path d="M92.9794 104.771L72.3753 105.207C72.3408 105.206 72.3069 105.198 72.2756 105.184C72.2443 105.169 72.2162 105.149 72.1929 105.123C72.1696 105.098 72.1516 105.068 72.1401 105.035C72.1285 105.003 72.1235 104.968 72.1254 104.934V101.872C72.1221 101.802 72.1464 101.733 72.193 101.68C72.2397 101.627 72.3051 101.594 72.3753 101.589L92.9794 101.219C93.0126 101.221 93.0451 101.229 93.075 101.244C93.1049 101.258 93.1317 101.279 93.1536 101.304C93.1756 101.329 93.1925 101.358 93.2031 101.389C93.2138 101.421 93.2182 101.454 93.2159 101.487V104.489C93.2208 104.558 93.1988 104.625 93.1547 104.678C93.1105 104.73 93.0477 104.764 92.9794 104.771Z" fill="#C5DFF8"/>
<path d="M107.409 111.642L72.3754 112.621C72.3409 112.621 72.307 112.613 72.2756 112.598C72.2443 112.584 72.2161 112.564 72.1928 112.538C72.1694 112.513 72.1515 112.483 72.1399 112.451C72.1283 112.418 72.1234 112.384 72.1254 112.349V109.288C72.1223 109.218 72.1466 109.149 72.1931 109.096C72.2397 109.042 72.305 109.009 72.3754 109.003L107.409 108.136C107.442 108.137 107.474 108.145 107.504 108.159C107.534 108.173 107.561 108.193 107.583 108.218C107.605 108.243 107.622 108.271 107.632 108.303C107.643 108.334 107.647 108.367 107.645 108.4V111.362C107.65 111.43 107.628 111.498 107.584 111.55C107.54 111.602 107.477 111.635 107.409 111.642Z" fill="#C5DFF8"/>
<path d="M107.409 118.818L72.3754 120.036C72.341 120.035 72.3071 120.027 72.2757 120.013C72.2444 119.999 72.2162 119.979 72.1928 119.954C72.1695 119.928 72.1515 119.899 72.1399 119.866C72.1283 119.834 72.1234 119.799 72.1254 119.765V116.704C72.1225 116.633 72.1468 116.564 72.1932 116.511C72.2397 116.458 72.3049 116.424 72.3754 116.417L107.409 115.314C107.442 115.315 107.474 115.322 107.504 115.336C107.534 115.35 107.561 115.37 107.583 115.394C107.605 115.419 107.622 115.448 107.633 115.479C107.643 115.51 107.648 115.543 107.645 115.576V118.538C107.65 118.606 107.627 118.673 107.583 118.725C107.539 118.778 107.477 118.811 107.409 118.818Z" fill="#C5DFF8"/>
<path d="M107.409 125.994L72.3754 127.45C72.3411 127.449 72.3072 127.442 72.2758 127.428C72.2444 127.414 72.2161 127.394 72.1927 127.369C72.1693 127.344 72.1513 127.314 72.1398 127.282C72.1282 127.249 72.1234 127.215 72.1255 127.181V124.12C72.1225 124.049 72.1468 123.98 72.1932 123.926C72.2397 123.873 72.3049 123.839 72.3754 123.832L107.409 122.492C107.442 122.492 107.474 122.5 107.504 122.513C107.534 122.527 107.561 122.546 107.583 122.571C107.605 122.595 107.622 122.624 107.633 122.655C107.644 122.686 107.648 122.719 107.645 122.752V125.714C107.649 125.782 107.627 125.849 107.583 125.901C107.539 125.953 107.476 125.987 107.409 125.994Z" fill="#C5DFF8"/>
<path d="M149.238 103.584L119.499 104.214C119.467 104.212 119.435 104.204 119.406 104.19C119.377 104.176 119.351 104.156 119.329 104.132C119.308 104.107 119.292 104.079 119.282 104.048C119.272 104.017 119.268 103.985 119.27 103.953V101.024C119.266 100.958 119.287 100.893 119.33 100.842C119.373 100.792 119.433 100.76 119.499 100.753L149.238 100.222C149.3 100.228 149.358 100.257 149.398 100.305C149.439 100.353 149.459 100.415 149.454 100.477V103.322C149.458 103.385 149.438 103.447 149.398 103.496C149.358 103.544 149.3 103.576 149.238 103.584Z" fill="#C5DFF8"/>
<path d="M158.049 110.226L119.499 111.303C119.467 111.302 119.435 111.294 119.406 111.28C119.377 111.266 119.351 111.246 119.329 111.222C119.308 111.198 119.292 111.169 119.282 111.139C119.272 111.108 119.268 111.075 119.27 111.043V108.115C119.266 108.049 119.287 107.983 119.33 107.932C119.372 107.882 119.433 107.849 119.499 107.842L158.053 106.896C158.084 106.898 158.114 106.907 158.141 106.921C158.168 106.935 158.192 106.954 158.212 106.977C158.232 107.001 158.247 107.028 158.256 107.057C158.265 107.086 158.268 107.117 158.265 107.147V109.967C158.269 110.03 158.249 110.091 158.209 110.139C158.169 110.187 158.112 110.218 158.049 110.226Z" fill="#C5DFF8"/>
<path d="M158.048 117.058L119.497 118.398C119.465 118.397 119.433 118.39 119.404 118.376C119.374 118.362 119.348 118.343 119.327 118.318C119.305 118.294 119.289 118.265 119.279 118.235C119.269 118.204 119.266 118.171 119.269 118.139V115.21C119.264 115.144 119.286 115.079 119.328 115.028C119.371 114.976 119.431 114.944 119.497 114.936L158.052 113.724C158.168 113.72 158.264 113.832 158.264 113.974V116.794C158.268 116.857 158.248 116.92 158.208 116.969C158.168 117.018 158.111 117.05 158.048 117.058Z" fill="#C5DFF8"/>
<path d="M158.05 123.89L119.499 125.492C119.467 125.491 119.435 125.484 119.406 125.47C119.377 125.456 119.351 125.437 119.329 125.413C119.308 125.389 119.291 125.36 119.281 125.33C119.271 125.299 119.268 125.267 119.271 125.234V122.306C119.266 122.239 119.288 122.174 119.33 122.123C119.373 122.071 119.433 122.038 119.499 122.03L158.053 120.557C158.17 120.552 158.266 120.663 158.266 120.805V123.625C158.27 123.688 158.25 123.751 158.21 123.8C158.17 123.85 158.113 123.882 158.05 123.89Z" fill="#C5DFF8"/>
<g style="mix-blend-mode:multiply" opacity="0.3">
<path d="M137.575 20.969L132.401 20.6915C131.673 20.6584 130.967 20.4294 130.358 20.0285C129.749 19.6277 129.26 19.0699 128.942 18.4141C124.146 19.4144 119.1 18.3676 114.045 19.3766C110.576 20.1476 110.961 25.5435 107.107 25.929C101.577 26.6763 96.1052 26.7283 90.6918 26.7812L90.1289 27.9108L140.576 30.2891L139.218 22.4541C139.072 21.6091 138.412 21.0115 137.575 20.969Z" fill="#97A6B7"/>
</g>
<path d="M238.075 154.724C237.365 159.06 232.171 163.589 214.57 170.351C204.978 174.035 178.157 184.55 154.515 192.295C132 199.672 123.586 203.504 111.969 206.836C106.959 208.275 65.0316 219.83 45.0945 202.857C37.6833 196.55 32.8738 187.604 31.416 177.228C31.569 177.194 31.4562 173.711 31.6092 173.677C93.4388 159.813 141.681 153.811 140.499 144.927C140.17 142.438 136.14 140.044 130.072 138.057L130.395 126.784C137.364 127.218 143.772 127.659 148.4 128.053C165.182 129.487 197.499 132.213 215.788 138.616C225.629 142.061 233.674 143.718 236.851 146.415C238.012 147.402 238.39 150.327 238.361 151.33C238.305 153.237 238.277 153.498 238.075 154.724Z" fill="url(#paint1_linear)"/>
<path d="M237.814 150.33C237.104 154.66 232.178 159.468 214.596 166.268C205.014 169.973 178.22 180.547 154.602 188.346C132.108 195.775 123.703 199.625 112.095 202.985C107.091 204.436 65.2005 216.095 45.2784 199.216C37.8719 192.942 33.0672 184.032 31.6094 173.681C93.7039 159.753 141.782 150.003 140.598 141.124C140.269 138.641 136.242 136.264 130.18 134.298L130.502 123.049C137.465 123.461 143.867 123.882 148.491 124.262C165.257 125.644 197.543 128.269 215.813 134.601C234.654 141.126 238.518 146.004 237.814 150.33Z" fill="#C5DFF8"/>
<path d="M198.91 142.585L197.831 142.535L196.65 139.071C196.65 139.071 199.095 139.356 198.91 142.585Z" fill="url(#paint2_linear)"/>
<path d="M173.454 147.312L180.537 146.33C180.537 146.33 181.424 140.93 178.309 140.27C175.193 139.61 173.315 143.739 173.454 147.312Z" fill="url(#paint3_linear)"/>
<path d="M174.093 140.941L174.09 140.94C173.87 140.953 173.665 141.029 173.46 141.143C173.263 141.232 173.026 141.336 173.02 141.483L173.02 141.486C172.244 142.223 171.693 143.625 171.616 145.22C171.514 147.343 172.298 149.099 173.426 149.35L173.423 149.351C173.5 149.365 174.437 149.755 177.457 149.552C177.596 148.263 177.979 140.948 177.979 140.948C177.979 140.948 175.585 140.713 174.093 140.941Z" fill="url(#paint4_linear)"/>
<path d="M179.909 145.191C179.797 147.621 178.582 149.582 177.219 149.57C175.882 149.559 174.907 147.647 175.017 145.301C175.127 142.955 176.282 141.003 177.621 140.932C178.985 140.86 180.02 142.765 179.909 145.191Z" fill="#C5DFF8"/>
<path d="M178.842 145.198C178.763 146.922 177.948 148.321 177.035 148.321C176.133 148.321 175.474 146.956 175.553 145.272C175.632 143.589 176.419 142.195 177.322 142.155C178.236 142.114 178.922 143.476 178.842 145.198Z" fill="white"/>
<path d="M193.994 139.263L193.992 139.263C193.795 139.278 193.604 139.337 193.433 139.436C193.273 139.513 193.31 139.614 193.027 139.728L193.027 139.731C192.534 140.373 191.992 141.578 191.927 142.951C191.84 144.781 192.496 146.292 193.411 146.505L193.421 146.506C193.483 146.518 194.248 146.852 196.699 146.67C196.815 145.56 197.146 139.258 197.146 139.258C197.146 139.258 195.205 139.064 193.994 139.263Z" fill="url(#paint5_linear)"/>
<path d="M198.701 142.91C198.605 145.003 197.614 146.695 196.509 146.688C195.425 146.681 194.637 145.037 194.732 143.016C194.827 140.995 195.769 139.312 196.854 139.247C197.962 139.182 198.797 140.82 198.701 142.91Z" fill="#C5DFF8"/>
<path d="M197.836 142.919C197.767 144.404 197.103 145.61 196.363 145.612C195.631 145.615 195.1 144.44 195.168 142.99C195.236 141.54 195.877 140.337 196.61 140.301C197.351 140.264 197.904 141.435 197.836 142.919Z" fill="white"/>
<path d="M147.618 138.013L147.615 138.013C147.342 138.001 147.129 138.128 146.874 138.239C146.629 138.321 146.465 138.499 146.365 138.653L146.365 138.657C145.31 139.437 144.654 141.066 144.566 142.973C144.45 145.51 145.434 147.651 146.847 148.003L146.833 148.004C146.929 148.025 148.078 148.525 151.689 148.424C151.849 146.956 152.285 138.538 152.285 138.538C152.285 138.538 149.44 137.911 147.618 138.013Z" fill="url(#paint6_linear)"/>
<path d="M151.404 148.434C149.819 148.361 148.636 146.086 148.762 143.352C148.887 140.619 150.274 138.462 151.859 138.534C153.444 138.607 154.627 140.882 154.501 143.616C154.376 146.349 152.989 148.506 151.404 148.434Z" fill="#1A70BE"/>
<path d="M151.184 146.991C150.115 146.942 149.32 145.317 149.41 143.363C149.5 141.408 150.44 139.863 151.509 139.912C152.578 139.962 153.373 141.586 153.283 143.54C153.193 145.495 152.253 147.04 151.184 146.991Z" fill="url(#paint7_linear)"/>
<path d="M199.924 140.722C199.964 140.948 199.947 141.181 199.877 141.4C199.807 141.619 199.685 141.818 199.522 141.98L198.909 142.587C198.834 140.709 197.935 139.226 196.766 139.173C195.487 139.114 194.369 140.793 194.271 142.922C194.247 143.403 194.281 143.885 194.371 144.358L194.11 144.452L180.189 146.379C180.24 146.096 180.322 145.804 180.336 145.504C180.349 145.232 180.365 144.968 180.377 144.709L180.377 144.706C180.016 142.481 178.967 140.75 177.421 140.679C175.692 140.6 174.169 142.631 174.05 145.216C174.017 145.922 174.08 146.595 174.239 147.204L172.158 147.491C172.154 147.507 172.149 147.523 172.143 147.539C172.075 147.605 171.556 148.023 169.117 147.911L142.196 146.675C140.978 146.619 140.118 145.513 140.174 144.293L140.179 144.192C140.2 143.725 140.444 143.309 140.871 143.118C140.871 143.118 140.224 140.944 140.933 138.412C141.217 137.401 141.701 136.332 142.535 135.322C143.062 134.687 143.67 134.123 144.344 133.646C144.344 133.646 147.525 131.241 153.176 130.838C153.176 130.838 157.991 127.659 162.357 125.606C164.498 124.598 166.853 124.13 169.215 124.243L184.799 124.959C187.505 125.083 190.122 125.96 192.358 127.492L196.302 130.19C196.302 130.19 197.245 130.813 198.169 132.244C199.221 133.871 200.248 136.542 199.839 140.526L199.926 140.722L199.924 140.722Z" fill="#F07440"/>
<path d="M172.152 147.49C172.15 147.506 172.146 147.522 172.14 147.538C171.947 147.646 171.684 148.214 165.448 147.742L142.197 146.674C140.979 146.618 140.119 145.512 140.175 144.292L140.179 144.191C140.18 144.164 140.144 144.137 140.147 144.11C140.194 143.676 140.449 143.296 140.852 143.116L167.913 144.616C167.913 144.616 170.487 144.268 171.342 144.767C171.462 144.838 171.546 144.923 171.585 145.03C171.914 145.896 172.341 147.101 172.152 147.49Z" fill="#ACD1F5"/>
<path d="M147.179 138.754L147.162 139.107C147.156 139.243 147.123 139.376 147.064 139.498C147.005 139.621 146.922 139.73 146.819 139.819C146.717 139.909 146.598 139.976 146.469 140.018C146.34 140.06 146.204 140.076 146.069 140.064L143.179 139.808C142.485 139.747 141.839 139.427 141.37 138.911L140.915 138.412C141.229 137.28 141.778 136.227 142.526 135.322C142.537 135.325 142.547 135.325 142.557 135.327L143.896 136.491C144.605 137.107 145.46 137.53 146.38 137.721C146.614 137.77 146.823 137.901 146.969 138.09C147.115 138.279 147.19 138.515 147.179 138.754Z" fill="white"/>
<path d="M160.049 138.939C159.848 139.16 159.521 139.332 159.324 139.324L148.485 138.824C148.288 138.815 148.018 138.616 147.886 138.38C147.755 138.146 147.828 137.967 148.049 137.977L160.007 138.527C160.227 138.537 160.25 138.721 160.049 138.94L160.049 138.939Z" fill="#D95B26"/>
<path d="M158.76 140.367C158.548 140.598 158.247 140.781 158.086 140.774L149.276 140.366C149.116 140.359 148.872 140.15 148.733 139.903C148.594 139.658 148.634 139.467 148.819 139.476L158.802 139.936C158.987 139.945 158.971 140.137 158.76 140.367Z" fill="#D95B26"/>
<path d="M163.114 140.921C162.455 140.874 161.95 140.37 161.977 139.785L161.993 139.428C162.019 138.871 162.518 138.428 163.145 138.402L164.328 138.353L171.42 136.826L171.226 137.704C170.932 139.03 169.861 140.108 168.416 140.532L167.359 140.841C166.657 141.046 165.923 141.123 165.194 141.07L163.114 140.921Z" fill="white"/>
<path d="M171.336 144.795L168.378 145.464L140.105 144.166C140.153 143.704 140.429 143.325 140.831 143.145L167.902 144.645C167.902 144.645 170.482 144.296 171.336 144.795Z" fill="#C5DFF8"/>
<path d="M189.838 143.665L189.832 143.665C189.747 143.475 189.67 143.529 189.678 143.435C189.682 143.378 190.11 137.687 190.048 135.367C189.996 133.359 189.676 132.981 189.648 132.952C189.613 132.929 189.587 132.894 189.575 132.853C189.563 132.813 189.566 132.769 189.583 132.731C189.602 132.689 189.636 132.657 189.678 132.64C189.721 132.624 189.768 132.625 189.809 132.643C189.93 132.697 190.329 133.053 190.39 135.336C190.451 137.672 190.022 143.404 190.017 143.461C190.011 143.554 189.929 143.669 189.838 143.665Z" fill="#D95B26"/>
<path d="M199.926 140.722L199.84 140.526C200.25 136.542 199.223 133.871 198.171 132.244C197.46 132.253 196.496 132.562 196.493 134.176C196.489 136.725 195.921 138.016 193.938 139.091C192.996 139.6 191.969 140.028 191.125 140.695C190.37 141.293 189.987 142.247 189.221 142.807C187.925 143.752 186.248 143.229 184.795 143.096C183.471 142.973 180.467 142.772 180.378 144.705L180.378 144.709C180.366 144.968 180.35 145.232 180.337 145.503C180.323 145.803 180.238 146.095 180.188 146.378L194.11 144.451L194.371 144.357C194.281 143.885 194.248 143.403 194.272 142.922C194.369 140.792 195.488 139.113 196.767 139.172C197.936 139.226 198.835 140.709 198.91 142.586L199.523 141.979C199.686 141.817 199.808 141.618 199.878 141.4C199.948 141.181 199.965 140.948 199.926 140.722Z" fill="#D95B26"/>
<path d="M181.9 126.033C181.9 126.033 179.869 130.608 179.385 131.27C179.339 131.331 179.281 131.423 179.213 131.474C178.561 131.971 177.016 132.028 177.016 132.028L154.363 130.988C159.595 127.329 164.016 125.212 164.016 125.212L181.9 126.033Z" fill="#3693E7"/>
<path d="M195.644 130.588C195.644 130.588 193.182 131.467 189.893 132.249C189.789 131.621 189.633 131.002 189.426 130.401C188.98 129.096 188.195 127.557 186.804 126.168C188.103 126.321 189.377 126.644 190.592 127.129C192.266 127.8 194.028 128.877 195.644 130.588Z" fill="#3693E7"/>
<path d="M189.051 132.443C187.414 132.807 185.616 133.131 183.84 133.309C182.828 133.41 181.824 133.463 180.86 133.448C180.578 133.444 180.299 133.434 180.025 133.418C180.025 133.417 180.026 133.416 180.027 133.415C180.078 133.236 182.124 126.245 183.732 126.108C184.293 126.062 184.856 126.047 185.418 126.065C187.085 127.421 188.01 129.056 188.52 130.44C188.76 131.089 188.938 131.76 189.051 132.443Z" fill="#3693E7"/>
<path d="M179.212 131.472C178.559 131.969 177.015 132.028 177.015 132.028L154.362 130.988C159.594 127.329 164.015 125.212 164.015 125.212L164.335 125.226C164.827 125.435 165.297 125.904 165.703 126.543C167.341 129.126 177.111 127.674 179.212 131.472Z" fill="#1A70BE"/>
<path opacity="0.3" d="M180.859 133.448C180.578 133.444 180.299 133.434 180.025 133.418C180.025 133.417 180.025 133.416 180.026 133.415C180.254 133.424 180.534 133.435 180.859 133.448Z" fill="url(#paint8_linear)"/>
<path d="M188.521 130.44C188.761 131.09 188.938 131.76 189.052 132.443C187.415 132.807 185.617 133.131 183.84 133.31C184.1 133.074 184.345 132.772 184.563 132.391C185.519 130.733 187.08 130.513 188.521 130.44Z" fill="#1A70BE"/>
<path d="M195.645 130.588C195.645 130.588 193.183 131.467 189.893 132.249C189.79 131.621 189.634 131.003 189.427 130.401C190.296 130.354 191.05 130.253 191.501 129.758C192.293 128.884 191.409 127.825 190.593 127.129C192.267 127.8 194.029 128.877 195.645 130.588Z" fill="#1A70BE"/>
<path d="M179.948 133.748C179.948 133.748 180.795 130.945 181.82 130.879C182.844 130.812 185.788 130.114 185.988 131.525C186.188 132.936 185.627 133.608 184.151 133.627C182.676 133.647 181.699 133.515 181.699 133.515L180.986 134.212C180.986 134.212 179.856 134.918 179.948 133.748Z" fill="#D95B26"/>
<path d="M179.607 133.732C179.607 133.732 180.455 130.93 181.48 130.863C182.505 130.797 185.448 130.098 185.648 131.509C185.848 132.92 185.287 133.592 183.812 133.612C182.336 133.631 181.359 133.499 181.359 133.499L180.645 134.196C180.645 134.196 179.516 134.902 179.607 133.732Z" fill="white"/>
<path d="M199.628 108.088L198.643 108.043L197.566 104.881C197.566 104.881 199.797 105.14 199.628 108.088Z" fill="url(#paint9_linear)"/>
<path d="M176.391 112.404L182.857 111.508C182.857 111.508 183.666 106.577 180.822 105.975C177.978 105.372 176.263 109.142 176.391 112.404Z" fill="url(#paint10_linear)"/>
<path d="M176.974 106.587L176.972 106.587C176.771 106.598 176.584 106.668 176.397 106.772C176.217 106.853 176.001 106.948 175.995 107.083L175.994 107.086C175.287 107.758 174.783 109.038 174.713 110.494C174.62 112.432 175.336 114.036 176.365 114.264L176.363 114.265C176.433 114.279 177.289 114.634 180.046 114.449C180.173 113.273 180.522 106.594 180.522 106.594C180.522 106.594 178.336 106.38 176.974 106.587Z" fill="url(#paint11_linear)"/>
<path d="M182.283 110.468C182.181 112.686 181.072 114.477 179.827 114.466C178.607 114.455 177.716 112.709 177.817 110.568C177.918 108.426 178.972 106.645 180.194 106.579C181.439 106.513 182.385 108.253 182.283 110.468Z" fill="#C5DFF8"/>
<path d="M181.309 110.474C181.237 112.048 180.493 113.325 179.659 113.325C178.836 113.326 178.235 112.079 178.307 110.542C178.379 109.005 179.097 107.733 179.921 107.696C180.756 107.659 181.382 108.902 181.309 110.474Z" fill="white"/>
<path d="M195.142 105.055L195.14 105.055C194.96 105.069 194.785 105.123 194.629 105.214C194.483 105.284 194.517 105.376 194.259 105.48L194.259 105.483C193.809 106.069 193.314 107.169 193.255 108.423C193.175 110.094 193.774 111.473 194.609 111.668L194.618 111.668C194.675 111.679 195.374 111.984 197.611 111.818C197.717 110.805 198.019 105.051 198.019 105.051C198.019 105.051 196.247 104.874 195.142 105.055Z" fill="url(#paint12_linear)"/>
<path d="M199.44 108.386C199.352 110.296 198.448 111.841 197.438 111.835C196.449 111.828 195.73 110.327 195.816 108.482C195.903 106.637 196.763 105.1 197.754 105.041C198.765 104.982 199.528 106.478 199.44 108.386Z" fill="#C5DFF8"/>
<path d="M198.651 108.393C198.588 109.749 197.982 110.85 197.306 110.852C196.638 110.855 196.153 109.782 196.215 108.458C196.277 107.134 196.863 106.037 197.531 106.003C198.208 105.97 198.713 107.039 198.651 108.393Z" fill="white"/>
<path d="M152.805 103.915L152.802 103.915C152.553 103.903 152.358 104.02 152.125 104.121C151.902 104.196 151.753 104.358 151.662 104.499L151.661 104.503C150.698 105.214 150.099 106.702 150.019 108.442C149.913 110.759 150.811 112.713 152.101 113.035L152.089 113.036C152.176 113.055 153.225 113.512 156.522 113.419C156.668 112.079 157.065 104.394 157.065 104.394C157.065 104.394 154.468 103.821 152.805 103.915Z" fill="url(#paint13_linear)"/>
<path d="M156.26 113.428C154.813 113.362 153.733 111.285 153.847 108.789C153.962 106.293 155.228 104.324 156.675 104.391C158.122 104.457 159.202 106.534 159.087 109.03C158.973 111.525 157.707 113.494 156.26 113.428Z" fill="#1A70BE"/>
<path d="M156.061 112.111C155.084 112.066 154.359 110.583 154.441 108.799C154.523 107.014 155.381 105.604 156.357 105.649C157.334 105.694 158.059 107.177 157.977 108.961C157.895 110.746 157.037 112.156 156.061 112.111Z" fill="url(#paint14_linear)"/>
<path d="M200.558 106.387C200.594 106.594 200.579 106.807 200.515 107.007C200.451 107.207 200.34 107.388 200.191 107.536L199.63 108.09C199.563 106.376 198.741 105.022 197.675 104.973C196.507 104.92 195.486 106.453 195.397 108.397C195.375 108.836 195.406 109.275 195.488 109.707L195.25 109.793L182.541 111.552C182.587 111.294 182.663 111.027 182.675 110.753C182.686 110.505 182.702 110.264 182.712 110.028L182.712 110.025C182.383 107.993 181.425 106.413 180.013 106.349C178.435 106.276 177.044 108.13 176.936 110.49C176.906 111.135 176.963 111.75 177.109 112.305L175.209 112.567C175.206 112.582 175.201 112.597 175.195 112.611C175.133 112.672 174.659 113.053 172.432 112.951L147.856 111.822C146.744 111.771 145.959 110.762 146.01 109.648L146.014 109.556C146.034 109.129 146.257 108.749 146.646 108.575C146.646 108.575 146.056 106.591 146.703 104.279C146.962 103.356 147.404 102.38 148.165 101.458C148.646 100.878 149.202 100.363 149.817 99.9281C149.817 99.9281 152.72 97.7325 157.88 97.364C157.88 97.364 162.275 94.462 166.262 92.5879C168.216 91.6673 170.365 91.2401 172.522 91.3436L186.749 91.997C189.219 92.1103 191.609 92.9111 193.65 94.3093L197.251 96.7731C197.251 96.7731 198.111 97.3414 198.955 98.6481C199.915 100.133 200.854 102.572 200.479 106.209L200.559 106.387L200.558 106.387Z" fill="#F07440"/>
<path d="M175.202 112.567C175.2 112.581 175.196 112.596 175.191 112.61C175.015 112.71 174.775 113.228 169.082 112.797L147.855 111.822C146.743 111.771 145.958 110.761 146.009 109.647L146.013 109.555C146.014 109.53 145.981 109.505 145.983 109.481C146.027 109.084 146.26 108.738 146.628 108.574L171.332 109.943C171.332 109.943 173.682 109.625 174.462 110.081C174.572 110.145 174.648 110.224 174.684 110.32C174.985 111.112 175.374 112.211 175.202 112.567Z" fill="#ACD1F5"/>
<path d="M152.402 104.591L152.388 104.914C152.382 105.037 152.351 105.159 152.297 105.271C152.244 105.382 152.168 105.482 152.075 105.564C151.981 105.645 151.872 105.707 151.755 105.746C151.637 105.784 151.513 105.798 151.389 105.787L148.751 105.554C148.117 105.498 147.528 105.205 147.099 104.735L146.684 104.279C146.971 103.245 147.472 102.284 148.155 101.458C148.165 101.46 148.174 101.461 148.183 101.463L149.406 102.525C150.053 103.087 150.834 103.474 151.673 103.648C151.887 103.693 152.077 103.812 152.211 103.985C152.345 104.158 152.413 104.373 152.402 104.591Z" fill="white"/>
<path d="M164.153 104.76C163.97 104.962 163.672 105.119 163.492 105.111L153.596 104.655C153.416 104.647 153.17 104.465 153.05 104.25C152.93 104.036 152.997 103.873 153.198 103.882L164.115 104.384C164.316 104.393 164.337 104.561 164.153 104.761L164.153 104.76Z" fill="#D95B26"/>
<path d="M162.975 106.063C162.781 106.275 162.506 106.442 162.359 106.435L154.316 106.063C154.17 106.056 153.948 105.866 153.821 105.641C153.694 105.416 153.731 105.242 153.899 105.25L163.013 105.671C163.182 105.679 163.167 105.854 162.975 106.063Z" fill="#D95B26"/>
<path d="M166.951 106.569C166.349 106.526 165.888 106.067 165.912 105.532L165.927 105.206C165.951 104.698 166.407 104.293 166.979 104.27L168.059 104.225L174.533 102.831L174.356 103.633C174.088 104.843 173.11 105.828 171.791 106.214L170.826 106.497C170.185 106.684 169.515 106.754 168.849 106.706L166.951 106.569Z" fill="white"/>
<path d="M174.456 110.107L171.755 110.717L145.944 109.532C145.989 109.11 146.24 108.764 146.607 108.6L171.321 109.969C171.321 109.969 173.676 109.651 174.456 110.107Z" fill="#C5DFF8"/>
<path d="M191.348 109.074L191.344 109.074C191.266 108.901 191.195 108.95 191.202 108.865C191.206 108.813 191.597 103.617 191.54 101.499C191.493 99.6662 191.201 99.3205 191.175 99.2947C191.143 99.2734 191.12 99.2414 191.109 99.2044C191.098 99.1673 191.101 99.1276 191.116 99.0923C191.133 99.0545 191.164 99.0249 191.203 99.0099C191.241 98.9949 191.284 98.9957 191.322 99.0121C191.433 99.0613 191.797 99.3865 191.852 101.471C191.908 103.603 191.516 108.836 191.512 108.888C191.506 108.973 191.432 109.078 191.348 109.074Z" fill="#D95B26"/>
<path d="M200.558 106.388L200.479 106.209C200.854 102.572 199.916 100.133 198.956 98.6484C198.307 98.6561 197.426 98.9386 197.424 100.412C197.42 102.739 196.902 103.917 195.091 104.899C194.231 105.363 193.294 105.754 192.523 106.364C191.834 106.909 191.484 107.78 190.785 108.291C189.602 109.155 188.071 108.677 186.745 108.555C185.536 108.443 182.793 108.26 182.712 110.024L182.712 110.027C182.701 110.264 182.686 110.505 182.675 110.753C182.662 111.027 182.584 111.293 182.538 111.552L195.248 109.793L195.487 109.707C195.405 109.275 195.374 108.835 195.396 108.396C195.485 106.452 196.507 104.919 197.674 104.973C198.741 105.022 199.562 106.376 199.63 108.09L200.19 107.535C200.339 107.388 200.451 107.206 200.515 107.006C200.579 106.807 200.593 106.594 200.558 106.388Z" fill="#D95B26"/>
<path d="M184.102 92.9778C184.102 92.9778 182.247 97.1545 181.805 97.7585C181.763 97.8144 181.71 97.8983 181.648 97.9452C181.052 98.3986 179.643 98.4513 179.643 98.4513L158.962 97.5015C163.738 94.1614 167.774 92.2279 167.774 92.2279L184.102 92.9778Z" fill="#3693E7"/>
<path d="M196.648 97.136C196.648 97.136 194.4 97.9383 191.398 98.6526C191.303 98.0791 191.161 97.5146 190.972 96.9652C190.564 95.7744 189.848 94.3694 188.578 93.1015C189.764 93.2405 190.927 93.5353 192.036 93.9783C193.565 94.5907 195.173 95.5745 196.648 97.136Z" fill="#3693E7"/>
<path d="M190.629 98.8294C189.134 99.1618 187.493 99.4579 185.871 99.6207C184.947 99.7124 184.03 99.7608 183.151 99.7471C182.894 99.743 182.639 99.7344 182.388 99.7198C182.389 99.7186 182.389 99.7176 182.39 99.7168C182.437 99.5535 184.305 93.171 185.772 93.0464C186.284 93.0041 186.799 92.991 187.312 93.007C188.834 94.245 189.678 95.7379 190.144 97.001C190.363 97.5937 190.525 98.206 190.629 98.8294Z" fill="#3693E7"/>
<path d="M181.648 97.9433C181.052 98.3967 179.643 98.4513 179.643 98.4513L158.962 97.5015C163.738 94.1614 167.774 92.228 167.774 92.228L168.066 92.2414C168.516 92.4315 168.945 92.8597 169.316 93.4431C170.811 95.8018 179.73 94.476 181.648 97.9433Z" fill="#1A70BE"/>
<path opacity="0.3" d="M183.152 99.7472C182.895 99.7431 182.64 99.7345 182.39 99.7199C182.39 99.7187 182.391 99.7177 182.392 99.7169C182.6 99.7249 182.855 99.7351 183.152 99.7472Z" fill="url(#paint15_linear)"/>
<path d="M190.145 97.0011C190.364 97.594 190.527 98.2064 190.63 98.83C189.135 99.1619 187.494 99.458 185.872 99.6208C186.11 99.4054 186.333 99.1299 186.532 98.7817C187.404 97.2688 188.83 97.0672 190.145 97.0011Z" fill="#1A70BE"/>
<path d="M196.648 97.136C196.648 97.136 194.4 97.9382 191.397 98.6525C191.303 98.079 191.161 97.5146 190.971 96.9651C191.765 96.9221 192.453 96.8303 192.865 96.3779C193.588 95.5807 192.781 94.6133 192.036 93.9783C193.564 94.5907 195.173 95.5744 196.648 97.136Z" fill="#1A70BE"/>
<path d="M182.319 100.021C182.319 100.021 183.092 97.4625 184.027 97.4017C184.962 97.3409 187.65 96.7035 187.832 97.9915C188.015 99.2795 187.503 99.8932 186.156 99.9111C184.809 99.9289 183.917 99.8082 183.917 99.8082L183.266 100.445C183.266 100.445 182.235 101.089 182.319 100.021Z" fill="#D95B26"/>
<path d="M182.007 100.007C182.007 100.007 182.781 97.4483 183.717 97.3875C184.653 97.3267 187.339 96.6894 187.522 97.9774C187.705 99.2654 187.193 99.879 185.846 99.8969C184.498 99.9148 183.607 99.7941 183.607 99.7941L182.955 100.431C182.955 100.431 181.924 101.075 182.007 100.007Z" fill="white"/>
<path d="M52.0527 195.058C51.725 195.041 51.4108 194.923 51.1532 194.719C50.8956 194.516 50.7074 194.238 50.6146 193.924C50.5581 193.729 50.5413 193.524 50.5652 193.323C50.5891 193.121 50.6532 192.926 50.7537 192.75C50.8542 192.573 50.989 192.419 51.1503 192.296C51.3115 192.172 51.4958 192.082 51.6924 192.032C54.8185 191.194 57.9454 190.344 60.9864 189.503C61.3899 189.392 61.821 189.441 62.1888 189.641C62.5565 189.841 62.8322 190.176 62.9575 190.576C63.0164 190.772 63.0351 190.978 63.0126 191.181C62.9901 191.385 62.9268 191.582 62.8265 191.76C62.7262 191.939 62.591 192.095 62.4288 192.221C62.2667 192.346 62.081 192.437 61.8828 192.489C58.8269 193.326 55.6842 194.173 52.5431 195.007C52.3833 195.049 52.2178 195.067 52.0527 195.058Z" fill="white"/>
<path d="M83.7288 186.169C83.3955 186.156 83.0737 186.044 82.805 185.846C82.5363 185.649 82.3329 185.376 82.2213 185.061C81.9414 184.233 82.4129 183.352 83.2747 183.094C90.7648 180.854 98.2454 178.532 106.145 175.991C107.029 175.706 108.005 176.149 108.321 176.986C108.637 177.823 108.175 178.73 107.287 179.013C99.3445 181.548 91.8244 183.865 84.2917 186.1C84.1092 186.154 83.919 186.177 83.7288 186.169ZM130.22 171.349C129.524 171.326 128.874 170.924 128.61 170.287C128.263 169.448 128.718 168.519 129.626 168.211C130.759 167.827 131.9 167.438 133.048 167.045C139.811 164.734 145.988 162.217 153.081 158.878C153.969 158.459 155.076 158.77 155.553 159.575C156.03 160.379 155.694 161.371 154.803 161.789C147.557 165.183 141.242 167.741 134.325 170.087C133.168 170.479 132.022 170.867 130.886 171.251C130.672 171.324 130.447 171.358 130.22 171.351V171.349Z" fill="white"/>
<g filter="url(#filter0_d)">
<path d="M226.896 140.81L226.929 148.221C226.929 148.909 226.456 149.521 225.826 149.639L149.286 163.348L138.07 171.759L121.051 152.209L226.896 140.81Z" fill="#0F5FA7"/>
</g>
<g filter="url(#filter1_d)">
<path d="M222.19 108.314L222.223 115.724C222.223 116.412 221.75 117.025 221.119 117.143L149.286 120.873L138.07 129.284L121.051 109.734L222.19 108.314Z" fill="#0F5FA7"/>
</g>
<path d="M169.595 155.479L169.747 162.54C169.75 162.832 169.655 163.116 169.477 163.347C169.3 163.578 169.05 163.743 168.767 163.816L149.162 168.725L149.427 157.04L168.293 154.37C168.454 154.346 168.618 154.356 168.774 154.4C168.93 154.444 169.074 154.522 169.198 154.627C169.321 154.732 169.421 154.862 169.489 155.009C169.558 155.156 169.594 155.317 169.595 155.479Z" fill="#1A70BE"/>
<path d="M219.763 144.733C219.82 144.73 219.878 144.73 219.935 144.733L220.837 144.654V145.082C221.714 145.756 222.327 147.316 222.335 149.175C222.347 151.107 221.705 152.81 220.784 153.573V153.915L219.827 153.994C218.417 154.109 217.255 152.127 217.237 149.562C217.218 146.998 218.35 144.832 219.763 144.733Z" fill="url(#paint16_linear)"/>
<path d="M218.315 149.484C218.333 152.044 219.49 154.024 220.896 153.91C222.302 153.796 223.419 151.644 223.402 149.101C223.386 146.559 222.241 144.563 220.837 144.661C219.433 144.758 218.297 146.918 218.315 149.484Z" fill="url(#paint17_linear)"/>
<path d="M219.793 149.372C219.803 150.808 220.451 151.921 221.24 151.859C222.028 151.798 222.659 150.587 222.649 149.156C222.639 147.724 221.996 146.607 221.208 146.664C220.419 146.72 219.782 147.934 219.793 149.372Z" fill="#D8DEE8"/>
<path d="M219.793 149.372C219.803 150.705 220.353 151.743 221.023 151.69C221.693 151.637 222.226 150.518 222.218 149.189C222.21 147.86 221.662 146.817 220.992 146.865C220.323 146.914 219.782 148.037 219.793 149.372Z" fill="url(#paint18_linear)"/>
<path d="M213.686 145.684C213.75 145.68 213.814 145.68 213.878 145.684L214.881 145.6V146.073C215.857 146.815 216.543 148.535 216.558 150.586C216.574 152.715 215.865 154.595 214.841 155.438V155.816L213.777 155.904C212.21 156.035 210.914 153.855 210.887 151.022C210.86 148.188 212.115 145.795 213.686 145.684Z" fill="url(#paint19_linear)"/>
<path d="M212.084 150.928C212.11 153.753 213.401 155.934 214.964 155.804C216.526 155.674 217.76 153.3 217.74 150.493C217.719 147.687 216.442 145.49 214.881 145.6C213.32 145.711 212.056 148.098 212.084 150.928Z" fill="url(#paint20_linear)"/>
<path d="M213.729 150.803C213.742 152.387 214.465 153.613 215.342 153.543C216.219 153.473 216.919 152.138 216.903 150.559C216.887 148.981 216.173 147.749 215.296 147.813C214.419 147.877 213.715 149.215 213.729 150.803Z" fill="#D8DEE8"/>
<path d="M213.729 150.803C213.741 152.274 214.359 153.417 215.101 153.358C215.842 153.299 216.435 152.062 216.424 150.599C216.413 149.136 215.802 147.985 215.057 148.04C214.313 148.095 213.716 149.329 213.729 150.803Z" fill="url(#paint21_linear)"/>
<path d="M207.092 146.152C207.163 146.148 207.234 146.148 207.305 146.152L208.418 146.06V146.579C209.502 147.394 210.265 149.286 210.287 151.546C210.309 153.888 209.526 155.96 208.394 156.886V157.301L207.212 157.401C205.473 157.547 204.03 155.146 203.995 152.033C203.959 148.92 205.347 146.271 207.092 146.152Z" fill="url(#paint22_linear)"/>
<path d="M205.325 151.921C205.36 155.029 206.797 157.426 208.53 157.281C210.263 157.136 211.626 154.522 211.598 151.436C211.571 148.35 210.149 145.934 208.418 146.056C206.686 146.178 205.291 148.806 205.325 151.921Z" fill="url(#paint23_linear)"/>
<path d="M207.151 151.78C207.169 153.523 207.974 154.871 208.946 154.792C209.918 154.713 210.688 153.244 210.671 151.507C210.654 149.77 209.856 148.417 208.884 148.489C207.912 148.56 207.133 150.035 207.151 151.78Z" fill="#D8DEE8"/>
<path d="M207.151 151.78C207.168 153.398 207.852 154.655 208.678 154.588C209.503 154.521 210.156 153.161 210.14 151.548C210.125 149.935 209.445 148.673 208.62 148.735C207.794 148.796 207.134 150.159 207.151 151.78Z" fill="url(#paint24_linear)"/>
<path d="M175.314 151.442C175.411 151.437 175.509 151.437 175.607 151.442L177.138 151.31L177.142 151.997C178.64 153.064 179.714 155.556 179.769 158.535C179.826 161.626 178.774 164.368 177.228 165.608V166.16L175.605 166.309C173.213 166.528 171.19 163.374 171.106 159.255C171.023 155.136 172.907 151.621 175.314 151.442Z" fill="url(#paint25_linear)"/>
<path d="M172.95 159.098C173.035 163.208 175.044 166.356 177.425 166.137C179.791 165.921 181.646 162.454 181.573 158.384C181.499 154.313 179.523 151.131 177.14 151.308C174.742 151.485 172.861 154.981 172.95 159.098Z" fill="#1A70BE"/>
<path d="M175.458 158.889C175.504 161.193 176.628 162.963 177.963 162.846C179.299 162.729 180.338 160.78 180.295 158.489C180.253 156.198 179.14 154.417 177.805 154.521C176.47 154.625 175.413 156.582 175.458 158.889Z" fill="#D8DEE8"/>
<path d="M175.458 158.89C175.501 161.028 176.457 162.68 177.592 162.58C178.727 162.481 179.607 160.678 179.563 158.549C179.519 156.42 178.574 154.76 177.44 154.844C176.305 154.928 175.416 156.748 175.458 158.89Z" fill="url(#paint26_linear)"/>
<path d="M145.448 154.876C145.581 154.867 145.715 154.865 145.848 154.871L147.942 154.688L147.956 155.595C150.017 156.994 151.503 160.272 151.61 164.195C151.719 168.263 150.312 171.882 148.215 173.537L148.225 174.259L146.009 174.476C142.737 174.796 139.933 170.661 139.768 165.221C139.599 159.764 142.154 155.125 145.448 154.876Z" fill="url(#paint27_linear)"/>
<path d="M142.289 165.002C142.446 170.426 145.234 174.552 148.487 174.233C151.72 173.918 154.203 169.335 154.063 163.985C153.923 158.614 151.191 154.447 147.942 154.691C144.668 154.935 142.127 159.56 142.289 165.002Z" fill="#1A70BE"/>
<path d="M145.728 164.704C145.815 167.742 147.37 170.064 149.198 169.893C151.025 169.722 152.415 167.148 152.335 164.133C152.254 161.117 150.717 158.777 148.894 158.923C147.071 159.068 145.641 161.661 145.728 164.704Z" fill="#D8DEE8"/>
<path d="M145.728 164.704C145.807 167.525 147.134 169.692 148.684 169.548C150.233 169.405 151.414 167.021 151.338 164.218C151.262 161.416 149.949 159.232 148.4 159.358C146.852 159.483 145.647 161.879 145.728 164.704Z" fill="url(#paint28_linear)"/>
<path d="M87.0758 134.525L90.0466 126.35L89.747 119.578L86.1912 118.969C85.8459 118.91 85.6117 118.597 85.6764 118.278C86.0848 116.263 87.6317 109.578 90.5433 107.321C92.6012 105.727 133.533 104.604 133.533 104.604L153.414 105.5C154.978 105.571 156.226 106.767 156.266 108.232L157.38 148.663C157.409 149.703 156.567 150.578 155.443 150.681L142.145 151.888L139.599 154.359C139.599 154.359 102.247 157.504 87.2319 155.162C86.4545 155.041 85.8561 154.433 85.8128 153.711L84.7239 136.339C84.5662 133.791 87.0758 134.525 87.0758 134.525Z" fill="#3693E7"/>
<path d="M128.126 136.432C128.126 136.432 127.816 118.899 127.095 111.601C126.744 108.043 128.561 105.929 130.528 104.693C132.408 104.635 133.533 104.604 133.533 104.604L153.413 105.499C154.977 105.57 156.225 106.766 156.266 108.231L157.38 148.662C157.409 149.702 156.567 150.578 155.442 150.68L142.144 151.887L139.598 154.359C139.598 154.359 133.42 154.88 125.085 155.34L124.449 140.687L128.126 136.432Z" fill="#1A70BE"/>
<path d="M86.5151 158.213L87.9555 157.724L87.786 154.974C87.7403 154.231 88.356 153.622 89.161 153.613L135.546 153.118C136.671 153.106 137.614 153.933 137.653 154.965L138.264 171.372C138.297 172.267 137.507 172.989 136.524 172.963L87.2373 171.66C86.314 171.636 85.5429 170.951 85.4893 170.106L84.8854 160.533C84.8199 159.5 85.4727 158.569 86.5151 158.213Z" fill="#F07440"/>
<path d="M91.282 143.962L118.872 143.638C119.804 143.627 120.574 144.348 120.548 145.208L119.94 165.091C119.91 166.08 119.028 166.843 117.946 166.819L94.4625 166.309C93.4375 166.287 92.5647 165.561 92.4347 164.627L89.7847 145.569C89.6665 144.712 90.354 143.973 91.282 143.962Z" fill="#1A70BE"/>
<path d="M86.5165 158.213L87.957 157.724L87.7875 154.974C87.7512 154.387 88.1289 153.885 88.6863 153.695L92.2185 165.786C92.6363 167.216 94.0492 168.247 95.6497 168.289L117.174 168.859C118.721 168.9 120.082 168.013 120.528 166.672L124.991 153.231L135.544 153.118C136.669 153.106 137.612 153.933 137.65 154.965L138.261 171.372C138.294 172.267 137.504 172.989 136.521 172.963L87.2348 171.66C86.3123 171.636 85.5404 170.951 85.4868 170.106L84.8829 160.533C84.8214 159.5 85.475 158.569 86.5165 158.213Z" fill="#D95B26"/>
<path d="M123.316 167.703L128.462 167.89C131.659 168.007 134.318 165.787 134.467 162.867L134.586 160.569L124.257 160.672C123.563 160.678 123.024 161.199 123.052 161.835L123.316 167.703Z" fill="#FFCBB6"/>
<path d="M89.9533 161.978L91.0768 167.068C91.0768 167.068 85.6926 166.945 85.4355 160.714L88.8006 161.019C89.3667 161.07 89.8405 161.465 89.9533 161.978Z" fill="#FFCBB6"/>
<path d="M89.747 119.578L127.583 119.034L129.692 118.662C130.79 118.468 131.831 119.248 131.873 120.295L132.334 132C132.349 132.439 132.253 132.874 132.056 133.266C131.859 133.658 131.566 133.994 131.205 134.244L129.113 135.729C128.455 136.19 127.669 136.434 126.866 136.427L87.5575 136.269L87.0742 134.522L89.747 119.578Z" fill="#BDDCFA"/>
<path d="M113.029 115.145L116.261 115.097C116.75 115.09 117.164 115.455 117.185 115.914L117.245 117.183C117.266 117.641 116.887 118.017 116.398 118.024L113.173 118.071C112.684 118.078 112.271 117.713 112.248 117.256L112.187 115.987C112.162 115.529 112.542 115.152 113.029 115.145Z" fill="#1A70BE"/>
<path d="M94.1167 115.426L97.3327 115.378C97.8199 115.371 98.2354 115.736 98.2607 116.194L98.3309 117.455C98.3561 117.913 97.9824 118.289 97.4959 118.296L94.2838 118.342C93.7974 118.349 93.3827 117.985 93.3558 117.529L93.2825 116.267C93.2565 115.81 93.6334 115.433 94.1167 115.426Z" fill="#1A70BE"/>
<path d="M102 127.731C111.55 124.124 120.923 128.332 124.922 123.546C126.007 122.247 126.4 120.642 126.44 119.052L127.584 119.037L129.693 118.664C130.791 118.47 131.832 119.25 131.874 120.297L132.335 132.004C132.35 132.442 132.254 132.877 132.057 133.269C131.859 133.661 131.567 133.997 131.206 134.246L129.114 135.729C128.456 136.19 127.67 136.434 126.867 136.427L91.2461 136.286C94.9683 131.193 98.9294 128.888 102 127.731Z" fill="#95C0EA"/>
<path d="M87.4593 136.383L86.957 134.522L89.7757 119.731H89.8924L127.437 118.888L129.508 118.51C129.633 118.488 129.759 118.476 129.886 118.476C130.928 118.476 131.82 119.257 131.874 120.215L132.523 131.692C132.545 132.15 132.45 132.606 132.248 133.017C132.045 133.428 131.741 133.781 131.365 134.043L129.286 135.531C128.603 136.011 127.788 136.267 126.953 136.266L87.4593 136.383ZM87.2527 134.511L87.68 136.094L126.953 135.974C127.727 135.976 128.484 135.738 129.118 135.294L131.197 133.806C131.534 133.572 131.805 133.257 131.987 132.889C132.169 132.522 132.254 132.114 132.235 131.705L131.586 120.229C131.54 119.42 130.777 118.762 129.886 118.762C129.776 118.762 129.667 118.772 129.559 118.791L127.466 119.171L90.0154 120.014L87.2527 134.511Z" fill="#1A70BE"/>
<path d="M193.572 118.978L184.235 102.874C184.179 102.777 184.093 102.701 183.99 102.657C183.887 102.612 183.773 102.602 183.664 102.627L170.601 105.68C170.519 105.698 170.443 105.736 170.38 105.79C170.316 105.844 170.266 105.913 170.234 105.99C170.203 106.067 170.19 106.151 170.197 106.234C170.205 106.317 170.232 106.397 170.277 106.468L181.111 123.79C181.175 123.891 181.271 123.968 181.384 124.007C181.497 124.046 181.619 124.045 181.732 124.005L193.214 119.858L193.572 118.978Z" fill="#1A70BE"/>
<path d="M191.277 117.15L183.717 104.111C183.671 104.033 183.601 103.971 183.518 103.935C183.435 103.899 183.342 103.891 183.254 103.911L172.676 106.383C172.611 106.398 172.55 106.429 172.499 106.473C172.447 106.516 172.407 106.571 172.382 106.633C172.356 106.696 172.345 106.763 172.351 106.83C172.357 106.897 172.378 106.962 172.414 107.019L181.187 121.045C181.239 121.127 181.316 121.188 181.408 121.22C181.499 121.252 181.599 121.251 181.69 121.218L190.986 117.861L191.277 117.15Z" fill="white"/>
<path d="M181.484 104.261L180.883 103.214C180.843 103.144 180.781 103.088 180.706 103.055C180.631 103.022 180.548 103.014 180.469 103.032L175.028 104.255C174.97 104.268 174.915 104.295 174.869 104.334C174.822 104.372 174.786 104.421 174.762 104.476C174.738 104.531 174.727 104.592 174.731 104.652C174.735 104.712 174.753 104.77 174.783 104.822L175.45 105.959C175.492 106.03 175.555 106.085 175.631 106.117C175.707 106.149 175.791 106.156 175.871 106.137L181.245 104.822C181.302 104.808 181.355 104.78 181.4 104.742C181.445 104.704 181.481 104.655 181.504 104.601C181.527 104.546 181.538 104.487 181.534 104.428C181.531 104.369 181.514 104.312 181.484 104.261Z" fill="#3693E7"/>
<path d="M174.358 108.745C174.366 108.744 174.375 108.742 174.383 108.74L183.962 106.48C184.019 106.466 184.068 106.431 184.099 106.381C184.129 106.331 184.139 106.272 184.126 106.215C184.112 106.158 184.076 106.11 184.027 106.079C183.977 106.048 183.917 106.038 183.86 106.051L174.282 108.313C174.227 108.327 174.18 108.36 174.149 108.408C174.118 108.455 174.107 108.512 174.117 108.567C174.127 108.623 174.158 108.672 174.203 108.706C174.248 108.739 174.305 108.754 174.361 108.747L174.358 108.745Z" fill="#D8DEE8"/>
<path d="M174.959 109.672L174.986 109.668L184.506 107.319C184.563 107.305 184.612 107.269 184.642 107.218C184.672 107.168 184.682 107.108 184.668 107.051C184.654 106.994 184.617 106.945 184.567 106.915C184.517 106.885 184.457 106.876 184.4 106.89L174.88 109.24C174.827 109.254 174.78 109.288 174.751 109.335C174.721 109.382 174.71 109.438 174.72 109.492C174.73 109.547 174.76 109.595 174.804 109.629C174.849 109.662 174.904 109.678 174.959 109.672Z" fill="#D8DEE8"/>
<path d="M179.981 110.706L180.014 110.699L185.19 109.271C185.219 109.265 185.247 109.252 185.271 109.235C185.295 109.218 185.316 109.195 185.331 109.17C185.347 109.144 185.357 109.115 185.361 109.086C185.365 109.056 185.363 109.026 185.355 108.997C185.347 108.968 185.333 108.941 185.315 108.918C185.296 108.894 185.273 108.875 185.246 108.861C185.22 108.847 185.191 108.838 185.161 108.836C185.131 108.833 185.101 108.837 185.072 108.846L179.896 110.274C179.843 110.289 179.797 110.323 179.767 110.371C179.738 110.418 179.728 110.474 179.738 110.529C179.749 110.584 179.78 110.632 179.825 110.665C179.87 110.698 179.925 110.712 179.981 110.706Z" fill="#D8DEE8"/>
<path d="M181.09 112.575L181.123 112.568L186.299 111.14C186.329 111.134 186.356 111.121 186.381 111.104C186.405 111.087 186.425 111.064 186.441 111.039C186.456 111.013 186.466 110.984 186.471 110.955C186.475 110.925 186.473 110.895 186.465 110.866C186.457 110.837 186.443 110.81 186.424 110.787C186.405 110.763 186.382 110.744 186.356 110.73C186.329 110.716 186.3 110.707 186.27 110.705C186.24 110.702 186.21 110.706 186.182 110.715L181.006 112.143C180.952 112.158 180.906 112.192 180.877 112.24C180.848 112.287 180.837 112.343 180.848 112.398C180.859 112.453 180.889 112.501 180.934 112.534C180.979 112.567 181.035 112.581 181.09 112.575Z" fill="#D8DEE8"/>
<path d="M182.259 114.439C182.27 114.438 182.281 114.435 182.292 114.432L187.468 113.005C187.498 112.998 187.525 112.986 187.55 112.968C187.574 112.951 187.595 112.929 187.61 112.903C187.625 112.877 187.636 112.849 187.64 112.819C187.644 112.789 187.642 112.759 187.634 112.73C187.626 112.701 187.612 112.674 187.593 112.651C187.574 112.628 187.551 112.608 187.525 112.594C187.498 112.58 187.469 112.571 187.439 112.569C187.409 112.567 187.379 112.57 187.351 112.58L182.176 114.007C182.122 114.022 182.076 114.057 182.047 114.104C182.017 114.151 182.007 114.208 182.018 114.262C182.028 114.317 182.059 114.365 182.104 114.398C182.149 114.431 182.205 114.446 182.26 114.439H182.259Z" fill="#D8DEE8"/>
<path d="M177.781 116.502C177.781 116.502 176.779 114.625 176.177 114.661C175.574 114.697 175.142 114.244 175.142 114.244C175.142 114.244 174.047 111.721 173.801 112.097C173.555 112.473 173.097 117.3 176.124 118.453C179.151 119.605 177.781 116.502 177.781 116.502Z" fill="url(#paint29_linear)"/>
<path d="M228.393 100.796C229.02 101.033 238.579 104.834 240.544 114.809C240.701 115.615 242.238 124.185 236.425 130.239C229.907 137.028 217.356 136.861 212.378 131.185C211.216 129.862 210.603 128.395 210.26 127.165L211.573 123.677C213.174 121.744 215.357 121.286 216.519 120.997C219.391 120.288 221.559 121.568 223.203 120.184C224.113 119.418 224.293 118.315 224.455 117.331C225.007 113.977 223.114 111.912 222.973 109.842C222.871 108.296 222.329 104.908 224.347 102.698C225.622 101.297 227.392 100.919 228.393 100.796Z" fill="#D95B26"/>
<path d="M232.117 211.964C232.229 211.35 234.212 210.794 235.192 211.616C235.68 212.025 236.015 212.852 235.733 213.227C235.631 213.363 236.049 213.602 235.648 213.607C234.315 213.622 232.003 212.574 232.117 211.964Z" fill="#1A70BE"/>
<path d="M234.196 212.187L236.236 211.899C235.29 210.761 235.466 207.139 235.466 207.139L233.297 207.623C233.297 207.623 233.544 208.617 233.965 210.084C234.108 210.586 234.173 211.372 234.196 212.187Z" fill="#F07440"/>
<path d="M234.016 211.936C234.016 211.936 236.472 211.37 236.737 211.857C237.003 212.345 237.21 213.648 235.651 213.607C234.091 213.565 233.878 212.349 234.016 211.936Z" fill="#1A70BE"/>
<path d="M204.13 214.267C204.326 213.674 206.367 213.4 207.225 214.353C207.651 214.826 207.867 215.694 207.536 216.023C207.415 216.144 207.797 216.439 207.398 216.387C206.073 216.216 203.936 214.856 204.13 214.267Z" fill="#1A70BE"/>
<path d="M206.156 214.779H208.216C207.439 213.518 208.12 209.958 208.12 209.958L205.904 210.133C205.904 210.133 206.009 211.152 206.22 212.663C206.293 213.181 206.246 213.968 206.156 214.779Z" fill="#F07440"/>
<path d="M200.816 136.886C199.37 141.667 198.302 146.555 197.622 151.503C195.119 169.703 200.437 170.283 199.445 190.45C199.129 196.888 205.022 211.735 205.542 212.059C205.813 212.088 206.085 212.098 206.357 212.092C207.061 212.067 207.759 211.951 208.434 211.746C209.367 211.588 212.734 202.467 211.954 197.046C211.402 193.209 211.56 189.092 211.882 180.857C211.934 179.522 215.351 154.895 215.351 154.895C216.389 164.01 217.583 171.756 218.619 177.761C221.947 197.054 232.765 208.731 233.328 208.919C233.44 208.964 234.455 209.333 235.285 208.786C235.499 208.65 235.671 208.456 235.78 208.227C236.07 208.001 235.695 188.966 232.396 174.64C227.606 153.847 229.691 148.981 228.174 139.694C226.859 131.657 200.816 136.886 200.816 136.886Z" fill="#1A70BE"/>
<path d="M220.162 99.1738C216.983 99.08 209.676 97.9574 205.649 101.58C205.579 101.642 206.403 102.083 205.997 102.559C204.924 103.825 203.972 105.19 203.155 106.636C202.306 108.15 201.54 109.914 200.766 112.548C199.783 115.91 199.151 119.364 198.88 122.855C198.145 132.532 198.874 136.996 199.536 140.032C202.411 141.508 209.82 144.15 218.646 142.837C221.976 142.337 225.198 141.276 228.174 139.7C225.883 132.763 227.68 129.058 228.528 125.636C229.736 120.759 229.756 121.128 230.751 117.254C232.393 110.863 232.663 104.332 231.535 102.995C228.492 99.3874 223.009 99.2573 220.162 99.1738Z" fill="#F07440"/>
<path d="M206.012 214.505C206.012 214.505 208.523 214.288 208.717 214.807C208.912 215.327 208.934 216.647 207.397 216.384C205.859 216.121 205.817 214.893 206.012 214.505Z" fill="#1A70BE"/>
<path d="M211.131 95.6933C210.146 94.0284 210.668 91.9615 210.766 91.55C211.18 89.8299 211.335 89.5682 211.654 89.2048L212.106 88.7271C212.106 88.7271 212.133 88.7058 212.163 88.6853C212.479 88.4693 213.65 88.1185 213.903 88.1059C214.712 88.0649 216.358 90.9651 217.301 95.4332C217.38 95.5909 217.453 95.754 217.528 95.9172C217.995 96.931 218.395 97.9282 218.74 98.9002C224.206 99.3621 224.965 100.004 224.989 100.374C225.04 101.153 221.926 102.053 219.584 102.396C214.477 103.144 209.226 101.797 209.25 100.845C209.26 100.43 210.275 99.8903 214.606 99.3227C214.504 98.6069 214.403 97.8906 214.302 97.1738C213.948 97.0957 211.857 96.9199 211.131 95.6933Z" fill="url(#paint30_linear)"/>
<path d="M210.186 87.8961C210.555 89.2599 211.587 90.5464 211.977 90.6938C212.211 90.7943 212.426 90.9322 212.616 91.1022C212.662 91.1435 212.703 91.1906 212.737 91.2425C213.265 92.0229 212.167 93.4001 212.534 93.7154C212.8 93.9432 213.63 93.3212 213.804 93.5341C213.969 93.7327 213.322 94.4091 213.513 94.6495C213.657 94.8316 214.083 94.5163 214.466 94.7512C214.658 94.8679 214.647 95.0043 214.933 95.441C215.082 95.6724 215.252 95.8896 215.44 96.0898C216.126 96.7653 217.54 96.7023 217.712 96.3129C217.759 96.2041 217.678 96.1457 217.671 95.8257C217.674 95.5993 217.708 95.3743 217.773 95.1572C217.926 94.6243 218.507 94.1174 219.051 93.4529C220.058 92.2231 220.193 91.3678 220.226 91.0817C220.237 90.98 220.241 90.9043 220.244 90.8499C220.3 89.7573 219.908 88.2792 219.213 87.4909C218.049 86.1697 216.532 87.3482 214.73 86.2131C212.651 84.9029 212.978 82.2668 212.032 82.2376C210.989 82.2069 209.505 85.3735 210.186 87.8961Z" fill="#1A70BE"/>
<path d="M212.938 93.2654C213.15 92.7135 213.853 92.991 214.015 93.5854C214.178 94.1798 213.765 94.9516 213.175 94.9831C212.584 95.0146 212.652 94.004 212.938 93.2654Z" fill="url(#paint31_linear)"/>
<path d="M227.159 135.285C227.143 135.285 227.126 135.278 227.114 135.267C227.101 135.256 227.093 135.241 227.092 135.224C226.711 131.81 227.417 129.337 228.038 127.155C228.19 126.622 228.333 126.119 228.459 125.615C229.145 122.845 229.446 121.775 229.764 120.642C229.971 119.906 230.185 119.145 230.516 117.874C230.518 117.865 230.522 117.856 230.527 117.848C230.533 117.841 230.539 117.834 230.547 117.829C230.555 117.824 230.564 117.821 230.573 117.819C230.583 117.818 230.592 117.818 230.601 117.821C230.61 117.823 230.619 117.827 230.626 117.833C230.633 117.839 230.64 117.846 230.644 117.854C230.649 117.863 230.651 117.872 230.652 117.881C230.653 117.89 230.652 117.9 230.649 117.909C230.317 119.181 230.103 119.942 229.896 120.68C229.581 121.811 229.278 122.88 228.592 125.646C228.467 126.151 228.322 126.656 228.17 127.19C227.551 129.36 226.849 131.819 227.224 135.206C227.225 135.216 227.225 135.225 227.222 135.234C227.22 135.243 227.216 135.251 227.21 135.259C227.205 135.266 227.198 135.272 227.189 135.277C227.181 135.281 227.173 135.284 227.163 135.285L227.159 135.285Z" fill="#9B305E"/>
<path d="M212.945 92.1971L212.438 93.4143C212.438 93.4143 212.085 94.5881 211.261 94.3271C210.694 94.1474 210.546 93.6878 210.541 93.4316C210.366 93.9414 210.28 94.4774 210.288 95.0161C210.288 95.6901 210.288 96.4114 210.815 96.9633C210.845 96.9956 211.42 97.5797 212.194 97.5513C212.194 97.5513 212.498 97.5403 213.654 97.0043C213.654 97.0043 212.073 96.3957 211.991 96.1726C211.771 95.5656 212.543 95.0004 212.843 93.5562C212.935 93.1095 212.969 92.6526 212.945 92.1971Z" fill="#1A70BE"/>
<path d="M177.819 116.109C176.669 116.914 176.052 118.007 175.732 118.704C176.578 120.688 178.492 124.372 182.464 127.087C188.971 131.539 198.513 131.688 205.158 126.614C213.099 120.549 214.425 108.918 211.09 103.938C210.706 103.364 209.444 101.479 207.484 101.263C206.247 101.126 204.563 101.637 201.902 104.752C196.357 111.243 198.315 115.296 195.043 117.195C190.128 120.04 182.828 112.605 177.819 116.109Z" fill="#D95B26"/>
<path opacity="0.4" d="M200.172 129.336C200.156 129.336 200.141 129.33 200.129 129.321C200.116 129.311 200.108 129.297 200.105 129.282C200.101 129.264 200.105 129.246 200.115 129.231C200.125 129.217 200.14 129.206 200.158 129.203C200.236 129.185 207.941 127.412 211.411 117.839C211.417 117.822 211.43 117.808 211.446 117.8C211.463 117.793 211.482 117.792 211.499 117.798C211.516 117.804 211.53 117.817 211.538 117.833C211.545 117.85 211.546 117.869 211.54 117.886C209.713 122.925 206.725 125.769 204.54 127.267C202.171 128.892 200.204 129.331 200.186 129.335L200.172 129.336Z" fill="#9B305E"/>
<defs>
<filter id="filter0_d" x="117.051" y="140.81" width="113.879" height="38.949" filterUnits="userSpaceOnUse" color-interpolation-filters="sRGB">
<feFlood flood-opacity="0" result="BackgroundImageFix"/>
<feColorMatrix in="SourceAlpha" type="matrix" values="0 0 0 0 0 0 0 0 0 0 0 0 0 0 0 0 0 0 127 0" result="hardAlpha"/>
<feOffset dy="4"/>
<feGaussianBlur stdDeviation="2"/>
<feColorMatrix type="matrix" values="0 0 0 0 0 0 0 0 0 0 0 0 0 0 0 0 0 0 0.25 0"/>
<feBlend mode="normal" in2="BackgroundImageFix" result="effect1_dropShadow"/>
<feBlend mode="normal" in="SourceGraphic" in2="effect1_dropShadow" result="shape"/>
</filter>
<filter id="filter1_d" x="117.051" y="108.314" width="109.173" height="28.97" filterUnits="userSpaceOnUse" color-interpolation-filters="sRGB">
<feFlood flood-opacity="0" result="BackgroundImageFix"/>
<feColorMatrix in="SourceAlpha" type="matrix" values="0 0 0 0 0 0 0 0 0 0 0 0 0 0 0 0 0 0 127 0" result="hardAlpha"/>
<feOffset dy="4"/>
<feGaussianBlur stdDeviation="2"/>
<feColorMatrix type="matrix" values="0 0 0 0 0 0 0 0 0 0 0 0 0 0 0 0 0 0 0.25 0"/>
<feBlend mode="normal" in2="BackgroundImageFix" result="effect1_dropShadow"/>
<feBlend mode="normal" in="SourceGraphic" in2="effect1_dropShadow" result="shape"/>
</filter>
<linearGradient id="paint0_linear" x1="53.8177" y1="154.426" x2="53.8177" y2="5.07513" gradientUnits="userSpaceOnUse">
<stop stop-color="#3693E7"/>
<stop offset="1" stop-color="#1A70BE"/>
</linearGradient>
<linearGradient id="paint1_linear" x1="31.9407" y1="202.449" x2="31.9407" y2="126.626" gradientUnits="userSpaceOnUse">
<stop stop-color="#3693E7"/>
<stop offset="1" stop-color="#1A70BE"/>
</linearGradient>
<linearGradient id="paint2_linear" x1="196.217" y1="142.236" x2="197.703" y2="140.902" gradientUnits="userSpaceOnUse">
<stop stop-color="#FF9085"/>
<stop offset="1" stop-color="#FB6FBB"/>
</linearGradient>
<linearGradient id="paint3_linear" x1="-34087.5" y1="18493.3" x2="-35898.7" y2="16584.9" gradientUnits="userSpaceOnUse">
<stop stop-color="#FF9085"/>
<stop offset="1" stop-color="#FB6FBB"/>
</linearGradient>
<linearGradient id="paint4_linear" x1="177.779" y1="145.314" x2="171.624" y2="145.032" gradientUnits="userSpaceOnUse">
<stop stop-color="#328CDE"/>
<stop offset="1" stop-color="#1361A7"/>
</linearGradient>
<linearGradient id="paint5_linear" x1="196.973" y1="143.02" x2="191.935" y2="142.789" gradientUnits="userSpaceOnUse">
<stop stop-color="#328CDE"/>
<stop offset="1" stop-color="#1361A7"/>
</linearGradient>
<linearGradient id="paint6_linear" x1="152.064" y1="143.35" x2="144.565" y2="143.006" gradientUnits="userSpaceOnUse">
<stop stop-color="#328CDE"/>
<stop offset="1" stop-color="#1361A7"/>
</linearGradient>
<linearGradient id="paint7_linear" x1="-15380.9" y1="16934.4" x2="-16004.7" y2="16905.8" gradientUnits="userSpaceOnUse">
<stop stop-color="#444B8C"/>
<stop offset="1" stop-color="#3E4177"/>
</linearGradient>
<linearGradient id="paint8_linear" x1="-4046.16" y1="-41.1077" x2="-4046.15" y2="-41.4541" gradientUnits="userSpaceOnUse">
<stop stop-color="#444B8C"/>
<stop offset="1" stop-color="#3E4177"/>
</linearGradient>
<linearGradient id="paint9_linear" x1="197.17" y1="107.77" x2="198.526" y2="106.552" gradientUnits="userSpaceOnUse">
<stop stop-color="#FF9085"/>
<stop offset="1" stop-color="#FB6FBB"/>
</linearGradient>
<linearGradient id="paint10_linear" x1="-31101.5" y1="16861" x2="-32755" y2="15118.8" gradientUnits="userSpaceOnUse">
<stop stop-color="#FF9085"/>
<stop offset="1" stop-color="#FB6FBB"/>
</linearGradient>
<linearGradient id="paint11_linear" x1="180.339" y1="110.58" x2="174.721" y2="110.322" gradientUnits="userSpaceOnUse">
<stop stop-color="#328CDE"/>
<stop offset="1" stop-color="#1361A7"/>
</linearGradient>
<linearGradient id="paint12_linear" x1="197.861" y1="108.486" x2="193.261" y2="108.274" gradientUnits="userSpaceOnUse">
<stop stop-color="#328CDE"/>
<stop offset="1" stop-color="#1361A7"/>
</linearGradient>
<linearGradient id="paint13_linear" x1="156.864" y1="108.787" x2="150.018" y2="108.473" gradientUnits="userSpaceOnUse">
<stop stop-color="#328CDE"/>
<stop offset="1" stop-color="#1361A7"/>
</linearGradient>
<linearGradient id="paint14_linear" x1="-14023.6" y1="15437.9" x2="-14593.1" y2="15411.7" gradientUnits="userSpaceOnUse">
<stop stop-color="#444B8C"/>
<stop offset="1" stop-color="#3E4177"/>
</linearGradient>
<linearGradient id="paint15_linear" x1="-3675.83" y1="-59.6102" x2="-3675.82" y2="-59.9264" gradientUnits="userSpaceOnUse">
<stop stop-color="#444B8C"/>
<stop offset="1" stop-color="#3E4177"/>
</linearGradient>
<linearGradient id="paint16_linear" x1="222.336" y1="149.33" x2="217.235" y2="149.33" gradientUnits="userSpaceOnUse">
<stop stop-color="#311944"/>
<stop offset="1" stop-color="#6B3976"/>
</linearGradient>
<linearGradient id="paint17_linear" x1="-8784.9" y1="17675.8" x2="-8456.5" y2="17675.8" gradientUnits="userSpaceOnUse">
<stop stop-color="#311944"/>
<stop offset="1" stop-color="#6B3976"/>
</linearGradient>
<linearGradient id="paint18_linear" x1="218.425" y1="149.625" x2="222.441" y2="149.085" gradientUnits="userSpaceOnUse">
<stop offset="0.01" stop-color="#D8DEE8"/>
<stop offset="1" stop-color="#F4F7FA"/>
</linearGradient>
<linearGradient id="paint19_linear" x1="-9332.56" y1="19861.4" x2="-8924.46" y2="19861.4" gradientUnits="userSpaceOnUse">
<stop stop-color="#311944"/>
<stop offset="1" stop-color="#6B3976"/>
</linearGradient>
<linearGradient id="paint20_linear" x1="-9389.77" y1="19670.6" x2="-8984.05" y2="19670.6" gradientUnits="userSpaceOnUse">
<stop stop-color="#311944"/>
<stop offset="1" stop-color="#6B3976"/>
</linearGradient>
<linearGradient id="paint21_linear" x1="-4173.96" y1="10347.8" x2="-4328.46" y2="10337.3" gradientUnits="userSpaceOnUse">
<stop offset="0.01" stop-color="#D8DEE8"/>
<stop offset="1" stop-color="#F4F7FA"/>
</linearGradient>
<linearGradient id="paint22_linear" x1="-9883.84" y1="21985.8" x2="-9381.42" y2="21985.8" gradientUnits="userSpaceOnUse">
<stop stop-color="#311944"/>
<stop offset="1" stop-color="#6B3976"/>
</linearGradient>
<linearGradient id="paint23_linear" x1="-9957.68" y1="21764.2" x2="-9458.35" y2="21764.2" gradientUnits="userSpaceOnUse">
<stop stop-color="#311944"/>
<stop offset="1" stop-color="#6B3976"/>
</linearGradient>
<linearGradient id="paint24_linear" x1="-4403.91" y1="11450.4" x2="-4593.72" y2="11437.4" gradientUnits="userSpaceOnUse">
<stop offset="0.01" stop-color="#D8DEE8"/>
<stop offset="1" stop-color="#F4F7FA"/>
</linearGradient>
<linearGradient id="paint25_linear" x1="171.104" y1="158.814" x2="179.772" y2="158.814" gradientUnits="userSpaceOnUse">
<stop stop-color="#328CDE"/>
<stop offset="1" stop-color="#1361A7"/>
</linearGradient>
<linearGradient id="paint26_linear" x1="-4475.76" y1="15803.2" x2="-4832.14" y2="15777.8" gradientUnits="userSpaceOnUse">
<stop offset="0.01" stop-color="#D8DEE8"/>
<stop offset="1" stop-color="#F4F7FA"/>
</linearGradient>
<linearGradient id="paint27_linear" x1="139.76" y1="164.589" x2="151.616" y2="164.589" gradientUnits="userSpaceOnUse">
<stop stop-color="#328CDE"/>
<stop offset="1" stop-color="#1361A7"/>
</linearGradient>
<linearGradient id="paint28_linear" x1="-4038.76" y1="21545.8" x2="-4701.24" y2="21496.7" gradientUnits="userSpaceOnUse">
<stop offset="0.01" stop-color="#D8DEE8"/>
<stop offset="1" stop-color="#F4F7FA"/>
</linearGradient>
<linearGradient id="paint29_linear" x1="177.153" y1="113.637" x2="172.523" y2="119.462" gradientUnits="userSpaceOnUse">
<stop stop-color="#FFC444"/>
<stop offset="1" stop-color="#F36F56"/>
</linearGradient>
<linearGradient id="paint30_linear" x1="-19224.6" y1="16643.4" x2="-18795.3" y2="21937.2" gradientUnits="userSpaceOnUse">
<stop stop-color="#FFC444"/>
<stop offset="1" stop-color="#F36F56"/>
</linearGradient>
<linearGradient id="paint31_linear" x1="-1353.08" y1="2384.27" x2="-1255.78" y2="3111.84" gradientUnits="userSpaceOnUse">
<stop stop-color="#FFC444"/>
<stop offset="1" stop-color="#F36F56"/>
</linearGradient>
</defs>
</svg>
