<svg width="100" height="100" viewBox="0 0 100 100" fill="none" xmlns="http://www.w3.org/2000/svg">
<rect width="100" height="100" rx="6" fill="#F2F6FC"/>
<rect x="23" y="56" width="33" height="12" rx="6" fill="#3693E7"/>
<mask id="path-3-inside-1" fill="white">
<path d="M28.4596 59.2377C26.858 59.2377 25.555 60.5464 25.555 62.1552C25.555 63.764 26.858 65.0727 28.4596 65.0727C30.0612 65.0727 31.3642 63.764 31.3642 62.1552C31.3642 60.5464 30.0612 59.2377 28.4596 59.2377ZM28.4596 63.2893C27.8414 63.2893 27.3383 62.7805 27.3383 62.1551C27.3383 61.5296 27.8413 61.0209 28.4596 61.0209C29.0779 61.0209 29.5809 61.5296 29.5809 62.1551C29.5809 62.7805 29.0778 63.2893 28.4596 63.2893ZM39.1622 59.2377C37.5606 59.2377 36.2576 60.5464 36.2576 62.1552C36.2576 63.764 37.5606 65.0727 39.1622 65.0727C40.764 65.0727 42.067 63.764 42.067 62.1552C42.067 60.5464 40.7639 59.2377 39.1622 59.2377ZM39.1622 63.2893C38.544 63.2893 38.0409 62.7805 38.0409 62.1551C38.0409 61.5296 38.5439 61.0209 39.1622 61.0209C39.7806 61.0209 40.2837 61.5296 40.2837 62.1551C40.2837 62.7805 39.7806 63.2893 39.1622 63.2893ZM49.8649 59.2377C48.2631 59.2377 46.9601 60.5464 46.9601 62.1552C46.9601 63.764 48.2631 65.0727 49.8649 65.0727C51.4665 65.0727 52.7695 63.764 52.7695 62.1552C52.7695 60.5464 51.4665 59.2377 49.8649 59.2377ZM49.8649 63.2893C49.2466 63.2893 48.7434 62.7805 48.7434 62.1551C48.7434 61.5296 49.2464 61.0209 49.8649 61.0209C50.4831 61.0209 50.9862 61.5296 50.9862 62.1551C50.9862 62.7805 50.4831 63.2893 49.8649 63.2893ZM77.4779 53.8383C75.6076 53.8383 74.086 55.3708 74.086 57.2545C74.086 60.032 71.8519 62.2918 69.1056 62.2918H68.1159L63.0219 56.1809C64.0477 55.9081 65.0582 55.5665 66.0494 55.1533C68.9401 53.9482 71.5277 52.2083 73.7399 49.9819L75.6071 48.1029C75.7474 47.944 75.8626 47.7716 75.8663 47.4744C75.8663 44.8472 74.5184 42.4657 72.4093 41.0924C72.3938 41.0817 72.3779 41.0713 72.3615 41.0614C71.7225 40.6522 71.0155 40.3339 70.2549 40.1301L53.1322 35.5401C52.4554 35.3584 51.7284 35.5547 51.2346 36.0517L49.8633 37.4317L47.0625 34.613L49.1422 32.5201C49.4892 32.1708 49.4874 31.6063 49.1381 31.2591C48.7888 30.9121 48.2242 30.9139 47.8772 31.2631L42.469 36.7058C42.1219 37.0551 42.1237 37.6196 42.473 37.9668C42.6469 38.1397 42.8742 38.226 43.1014 38.226C43.3305 38.226 43.5596 38.1382 43.7339 37.9629L45.8055 35.8781L48.6063 38.6968L46.5444 40.7719C46.2353 41.083 46.0504 41.4788 45.993 41.8915L33.6001 42.1046C33.1077 42.1131 32.7155 42.5191 32.7239 43.0115C32.7323 43.4987 33.1298 43.8878 33.6151 43.8878C33.6203 43.8878 33.6256 43.8878 33.6308 43.8877L46.5714 43.6651L48.883 47.1421L46.309 48.4834C46.2649 48.5063 46.2153 48.5184 46.1657 48.5184H33.9782C33.8587 48.5184 33.7509 48.4508 33.6966 48.3418L31.1766 43.2823C30.8188 42.5638 30.0992 42.1174 29.2988 42.1174H22.0994C20.9418 42.1174 20 43.0625 20 44.2244V46.5468C20 47.3057 20.1957 48.0568 20.5663 48.7192L24.5797 55.8939C24.6476 56.0152 24.7267 56.1278 24.8149 56.2312C22.8446 57.4614 21.5291 59.6563 21.5291 62.1551C21.5291 65.9977 24.6381 69.1241 28.4597 69.1241H49.865C53.6866 69.1241 56.7956 65.9979 56.7956 62.1551C56.7956 60.0976 55.9037 58.2462 54.489 56.9694H56.9762C58.3555 56.9694 59.7199 56.8504 61.062 56.6144L65.7944 62.2917H62.0805C60.2101 62.2917 58.6885 63.8243 58.6885 65.7079C58.6885 67.5915 60.2101 69.1241 62.0805 69.1241H69.1057C75.5925 69.1241 80.87 63.7993 80.87 57.2543C80.8699 55.3707 79.3483 53.8383 77.4779 53.8383ZM69.7931 41.8526C70.0792 41.9293 70.3552 42.0276 70.6202 42.1444C70.1122 42.7163 69.4389 43.051 68.7376 43.051C67.555 43.051 66.5434 42.1454 66.1471 40.8752L69.7931 41.8526ZM55.0122 62.1552C55.0122 65.0145 52.7031 67.3409 49.8649 67.3409H28.4596C25.6214 67.3409 23.3123 65.0147 23.3123 62.1552C23.3123 59.2957 25.6214 56.9695 28.4596 56.9695H49.8649C52.7031 56.9695 55.0122 59.2957 55.0122 62.1552ZM61.1964 54.775C59.8132 55.0481 58.4032 55.1862 56.976 55.1862H26.4104C26.2974 55.1862 26.1923 55.1238 26.1361 55.0233L22.1226 47.8488C21.9006 47.4517 21.7833 47.0016 21.7833 46.5468V44.2244C21.7833 44.0458 21.9251 43.9005 22.0994 43.9005H29.2988C29.4182 43.9005 29.5261 43.9683 29.5805 44.0772L32.1003 49.1367C32.4582 49.8552 33.1777 50.3016 33.9782 50.3016H46.1654C46.5005 50.3016 46.8348 50.2198 47.1325 50.0648L50.3927 48.3659H54.9587C55.4512 48.3659 55.8503 47.9667 55.8503 47.4743C55.8503 46.9818 55.4512 46.5826 54.9587 46.5826H50.6523L47.7854 42.2704C47.7351 42.1948 47.7451 42.0931 47.8092 42.0288L52.4995 37.3085C52.544 37.2638 52.6096 37.2465 52.6704 37.2625L64.2251 40.3599C64.518 42.8811 66.4293 44.834 68.7378 44.834C70.0461 44.834 71.2772 44.1942 72.131 43.1164C73.1268 44.0044 73.8049 45.2261 74.0139 46.5826H58.5253C58.0327 46.5826 57.6336 46.9818 57.6336 47.4743C57.6336 47.9667 58.0327 48.3659 58.5253 48.3659H72.8316L72.475 48.7248C70.429 50.7839 68.0362 52.393 65.3633 53.5072C64.1471 54.0202 62.5672 54.5085 61.1964 54.775ZM69.1056 67.3408H62.0804C61.1933 67.3408 60.4717 66.6082 60.4717 65.7079C60.4717 64.8076 61.1933 64.075 62.0804 64.075H69.1056C72.8351 64.075 75.8693 61.0152 75.8693 57.2543C75.8693 56.354 76.5909 55.6214 77.4779 55.6214C78.3649 55.6214 79.0866 56.354 79.0866 57.2543C79.0866 62.8161 74.6091 67.3408 69.1056 67.3408Z"/>
</mask>
<path d="M28.4596 59.2377C26.858 59.2377 25.555 60.5464 25.555 62.1552C25.555 63.764 26.858 65.0727 28.4596 65.0727C30.0612 65.0727 31.3642 63.764 31.3642 62.1552C31.3642 60.5464 30.0612 59.2377 28.4596 59.2377ZM28.4596 63.2893C27.8414 63.2893 27.3383 62.7805 27.3383 62.1551C27.3383 61.5296 27.8413 61.0209 28.4596 61.0209C29.0779 61.0209 29.5809 61.5296 29.5809 62.1551C29.5809 62.7805 29.0778 63.2893 28.4596 63.2893ZM39.1622 59.2377C37.5606 59.2377 36.2576 60.5464 36.2576 62.1552C36.2576 63.764 37.5606 65.0727 39.1622 65.0727C40.764 65.0727 42.067 63.764 42.067 62.1552C42.067 60.5464 40.7639 59.2377 39.1622 59.2377ZM39.1622 63.2893C38.544 63.2893 38.0409 62.7805 38.0409 62.1551C38.0409 61.5296 38.5439 61.0209 39.1622 61.0209C39.7806 61.0209 40.2837 61.5296 40.2837 62.1551C40.2837 62.7805 39.7806 63.2893 39.1622 63.2893ZM49.8649 59.2377C48.2631 59.2377 46.9601 60.5464 46.9601 62.1552C46.9601 63.764 48.2631 65.0727 49.8649 65.0727C51.4665 65.0727 52.7695 63.764 52.7695 62.1552C52.7695 60.5464 51.4665 59.2377 49.8649 59.2377ZM49.8649 63.2893C49.2466 63.2893 48.7434 62.7805 48.7434 62.1551C48.7434 61.5296 49.2464 61.0209 49.8649 61.0209C50.4831 61.0209 50.9862 61.5296 50.9862 62.1551C50.9862 62.7805 50.4831 63.2893 49.8649 63.2893ZM77.4779 53.8383C75.6076 53.8383 74.086 55.3708 74.086 57.2545C74.086 60.032 71.8519 62.2918 69.1056 62.2918H68.1159L63.0219 56.1809C64.0477 55.9081 65.0582 55.5665 66.0494 55.1533C68.9401 53.9482 71.5277 52.2083 73.7399 49.9819L75.6071 48.1029C75.7474 47.944 75.8626 47.7716 75.8663 47.4744C75.8663 44.8472 74.5184 42.4657 72.4093 41.0924C72.3938 41.0817 72.3779 41.0713 72.3615 41.0614C71.7225 40.6522 71.0155 40.3339 70.2549 40.1301L53.1322 35.5401C52.4554 35.3584 51.7284 35.5547 51.2346 36.0517L49.8633 37.4317L47.0625 34.613L49.1422 32.5201C49.4892 32.1708 49.4874 31.6063 49.1381 31.2591C48.7888 30.9121 48.2242 30.9139 47.8772 31.2631L42.469 36.7058C42.1219 37.0551 42.1237 37.6196 42.473 37.9668C42.6469 38.1397 42.8742 38.226 43.1014 38.226C43.3305 38.226 43.5596 38.1382 43.7339 37.9629L45.8055 35.8781L48.6063 38.6968L46.5444 40.7719C46.2353 41.083 46.0504 41.4788 45.993 41.8915L33.6001 42.1046C33.1077 42.1131 32.7155 42.5191 32.7239 43.0115C32.7323 43.4987 33.1298 43.8878 33.6151 43.8878C33.6203 43.8878 33.6256 43.8878 33.6308 43.8877L46.5714 43.6651L48.883 47.1421L46.309 48.4834C46.2649 48.5063 46.2153 48.5184 46.1657 48.5184H33.9782C33.8587 48.5184 33.7509 48.4508 33.6966 48.3418L31.1766 43.2823C30.8188 42.5638 30.0992 42.1174 29.2988 42.1174H22.0994C20.9418 42.1174 20 43.0625 20 44.2244V46.5468C20 47.3057 20.1957 48.0568 20.5663 48.7192L24.5797 55.8939C24.6476 56.0152 24.7267 56.1278 24.8149 56.2312C22.8446 57.4614 21.5291 59.6563 21.5291 62.1551C21.5291 65.9977 24.6381 69.1241 28.4597 69.1241H49.865C53.6866 69.1241 56.7956 65.9979 56.7956 62.1551C56.7956 60.0976 55.9037 58.2462 54.489 56.9694H56.9762C58.3555 56.9694 59.7199 56.8504 61.062 56.6144L65.7944 62.2917H62.0805C60.2101 62.2917 58.6885 63.8243 58.6885 65.7079C58.6885 67.5915 60.2101 69.1241 62.0805 69.1241H69.1057C75.5925 69.1241 80.87 63.7993 80.87 57.2543C80.8699 55.3707 79.3483 53.8383 77.4779 53.8383ZM69.7931 41.8526C70.0792 41.9293 70.3552 42.0276 70.6202 42.1444C70.1122 42.7163 69.4389 43.051 68.7376 43.051C67.555 43.051 66.5434 42.1454 66.1471 40.8752L69.7931 41.8526ZM55.0122 62.1552C55.0122 65.0145 52.7031 67.3409 49.8649 67.3409H28.4596C25.6214 67.3409 23.3123 65.0147 23.3123 62.1552C23.3123 59.2957 25.6214 56.9695 28.4596 56.9695H49.8649C52.7031 56.9695 55.0122 59.2957 55.0122 62.1552ZM61.1964 54.775C59.8132 55.0481 58.4032 55.1862 56.976 55.1862H26.4104C26.2974 55.1862 26.1923 55.1238 26.1361 55.0233L22.1226 47.8488C21.9006 47.4517 21.7833 47.0016 21.7833 46.5468V44.2244C21.7833 44.0458 21.9251 43.9005 22.0994 43.9005H29.2988C29.4182 43.9005 29.5261 43.9683 29.5805 44.0772L32.1003 49.1367C32.4582 49.8552 33.1777 50.3016 33.9782 50.3016H46.1654C46.5005 50.3016 46.8348 50.2198 47.1325 50.0648L50.3927 48.3659H54.9587C55.4512 48.3659 55.8503 47.9667 55.8503 47.4743C55.8503 46.9818 55.4512 46.5826 54.9587 46.5826H50.6523L47.7854 42.2704C47.7351 42.1948 47.7451 42.0931 47.8092 42.0288L52.4995 37.3085C52.544 37.2638 52.6096 37.2465 52.6704 37.2625L64.2251 40.3599C64.518 42.8811 66.4293 44.834 68.7378 44.834C70.0461 44.834 71.2772 44.1942 72.131 43.1164C73.1268 44.0044 73.8049 45.2261 74.0139 46.5826H58.5253C58.0327 46.5826 57.6336 46.9818 57.6336 47.4743C57.6336 47.9667 58.0327 48.3659 58.5253 48.3659H72.8316L72.475 48.7248C70.429 50.7839 68.0362 52.393 65.3633 53.5072C64.1471 54.0202 62.5672 54.5085 61.1964 54.775ZM69.1056 67.3408H62.0804C61.1933 67.3408 60.4717 66.6082 60.4717 65.7079C60.4717 64.8076 61.1933 64.075 62.0804 64.075H69.1056C72.8351 64.075 75.8693 61.0152 75.8693 57.2543C75.8693 56.354 76.5909 55.6214 77.4779 55.6214C78.3649 55.6214 79.0866 56.354 79.0866 57.2543C79.0866 62.8161 74.6091 67.3408 69.1056 67.3408Z" fill="#1F2428" stroke="#F2F6FC" stroke-width="0.4" mask="url(#path-3-inside-1)"/>
</svg>
