<svg width="80" height="15" viewBox="0 0 80 15" fill="none" xmlns="http://www.w3.org/2000/svg">
<path d="M7.5 0L9.7042 4.46619L14.6329 5.18237L11.0665 8.65881L11.9084 13.5676L7.5 11.25L3.09161 13.5676L3.93354 8.65881L0.367076 5.18237L5.2958 4.46619L7.5 0Z" fill="#F07440"/>
<path d="M23.5714 0L25.7756 4.46619L30.7044 5.18237L27.1379 8.65881L27.9798 13.5676L23.5714 11.25L19.1631 13.5676L20.005 8.65881L16.4385 5.18237L21.3672 4.46619L23.5714 0Z" fill="#F07440"/>
<path d="M39.6429 0L41.8471 4.46619L46.7758 5.18237L43.2093 8.65881L44.0513 13.5676L39.6429 11.25L35.2345 13.5676L36.0764 8.65881L32.51 5.18237L37.4387 4.46619L39.6429 0Z" fill="#F07440"/>
<path d="M55.7143 0L57.9185 4.46619L62.8472 5.18237L59.2808 8.65881L60.1227 13.5676L55.7143 11.25L51.3059 13.5676L52.1478 8.65881L48.5814 5.18237L53.5101 4.46619L55.7143 0Z" fill="#F07440"/>
<path d="M71.7857 0L73.9899 4.46619L78.9186 5.18237L75.3522 8.65881L76.1941 13.5676L71.7857 11.25L67.3773 13.5676L68.2192 8.65881L64.6528 5.18237L69.5815 4.46619L71.7857 0Z" fill="#F07440"/>
</svg>
