<svg width="100" height="100" viewBox="0 0 100 100" fill="none" xmlns="http://www.w3.org/2000/svg">
<rect width="100" height="100" rx="6" fill="#F2F6FC"/>
<path d="M48.064 43.9516H51.9349V47.8226H48.064V43.9516Z" fill="#3693E7"/>
<path d="M30.6445 43.9516H34.5155V47.8226H30.6445V43.9516Z" fill="#3693E7"/>
<path d="M49.0323 32.3387H37.4194L38.3872 28.4677H49.0323V32.3387Z" fill="#3693E7"/>
<path d="M72.2583 51.6936H77.097V59.4355H72.2583V51.6936Z" fill="#3693E7"/>
<path d="M43.7928 60.4032H38.3861L33.6386 65.1507C33.5842 65.4966 33.5474 65.8487 33.5474 66.2097C33.5474 69.9441 36.5872 72.9839 40.3216 72.9839C44.056 72.9839 47.0958 69.9441 47.0958 66.2097C47.0958 63.744 45.767 61.5888 43.7928 60.4032Z" fill="#3693E7"/>
<path d="M55.8068 60.4032H50.4002C48.4259 61.5888 47.0972 63.744 47.0972 66.2097C47.0972 69.9441 50.137 72.9839 53.8714 72.9839C57.6058 72.9839 60.6456 69.9441 60.6456 66.2097C60.6456 65.8487 60.6087 65.4966 60.5544 65.1507L55.8068 60.4032Z" fill="#3693E7"/>
<path d="M66.4504 48.7903H58.7085V42.9839H66.4504V48.7903Z" fill="#3693E7"/>
<path d="M31.6132 40.8983H31.4632V41.0483V50.7258V50.8758H31.6132H40.3229H40.4729V50.7258V41.0483V40.8983H40.3229H31.6132ZM50.9681 50.8758H51.1181V50.7258V41.0483V40.8983H50.9681H42.2584H42.1084V41.0483V50.7258V50.8758H42.2584H50.9681ZM29.8277 39.2629H52.7535V52.5112H29.8277V39.2629Z" fill="#1F2428" stroke="#F2F6FC" stroke-width="0.3"/>
<mask id="path-10-inside-1" fill="white">
<path d="M76.129 71.0484V68.1452C77.1965 68.1452 78.0645 67.2771 78.0645 66.2097V46.9593C78.0645 46.0837 77.8264 45.2222 77.3746 44.4695L72.9995 37.1774H73.2258C74.8263 37.1774 76.129 35.8747 76.129 34.2742C76.129 32.6737 74.8263 31.371 73.2258 31.371H63.3353L62.3685 27.5H37.6315L36.6647 31.371H22.9032C21.3028 31.371 20 32.6737 20 34.2742C20 35.534 20.8118 36.5986 21.9355 36.9993V52.6613C20.868 52.6613 20 53.5293 20 54.5968V56.5323C20 56.8843 20.095 57.2155 20.2604 57.5C20.095 57.7845 20 58.1157 20 58.4677V60.4032C20 61.4707 20.868 62.3387 21.9355 62.3387V66.2097C21.9355 67.2771 22.8035 68.1452 23.871 68.1452V71.0484H20V72.9839H33.5484V71.0484H29.6774V68.1452H31.2122C31.7211 68.1452 32.2206 67.9382 32.5806 67.5781L38.7878 61.371H55.4057L61.6129 67.5781C61.973 67.9382 62.4724 68.1452 62.9813 68.1452H70.3226V71.0484H66.4516V72.9839H80V71.0484H76.129ZM61.3412 31.371H47.0968V29.4355H60.8573L61.3412 31.371ZM43.2258 31.371V29.4355H45.1613V31.371H43.2258ZM39.1427 29.4355H41.2903V31.371H38.6588L39.1427 29.4355ZM22.9032 33.3065H73.2258C73.7598 33.3065 74.1935 33.7402 74.1935 34.2742C74.1935 34.8082 73.7598 35.2419 73.2258 35.2419H22.9032C22.3693 35.2419 21.9355 34.8082 21.9355 34.2742C21.9355 33.7402 22.3693 33.3065 22.9032 33.3065ZM23.871 37.1774H70.7427L75.7146 45.4651C75.9849 45.9169 76.129 46.4329 76.129 46.9593V50.7258H72.2581V52.6613H76.129V54.5968H72.2581V56.5323H76.129V58.4677H72.2581V60.4032H76.129V66.2097H70.3226V39.1129H54.8387V55.5645H36.0509L31.2122 60.4032H27.7419V52.6613H23.871V37.1774ZM21.9355 60.4032V58.4677H25.8065V60.4032H21.9355ZM25.8065 54.5968V56.5323H21.9355V54.5968H25.8065ZM27.7419 71.0484H25.8065V68.1452H27.7419V71.0484ZM37.9864 59.4355L31.2122 66.2097H23.871V62.3387H32.0136L36.8523 57.5H54.8387V59.4355H37.9864ZM56.7742 60.0025V41.0484H68.3871V66.2097H62.9813L56.7742 60.0025ZM72.2581 68.1452H74.1935V71.0484H72.2581V68.1452Z"/>
</mask>
<path d="M76.129 71.0484V68.1452C77.1965 68.1452 78.0645 67.2771 78.0645 66.2097V46.9593C78.0645 46.0837 77.8264 45.2222 77.3746 44.4695L72.9995 37.1774H73.2258C74.8263 37.1774 76.129 35.8747 76.129 34.2742C76.129 32.6737 74.8263 31.371 73.2258 31.371H63.3353L62.3685 27.5H37.6315L36.6647 31.371H22.9032C21.3028 31.371 20 32.6737 20 34.2742C20 35.534 20.8118 36.5986 21.9355 36.9993V52.6613C20.868 52.6613 20 53.5293 20 54.5968V56.5323C20 56.8843 20.095 57.2155 20.2604 57.5C20.095 57.7845 20 58.1157 20 58.4677V60.4032C20 61.4707 20.868 62.3387 21.9355 62.3387V66.2097C21.9355 67.2771 22.8035 68.1452 23.871 68.1452V71.0484H20V72.9839H33.5484V71.0484H29.6774V68.1452H31.2122C31.7211 68.1452 32.2206 67.9382 32.5806 67.5781L38.7878 61.371H55.4057L61.6129 67.5781C61.973 67.9382 62.4724 68.1452 62.9813 68.1452H70.3226V71.0484H66.4516V72.9839H80V71.0484H76.129ZM61.3412 31.371H47.0968V29.4355H60.8573L61.3412 31.371ZM43.2258 31.371V29.4355H45.1613V31.371H43.2258ZM39.1427 29.4355H41.2903V31.371H38.6588L39.1427 29.4355ZM22.9032 33.3065H73.2258C73.7598 33.3065 74.1935 33.7402 74.1935 34.2742C74.1935 34.8082 73.7598 35.2419 73.2258 35.2419H22.9032C22.3693 35.2419 21.9355 34.8082 21.9355 34.2742C21.9355 33.7402 22.3693 33.3065 22.9032 33.3065ZM23.871 37.1774H70.7427L75.7146 45.4651C75.9849 45.9169 76.129 46.4329 76.129 46.9593V50.7258H72.2581V52.6613H76.129V54.5968H72.2581V56.5323H76.129V58.4677H72.2581V60.4032H76.129V66.2097H70.3226V39.1129H54.8387V55.5645H36.0509L31.2122 60.4032H27.7419V52.6613H23.871V37.1774ZM21.9355 60.4032V58.4677H25.8065V60.4032H21.9355ZM25.8065 54.5968V56.5323H21.9355V54.5968H25.8065ZM27.7419 71.0484H25.8065V68.1452H27.7419V71.0484ZM37.9864 59.4355L31.2122 66.2097H23.871V62.3387H32.0136L36.8523 57.5H54.8387V59.4355H37.9864ZM56.7742 60.0025V41.0484H68.3871V66.2097H62.9813L56.7742 60.0025ZM72.2581 68.1452H74.1935V71.0484H72.2581V68.1452Z" fill="#1F2428" stroke="#F2F6FC" stroke-width="0.6" mask="url(#path-10-inside-1)"/>
</svg>
