<svg width="100" height="100" viewBox="0 0 100 100" fill="none" xmlns="http://www.w3.org/2000/svg">
<rect width="100" height="100" rx="6" fill="#F2F6FC"/>
<circle cx="33.5" cy="61.5" r="6.5" fill="#3693E7"/>
<circle cx="70.5" cy="61.5" r="6.5" fill="#3693E7"/>
<path d="M35.3977 61.4368C35.3977 61.0272 35.7298 60.6951 36.1394 60.6951C36.549 60.6951 36.8811 61.0272 36.8811 61.4368C36.8811 63.4223 35.2656 65.0377 33.2802 65.0377C31.2947 65.0377 29.6793 63.4223 29.6793 61.4368C29.6793 59.4514 31.2947 57.836 33.2802 57.836C33.6898 57.836 34.0219 58.1681 34.0219 58.5777C34.0219 58.9873 33.6898 59.3194 33.2802 59.3194C32.1124 59.3194 31.1627 60.2691 31.1627 61.4368C31.1627 62.6046 32.1124 63.5543 33.2802 63.5543C34.4479 63.5543 35.3977 62.6046 35.3977 61.4368Z" fill="#1F2428" stroke="#F2F6FC" stroke-width="0.3"/>
<path d="M72.5695 61.4368C72.5695 61.0272 72.9016 60.6951 73.3112 60.6951C73.7208 60.6951 74.0529 61.0272 74.0529 61.4368C74.0529 63.4223 72.4375 65.0377 70.452 65.0377C68.4666 65.0377 66.8512 63.4223 66.8512 61.4368C66.8512 59.4514 68.4666 57.836 70.452 57.836C70.8616 57.836 71.1937 58.1681 71.1937 58.5777C71.1937 58.9873 70.8616 59.3194 70.452 59.3194C69.2843 59.3194 68.3346 60.2691 68.3346 61.4368C68.3346 62.6046 69.2843 63.5543 70.452 63.5543C71.6198 63.5543 72.5695 62.6046 72.5695 61.4368Z" fill="#1F2428" stroke="#F2F6FC" stroke-width="0.3"/>
<path d="M69.0544 43.5397L69.0852 43.6197L69.1698 43.6338L78.511 45.1907C79.7934 45.4045 80.7236 46.5025 80.7236 47.8024V59.5307C80.7236 60.4651 79.9633 61.2255 79.0289 61.2255H78.0129H77.862L77.8629 61.3763C77.863 61.3894 77.8635 61.402 77.8638 61.4116C77.8642 61.422 77.8645 61.4296 77.8645 61.4368C77.8645 65.5243 74.5387 68.85 70.4513 68.85C66.3638 68.85 63.0381 65.5244 63.0381 61.4368C63.0381 61.4296 63.0383 61.422 63.0387 61.4116C63.0389 61.4067 63.0391 61.401 63.0393 61.3948C63.0394 61.389 63.0396 61.3827 63.0396 61.3763L63.0405 61.2255H62.8896H40.8433H40.6924L40.6933 61.3763C40.6933 61.3894 40.6938 61.402 40.6942 61.4116C40.6946 61.422 40.6948 61.4296 40.6948 61.4368C40.6948 65.5243 37.3692 68.85 33.2816 68.85C29.1941 68.85 25.8684 65.5244 25.8684 61.4368C25.8684 61.4296 25.8687 61.422 25.8691 61.4116L25.8691 61.4098C25.8695 61.4004 25.8699 61.3885 25.87 61.3763L25.8708 61.2255H25.72H22.7978C21.338 61.2255 20.15 60.0376 20.15 58.5777V45.2347C20.15 44.8251 20.4821 44.493 20.8917 44.493H49.5451H49.6951V44.343V33.7978C49.6951 32.338 50.883 31.15 52.3429 31.15H65.6859C66.0955 31.15 66.4276 31.4821 66.4276 31.8917C66.4276 32.3013 66.0955 32.6334 65.6859 32.6334H65.0781H64.8597L64.9381 32.8373L69.0544 43.5397ZM67.2467 43.5399H67.4651L67.3867 43.3361L64.7736 36.5419L64.7366 36.4457H64.6336H56.0938H55.9438V36.5957V42.3755C55.9438 43.0176 56.4659 43.5399 57.1082 43.5399H67.2467ZM77.6405 59.6287L77.669 59.7421H77.7859H79.0289C79.1456 59.7421 79.2402 59.6474 79.2402 59.5307V54.704V54.554H79.0902H78.0756C76.6158 54.554 75.4278 53.3661 75.4278 51.9062V49.047C75.4278 48.6374 75.7598 48.3053 76.1695 48.3053H79.09H79.24V48.1553V47.8025C79.24 47.2313 78.8305 46.7478 78.267 46.654L68.4958 45.0255L68.4835 45.0234H68.4711H57.1081C55.6483 45.0234 54.4603 43.8356 54.4603 42.3756V35.7042C54.4603 35.2945 54.7923 34.9624 55.202 34.9624H63.9475H64.1659L64.0875 34.7586L63.3072 32.7297L63.2703 32.6335H63.1672H52.3429C51.7008 32.6335 51.1785 33.1557 51.1785 33.7979V56.6714C51.1785 57.081 50.8464 57.4131 50.4368 57.4131C50.0272 57.4131 49.6951 57.081 49.6951 56.6714V46.1264V45.9764H49.5451H21.7834H21.6334V46.1264V58.5777C21.6334 59.2198 22.1556 59.7421 22.7978 59.7421H25.9469H26.0639L26.0924 59.6287C26.9018 56.4121 29.818 54.0236 33.2816 54.0236C36.7452 54.0236 39.6614 56.4121 40.4708 59.6287L40.4994 59.7421H40.6163H63.1166H63.2335L63.2621 59.6287C64.0714 56.4121 66.9877 54.0236 70.4513 54.0236C73.9148 54.0236 76.8311 56.4121 77.6405 59.6287ZM79.0902 53.0706H79.2402V52.9206V49.9387V49.7887H79.0902H77.0614H76.9114V49.9387V51.9062C76.9114 52.5483 77.4336 53.0706 78.0758 53.0706H79.0902ZM27.3517 61.4369C27.3517 64.7067 30.0117 67.3667 33.2815 67.3667C36.5514 67.3667 39.2114 64.7067 39.2113 61.4369C39.2113 58.1671 36.5514 55.5071 33.2815 55.5071C30.0117 55.5071 27.3517 58.1671 27.3517 61.4369ZM64.5215 61.4369C64.5215 64.7067 67.1814 67.3667 70.4513 67.3667C73.7211 67.3667 76.3811 64.7067 76.3811 61.4369C76.3811 58.1671 73.7211 55.5071 70.4513 55.5071C67.1815 55.5071 64.5215 58.1671 64.5215 61.4369Z" fill="#1F2428" stroke="#F2F6FC" stroke-width="0.3"/>
<path d="M55.2003 48.3053H66.637C67.0467 48.3053 67.3787 48.6374 67.3787 49.047C67.3787 49.4567 67.0467 49.7887 66.637 49.7887H55.2003C54.7907 49.7887 54.4586 49.4567 54.4586 49.047C54.4586 48.6374 54.7907 48.3053 55.2003 48.3053Z" fill="#1F2428" stroke="#F2F6FC" stroke-width="0.3"/>
<path d="M70.4503 48.3053H72.3564C72.766 48.3053 73.0981 48.6374 73.0981 49.047C73.0981 49.4567 72.766 49.7887 72.3564 49.7887H70.4503C70.0407 49.7887 69.7086 49.4567 69.7086 49.047C69.7086 48.6374 70.0407 48.3053 70.4503 48.3053Z" fill="#1F2428" stroke="#F2F6FC" stroke-width="0.3"/>
<path d="M24.7023 48.3053H46.6229C47.0325 48.3053 47.3645 48.6374 47.3645 49.047C47.3645 49.4567 47.0324 49.7887 46.6228 49.7887H24.7023C24.2926 49.7887 23.9605 49.4567 23.9605 49.047C23.9605 48.6374 24.2926 48.3053 24.7023 48.3053Z" fill="#1F2428" stroke="#F2F6FC" stroke-width="0.3"/>
</svg>
