<svg width="17" height="14" viewBox="0 0 17 14" fill="none" xmlns="http://www.w3.org/2000/svg">
<path d="M15.2866 3.49436C15.2866 3.65217 15.2866 3.80998 15.2866 3.94525C15.2866 8.61192 11.7709 14 5.36257 14C3.3822 14 1.55759 13.4138 0 12.4219C0.267016 12.4444 0.556283 12.467 0.823298 12.467C2.44764 12.467 3.96073 11.9034 5.1623 10.9565C3.62696 10.934 2.33639 9.89694 1.91361 8.4992C2.13613 8.54428 2.33639 8.56683 2.58115 8.56683C2.89267 8.56683 3.20419 8.52174 3.49346 8.43156C1.89136 8.11594 0.689791 6.69565 0.689791 4.98229C0.689791 4.95974 0.689791 4.95974 0.689791 4.9372C1.15707 5.20773 1.6911 5.36554 2.26963 5.38808C1.33508 4.75684 0.712042 3.67472 0.712042 2.43478C0.712042 1.781 0.890052 1.1723 1.17932 0.653784C2.89267 2.79549 5.47382 4.19324 8.36649 4.35105C8.29974 4.10306 8.27749 3.80998 8.27749 3.53945C8.27749 1.5781 9.83508 0 11.7709 0C12.7723 0 13.6846 0.428341 14.3076 1.10467C15.1086 0.94686 15.8429 0.653784 16.5327 0.247987C16.2657 1.08213 15.7094 1.75845 14.9974 2.20934C15.7094 2.11916 16.377 1.93881 17 1.64573C16.555 2.36715 15.9764 2.99839 15.2866 3.49436Z" fill="#1F2428"/>
</svg>
