<svg width="42" height="42" viewBox="0 0 42 42" fill="none" xmlns="http://www.w3.org/2000/svg">
<rect width="42" height="42" rx="21" fill="#1DA1F2"/>
<path d="M29.054 17.1254C29.054 17.2998 29.054 17.4742 29.054 17.6237C29.054 22.7816 25.1682 28.7369 18.0852 28.7369C15.8964 28.7369 13.8798 28.089 12.1582 26.9927C12.4533 27.0176 12.773 27.0425 13.0682 27.0425C14.8635 27.0425 16.5359 26.4196 17.8639 25.373C16.167 25.3481 14.7405 24.2019 14.2732 22.657C14.5192 22.7069 14.7405 22.7318 15.0111 22.7318C15.3554 22.7318 15.6997 22.6819 16.0194 22.5823C14.2487 22.2334 12.9206 20.6636 12.9206 18.7699C12.9206 18.745 12.9206 18.745 12.9206 18.7201C13.4371 19.0191 14.0273 19.1935 14.6667 19.2184C13.6338 18.5207 12.9452 17.3247 12.9452 15.9543C12.9452 15.2317 13.1419 14.5589 13.4617 13.9858C15.3554 16.3529 18.2082 17.8978 21.4054 18.0722C21.3316 17.7981 21.307 17.4742 21.307 17.1752C21.307 15.0074 23.0286 13.2632 25.1682 13.2632C26.2749 13.2632 27.2832 13.7366 27.9719 14.4841C28.8572 14.3097 29.6688 13.9858 30.4312 13.5373C30.1361 14.4592 29.5213 15.2067 28.7343 15.7051C29.5213 15.6054 30.2591 15.4061 30.9477 15.0822C30.4558 15.8795 29.8164 16.5772 29.054 17.1254Z" fill="white"/>
</svg>
